<svg width="196" height="153" viewBox="0 0 196 153" fill="none" xmlns="http://www.w3.org/2000/svg">
<path opacity="0.2" fill-rule="evenodd" clip-rule="evenodd" d="M91.0669 149.143L194.4 148.963L172.133 111.75H172.031C172.062 111.508 172.082 111.263 172.082 111.012V29.0208C172.082 25.8384 169.536 23.2578 166.394 23.2578H29.8669C26.7253 23.2578 24.1787 25.8384 24.1787 29.0208V111.012C24.1787 111.342 24.2127 111.661 24.2637 111.977L24.2195 110.995L0.987305 149.299H1.2219C1.3273 151.329 3.4727 152.947 6.1111 152.947H189.711C192.418 152.947 194.611 151.244 194.611 149.143H91.0669Z" fill="#808080"/>
<path fill-rule="evenodd" clip-rule="evenodd" d="M173.119 107.897C173.119 111.046 170.569 113.596 167.42 113.596H30.6554C27.507 113.596 24.957 111.046 24.957 107.897V26.8039C24.957 23.6555 27.507 21.1055 30.6554 21.1055H167.42C170.569 21.1055 173.119 23.6555 173.119 26.8039V107.897Z" fill="#666666"/>
<path fill-rule="evenodd" clip-rule="evenodd" d="M24.9058 108.853L1.72461 145.771L195.477 145.434L173.17 108.629L24.9058 108.853Z" fill="#C1C1C1"/>
<path fill-rule="evenodd" clip-rule="evenodd" d="M195.691 145.613C195.691 147.691 193.495 149.377 190.782 149.377H6.85882C4.14902 149.377 1.94922 147.691 1.94922 145.613" fill="#666666"/>
<path d="M164.935 28.541H33.2158V101.889H164.935V28.541Z" fill="#47B2BA"/>
<g opacity="0.15">
<path opacity="0.15" d="M34.5957 119.669H30.0635L32.1171 115.068H36.4997L34.5957 119.669Z" fill="#070707"/>
<path opacity="0.15" d="M38.0943 125.479H27.4727L29.5263 120.875H39.8113L38.0943 125.479Z" fill="#070707"/>
<path opacity="0.15" d="M35.9688 131.834H24.8848L26.9316 127.23H37.679L35.9688 131.834Z" fill="#070707"/>
<path opacity="0.15" d="M40.0351 119.669H35.5029L37.3763 115.068H41.7589L40.0351 119.669Z" fill="#070707"/>
<path opacity="0.15" d="M45.4717 119.669H40.9395L42.6361 115.068H47.0187L45.4717 119.669Z" fill="#070707"/>
<path opacity="0.15" d="M50.9121 119.669H46.3799L47.8963 115.068H52.2789L50.9121 119.669Z" fill="#070707"/>
<path opacity="0.15" d="M56.3515 119.669H51.8193L53.1555 115.068H57.5381L56.3515 119.669Z" fill="#070707"/>
<path opacity="0.15" d="M61.7891 119.669H57.2568L58.4162 115.068H62.8022L61.7891 119.669Z" fill="#070707"/>
<path opacity="0.15" d="M67.2285 119.669H62.6963L63.6755 115.068H68.0615L67.2285 119.669Z" fill="#070707"/>
<path opacity="0.15" d="M72.665 119.669H68.1328L68.9386 115.068H73.3212L72.665 119.669Z" fill="#070707"/>
<path opacity="0.15" d="M78.1054 119.669H73.5732L74.1988 115.068H78.5814L78.1054 119.669Z" fill="#070707"/>
<path opacity="0.15" d="M83.5459 119.669H79.0137L79.4591 115.068H83.8417L83.5459 119.669Z" fill="#070707"/>
<path opacity="0.15" d="M88.9824 119.669H84.4502L84.7188 115.068H89.1014L88.9824 119.669Z" fill="#070707"/>
<path opacity="0.15" d="M94.4218 119.669H89.8896L89.9781 115.068H94.3606L94.4218 119.669Z" fill="#070707"/>
<path opacity="0.15" d="M99.8613 119.669H95.3291L95.2373 115.068H99.6199L99.8613 119.669Z" fill="#070707"/>
<path opacity="0.15" d="M105.299 119.669H100.767L100.498 115.068H104.884L105.299 119.669Z" fill="#070707"/>
<path opacity="0.15" d="M110.739 119.669H106.207L105.758 115.068H110.144L110.739 119.669Z" fill="#070707"/>
<path opacity="0.15" d="M116.175 119.669H111.643L111.021 115.068H115.403L116.175 119.669Z" fill="#070707"/>
<path opacity="0.15" d="M121.615 119.669H117.083L116.28 115.068H120.663L121.615 119.669Z" fill="#070707"/>
<path opacity="0.15" d="M127.055 119.669H122.523L121.54 115.068H125.923L127.055 119.669Z" fill="#070707"/>
<path opacity="0.15" d="M132.491 119.669H127.959L126.8 115.068H131.182L132.491 119.669Z" fill="#070707"/>
<path opacity="0.15" d="M137.931 119.669H133.399L132.06 115.068H136.442L137.931 119.669Z" fill="#070707"/>
<path opacity="0.15" d="M143.371 119.669H138.839L137.319 115.068H141.702L143.371 119.669Z" fill="#070707"/>
<path opacity="0.15" d="M148.808 119.669H144.276L142.579 115.068H146.965L148.808 119.669Z" fill="#070707"/>
<path opacity="0.15" d="M154.248 119.669H149.716L147.839 115.068H152.225L154.248 119.669Z" fill="#070707"/>
<path opacity="0.15" d="M159.685 119.669H155.153L153.103 115.068H157.485L159.685 119.669Z" fill="#070707"/>
<path opacity="0.15" d="M165.125 119.669H160.593L158.362 115.068H162.745L165.125 119.669Z" fill="#070707"/>
<path opacity="0.15" d="M27.1189 137.752H22.002L24.0522 133.148H29.0229L27.1189 137.752Z" fill="#070707"/>
<path opacity="0.15" d="M33.2596 137.752H28.1426L30.016 133.148H34.9834L33.2596 137.752Z" fill="#070707"/>
<path opacity="0.15" d="M39.3968 137.752H34.2832L35.9764 133.148H40.9438L39.3968 137.752Z" fill="#070707"/>
<path opacity="0.15" d="M45.5369 137.752H40.4199L41.9397 133.148H46.9071L45.5369 137.752Z" fill="#070707"/>
<path opacity="0.15" d="M51.6776 137.752H46.5605L47.9001 133.148H52.8676L51.6776 137.752Z" fill="#070707"/>
<path opacity="0.15" d="M57.8172 137.752H52.7002L53.8596 133.148H58.827L57.8172 137.752Z" fill="#070707"/>
<path opacity="0.15" d="M137.381 137.752H59.0957L60.0715 133.148H136.079L137.381 137.752Z" fill="#070707"/>
<path opacity="0.15" d="M143.776 137.752H138.659L137.323 133.148H142.291L143.776 137.752Z" fill="#070707"/>
<path opacity="0.15" d="M149.917 137.752H144.8L143.283 133.148H148.251L149.917 137.752Z" fill="#070707"/>
<path opacity="0.15" d="M156.058 137.752H150.941L149.244 133.148H154.212L156.058 137.752Z" fill="#070707"/>
<path opacity="0.15" d="M162.197 137.752H157.08L155.207 133.148H160.174L162.197 137.752Z" fill="#070707"/>
<path opacity="0.15" d="M168.338 137.752H163.221L161.167 133.148H166.134L168.338 137.752Z" fill="#070707"/>
<path opacity="0.15" d="M174.479 137.752H169.362L167.128 133.148H172.099L174.479 137.752Z" fill="#070707"/>
<path opacity="0.15" d="M43.521 125.479H38.8018L40.4984 120.875H45.068L43.521 125.479Z" fill="#070707"/>
<path opacity="0.15" d="M49.185 125.479H44.4658L45.9822 120.875H50.5552L49.185 125.479Z" fill="#070707"/>
<path opacity="0.15" d="M54.8491 125.479H50.1299L51.4661 120.875H56.0391L54.8491 125.479Z" fill="#070707"/>
<path opacity="0.15" d="M60.5141 125.479H55.7949L56.9543 120.875H61.5239L60.5141 125.479Z" fill="#070707"/>
<path opacity="0.15" d="M66.1782 125.479H61.459L62.4382 120.875H67.0112L66.1782 125.479Z" fill="#070707"/>
<path opacity="0.15" d="M71.8422 125.479H67.123L67.9254 120.875H72.495L71.8422 125.479Z" fill="#070707"/>
<path opacity="0.15" d="M77.5068 125.479H72.7842L73.4098 120.875H77.9794L77.5068 125.479Z" fill="#070707"/>
<path opacity="0.15" d="M83.1718 125.479H78.4492L78.8946 120.875H83.4676L83.1718 125.479Z" fill="#070707"/>
<path opacity="0.15" d="M88.8325 125.479H84.1133L84.3819 120.875H88.9515L88.8325 125.479Z" fill="#070707"/>
<path opacity="0.15" d="M94.4965 125.479H89.7773L89.8657 120.875H94.4387L94.4965 125.479Z" fill="#070707"/>
<path opacity="0.15" d="M100.161 125.479H95.4414L95.3496 120.875H99.9226L100.161 125.479Z" fill="#070707"/>
<path opacity="0.15" d="M105.826 125.479H101.106L100.838 120.875H105.407L105.826 125.479Z" fill="#070707"/>
<path opacity="0.15" d="M111.49 125.479H106.771L106.322 120.875H110.895L111.49 125.479Z" fill="#070707"/>
<path opacity="0.15" d="M117.154 125.479H112.435L111.81 120.875H116.379L117.154 125.479Z" fill="#070707"/>
<path opacity="0.15" d="M122.819 125.479H118.096L117.294 120.875H121.864L122.819 125.479Z" fill="#070707"/>
<path opacity="0.15" d="M128.484 125.479H123.761L122.778 120.875H127.351L128.484 125.479Z" fill="#070707"/>
<path opacity="0.15" d="M134.144 125.479H129.425L128.266 120.875H132.835L134.144 125.479Z" fill="#070707"/>
<path opacity="0.15" d="M139.809 125.479H135.09L133.75 120.875H138.323L139.809 125.479Z" fill="#070707"/>
<path opacity="0.15" d="M145.473 125.479H140.754L139.234 120.875H143.807L145.473 125.479Z" fill="#070707"/>
<path opacity="0.15" d="M151.137 125.479H146.418L144.722 120.875H149.291L151.137 125.479Z" fill="#070707"/>
<path opacity="0.15" d="M156.801 125.479H152.082L150.205 120.875H154.778L156.801 125.479Z" fill="#070707"/>
<path opacity="0.15" d="M162.466 125.479H157.747L155.693 120.875H160.263L162.466 125.479Z" fill="#070707"/>
<path opacity="0.15" d="M171.248 131.503H166.332L161.178 120.875H165.747L171.248 131.503Z" fill="#070707"/>
<path opacity="0.15" d="M41.3851 131.834H36.4619L38.1551 127.23H42.9321L41.3851 131.834Z" fill="#070707"/>
<path opacity="0.15" d="M47.2977 131.834H42.3711L43.8875 127.23H48.6645L47.2977 131.834Z" fill="#070707"/>
<path opacity="0.15" d="M53.2069 131.834H48.2803L49.6199 127.23H54.3969L53.2069 131.834Z" fill="#070707"/>
<path opacity="0.15" d="M59.1166 131.834H54.1934L55.3528 127.23H60.1298L59.1166 131.834Z" fill="#070707"/>
<path opacity="0.15" d="M65.0291 131.834H60.1025L61.0851 127.23H65.8621L65.0291 131.834Z" fill="#070707"/>
<path opacity="0.15" d="M70.9383 131.834H66.0117L66.8175 127.23H71.5911L70.9383 131.834Z" fill="#070707"/>
<path opacity="0.15" d="M76.8504 131.834H71.9238L72.546 127.23H77.323L76.8504 131.834Z" fill="#070707"/>
<path opacity="0.15" d="M82.7596 131.834H77.833L78.2784 127.23H83.0554L82.7596 131.834Z" fill="#070707"/>
<path opacity="0.15" d="M88.6693 131.834H83.7461L84.0113 127.23H88.7883L88.6693 131.834Z" fill="#070707"/>
<path opacity="0.15" d="M94.5819 131.834H89.6553L89.7437 127.23H94.5207L94.5819 131.834Z" fill="#070707"/>
<path opacity="0.15" d="M100.491 131.834H95.564L95.4756 127.23H100.253L100.491 131.834Z" fill="#070707"/>
<path opacity="0.15" d="M106.4 131.834H101.477L101.208 127.23H105.985L106.4 131.834Z" fill="#070707"/>
<path opacity="0.15" d="M112.312 131.834H107.386L106.94 127.23H111.717L112.312 131.834Z" fill="#070707"/>
<path opacity="0.15" d="M118.223 131.834H113.299L112.674 127.23H117.447L118.223 131.834Z" fill="#070707"/>
<path opacity="0.15" d="M124.135 131.834H119.208L118.402 127.23H123.179L124.135 131.834Z" fill="#070707"/>
<path opacity="0.15" d="M130.044 131.834H125.117L124.135 127.23H128.912L130.044 131.834Z" fill="#070707"/>
<path opacity="0.15" d="M135.953 131.834H131.03L129.867 127.23H134.644L135.953 131.834Z" fill="#070707"/>
<path opacity="0.15" d="M141.866 131.834H136.939L135.6 127.23H140.377L141.866 131.834Z" fill="#070707"/>
<path opacity="0.15" d="M147.775 131.834H142.848L141.332 127.23H146.109L147.775 131.834Z" fill="#070707"/>
<path opacity="0.15" d="M153.684 131.834H148.761L147.064 127.23H151.841L153.684 131.834Z" fill="#070707"/>
<path opacity="0.15" d="M159.597 131.834H154.67L152.797 127.23H157.574L159.597 131.834Z" fill="#070707"/>
<path opacity="0.15" d="M165.506 131.834H160.58L158.529 127.23H163.303L165.506 131.834Z" fill="#070707"/>
</g>
<path d="M34.5957 119.329H30.0635L32.1171 114.729H36.4997L34.5957 119.329Z" fill="#727171"/>
<path d="M38.0943 125.139H27.4727L29.5263 120.535H39.8113L38.0943 125.139Z" fill="#727171"/>
<path d="M35.9688 131.494H24.8848L26.9316 126.891H37.679L35.9688 131.494Z" fill="#727171"/>
<path d="M40.0351 119.329H35.5029L37.3763 114.729H41.7589L40.0351 119.329Z" fill="#727171"/>
<path d="M45.4717 119.329H40.9395L42.6361 114.729H47.0187L45.4717 119.329Z" fill="#727171"/>
<path d="M50.9121 119.329H46.3799L47.8963 114.729H52.2789L50.9121 119.329Z" fill="#727171"/>
<path d="M56.3515 119.329H51.8193L53.1555 114.729H57.5381L56.3515 119.329Z" fill="#727171"/>
<path d="M61.7891 119.329H57.2568L58.4162 114.729H62.8022L61.7891 119.329Z" fill="#727171"/>
<path d="M67.2285 119.329H62.6963L63.6755 114.729H68.0615L67.2285 119.329Z" fill="#727171"/>
<path d="M72.665 119.329H68.1328L68.9386 114.729H73.3212L72.665 119.329Z" fill="#727171"/>
<path d="M78.1054 119.329H73.5732L74.1988 114.729H78.5814L78.1054 119.329Z" fill="#727171"/>
<path d="M83.5459 119.329H79.0137L79.4591 114.729H83.8417L83.5459 119.329Z" fill="#727171"/>
<path d="M88.9824 119.329H84.4502L84.7188 114.729H89.1014L88.9824 119.329Z" fill="#727171"/>
<path d="M94.4218 119.329H89.8896L89.9781 114.729H94.3606L94.4218 119.329Z" fill="#727171"/>
<path d="M99.8613 119.329H95.3291L95.2373 114.729H99.6199L99.8613 119.329Z" fill="#727171"/>
<path d="M105.299 119.329H100.767L100.498 114.729H104.884L105.299 119.329Z" fill="#727171"/>
<path d="M110.739 119.329H106.207L105.758 114.729H110.144L110.739 119.329Z" fill="#727171"/>
<path d="M116.175 119.329H111.643L111.021 114.729H115.403L116.175 119.329Z" fill="#727171"/>
<path d="M121.615 119.329H117.083L116.28 114.729H120.663L121.615 119.329Z" fill="#727171"/>
<path d="M127.055 119.329H122.523L121.54 114.729H125.923L127.055 119.329Z" fill="#727171"/>
<path d="M132.491 119.329H127.959L126.8 114.729H131.182L132.491 119.329Z" fill="#727171"/>
<path d="M137.931 119.329H133.399L132.06 114.729H136.442L137.931 119.329Z" fill="#727171"/>
<path d="M143.371 119.329H138.839L137.319 114.729H141.702L143.371 119.329Z" fill="#727171"/>
<path d="M148.808 119.329H144.276L142.579 114.729H146.965L148.808 119.329Z" fill="#727171"/>
<path d="M154.248 119.329H149.716L147.839 114.729H152.225L154.248 119.329Z" fill="#727171"/>
<path d="M159.685 119.329H155.153L153.103 114.729H157.485L159.685 119.329Z" fill="#727171"/>
<path d="M165.125 119.329H160.593L158.362 114.729H162.745L165.125 119.329Z" fill="#727171"/>
<path d="M27.1189 137.412H22.002L24.0522 132.809H29.0229L27.1189 137.412Z" fill="#727171"/>
<path d="M33.2596 137.412H28.1426L30.016 132.809H34.9834L33.2596 137.412Z" fill="#727171"/>
<path d="M39.3968 137.412H34.2832L35.9764 132.809H40.9438L39.3968 137.412Z" fill="#727171"/>
<path d="M45.5369 137.412H40.4199L41.9397 132.809H46.9071L45.5369 137.412Z" fill="#727171"/>
<path d="M51.6776 137.412H46.5605L47.9001 132.809H52.8676L51.6776 137.412Z" fill="#727171"/>
<path d="M57.8172 137.412H52.7002L53.8596 132.809H58.827L57.8172 137.412Z" fill="#727171"/>
<path d="M137.381 137.412H59.0957L60.0715 132.809H136.079L137.381 137.412Z" fill="#727171"/>
<path d="M143.776 137.412H138.659L137.323 132.809H142.291L143.776 137.412Z" fill="#727171"/>
<path d="M149.917 137.412H144.8L143.283 132.809H148.251L149.917 137.412Z" fill="#727171"/>
<path d="M156.058 137.412H150.941L149.244 132.809H154.212L156.058 137.412Z" fill="#727171"/>
<path d="M162.197 137.412H157.08L155.207 132.809H160.174L162.197 137.412Z" fill="#727171"/>
<path d="M168.338 137.412H163.221L161.167 132.809H166.134L168.338 137.412Z" fill="#727171"/>
<path d="M174.479 137.412H169.362L167.128 132.809H172.099L174.479 137.412Z" fill="#727171"/>
<path d="M43.521 125.139H38.8018L40.4984 120.535H45.068L43.521 125.139Z" fill="#727171"/>
<path d="M49.185 125.139H44.4658L45.9822 120.535H50.5552L49.185 125.139Z" fill="#727171"/>
<path d="M54.8491 125.139H50.1299L51.4661 120.535H56.0391L54.8491 125.139Z" fill="#727171"/>
<path d="M60.5141 125.139H55.7949L56.9543 120.535H61.5239L60.5141 125.139Z" fill="#727171"/>
<path d="M66.1782 125.139H61.459L62.4382 120.535H67.0112L66.1782 125.139Z" fill="#727171"/>
<path d="M71.8422 125.139H67.123L67.9254 120.535H72.495L71.8422 125.139Z" fill="#727171"/>
<path d="M77.5068 125.139H72.7842L73.4098 120.535H77.9794L77.5068 125.139Z" fill="#727171"/>
<path d="M83.1718 125.139H78.4492L78.8946 120.535H83.4676L83.1718 125.139Z" fill="#727171"/>
<path d="M88.8325 125.139H84.1133L84.3819 120.535H88.9515L88.8325 125.139Z" fill="#727171"/>
<path d="M94.4965 125.139H89.7773L89.8657 120.535H94.4387L94.4965 125.139Z" fill="#727171"/>
<path d="M100.161 125.139H95.4414L95.3496 120.535H99.9226L100.161 125.139Z" fill="#727171"/>
<path d="M105.826 125.139H101.106L100.838 120.535H105.407L105.826 125.139Z" fill="#727171"/>
<path d="M111.49 125.139H106.771L106.322 120.535H110.895L111.49 125.139Z" fill="#727171"/>
<path d="M117.154 125.139H112.435L111.81 120.535H116.379L117.154 125.139Z" fill="#727171"/>
<path d="M122.819 125.139H118.096L117.294 120.535H121.864L122.819 125.139Z" fill="#727171"/>
<path d="M128.484 125.139H123.761L122.778 120.535H127.351L128.484 125.139Z" fill="#727171"/>
<path d="M134.144 125.139H129.425L128.266 120.535H132.835L134.144 125.139Z" fill="#727171"/>
<path d="M139.809 125.139H135.09L133.75 120.535H138.323L139.809 125.139Z" fill="#727171"/>
<path d="M145.473 125.139H140.754L139.234 120.535H143.807L145.473 125.139Z" fill="#727171"/>
<path d="M151.137 125.139H146.418L144.722 120.535H149.291L151.137 125.139Z" fill="#727171"/>
<path d="M156.801 125.139H152.082L150.205 120.535H154.778L156.801 125.139Z" fill="#727171"/>
<path d="M162.466 125.139H157.747L155.693 120.535H160.263L162.466 125.139Z" fill="#727171"/>
<path d="M171.248 131.164H166.332L161.178 120.535H165.747L171.248 131.164Z" fill="#727171"/>
<path d="M41.3851 131.494H36.4619L38.1551 126.891H42.9321L41.3851 131.494Z" fill="#727171"/>
<path d="M47.2977 131.494H42.3711L43.8875 126.891H48.6645L47.2977 131.494Z" fill="#727171"/>
<path d="M53.2069 131.494H48.2803L49.6199 126.891H54.3969L53.2069 131.494Z" fill="#727171"/>
<path d="M59.1166 131.494H54.1934L55.3528 126.891H60.1298L59.1166 131.494Z" fill="#727171"/>
<path d="M65.0291 131.494H60.1025L61.0851 126.891H65.8621L65.0291 131.494Z" fill="#727171"/>
<path d="M70.9383 131.494H66.0117L66.8175 126.891H71.5911L70.9383 131.494Z" fill="#727171"/>
<path d="M76.8504 131.494H71.9238L72.546 126.891H77.323L76.8504 131.494Z" fill="#727171"/>
<path d="M82.7596 131.494H77.833L78.2784 126.891H83.0554L82.7596 131.494Z" fill="#727171"/>
<path d="M88.6693 131.494H83.7461L84.0113 126.891H88.7883L88.6693 131.494Z" fill="#727171"/>
<path d="M94.5819 131.494H89.6553L89.7437 126.891H94.5207L94.5819 131.494Z" fill="#727171"/>
<path d="M100.491 131.494H95.564L95.4756 126.891H100.253L100.491 131.494Z" fill="#727171"/>
<path d="M106.4 131.494H101.477L101.208 126.891H105.985L106.4 131.494Z" fill="#727171"/>
<path d="M112.312 131.494H107.386L106.94 126.891H111.717L112.312 131.494Z" fill="#727171"/>
<path d="M118.223 131.494H113.299L112.674 126.891H117.447L118.223 131.494Z" fill="#727171"/>
<path d="M124.135 131.494H119.208L118.402 126.891H123.179L124.135 131.494Z" fill="#727171"/>
<path d="M130.044 131.494H125.117L124.135 126.891H128.912L130.044 131.494Z" fill="#727171"/>
<path d="M135.953 131.494H131.03L129.867 126.891H134.644L135.953 131.494Z" fill="#727171"/>
<path d="M141.866 131.494H136.939L135.6 126.891H140.377L141.866 131.494Z" fill="#727171"/>
<path d="M147.775 131.494H142.848L141.332 126.891H146.109L147.775 131.494Z" fill="#727171"/>
<path d="M153.684 131.494H148.761L147.064 126.891H151.841L153.684 131.494Z" fill="#727171"/>
<path d="M159.597 131.494H154.67L152.797 126.891H157.574L159.597 131.494Z" fill="#727171"/>
<path d="M165.506 131.494H160.58L158.529 126.891H163.303L165.506 131.494Z" fill="#727171"/>
<path d="M124.989 39.2656C124.989 39.2656 125.07 39.32 125.227 39.422C125.383 39.5274 125.621 39.6736 125.917 39.8946C126.512 40.3298 127.386 40.9758 128.382 41.9448C128.878 42.4276 129.419 42.9818 129.97 43.621C130.524 44.2568 131.068 44.9946 131.615 45.8106C132.159 46.6266 132.696 47.531 133.2 48.5204C133.699 49.5098 134.138 50.5978 134.536 51.7538C134.93 52.9132 135.263 54.1474 135.518 55.4496C135.767 56.7518 135.909 58.1186 135.974 59.5296C136.032 60.9406 136.001 62.3958 135.862 63.8748C135.729 65.3572 135.44 66.8498 135.076 68.3492C134.322 71.3378 133.189 74.357 131.561 77.1586C130.755 78.5594 129.864 79.9296 128.885 81.2352C127.902 82.5442 126.869 83.8022 125.709 84.982C123.36 87.3688 120.674 89.3408 117.862 90.9354C115.047 92.5334 112.062 93.652 109.121 94.468C106.176 95.2874 103.225 95.6682 100.42 95.7226C97.6118 95.794 94.9258 95.4336 92.5356 94.6924C91.3456 94.3082 90.2134 93.8594 89.2172 93.2508C88.221 92.649 87.3336 91.9588 86.6298 91.1734C85.9226 90.3948 85.3786 89.555 85.0386 88.7186C84.6884 87.8856 84.515 87.0764 84.4436 86.3556C84.3722 85.6348 84.3824 84.9922 84.4606 84.4482C84.4844 84.1762 84.532 83.928 84.5762 83.7002C84.6136 83.4724 84.6646 83.2718 84.7088 83.0916C84.7904 82.7278 84.8822 82.4592 84.9366 82.279C84.9944 82.0988 85.0216 82.0036 85.0216 82.0036L85.2868 82.0614C85.2868 82.0614 85.2698 82.1566 85.2358 82.3368C85.2018 82.517 85.144 82.7856 85.1032 83.1426C85.0182 83.8464 84.9162 84.9106 85.1644 86.2162C85.2868 86.8656 85.5078 87.5762 85.8784 88.28C86.2456 88.9872 86.7658 89.6876 87.4356 90.3268C88.7752 91.6052 90.7098 92.564 92.9334 93.1148C95.1604 93.6656 97.673 93.8458 100.301 93.6826C102.933 93.5262 105.687 93.0162 108.441 92.19C111.195 91.357 113.949 90.1908 116.56 88.6778C119.168 87.1648 121.64 85.3016 123.761 83.0984C125.893 80.8986 127.766 78.4438 129.296 75.8428C130.82 73.2384 131.989 70.481 132.761 67.7134C133.533 64.9458 133.897 62.1646 133.903 59.533C133.907 56.898 133.553 54.4092 132.945 52.1924C132.346 49.9722 131.496 48.024 130.582 46.3954C129.667 44.7634 128.688 43.451 127.817 42.431C126.944 41.4144 126.179 40.68 125.645 40.2006C125.383 39.9592 125.169 39.779 125.026 39.6566C124.883 39.5342 124.812 39.473 124.812 39.473L124.989 39.2656Z" fill="#EEEEEE"/>
<path fill-rule="evenodd" clip-rule="evenodd" d="M111.623 18.6602L124.761 19.126L125.903 21.319L116.771 26.4903" fill="#E8563D"/>
<path fill-rule="evenodd" clip-rule="evenodd" d="M103.996 25.4473L102.942 38.5543L104.989 39.9415L111.181 31.4687" fill="#E8563D"/>
<path d="M97.0951 4.40039L94.2493 6.90959L91.4035 9.41879C91.4035 9.41879 90.9683 13.7232 97.4657 21.1012C103.967 28.4792 112.286 33.9396 112.286 33.9396L115.54 31.0734L118.794 28.2072C118.794 28.2072 114.422 19.2652 107.921 11.8872C101.42 4.50919 97.0951 4.40039 97.0951 4.40039Z" fill="#BCA79F"/>
<path d="M102.198 15.9088C103.388 14.8582 103.504 13.0358 102.453 11.8424C101.403 10.649 99.5805 10.5368 98.3871 11.584C97.1971 12.6346 97.0815 14.4604 98.1287 15.6504C99.1827 16.8438 101.008 16.9594 102.198 15.9088Z" fill="#A9D7D8"/>
<path d="M102.62 16.3887C104.079 15.1035 104.218 12.8833 102.933 11.4247C101.647 9.96613 99.4273 9.82673 97.9687 11.1119C96.5101 12.3971 96.3707 14.6173 97.6559 16.0759C98.9411 17.5311 101.161 17.6705 102.62 16.3887ZM98.6827 11.9211C99.6891 11.0337 101.233 11.1323 102.12 12.1387C103.007 13.1451 102.912 14.6887 101.902 15.5761C100.896 16.4635 99.3525 16.3683 98.4651 15.3585C97.5777 14.3521 97.6763 12.8085 98.6827 11.9211Z" fill="#997973"/>
<path d="M106.993 21.2802C107.567 20.7736 107.625 19.893 107.119 19.3184C106.612 18.7438 105.731 18.686 105.153 19.196C104.579 19.7026 104.521 20.5832 105.031 21.1578C105.538 21.7324 106.418 21.7868 106.993 21.2802Z" fill="#A9D7D8"/>
<path d="M107.196 21.512C107.9 20.8932 107.968 19.8188 107.346 19.115C106.727 18.4112 105.653 18.3432 104.949 18.962C104.245 19.5808 104.177 20.6552 104.796 21.359C105.418 22.0628 106.493 22.1308 107.196 21.512ZM105.296 19.3564C105.782 18.928 106.527 18.9756 106.955 19.4618C107.383 19.948 107.336 20.6926 106.85 21.121C106.363 21.5494 105.619 21.5018 105.19 21.0156C104.762 20.5294 104.81 19.7848 105.296 19.3564Z" fill="#997973"/>
<path d="M111.219 26.0268C111.793 25.5202 111.851 24.6396 111.341 24.065C110.835 23.4904 109.954 23.4326 109.379 23.9392C108.805 24.4458 108.747 25.3264 109.254 25.901C109.764 26.479 110.644 26.5334 111.219 26.0268Z" fill="#A9D7D8"/>
<path d="M111.423 26.2581C112.127 25.6393 112.195 24.5649 111.576 23.8611C110.957 23.1573 109.883 23.0893 109.179 23.7081C108.475 24.3269 108.407 25.4013 109.029 26.1051C109.645 26.8089 110.719 26.8769 111.423 26.2581ZM109.522 24.1025C110.009 23.6741 110.753 23.7217 111.182 24.2079C111.61 24.6941 111.562 25.4387 111.076 25.8671C110.59 26.2955 109.845 26.2479 109.417 25.7617C108.989 25.2755 109.036 24.5309 109.522 24.1025Z" fill="#997973"/>
<path fill-rule="evenodd" clip-rule="evenodd" d="M113.581 33.5499L118.722 29.3203C118.722 29.3203 122.067 31.5405 123.604 35.8109C123.604 35.8109 122.778 35.5525 121.69 35.3077C121.69 35.3077 122.747 36.7323 122.829 39.1021C122.829 39.1055 118.253 40.7613 113.581 33.5499Z" fill="#F7AC3B"/>
<path fill-rule="evenodd" clip-rule="evenodd" d="M114.081 33.1304L118.12 29.8086C118.12 29.8086 120.721 31.2026 121.932 34.5584C121.932 34.5584 121.048 34.3918 120.378 34.0994C120.378 34.0994 121.286 35.6294 121.35 37.4926C121.35 37.4926 117.753 38.7948 114.081 33.1304Z" fill="#F2D970"/>
<path d="M119.551 27.8715C119.738 28.0789 119.718 28.4019 119.511 28.5855L112.449 34.8755C112.238 35.0625 111.918 35.0421 111.735 34.8347C111.548 34.6273 111.568 34.3043 111.776 34.1207L118.837 27.8307C119.045 27.6437 119.364 27.6607 119.551 27.8715Z" fill="#D33B26"/>
<path d="M91.1006 10.2356L88.5098 0.392578L97.9516 4.20058L91.1006 10.2356Z" fill="#E8563D"/>
<path d="M98.4684 4.23812C98.6044 4.39452 98.5908 4.62912 98.4344 4.76512L91.5969 10.7899C91.4439 10.9259 91.2059 10.9123 91.0699 10.7559C90.9339 10.5995 90.9475 10.3649 91.1039 10.2289L97.938 4.20413C98.0978 4.07153 98.3324 4.08512 98.4684 4.23812Z" fill="#D33B26"/>
<path fill-rule="evenodd" clip-rule="evenodd" d="M109.471 81.8272L108.72 81.5722L108.247 82.2114L108.094 81.4328L107.306 81.3444L107.901 80.8208L107.581 80.0932L108.332 80.3482L108.805 79.709L108.961 80.4876L109.75 80.576L109.152 81.0996L109.471 81.8272Z" fill="#F7D581"/>
<path fill-rule="evenodd" clip-rule="evenodd" d="M100.913 83.8833L99.8661 83.5297L99.2133 84.4205L98.9957 83.3359L97.8975 83.2135L98.7271 82.4859L98.2817 81.4728L99.3289 81.8263L99.9851 80.9355L100.199 82.0201L101.297 82.1426L100.468 82.8701L100.913 83.8833Z" fill="#F7D581"/>
<path fill-rule="evenodd" clip-rule="evenodd" d="M103.539 74.7618L103.022 74.5884L102.699 75.027L102.59 74.4932L102.046 74.432L102.461 74.0716L102.236 73.5718L102.757 73.7452L103.08 73.3066L103.188 73.8404L103.732 73.9016L103.321 74.262L103.539 74.7618Z" fill="#F7D581"/>
<path fill-rule="evenodd" clip-rule="evenodd" d="M122.263 45.4966L122.065 46.2684L122.739 46.6866L121.974 46.9008L121.946 47.6964L121.379 47.1388L120.678 47.5128L120.875 46.7444L120.202 46.3228L120.967 46.1086L120.994 45.3164L121.562 45.8706L122.263 45.4966Z" fill="#F7D581"/>
<path fill-rule="evenodd" clip-rule="evenodd" d="M124.961 53.8746L124.686 54.9456L125.624 55.5304L124.56 55.8296L124.523 56.9346L123.734 56.1628L122.755 56.6796L123.03 55.612L122.092 55.0238L123.159 54.728L123.197 53.623L123.986 54.3948L124.961 53.8746Z" fill="#F7D581"/>
<path fill-rule="evenodd" clip-rule="evenodd" d="M115.669 51.9461L115.533 52.4765L115.996 52.7655L115.469 52.9117L115.452 53.4591L115.061 53.0749L114.578 53.3333L114.714 52.8029L114.248 52.5139L114.775 52.3677L114.795 51.8203L115.186 52.2011L115.669 51.9461Z" fill="#F7D581"/>
<path fill-rule="evenodd" clip-rule="evenodd" d="M84.2833 53.1733L83.6407 52.7075L83.0015 53.1801L83.0831 52.3913L82.3555 52.0717L83.0797 51.7487L82.9913 50.9599L83.6339 51.4257L84.2731 50.9531L84.1915 51.7419L84.9191 52.0615L84.1949 52.3845L84.2833 53.1733Z" fill="#F7D581"/>
<path fill-rule="evenodd" clip-rule="evenodd" d="M75.498 52.6101L74.6038 51.9607L73.7164 52.6203L73.8286 51.5187L72.8154 51.0801L73.8252 50.6279L73.6994 49.5297L74.5936 50.1791L75.4844 49.5195L75.3688 50.6211L76.382 51.0597L75.3756 51.5119L75.498 52.6101Z" fill="#F7D581"/>
<path fill-rule="evenodd" clip-rule="evenodd" d="M80.7064 44.6745L80.261 44.3549L79.8224 44.6779L79.8768 44.1339L79.377 43.9163L79.8768 43.6919L79.8156 43.1513L80.2576 43.4709L80.6962 43.1445L80.6418 43.6885L81.1416 43.9061L80.6418 44.1305L80.7064 44.6745Z" fill="#F7D581"/>
<path d="M99.7392 43.5527C99.7392 43.5527 99.7086 43.1549 99.661 42.5565C99.6134 41.9581 99.5726 41.1625 99.525 40.3635C99.5046 39.9657 99.457 39.5679 99.4502 39.1939C99.4502 38.8199 99.4842 38.4731 99.525 38.1739C99.5998 37.5755 99.7392 37.1777 99.7392 37.1777H99.8004C99.8004 37.1777 99.9364 37.5755 100.015 38.1739C100.055 38.4731 100.086 38.8199 100.089 39.1939C100.083 39.5679 100.035 39.9657 100.015 40.3635C99.967 41.1591 99.9296 41.9581 99.8786 42.5565C99.831 43.1549 99.8004 43.5527 99.8004 43.5527H99.7392Z" fill="#F47E14"/>
<path d="M109.263 47.4668C109.263 47.4668 109.494 47.2016 109.854 46.8174C110.208 46.4264 110.697 45.9232 111.18 45.4166C111.425 45.165 111.65 44.893 111.888 44.6652C112.129 44.4442 112.377 44.2606 112.598 44.111C113.037 43.8118 113.387 43.6758 113.387 43.6758L113.428 43.72C113.428 43.72 113.265 44.0566 112.928 44.468C112.761 44.6754 112.557 44.9066 112.319 45.1276C112.074 45.3452 111.785 45.5458 111.513 45.7702C110.966 46.2088 110.425 46.6542 110.007 46.9738C109.592 47.2968 109.31 47.5076 109.31 47.5076L109.263 47.4668Z" fill="#F47E14"/>
<path d="M91.1613 47.5115C91.1613 47.5115 90.8792 47.3007 90.4644 46.9777C90.0462 46.6581 89.5056 46.2127 88.9582 45.7741C88.6862 45.5531 88.3972 45.3491 88.1524 45.1315C87.911 44.9071 87.7069 44.6793 87.5437 44.4719C87.2105 44.0605 87.0439 43.7239 87.0439 43.7239L87.0847 43.6797C87.0847 43.6797 87.4349 43.8157 87.8735 44.1149C88.0945 44.2611 88.3393 44.4447 88.5841 44.6691C88.8221 44.8969 89.0465 45.1655 89.2913 45.4205C89.7741 45.9305 90.2638 46.4303 90.6174 46.8213C90.9744 47.2055 91.209 47.4707 91.209 47.4707L91.1613 47.5115Z" fill="#F47E14"/>
<path d="M94.4563 43.9162C94.4563 43.9162 93.9633 43.0594 93.5281 42.1788C93.4193 41.9578 93.2833 41.7504 93.1915 41.5396C93.1065 41.3254 93.0555 41.1146 93.0249 40.931C92.9603 40.5604 92.9943 40.2816 92.9943 40.2816L93.0521 40.2578C93.0521 40.2578 93.2697 40.4346 93.4771 40.7474C93.5825 40.9038 93.6913 41.0908 93.7797 41.3016C93.8613 41.5158 93.9055 41.7606 93.9803 41.9952C94.2761 42.9336 94.5141 43.8924 94.5141 43.8924L94.4563 43.9162Z" fill="#E2E2E2"/>
<path d="M105.591 43.8963C105.591 43.8963 105.829 42.9375 106.121 41.9991C106.193 41.7645 106.24 41.5197 106.322 41.3055C106.407 41.0913 106.519 40.9043 106.624 40.7513C106.832 40.4385 107.049 40.2617 107.049 40.2617L107.107 40.2855C107.107 40.2855 107.145 40.5643 107.077 40.9315C107.046 41.1185 106.995 41.3293 106.91 41.5401C106.818 41.7509 106.682 41.9617 106.573 42.1793C106.138 43.0599 105.645 43.9167 105.645 43.9167L105.591 43.8963Z" fill="#E2E2E2"/>
<path d="M76.7253 70.2907C76.7253 70.2907 76.3581 70.4471 75.8073 70.6817C75.2565 70.9197 74.5119 71.2087 73.7741 71.5079C73.4035 71.6541 73.0397 71.8275 72.6895 71.9499C72.3359 72.0689 71.9959 72.1505 71.6967 72.2049C71.1051 72.3239 70.6835 72.3205 70.6835 72.3205L70.6631 72.2627C70.6631 72.2627 70.9963 72.0077 71.5403 71.7425C71.8089 71.6099 72.1319 71.4671 72.4855 71.3481C72.8425 71.2359 73.2335 71.1543 73.6177 71.0455C74.3895 70.8381 75.1545 70.6205 75.7393 70.4777C76.3207 70.3315 76.7083 70.2363 76.7083 70.2363L76.7253 70.2907Z" fill="#F47E14"/>
<path d="M77.4053 60.0196C77.4053 60.0196 77.0823 59.8836 76.6029 59.666C76.1201 59.4552 75.4877 59.1526 74.8519 58.8568C74.5357 58.7072 74.2059 58.578 73.9169 58.425C73.6313 58.2652 73.3763 58.0918 73.1689 57.9286C72.7473 57.609 72.5059 57.32 72.5059 57.32L72.5365 57.2656C72.5365 57.2656 72.9105 57.3132 73.4069 57.5002C73.6551 57.592 73.9407 57.711 74.2263 57.8674C74.5119 58.0306 74.7941 58.2414 75.0899 58.4284C75.6781 58.8058 76.2731 59.1798 76.7083 59.4756C77.1469 59.7646 77.4359 59.9652 77.4359 59.9652L77.4053 60.0196Z" fill="#F47E14"/>
<path d="M83.2094 77.1669C83.2094 77.1669 83.1006 77.5001 82.9238 77.9965C82.7538 78.4963 82.5056 79.1491 82.2642 79.8087C82.1418 80.1351 82.0398 80.4751 81.914 80.7777C81.778 81.0769 81.625 81.3421 81.4822 81.5665C81.2 82.0153 80.9314 82.2771 80.9314 82.2771L80.877 82.2533C80.877 82.2533 80.894 81.8793 81.0402 81.3693C81.1082 81.1143 81.2068 80.8219 81.3394 80.5193C81.4788 80.2235 81.6658 79.9209 81.8256 79.6115C82.1554 78.9927 82.475 78.3705 82.7334 77.9115C82.985 77.4491 83.1618 77.1465 83.1618 77.1465L83.2094 77.1669Z" fill="#F47E14"/>
<path d="M78.7516 75.1877C78.7516 75.1877 78.0954 75.9289 77.3984 76.6191C77.225 76.7925 77.0686 76.9897 76.8986 77.1427C76.7218 77.2923 76.5382 77.4045 76.3716 77.4929C76.0418 77.6731 75.7664 77.7275 75.7664 77.7275L75.7256 77.6799C75.7256 77.6799 75.8242 77.4181 76.052 77.1189C76.1642 76.9693 76.307 76.8061 76.4804 76.6565C76.6572 76.5103 76.8748 76.3879 77.0754 76.2451C77.871 75.6671 78.704 75.1367 78.704 75.1367L78.7516 75.1877Z" fill="#E2E2E2"/>
<path d="M75.1883 64.637C75.1883 64.637 74.2023 64.7186 73.2197 64.7356C72.9749 64.7424 72.7267 64.7764 72.4989 64.7662C72.2711 64.7526 72.0569 64.7084 71.8767 64.6574C71.5129 64.5588 71.2783 64.4092 71.2783 64.4092L71.2817 64.348C71.2817 64.348 71.5333 64.2256 71.9039 64.1712C72.0909 64.1406 72.3051 64.1236 72.5363 64.1338C72.7641 64.1542 73.0055 64.2154 73.2503 64.2494C74.2227 64.382 75.1951 64.5758 75.1951 64.5758L75.1883 64.637Z" fill="#E2E2E2"/>
<path d="M123.822 69.9355C123.822 69.9355 124.155 69.9831 124.655 70.0511C125.155 70.1191 125.818 70.2279 126.481 70.3333C126.81 70.3877 127.147 70.4217 127.456 70.4829C127.762 70.5509 128.045 70.6393 128.283 70.7277C128.759 70.8977 129.061 71.0813 129.061 71.0813L129.051 71.1323C129.051 71.1323 128.697 71.1731 128.194 71.1289C127.943 71.1085 127.65 71.0711 127.341 71.0065C127.035 70.9317 126.715 70.8263 126.392 70.7345C125.746 70.5509 125.097 70.3775 124.617 70.2313C124.135 70.0851 123.812 69.9899 123.812 69.9899L123.822 69.9355Z" fill="#F47E14"/>
<path d="M118.899 77.0547C118.899 77.0547 119.069 77.2961 119.328 77.6565C119.586 78.0169 119.909 78.5099 120.242 78.9961C120.405 79.2409 120.589 79.4755 120.732 79.7101C120.871 79.9481 120.977 80.1827 121.058 80.3935C121.225 80.8083 121.272 81.1177 121.272 81.1177L121.228 81.1449C121.228 81.1449 120.98 80.9477 120.701 80.6009C120.558 80.4275 120.409 80.2201 120.269 79.9821C120.133 79.7407 120.021 79.4687 119.889 79.2035C119.627 78.6765 119.358 78.1495 119.171 77.7483C118.984 77.3471 118.858 77.0819 118.858 77.0819L118.899 77.0547Z" fill="#F47E14"/>
<path d="M122.112 62.1757C122.112 62.1757 122.337 61.9853 122.677 61.6997C123.013 61.4107 123.476 61.0469 123.935 60.6763C124.166 60.4927 124.384 60.2921 124.608 60.1289C124.836 59.9725 125.06 59.8467 125.261 59.7481C125.659 59.5475 125.965 59.4727 125.965 59.4727L125.995 59.5135C125.995 59.5135 125.822 59.7753 125.495 60.0813C125.336 60.2377 125.138 60.4043 124.914 60.5641C124.686 60.7171 124.421 60.8531 124.173 61.0095C123.67 61.3155 123.17 61.6249 122.782 61.8459C122.398 62.0669 122.143 62.2131 122.143 62.2131L122.112 62.1757Z" fill="#F47E14"/>
<path d="M124.472 65.5274C124.472 65.5274 124.669 65.4628 124.968 65.3778C125.267 65.286 125.665 65.184 126.066 65.0786C126.267 65.0276 126.464 64.9528 126.651 64.9188C126.842 64.8882 127.025 64.8848 127.182 64.8916C127.498 64.9052 127.719 64.9834 127.719 64.9834L127.729 65.0344C127.729 65.0344 127.545 65.1806 127.25 65.2962C127.103 65.3574 126.93 65.4118 126.74 65.4458C126.549 65.473 126.338 65.4696 126.134 65.4866C125.723 65.5172 125.311 65.5512 124.999 65.5614C124.689 65.5784 124.482 65.5818 124.482 65.5818L124.472 65.5274Z" fill="#E2E2E2"/>
<path d="M122.493 74.6777C122.493 74.6777 122.68 74.7695 122.956 74.9123C123.235 75.0517 123.595 75.2557 123.956 75.4563C124.136 75.5583 124.33 75.6399 124.489 75.7453C124.649 75.8541 124.782 75.9765 124.891 76.0921C125.112 76.3199 125.217 76.5307 125.217 76.5307L125.19 76.5715C125.19 76.5715 124.955 76.5511 124.663 76.4321C124.516 76.3743 124.35 76.2961 124.19 76.1873C124.034 76.0751 123.884 75.9255 123.724 75.7963C123.405 75.5311 123.085 75.2727 122.85 75.0653C122.616 74.8613 122.463 74.7219 122.463 74.7219L122.493 74.6777Z" fill="#E2E2E2"/>
<g opacity="0.15">
<path opacity="0.15" d="M109.266 52.7232L107.332 50.6832C107.083 50.4214 106.665 50.4078 106.4 50.6594L105.557 51.4618C105.02 51.1388 104.459 50.8838 103.877 50.6934L103.932 49.5306C103.945 49.1668 103.663 48.8574 103.303 48.8438L100.498 48.7214C100.134 48.7044 99.8278 48.9866 99.8108 49.3538L99.7632 50.452C99.0492 50.5914 98.3488 50.8294 97.6824 51.1592L96.9752 50.4112C96.7236 50.146 96.3088 50.1358 96.0436 50.3874L94.007 52.3186C93.7418 52.5702 93.7316 52.9884 93.9832 53.2502L94.5748 53.8724C94.1702 54.464 93.854 55.0964 93.6194 55.7526L92.8578 55.7186C92.494 55.7016 92.188 55.9872 92.171 56.3476L92.0486 59.1526C92.0316 59.5164 92.3138 59.8224 92.6742 59.8394L93.2624 59.8666C93.4086 60.7166 93.6874 61.5496 94.1022 62.3316L93.735 62.6784C93.4698 62.93 93.4596 63.3482 93.7078 63.61L95.6424 65.65C95.894 65.9118 96.3088 65.922 96.574 65.6738L96.8868 65.3746C97.5668 65.8166 98.3012 66.1498 99.0628 66.3708L99.0424 66.8026C99.0254 67.1664 99.311 67.4724 99.6714 67.4928L102.476 67.6152C102.84 67.6322 103.146 67.3466 103.163 66.9828L103.187 66.4864C104.027 66.296 104.846 65.9662 105.604 65.5038L106.002 65.922C106.254 66.1872 106.669 66.1974 106.934 65.9458L108.97 64.0112C109.236 63.7596 109.246 63.3448 108.994 63.0796L108.481 62.539C108.834 61.9134 109.103 61.2538 109.28 60.5704L110.123 60.6078C110.487 60.6248 110.796 60.3426 110.81 59.9788L110.932 57.1738C110.949 56.8134 110.667 56.504 110.307 56.487L109.29 56.4428C109.11 55.7356 108.831 55.0454 108.454 54.3994L109.246 53.6514C109.504 53.4032 109.514 52.985 109.266 52.7232ZM103.85 56.1198C105.162 57.5036 105.105 59.6898 103.721 61.0056C102.337 62.318 100.147 62.2602 98.835 60.8798C97.5192 59.4926 97.5804 57.3064 98.9642 55.994C100.351 54.6782 102.534 54.736 103.85 56.1198Z" fill="#4C210C"/>
<path opacity="0.15" d="M97.8222 61.8518L96.1596 59.584C95.9454 59.2916 95.534 59.227 95.2382 59.4446L94.2998 60.1348C93.8102 59.7472 93.2832 59.4242 92.729 59.1624L92.9296 58.0166C92.9908 57.6562 92.7494 57.3162 92.3924 57.255L89.6248 56.779C89.2644 56.7178 88.9244 56.9592 88.8632 57.3196L88.6762 58.4008C87.9486 58.4484 87.2244 58.5946 86.524 58.8394L85.9154 58.0098C85.7012 57.7174 85.2864 57.6528 84.994 57.867L82.7296 59.5262C82.4372 59.7404 82.3726 60.1552 82.5902 60.4476L83.0968 61.1378C82.6208 61.675 82.2264 62.2598 81.9136 62.882L81.1622 62.7528C80.8018 62.6916 80.4618 62.933 80.4006 63.29L79.9246 66.0576C79.8634 66.418 80.1014 66.7546 80.4584 66.8192L81.0398 66.9178C81.0772 67.778 81.2472 68.6416 81.5634 69.4678L81.1554 69.767C80.863 69.9812 80.7984 70.396 81.0126 70.6884L82.6752 72.9562C82.8894 73.2486 83.3008 73.3098 83.5966 73.0956L83.9468 72.8372C84.5656 73.3642 85.2524 73.7858 85.98 74.0986L85.9052 74.5236C85.844 74.8806 86.0888 75.224 86.4424 75.2852L89.21 75.7612C89.567 75.8224 89.907 75.581 89.9716 75.2206L90.0566 74.731C90.9134 74.646 91.7668 74.425 92.5794 74.0612L92.9194 74.527C93.1336 74.8194 93.545 74.884 93.8408 74.6698L96.1052 73.0106C96.3976 72.7964 96.4622 72.385 96.248 72.0892L95.806 71.4874C96.2344 70.9128 96.5846 70.2906 96.8464 69.6344L97.676 69.7772C98.033 69.8384 98.3764 69.597 98.4376 69.24L98.9136 66.4724C98.9782 66.1154 98.7368 65.7754 98.3764 65.7142L97.3734 65.5442C97.2816 64.82 97.0912 64.1026 96.8022 63.409L97.6828 62.7664C97.9718 62.5522 98.0364 62.1442 97.8222 61.8518ZM92.7902 63.9768C94.2284 65.9386 93.8034 68.696 91.8416 70.1376C89.8798 71.5758 87.119 71.1542 85.6808 69.1924C84.2392 67.2272 84.6676 64.4698 86.6294 63.0316C88.5912 61.5866 91.3452 62.0116 92.7902 63.9768Z" fill="#4C210C"/>
<path opacity="0.15" d="M122.425 68.9315L121.949 67.5273C121.888 67.3471 121.691 67.2485 121.51 67.3097L120.926 67.5069C120.742 67.2349 120.528 66.9901 120.29 66.7691L120.572 66.2251C120.657 66.0517 120.589 65.8409 120.422 65.7525L119.107 65.0725C118.933 64.9841 118.722 65.0521 118.634 65.2221L118.372 65.7389C117.998 65.6437 117.611 65.6063 117.216 65.6165L117.043 65.1031C116.982 64.9195 116.784 64.8243 116.604 64.8821L115.197 65.3581C115.02 65.4193 114.918 65.6165 114.979 65.8001L115.125 66.2285C114.802 66.4223 114.506 66.6569 114.255 66.9187L113.898 66.7351C113.724 66.6433 113.514 66.7147 113.425 66.8847L112.749 68.2005C112.66 68.3705 112.728 68.5813 112.898 68.6697L113.174 68.8091C113.055 69.2511 113.004 69.7101 113.034 70.1793L112.779 70.2643C112.596 70.3255 112.497 70.5227 112.558 70.7029L113.034 72.1071C113.095 72.2873 113.293 72.3893 113.476 72.3247L113.694 72.2499C113.922 72.6137 114.2 72.9333 114.513 73.2087L114.411 73.4059C114.319 73.5793 114.391 73.7901 114.561 73.8785L115.877 74.5585C116.047 74.6469 116.261 74.5789 116.346 74.4089L116.468 74.1743C116.91 74.2695 117.376 74.2899 117.842 74.2355L117.94 74.5279C118.002 74.7081 118.199 74.8033 118.379 74.7455L119.787 74.2695C119.963 74.2083 120.065 74.0111 120.004 73.8309L119.875 73.4569C120.184 73.2359 120.46 72.9775 120.694 72.6885L121.089 72.8925C121.262 72.9843 121.47 72.9129 121.558 72.7429L122.238 71.4271C122.326 71.2537 122.258 71.0429 122.085 70.9545L121.609 70.7131C121.677 70.3323 121.694 69.9413 121.66 69.5469L122.204 69.3633C122.391 69.3089 122.49 69.1151 122.425 68.9315ZM119.555 69.2035C119.967 70.4173 119.317 71.7365 118.1 72.1513C116.883 72.5627 115.564 71.9133 115.149 70.6961C114.738 69.4789 115.387 68.1597 116.604 67.7483C117.825 67.3335 119.144 67.9863 119.555 69.2035Z" fill="#4C210C"/>
</g>
<path d="M108.926 51.7037L106.992 49.6637C106.744 49.4019 106.325 49.3883 106.06 49.6399L105.217 50.4423C104.68 50.1193 104.119 49.8643 103.537 49.6739L103.592 48.5111C103.605 48.1473 103.323 47.8379 102.963 47.8243L100.158 47.7019C99.7939 47.6849 99.4879 47.9671 99.4709 48.3343L99.4233 49.4325C98.7093 49.5719 98.0089 49.8099 97.3425 50.1397L96.6353 49.3917C96.3837 49.1265 95.9689 49.1163 95.7037 49.3679L93.6671 51.2991C93.4019 51.5507 93.3917 51.9689 93.6433 52.2307L94.2349 52.8529C93.8303 53.4445 93.5141 54.0769 93.2795 54.7331L92.5179 54.6991C92.1541 54.6821 91.8481 54.9677 91.8311 55.3281L91.7087 58.1331C91.6917 58.4969 91.9739 58.8029 92.3343 58.8199L92.9225 58.8471C93.0687 59.6971 93.3475 60.5301 93.7623 61.3121L93.3951 61.6589C93.1299 61.9105 93.1197 62.3287 93.3679 62.5905L95.3025 64.6305C95.5541 64.8923 95.9689 64.9025 96.2341 64.6543L96.5469 64.3551C97.2269 64.7971 97.9613 65.1303 98.7229 65.3513L98.7025 65.7831C98.6855 66.1469 98.9711 66.4529 99.3315 66.4733L102.137 66.5957C102.5 66.6127 102.806 66.3271 102.823 65.9633L102.847 65.4669C103.687 65.2765 104.506 64.9467 105.265 64.4843L105.662 64.9025C105.914 65.1677 106.329 65.1779 106.594 64.9263L108.631 62.9917C108.896 62.7401 108.906 62.3253 108.654 62.0601L108.141 61.5195C108.495 60.8939 108.763 60.2343 108.94 59.5509L109.783 59.5883C110.147 59.6053 110.456 59.3231 110.47 58.9593L110.592 56.1543C110.609 55.7939 110.327 55.4845 109.967 55.4675L108.95 55.4233C108.77 54.7161 108.491 54.0259 108.114 53.3799L108.906 52.6319C109.164 52.3837 109.175 51.9655 108.926 51.7037ZM103.51 55.1003C104.823 56.4841 104.765 58.6703 103.381 59.9861C101.997 61.2985 99.8075 61.2407 98.4951 59.8603C97.1793 58.4731 97.2405 56.2869 98.6243 54.9745C100.012 53.6587 102.194 53.7165 103.51 55.1003Z" fill="#ADC9C9"/>
<path d="M97.4824 60.8323L95.8198 58.5645C95.6056 58.2721 95.1942 58.2075 94.8984 58.4251L93.96 59.1153C93.4704 58.7277 92.9434 58.4047 92.3892 58.1429L92.5898 56.9971C92.651 56.6367 92.4096 56.2967 92.0526 56.2355L89.285 55.7595C88.9246 55.6983 88.5846 55.9397 88.5234 56.3001L88.3364 57.3813C87.6088 57.4289 86.8846 57.5751 86.1842 57.8199L85.5756 56.9903C85.3614 56.6979 84.9466 56.6333 84.6542 56.8475L82.3898 58.5067C82.0974 58.7209 82.0328 59.1357 82.2504 59.4281L82.757 60.1183C82.281 60.6555 81.8866 61.2403 81.5738 61.8625L80.8224 61.7333C80.462 61.6721 80.122 61.9135 80.0608 62.2705L79.5848 65.0381C79.5236 65.3985 79.7616 65.7351 80.1186 65.7997L80.7 65.8983C80.7374 66.7585 80.9074 67.6221 81.2236 68.4483L80.8156 68.7475C80.5232 68.9617 80.4586 69.3765 80.6728 69.6689L82.3354 71.9367C82.5496 72.2291 82.961 72.2903 83.2568 72.0761L83.607 71.8177C84.2258 72.3447 84.9126 72.7663 85.6402 73.0791L85.5654 73.5041C85.5042 73.8611 85.749 74.2045 86.1026 74.2657L88.8702 74.7417C89.2272 74.8029 89.5672 74.5615 89.6318 74.2011L89.7168 73.7115C90.5736 73.6265 91.427 73.4055 92.2396 73.0417L92.5796 73.5075C92.7938 73.7999 93.2052 73.8645 93.501 73.6503L95.7654 71.9911C96.0578 71.7769 96.1224 71.3655 95.9082 71.0697L95.4662 70.4679C95.8946 69.8933 96.2448 69.2711 96.5066 68.6149L97.3362 68.7577C97.6932 68.8189 98.0366 68.5775 98.0978 68.2205L98.5738 65.4529C98.6384 65.0959 98.397 64.7559 98.0366 64.6947L97.0336 64.5247C96.9418 63.8005 96.7514 63.0831 96.4624 62.3895L97.343 61.7469C97.632 61.5327 97.6966 61.1247 97.4824 60.8323ZM92.4504 62.9573C93.8886 64.9191 93.4636 67.6765 91.5018 69.1181C89.54 70.5563 86.7792 70.1347 85.341 68.1729C83.8994 66.2077 84.3278 63.4503 86.2896 62.0121C88.2514 60.5671 91.0054 60.9921 92.4504 62.9573Z" fill="#DFEFEF"/>
<path d="M122.085 67.9119L121.609 66.5077C121.548 66.3275 121.351 66.2289 121.171 66.2901L120.586 66.4873C120.402 66.2153 120.188 65.9705 119.95 65.7495L120.232 65.2055C120.317 65.0321 120.249 64.8213 120.083 64.7329L118.767 64.0529C118.593 63.9645 118.383 64.0325 118.294 64.2025L118.032 64.7194C117.658 64.6242 117.271 64.5867 116.876 64.5969L116.703 64.0835C116.642 63.8999 116.445 63.8047 116.264 63.8625L114.857 64.3385C114.68 64.3997 114.578 64.5969 114.639 64.7805L114.785 65.2089C114.462 65.4027 114.167 65.6373 113.915 65.8991L113.558 65.7155C113.385 65.6237 113.174 65.6951 113.085 65.8651L112.409 67.1809C112.32 67.3509 112.388 67.5617 112.558 67.6501L112.834 67.7895C112.715 68.2315 112.664 68.6905 112.694 69.1597L112.439 69.2447C112.256 69.3059 112.157 69.5031 112.218 69.6833L112.694 71.0875C112.756 71.2677 112.953 71.3697 113.136 71.3051L113.354 71.2303C113.582 71.5941 113.861 71.9137 114.173 72.1891L114.071 72.3863C113.98 72.5597 114.051 72.7705 114.221 72.8589L115.537 73.5389C115.707 73.6273 115.921 73.5594 116.006 73.3894L116.128 73.1547C116.57 73.2499 117.036 73.2703 117.502 73.2159L117.601 73.5083C117.662 73.6885 117.859 73.7837 118.039 73.7259L119.447 73.2499C119.624 73.1887 119.726 72.9915 119.664 72.8113L119.535 72.4373C119.845 72.2163 120.12 71.9579 120.355 71.6689L120.749 71.8729C120.922 71.9647 121.13 71.8933 121.218 71.7233L121.898 70.4075C121.987 70.2341 121.919 70.0233 121.745 69.9349L121.269 69.6935C121.337 69.3127 121.354 68.9217 121.32 68.5273L121.864 68.3437C122.051 68.2893 122.15 68.0955 122.085 67.9119ZM119.216 68.1839C119.627 69.3977 118.978 70.7169 117.76 71.1317C116.543 71.5431 115.224 70.8937 114.809 69.6765C114.398 68.4593 115.047 67.1401 116.264 66.7287C117.485 66.3139 118.804 66.9667 119.216 68.1839Z" fill="#DFEFEF"/>
<path d="M100.93 60.9897C102.746 60.9897 104.218 59.5177 104.218 57.7019C104.218 55.8861 102.746 54.4141 100.93 54.4141C99.1146 54.4141 97.6426 55.8861 97.6426 57.7019C97.6426 59.5177 99.1146 60.9897 100.93 60.9897Z" fill="#DFEFEF"/>
<path d="M100.93 59.3431C101.931 59.3431 102.743 58.5318 102.743 57.5309C102.743 56.5301 101.931 55.7188 100.93 55.7188C99.9295 55.7188 99.1182 56.5301 99.1182 57.5309C99.1182 58.5318 99.9295 59.3431 100.93 59.3431Z" fill="#47B2BA"/>
<path d="M89.0061 70.1657C87.4251 70.1657 86.0413 69.4789 85.2083 68.2821C84.4739 67.2315 84.2121 65.9769 84.4671 64.7495C84.7255 63.5085 85.5041 62.3831 86.6601 61.5773L97.4823 55.0289C98.7573 54.1381 100.039 53.6621 101.171 53.6621C102.348 53.6621 103.337 54.1857 104.024 55.1751C104.748 56.2155 104.922 57.3817 104.52 58.5411C104.15 59.6087 103.317 60.6219 102.103 61.4651L92.3143 69.0947C91.3011 69.7985 90.1621 70.1657 89.0061 70.1657ZM101.168 54.3455C100.179 54.3455 99.0293 54.7807 97.8495 55.6001L87.0273 62.1485C86.0311 62.8421 85.3511 63.8213 85.1301 64.8889C84.9125 65.9293 85.1369 66.9969 85.7625 67.8945C86.4663 68.9077 87.6495 69.4857 89.0027 69.4857C90.0227 69.4857 91.0257 69.1627 91.9063 68.5473L101.695 60.9177C102.8 60.1459 103.548 59.2517 103.871 58.3201C104.204 57.3579 104.065 56.4331 103.46 55.5661C102.902 54.7535 102.127 54.3455 101.168 54.3455Z" fill="#4B8A8C"/>
<path d="M117.171 71.6676C116.27 71.6676 115.274 71.297 114.292 70.6L98.8557 60.6006C96.8565 59.006 96.8905 56.6702 97.9411 55.1674L97.9751 55.1062C98.5531 54.2766 99.6955 53.7598 100.96 53.7598C101.875 53.7598 102.732 54.0284 103.446 54.5316L117.63 65.5918C119.541 66.945 120.225 68.8116 119.405 70.4538L119.368 70.5116L119.218 70.702C118.729 71.3344 118.021 71.6676 117.171 71.6676ZM98.5463 55.4734L98.5089 55.538C97.6555 56.7416 97.5229 58.666 99.2501 60.0498L114.672 70.039C115.539 70.6544 116.423 70.9876 117.171 70.9876C117.811 70.9876 118.321 70.7496 118.681 70.2838L118.81 70.1206C119.456 68.7878 118.865 67.302 117.226 66.1392L103.041 55.079C102.3 54.552 101.497 54.4398 100.96 54.4398C99.9369 54.4398 98.9951 54.8444 98.5463 55.4734Z" fill="#4B8A8C"/>
</svg>
