<svg width="258" height="197" viewBox="0 0 258 197" fill="none" xmlns="http://www.w3.org/2000/svg">
<path opacity="0.22" d="M6.76774 97.6183C1.43046 123.01 17.597 157.124 43.2778 175.52C68.9586 194.002 107.557 193.657 142.056 188.561C163.173 185.366 183.904 183.552 200.612 173.706C231.243 155.57 241.917 149.179 250.581 120.592C254.448 107.982 251.277 96.4955 249.498 86.218C248.183 78.7042 242.15 58.2356 235.575 51.1536C209.275 23.4303 169.129 -2.13396 121.171 7.62535C60.9141 19.9756 17.8291 45.5399 6.76774 97.6183Z" fill="url(#paint0_radial)" stroke="white" stroke-width="9.7629" stroke-miterlimit="10"/>
<path opacity="0.39" d="M125.426 29.0439C128.288 27.8348 146.079 24.4665 153.892 25.5029C159.693 26.2802 183.363 28.7848 195.198 37.9396C204.248 45.0215 208.811 47.5261 210.745 60.2218C210.9 61.5173 209.353 68.4266 205.021 66.9584C197.595 63.9356 181.12 55.6445 157.605 52.7081C151.803 52.0171 135.791 52.1899 129.913 53.0535C127.128 53.399 116.685 54.1762 114.597 52.8807C104.154 46.0579 120.166 31.2894 125.426 29.0439Z" fill="url(#paint1_linear)"/>
<path opacity="0.5" d="M77.3885 62.92C77.3485 63.74 77.3085 64.49 77.2685 65.17C77.2485 65.83 77.2185 66.47 77.1785 67.09C77.1385 67.71 77.0885 68.32 77.0285 68.92C76.9685 69.5 76.9085 70.12 76.8485 70.78C76.8085 71 76.7085 71.15 76.5485 71.23C76.3885 71.33 76.2085 71.39 76.0085 71.41C75.9085 71.43 75.7985 71.45 75.6785 71.47C75.5785 71.51 75.4585 71.53 75.3185 71.53C74.9985 71.53 74.7785 71.48 74.6585 71.38C74.5185 71.26 74.4285 71.08 74.3885 70.84C74.3685 70.6 74.3585 70.35 74.3585 70.09C74.3585 69.63 74.3785 69.17 74.4185 68.71C74.4585 68.23 74.4985 67.76 74.5385 67.3C74.5785 66.92 74.5885 66.57 74.5685 66.25C74.5685 65.93 74.5885 65.61 74.6285 65.29C74.6485 64.99 74.6685 64.6 74.6885 64.12C74.7285 63.62 74.7585 63.08 74.7785 62.5C74.8185 61.9 74.8485 61.28 74.8685 60.64C74.8885 60 74.9085 59.39 74.9285 58.81C74.9685 58.21 74.9885 57.67 74.9885 57.19C75.0085 56.71 75.0185 56.32 75.0185 56.02C75.0185 55.96 75.0185 55.88 75.0185 55.78C75.0385 55.68 75.0485 55.6 75.0485 55.54C75.0485 55.3 75.0585 55.04 75.0785 54.76C75.0985 54.48 75.1485 54.22 75.2285 53.98C75.3085 53.72 75.4185 53.5 75.5585 53.32C75.6985 53.14 75.9085 53.05 76.1885 53.05C76.3885 53.09 76.5585 53.11 76.6985 53.11C76.8585 53.09 77.0085 53.12 77.1485 53.2C77.2685 53.28 77.3685 53.38 77.4485 53.5C77.4885 53.54 77.5085 53.6 77.5085 53.68C77.5285 53.76 77.5485 53.82 77.5685 53.86C77.6485 54.04 77.6885 54.3 77.6885 54.64C77.6885 55.02 77.6785 55.38 77.6585 55.72C77.6585 56.04 77.6485 56.35 77.6285 56.65C77.6285 56.75 77.6085 56.86 77.5685 56.98C77.5485 57.1 77.5385 57.21 77.5385 57.31C77.5385 57.41 77.5385 57.55 77.5385 57.73C77.5585 57.89 77.5685 58.02 77.5685 58.12C77.5285 58.56 77.4985 58.93 77.4785 59.23C77.4585 59.51 77.4485 59.86 77.4485 60.28C77.7085 60.3 77.9485 60.32 78.1685 60.34C78.3885 60.34 78.6085 60.34 78.8285 60.34C79.6285 60.34 80.4085 60.15 81.1685 59.77C81.9485 59.39 82.5885 58.81 83.0885 58.03C83.1285 57.99 83.1785 57.93 83.2385 57.85C83.3185 57.75 83.3785 57.67 83.4185 57.61C83.4585 57.53 83.4785 57.46 83.4785 57.4C83.4985 57.32 83.5285 57.24 83.5685 57.16C83.6085 57.06 83.6485 56.97 83.6885 56.89C83.7285 56.81 83.7685 56.72 83.8085 56.62C83.9085 56.3 83.9785 55.96 84.0185 55.6C84.0585 55.24 84.0785 54.86 84.0785 54.46C84.0785 54.3 84.0685 54.17 84.0485 54.07C84.0485 53.95 84.0485 53.83 84.0485 53.71C84.0485 53.31 84.1585 52.97 84.3785 52.69C84.6185 52.41 84.8985 52.27 85.2185 52.27C85.7385 52.27 86.1285 52.32 86.3885 52.42C86.6485 52.5 86.7785 52.7 86.7785 53.02C86.7785 53.08 86.7685 53.17 86.7485 53.29C86.7485 53.39 86.7485 53.48 86.7485 53.56C86.7485 55.42 86.4085 57.07 85.7285 58.51C85.0685 59.93 84.1185 61.02 82.8785 61.78C83.1385 61.98 83.3685 62.19 83.5685 62.41C83.6485 62.51 83.6985 62.6 83.7185 62.68C83.7585 62.74 83.8185 62.82 83.8985 62.92C83.9585 63 84.0185 63.06 84.0785 63.1C84.1585 63.14 84.2385 63.2 84.3185 63.28C84.4185 63.38 84.4885 63.48 84.5285 63.58C84.5685 63.66 84.6085 63.74 84.6485 63.82C85.2885 64.8 85.7885 65.85 86.1485 66.97C86.5285 68.09 86.7185 69.06 86.7185 69.88C86.7185 70.4 86.6585 70.76 86.5385 70.96C86.4385 71.08 86.3085 71.16 86.1485 71.2C86.0085 71.24 85.8585 71.26 85.6985 71.26C85.3185 71.26 85.0085 71.18 84.7685 71.02C84.6685 70.96 84.5585 70.9 84.4385 70.84C84.3385 70.8 84.2385 70.67 84.1385 70.45C84.0985 70.33 84.0685 70.22 84.0485 70.12C84.0485 70.02 84.0285 69.89 83.9885 69.73C83.9685 69.65 83.9285 69.57 83.8685 69.49C83.8285 69.39 83.7985 69.3 83.7785 69.22L83.6885 68.59C83.6485 68.49 83.6085 68.4 83.5685 68.32C83.5485 68.24 83.5185 68.13 83.4785 67.99C83.3185 67.41 83.1385 66.87 82.9385 66.37C82.7385 65.87 82.4785 65.39 82.1585 64.93C82.0785 64.83 82.0085 64.72 81.9485 64.6C81.8885 64.46 81.8085 64.34 81.7085 64.24C81.6085 64.12 81.4885 64.03 81.3485 63.97C81.2085 63.89 81.0785 63.8 80.9585 63.7C80.6585 63.48 80.2985 63.31 79.8785 63.19C79.4585 63.05 79.0285 62.97 78.5885 62.95C78.4285 62.95 78.2685 62.95 78.1085 62.95C77.9685 62.93 77.8485 62.92 77.7485 62.92H77.3885ZM83.3412 81.16C85.1012 81.16 86.5912 80.96 87.8112 80.56C89.0312 80.18 89.9912 79.65 90.6912 78.97C91.2912 78.39 91.7912 77.7 92.1912 76.9C92.6112 76.1 92.9612 75.18 93.2412 74.14C93.4612 73.38 93.5812 72.59 93.6012 71.77C93.6212 70.95 93.6712 70.14 93.7512 69.34C93.7112 69.44 93.6212 69.56 93.4812 69.7C93.3412 69.82 93.1612 69.93 92.9412 70.03C92.7212 70.15 92.4712 70.25 92.1912 70.33C91.9312 70.43 91.6612 70.48 91.3812 70.48C91.1812 70.48 90.9912 70.47 90.8112 70.45C90.6312 70.43 90.4312 70.37 90.2112 70.27C89.8312 70.11 89.4812 69.86 89.1612 69.52C88.8412 69.16 88.5912 68.73 88.4112 68.23C88.2912 67.89 88.2212 67.52 88.2012 67.12C88.1812 66.7 88.1712 66.3 88.1712 65.92C88.1712 65.14 88.2212 64.47 88.3212 63.91C88.4212 63.35 88.5312 62.88 88.6512 62.5C88.7512 62.18 88.8812 61.89 89.0412 61.63C89.2012 61.35 89.5112 61.21 89.9712 61.21H90.0912C90.3512 61.21 90.5212 61.29 90.6012 61.45C90.7012 61.59 90.7512 61.78 90.7512 62.02C90.7512 62.06 90.7512 62.12 90.7512 62.2C90.7512 62.26 90.7412 62.36 90.7212 62.5C90.6612 63.02 90.6012 63.53 90.5412 64.03C90.4812 64.53 90.4512 64.99 90.4512 65.41C90.4512 66.01 90.5312 66.53 90.6912 66.97C90.8712 67.39 91.2112 67.6 91.7112 67.6C91.8712 67.6 92.0412 67.58 92.2212 67.54C92.4012 67.48 92.6012 67.4 92.8212 67.3C93.1012 67.18 93.3712 66.92 93.6312 66.52C93.8912 66.12 94.1012 65.69 94.2612 65.23C94.4212 64.77 94.6012 64.38 94.8012 64.06C95.0212 63.74 95.2812 63.58 95.5812 63.58C95.6812 63.58 95.8012 63.61 95.9412 63.67C96.1012 63.71 96.2312 63.81 96.3312 63.97C96.3912 64.05 96.4312 64.16 96.4512 64.3C96.4712 64.44 96.4812 64.59 96.4812 64.75C96.4812 64.89 96.4712 65.02 96.4512 65.14C96.4512 65.24 96.4512 65.31 96.4512 65.35C96.4312 65.65 96.4112 65.94 96.3912 66.22C96.3712 66.48 96.3412 66.77 96.3012 67.09C96.2812 67.39 96.2612 67.74 96.2412 68.14C96.2212 68.54 96.2112 69.03 96.2112 69.61C96.2112 71.83 96.0012 73.8 95.5812 75.52C95.1812 77.24 94.4912 78.69 93.5112 79.87C92.5312 81.05 91.2312 81.94 89.6112 82.54C88.0112 83.16 86.0012 83.47 83.5812 83.47C83.4612 83.47 83.3512 83.47 83.2512 83.47C83.1312 83.47 83.0212 83.45 82.9212 83.41C82.6812 83.31 82.4512 83.23 82.2312 83.17C81.9912 83.13 81.8212 82.97 81.7212 82.69C81.6412 82.53 81.5912 82.4 81.5712 82.3C81.5512 82.22 81.5412 82.14 81.5412 82.06C81.5412 81.66 81.6812 81.41 81.9612 81.31C82.2212 81.21 82.5712 81.16 83.0112 81.16H83.3412ZM100.179 71.41C99.6589 71.41 99.2789 71.28 99.0389 71.02C98.7989 70.76 98.6589 70.46 98.6189 70.12C98.5989 70.08 98.5889 70 98.5889 69.88C98.5889 69.76 98.5689 69.68 98.5289 69.64C98.5689 69.6 98.6089 69.56 98.6489 69.52C98.7089 69.46 98.7589 69.43 98.7989 69.43L98.7089 69.28C98.7689 69.28 98.7989 69.27 98.7989 69.25C98.8189 69.23 98.8489 69.22 98.8889 69.22C98.9089 69.22 98.9289 69.23 98.9489 69.25C98.9689 69.25 98.9889 69.25 99.0089 69.25C99.1089 69.25 99.1589 69.21 99.1589 69.13C99.1589 69.11 99.1489 69.09 99.1289 69.07H99.0989C99.2589 68.99 99.4089 68.95 99.5489 68.95C99.6889 68.95 99.8089 68.97 99.9089 69.01C100.029 69.05 100.179 69.07 100.359 69.07C101.039 69.07 101.509 68.62 101.769 67.72C102.049 66.8 102.189 65.59 102.189 64.09C102.189 64.01 102.179 63.85 102.159 63.61C102.159 63.35 102.159 63.06 102.159 62.74C102.159 62.42 102.149 62.11 102.129 61.81C102.129 61.51 102.129 61.27 102.129 61.09C102.129 60.71 102.219 60.33 102.399 59.95C102.599 59.57 102.889 59.36 103.269 59.32C103.509 59.3 103.869 59.28 104.349 59.26C104.849 59.22 105.369 59.19 105.909 59.17C106.469 59.13 107.019 59.11 107.559 59.11C108.119 59.09 108.589 59.08 108.969 59.08C109.529 59.08 109.899 59.23 110.079 59.53C110.259 59.83 110.349 60.17 110.349 60.55C110.349 61.43 110.269 62.53 110.109 63.85C109.949 65.15 109.869 66.58 109.869 68.14C109.869 68.64 109.919 69.06 110.019 69.4C110.119 69.72 110.169 70.09 110.169 70.51C110.169 70.59 110.149 70.69 110.109 70.81C110.029 71.03 109.889 71.14 109.689 71.14C109.689 71.2 109.629 71.23 109.509 71.23C109.409 71.25 109.319 71.26 109.239 71.26C109.159 71.26 109.079 71.24 108.999 71.2C108.919 71.18 108.829 71.17 108.729 71.17C108.649 71.17 108.589 71.18 108.549 71.2C108.469 71.16 108.389 71.13 108.309 71.11C108.249 71.11 108.189 71.08 108.129 71.02C108.089 70.98 108.069 70.93 108.069 70.87C108.069 70.83 108.049 70.79 108.009 70.75C107.969 70.71 107.929 70.67 107.889 70.63C107.849 70.59 107.809 70.53 107.769 70.45C107.669 70.23 107.599 69.99 107.559 69.73C107.539 69.47 107.529 69.22 107.529 68.98C107.529 68.84 107.529 68.68 107.529 68.5C107.549 68.3 107.579 68.13 107.619 67.99C107.599 67.91 107.589 67.74 107.589 67.48C107.589 67.14 107.599 66.81 107.619 66.49C107.639 66.15 107.659 65.76 107.679 65.32C107.719 64.88 107.759 64.36 107.799 63.76C107.859 63.14 107.909 62.36 107.949 61.42L105.159 61.54C105.139 61.56 105.109 61.57 105.069 61.57C105.029 61.59 104.979 61.6 104.919 61.6C104.859 61.6 104.779 61.58 104.679 61.54C104.579 61.5 104.479 61.48 104.379 61.48C104.379 61.56 104.399 61.62 104.439 61.66C104.499 61.7 104.529 61.73 104.529 61.75C104.529 61.91 104.539 62.06 104.559 62.2C104.559 62.34 104.559 62.48 104.559 62.62C104.579 62.76 104.589 62.89 104.589 63.01C104.589 63.61 104.579 64.23 104.559 64.87C104.539 65.49 104.479 66.1 104.379 66.7C104.359 66.78 104.329 66.84 104.289 66.88C104.249 66.92 104.229 66.99 104.229 67.09C104.229 67.19 104.249 67.28 104.289 67.36C104.229 67.38 104.179 67.47 104.139 67.63C104.119 67.69 104.109 67.76 104.109 67.84C104.109 67.92 104.089 67.98 104.049 68.02C104.049 68.18 104.039 68.3 104.019 68.38C103.739 69.28 103.299 70.01 102.699 70.57C102.099 71.13 101.259 71.41 100.179 71.41ZM117.583 68.47C118.203 68.47 118.793 68.34 119.353 68.08C119.913 67.82 120.403 67.5 120.823 67.12C121.263 66.72 121.613 66.3 121.873 65.86C122.133 65.42 122.263 65.01 122.263 64.63C122.263 64.35 122.223 64.11 122.143 63.91C122.083 63.69 121.913 63.58 121.633 63.58C121.293 63.58 120.893 63.73 120.433 64.03C119.993 64.33 119.543 64.69 119.083 65.11C118.643 65.51 118.223 65.93 117.823 66.37C117.443 66.81 117.153 67.17 116.953 67.45L116.893 68.35C116.953 68.39 117.053 68.42 117.193 68.44C117.353 68.46 117.483 68.47 117.583 68.47ZM115.843 71.32C114.963 71.32 114.503 70.55 114.463 69.01C114.463 68.87 114.403 68.75 114.283 68.65C114.163 68.55 114.103 68.49 114.103 68.47C114.103 68.39 114.113 68.32 114.133 68.26C114.153 68.2 114.163 68.09 114.163 67.93C114.123 67.89 114.103 67.85 114.103 67.81C114.103 67.73 114.123 67.67 114.163 67.63C114.183 67.59 114.223 67.53 114.283 67.45C114.343 67.35 114.423 67.25 114.523 67.15C114.583 66.31 114.663 65.42 114.763 64.48C114.883 63.52 115.013 62.59 115.153 61.69C115.153 61.53 115.143 61.38 115.123 61.24C115.123 61.1 115.123 60.96 115.123 60.82C115.123 60.72 115.133 60.63 115.153 60.55C115.193 60.45 115.233 60.38 115.273 60.34C115.273 60.32 115.263 60.3 115.243 60.28C115.243 60.24 115.243 60.2 115.243 60.16C115.243 60.14 115.243 60.12 115.243 60.1C115.263 60.08 115.273 60.06 115.273 60.04C115.273 60 115.283 59.91 115.303 59.77C115.343 59.63 115.403 59.49 115.483 59.35C115.583 59.19 115.713 59.06 115.873 58.96C116.033 58.84 116.243 58.78 116.503 58.78C117.023 58.78 117.373 58.89 117.553 59.11C117.733 59.33 117.823 59.65 117.823 60.07C117.823 60.13 117.813 60.2 117.793 60.28C117.793 60.34 117.793 60.41 117.793 60.49C117.593 61.61 117.453 62.42 117.373 62.92C117.293 63.4 117.243 63.78 117.223 64.06C117.463 63.8 117.753 63.49 118.093 63.13C118.453 62.77 118.843 62.44 119.263 62.14C119.703 61.82 120.153 61.55 120.613 61.33C121.093 61.11 121.563 61 122.023 61C122.503 61 122.913 61.1 123.253 61.3C123.593 61.48 123.873 61.73 124.093 62.05C124.313 62.35 124.473 62.7 124.573 63.1C124.673 63.5 124.723 63.92 124.723 64.36C124.723 64.46 124.723 64.56 124.723 64.66C124.723 64.74 124.713 64.83 124.693 64.93C124.653 65.01 124.623 65.13 124.603 65.29C124.603 65.43 124.583 65.55 124.543 65.65L124.213 66.52C124.153 66.66 124.093 66.8 124.033 66.94C123.993 67.06 123.923 67.15 123.823 67.21C123.783 67.23 123.733 67.3 123.673 67.42C123.613 67.54 123.563 67.62 123.523 67.66C123.443 67.7 123.373 67.76 123.313 67.84C123.273 67.92 123.213 68 123.133 68.08C123.073 68.12 123.013 68.19 122.953 68.29C122.893 68.39 122.833 68.46 122.773 68.5C122.693 68.54 122.603 68.6 122.503 68.68C122.423 68.76 122.353 68.82 122.293 68.86C121.973 69.22 121.553 69.55 121.033 69.85C120.513 70.15 119.953 70.41 119.353 70.63C118.753 70.85 118.143 71.02 117.523 71.14C116.903 71.26 116.343 71.32 115.843 71.32ZM145.346 69.85C145.246 70.63 144.816 71.02 144.056 71.02C143.996 71.02 143.936 71.02 143.876 71.02C143.816 71.04 143.756 71.05 143.696 71.05C143.636 71.05 143.576 71.01 143.516 70.93C143.436 70.93 143.346 70.91 143.246 70.87C143.166 70.83 143.096 70.81 143.036 70.81C142.996 70.77 142.966 70.73 142.946 70.69C142.926 70.65 142.896 70.61 142.856 70.57C142.696 70.47 142.566 70.3 142.466 70.06C142.406 69.98 142.356 69.9 142.316 69.82C142.276 69.72 142.236 69.63 142.196 69.55C142.096 69.33 142.026 69.14 141.986 68.98C141.946 68.8 141.906 68.61 141.866 68.41C141.846 68.21 141.836 67.99 141.836 67.75C141.836 67.51 141.836 67.21 141.836 66.85V66.58C141.816 66.5 141.766 66.45 141.686 66.43C141.606 66.39 141.546 66.37 141.506 66.37C141.466 66.37 141.336 66.46 141.116 66.64C140.916 66.8 140.646 67.03 140.306 67.33C139.986 67.61 139.626 67.93 139.226 68.29C138.826 68.65 138.426 69.02 138.026 69.4C137.866 69.56 137.676 69.75 137.456 69.97C137.256 70.17 136.946 70.27 136.526 70.27C136.426 70.27 136.256 70.24 136.016 70.18C135.796 70.12 135.646 70.06 135.566 70L135.446 69.91C135.326 69.67 135.216 69.42 135.116 69.16C135.016 68.88 134.946 68.45 134.906 67.87C134.886 67.69 134.866 67.5 134.846 67.3C134.846 67.1 134.846 66.89 134.846 66.67C134.846 66.57 134.846 66.46 134.846 66.34C134.846 66.2 134.826 66.08 134.786 65.98C134.746 65.88 134.706 65.83 134.666 65.83C134.526 65.83 134.426 65.84 134.366 65.86C134.266 65.9 134.176 65.95 134.096 66.01C134.016 66.07 133.896 66.18 133.736 66.34C133.496 66.56 133.226 66.82 132.926 67.12C132.626 67.4 132.286 67.73 131.906 68.11C131.486 68.53 131.096 68.93 130.736 69.31C130.396 69.67 130.156 69.96 130.016 70.18C129.976 70.26 129.936 70.35 129.896 70.45C129.856 70.57 129.826 70.66 129.806 70.72C129.766 70.8 129.736 70.87 129.716 70.93C129.696 70.99 129.666 71.04 129.626 71.08C129.526 71.18 129.416 71.24 129.296 71.26C129.176 71.3 129.036 71.32 128.876 71.32C128.536 71.32 128.196 71.14 127.856 70.78C127.536 70.42 127.376 69.95 127.376 69.37C127.376 69.09 127.406 68.74 127.466 68.32C127.526 67.88 127.596 67.44 127.676 67C127.756 66.54 127.836 66.09 127.916 65.65C128.016 65.21 128.096 64.84 128.156 64.54C128.216 64.26 128.276 63.93 128.336 63.55C128.416 63.17 128.486 62.8 128.546 62.44C128.626 62.08 128.686 61.75 128.726 61.45C128.786 61.15 128.816 60.94 128.816 60.82C128.816 60.66 128.786 60.44 128.726 60.16C128.766 60.02 128.816 59.92 128.876 59.86C128.996 59.72 129.096 59.62 129.176 59.56C129.276 59.48 129.396 59.44 129.536 59.44C129.716 59.44 129.886 59.47 130.046 59.53C130.366 59.65 130.616 59.86 130.796 60.16C130.976 60.46 131.106 60.78 131.186 61.12L131.216 61.27C131.176 61.39 131.156 61.47 131.156 61.51V61.63C131.156 61.65 131.166 61.67 131.186 61.69C131.186 62.13 131.146 62.54 131.066 62.92C130.986 63.3 130.876 63.75 130.736 64.27C130.696 64.47 130.646 64.69 130.586 64.93C130.546 65.15 130.526 65.31 130.526 65.41C130.526 65.51 130.576 65.56 130.676 65.56C130.776 65.56 130.866 65.52 130.946 65.44C131.026 65.36 131.096 65.29 131.156 65.23C131.676 64.59 132.206 63.99 132.746 63.43C133.286 62.85 133.826 62.31 134.366 61.81C134.566 61.63 134.726 61.51 134.846 61.45C134.966 61.37 135.106 61.33 135.266 61.33C135.746 61.33 136.156 61.47 136.496 61.75C136.836 62.01 137.046 62.24 137.126 62.44C137.226 62.72 137.296 62.95 137.336 63.13C137.376 63.31 137.396 63.49 137.396 63.67C137.396 63.95 137.386 64.27 137.366 64.63C137.366 64.97 137.366 65.26 137.366 65.5C137.366 65.7 137.396 65.84 137.456 65.92C137.536 65.98 137.626 66.01 137.726 66.01C137.746 66.01 137.816 65.97 137.936 65.89C138.056 65.79 138.186 65.68 138.326 65.56C138.486 65.44 138.646 65.31 138.806 65.17C138.986 65.03 139.136 64.9 139.256 64.78C139.796 64.32 140.296 63.89 140.756 63.49C141.236 63.09 141.586 62.8 141.806 62.62C141.986 62.46 142.136 62.36 142.256 62.32C142.376 62.26 142.536 62.23 142.736 62.23C142.916 62.23 143.096 62.31 143.276 62.47C143.476 62.63 143.656 62.82 143.816 63.04C143.976 63.26 144.106 63.49 144.206 63.73C144.306 63.97 144.356 64.18 144.356 64.36C144.356 64.68 144.336 65.04 144.296 65.44C144.256 65.84 144.236 66.22 144.236 66.58C144.236 66.72 144.246 66.93 144.266 67.21C144.306 67.47 144.346 67.63 144.386 67.69C144.406 67.91 144.476 68.12 144.596 68.32C144.716 68.5 144.856 68.7 145.016 68.92L145.226 69.16L145.346 69.25C145.326 69.25 145.316 69.26 145.316 69.28V69.34C145.316 69.38 145.316 69.41 145.316 69.43C145.336 69.43 145.346 69.45 145.346 69.49V69.85ZM143.253 81.16C145.013 81.16 146.503 80.96 147.723 80.56C148.943 80.18 149.903 79.65 150.603 78.97C151.203 78.39 151.703 77.7 152.103 76.9C152.523 76.1 152.873 75.18 153.153 74.14C153.373 73.38 153.493 72.59 153.513 71.77C153.533 70.95 153.583 70.14 153.663 69.34C153.623 69.44 153.533 69.56 153.393 69.7C153.253 69.82 153.073 69.93 152.853 70.03C152.633 70.15 152.383 70.25 152.103 70.33C151.843 70.43 151.573 70.48 151.293 70.48C151.093 70.48 150.903 70.47 150.723 70.45C150.543 70.43 150.343 70.37 150.123 70.27C149.743 70.11 149.393 69.86 149.073 69.52C148.753 69.16 148.503 68.73 148.323 68.23C148.203 67.89 148.133 67.52 148.113 67.12C148.093 66.7 148.083 66.3 148.083 65.92C148.083 65.14 148.133 64.47 148.233 63.91C148.333 63.35 148.443 62.88 148.563 62.5C148.663 62.18 148.793 61.89 148.953 61.63C149.113 61.35 149.423 61.21 149.883 61.21H150.003C150.263 61.21 150.433 61.29 150.513 61.45C150.613 61.59 150.663 61.78 150.663 62.02C150.663 62.06 150.663 62.12 150.663 62.2C150.663 62.26 150.653 62.36 150.633 62.5C150.573 63.02 150.513 63.53 150.453 64.03C150.393 64.53 150.363 64.99 150.363 65.41C150.363 66.01 150.443 66.53 150.603 66.97C150.783 67.39 151.123 67.6 151.623 67.6C151.783 67.6 151.953 67.58 152.133 67.54C152.313 67.48 152.513 67.4 152.733 67.3C153.013 67.18 153.283 66.92 153.543 66.52C153.803 66.12 154.013 65.69 154.173 65.23C154.333 64.77 154.513 64.38 154.713 64.06C154.933 63.74 155.193 63.58 155.493 63.58C155.593 63.58 155.713 63.61 155.853 63.67C156.013 63.71 156.143 63.81 156.243 63.97C156.303 64.05 156.343 64.16 156.363 64.3C156.383 64.44 156.393 64.59 156.393 64.75C156.393 64.89 156.383 65.02 156.363 65.14C156.363 65.24 156.363 65.31 156.363 65.35C156.343 65.65 156.323 65.94 156.303 66.22C156.283 66.48 156.253 66.77 156.213 67.09C156.193 67.39 156.173 67.74 156.153 68.14C156.133 68.54 156.123 69.03 156.123 69.61C156.123 71.83 155.913 73.8 155.493 75.52C155.093 77.24 154.403 78.69 153.423 79.87C152.443 81.05 151.143 81.94 149.523 82.54C147.923 83.16 145.913 83.47 143.493 83.47C143.373 83.47 143.263 83.47 143.163 83.47C143.043 83.47 142.933 83.45 142.833 83.41C142.593 83.31 142.363 83.23 142.143 83.17C141.903 83.13 141.733 82.97 141.633 82.69C141.553 82.53 141.503 82.4 141.483 82.3C141.463 82.22 141.453 82.14 141.453 82.06C141.453 81.66 141.593 81.41 141.873 81.31C142.133 81.21 142.483 81.16 142.923 81.16H143.253ZM160.471 79.3C160.311 79.3 160.191 79.23 160.111 79.09C160.051 78.95 160.011 78.79 159.991 78.61C159.971 78.45 159.961 78.29 159.961 78.13C159.961 77.37 159.931 76.62 159.871 75.88C159.831 75.14 159.781 74.42 159.721 73.72C159.681 73.04 159.631 72.4 159.571 71.8C159.531 71.2 159.511 70.66 159.511 70.18C159.511 69.82 159.531 69.55 159.571 69.37C159.631 69.17 159.701 69.02 159.781 68.92C159.861 68.8 159.951 68.71 160.051 68.65C160.151 68.59 160.261 68.51 160.381 68.41C160.481 67.59 160.571 66.9 160.651 66.34C160.731 65.78 160.801 65.35 160.861 65.05C161.401 62.43 162.131 60.49 163.051 59.23C163.991 57.97 165.111 57.34 166.411 57.34C167.031 57.34 167.571 57.49 168.031 57.79C168.511 58.09 168.911 58.49 169.231 58.99C169.271 59.07 169.321 59.18 169.381 59.32C169.441 59.44 169.471 59.53 169.471 59.59C169.531 59.67 169.591 59.78 169.651 59.92C169.731 60.06 169.791 60.24 169.831 60.46C169.871 60.64 169.901 60.83 169.921 61.03C169.941 61.23 169.951 61.43 169.951 61.63C169.951 62.53 169.711 63.36 169.231 64.12C168.771 64.86 168.181 65.52 167.461 66.1C166.741 66.68 165.941 67.18 165.061 67.6C164.201 68 163.381 68.31 162.601 68.53C162.581 69.83 162.571 71.05 162.571 72.19C162.571 73.33 162.541 74.36 162.481 75.28C162.441 76.22 162.351 77.02 162.211 77.68C162.091 78.34 161.911 78.83 161.671 79.15C161.571 79.29 161.421 79.39 161.221 79.45C161.181 79.47 161.131 79.49 161.071 79.51C161.011 79.53 160.961 79.54 160.921 79.54C160.821 79.54 160.731 79.51 160.651 79.45C160.591 79.39 160.531 79.34 160.471 79.3ZM167.131 60.04C166.911 59.82 166.631 59.71 166.291 59.71C165.951 59.71 165.621 59.87 165.301 60.19C164.981 60.51 164.671 60.96 164.371 61.54C164.091 62.1 163.831 62.77 163.591 63.55C163.351 64.33 163.151 65.18 162.991 66.1C162.991 66.12 162.981 66.14 162.961 66.16C162.961 66.16 162.961 66.17 162.961 66.19C164.441 65.69 165.581 65.02 166.381 64.18C167.181 63.34 167.581 62.37 167.581 61.27C167.581 61.15 167.561 61.03 167.521 60.91C167.481 60.79 167.441 60.67 167.401 60.55C167.361 60.49 167.331 60.43 167.311 60.37C167.311 60.29 167.291 60.23 167.251 60.19L167.131 60.04ZM180.264 68.95C180.244 69.05 180.234 69.14 180.234 69.22C180.234 69.28 180.234 69.35 180.234 69.43C180.234 69.53 180.224 69.62 180.204 69.7C180.204 69.76 180.204 69.83 180.204 69.91C180.204 69.95 180.194 69.99 180.174 70.03C180.174 70.09 180.174 70.14 180.174 70.18C180.174 70.26 180.184 70.32 180.204 70.36C180.244 70.42 180.264 70.49 180.264 70.57C180.264 70.65 180.234 70.75 180.174 70.87C180.114 70.99 180.074 71.09 180.054 71.17C180.034 71.25 179.994 71.35 179.934 71.47C179.874 71.55 179.814 71.59 179.754 71.59C179.714 71.61 179.644 71.67 179.544 71.77C179.484 71.85 179.384 71.89 179.244 71.89C179.164 71.89 179.084 71.87 179.004 71.83C178.964 71.79 178.904 71.76 178.824 71.74C178.744 71.72 178.674 71.68 178.614 71.62C178.534 71.56 178.454 71.47 178.374 71.35C178.334 71.27 178.254 71.15 178.134 70.99C178.074 70.91 178.004 70.77 177.924 70.57C177.804 70.27 177.744 69.95 177.744 69.61C177.744 69.51 177.744 69.39 177.744 69.25C177.744 69.11 177.754 68.99 177.774 68.89C177.774 68.77 177.784 68.64 177.804 68.5C177.644 68.7 177.454 68.93 177.234 69.19C177.014 69.43 176.764 69.66 176.484 69.88C176.204 70.1 175.884 70.28 175.524 70.42C175.184 70.58 174.804 70.66 174.384 70.66C174.024 70.66 173.694 70.57 173.394 70.39C173.094 70.23 172.834 70.01 172.614 69.73C172.414 69.45 172.254 69.12 172.134 68.74C172.014 68.36 171.954 67.97 171.954 67.57C171.954 66.95 172.034 66.36 172.194 65.8C172.374 65.24 172.614 64.7 172.914 64.18L173.244 63.7C173.264 63.66 173.344 63.57 173.484 63.43C173.624 63.27 173.774 63.1 173.934 62.92C174.094 62.74 174.264 62.57 174.444 62.41C174.624 62.25 174.774 62.12 174.894 62.02L175.374 61.66C175.674 61.48 176.014 61.29 176.394 61.09C176.694 60.95 176.924 60.87 177.084 60.85C177.264 60.81 177.444 60.79 177.624 60.79C178.044 60.79 178.454 60.87 178.854 61.03C179.274 61.19 179.634 61.39 179.934 61.63C179.974 62.01 179.994 62.42 179.994 62.86C180.014 63.3 180.034 63.72 180.054 64.12C180.094 64.82 180.134 65.52 180.174 66.22C180.234 66.92 180.264 67.65 180.264 68.41V68.95ZM177.354 63.4C176.854 63.5 176.384 63.72 175.944 64.06C175.524 64.4 175.184 64.77 174.924 65.17C174.724 65.47 174.564 65.79 174.444 66.13C174.344 66.45 174.294 66.81 174.294 67.21C174.294 67.43 174.344 67.61 174.444 67.75C174.544 67.87 174.684 67.93 174.864 67.93C175.124 67.93 175.384 67.86 175.644 67.72C175.924 67.56 176.174 67.38 176.394 67.18C176.614 66.96 176.804 66.74 176.964 66.52C177.144 66.28 177.264 66.08 177.324 65.92C177.404 65.74 177.484 65.56 177.564 65.38C177.644 65.2 177.714 64.91 177.774 64.51C177.794 64.41 177.804 64.26 177.804 64.06C177.824 63.86 177.834 63.68 177.834 63.52C177.714 63.44 177.554 63.4 177.354 63.4ZM180.469 76.69C180.449 76.65 180.439 76.59 180.439 76.51C180.439 76.45 180.439 76.41 180.439 76.39C180.439 76.11 180.579 75.85 180.859 75.61C181.119 75.37 181.359 75.11 181.579 74.83C181.679 74.69 181.779 74.55 181.879 74.41C181.979 74.27 182.079 74.12 182.179 73.96L182.989 72.76C183.149 72.52 183.309 72.26 183.469 71.98C183.649 71.7 183.789 71.42 183.889 71.14C183.929 71.08 183.969 71.01 184.009 70.93C184.069 70.87 184.109 70.82 184.129 70.78C184.269 70.32 184.499 69.9 184.819 69.52C184.999 69.32 185.199 69.22 185.419 69.22C185.539 69.22 185.669 69.23 185.809 69.25C185.949 69.25 186.069 69.28 186.169 69.34C186.289 69.42 186.369 69.49 186.409 69.55C186.449 69.59 186.519 69.66 186.619 69.76C186.719 69.86 186.809 69.98 186.889 70.12C186.969 70.28 187.009 70.43 187.009 70.57C187.009 70.63 186.989 70.7 186.949 70.78C186.889 70.96 186.829 71.1 186.769 71.2C186.729 71.32 186.659 71.46 186.559 71.62C186.459 71.78 186.379 71.94 186.319 72.1C186.259 72.26 186.179 72.42 186.079 72.58C186.019 72.68 185.949 72.78 185.869 72.88C185.789 73 185.709 73.11 185.629 73.21C185.529 73.31 185.449 73.42 185.389 73.54C185.349 73.66 185.279 73.77 185.179 73.87C185.059 74.01 184.939 74.14 184.819 74.26C184.699 74.4 184.589 74.54 184.489 74.68C184.089 75.16 183.659 75.61 183.199 76.03C182.759 76.47 182.249 76.83 181.669 77.11C181.509 77.19 181.369 77.24 181.249 77.26C181.129 77.28 180.969 77.29 180.769 77.29C180.669 77.29 180.629 77.25 180.649 77.17C180.649 77.11 180.619 77.01 180.559 76.87L180.469 76.69ZM75.5984 116.11C75.5784 116.11 75.5384 116.11 75.4784 116.11C75.4384 116.11 75.3984 116.12 75.3584 116.14C75.3184 116.1 75.2684 116.08 75.2084 116.08C75.1684 116.08 75.1284 116.08 75.0884 116.08L74.7584 116.02C74.6184 116.02 74.5184 116 74.4584 115.96C74.4184 115.94 74.3584 115.91 74.2784 115.87C74.2384 115.87 74.1984 115.88 74.1584 115.9C74.1584 115.86 74.1284 115.81 74.0684 115.75C74.0284 115.71 73.9784 115.65 73.9184 115.57C73.8184 115.37 73.7684 115.15 73.7684 114.91C73.7684 114.67 73.7884 114.47 73.8284 114.31C73.8884 114.15 73.9484 113.99 74.0084 113.83C74.1284 112.85 74.1884 111.77 74.1884 110.59C74.1884 109.39 74.2284 108.02 74.3084 106.48C74.3284 106.16 74.3484 105.85 74.3684 105.55C74.3884 105.25 74.5084 105.01 74.7284 104.83C74.8084 104.77 74.8784 104.71 74.9384 104.65C75.0184 104.59 75.0884 104.54 75.1484 104.5C75.2484 104.46 75.3784 104.42 75.5384 104.38C76.2984 104.36 77.0084 104.33 77.6684 104.29C78.2284 104.27 78.7784 104.25 79.3184 104.23C79.8584 104.21 80.2584 104.2 80.5184 104.2C81.0184 104.2 81.4584 104.21 81.8384 104.23C82.2384 104.23 82.4984 104.24 82.6184 104.26C82.6984 104.26 82.7484 104.28 82.7684 104.32C82.8084 104.34 82.8484 104.37 82.8884 104.41C82.9884 104.51 83.0484 104.62 83.0684 104.74C83.0884 104.78 83.1084 104.82 83.1284 104.86C83.1484 104.88 83.1584 104.92 83.1584 104.98C83.1584 105 83.1584 105.07 83.1584 105.19C83.1584 105.29 83.1384 105.53 83.0984 105.91C83.0784 106.29 83.0384 106.86 82.9784 107.62C82.9384 108.36 82.8684 109.37 82.7684 110.65C82.7484 110.73 82.7384 110.81 82.7384 110.89C82.7184 110.95 82.7084 111.02 82.7084 111.1C82.7084 111.18 82.6884 111.25 82.6484 111.31C82.6684 111.37 82.6784 111.45 82.6784 111.55C82.6584 112.01 82.6284 112.43 82.5884 112.81C82.5684 113.17 82.5484 113.58 82.5284 114.04C82.5284 114.12 82.5384 114.2 82.5584 114.28C82.5584 114.36 82.5584 114.46 82.5584 114.58C82.5784 114.68 82.5884 114.8 82.5884 114.94C82.5884 115.26 82.5484 115.51 82.4684 115.69C82.4084 115.89 82.2684 116.01 82.0484 116.05C81.9884 116.09 81.9184 116.12 81.8384 116.14C81.6784 116.18 81.4984 116.2 81.2984 116.2C80.8784 116.2 80.5984 116.16 80.4584 116.08C80.3184 116 80.2484 115.85 80.2484 115.63C80.2084 115.57 80.1584 115.48 80.0984 115.36C80.0584 115.24 80.0384 115.12 80.0384 115C80.0384 114.6 80.0584 114.25 80.0984 113.95C80.1584 113.63 80.2084 113.28 80.2484 112.9C80.2884 112.34 80.3184 111.84 80.3384 111.4C80.3584 110.96 80.3784 110.51 80.3984 110.05C80.4184 109.59 80.4384 109.08 80.4584 108.52C80.4984 107.96 80.5484 107.28 80.6084 106.48L80.1584 106.45C80.1184 106.45 80.0684 106.45 80.0084 106.45C79.9684 106.43 79.9384 106.4 79.9184 106.36C79.8584 106.44 79.7984 106.48 79.7384 106.48C79.6784 106.48 79.6384 106.46 79.6184 106.42C79.5984 106.38 79.5384 106.36 79.4384 106.36C79.4384 106.42 79.3184 106.47 79.0784 106.51C79.0384 106.51 78.9584 106.52 78.8384 106.54C78.7384 106.54 78.6584 106.54 78.5984 106.54L77.8784 106.6C77.6984 106.62 77.5084 106.63 77.3084 106.63C77.1284 106.61 76.9584 106.62 76.7984 106.66C76.7584 107.08 76.7284 107.49 76.7084 107.89C76.6884 108.29 76.6584 108.76 76.6184 109.3C76.5584 110 76.5084 110.59 76.4684 111.07C76.4284 111.53 76.4084 112.08 76.4084 112.72C76.4084 113.04 76.4384 113.35 76.4984 113.65C76.5584 113.93 76.5884 114.22 76.5884 114.52C76.5884 114.78 76.5684 115.02 76.5284 115.24C76.4884 115.46 76.4484 115.59 76.4084 115.63C76.3884 115.67 76.3484 115.72 76.2884 115.78C76.2284 115.84 76.1784 115.87 76.1384 115.87C76.0184 115.95 75.9584 116.02 75.9584 116.08L75.5984 116.11ZM87.6391 124.3C87.4791 124.3 87.3591 124.23 87.2791 124.09C87.2191 123.95 87.1791 123.79 87.1591 123.61C87.1391 123.45 87.1291 123.29 87.1291 123.13C87.1291 122.37 87.0991 121.62 87.0391 120.88C86.9991 120.14 86.9491 119.42 86.8891 118.72C86.8491 118.04 86.7991 117.4 86.7391 116.8C86.6991 116.2 86.6791 115.66 86.6791 115.18C86.6791 114.82 86.6991 114.55 86.7391 114.37C86.7991 114.17 86.8691 114.02 86.9491 113.92C87.0291 113.8 87.1191 113.71 87.2191 113.65C87.3191 113.59 87.4291 113.51 87.5491 113.41C87.6491 112.59 87.7391 111.9 87.8191 111.34C87.8991 110.78 87.9691 110.35 88.0291 110.05C88.5691 107.43 89.2991 105.49 90.2191 104.23C91.1591 102.97 92.2791 102.34 93.5791 102.34C94.1991 102.34 94.7391 102.49 95.1991 102.79C95.6791 103.09 96.0791 103.49 96.3991 103.99C96.4391 104.07 96.4891 104.18 96.5491 104.32C96.6091 104.44 96.6391 104.53 96.6391 104.59C96.6991 104.67 96.7591 104.78 96.8191 104.92C96.8991 105.06 96.9591 105.24 96.9991 105.46C97.0391 105.64 97.0691 105.83 97.0891 106.03C97.1091 106.23 97.1191 106.43 97.1191 106.63C97.1191 107.53 96.8791 108.36 96.3991 109.12C95.9391 109.86 95.3491 110.52 94.6291 111.1C93.9091 111.68 93.1091 112.18 92.2291 112.6C91.3691 113 90.5491 113.31 89.7691 113.53C89.7491 114.83 89.7391 116.05 89.7391 117.19C89.7391 118.33 89.7091 119.36 89.6491 120.28C89.6091 121.22 89.5191 122.02 89.3791 122.68C89.2591 123.34 89.0791 123.83 88.8391 124.15C88.7391 124.29 88.5891 124.39 88.3891 124.45C88.3491 124.47 88.2991 124.49 88.2391 124.51C88.1791 124.53 88.1291 124.54 88.0891 124.54C87.9891 124.54 87.8991 124.51 87.8191 124.45C87.7591 124.39 87.6991 124.34 87.6391 124.3ZM94.2991 105.04C94.0791 104.82 93.7991 104.71 93.4591 104.71C93.1191 104.71 92.7891 104.87 92.4691 105.19C92.1491 105.51 91.8391 105.96 91.5391 106.54C91.2591 107.1 90.9991 107.77 90.7591 108.55C90.5191 109.33 90.3191 110.18 90.1591 111.1C90.1591 111.12 90.1491 111.14 90.1291 111.16C90.1291 111.16 90.1291 111.17 90.1291 111.19C91.6091 110.69 92.7491 110.02 93.5491 109.18C94.3491 108.34 94.7491 107.37 94.7491 106.27C94.7491 106.15 94.7291 106.03 94.6891 105.91C94.6491 105.79 94.6091 105.67 94.5691 105.55C94.5291 105.49 94.4991 105.43 94.4791 105.37C94.4791 105.29 94.4591 105.23 94.4191 105.19L94.2991 105.04ZM107.432 113.95C107.412 114.05 107.402 114.14 107.402 114.22C107.402 114.28 107.402 114.35 107.402 114.43C107.402 114.53 107.392 114.62 107.372 114.7C107.372 114.76 107.372 114.83 107.372 114.91C107.372 114.95 107.362 114.99 107.342 115.03C107.342 115.09 107.342 115.14 107.342 115.18C107.342 115.26 107.352 115.32 107.372 115.36C107.412 115.42 107.432 115.49 107.432 115.57C107.432 115.65 107.402 115.75 107.342 115.87C107.282 115.99 107.242 116.09 107.222 116.17C107.202 116.25 107.162 116.35 107.102 116.47C107.042 116.55 106.982 116.59 106.922 116.59C106.882 116.61 106.812 116.67 106.712 116.77C106.652 116.85 106.552 116.89 106.412 116.89C106.332 116.89 106.252 116.87 106.172 116.83C106.132 116.79 106.072 116.76 105.992 116.74C105.912 116.72 105.842 116.68 105.782 116.62C105.702 116.56 105.622 116.47 105.542 116.35C105.502 116.27 105.422 116.15 105.302 115.99C105.242 115.91 105.172 115.77 105.092 115.57C104.972 115.27 104.912 114.95 104.912 114.61C104.912 114.51 104.912 114.39 104.912 114.25C104.912 114.11 104.922 113.99 104.942 113.89C104.942 113.77 104.952 113.64 104.972 113.5C104.812 113.7 104.622 113.93 104.402 114.19C104.182 114.43 103.932 114.66 103.652 114.88C103.372 115.1 103.052 115.28 102.692 115.42C102.352 115.58 101.972 115.66 101.552 115.66C101.192 115.66 100.862 115.57 100.562 115.39C100.262 115.23 100.002 115.01 99.7819 114.73C99.5819 114.45 99.4219 114.12 99.3019 113.74C99.1819 113.36 99.1219 112.97 99.1219 112.57C99.1219 111.95 99.2019 111.36 99.3619 110.8C99.5419 110.24 99.7819 109.7 100.082 109.18L100.412 108.7C100.432 108.66 100.512 108.57 100.652 108.43C100.792 108.27 100.942 108.1 101.102 107.92C101.262 107.74 101.432 107.57 101.612 107.41C101.792 107.25 101.942 107.12 102.062 107.02L102.542 106.66C102.842 106.48 103.182 106.29 103.562 106.09C103.862 105.95 104.092 105.87 104.252 105.85C104.432 105.81 104.612 105.79 104.792 105.79C105.212 105.79 105.622 105.87 106.022 106.03C106.442 106.19 106.802 106.39 107.102 106.63C107.142 107.01 107.162 107.42 107.162 107.86C107.182 108.3 107.202 108.72 107.222 109.12C107.262 109.82 107.302 110.52 107.342 111.22C107.402 111.92 107.432 112.65 107.432 113.41V113.95ZM104.522 108.4C104.022 108.5 103.552 108.72 103.112 109.06C102.692 109.4 102.352 109.77 102.092 110.17C101.892 110.47 101.732 110.79 101.612 111.13C101.512 111.45 101.462 111.81 101.462 112.21C101.462 112.43 101.512 112.61 101.612 112.75C101.712 112.87 101.852 112.93 102.032 112.93C102.292 112.93 102.552 112.86 102.812 112.72C103.092 112.56 103.342 112.38 103.562 112.18C103.782 111.96 103.972 111.74 104.132 111.52C104.312 111.28 104.432 111.08 104.492 110.92C104.572 110.74 104.652 110.56 104.732 110.38C104.812 110.2 104.882 109.91 104.942 109.51C104.962 109.41 104.972 109.26 104.972 109.06C104.992 108.86 105.002 108.68 105.002 108.52C104.882 108.44 104.722 108.4 104.522 108.4ZM114.477 115.93C114.257 115.93 114.007 115.92 113.727 115.9C113.467 115.88 113.187 115.85 112.887 115.81C112.787 115.79 112.677 115.76 112.557 115.72C112.457 115.68 112.367 115.64 112.287 115.6C112.187 115.56 112.097 115.54 112.017 115.54C111.957 115.56 111.897 115.54 111.837 115.48C111.637 115.34 111.447 115.2 111.267 115.06C111.107 114.94 111.007 114.76 110.967 114.52C110.947 114.42 110.927 114.34 110.907 114.28C110.887 114.22 110.877 114.14 110.877 114.04C110.877 113.96 110.897 113.89 110.937 113.83C110.977 113.75 110.997 113.67 110.997 113.59C110.997 113.49 111.027 113.41 111.087 113.35C111.147 113.27 111.207 113.23 111.267 113.23C111.387 113.19 111.517 113.17 111.657 113.17C111.837 113.17 112.017 113.19 112.197 113.23C112.377 113.25 112.527 113.28 112.647 113.32C112.927 113.38 113.177 113.46 113.397 113.56C113.617 113.66 113.957 113.71 114.417 113.71C114.737 113.71 115.067 113.7 115.407 113.68C115.767 113.64 116.077 113.58 116.337 113.5C116.617 113.4 116.847 113.26 117.027 113.08C117.207 112.88 117.297 112.61 117.297 112.27C117.297 111.79 117.167 111.44 116.907 111.22C116.647 110.98 116.177 110.86 115.497 110.86C115.257 110.86 114.977 110.88 114.657 110.92C114.337 110.96 114.037 110.98 113.757 110.98C113.617 110.98 113.487 110.95 113.367 110.89C113.207 110.85 113.097 110.79 113.037 110.71C112.917 110.57 112.857 110.4 112.857 110.2C112.857 110.08 112.867 109.99 112.887 109.93C112.927 109.87 112.947 109.79 112.947 109.69C112.947 109.59 112.957 109.53 112.977 109.51C112.997 109.47 113.017 109.45 113.037 109.45C113.077 109.45 113.117 109.43 113.157 109.39C113.197 109.35 113.247 109.31 113.307 109.27C113.387 109.23 113.457 109.2 113.517 109.18C113.617 109.16 113.787 109.15 114.027 109.15C114.367 109.13 114.717 109.09 115.077 109.03C115.457 108.95 115.797 108.84 116.097 108.7C116.397 108.56 116.647 108.38 116.847 108.16C117.047 107.94 117.147 107.66 117.147 107.32C117.147 106.98 117.037 106.7 116.817 106.48C116.617 106.24 116.307 106.12 115.887 106.12C115.467 106.12 115.077 106.15 114.717 106.21C114.377 106.27 114.037 106.42 113.697 106.66L113.547 106.81C113.447 106.91 113.307 106.98 113.127 107.02C112.827 107.1 112.547 107.14 112.287 107.14V107.11C112.287 107.09 112.287 107.08 112.287 107.08C112.307 107.08 112.317 107.07 112.317 107.05C112.317 107.01 112.287 106.99 112.227 106.99C112.207 106.99 112.137 107.01 112.017 107.05C111.957 107.05 111.887 107.08 111.807 107.14L111.837 106.93C111.797 106.93 111.727 106.92 111.627 106.9C111.547 106.86 111.477 106.84 111.417 106.84C111.457 106.78 111.477 106.7 111.477 106.6C111.497 106.48 111.507 106.39 111.507 106.33C111.507 105.79 111.707 105.37 112.107 105.07C112.507 104.75 112.977 104.51 113.517 104.35C114.057 104.19 114.597 104.09 115.137 104.05C115.677 103.99 116.077 103.96 116.337 103.96C117.497 103.96 118.357 104.2 118.917 104.68C119.477 105.14 119.757 105.89 119.757 106.93C119.757 107.43 119.637 107.91 119.397 108.37C119.177 108.81 118.767 109.2 118.167 109.54C118.807 109.76 119.267 110.1 119.547 110.56C119.847 111 119.997 111.56 119.997 112.24C119.997 112.84 119.857 113.37 119.577 113.83C119.297 114.27 118.907 114.65 118.407 114.97C117.927 115.29 117.347 115.53 116.667 115.69C115.987 115.85 115.257 115.93 114.477 115.93ZM127.412 125.41C127.012 125.41 126.632 125.33 126.272 125.17C125.912 125.01 125.572 124.8 125.252 124.54C124.932 124.28 124.622 123.99 124.322 123.67C124.042 123.35 123.782 123.03 123.542 122.71C123.362 122.43 123.182 122.15 123.002 121.87C122.822 121.61 122.652 121.35 122.492 121.09C122.452 120.95 122.412 120.84 122.372 120.76C122.332 120.7 122.312 120.62 122.312 120.52C122.292 120.5 122.282 120.44 122.282 120.34C122.282 120.28 122.292 120.23 122.312 120.19C122.332 120.15 122.342 120.11 122.342 120.07C122.342 120.05 122.332 120.02 122.312 119.98C122.312 119.96 122.312 119.93 122.312 119.89C122.312 119.87 122.332 119.82 122.372 119.74C122.412 119.68 122.492 119.63 122.612 119.59C122.752 119.55 122.862 119.53 122.942 119.53L123.092 119.56C123.132 119.56 123.162 119.55 123.182 119.53C123.202 119.53 123.222 119.53 123.242 119.53C123.342 119.49 123.472 119.47 123.632 119.47C123.972 119.47 124.362 119.69 124.802 120.13C125.022 120.35 125.202 120.6 125.342 120.88C125.482 121.18 125.632 121.46 125.792 121.72C125.952 122 126.142 122.23 126.362 122.41C126.582 122.61 126.882 122.71 127.262 122.71C127.642 122.71 127.972 122.56 128.252 122.26C128.532 121.96 128.772 121.58 128.972 121.12C129.192 120.66 129.372 120.16 129.512 119.62C129.672 119.08 129.802 118.57 129.902 118.09C130.002 117.65 130.102 117.1 130.202 116.44C130.322 115.78 130.432 115.11 130.532 114.43C130.652 113.73 130.742 113.07 130.802 112.45C130.882 111.83 130.932 111.32 130.952 110.92C130.872 110.76 130.782 110.68 130.682 110.68C130.582 110.68 130.452 110.73 130.292 110.83C130.152 110.91 129.882 111.11 129.482 111.43C129.302 111.59 129.062 111.76 128.762 111.94C128.462 112.12 128.132 112.3 127.772 112.48C127.432 112.64 127.082 112.78 126.722 112.9C126.382 113 126.072 113.05 125.792 113.05C125.352 113.05 124.982 112.96 124.682 112.78C124.382 112.58 124.132 112.34 123.932 112.06C123.752 111.76 123.622 111.43 123.542 111.07C123.462 110.71 123.422 110.35 123.422 109.99C123.422 109.07 123.672 108.16 124.172 107.26C124.432 106.76 124.812 106.28 125.312 105.82C125.812 105.36 126.402 105.13 127.082 105.13C127.802 105.13 128.462 105.31 129.062 105.67C129.742 106.15 130.142 106.82 130.262 107.68C130.302 107.78 130.312 107.87 130.292 107.95C130.292 108.01 130.312 108.06 130.352 108.1L130.712 107.86C130.812 107.76 130.972 107.66 131.192 107.56C131.432 107.46 131.682 107.41 131.942 107.41C132.062 107.41 132.262 107.49 132.542 107.65C132.842 107.79 133.042 107.96 133.142 108.16C133.182 108.26 133.232 108.4 133.292 108.58C133.352 108.76 133.382 108.93 133.382 109.09C133.402 109.19 133.412 109.27 133.412 109.33C133.432 109.39 133.442 109.44 133.442 109.48V109.63C133.402 109.89 133.342 110.54 133.262 111.58C133.202 112.6 133.062 113.82 132.842 115.24C132.702 116.24 132.542 117.15 132.362 117.97C132.202 118.81 132.042 119.51 131.882 120.07C131.722 120.61 131.512 121.19 131.252 121.81C131.012 122.43 130.702 123.01 130.322 123.55C129.962 124.09 129.542 124.53 129.062 124.87C128.582 125.23 128.032 125.41 127.412 125.41ZM126.152 110.29C126.612 110.29 127.062 110.16 127.502 109.9C127.962 109.64 128.332 109.37 128.612 109.09V109.03C128.612 109.01 128.612 108.99 128.612 108.97C128.632 108.95 128.642 108.92 128.642 108.88C128.642 108.68 128.562 108.47 128.402 108.25C128.342 108.17 128.252 108.13 128.132 108.13C127.432 108.13 126.892 108.34 126.512 108.76C126.132 109.18 125.912 109.62 125.852 110.08C125.852 110.22 125.952 110.29 126.152 110.29ZM144.493 116.26C144.093 116.26 143.893 115.89 143.893 115.15C143.893 114.97 143.893 114.77 143.893 114.55C143.913 114.33 143.953 114.1 144.013 113.86C144.053 113.64 144.093 113.43 144.133 113.23C144.173 113.03 144.203 112.74 144.223 112.36C144.223 112.08 144.223 111.82 144.223 111.58C144.223 111.32 144.233 111.08 144.253 110.86C143.953 110.88 143.623 110.9 143.263 110.92C142.923 110.92 142.603 110.93 142.303 110.95C142.003 110.95 141.733 110.96 141.493 110.98C141.273 110.98 141.133 110.98 141.073 110.98C140.953 111 140.783 111.02 140.563 111.04C140.343 111.04 140.093 111.04 139.813 111.04V111.25C139.813 111.41 139.813 111.64 139.813 111.94C139.833 112.24 139.843 112.56 139.843 112.9C139.843 112.98 139.843 113.11 139.843 113.29C139.843 113.47 139.823 113.9 139.783 114.58C139.783 115.02 139.723 115.37 139.603 115.63C139.583 115.67 139.543 115.71 139.483 115.75C139.443 115.79 139.413 115.83 139.393 115.87C139.353 115.91 139.323 115.96 139.303 116.02C139.303 116.08 139.283 116.13 139.243 116.17C139.083 116.29 138.873 116.35 138.613 116.35C138.513 116.35 138.413 116.34 138.313 116.32C138.213 116.32 138.123 116.32 138.043 116.32C137.703 116.32 137.493 116.23 137.413 116.05C137.353 115.89 137.323 115.52 137.323 114.94C137.323 114.84 137.323 114.68 137.323 114.46C137.343 114.22 137.363 114.05 137.383 113.95C137.443 113.39 137.483 112.95 137.503 112.63C137.523 112.29 137.533 111.92 137.533 111.52V111.1C137.433 111.12 137.343 111.13 137.263 111.13C137.183 111.13 137.103 111.13 137.023 111.13C136.943 111.13 136.863 111.14 136.783 111.16C136.763 111.12 136.713 111.08 136.633 111.04C136.573 111 136.543 110.9 136.543 110.74C136.543 110.6 136.523 110.49 136.483 110.41C136.463 110.31 136.453 110.21 136.453 110.11C136.453 109.95 136.493 109.8 136.573 109.66C136.653 109.5 136.743 109.37 136.843 109.27C136.943 109.17 137.053 109.11 137.173 109.09C137.313 109.05 137.443 109.02 137.563 109C137.583 108.5 137.603 107.97 137.623 107.41C137.663 106.83 137.703 106.23 137.743 105.61C137.783 105.27 137.813 104.97 137.833 104.71C137.873 104.45 137.973 104.24 138.133 104.08C138.253 103.98 138.363 103.91 138.463 103.87C138.563 103.83 138.723 103.81 138.943 103.81C139.443 103.81 139.773 103.94 139.933 104.2C140.113 104.44 140.203 104.83 140.203 105.37C140.203 105.51 140.193 105.65 140.173 105.79C140.153 105.93 140.123 106.08 140.083 106.24C140.063 106.38 140.053 106.54 140.053 106.72C140.053 106.88 140.043 107.05 140.023 107.23C140.023 107.41 140.023 107.59 140.023 107.77L139.963 108.88C140.143 108.88 140.283 108.87 140.383 108.85L144.373 108.61V108.31C144.373 108.15 144.373 107.99 144.373 107.83C144.393 107.67 144.403 107.51 144.403 107.35L144.313 105.7C144.333 105.26 144.403 104.9 144.523 104.62C144.643 104.32 144.863 104.12 145.183 104.02C145.203 104.02 145.253 104.01 145.333 103.99C145.373 103.99 145.433 103.99 145.513 103.99C145.613 103.97 145.713 103.96 145.813 103.96C145.933 103.96 146.043 103.97 146.143 103.99C146.243 104.01 146.363 104.06 146.503 104.14C146.663 104.24 146.743 104.36 146.743 104.5C146.743 104.54 146.753 104.58 146.773 104.62C146.813 104.66 146.833 104.7 146.833 104.74C146.833 104.86 146.853 104.95 146.893 105.01C146.933 105.05 146.953 105.13 146.953 105.25C146.953 105.29 146.943 105.34 146.923 105.4C146.923 105.46 146.923 105.51 146.923 105.55C146.943 105.57 146.953 105.65 146.953 105.79C146.953 105.89 146.943 105.98 146.923 106.06C146.923 106.14 146.913 106.23 146.893 106.33C146.853 106.61 146.803 106.98 146.743 107.44C146.683 107.88 146.633 108.3 146.593 108.7C146.553 109.24 146.513 110.01 146.473 111.01C146.433 112.01 146.413 113.17 146.413 114.49C146.413 115.01 146.363 115.41 146.263 115.69C146.183 115.97 145.863 116.15 145.303 116.23C145.183 116.25 145.053 116.26 144.913 116.26C144.793 116.26 144.653 116.26 144.493 116.26ZM159.365 115.87C158.945 115.87 158.595 115.76 158.315 115.54C158.035 115.34 157.805 115.09 157.625 114.79C157.465 114.49 157.345 114.18 157.265 113.86C157.185 113.52 157.135 113.23 157.115 112.99C157.075 112.93 157.035 112.9 156.995 112.9C156.915 112.9 156.815 112.97 156.695 113.11C156.575 113.27 156.435 113.47 156.275 113.71C156.115 113.93 155.895 114.21 155.615 114.55C155.235 115.01 154.775 115.41 154.235 115.75C153.695 116.11 153.195 116.29 152.735 116.29C152.155 116.29 151.655 116.02 151.235 115.48C150.815 114.94 150.605 114.19 150.605 113.23C150.605 112.75 150.635 112.29 150.695 111.85C150.755 111.39 150.825 110.96 150.905 110.56C150.985 110.16 151.035 109.74 151.055 109.3C151.075 108.86 151.095 108.38 151.115 107.86C151.115 107.7 151.115 107.55 151.115 107.41C151.135 107.27 151.145 107.15 151.145 107.05C151.145 107.01 151.135 106.98 151.115 106.96C151.095 106.94 151.075 106.91 151.055 106.87C151.035 106.83 151.025 106.78 151.025 106.72C151.025 106.66 151.015 106.59 150.995 106.51C150.995 106.45 150.995 106.4 150.995 106.36C151.015 106.3 151.025 106.24 151.025 106.18C151.065 105.9 151.185 105.67 151.385 105.49C151.585 105.29 151.805 105.19 152.045 105.19C152.325 105.19 152.585 105.28 152.825 105.46C153.085 105.64 153.295 105.87 153.455 106.15C153.595 106.37 153.685 106.6 153.725 106.84C153.785 107.06 153.815 107.28 153.815 107.5C153.815 107.7 153.805 107.85 153.785 107.95V108.28C153.785 108.44 153.775 108.62 153.755 108.82C153.755 109.02 153.745 109.23 153.725 109.45C153.705 109.65 153.685 109.85 153.665 110.05C153.645 110.23 153.625 110.37 153.605 110.47C153.565 110.63 153.515 110.83 153.455 111.07C153.415 111.31 153.365 111.55 153.305 111.79C153.265 112.01 153.225 112.21 153.185 112.39C153.145 112.57 153.125 112.69 153.125 112.75C153.125 112.91 153.155 113.02 153.215 113.08C153.295 113.14 153.385 113.18 153.485 113.2C153.665 113.2 153.935 113.07 154.295 112.81C154.675 112.53 155.055 112.17 155.435 111.73C155.835 111.29 156.195 110.79 156.515 110.23C156.855 109.65 157.095 109.07 157.235 108.49C157.395 107.85 157.555 107.42 157.715 107.2C157.875 106.96 158.035 106.84 158.195 106.84C158.595 106.84 158.975 107.01 159.335 107.35C159.715 107.69 159.905 108.19 159.905 108.85C159.905 109.19 159.865 109.54 159.785 109.9C159.725 110.26 159.675 110.57 159.635 110.83C159.595 111.05 159.565 111.28 159.545 111.52C159.525 111.76 159.515 112.02 159.515 112.3C159.515 112.46 159.515 112.63 159.515 112.81C159.535 112.99 159.575 113.12 159.635 113.2C159.675 113.2 159.755 113.18 159.875 113.14C160.055 113.06 160.275 113.02 160.535 113.02C160.675 113.02 160.855 113.09 161.075 113.23L161.225 113.38C161.265 113.42 161.305 113.48 161.345 113.56V114.04C161.325 114.24 161.275 114.45 161.195 114.67C161.115 114.87 160.995 115.06 160.835 115.24C160.695 115.42 160.495 115.57 160.235 115.69C159.995 115.81 159.705 115.87 159.365 115.87ZM167.173 106.45C167.593 106.33 168.073 106.19 168.613 106.03C169.153 105.85 169.713 105.64 170.293 105.4C170.693 105.24 171.133 105.05 171.613 104.83C172.093 104.59 172.453 104.41 172.693 104.29C172.993 104.13 173.293 103.99 173.593 103.87C173.893 103.73 174.143 103.66 174.343 103.66C174.543 103.66 174.663 103.68 174.703 103.72C174.743 103.76 174.873 103.81 175.093 103.87C175.113 103.93 175.163 104.02 175.243 104.14C175.323 104.26 175.403 104.35 175.483 104.41C175.483 104.45 175.483 104.49 175.483 104.53C175.503 104.57 175.513 104.61 175.513 104.65C175.513 104.67 175.503 104.69 175.483 104.71C175.483 104.73 175.483 104.76 175.483 104.8C175.483 104.84 175.493 104.88 175.513 104.92C175.493 105.02 175.463 105.1 175.423 105.16C175.403 105.2 175.393 105.25 175.393 105.31C175.373 105.35 175.343 105.38 175.303 105.4C175.283 105.42 175.253 105.45 175.213 105.49C175.193 105.55 175.153 105.6 175.093 105.64C175.033 105.66 174.983 105.69 174.943 105.73C174.763 105.89 174.443 106.08 173.983 106.3C173.543 106.52 173.053 106.75 172.513 106.99C171.973 107.23 171.433 107.46 170.893 107.68C170.353 107.88 169.903 108.04 169.543 108.16C168.783 108.38 168.403 108.53 168.403 108.61C168.423 108.69 168.553 108.85 168.793 109.09C169.033 109.33 169.333 109.62 169.693 109.96C170.073 110.28 170.483 110.64 170.923 111.04C171.383 111.42 171.813 111.79 172.213 112.15C172.633 112.51 173.003 112.85 173.323 113.17C173.663 113.47 173.903 113.71 174.043 113.89C174.143 114.03 174.193 114.12 174.193 114.16C174.193 114.2 174.213 114.26 174.253 114.34C174.313 114.4 174.363 114.46 174.403 114.52C174.363 114.6 174.343 114.69 174.343 114.79V114.88C174.343 114.9 174.353 114.92 174.373 114.94C174.333 114.98 174.303 115.02 174.283 115.06C174.283 115.1 174.273 115.14 174.253 115.18L174.103 115.39L173.893 115.54C173.813 115.58 173.733 115.62 173.653 115.66C173.593 115.7 173.543 115.74 173.503 115.78C173.403 115.84 173.313 115.87 173.233 115.87C173.073 115.87 172.923 115.83 172.783 115.75C172.663 115.69 172.593 115.64 172.573 115.6C172.353 115.6 172.183 115.52 172.063 115.36C171.963 115.22 171.833 115.09 171.673 114.97C171.233 114.67 170.673 114.23 169.993 113.65C169.313 113.05 168.513 112.29 167.593 111.37C167.493 111.27 167.343 111.16 167.143 111.04C166.963 110.92 166.833 110.86 166.753 110.86C166.713 110.96 166.693 111.04 166.693 111.1C166.693 111.16 166.693 111.24 166.693 111.34C166.693 111.68 166.703 111.97 166.723 112.21C166.743 112.43 166.763 112.63 166.783 112.81C166.803 112.99 166.823 113.16 166.843 113.32C166.863 113.48 166.873 113.65 166.873 113.83C166.873 114.21 166.783 114.53 166.603 114.79C166.383 115.07 166.023 115.21 165.523 115.21H165.343C165.063 115.17 164.873 115.03 164.773 114.79C164.693 114.55 164.633 114.31 164.593 114.07C164.553 113.83 164.523 113.49 164.503 113.05C164.483 112.59 164.473 112.19 164.473 111.85C164.473 111.37 164.493 110.83 164.533 110.23C164.593 109.61 164.653 109.01 164.713 108.43C164.773 107.83 164.833 107.28 164.893 106.78C164.973 106.26 165.033 105.84 165.073 105.52L165.253 104.32C165.273 104.24 165.293 104.17 165.313 104.11C165.333 104.03 165.363 103.95 165.403 103.87C165.503 103.71 165.613 103.6 165.733 103.54C165.873 103.46 165.973 103.38 166.033 103.3C166.133 103.3 166.193 103.31 166.213 103.33C166.273 103.31 166.323 103.28 166.363 103.24C166.403 103.2 166.463 103.18 166.543 103.18C166.603 103.18 166.693 103.19 166.813 103.21C166.933 103.21 167.043 103.26 167.143 103.36C167.263 103.44 167.363 103.57 167.443 103.75C167.523 103.93 167.563 104.19 167.563 104.53C167.563 104.57 167.553 104.65 167.533 104.77C167.513 104.89 167.483 105.01 167.443 105.13C167.403 105.27 167.373 105.42 167.353 105.58L167.173 106.45ZM186.084 115.87C185.664 115.87 185.314 115.76 185.034 115.54C184.754 115.34 184.524 115.09 184.344 114.79C184.184 114.49 184.064 114.18 183.984 113.86C183.904 113.52 183.854 113.23 183.834 112.99C183.794 112.93 183.754 112.9 183.714 112.9C183.634 112.9 183.534 112.97 183.414 113.11C183.294 113.27 183.154 113.47 182.994 113.71C182.834 113.93 182.614 114.21 182.334 114.55C181.954 115.01 181.494 115.41 180.954 115.75C180.414 116.11 179.914 116.29 179.454 116.29C178.874 116.29 178.374 116.02 177.954 115.48C177.534 114.94 177.324 114.19 177.324 113.23C177.324 112.75 177.354 112.29 177.414 111.85C177.474 111.39 177.544 110.96 177.624 110.56C177.704 110.16 177.754 109.74 177.774 109.3C177.794 108.86 177.814 108.38 177.834 107.86C177.834 107.7 177.834 107.55 177.834 107.41C177.854 107.27 177.864 107.15 177.864 107.05C177.864 107.01 177.854 106.98 177.834 106.96C177.814 106.94 177.794 106.91 177.774 106.87C177.754 106.83 177.744 106.78 177.744 106.72C177.744 106.66 177.734 106.59 177.714 106.51C177.714 106.45 177.714 106.4 177.714 106.36C177.734 106.3 177.744 106.24 177.744 106.18C177.784 105.9 177.904 105.67 178.104 105.49C178.304 105.29 178.524 105.19 178.764 105.19C179.044 105.19 179.304 105.28 179.544 105.46C179.804 105.64 180.014 105.87 180.174 106.15C180.314 106.37 180.404 106.6 180.444 106.84C180.504 107.06 180.534 107.28 180.534 107.5C180.534 107.7 180.524 107.85 180.504 107.95V108.28C180.504 108.44 180.494 108.62 180.474 108.82C180.474 109.02 180.464 109.23 180.444 109.45C180.424 109.65 180.404 109.85 180.384 110.05C180.364 110.23 180.344 110.37 180.324 110.47C180.284 110.63 180.234 110.83 180.174 111.07C180.134 111.31 180.084 111.55 180.024 111.79C179.984 112.01 179.944 112.21 179.904 112.39C179.864 112.57 179.844 112.69 179.844 112.75C179.844 112.91 179.874 113.02 179.934 113.08C180.014 113.14 180.104 113.18 180.204 113.2C180.384 113.2 180.654 113.07 181.014 112.81C181.394 112.53 181.774 112.17 182.154 111.73C182.554 111.29 182.914 110.79 183.234 110.23C183.574 109.65 183.814 109.07 183.954 108.49C184.114 107.85 184.274 107.42 184.434 107.2C184.594 106.96 184.754 106.84 184.914 106.84C185.314 106.84 185.694 107.01 186.054 107.35C186.434 107.69 186.624 108.19 186.624 108.85C186.624 109.19 186.584 109.54 186.504 109.9C186.444 110.26 186.394 110.57 186.354 110.83C186.314 111.05 186.284 111.28 186.264 111.52C186.244 111.76 186.234 112.02 186.234 112.3C186.234 112.46 186.234 112.63 186.234 112.81C186.254 112.99 186.294 113.12 186.354 113.2C186.394 113.2 186.474 113.18 186.594 113.14C186.774 113.06 186.994 113.02 187.254 113.02C187.394 113.02 187.574 113.09 187.794 113.23L187.944 113.38C187.984 113.42 188.024 113.48 188.064 113.56V114.04C188.044 114.24 187.994 114.45 187.914 114.67C187.834 114.87 187.714 115.06 187.554 115.24C187.414 115.42 187.214 115.57 186.954 115.69C186.714 115.81 186.424 115.87 186.084 115.87ZM73.2352 159.7C73.1952 159.8 73.1352 159.9 73.0552 160C72.9752 160.12 72.8752 160.23 72.7552 160.33C72.5952 160.45 72.4452 160.55 72.3052 160.63C72.1852 160.73 72.0352 160.78 71.8552 160.78C71.7152 160.78 71.5752 160.75 71.4352 160.69C71.2352 160.63 71.0952 160.49 71.0152 160.27C70.9352 160.07 70.8952 159.83 70.8952 159.55C70.8952 159.45 70.8952 159.35 70.8952 159.25C70.9152 159.15 70.9352 159.04 70.9552 158.92C70.9952 158.68 71.0452 158.4 71.1052 158.08C71.1652 157.74 71.2252 157.43 71.2852 157.15C71.3652 156.77 71.4352 156.47 71.4952 156.25C71.5552 156.03 71.5852 155.81 71.5852 155.59C71.5852 155.51 71.5652 155.47 71.5252 155.47C71.4452 155.47 71.3552 155.54 71.2552 155.68C71.1752 155.82 71.0352 156.02 70.8352 156.28C70.5352 156.68 70.2152 157.06 69.8752 157.42C69.5352 157.78 69.1052 158.19 68.5852 158.65C68.1052 159.07 67.5952 159.46 67.0552 159.82C66.5152 160.16 65.9252 160.33 65.2852 160.33C64.6852 160.33 64.2152 160.1 63.8752 159.64C63.5552 159.16 63.3952 158.62 63.3952 158.02C63.3952 157.82 63.4052 157.59 63.4252 157.33C63.4652 157.07 63.4952 156.8 63.5152 156.52C63.5552 156.24 63.5952 155.98 63.6352 155.74C63.6752 155.48 63.6952 155.27 63.6952 155.11C63.7352 154.85 63.7952 154.51 63.8752 154.09C63.9552 153.67 63.9952 153.32 63.9952 153.04L64.1452 152.02C64.1852 151.82 64.2052 151.64 64.2052 151.48C64.2252 151.3 64.2552 151.14 64.2952 151C64.3152 150.92 64.3252 150.85 64.3252 150.79C64.3252 150.71 64.3252 150.64 64.3252 150.58C64.3252 150.42 64.3652 150.33 64.4452 150.31C64.5652 150.21 64.7252 150.13 64.9252 150.07C65.0652 150.01 65.1952 149.99 65.3152 150.01C65.4352 150.01 65.5152 149.99 65.5552 149.95C65.7752 149.95 65.9852 150.09 66.1852 150.37C66.3852 150.65 66.5052 150.9 66.5452 151.12C66.5652 151.18 66.5752 151.27 66.5752 151.39C66.5752 151.49 66.5752 151.61 66.5752 151.75C66.5752 152.09 66.5552 152.42 66.5152 152.74C66.4752 153.06 66.4252 153.4 66.3652 153.76C66.3252 153.92 66.2752 154.12 66.2152 154.36C66.1752 154.6 66.1252 154.84 66.0652 155.08C66.0252 155.32 65.9852 155.54 65.9452 155.74C65.9252 155.92 65.9152 156.05 65.9152 156.13C65.9152 156.25 65.9352 156.36 65.9752 156.46C66.0352 156.54 66.1452 156.58 66.3052 156.58C66.4852 156.58 66.7552 156.45 67.1152 156.19C67.4752 155.93 67.8552 155.62 68.2552 155.26C68.6752 154.88 69.0752 154.49 69.4552 154.09C69.8552 153.67 70.1752 153.3 70.4152 152.98C70.7952 152.48 71.1052 152.07 71.3452 151.75C71.6052 151.43 71.8352 151.18 72.0352 151C72.2352 150.8 72.5352 150.7 72.9352 150.7C73.1352 150.7 73.3052 150.78 73.4452 150.94C73.6052 151.1 73.7352 151.26 73.8352 151.42C73.9952 151.68 74.0752 151.97 74.0752 152.29C74.0752 152.59 74.0952 152.9 74.1352 153.22C74.1352 153.3 74.1152 153.38 74.0752 153.46C74.0352 153.54 74.0152 153.62 74.0152 153.7C73.9952 153.92 73.9752 154.18 73.9552 154.48C73.9352 154.78 73.9152 155.11 73.8952 155.47C73.7952 156.55 73.6952 157.41 73.5952 158.05C73.5152 158.67 73.4052 159.18 73.2652 159.58L73.2352 159.7ZM106.909 159.85C106.809 160.63 106.379 161.02 105.619 161.02C105.559 161.02 105.499 161.02 105.439 161.02C105.379 161.04 105.319 161.05 105.259 161.05C105.199 161.05 105.139 161.01 105.079 160.93C104.999 160.93 104.909 160.91 104.809 160.87C104.729 160.83 104.659 160.81 104.599 160.81C104.559 160.77 104.529 160.73 104.509 160.69C104.489 160.65 104.459 160.61 104.419 160.57C104.259 160.47 104.129 160.3 104.029 160.06C103.969 159.98 103.919 159.9 103.879 159.82C103.839 159.72 103.799 159.63 103.759 159.55C103.659 159.33 103.589 159.14 103.549 158.98C103.509 158.8 103.469 158.61 103.429 158.41C103.409 158.21 103.399 157.99 103.399 157.75C103.399 157.51 103.399 157.21 103.399 156.85V156.58C103.379 156.5 103.329 156.45 103.249 156.43C103.169 156.39 103.109 156.37 103.069 156.37C103.029 156.37 102.899 156.46 102.679 156.64C102.479 156.8 102.209 157.03 101.869 157.33C101.549 157.61 101.189 157.93 100.789 158.29C100.389 158.65 99.9885 159.02 99.5885 159.4C99.4285 159.56 99.2385 159.75 99.0185 159.97C98.8185 160.17 98.5085 160.27 98.0885 160.27C97.9885 160.27 97.8185 160.24 97.5785 160.18C97.3585 160.12 97.2085 160.06 97.1285 160L97.0085 159.91C96.8885 159.67 96.7785 159.42 96.6785 159.16C96.5785 158.88 96.5085 158.45 96.4685 157.87C96.4485 157.69 96.4285 157.5 96.4085 157.3C96.4085 157.1 96.4085 156.89 96.4085 156.67C96.4085 156.57 96.4085 156.46 96.4085 156.34C96.4085 156.2 96.3885 156.08 96.3485 155.98C96.3085 155.88 96.2685 155.83 96.2285 155.83C96.0885 155.83 95.9885 155.84 95.9285 155.86C95.8285 155.9 95.7385 155.95 95.6585 156.01C95.5785 156.07 95.4585 156.18 95.2985 156.34C95.0585 156.56 94.7885 156.82 94.4885 157.12C94.1885 157.4 93.8485 157.73 93.4685 158.11C93.0485 158.53 92.6585 158.93 92.2985 159.31C91.9585 159.67 91.7185 159.96 91.5785 160.18C91.5385 160.26 91.4985 160.35 91.4585 160.45C91.4185 160.57 91.3885 160.66 91.3685 160.72C91.3285 160.8 91.2985 160.87 91.2785 160.93C91.2585 160.99 91.2285 161.04 91.1885 161.08C91.0885 161.18 90.9785 161.24 90.8585 161.26C90.7385 161.3 90.5985 161.32 90.4385 161.32C90.0985 161.32 89.7585 161.14 89.4185 160.78C89.0985 160.42 88.9385 159.95 88.9385 159.37C88.9385 159.09 88.9685 158.74 89.0285 158.32C89.0885 157.88 89.1585 157.44 89.2385 157C89.3185 156.54 89.3985 156.09 89.4785 155.65C89.5785 155.21 89.6585 154.84 89.7185 154.54C89.7785 154.26 89.8385 153.93 89.8985 153.55C89.9785 153.17 90.0485 152.8 90.1085 152.44C90.1885 152.08 90.2485 151.75 90.2885 151.45C90.3485 151.15 90.3785 150.94 90.3785 150.82C90.3785 150.66 90.3485 150.44 90.2885 150.16C90.3285 150.02 90.3785 149.92 90.4385 149.86C90.5585 149.72 90.6585 149.62 90.7385 149.56C90.8385 149.48 90.9585 149.44 91.0985 149.44C91.2785 149.44 91.4485 149.47 91.6085 149.53C91.9285 149.65 92.1785 149.86 92.3585 150.16C92.5385 150.46 92.6685 150.78 92.7485 151.12L92.7785 151.27C92.7385 151.39 92.7185 151.47 92.7185 151.51V151.63C92.7185 151.65 92.7285 151.67 92.7485 151.69C92.7485 152.13 92.7085 152.54 92.6285 152.92C92.5485 153.3 92.4385 153.75 92.2985 154.27C92.2585 154.47 92.2085 154.69 92.1485 154.93C92.1085 155.15 92.0885 155.31 92.0885 155.41C92.0885 155.51 92.1385 155.56 92.2385 155.56C92.3385 155.56 92.4285 155.52 92.5085 155.44C92.5885 155.36 92.6585 155.29 92.7185 155.23C93.2385 154.59 93.7685 153.99 94.3085 153.43C94.8485 152.85 95.3885 152.31 95.9285 151.81C96.1285 151.63 96.2885 151.51 96.4085 151.45C96.5285 151.37 96.6685 151.33 96.8285 151.33C97.3085 151.33 97.7185 151.47 98.0585 151.75C98.3985 152.01 98.6085 152.24 98.6885 152.44C98.7885 152.72 98.8585 152.95 98.8985 153.13C98.9385 153.31 98.9585 153.49 98.9585 153.67C98.9585 153.95 98.9485 154.27 98.9285 154.63C98.9285 154.97 98.9285 155.26 98.9285 155.5C98.9285 155.7 98.9585 155.84 99.0185 155.92C99.0985 155.98 99.1885 156.01 99.2885 156.01C99.3085 156.01 99.3785 155.97 99.4985 155.89C99.6185 155.79 99.7485 155.68 99.8885 155.56C100.049 155.44 100.209 155.31 100.369 155.17C100.549 155.03 100.699 154.9 100.819 154.78C101.359 154.32 101.859 153.89 102.319 153.49C102.799 153.09 103.149 152.8 103.369 152.62C103.549 152.46 103.699 152.36 103.819 152.32C103.939 152.26 104.099 152.23 104.299 152.23C104.479 152.23 104.659 152.31 104.839 152.47C105.039 152.63 105.219 152.82 105.379 153.04C105.539 153.26 105.669 153.49 105.769 153.73C105.869 153.97 105.919 154.18 105.919 154.36C105.919 154.68 105.899 155.04 105.859 155.44C105.819 155.84 105.799 156.22 105.799 156.58C105.799 156.72 105.809 156.93 105.829 157.21C105.869 157.47 105.909 157.63 105.949 157.69C105.969 157.91 106.039 158.12 106.159 158.32C106.279 158.5 106.419 158.7 106.579 158.92L106.789 159.16L106.909 159.25C106.889 159.25 106.879 159.26 106.879 159.28V159.34C106.879 159.38 106.879 159.41 106.879 159.43C106.899 159.43 106.909 159.45 106.909 159.49V159.85ZM109.706 173.26C109.566 172.98 109.466 172.69 109.406 172.39C109.366 172.09 109.346 171.69 109.346 171.19C109.346 170.67 109.376 170.1 109.436 169.48C109.496 168.86 109.556 168.13 109.616 167.29C109.636 166.95 109.666 166.52 109.706 166C109.766 165.48 109.846 164.91 109.946 164.29C109.826 164.29 109.706 164.24 109.586 164.14C109.486 164.06 109.406 163.97 109.346 163.87C109.206 163.59 109.136 163.34 109.136 163.12C109.136 162.9 109.156 162.71 109.196 162.55C109.236 162.39 109.306 162.21 109.406 162.01C109.406 161.87 109.446 161.71 109.526 161.53C109.606 161.37 109.706 161.2 109.826 161.02L110.576 160L110.846 158.41C111.006 157.53 111.216 156.52 111.476 155.38C111.756 154.24 112.096 153.05 112.496 151.81C112.636 151.39 112.816 150.95 113.036 150.49C113.256 150.01 113.506 149.57 113.786 149.17C114.066 148.77 114.366 148.44 114.686 148.18C115.026 147.92 115.376 147.79 115.736 147.79C116.156 147.79 116.526 147.9 116.846 148.12C117.166 148.34 117.436 148.63 117.656 148.99C117.896 149.33 118.076 149.71 118.196 150.13C118.316 150.55 118.376 150.95 118.376 151.33C118.376 151.93 118.286 152.53 118.106 153.13C117.946 153.73 117.736 154.31 117.476 154.87C117.216 155.41 116.936 155.92 116.636 156.4C116.336 156.86 116.056 157.27 115.796 157.63L112.556 161.89C112.536 161.95 112.526 162.03 112.526 162.13C112.466 162.55 112.406 163 112.346 163.48C112.306 163.98 112.256 164.45 112.196 164.89C112.156 165.33 112.116 165.71 112.076 166.03C112.056 166.37 112.046 166.6 112.046 166.72C111.946 167.84 111.876 168.77 111.836 169.51C111.816 170.27 111.806 170.87 111.806 171.31C111.806 171.45 111.786 171.61 111.746 171.79C111.706 171.99 111.656 172.18 111.596 172.36C111.536 172.54 111.466 172.71 111.386 172.87C111.326 173.05 111.266 173.19 111.206 173.29C111.066 173.51 110.936 173.65 110.816 173.71C110.696 173.79 110.606 173.83 110.546 173.83C110.366 173.83 110.216 173.79 110.096 173.71C109.996 173.63 109.866 173.48 109.706 173.26ZM113.576 156.76C113.896 156.34 114.206 155.89 114.506 155.41C114.806 154.93 115.066 154.45 115.286 153.97C115.526 153.49 115.706 153.03 115.826 152.59C115.966 152.13 116.036 151.73 116.036 151.39C116.036 151.03 115.916 150.85 115.676 150.85C115.536 150.85 115.396 150.97 115.256 151.21C115.136 151.43 115.006 151.73 114.866 152.11C114.746 152.45 114.626 152.82 114.506 153.22C114.386 153.6 114.266 153.98 114.146 154.36C114.046 154.72 113.956 155.07 113.876 155.41C113.796 155.73 113.736 155.99 113.696 156.19L113.576 156.76ZM128.701 158.95C128.681 159.05 128.671 159.14 128.671 159.22C128.671 159.28 128.671 159.35 128.671 159.43C128.671 159.53 128.661 159.62 128.641 159.7C128.641 159.76 128.641 159.83 128.641 159.91C128.641 159.95 128.631 159.99 128.611 160.03C128.611 160.09 128.611 160.14 128.611 160.18C128.611 160.26 128.621 160.32 128.641 160.36C128.681 160.42 128.701 160.49 128.701 160.57C128.701 160.65 128.671 160.75 128.611 160.87C128.551 160.99 128.511 161.09 128.491 161.17C128.471 161.25 128.431 161.35 128.371 161.47C128.311 161.55 128.251 161.59 128.191 161.59C128.151 161.61 128.081 161.67 127.981 161.77C127.921 161.85 127.821 161.89 127.681 161.89C127.601 161.89 127.521 161.87 127.441 161.83C127.401 161.79 127.341 161.76 127.261 161.74C127.181 161.72 127.111 161.68 127.051 161.62C126.971 161.56 126.891 161.47 126.811 161.35C126.771 161.27 126.691 161.15 126.571 160.99C126.511 160.91 126.441 160.77 126.361 160.57C126.241 160.27 126.181 159.95 126.181 159.61C126.181 159.51 126.181 159.39 126.181 159.25C126.181 159.11 126.191 158.99 126.211 158.89C126.211 158.77 126.221 158.64 126.241 158.5C126.081 158.7 125.891 158.93 125.671 159.19C125.451 159.43 125.201 159.66 124.921 159.88C124.641 160.1 124.321 160.28 123.961 160.42C123.621 160.58 123.241 160.66 122.821 160.66C122.461 160.66 122.131 160.57 121.831 160.39C121.531 160.23 121.271 160.01 121.051 159.73C120.851 159.45 120.691 159.12 120.571 158.74C120.451 158.36 120.391 157.97 120.391 157.57C120.391 156.95 120.471 156.36 120.631 155.8C120.811 155.24 121.051 154.7 121.351 154.18L121.681 153.7C121.701 153.66 121.781 153.57 121.921 153.43C122.061 153.27 122.211 153.1 122.371 152.92C122.531 152.74 122.701 152.57 122.881 152.41C123.061 152.25 123.211 152.12 123.331 152.02L123.811 151.66C124.111 151.48 124.451 151.29 124.831 151.09C125.131 150.95 125.361 150.87 125.521 150.85C125.701 150.81 125.881 150.79 126.061 150.79C126.481 150.79 126.891 150.87 127.291 151.03C127.711 151.19 128.071 151.39 128.371 151.63C128.411 152.01 128.431 152.42 128.431 152.86C128.451 153.3 128.471 153.72 128.491 154.12C128.531 154.82 128.571 155.52 128.611 156.22C128.671 156.92 128.701 157.65 128.701 158.41V158.95ZM125.791 153.4C125.291 153.5 124.821 153.72 124.381 154.06C123.961 154.4 123.621 154.77 123.361 155.17C123.161 155.47 123.001 155.79 122.881 156.13C122.781 156.45 122.731 156.81 122.731 157.21C122.731 157.43 122.781 157.61 122.881 157.75C122.981 157.87 123.121 157.93 123.301 157.93C123.561 157.93 123.821 157.86 124.081 157.72C124.361 157.56 124.611 157.38 124.831 157.18C125.051 156.96 125.241 156.74 125.401 156.52C125.581 156.28 125.701 156.08 125.761 155.92C125.841 155.74 125.921 155.56 126.001 155.38C126.081 155.2 126.151 154.91 126.211 154.51C126.231 154.41 126.241 154.26 126.241 154.06C126.261 153.86 126.271 153.68 126.271 153.52C126.151 153.44 125.991 153.4 125.791 153.4ZM136.166 161.08C135.466 161.08 134.856 160.95 134.336 160.69C133.836 160.45 133.416 160.11 133.076 159.67C132.756 159.21 132.516 158.67 132.356 158.05C132.216 157.43 132.146 156.75 132.146 156.01C132.146 154.99 132.246 153.94 132.446 152.86C132.666 151.76 133.066 150.8 133.646 149.98C133.726 149.88 133.836 149.77 133.976 149.65C134.116 149.51 134.236 149.43 134.336 149.41C134.336 149.23 134.436 149.07 134.636 148.93C134.736 148.85 134.856 148.77 134.996 148.69C135.136 148.61 135.266 148.55 135.386 148.51C135.926 148.29 136.506 148.18 137.126 148.18C137.506 148.18 137.856 148.24 138.176 148.36C138.496 148.46 138.766 148.58 138.986 148.72C139.246 148.88 139.486 149.05 139.706 149.23C139.646 148.77 139.576 148.36 139.496 148C139.436 147.62 139.356 147.28 139.256 146.98C139.216 146.88 139.176 146.82 139.136 146.8C139.116 146.78 139.106 146.72 139.106 146.62C139.106 146.56 139.126 146.51 139.166 146.47C139.146 146.43 139.116 146.41 139.076 146.41C139.036 146.39 139.006 146.36 138.986 146.32C138.706 145.8 138.326 145.42 137.846 145.18C137.386 144.92 136.756 144.72 135.956 144.58C135.276 144.46 134.776 144.37 134.456 144.31C134.136 144.23 133.976 144.01 133.976 143.65C133.976 143.61 133.946 143.55 133.886 143.47C133.846 143.37 133.826 143.29 133.826 143.23C133.826 143.05 133.846 142.95 133.886 142.93C133.946 142.89 133.976 142.82 133.976 142.72C133.976 142.68 133.986 142.62 134.006 142.54C134.046 142.46 134.086 142.4 134.126 142.36C134.226 142.26 134.266 142.17 134.246 142.09C134.226 142.01 134.256 141.93 134.336 141.85C134.496 141.73 134.686 141.66 134.906 141.64C135.146 141.62 135.366 141.61 135.566 141.61C136.546 141.61 137.406 141.77 138.146 142.09C138.886 142.41 139.516 142.86 140.036 143.44C140.136 143.54 140.196 143.65 140.216 143.77C140.236 143.89 140.306 144 140.426 144.1C140.506 144.16 140.566 144.23 140.606 144.31C140.646 144.39 140.716 144.47 140.816 144.55C140.896 144.61 140.956 144.69 140.996 144.79C141.036 144.87 141.076 144.96 141.116 145.06C141.456 145.74 141.696 146.49 141.836 147.31C141.996 148.11 142.076 148.95 142.076 149.83C142.076 150.45 142.056 151.13 142.016 151.87C141.996 152.59 141.936 153.33 141.836 154.09C141.756 154.83 141.616 155.57 141.416 156.31C141.216 157.03 140.956 157.69 140.636 158.29C140.556 158.45 140.456 158.53 140.336 158.53C140.276 158.59 140.246 158.64 140.246 158.68C140.246 158.72 140.246 158.75 140.246 158.77C140.266 158.77 140.276 158.78 140.276 158.8C140.216 158.9 140.106 158.95 139.946 158.95C139.966 158.99 139.986 159.02 140.006 159.04C140.046 159.06 140.066 159.09 140.066 159.13C140.066 159.19 140.046 159.24 140.006 159.28C139.966 159.32 139.926 159.36 139.886 159.4C139.766 159.54 139.606 159.68 139.406 159.82C139.226 159.94 139.056 160.05 138.896 160.15C138.736 160.25 138.606 160.34 138.506 160.42C138.426 160.52 138.296 160.61 138.116 160.69C137.836 160.81 137.536 160.9 137.216 160.96C136.896 161.04 136.546 161.08 136.166 161.08ZM136.586 158.71C136.966 158.71 137.296 158.61 137.576 158.41C137.876 158.21 138.126 157.95 138.326 157.63C138.546 157.31 138.726 156.95 138.866 156.55C139.006 156.13 139.126 155.71 139.226 155.29C139.446 154.29 139.566 153.15 139.586 151.87C139.426 151.47 139.126 151.15 138.686 150.91C138.266 150.65 137.766 150.52 137.186 150.52C136.646 150.52 136.206 150.7 135.866 151.06C135.526 151.42 135.256 151.87 135.056 152.41C134.876 152.95 134.746 153.53 134.666 154.15C134.586 154.77 134.546 155.33 134.546 155.83C134.546 156.09 134.556 156.34 134.576 156.58C134.596 156.8 134.636 157.01 134.696 157.21C134.736 157.29 134.786 157.35 134.846 157.39C134.906 157.43 134.956 157.48 134.996 157.54C135.036 157.62 135.056 157.69 135.056 157.75C135.076 157.81 135.106 157.86 135.146 157.9C135.186 157.92 135.226 157.96 135.266 158.02C135.306 158.06 135.336 158.1 135.356 158.14C135.416 158.18 135.476 158.23 135.536 158.29C135.616 158.35 135.696 158.4 135.776 158.44C135.876 158.48 135.976 158.53 136.076 158.59C136.176 158.65 136.266 158.69 136.346 158.71H136.586ZM153.593 160.87C153.173 160.87 152.823 160.76 152.543 160.54C152.263 160.34 152.033 160.09 151.853 159.79C151.693 159.49 151.573 159.18 151.493 158.86C151.413 158.52 151.363 158.23 151.343 157.99C151.303 157.93 151.263 157.9 151.223 157.9C151.143 157.9 151.043 157.97 150.923 158.11C150.803 158.27 150.663 158.47 150.503 158.71C150.343 158.93 150.123 159.21 149.843 159.55C149.463 160.01 149.003 160.41 148.463 160.75C147.923 161.11 147.423 161.29 146.963 161.29C146.383 161.29 145.883 161.02 145.463 160.48C145.043 159.94 144.833 159.19 144.833 158.23C144.833 157.75 144.863 157.29 144.923 156.85C144.983 156.39 145.053 155.96 145.133 155.56C145.213 155.16 145.263 154.74 145.283 154.3C145.303 153.86 145.323 153.38 145.343 152.86C145.343 152.7 145.343 152.55 145.343 152.41C145.363 152.27 145.373 152.15 145.373 152.05C145.373 152.01 145.363 151.98 145.343 151.96C145.323 151.94 145.303 151.91 145.283 151.87C145.263 151.83 145.253 151.78 145.253 151.72C145.253 151.66 145.243 151.59 145.223 151.51C145.223 151.45 145.223 151.4 145.223 151.36C145.243 151.3 145.253 151.24 145.253 151.18C145.293 150.9 145.413 150.67 145.613 150.49C145.813 150.29 146.033 150.19 146.273 150.19C146.553 150.19 146.813 150.28 147.053 150.46C147.313 150.64 147.523 150.87 147.683 151.15C147.823 151.37 147.913 151.6 147.953 151.84C148.013 152.06 148.043 152.28 148.043 152.5C148.043 152.7 148.033 152.85 148.013 152.95V153.28C148.013 153.44 148.003 153.62 147.983 153.82C147.983 154.02 147.973 154.23 147.953 154.45C147.933 154.65 147.913 154.85 147.893 155.05C147.873 155.23 147.853 155.37 147.833 155.47C147.793 155.63 147.743 155.83 147.683 156.07C147.643 156.31 147.593 156.55 147.533 156.79C147.493 157.01 147.453 157.21 147.413 157.39C147.373 157.57 147.353 157.69 147.353 157.75C147.353 157.91 147.383 158.02 147.443 158.08C147.523 158.14 147.613 158.18 147.713 158.2C147.893 158.2 148.163 158.07 148.523 157.81C148.903 157.53 149.283 157.17 149.663 156.73C150.063 156.29 150.423 155.79 150.743 155.23C151.083 154.65 151.323 154.07 151.463 153.49C151.623 152.85 151.783 152.42 151.943 152.2C152.103 151.96 152.263 151.84 152.423 151.84C152.823 151.84 153.203 152.01 153.563 152.35C153.943 152.69 154.133 153.19 154.133 153.85C154.133 154.19 154.093 154.54 154.013 154.9C153.953 155.26 153.903 155.57 153.863 155.83C153.823 156.05 153.793 156.28 153.773 156.52C153.753 156.76 153.743 157.02 153.743 157.3C153.743 157.46 153.743 157.63 153.743 157.81C153.763 157.99 153.803 158.12 153.863 158.2C153.903 158.2 153.983 158.18 154.103 158.14C154.283 158.06 154.503 158.02 154.763 158.02C154.903 158.02 155.083 158.09 155.303 158.23L155.453 158.38C155.493 158.42 155.533 158.48 155.573 158.56V159.04C155.553 159.24 155.503 159.45 155.423 159.67C155.343 159.87 155.223 160.06 155.063 160.24C154.923 160.42 154.723 160.57 154.463 160.69C154.223 160.81 153.933 160.87 153.593 160.87ZM168.901 165.55C168.761 165.55 168.611 165.53 168.451 165.49C168.371 165.47 168.291 165.46 168.211 165.46C168.131 165.48 168.061 165.47 168.001 165.43C167.941 165.39 167.891 165.35 167.851 165.31C167.811 165.29 167.771 165.24 167.731 165.16C167.691 165.06 167.661 164.94 167.641 164.8C167.641 164.66 167.641 164.52 167.641 164.38C167.641 163.92 167.691 163.37 167.791 162.73C167.911 162.09 168.011 161.43 168.091 160.75C167.951 160.77 167.821 160.78 167.701 160.78H167.101C166.401 160.78 166.051 160.37 166.051 159.55C166.051 159.45 166.051 159.35 166.051 159.25C166.071 159.15 166.091 159.04 166.111 158.92C166.151 158.68 166.201 158.4 166.261 158.08C166.321 157.74 166.381 157.43 166.441 157.15C166.521 156.77 166.591 156.47 166.651 156.25C166.711 156.03 166.741 155.81 166.741 155.59C166.741 155.51 166.721 155.47 166.681 155.47C166.601 155.47 166.511 155.54 166.411 155.68C166.331 155.82 166.191 156.02 165.991 156.28C165.691 156.68 165.371 157.06 165.031 157.42C164.691 157.78 164.261 158.19 163.741 158.65C163.261 159.07 162.751 159.46 162.211 159.82C161.671 160.16 161.081 160.33 160.441 160.33C159.841 160.33 159.371 160.1 159.031 159.64C158.711 159.16 158.551 158.62 158.551 158.02C158.551 157.82 158.561 157.59 158.581 157.33C158.621 157.07 158.651 156.8 158.671 156.52C158.711 156.24 158.751 155.98 158.791 155.74C158.831 155.48 158.851 155.27 158.851 155.11C158.891 154.85 158.951 154.51 159.031 154.09C159.111 153.67 159.151 153.32 159.151 153.04L159.301 152.02C159.341 151.82 159.361 151.64 159.361 151.48C159.381 151.3 159.411 151.14 159.451 151C159.471 150.92 159.481 150.85 159.481 150.79C159.481 150.71 159.481 150.64 159.481 150.58C159.481 150.42 159.521 150.33 159.601 150.31C159.721 150.21 159.881 150.13 160.081 150.07C160.221 150.01 160.351 149.99 160.471 150.01C160.591 150.01 160.671 149.99 160.711 149.95C160.931 149.95 161.141 150.09 161.341 150.37C161.541 150.65 161.661 150.9 161.701 151.12C161.721 151.18 161.731 151.27 161.731 151.39C161.731 151.49 161.731 151.61 161.731 151.75C161.731 152.09 161.711 152.42 161.671 152.74C161.631 153.06 161.581 153.4 161.521 153.76C161.481 153.92 161.431 154.12 161.371 154.36C161.331 154.6 161.281 154.84 161.221 155.08C161.181 155.32 161.141 155.54 161.101 155.74C161.081 155.92 161.071 156.05 161.071 156.13C161.071 156.25 161.091 156.36 161.131 156.46C161.191 156.54 161.301 156.58 161.461 156.58C161.641 156.58 161.911 156.45 162.271 156.19C162.631 155.93 163.011 155.62 163.411 155.26C163.831 154.88 164.231 154.49 164.611 154.09C165.011 153.67 165.331 153.3 165.571 152.98C165.951 152.48 166.261 152.07 166.501 151.75C166.761 151.43 166.991 151.18 167.191 151C167.391 150.8 167.691 150.7 168.091 150.7C168.291 150.7 168.461 150.78 168.601 150.94C168.761 151.1 168.891 151.26 168.991 151.42C169.151 151.68 169.231 151.97 169.231 152.29C169.231 152.59 169.251 152.9 169.291 153.22C169.291 153.3 169.271 153.38 169.231 153.46C169.191 153.54 169.171 153.62 169.171 153.7C169.151 153.92 169.141 154.18 169.141 154.48C169.141 154.78 169.121 155.11 169.081 155.47C169.041 156.13 168.981 156.7 168.901 157.18C168.821 157.66 168.751 158.08 168.691 158.44H168.991C169.091 158.44 169.191 158.44 169.291 158.44C169.391 158.42 169.501 158.41 169.621 158.41C169.961 158.41 170.201 158.49 170.341 158.65C170.481 158.79 170.551 158.99 170.551 159.25L170.371 162.19C170.331 162.79 170.271 163.32 170.191 163.78C170.111 164.26 169.991 164.65 169.831 164.95C169.771 165.05 169.721 165.14 169.681 165.22C169.661 165.32 169.591 165.39 169.471 165.43C169.371 165.45 169.271 165.47 169.171 165.49C169.091 165.53 169.001 165.55 168.901 165.55ZM182.07 160.87C181.65 160.87 181.3 160.76 181.02 160.54C180.74 160.34 180.51 160.09 180.33 159.79C180.17 159.49 180.05 159.18 179.97 158.86C179.89 158.52 179.84 158.23 179.82 157.99C179.78 157.93 179.74 157.9 179.7 157.9C179.62 157.9 179.52 157.97 179.4 158.11C179.28 158.27 179.14 158.47 178.98 158.71C178.82 158.93 178.6 159.21 178.32 159.55C177.94 160.01 177.48 160.41 176.94 160.75C176.4 161.11 175.9 161.29 175.44 161.29C174.86 161.29 174.36 161.02 173.94 160.48C173.52 159.94 173.31 159.19 173.31 158.23C173.31 157.75 173.34 157.29 173.4 156.85C173.46 156.39 173.53 155.96 173.61 155.56C173.69 155.16 173.74 154.74 173.76 154.3C173.78 153.86 173.8 153.38 173.82 152.86C173.82 152.7 173.82 152.55 173.82 152.41C173.84 152.27 173.85 152.15 173.85 152.05C173.85 152.01 173.84 151.98 173.82 151.96C173.8 151.94 173.78 151.91 173.76 151.87C173.74 151.83 173.73 151.78 173.73 151.72C173.73 151.66 173.72 151.59 173.7 151.51C173.7 151.45 173.7 151.4 173.7 151.36C173.72 151.3 173.73 151.24 173.73 151.18C173.77 150.9 173.89 150.67 174.09 150.49C174.29 150.29 174.51 150.19 174.75 150.19C175.03 150.19 175.29 150.28 175.53 150.46C175.79 150.64 176 150.87 176.16 151.15C176.3 151.37 176.39 151.6 176.43 151.84C176.49 152.06 176.52 152.28 176.52 152.5C176.52 152.7 176.51 152.85 176.49 152.95V153.28C176.49 153.44 176.48 153.62 176.46 153.82C176.46 154.02 176.45 154.23 176.43 154.45C176.41 154.65 176.39 154.85 176.37 155.05C176.35 155.23 176.33 155.37 176.31 155.47C176.27 155.63 176.22 155.83 176.16 156.07C176.12 156.31 176.07 156.55 176.01 156.79C175.97 157.01 175.93 157.21 175.89 157.39C175.85 157.57 175.83 157.69 175.83 157.75C175.83 157.91 175.86 158.02 175.92 158.08C176 158.14 176.09 158.18 176.19 158.2C176.37 158.2 176.64 158.07 177 157.81C177.38 157.53 177.76 157.17 178.14 156.73C178.54 156.29 178.9 155.79 179.22 155.23C179.56 154.65 179.8 154.07 179.94 153.49C180.1 152.85 180.26 152.42 180.42 152.2C180.58 151.96 180.74 151.84 180.9 151.84C181.3 151.84 181.68 152.01 182.04 152.35C182.42 152.69 182.61 153.19 182.61 153.85C182.61 154.19 182.57 154.54 182.49 154.9C182.43 155.26 182.38 155.57 182.34 155.83C182.3 156.05 182.27 156.28 182.25 156.52C182.23 156.76 182.22 157.02 182.22 157.3C182.22 157.46 182.22 157.63 182.22 157.81C182.24 157.99 182.28 158.12 182.34 158.2C182.38 158.2 182.46 158.18 182.58 158.14C182.76 158.06 182.98 158.02 183.24 158.02C183.38 158.02 183.56 158.09 183.78 158.23L183.93 158.38C183.97 158.42 184.01 158.48 184.05 158.56V159.04C184.03 159.24 183.98 159.45 183.9 159.67C183.82 159.87 183.7 160.06 183.54 160.24C183.4 160.42 183.2 160.57 182.94 160.69C182.7 160.81 182.41 160.87 182.07 160.87ZM196.868 159.7C196.828 159.8 196.768 159.9 196.688 160C196.608 160.12 196.508 160.23 196.388 160.33C196.228 160.45 196.078 160.55 195.938 160.63C195.818 160.73 195.668 160.78 195.488 160.78C195.348 160.78 195.208 160.75 195.068 160.69C194.868 160.63 194.728 160.49 194.648 160.27C194.568 160.07 194.528 159.83 194.528 159.55C194.528 159.45 194.528 159.35 194.528 159.25C194.548 159.15 194.568 159.04 194.588 158.92C194.628 158.68 194.678 158.4 194.738 158.08C194.798 157.74 194.858 157.43 194.918 157.15C194.998 156.77 195.068 156.47 195.128 156.25C195.188 156.03 195.218 155.81 195.218 155.59C195.218 155.51 195.198 155.47 195.158 155.47C195.078 155.47 194.988 155.54 194.888 155.68C194.808 155.82 194.668 156.02 194.468 156.28C194.168 156.68 193.848 157.06 193.508 157.42C193.168 157.78 192.738 158.19 192.218 158.65C191.738 159.07 191.228 159.46 190.688 159.82C190.148 160.16 189.558 160.33 188.918 160.33C188.318 160.33 187.848 160.1 187.508 159.64C187.188 159.16 187.028 158.62 187.028 158.02C187.028 157.82 187.038 157.59 187.058 157.33C187.098 157.07 187.128 156.8 187.148 156.52C187.188 156.24 187.228 155.98 187.268 155.74C187.308 155.48 187.328 155.27 187.328 155.11C187.368 154.85 187.428 154.51 187.508 154.09C187.588 153.67 187.628 153.32 187.628 153.04L187.778 152.02C187.818 151.82 187.838 151.64 187.838 151.48C187.858 151.3 187.888 151.14 187.928 151C187.948 150.92 187.958 150.85 187.958 150.79C187.958 150.71 187.958 150.64 187.958 150.58C187.958 150.42 187.998 150.33 188.078 150.31C188.198 150.21 188.358 150.13 188.558 150.07C188.698 150.01 188.828 149.99 188.948 150.01C189.068 150.01 189.148 149.99 189.188 149.95C189.408 149.95 189.618 150.09 189.818 150.37C190.018 150.65 190.138 150.9 190.178 151.12C190.198 151.18 190.208 151.27 190.208 151.39C190.208 151.49 190.208 151.61 190.208 151.75C190.208 152.09 190.188 152.42 190.148 152.74C190.108 153.06 190.058 153.4 189.998 153.76C189.958 153.92 189.908 154.12 189.848 154.36C189.808 154.6 189.758 154.84 189.698 155.08C189.658 155.32 189.618 155.54 189.578 155.74C189.558 155.92 189.548 156.05 189.548 156.13C189.548 156.25 189.568 156.36 189.608 156.46C189.668 156.54 189.778 156.58 189.938 156.58C190.118 156.58 190.388 156.45 190.748 156.19C191.108 155.93 191.488 155.62 191.888 155.26C192.308 154.88 192.708 154.49 193.088 154.09C193.488 153.67 193.808 153.3 194.048 152.98C194.428 152.48 194.738 152.07 194.978 151.75C195.238 151.43 195.468 151.18 195.668 151C195.868 150.8 196.168 150.7 196.568 150.7C196.768 150.7 196.938 150.78 197.078 150.94C197.238 151.1 197.368 151.26 197.468 151.42C197.628 151.68 197.708 151.97 197.708 152.29C197.708 152.59 197.728 152.9 197.768 153.22C197.768 153.3 197.748 153.38 197.708 153.46C197.668 153.54 197.648 153.62 197.648 153.7C197.628 153.92 197.608 154.18 197.588 154.48C197.568 154.78 197.548 155.11 197.528 155.47C197.428 156.55 197.328 157.41 197.228 158.05C197.148 158.67 197.038 159.18 196.898 159.58L196.868 159.7Z" fill="white"/>
<defs>
<radialGradient id="paint0_radial" cx="0" cy="0" r="1" gradientUnits="userSpaceOnUse" gradientTransform="translate(131.805 102.264) rotate(18.1246) scale(124.383 95.6231)">
<stop stop-color="#407B9A"/>
<stop offset="0.6453" stop-color="#3682A1"/>
<stop offset="0.9413" stop-color="#C6DDEE"/>
<stop offset="1" stop-color="white"/>
</radialGradient>
<linearGradient id="paint1_linear" x1="164.894" y1="31.9171" x2="155.341" y2="68.7574" gradientUnits="userSpaceOnUse">
<stop stop-color="white"/>
<stop offset="0.4749" stop-color="#D4EFFD" stop-opacity="0.5"/>
<stop offset="1" stop-color="#3699D6" stop-opacity="0"/>
</linearGradient>
</defs>
</svg>
