<svg width="184" height="191" viewBox="0 0 184 191" fill="none" xmlns="http://www.w3.org/2000/svg">
<path opacity="0.47" d="M4.21247 97.3002C-0.895939 125.604 -0.814814 162.785 22.7001 175.094C45.8095 187.237 61.8644 192.68 87.893 185.646C103.705 181.375 112.543 178.109 125.517 166.553C149.194 145.283 155.438 138.165 171.168 109.359C178.06 96.714 182.601 81.2221 181.628 70.001C180.898 61.7945 173.844 48.8149 168.736 41.4458C148.383 12.1369 94.6231 -0.507913 72.73 1.92054C24.9704 7.53111 14.8347 39.0173 4.21247 97.3002Z" fill="url(#paint0_radial)" stroke="white" stroke-width="2.9388" stroke-miterlimit="10"/>
<path opacity="0.4" d="M122.193 38.2638C124.544 39.1011 136.14 46.6377 139.626 51.1596C142.14 54.5092 153.006 67.74 152.843 78.3749C152.843 86.4138 153.573 89.9309 145.789 97.0488C144.978 97.8024 139.626 100.231 138.248 97.2999C136.302 92.0243 133.383 79.5473 123.004 66.0652C120.409 62.7157 111.895 54.5929 108.246 51.9133C106.543 50.6572 100.462 45.6329 100.381 43.8743C99.4078 35.4167 117.895 36.5052 122.193 38.2638Z" fill="url(#paint1_linear)"/>
<g opacity="0.5">
<path d="M36.2 66.6166C36.14 66.6366 35.98 66.6466 35.72 66.6466C35.48 66.6466 35.33 66.6466 35.27 66.6466C35.23 67.0466 35.18 67.4866 35.12 67.9666C35.08 68.4466 35.04 68.8966 35 69.3166C34.96 69.6166 34.91 70.0266 34.85 70.5466C34.81 71.0666 34.76 71.6366 34.7 72.2566C34.64 72.8566 34.57 73.4766 34.49 74.1166C34.43 74.7366 34.37 75.3166 34.31 75.8566C34.29 76.0766 34.26 76.3366 34.22 76.6366C34.2 76.9166 34.18 77.2166 34.16 77.5366C34.14 77.8366 34.12 78.1466 34.1 78.4666C34.1 78.7666 34.1 79.0466 34.1 79.3066C34.1 79.4266 34.1 79.5366 34.1 79.6366C34.12 79.7366 34.13 79.8366 34.13 79.9366L34.19 81.4066C34.17 81.9066 34.12 82.3166 34.04 82.6366C33.96 82.9766 33.76 83.1966 33.44 83.2966L32.84 83.5066L32.51 83.3866L32.18 83.2066L31.85 82.6966C31.79 82.6366 31.76 82.5766 31.76 82.5166C31.76 82.4766 31.76 82.4366 31.76 82.3966C31.78 82.3566 31.79 82.3166 31.79 82.2766C31.79 82.2366 31.77 82.1966 31.73 82.1566C31.63 82.0766 31.58 81.9966 31.58 81.9166C31.58 81.8566 31.57 81.7466 31.55 81.5866C31.53 81.5666 31.52 81.5166 31.52 81.4366C31.52 81.3966 31.52 81.3666 31.52 81.3466C31.54 81.3466 31.55 81.3366 31.55 81.3166C31.55 81.2766 31.54 81.2466 31.52 81.2266C31.52 81.2266 31.52 81.2166 31.52 81.1966C31.52 81.1566 31.53 81.1166 31.55 81.0766C31.55 81.0566 31.56 81.0266 31.58 80.9866C31.6 80.3666 31.62 79.7566 31.64 79.1566C31.68 78.5566 31.72 77.8566 31.76 77.0566C31.82 76.2566 31.89 75.3166 31.97 74.2366C32.07 73.1366 32.2 71.7866 32.36 70.1866C32.4 69.8266 32.45 69.3166 32.51 68.6566C32.59 67.9966 32.63 67.3566 32.63 66.7366C31.97 66.7766 31.3 66.8166 30.62 66.8566C29.96 66.8766 29.51 66.8866 29.27 66.8866C29.03 66.9066 28.74 66.9166 28.4 66.9166C28.08 66.9166 27.76 66.9166 27.44 66.9166C27.12 66.9166 26.82 66.9266 26.54 66.9466C26.26 66.9466 26.04 66.9566 25.88 66.9766L25.7 68.8066C25.68 69.0666 25.65 69.2466 25.61 69.3466C25.59 69.4466 25.58 69.5466 25.58 69.6466C25.58 69.7866 25.58 69.9366 25.58 70.0966C25.6 70.2566 25.61 70.4266 25.61 70.6066C25.61 70.7066 25.61 70.7966 25.61 70.8766C25.61 70.9566 25.6 71.0466 25.58 71.1466C25.56 71.2066 25.53 71.2766 25.49 71.3566C25.47 71.4366 25.45 71.5366 25.43 71.6566L25.37 72.3766C25.31 73.0166 25.27 73.5466 25.25 73.9666C25.23 74.3666 25.21 74.7466 25.19 75.1066C25.17 75.5266 25.15 75.8666 25.13 76.1266C25.13 76.3666 25.13 76.5966 25.13 76.8166C25.13 77.0366 25.13 77.2466 25.13 77.4466C25.13 77.6466 25.12 77.8766 25.1 78.1366C25.08 78.1766 25.05 78.2166 25.01 78.2566C24.97 78.2966 24.95 78.3366 24.95 78.3766C24.97 78.4166 25 78.4366 25.04 78.4366C25.08 78.4166 25.1 78.4366 25.1 78.4966L25.04 78.5566C25.02 78.5766 25 78.5866 24.98 78.5866C24.96 78.5866 24.95 78.5966 24.95 78.6166C24.93 78.6766 24.92 78.7766 24.92 78.9166C24.92 79.0766 24.92 79.2366 24.92 79.3966C24.94 79.5566 24.95 79.7166 24.95 79.8766C24.95 80.0766 24.93 80.2566 24.89 80.4166C24.87 80.5566 24.85 80.7066 24.83 80.8666C24.81 81.3866 24.76 81.8266 24.68 82.1866C24.62 82.5666 24.5 82.9666 24.32 83.3866C24.28 83.3866 24.25 83.3766 24.23 83.3566C24.23 83.3566 24.22 83.3566 24.2 83.3566C24.12 83.3566 24.05 83.3666 23.99 83.3866C23.95 83.4266 23.9 83.4666 23.84 83.5066C23.82 83.5266 23.78 83.5566 23.72 83.5966C23.68 83.6366 23.63 83.6566 23.57 83.6566C23.53 83.6566 23.49 83.6366 23.45 83.5966C23.37 83.5366 23.19 83.4366 22.91 83.2966C22.63 83.1566 22.44 83.0266 22.34 82.9066C22.26 82.8266 22.22 82.6766 22.22 82.4566C22.22 82.3366 22.22 82.2166 22.22 82.0966C22.24 81.9766 22.25 81.8866 22.25 81.8266C22.25 81.7866 22.23 81.7466 22.19 81.7066C22.15 81.6866 22.13 81.6466 22.13 81.5866L22.4 80.3266C22.44 80.1866 22.46 80.0766 22.46 79.9966C22.46 79.8966 22.46 79.7966 22.46 79.6966C22.46 79.5966 22.46 79.5066 22.46 79.4266C22.46 79.3266 22.47 79.2266 22.49 79.1266C22.53 78.7866 22.54 78.4266 22.52 78.0466C22.52 77.6466 22.54 77.2166 22.58 76.7566L22.67 75.1066C22.69 74.6066 22.71 74.0866 22.73 73.5466C22.75 72.9866 22.78 72.4766 22.82 72.0166C22.86 71.2766 22.9 70.5366 22.94 69.7966C22.98 69.0366 23.02 68.4466 23.06 68.0266L23.09 67.5166C23.09 67.3166 23.07 67.1766 23.03 67.0966C22.99 67.0566 22.92 67.0066 22.82 66.9466C22.72 66.8866 22.67 66.7666 22.67 66.5866C22.67 66.4466 22.65 66.3266 22.61 66.2266C22.57 66.1066 22.55 65.9866 22.55 65.8666C22.55 65.6466 22.6 65.4566 22.7 65.2966C22.82 65.1166 22.96 64.9666 23.12 64.8466C23.34 64.6666 23.61 64.5866 23.93 64.6066C24.25 64.6066 24.55 64.5866 24.83 64.5466C24.97 64.5266 25.17 64.5166 25.43 64.5166C25.69 64.4966 25.97 64.4866 26.27 64.4866C26.59 64.4666 26.92 64.4566 27.26 64.4566C27.62 64.4366 27.96 64.4166 28.28 64.3966C28.7 64.3766 29.29 64.3466 30.05 64.3066C30.81 64.2666 31.56 64.2266 32.3 64.1866C33.06 64.1466 33.73 64.1166 34.31 64.0966C34.91 64.0766 35.24 64.0666 35.3 64.0666C35.4 64.0666 35.47 64.0766 35.51 64.0966C35.55 64.1166 35.59 64.1366 35.63 64.1566C35.83 64.2366 35.96 64.2766 36.02 64.2766C36.06 64.2766 36.08 64.2766 36.08 64.2766C36.08 64.2566 36.1 64.2466 36.14 64.2466C36.16 64.2466 36.19 64.2666 36.23 64.3066C36.29 64.3266 36.34 64.3766 36.38 64.4566C36.44 64.5166 36.5 64.5566 36.56 64.5766C36.6 64.5966 36.62 64.6266 36.62 64.6666C36.62 64.6866 36.65 64.7066 36.71 64.7266C36.71 64.7666 36.72 64.7966 36.74 64.8166C36.78 64.8366 36.8 64.8766 36.8 64.9366C36.82 64.9566 36.83 64.9966 36.83 65.0566C36.83 65.1166 36.84 65.1566 36.86 65.1766C36.88 65.1966 36.87 65.2266 36.83 65.2666C36.81 65.2866 36.8 65.3166 36.8 65.3566C36.78 65.4366 36.76 65.5066 36.74 65.5666C36.74 65.6266 36.74 65.6866 36.74 65.7466C36.74 65.7866 36.74 65.8466 36.74 65.9266C36.76 66.0066 36.78 66.0666 36.8 66.1066L36.83 66.3766C36.83 66.4366 36.74 66.4866 36.56 66.5266C36.38 66.5666 36.26 66.5966 36.2 66.6166ZM42.3718 81.6166C41.7918 81.6166 41.2918 81.5166 40.8718 81.3166C40.4718 81.1166 40.1418 80.8566 39.8818 80.5366C39.6218 80.1966 39.4218 79.8366 39.2818 79.4566C39.1618 79.0566 39.1018 78.6566 39.1018 78.2566C39.1018 77.6366 39.2218 77.0666 39.4618 76.5466C39.7018 76.0066 39.9918 75.5066 40.3318 75.0466C40.4518 74.8866 40.5918 74.7066 40.7518 74.5066C40.9318 74.2866 41.1118 74.0866 41.2918 73.9066C41.4918 73.7066 41.6818 73.5266 41.8618 73.3666C42.0418 73.2066 42.2018 73.0966 42.3418 73.0366C42.6218 72.8966 42.8218 72.7666 42.9418 72.6466C43.0818 72.5066 43.2718 72.4366 43.5118 72.4366C43.9918 72.4366 44.4218 72.5566 44.8018 72.7966C45.1818 73.0166 45.5018 73.3166 45.7618 73.6966C46.0218 74.0766 46.2118 74.5066 46.3318 74.9866C46.4718 75.4666 46.5418 75.9566 46.5418 76.4566C46.5418 78.0366 46.1918 79.2966 45.4918 80.2366C44.7918 81.1566 43.7518 81.6166 42.3718 81.6166ZM43.0918 75.0166C43.0118 75.0166 42.9318 75.0266 42.8518 75.0466C42.7718 75.0466 42.7018 75.0766 42.6418 75.1366C42.4818 75.2966 42.3518 75.4466 42.2518 75.5866C42.1518 75.7066 42.0218 75.9066 41.8618 76.1866C41.7618 76.3666 41.6718 76.6066 41.5918 76.9066C41.5318 77.1866 41.5018 77.4966 41.5018 77.8366C41.5018 78.1766 41.5918 78.4566 41.7718 78.6766C41.9518 78.8766 42.2418 78.9766 42.6418 78.9766C42.8818 78.9766 43.1218 78.9166 43.3618 78.7966C43.6018 78.6566 43.8118 78.4766 43.9918 78.2566C44.1718 78.0366 44.3218 77.7766 44.4418 77.4766C44.5618 77.1766 44.6218 76.8566 44.6218 76.5166C44.6218 76.1366 44.5018 75.7966 44.2618 75.4966C44.0218 75.1766 43.7218 75.0166 43.3618 75.0166H43.0918ZM49.9426 82.4266C49.4226 82.4266 49.0426 82.2966 48.8026 82.0366C48.5626 81.7766 48.4226 81.4766 48.3826 81.1366C48.3626 81.0966 48.3526 81.0166 48.3526 80.8966C48.3526 80.7766 48.3326 80.6966 48.2926 80.6566C48.3326 80.6166 48.3726 80.5766 48.4126 80.5366C48.4726 80.4766 48.5226 80.4466 48.5626 80.4466L48.4726 80.2966C48.5326 80.2966 48.5626 80.2866 48.5626 80.2666C48.5826 80.2466 48.6126 80.2366 48.6526 80.2366C48.6726 80.2366 48.6926 80.2466 48.7126 80.2666C48.7326 80.2666 48.7526 80.2666 48.7726 80.2666C48.8726 80.2666 48.9226 80.2266 48.9226 80.1466C48.9226 80.1266 48.9126 80.1066 48.8926 80.0866H48.8626C49.0226 80.0066 49.1726 79.9666 49.3126 79.9666C49.4526 79.9666 49.5726 79.9866 49.6726 80.0266C49.7926 80.0666 49.9426 80.0866 50.1226 80.0866C50.8026 80.0866 51.2726 79.6366 51.5326 78.7366C51.8126 77.8166 51.9526 76.6066 51.9526 75.1066C51.9526 75.0266 51.9426 74.8666 51.9226 74.6266C51.9226 74.3666 51.9226 74.0766 51.9226 73.7566C51.9226 73.4366 51.9126 73.1266 51.8926 72.8266C51.8926 72.5266 51.8926 72.2866 51.8926 72.1066C51.8926 71.7266 51.9826 71.3466 52.1626 70.9666C52.3626 70.5866 52.6526 70.3766 53.0326 70.3366C53.2726 70.3166 53.6326 70.2966 54.1126 70.2766C54.6126 70.2366 55.1326 70.2066 55.6726 70.1866C56.2326 70.1466 56.7826 70.1266 57.3226 70.1266C57.8826 70.1066 58.3526 70.0966 58.7326 70.0966C59.2926 70.0966 59.6626 70.2466 59.8426 70.5466C60.0226 70.8466 60.1126 71.1866 60.1126 71.5666C60.1126 72.4466 60.0326 73.5466 59.8726 74.8666C59.7126 76.1666 59.6326 77.5966 59.6326 79.1566C59.6326 79.6566 59.6826 80.0766 59.7826 80.4166C59.8826 80.7366 59.9326 81.1066 59.9326 81.5266C59.9326 81.6066 59.9126 81.7066 59.8726 81.8266C59.7926 82.0466 59.6526 82.1566 59.4526 82.1566C59.4526 82.2166 59.3926 82.2466 59.2726 82.2466C59.1726 82.2666 59.0826 82.2766 59.0026 82.2766C58.9226 82.2766 58.8426 82.2566 58.7626 82.2166C58.6826 82.1966 58.5926 82.1866 58.4926 82.1866C58.4126 82.1866 58.3526 82.1966 58.3126 82.2166C58.2326 82.1766 58.1526 82.1466 58.0726 82.1266C58.0126 82.1266 57.9526 82.0966 57.8926 82.0366C57.8526 81.9966 57.8326 81.9466 57.8326 81.8866C57.8326 81.8466 57.8126 81.8066 57.7726 81.7666C57.7326 81.7266 57.6926 81.6866 57.6526 81.6466C57.6126 81.6066 57.5726 81.5466 57.5326 81.4666C57.4326 81.2466 57.3626 81.0066 57.3226 80.7466C57.3026 80.4866 57.2926 80.2366 57.2926 79.9966C57.2926 79.8566 57.2926 79.6966 57.2926 79.5166C57.3126 79.3166 57.3426 79.1466 57.3826 79.0066C57.3626 78.9266 57.3526 78.7566 57.3526 78.4966C57.3526 78.1566 57.3626 77.8266 57.3826 77.5066C57.4026 77.1666 57.4226 76.7766 57.4426 76.3366C57.4826 75.8966 57.5226 75.3766 57.5626 74.7766C57.6226 74.1566 57.6726 73.3766 57.7126 72.4366L54.9226 72.5566C54.9026 72.5766 54.8726 72.5866 54.8326 72.5866C54.7926 72.6066 54.7426 72.6166 54.6826 72.6166C54.6226 72.6166 54.5426 72.5966 54.4426 72.5566C54.3426 72.5166 54.2426 72.4966 54.1426 72.4966C54.1426 72.5766 54.1626 72.6366 54.2026 72.6766C54.2626 72.7166 54.2926 72.7466 54.2926 72.7666C54.2926 72.9266 54.3026 73.0766 54.3226 73.2166C54.3226 73.3566 54.3226 73.4966 54.3226 73.6366C54.3426 73.7766 54.3526 73.9066 54.3526 74.0266C54.3526 74.6266 54.3426 75.2466 54.3226 75.8866C54.3026 76.5066 54.2426 77.1166 54.1426 77.7166C54.1226 77.7966 54.0926 77.8566 54.0526 77.8966C54.0126 77.9366 53.9926 78.0066 53.9926 78.1066C53.9926 78.2066 54.0126 78.2966 54.0526 78.3766C53.9926 78.3966 53.9426 78.4866 53.9026 78.6466C53.8826 78.7066 53.8726 78.7766 53.8726 78.8566C53.8726 78.9366 53.8526 78.9966 53.8126 79.0366C53.8126 79.1966 53.8026 79.3166 53.7826 79.3966C53.5026 80.2966 53.0626 81.0266 52.4626 81.5866C51.8626 82.1466 51.0226 82.4266 49.9426 82.4266ZM68.5768 82.6666C67.5568 82.6666 66.6468 82.4266 65.8468 81.9466C65.0668 81.4866 64.5168 80.7266 64.1968 79.6666C64.0568 79.2266 63.9568 78.7166 63.8968 78.1366C63.7768 77.9966 63.6968 77.8966 63.6568 77.8366C63.6368 77.7566 63.6168 77.7066 63.5968 77.6866C63.5768 77.6866 63.5668 77.6766 63.5668 77.6566C63.5668 77.6166 63.5368 77.5966 63.4768 77.5966C63.4368 77.5966 63.4068 77.5666 63.3868 77.5066C63.3868 77.4466 63.3868 77.3866 63.3868 77.3266C63.3868 77.2666 63.3868 77.2066 63.3868 77.1466C63.4068 77.0866 63.4168 77.0266 63.4168 76.9666C63.4168 76.9466 63.4268 76.9366 63.4468 76.9366C63.4868 76.9166 63.5168 76.8966 63.5368 76.8766C63.5368 76.8766 63.6768 76.8566 63.9568 76.8166C64.0568 76.1166 64.2768 75.4066 64.6168 74.6866C64.9768 73.9666 65.4268 73.2866 65.9668 72.6466C66.1068 72.4666 66.3168 72.2566 66.5968 72.0166C66.8768 71.7566 67.1968 71.5166 67.5568 71.2966C67.9368 71.0566 68.3268 70.8566 68.7268 70.6966C69.1468 70.5166 69.5668 70.4266 69.9868 70.4266C70.6668 70.4266 71.2668 70.6666 71.7868 71.1466C72.3068 71.6066 72.5668 72.2266 72.5668 73.0066C72.5668 73.2266 72.5368 73.4666 72.4768 73.7266C72.4368 73.9666 72.3768 74.1966 72.2968 74.4166C72.1968 74.6966 72.0468 74.9966 71.8468 75.3166C71.6668 75.6366 71.4668 75.9366 71.2468 76.2166C70.9668 76.5766 70.6668 76.8966 70.3468 77.1766C70.0468 77.4366 69.7068 77.6966 69.3268 77.9566C68.8668 78.2366 68.3968 78.4866 67.9168 78.7066C67.4368 78.9266 66.9668 79.0366 66.5068 79.0366C66.5068 79.3166 66.5768 79.5366 66.7168 79.6966C66.8568 79.8566 67.0268 79.9866 67.2268 80.0866C67.4468 80.1666 67.6868 80.2166 67.9468 80.2366C68.2068 80.2566 68.4568 80.2666 68.6968 80.2666C69.4768 80.2666 70.0368 80.1866 70.3768 80.0266C70.7368 79.8466 70.9968 79.7566 71.1568 79.7566C71.3168 79.7566 71.4168 79.7766 71.4568 79.8166C71.5768 79.9166 71.6468 80.0266 71.6668 80.1466C71.6868 80.2466 71.6968 80.3666 71.6968 80.5066V80.7166C71.6968 80.8366 71.6768 80.9766 71.6368 81.1366C71.5968 81.3166 71.5468 81.4666 71.4868 81.5866C71.2068 81.9666 70.7968 82.2366 70.2568 82.3966C69.7368 82.5766 69.1768 82.6666 68.5768 82.6666ZM66.4468 76.9666C66.8268 76.8866 67.2368 76.7166 67.6768 76.4566C68.1368 76.1766 68.5568 75.8666 68.9368 75.5266C69.3368 75.1866 69.6668 74.8366 69.9268 74.4766C70.1868 74.0966 70.3168 73.7566 70.3168 73.4566C70.3168 73.3766 70.2768 73.2866 70.1968 73.1866C70.1168 73.0866 69.9668 73.0366 69.7468 73.0366C69.4068 73.0366 69.0668 73.1466 68.7268 73.3666C68.3868 73.5866 68.1168 73.8266 67.9168 74.0866C67.6768 74.3866 67.4668 74.6566 67.2868 74.8966C67.1268 75.1366 66.9968 75.3666 66.8968 75.5866C66.7968 75.7866 66.7068 75.9966 66.6268 76.2166C66.5668 76.4366 66.5068 76.6866 66.4468 76.9666ZM78.2738 81.9466C78.0538 81.9466 77.8038 81.9366 77.5238 81.9166C77.2638 81.8966 76.9838 81.8666 76.6838 81.8266C76.5838 81.8066 76.4738 81.7766 76.3538 81.7366C76.2538 81.6966 76.1638 81.6566 76.0838 81.6166C75.9838 81.5766 75.8938 81.5566 75.8138 81.5566C75.7538 81.5766 75.6938 81.5566 75.6338 81.4966C75.4338 81.3566 75.2438 81.2166 75.0638 81.0766C74.9038 80.9566 74.8038 80.7766 74.7638 80.5366C74.7438 80.4366 74.7238 80.3566 74.7038 80.2966C74.6838 80.2366 74.6738 80.1566 74.6738 80.0566C74.6738 79.9766 74.6938 79.9066 74.7338 79.8466C74.7738 79.7666 74.7938 79.6866 74.7938 79.6066C74.7938 79.5066 74.8238 79.4266 74.8838 79.3666C74.9438 79.2866 75.0038 79.2466 75.0638 79.2466C75.1838 79.2066 75.3138 79.1866 75.4538 79.1866C75.6338 79.1866 75.8138 79.2066 75.9938 79.2466C76.1738 79.2666 76.3238 79.2966 76.4438 79.3366C76.7238 79.3966 76.9738 79.4766 77.1938 79.5766C77.4138 79.6766 77.7538 79.7266 78.2138 79.7266C78.5338 79.7266 78.8638 79.7166 79.2038 79.6966C79.5638 79.6566 79.8738 79.5966 80.1338 79.5166C80.4138 79.4166 80.6438 79.2766 80.8238 79.0966C81.0038 78.8966 81.0938 78.6266 81.0938 78.2866C81.0938 77.8066 80.9638 77.4566 80.7038 77.2366C80.4438 76.9966 79.9738 76.8766 79.2938 76.8766C79.0538 76.8766 78.7738 76.8966 78.4538 76.9366C78.1338 76.9766 77.8338 76.9966 77.5538 76.9966C77.4138 76.9966 77.2838 76.9666 77.1638 76.9066C77.0038 76.8666 76.8938 76.8066 76.8338 76.7266C76.7138 76.5866 76.6538 76.4166 76.6538 76.2166C76.6538 76.0966 76.6638 76.0066 76.6838 75.9466C76.7238 75.8866 76.7438 75.8066 76.7438 75.7066C76.7438 75.6066 76.7538 75.5466 76.7738 75.5266C76.7938 75.4866 76.8138 75.4666 76.8338 75.4666C76.8738 75.4666 76.9138 75.4466 76.9538 75.4066C76.9938 75.3666 77.0438 75.3266 77.1038 75.2866C77.1838 75.2466 77.2538 75.2166 77.3138 75.1966C77.4138 75.1766 77.5838 75.1666 77.8238 75.1666C78.1638 75.1466 78.5138 75.1066 78.8738 75.0466C79.2538 74.9666 79.5938 74.8566 79.8938 74.7166C80.1938 74.5766 80.4438 74.3966 80.6438 74.1766C80.8438 73.9566 80.9438 73.6766 80.9438 73.3366C80.9438 72.9966 80.8338 72.7166 80.6138 72.4966C80.4138 72.2566 80.1038 72.1366 79.6838 72.1366C79.2638 72.1366 78.8738 72.1666 78.5138 72.2266C78.1738 72.2866 77.8338 72.4366 77.4938 72.6766L77.3438 72.8266C77.2438 72.9266 77.1038 72.9966 76.9238 73.0366C76.6238 73.1166 76.3438 73.1566 76.0838 73.1566V73.1266C76.0838 73.1066 76.0838 73.0966 76.0838 73.0966C76.1038 73.0966 76.1138 73.0866 76.1138 73.0666C76.1138 73.0266 76.0838 73.0066 76.0238 73.0066C76.0038 73.0066 75.9338 73.0266 75.8138 73.0666C75.7538 73.0666 75.6838 73.0966 75.6038 73.1566L75.6338 72.9466C75.5938 72.9466 75.5238 72.9366 75.4238 72.9166C75.3438 72.8766 75.2738 72.8566 75.2138 72.8566C75.2538 72.7966 75.2738 72.7166 75.2738 72.6166C75.2938 72.4966 75.3038 72.4066 75.3038 72.3466C75.3038 71.8066 75.5038 71.3866 75.9038 71.0866C76.3038 70.7666 76.7738 70.5266 77.3138 70.3666C77.8538 70.2066 78.3938 70.1066 78.9338 70.0666C79.4738 70.0066 79.8738 69.9766 80.1338 69.9766C81.2938 69.9766 82.1538 70.2166 82.7138 70.6966C83.2738 71.1566 83.5538 71.9066 83.5538 72.9466C83.5538 73.4466 83.4338 73.9266 83.1938 74.3866C82.9738 74.8266 82.5638 75.2166 81.9638 75.5566C82.6038 75.7766 83.0638 76.1166 83.3438 76.5766C83.6438 77.0166 83.7938 77.5766 83.7938 78.2566C83.7938 78.8566 83.6538 79.3866 83.3738 79.8466C83.0938 80.2866 82.7038 80.6666 82.2038 80.9866C81.7238 81.3066 81.1438 81.5466 80.4638 81.7066C79.7838 81.8666 79.0538 81.9466 78.2738 81.9466ZM96.0992 82.2766C95.9792 82.2766 95.8692 82.2666 95.7692 82.2466C95.6692 82.2266 95.5692 82.1966 95.4692 82.1566C95.3692 82.1166 95.2792 82.0666 95.1992 82.0066C95.1392 81.9466 95.0792 81.8966 95.0192 81.8566C94.8192 81.8566 94.6692 81.6966 94.5692 81.3766C94.4692 81.1566 94.4092 80.9366 94.3892 80.7166C94.3892 80.4766 94.3892 80.2366 94.3892 79.9966C94.3892 79.7366 94.3992 79.4866 94.4192 79.2466C94.4392 79.0066 94.4492 78.7566 94.4492 78.4966C94.4492 78.2366 94.4492 77.9766 94.4492 77.7166C94.4692 77.4566 94.4892 77.1566 94.5092 76.8166C94.2892 76.8366 94.0992 76.8566 93.9392 76.8766C93.7992 76.8766 93.7092 76.8766 93.6692 76.8766L90.0992 77.0866C90.0592 77.4266 90.0292 77.7566 90.0092 78.0766C90.0092 78.3766 90.0092 78.6166 90.0092 78.7966C90.0092 79.1966 90.0192 79.5266 90.0392 79.7866C90.0792 80.0466 90.0992 80.3066 90.0992 80.5666C90.0992 81.1466 90.0292 81.5766 89.8892 81.8566C89.8492 81.9966 89.7692 82.0666 89.6492 82.0666C89.5892 82.1266 89.5392 82.1766 89.4992 82.2166C89.4592 82.2566 89.3992 82.2766 89.3192 82.2766C89.1392 82.2766 88.9892 82.2566 88.8692 82.2166C88.7492 82.1966 88.6392 82.1866 88.5392 82.1866C88.4992 82.1866 88.4592 82.1866 88.4192 82.1866C88.3792 82.2066 88.3392 82.2166 88.2992 82.2166C88.2192 82.2166 88.1392 82.1966 88.0592 82.1566C87.9992 82.1166 87.9492 82.0766 87.9092 82.0366C87.8492 81.9966 87.8092 81.9466 87.7892 81.8866C87.7892 81.8266 87.7692 81.7666 87.7292 81.7066C87.6692 81.7066 87.6192 81.6566 87.5792 81.5566C87.5592 81.4566 87.5492 81.3566 87.5492 81.2566C87.5492 81.1566 87.5492 81.0466 87.5492 80.9266C87.5692 80.8066 87.5892 80.6666 87.6092 80.5066C87.7492 79.0066 87.8492 77.7266 87.9092 76.6666C87.9892 75.5866 88.0292 74.8166 88.0292 74.3566C88.0292 73.8766 88.0092 73.4166 87.9692 72.9766C87.9492 72.5166 87.9392 72.1866 87.9392 71.9866C87.9392 71.7666 87.9692 71.6266 88.0292 71.5666C88.0292 71.5466 88.0192 71.5266 87.9992 71.5066C87.9992 71.4666 87.9992 71.4266 87.9992 71.3866C87.9992 71.3666 87.9992 71.3466 87.9992 71.3266C88.0192 71.3066 88.0292 71.2866 88.0292 71.2666C88.0292 71.2266 88.0392 71.1366 88.0592 70.9966C88.0992 70.8566 88.1592 70.7166 88.2392 70.5766C88.3392 70.4166 88.4692 70.2766 88.6292 70.1566C88.8092 70.0366 89.0292 69.9766 89.2892 69.9766C89.8292 69.9766 90.1892 70.0866 90.3692 70.3066C90.5492 70.5266 90.6392 70.8566 90.6392 71.2966C90.6392 71.3566 90.6292 71.4266 90.6092 71.5066C90.6092 71.5666 90.6092 71.6366 90.6092 71.7166L90.3392 73.3666C90.3392 73.5066 90.3292 73.6766 90.3092 73.8766C90.3092 74.0566 90.2892 74.3766 90.2492 74.8366C90.5292 74.8366 90.8192 74.8366 91.1192 74.8366C91.4192 74.8166 91.6992 74.8066 91.9592 74.8066C92.2192 74.7866 92.4392 74.7766 92.6192 74.7766C92.7992 74.7566 92.9192 74.7466 92.9792 74.7466C93.0392 74.7466 93.2392 74.7466 93.5792 74.7466C93.9392 74.7266 94.3192 74.7066 94.7192 74.6866C94.7592 74.3066 94.7792 73.8966 94.7792 73.4566C94.7992 73.0166 94.8292 72.5266 94.8692 71.9866C94.8292 71.8866 94.7992 71.7466 94.7792 71.5666C94.7592 71.3866 94.7492 71.2466 94.7492 71.1466C94.7492 71.0066 94.7392 70.8766 94.7192 70.7566C94.6992 70.6366 94.6892 70.5266 94.6892 70.4266C94.6892 70.2866 94.7292 70.1566 94.8092 70.0366C94.8692 69.9366 94.9392 69.8866 95.0192 69.8866C95.1192 69.8666 95.1992 69.8366 95.2592 69.7966C95.4592 69.6366 95.6792 69.5566 95.9192 69.5566C96.1192 69.5566 96.2592 69.5666 96.3392 69.5866C96.4992 69.6266 96.5992 69.6966 96.6392 69.7966C96.6992 69.8766 96.8092 69.9766 96.9692 70.0966C97.0692 70.0966 97.1292 70.2066 97.1492 70.4266C97.1892 70.6466 97.2092 70.8466 97.2092 71.0266C97.2092 71.4666 97.1792 71.9966 97.1192 72.6166C97.0792 73.2166 97.0292 73.8766 96.9692 74.5966C97.0092 74.5966 97.0392 74.5966 97.0592 74.5966C97.0992 74.5766 97.1392 74.5666 97.1792 74.5666H97.2692C97.2892 74.6066 97.3292 74.6466 97.3892 74.6866C97.4692 74.7266 97.5092 74.8266 97.5092 74.9866C97.5092 75.1266 97.5192 75.2466 97.5392 75.3466C97.5792 75.4266 97.5992 75.5166 97.5992 75.6166C97.5992 75.7766 97.5592 75.9366 97.4792 76.0966C97.3992 76.2366 97.3092 76.3566 97.2092 76.4566C97.1092 76.5566 96.9792 76.6266 96.8192 76.6666C96.7592 77.5066 96.7292 78.3366 96.7292 79.1566C96.7292 79.6566 96.7792 80.0766 96.8792 80.4166C96.9792 80.7366 97.0292 81.1066 97.0292 81.5266C97.0292 81.6666 96.9892 81.7866 96.9092 81.8866C96.8492 81.9866 96.7692 82.0366 96.6692 82.0366C96.6292 82.1366 96.5492 82.1966 96.4292 82.2166C96.3292 82.2566 96.2192 82.2766 96.0992 82.2766ZM113.982 82.3966C113.942 82.3966 113.892 82.3866 113.832 82.3666C113.772 82.3666 113.722 82.3666 113.682 82.3666C113.602 82.3666 113.522 82.3566 113.442 82.3366C113.362 82.3366 113.272 82.3366 113.172 82.3366C113.132 82.3366 113.102 82.3266 113.082 82.3066C113.062 82.2866 113.032 82.2766 112.992 82.2766C112.912 82.1966 112.842 82.1466 112.782 82.1266C112.722 82.1266 112.662 82.0966 112.602 82.0366C112.562 81.9966 112.542 81.9466 112.542 81.8866C112.542 81.8266 112.522 81.7766 112.482 81.7366C112.442 81.6966 112.402 81.6566 112.362 81.6166C112.322 81.5766 112.302 81.5166 112.302 81.4366C112.302 80.4966 112.332 79.7466 112.392 79.1866C112.472 78.6266 112.522 78.0966 112.542 77.5966L112.632 75.0766C112.652 74.6166 112.672 74.1366 112.692 73.6366C112.732 73.1166 112.772 72.5766 112.812 72.0166C112.852 71.7366 112.882 71.4766 112.902 71.2366C112.942 70.9966 112.992 70.7866 113.052 70.6066C113.092 70.4866 113.132 70.3966 113.172 70.3366C113.212 70.2766 113.292 70.2066 113.412 70.1266C113.452 70.0866 113.492 70.0466 113.532 70.0066C113.592 69.9466 113.662 69.9166 113.742 69.9166C113.782 69.9166 113.822 69.9266 113.862 69.9466C113.922 69.9466 113.982 69.9466 114.042 69.9466C114.102 69.9466 114.162 69.9366 114.222 69.9166C114.302 69.8966 114.362 69.8866 114.402 69.8866C114.502 69.8866 114.632 69.9066 114.792 69.9466C114.892 69.9866 114.962 70.0566 115.002 70.1566C115.042 70.1766 115.102 70.2666 115.182 70.4266C115.262 70.5466 115.302 70.7166 115.302 70.9366C115.302 71.4166 115.282 71.9366 115.242 72.4966C115.202 73.0566 115.132 73.7466 115.032 74.5666L114.732 77.3566C114.732 77.7566 114.742 78.1366 114.762 78.4966C114.782 78.8566 114.792 79.1466 114.792 79.3666C114.792 79.4466 114.782 79.5566 114.762 79.6966C114.762 79.8366 114.762 79.9766 114.762 80.1166C114.742 80.2966 114.732 80.4766 114.732 80.6566C114.732 80.8166 114.712 80.9966 114.672 81.1966C114.652 81.3966 114.622 81.5566 114.582 81.6766C114.582 81.8166 114.572 81.9266 114.552 82.0066C114.492 82.1866 114.382 82.2766 114.222 82.2766C114.202 82.3166 114.162 82.3466 114.102 82.3666C114.062 82.3866 114.022 82.3966 113.982 82.3966ZM105.042 82.5466C104.562 82.5466 104.082 82.4966 103.602 82.3966C103.142 82.2966 102.722 82.1366 102.342 81.9166C101.982 81.6966 101.682 81.3966 101.442 81.0166C101.222 80.6366 101.112 80.1666 101.112 79.6066C101.112 79.1066 101.132 78.5766 101.172 78.0166C101.232 77.4366 101.302 76.8566 101.382 76.2766C101.462 75.6966 101.542 75.1366 101.622 74.5966C101.722 74.0366 101.802 73.5266 101.862 73.0666C101.902 72.7466 101.942 72.4066 101.982 72.0466C102.042 71.6666 102.102 71.3666 102.162 71.1466C102.242 70.8866 102.372 70.6666 102.552 70.4866C102.652 70.3866 102.782 70.3366 102.942 70.3366C102.982 70.3366 103.022 70.3266 103.062 70.3066C103.122 70.2666 103.172 70.2466 103.212 70.2466C103.252 70.2466 103.292 70.2566 103.332 70.2766C103.392 70.2766 103.442 70.2766 103.482 70.2766C103.542 70.2766 103.602 70.2666 103.662 70.2466C103.722 70.2266 103.772 70.2166 103.812 70.2166C103.992 70.2166 104.172 70.2766 104.352 70.3966C104.532 70.4966 104.672 70.6566 104.772 70.8766C104.812 70.9566 104.832 71.1066 104.832 71.3266C104.832 71.6066 104.762 71.8466 104.622 72.0466C104.482 72.2266 104.392 72.4766 104.352 72.7966L104.052 74.8066C104.192 74.7866 104.352 74.7566 104.532 74.7166C104.692 74.6766 104.872 74.6466 105.072 74.6266C105.272 74.6066 105.512 74.5966 105.792 74.5966C106.412 74.5966 106.992 74.6566 107.532 74.7766C108.072 74.8766 108.542 75.0866 108.942 75.4066C109.042 75.4866 109.142 75.5966 109.242 75.7366C109.362 75.8766 109.422 76.0066 109.422 76.1266C109.482 76.1666 109.542 76.2166 109.602 76.2766C109.642 76.3166 109.682 76.3766 109.722 76.4566C109.782 76.5366 109.822 76.6266 109.842 76.7266C109.842 77.0666 109.882 77.3566 109.962 77.5966C110.042 77.8166 110.082 78.0866 110.082 78.4066C110.082 79.0666 109.942 79.6566 109.662 80.1766C109.402 80.6966 109.042 81.1266 108.582 81.4666C108.142 81.8266 107.612 82.0966 106.992 82.2766C106.372 82.4566 105.722 82.5466 105.042 82.5466ZM104.712 80.3566C104.912 80.3566 105.102 80.3566 105.282 80.3566C105.462 80.3566 105.632 80.3366 105.792 80.2966L105.972 80.1766C106.012 80.1566 106.052 80.1366 106.092 80.1166C106.132 80.0766 106.172 80.0566 106.212 80.0566C106.312 80.0366 106.392 80.0266 106.452 80.0266C106.512 80.0266 106.592 79.9766 106.692 79.8766C106.812 79.8366 106.892 79.7966 106.932 79.7566C106.992 79.7166 107.092 79.5866 107.232 79.3666C107.372 79.1066 107.442 78.7566 107.442 78.3166C107.442 77.9566 107.382 77.6766 107.262 77.4766C107.142 77.2766 106.972 77.1266 106.752 77.0266C106.552 76.9066 106.322 76.8366 106.062 76.8166C105.802 76.7766 105.532 76.7566 105.252 76.7566C104.692 76.7566 104.222 76.8366 103.842 76.9966C103.682 77.5766 103.602 78.2466 103.602 79.0066C103.602 79.1066 103.612 79.2366 103.632 79.3966C103.652 79.5566 103.692 79.7066 103.752 79.8466C103.832 79.9866 103.942 80.1066 104.082 80.2066C104.242 80.3066 104.452 80.3566 104.712 80.3566ZM123.772 82.6666C122.752 82.6666 121.842 82.4266 121.042 81.9466C120.262 81.4866 119.712 80.7266 119.392 79.6666C119.252 79.2266 119.152 78.7166 119.092 78.1366C118.972 77.9966 118.892 77.8966 118.852 77.8366C118.832 77.7566 118.812 77.7066 118.792 77.6866C118.772 77.6866 118.762 77.6766 118.762 77.6566C118.762 77.6166 118.732 77.5966 118.672 77.5966C118.632 77.5966 118.602 77.5666 118.582 77.5066C118.582 77.4466 118.582 77.3866 118.582 77.3266C118.582 77.2666 118.582 77.2066 118.582 77.1466C118.602 77.0866 118.612 77.0266 118.612 76.9666C118.612 76.9466 118.622 76.9366 118.642 76.9366C118.682 76.9166 118.712 76.8966 118.732 76.8766C118.732 76.8766 118.872 76.8566 119.152 76.8166C119.252 76.1166 119.472 75.4066 119.812 74.6866C120.172 73.9666 120.622 73.2866 121.162 72.6466C121.302 72.4666 121.512 72.2566 121.792 72.0166C122.072 71.7566 122.392 71.5166 122.752 71.2966C123.132 71.0566 123.522 70.8566 123.922 70.6966C124.342 70.5166 124.762 70.4266 125.182 70.4266C125.862 70.4266 126.462 70.6666 126.982 71.1466C127.502 71.6066 127.762 72.2266 127.762 73.0066C127.762 73.2266 127.732 73.4666 127.672 73.7266C127.632 73.9666 127.572 74.1966 127.492 74.4166C127.392 74.6966 127.242 74.9966 127.042 75.3166C126.862 75.6366 126.662 75.9366 126.442 76.2166C126.162 76.5766 125.862 76.8966 125.542 77.1766C125.242 77.4366 124.902 77.6966 124.522 77.9566C124.062 78.2366 123.592 78.4866 123.112 78.7066C122.632 78.9266 122.162 79.0366 121.702 79.0366C121.702 79.3166 121.772 79.5366 121.912 79.6966C122.052 79.8566 122.222 79.9866 122.422 80.0866C122.642 80.1666 122.882 80.2166 123.142 80.2366C123.402 80.2566 123.652 80.2666 123.892 80.2666C124.672 80.2666 125.232 80.1866 125.572 80.0266C125.932 79.8466 126.192 79.7566 126.352 79.7566C126.512 79.7566 126.612 79.7766 126.652 79.8166C126.772 79.9166 126.842 80.0266 126.862 80.1466C126.882 80.2466 126.892 80.3666 126.892 80.5066V80.7166C126.892 80.8366 126.872 80.9766 126.832 81.1366C126.792 81.3166 126.742 81.4666 126.682 81.5866C126.402 81.9666 125.992 82.2366 125.452 82.3966C124.932 82.5766 124.372 82.6666 123.772 82.6666ZM121.642 76.9666C122.022 76.8866 122.432 76.7166 122.872 76.4566C123.332 76.1766 123.752 75.8666 124.132 75.5266C124.532 75.1866 124.862 74.8366 125.122 74.4766C125.382 74.0966 125.512 73.7566 125.512 73.4566C125.512 73.3766 125.472 73.2866 125.392 73.1866C125.312 73.0866 125.162 73.0366 124.942 73.0366C124.602 73.0366 124.262 73.1466 123.922 73.3666C123.582 73.5866 123.312 73.8266 123.112 74.0866C122.872 74.3866 122.662 74.6566 122.482 74.8966C122.322 75.1366 122.192 75.3666 122.092 75.5866C121.992 75.7866 121.902 75.9966 121.822 76.2166C121.762 76.4366 121.702 76.6866 121.642 76.9666ZM31.7 125.717C31.66 125.817 31.6 125.917 31.52 126.017C31.44 126.137 31.34 126.247 31.22 126.347C31.06 126.467 30.91 126.567 30.77 126.647C30.65 126.747 30.5 126.797 30.32 126.797C30.18 126.797 30.04 126.767 29.9 126.707C29.7 126.647 29.56 126.507 29.48 126.287C29.4 126.087 29.36 125.847 29.36 125.567C29.36 125.467 29.36 125.367 29.36 125.267C29.38 125.167 29.4 125.057 29.42 124.937C29.46 124.697 29.51 124.417 29.57 124.097C29.63 123.757 29.69 123.447 29.75 123.167C29.83 122.787 29.9 122.487 29.96 122.267C30.02 122.047 30.05 121.827 30.05 121.607C30.05 121.527 30.03 121.487 29.99 121.487C29.91 121.487 29.82 121.557 29.72 121.697C29.64 121.837 29.5 122.037 29.3 122.297C29 122.697 28.68 123.077 28.34 123.437C28 123.797 27.57 124.207 27.05 124.667C26.57 125.087 26.06 125.477 25.52 125.837C24.98 126.177 24.39 126.347 23.75 126.347C23.15 126.347 22.68 126.117 22.34 125.657C22.02 125.177 21.86 124.637 21.86 124.037C21.86 123.837 21.87 123.607 21.89 123.347C21.93 123.087 21.96 122.817 21.98 122.537C22.02 122.257 22.06 121.997 22.1 121.757C22.14 121.497 22.16 121.287 22.16 121.127C22.2 120.867 22.26 120.527 22.34 120.107C22.42 119.687 22.46 119.337 22.46 119.057L22.61 118.037C22.65 117.837 22.67 117.657 22.67 117.497C22.69 117.317 22.72 117.157 22.76 117.017C22.78 116.937 22.79 116.867 22.79 116.807C22.79 116.727 22.79 116.657 22.79 116.597C22.79 116.437 22.83 116.347 22.91 116.327C23.03 116.227 23.19 116.147 23.39 116.087C23.53 116.027 23.66 116.007 23.78 116.027C23.9 116.027 23.98 116.007 24.02 115.967C24.24 115.967 24.45 116.107 24.65 116.387C24.85 116.667 24.97 116.917 25.01 117.137C25.03 117.197 25.04 117.287 25.04 117.407C25.04 117.507 25.04 117.627 25.04 117.767C25.04 118.107 25.02 118.437 24.98 118.757C24.94 119.077 24.89 119.417 24.83 119.777C24.79 119.937 24.74 120.137 24.68 120.377C24.64 120.617 24.59 120.857 24.53 121.097C24.49 121.337 24.45 121.557 24.41 121.757C24.39 121.937 24.38 122.067 24.38 122.147C24.38 122.267 24.4 122.377 24.44 122.477C24.5 122.557 24.61 122.597 24.77 122.597C24.95 122.597 25.22 122.467 25.58 122.207C25.94 121.947 26.32 121.637 26.72 121.277C27.14 120.897 27.54 120.507 27.92 120.107C28.32 119.687 28.64 119.317 28.88 118.997C29.26 118.497 29.57 118.087 29.81 117.767C30.07 117.447 30.3 117.197 30.5 117.017C30.7 116.817 31 116.717 31.4 116.717C31.6 116.717 31.77 116.797 31.91 116.957C32.07 117.117 32.2 117.277 32.3 117.437C32.46 117.697 32.54 117.987 32.54 118.307C32.54 118.607 32.56 118.917 32.6 119.237C32.6 119.317 32.58 119.397 32.54 119.477C32.5 119.557 32.48 119.637 32.48 119.717C32.46 119.937 32.44 120.197 32.42 120.497C32.4 120.797 32.38 121.127 32.36 121.487C32.26 122.567 32.16 123.427 32.06 124.067C31.98 124.687 31.87 125.197 31.73 125.597L31.7 125.717ZM44.9769 122.387C45.0969 122.427 45.1969 122.527 45.2769 122.687C45.4169 122.967 45.4869 123.297 45.4869 123.677C45.4869 123.837 45.4369 123.997 45.3369 124.157C45.2569 124.317 45.1669 124.447 45.0669 124.547C44.8669 124.747 44.6869 124.937 44.5269 125.117C44.3669 125.277 44.1769 125.437 43.9569 125.597C43.7369 125.757 43.4469 125.937 43.0869 126.137C42.7469 126.357 42.3869 126.547 42.0069 126.707C41.7469 126.827 41.5169 126.917 41.3169 126.977C41.1369 127.057 40.9469 127.117 40.7469 127.157C40.5669 127.197 40.3769 127.217 40.1769 127.217C39.9769 127.237 39.7369 127.247 39.4569 127.247C39.0969 127.247 38.7169 127.177 38.3169 127.037C37.9369 126.917 37.6669 126.807 37.5069 126.707C36.8469 126.307 36.3769 125.777 36.0969 125.117C35.8169 124.437 35.6769 123.607 35.6769 122.627C35.6769 122.027 35.7469 121.447 35.8869 120.887C36.0269 120.307 36.2069 119.777 36.4269 119.297C36.6669 118.797 36.9269 118.347 37.2069 117.947C37.5069 117.547 37.8069 117.207 38.1069 116.927C38.2669 116.767 38.4769 116.587 38.7369 116.387C39.0169 116.187 39.2969 116.007 39.5769 115.847C39.8769 115.687 40.1969 115.547 40.5369 115.427C40.8769 115.287 41.2969 115.217 41.7969 115.217C42.2969 115.217 42.7669 115.407 43.2069 115.787C43.6669 116.147 43.8969 116.587 43.8969 117.107C43.8969 117.227 43.8869 117.337 43.8669 117.437C43.8469 117.517 43.8169 117.597 43.7769 117.677C43.7369 117.797 43.6669 117.927 43.5669 118.067C43.4869 118.187 43.3969 118.277 43.2969 118.337C43.1369 118.457 42.8769 118.517 42.5169 118.517C42.2969 118.517 42.1269 118.507 42.0069 118.487C41.8869 118.447 41.7169 118.427 41.4969 118.427C41.1769 118.427 40.8169 118.567 40.4169 118.847C40.0369 119.107 39.6769 119.457 39.3369 119.897C38.9969 120.337 38.7069 120.827 38.4669 121.367C38.2469 121.887 38.1369 122.417 38.1369 122.957C38.1369 123.457 38.2269 123.867 38.4069 124.187C38.6069 124.507 38.9669 124.667 39.4869 124.667C39.9469 124.667 40.3769 124.587 40.7769 124.427C41.1969 124.247 41.5369 124.087 41.7969 123.947C41.9969 123.847 42.2369 123.707 42.5169 123.527C42.8169 123.327 43.0769 123.157 43.2969 123.017C43.4969 122.897 43.6569 122.777 43.7769 122.657C43.8969 122.537 44.0169 122.447 44.1369 122.387C44.2369 122.347 44.3369 122.317 44.4369 122.297C44.5369 122.277 44.6069 122.267 44.6469 122.267C44.7669 122.267 44.8769 122.307 44.9769 122.387ZM50.8428 117.467C51.2628 117.347 51.7428 117.207 52.2828 117.047C52.8228 116.867 53.3828 116.657 53.9628 116.417C54.3628 116.257 54.8028 116.067 55.2828 115.847C55.7628 115.607 56.1228 115.427 56.3628 115.307C56.6628 115.147 56.9628 115.007 57.2628 114.887C57.5628 114.747 57.8128 114.677 58.0128 114.677C58.2128 114.677 58.3328 114.697 58.3728 114.737C58.4128 114.777 58.5428 114.827 58.7628 114.887C58.7828 114.947 58.8328 115.037 58.9128 115.157C58.9928 115.277 59.0728 115.367 59.1528 115.427C59.1528 115.467 59.1528 115.507 59.1528 115.547C59.1728 115.587 59.1828 115.627 59.1828 115.667C59.1828 115.687 59.1728 115.707 59.1528 115.727C59.1528 115.747 59.1528 115.777 59.1528 115.817C59.1528 115.857 59.1628 115.897 59.1828 115.937C59.1628 116.037 59.1328 116.117 59.0928 116.177C59.0728 116.217 59.0628 116.267 59.0628 116.327C59.0428 116.367 59.0128 116.397 58.9728 116.417C58.9528 116.437 58.9228 116.467 58.8828 116.507C58.8628 116.567 58.8228 116.617 58.7628 116.657C58.7028 116.677 58.6528 116.707 58.6128 116.747C58.4328 116.907 58.1128 117.097 57.6528 117.317C57.2128 117.537 56.7228 117.767 56.1828 118.007C55.6428 118.247 55.1028 118.477 54.5628 118.697C54.0228 118.897 53.5728 119.057 53.2128 119.177C52.4528 119.397 52.0728 119.547 52.0728 119.627C52.0928 119.707 52.2228 119.867 52.4628 120.107C52.7028 120.347 53.0028 120.637 53.3628 120.977C53.7428 121.297 54.1528 121.657 54.5928 122.057C55.0528 122.437 55.4828 122.807 55.8828 123.167C56.3028 123.527 56.6728 123.867 56.9928 124.187C57.3328 124.487 57.5728 124.727 57.7128 124.907C57.8128 125.047 57.8628 125.137 57.8628 125.177C57.8628 125.217 57.8828 125.277 57.9228 125.357C57.9828 125.417 58.0328 125.477 58.0728 125.537C58.0328 125.617 58.0128 125.707 58.0128 125.807V125.897C58.0128 125.917 58.0228 125.937 58.0428 125.957C58.0028 125.997 57.9728 126.037 57.9528 126.077C57.9528 126.117 57.9428 126.157 57.9228 126.197L57.7728 126.407L57.5628 126.557C57.4828 126.597 57.4028 126.637 57.3228 126.677C57.2628 126.717 57.2128 126.757 57.1728 126.797C57.0728 126.857 56.9828 126.887 56.9028 126.887C56.7428 126.887 56.5928 126.847 56.4528 126.767C56.3328 126.707 56.2628 126.657 56.2428 126.617C56.0228 126.617 55.8528 126.537 55.7328 126.377C55.6328 126.237 55.5028 126.107 55.3428 125.987C54.9028 125.687 54.3428 125.247 53.6628 124.667C52.9828 124.067 52.1828 123.307 51.2628 122.387C51.1628 122.287 51.0128 122.177 50.8128 122.057C50.6328 121.937 50.5028 121.877 50.4228 121.877C50.3828 121.977 50.3628 122.057 50.3628 122.117C50.3628 122.177 50.3628 122.257 50.3628 122.357C50.3628 122.697 50.3728 122.987 50.3928 123.227C50.4128 123.447 50.4328 123.647 50.4528 123.827C50.4728 124.007 50.4928 124.177 50.5128 124.337C50.5328 124.497 50.5428 124.667 50.5428 124.847C50.5428 125.227 50.4528 125.547 50.2728 125.807C50.0528 126.087 49.6928 126.227 49.1928 126.227H49.0128C48.7328 126.187 48.5428 126.047 48.4428 125.807C48.3628 125.567 48.3028 125.327 48.2628 125.087C48.2228 124.847 48.1928 124.507 48.1728 124.067C48.1528 123.607 48.1428 123.207 48.1428 122.867C48.1428 122.387 48.1628 121.847 48.2028 121.247C48.2628 120.627 48.3228 120.027 48.3828 119.447C48.4428 118.847 48.5028 118.297 48.5628 117.797C48.6428 117.277 48.7028 116.857 48.7428 116.537L48.9228 115.337C48.9428 115.257 48.9628 115.187 48.9828 115.127C49.0028 115.047 49.0328 114.967 49.0728 114.887C49.1728 114.727 49.2828 114.617 49.4028 114.557C49.5428 114.477 49.6428 114.397 49.7028 114.317C49.8028 114.317 49.8628 114.327 49.8828 114.347C49.9428 114.327 49.9928 114.297 50.0328 114.257C50.0728 114.217 50.1328 114.197 50.2128 114.197C50.2728 114.197 50.3628 114.207 50.4828 114.227C50.6028 114.227 50.7128 114.277 50.8128 114.377C50.9328 114.457 51.0328 114.587 51.1128 114.767C51.1928 114.947 51.2328 115.207 51.2328 115.547C51.2328 115.587 51.2228 115.667 51.2028 115.787C51.1828 115.907 51.1528 116.027 51.1128 116.147C51.0728 116.287 51.0428 116.437 51.0228 116.597L50.8428 117.467ZM64.2273 126.617C63.6473 126.617 63.1473 126.517 62.7273 126.317C62.3273 126.117 61.9973 125.857 61.7373 125.537C61.4773 125.197 61.2773 124.837 61.1373 124.457C61.0173 124.057 60.9573 123.657 60.9573 123.257C60.9573 122.637 61.0773 122.067 61.3173 121.547C61.5573 121.007 61.8473 120.507 62.1873 120.047C62.3073 119.887 62.4473 119.707 62.6073 119.507C62.7873 119.287 62.9673 119.087 63.1473 118.907C63.3473 118.707 63.5373 118.527 63.7173 118.367C63.8973 118.207 64.0573 118.097 64.1973 118.037C64.4773 117.897 64.6773 117.767 64.7973 117.647C64.9373 117.507 65.1273 117.437 65.3673 117.437C65.8473 117.437 66.2773 117.557 66.6573 117.797C67.0373 118.017 67.3573 118.317 67.6173 118.697C67.8773 119.077 68.0673 119.507 68.1873 119.987C68.3273 120.467 68.3973 120.957 68.3973 121.457C68.3973 123.037 68.0473 124.297 67.3473 125.237C66.6473 126.157 65.6073 126.617 64.2273 126.617ZM64.9473 120.017C64.8673 120.017 64.7873 120.027 64.7073 120.047C64.6273 120.047 64.5573 120.077 64.4973 120.137C64.3373 120.297 64.2073 120.447 64.1073 120.587C64.0073 120.707 63.8773 120.907 63.7173 121.187C63.6173 121.367 63.5273 121.607 63.4473 121.907C63.3873 122.187 63.3573 122.497 63.3573 122.837C63.3573 123.177 63.4473 123.457 63.6273 123.677C63.8073 123.877 64.0973 123.977 64.4973 123.977C64.7373 123.977 64.9773 123.917 65.2173 123.797C65.4573 123.657 65.6673 123.477 65.8473 123.257C66.0273 123.037 66.1773 122.777 66.2973 122.477C66.4173 122.177 66.4773 121.857 66.4773 121.517C66.4773 121.137 66.3573 120.797 66.1173 120.497C65.8773 120.177 65.5773 120.017 65.2173 120.017H64.9473ZM73.5847 127.127C73.5647 127.127 73.5247 127.127 73.4647 127.127C73.4247 127.127 73.3847 127.137 73.3447 127.157C73.3047 127.117 73.2547 127.097 73.1947 127.097C73.1547 127.097 73.1147 127.097 73.0747 127.097L72.7447 127.037C72.6047 127.037 72.5047 127.017 72.4447 126.977C72.4047 126.957 72.3447 126.927 72.2647 126.887C72.2247 126.887 72.1847 126.897 72.1447 126.917C72.1447 126.877 72.1147 126.827 72.0547 126.767C72.0147 126.727 71.9647 126.667 71.9047 126.587C71.8047 126.387 71.7547 126.167 71.7547 125.927C71.7547 125.687 71.7747 125.487 71.8147 125.327C71.8747 125.167 71.9347 125.007 71.9947 124.847C72.1147 123.867 72.1747 122.787 72.1747 121.607C72.1747 120.407 72.2147 119.037 72.2947 117.497C72.3147 117.177 72.3347 116.867 72.3547 116.567C72.3747 116.267 72.4947 116.027 72.7147 115.847C72.7947 115.787 72.8647 115.727 72.9247 115.667C73.0047 115.607 73.0747 115.557 73.1347 115.517C73.2347 115.477 73.3647 115.437 73.5247 115.397C74.2847 115.377 74.9947 115.347 75.6547 115.307C76.2147 115.287 76.7647 115.267 77.3047 115.247C77.8447 115.227 78.2447 115.217 78.5047 115.217C79.0047 115.217 79.4447 115.227 79.8247 115.247C80.2247 115.247 80.4847 115.257 80.6047 115.277C80.6847 115.277 80.7347 115.297 80.7547 115.337C80.7947 115.357 80.8347 115.387 80.8747 115.427C80.9747 115.527 81.0347 115.637 81.0547 115.757C81.0747 115.797 81.0947 115.837 81.1147 115.877C81.1347 115.897 81.1447 115.937 81.1447 115.997C81.1447 116.017 81.1447 116.087 81.1447 116.207C81.1447 116.307 81.1247 116.547 81.0847 116.927C81.0647 117.307 81.0247 117.877 80.9647 118.637C80.9247 119.377 80.8547 120.387 80.7547 121.667C80.7347 121.747 80.7247 121.827 80.7247 121.907C80.7047 121.967 80.6947 122.037 80.6947 122.117C80.6947 122.197 80.6747 122.267 80.6347 122.327C80.6547 122.387 80.6647 122.467 80.6647 122.567C80.6447 123.027 80.6147 123.447 80.5747 123.827C80.5547 124.187 80.5347 124.597 80.5147 125.057C80.5147 125.137 80.5247 125.217 80.5447 125.297C80.5447 125.377 80.5447 125.477 80.5447 125.597C80.5647 125.697 80.5747 125.817 80.5747 125.957C80.5747 126.277 80.5347 126.527 80.4547 126.707C80.3947 126.907 80.2547 127.027 80.0347 127.067C79.9747 127.107 79.9047 127.137 79.8247 127.157C79.6647 127.197 79.4847 127.217 79.2847 127.217C78.8647 127.217 78.5847 127.177 78.4447 127.097C78.3047 127.017 78.2347 126.867 78.2347 126.647C78.1947 126.587 78.1447 126.497 78.0847 126.377C78.0447 126.257 78.0247 126.137 78.0247 126.017C78.0247 125.617 78.0447 125.267 78.0847 124.967C78.1447 124.647 78.1947 124.297 78.2347 123.917C78.2747 123.357 78.3047 122.857 78.3247 122.417C78.3447 121.977 78.3647 121.527 78.3847 121.067C78.4047 120.607 78.4247 120.097 78.4447 119.537C78.4847 118.977 78.5347 118.297 78.5947 117.497L78.1447 117.467C78.1047 117.467 78.0547 117.467 77.9947 117.467C77.9547 117.447 77.9247 117.417 77.9047 117.377C77.8447 117.457 77.7847 117.497 77.7247 117.497C77.6647 117.497 77.6247 117.477 77.6047 117.437C77.5847 117.397 77.5247 117.377 77.4247 117.377C77.4247 117.437 77.3047 117.487 77.0647 117.527C77.0247 117.527 76.9447 117.537 76.8247 117.557C76.7247 117.557 76.6447 117.557 76.5847 117.557L75.8647 117.617C75.6847 117.637 75.4947 117.647 75.2947 117.647C75.1147 117.627 74.9447 117.637 74.7847 117.677C74.7447 118.097 74.7147 118.507 74.6947 118.907C74.6747 119.307 74.6447 119.777 74.6047 120.317C74.5447 121.017 74.4947 121.607 74.4547 122.087C74.4147 122.547 74.3947 123.097 74.3947 123.737C74.3947 124.057 74.4247 124.367 74.4847 124.667C74.5447 124.947 74.5747 125.237 74.5747 125.537C74.5747 125.797 74.5547 126.037 74.5147 126.257C74.4747 126.477 74.4347 126.607 74.3947 126.647C74.3747 126.687 74.3347 126.737 74.2747 126.797C74.2147 126.857 74.1647 126.887 74.1247 126.887C74.0047 126.967 73.9447 127.037 73.9447 127.097L73.5847 127.127ZM92.6155 124.967C92.5955 125.067 92.5855 125.157 92.5855 125.237C92.5855 125.297 92.5855 125.367 92.5855 125.447C92.5855 125.547 92.5755 125.637 92.5555 125.717C92.5555 125.777 92.5555 125.847 92.5555 125.927C92.5555 125.967 92.5455 126.007 92.5255 126.047C92.5255 126.107 92.5255 126.157 92.5255 126.197C92.5255 126.277 92.5355 126.337 92.5555 126.377C92.5955 126.437 92.6155 126.507 92.6155 126.587C92.6155 126.667 92.5855 126.767 92.5255 126.887C92.4655 127.007 92.4255 127.107 92.4055 127.187C92.3855 127.267 92.3455 127.367 92.2855 127.487C92.2255 127.567 92.1655 127.607 92.1055 127.607C92.0655 127.627 91.9955 127.687 91.8955 127.787C91.8355 127.867 91.7355 127.907 91.5955 127.907C91.5155 127.907 91.4355 127.887 91.3555 127.847C91.3155 127.807 91.2555 127.777 91.1755 127.757C91.0955 127.737 91.0255 127.697 90.9655 127.637C90.8855 127.577 90.8055 127.487 90.7255 127.367C90.6855 127.287 90.6055 127.167 90.4855 127.007C90.4255 126.927 90.3555 126.787 90.2755 126.587C90.1555 126.287 90.0955 125.967 90.0955 125.627C90.0955 125.527 90.0955 125.407 90.0955 125.267C90.0955 125.127 90.1055 125.007 90.1255 124.907C90.1255 124.787 90.1355 124.657 90.1555 124.517C89.9955 124.717 89.8055 124.947 89.5855 125.207C89.3655 125.447 89.1155 125.677 88.8355 125.897C88.5555 126.117 88.2355 126.297 87.8755 126.437C87.5355 126.597 87.1555 126.677 86.7355 126.677C86.3755 126.677 86.0455 126.587 85.7455 126.407C85.4455 126.247 85.1855 126.027 84.9655 125.747C84.7655 125.467 84.6055 125.137 84.4855 124.757C84.3655 124.377 84.3055 123.987 84.3055 123.587C84.3055 122.967 84.3855 122.377 84.5455 121.817C84.7255 121.257 84.9655 120.717 85.2655 120.197L85.5955 119.717C85.6155 119.677 85.6955 119.587 85.8355 119.447C85.9755 119.287 86.1255 119.117 86.2855 118.937C86.4455 118.757 86.6155 118.587 86.7955 118.427C86.9755 118.267 87.1255 118.137 87.2455 118.037L87.7255 117.677C88.0255 117.497 88.3655 117.307 88.7455 117.107C89.0455 116.967 89.2755 116.887 89.4355 116.867C89.6155 116.827 89.7955 116.807 89.9755 116.807C90.3955 116.807 90.8055 116.887 91.2055 117.047C91.6255 117.207 91.9855 117.407 92.2855 117.647C92.3255 118.027 92.3455 118.437 92.3455 118.877C92.3655 119.317 92.3855 119.737 92.4055 120.137C92.4455 120.837 92.4855 121.537 92.5255 122.237C92.5855 122.937 92.6155 123.667 92.6155 124.427V124.967ZM89.7055 119.417C89.2055 119.517 88.7355 119.737 88.2955 120.077C87.8755 120.417 87.5355 120.787 87.2755 121.187C87.0755 121.487 86.9155 121.807 86.7955 122.147C86.6955 122.467 86.6455 122.827 86.6455 123.227C86.6455 123.447 86.6955 123.627 86.7955 123.767C86.8955 123.887 87.0355 123.947 87.2155 123.947C87.4755 123.947 87.7355 123.877 87.9955 123.737C88.2755 123.577 88.5255 123.397 88.7455 123.197C88.9655 122.977 89.1555 122.757 89.3155 122.537C89.4955 122.297 89.6155 122.097 89.6755 121.937C89.7555 121.757 89.8355 121.577 89.9155 121.397C89.9955 121.217 90.0655 120.927 90.1255 120.527C90.1455 120.427 90.1555 120.277 90.1555 120.077C90.1755 119.877 90.1855 119.697 90.1855 119.537C90.0655 119.457 89.9055 119.417 89.7055 119.417ZM98.3105 123.857C98.0705 123.857 97.8705 123.857 97.7105 123.857C97.5705 123.857 97.4405 123.857 97.3205 123.857C97.2005 123.857 97.0705 123.857 96.9305 123.857C96.7905 123.837 96.6205 123.817 96.4205 123.797C96.1005 123.757 95.8605 123.677 95.7005 123.557C95.5605 123.417 95.4505 123.257 95.3705 123.077C95.2905 122.957 95.2405 122.887 95.2205 122.867C95.2205 122.827 95.2205 122.797 95.2205 122.777C95.2205 122.757 95.2205 122.747 95.2205 122.747C95.2405 122.727 95.2505 122.697 95.2505 122.657C95.2305 122.637 95.2205 122.607 95.2205 122.567C95.2205 122.507 95.2405 122.437 95.2805 122.357C95.2605 122.337 95.2505 122.307 95.2505 122.267C95.2505 122.227 95.2505 122.197 95.2505 122.177C95.2705 122.157 95.2805 122.127 95.2805 122.087C95.2805 122.067 95.2705 122.047 95.2505 122.027C95.2505 122.007 95.2505 121.987 95.2505 121.967C95.3105 121.707 95.4705 121.487 95.7305 121.307C96.0105 121.127 96.2905 121.037 96.5705 121.037C96.8905 121.037 97.1905 121.067 97.4705 121.127C97.7505 121.167 98.0005 121.187 98.2205 121.187C98.2405 120.387 98.3505 119.637 98.5505 118.937C98.7505 118.217 99.0305 117.597 99.3905 117.077C99.7505 116.537 100.191 116.117 100.711 115.817C101.251 115.497 101.871 115.337 102.571 115.337C102.731 115.337 102.871 115.357 102.991 115.397C103.131 115.417 103.221 115.447 103.261 115.487L103.741 115.667C103.841 115.707 103.941 115.747 104.041 115.787C104.161 115.827 104.251 115.887 104.311 115.967C104.431 116.047 104.531 116.147 104.611 116.267C104.711 116.387 104.811 116.517 104.911 116.657C105.171 117.057 105.301 117.547 105.301 118.127C105.301 118.607 105.181 119.097 104.941 119.597C104.721 120.097 104.421 120.577 104.041 121.037C103.661 121.477 103.211 121.887 102.691 122.267C102.191 122.627 101.661 122.937 101.101 123.197C101.461 123.597 101.951 123.797 102.571 123.797C103.091 123.797 103.541 123.767 103.921 123.707C104.301 123.627 104.711 123.587 105.151 123.587C105.271 123.587 105.391 123.607 105.511 123.647C105.651 123.667 105.751 123.687 105.811 123.707C105.811 123.747 105.851 123.797 105.931 123.857C106.011 123.917 106.081 124.007 106.141 124.127C106.161 124.167 106.171 124.207 106.171 124.247C106.171 124.287 106.161 124.327 106.141 124.367C106.121 124.387 106.111 124.417 106.111 124.457C106.111 124.497 106.121 124.527 106.141 124.547C106.101 124.587 106.081 124.667 106.081 124.787C106.081 124.867 106.091 124.927 106.111 124.967C106.071 125.007 106.021 125.067 105.961 125.147C105.921 125.227 105.901 125.307 105.901 125.387C105.901 125.447 105.911 125.487 105.931 125.507C105.851 125.547 105.611 125.717 105.211 126.017C105.111 126.097 105.041 126.147 105.001 126.167C104.961 126.187 104.901 126.217 104.821 126.257C104.781 126.277 104.731 126.287 104.671 126.287C104.631 126.287 104.591 126.297 104.551 126.317C104.471 126.317 104.421 126.327 104.401 126.347C104.381 126.347 104.361 126.337 104.341 126.317C104.341 126.317 104.331 126.317 104.311 126.317C104.291 126.317 104.271 126.317 104.251 126.317C104.251 126.337 104.241 126.347 104.221 126.347C104.181 126.327 104.141 126.307 104.101 126.287C104.061 126.287 103.991 126.287 103.891 126.287C103.791 126.287 103.701 126.287 103.621 126.287C103.561 126.307 103.491 126.327 103.411 126.347C103.331 126.367 103.231 126.377 103.111 126.377C103.011 126.397 102.861 126.407 102.661 126.407C101.901 126.407 101.151 126.187 100.411 125.747C99.6905 125.307 99.1305 124.677 98.7305 123.857H98.3105ZM102.601 118.037C102.561 118.017 102.501 118.007 102.421 118.007C102.141 118.007 101.871 118.157 101.611 118.457C101.371 118.737 101.171 119.047 101.011 119.387C100.931 119.587 100.851 119.807 100.771 120.047C100.711 120.287 100.661 120.557 100.621 120.857C100.861 120.837 101.111 120.757 101.371 120.617C101.631 120.457 101.871 120.277 102.091 120.077C102.331 119.857 102.521 119.627 102.661 119.387C102.821 119.127 102.901 118.867 102.901 118.607C102.901 118.407 102.841 118.247 102.721 118.127L102.601 118.037ZM122.602 127.157C122.502 127.157 122.412 127.147 122.332 127.127C122.252 127.107 122.132 127.087 121.972 127.067C121.812 127.067 121.702 127.047 121.642 127.007C121.562 126.947 121.482 126.837 121.402 126.677C121.362 126.637 121.332 126.597 121.312 126.557C121.312 126.517 121.292 126.477 121.252 126.437C121.152 126.057 121.072 125.577 121.012 124.997C120.952 124.417 120.872 123.797 120.772 123.137C120.692 122.457 120.572 121.757 120.412 121.037C120.252 120.297 120.032 119.597 119.752 118.937C119.572 119.377 119.372 119.907 119.152 120.527C118.932 121.127 118.722 121.737 118.522 122.357C118.342 122.957 118.162 123.507 117.982 124.007C117.822 124.507 117.702 124.867 117.622 125.087C117.582 125.187 117.542 125.277 117.502 125.357C117.462 125.417 117.422 125.477 117.382 125.537C117.262 125.877 117.112 126.097 116.932 126.197C116.752 126.317 116.522 126.377 116.242 126.377C116.002 126.377 115.792 126.307 115.612 126.167C115.452 126.047 115.312 125.897 115.192 125.717C115.092 125.517 115.012 125.307 114.952 125.087C114.892 124.847 114.842 124.627 114.802 124.427C114.582 123.247 114.402 122.287 114.262 121.547C114.142 120.787 114.022 120.177 113.902 119.717C113.602 120.577 113.332 121.327 113.092 121.967C112.872 122.607 112.662 123.177 112.462 123.677C112.262 124.157 112.072 124.597 111.892 124.997C111.712 125.377 111.522 125.747 111.322 126.107C111.282 126.227 111.222 126.317 111.142 126.377C111.082 126.457 111.022 126.517 110.962 126.557C110.862 126.577 110.752 126.607 110.632 126.647C110.532 126.687 110.432 126.717 110.332 126.737L110.092 126.977C110.052 126.917 109.962 126.887 109.822 126.887C109.802 126.907 109.782 126.917 109.762 126.917C109.762 126.917 109.752 126.927 109.732 126.947C109.712 126.967 109.702 126.987 109.702 127.007C109.422 126.967 109.142 126.837 108.862 126.617C108.602 126.417 108.472 126.147 108.472 125.807C108.472 125.587 108.532 125.367 108.652 125.147L108.952 124.607C109.312 124.067 109.642 123.507 109.942 122.927C110.262 122.327 110.552 121.727 110.812 121.127C111.072 120.527 111.302 119.957 111.502 119.417C111.702 118.857 111.872 118.347 112.012 117.887C112.332 116.947 112.602 116.307 112.822 115.967C112.922 115.827 113.042 115.727 113.182 115.667C113.262 115.627 113.332 115.607 113.392 115.607C113.452 115.587 113.532 115.567 113.632 115.547C113.632 115.507 113.662 115.487 113.722 115.487C113.802 115.487 113.862 115.487 113.902 115.487C114.042 115.487 114.152 115.507 114.232 115.547C114.332 115.587 114.432 115.627 114.532 115.667C114.592 115.707 114.662 115.737 114.742 115.757C114.822 115.777 114.882 115.807 114.922 115.847C114.962 115.887 114.992 115.937 115.012 115.997C115.052 116.057 115.092 116.127 115.132 116.207C115.232 116.387 115.342 116.737 115.462 117.257C115.582 117.757 115.702 118.317 115.822 118.937C115.942 119.537 116.062 120.147 116.182 120.767C116.302 121.387 116.422 121.887 116.542 122.267C116.662 121.907 116.802 121.447 116.962 120.887C117.142 120.307 117.322 119.717 117.502 119.117C117.682 118.517 117.862 117.957 118.042 117.437C118.222 116.917 118.402 116.517 118.582 116.237C118.802 115.897 119.002 115.667 119.182 115.547C119.362 115.407 119.592 115.337 119.872 115.337C119.992 115.337 120.112 115.367 120.232 115.427C120.372 115.467 120.462 115.527 120.502 115.607C120.702 115.607 120.872 115.737 121.012 115.997C121.312 116.537 121.622 117.207 121.942 118.007C122.262 118.787 122.542 119.637 122.782 120.557C123.042 121.477 123.252 122.427 123.412 123.407C123.572 124.387 123.652 125.327 123.652 126.227L123.532 126.497C123.492 126.537 123.462 126.577 123.442 126.617C123.442 126.657 123.422 126.697 123.382 126.737C123.342 126.777 123.302 126.807 123.262 126.827C123.242 126.867 123.212 126.897 123.172 126.917C123.032 127.077 122.842 127.157 122.602 127.157ZM139.734 127.397C139.694 127.397 139.644 127.387 139.584 127.367C139.524 127.367 139.474 127.367 139.434 127.367C139.354 127.367 139.274 127.357 139.194 127.337C139.114 127.337 139.024 127.337 138.924 127.337C138.884 127.337 138.854 127.327 138.834 127.307C138.814 127.287 138.784 127.277 138.744 127.277C138.664 127.197 138.594 127.147 138.534 127.127C138.474 127.127 138.414 127.097 138.354 127.037C138.314 126.997 138.294 126.947 138.294 126.887C138.294 126.827 138.274 126.777 138.234 126.737C138.194 126.697 138.154 126.657 138.114 126.617C138.074 126.577 138.054 126.517 138.054 126.437C138.054 125.497 138.084 124.747 138.144 124.187C138.224 123.627 138.274 123.097 138.294 122.597L138.384 120.077C138.404 119.617 138.424 119.137 138.444 118.637C138.484 118.117 138.524 117.577 138.564 117.017C138.604 116.737 138.634 116.477 138.654 116.237C138.694 115.997 138.744 115.787 138.804 115.607C138.844 115.487 138.884 115.397 138.924 115.337C138.964 115.277 139.044 115.207 139.164 115.127C139.204 115.087 139.244 115.047 139.284 115.007C139.344 114.947 139.414 114.917 139.494 114.917C139.534 114.917 139.574 114.927 139.614 114.947C139.674 114.947 139.734 114.947 139.794 114.947C139.854 114.947 139.914 114.937 139.974 114.917C140.054 114.897 140.114 114.887 140.154 114.887C140.254 114.887 140.384 114.907 140.544 114.947C140.644 114.987 140.714 115.057 140.754 115.157C140.794 115.177 140.854 115.267 140.934 115.427C141.014 115.547 141.054 115.717 141.054 115.937C141.054 116.417 141.034 116.937 140.994 117.497C140.954 118.057 140.884 118.747 140.784 119.567L140.484 122.357C140.484 122.757 140.494 123.137 140.514 123.497C140.534 123.857 140.544 124.147 140.544 124.367C140.544 124.447 140.534 124.557 140.514 124.697C140.514 124.837 140.514 124.977 140.514 125.117C140.494 125.297 140.484 125.477 140.484 125.657C140.484 125.817 140.464 125.997 140.424 126.197C140.404 126.397 140.374 126.557 140.334 126.677C140.334 126.817 140.324 126.927 140.304 127.007C140.244 127.187 140.134 127.277 139.974 127.277C139.954 127.317 139.914 127.347 139.854 127.367C139.814 127.387 139.774 127.397 139.734 127.397ZM130.794 127.547C130.314 127.547 129.834 127.497 129.354 127.397C128.894 127.297 128.474 127.137 128.094 126.917C127.734 126.697 127.434 126.397 127.194 126.017C126.974 125.637 126.864 125.167 126.864 124.607C126.864 124.107 126.884 123.577 126.924 123.017C126.984 122.437 127.054 121.857 127.134 121.277C127.214 120.697 127.294 120.137 127.374 119.597C127.474 119.037 127.554 118.527 127.614 118.067C127.654 117.747 127.694 117.407 127.734 117.047C127.794 116.667 127.854 116.367 127.914 116.147C127.994 115.887 128.124 115.667 128.304 115.487C128.404 115.387 128.534 115.337 128.694 115.337C128.734 115.337 128.774 115.327 128.814 115.307C128.874 115.267 128.924 115.247 128.964 115.247C129.004 115.247 129.044 115.257 129.084 115.277C129.144 115.277 129.194 115.277 129.234 115.277C129.294 115.277 129.354 115.267 129.414 115.247C129.474 115.227 129.524 115.217 129.564 115.217C129.744 115.217 129.924 115.277 130.104 115.397C130.284 115.497 130.424 115.657 130.524 115.877C130.564 115.957 130.584 116.107 130.584 116.327C130.584 116.607 130.514 116.847 130.374 117.047C130.234 117.227 130.144 117.477 130.104 117.797L129.804 119.807C129.944 119.787 130.104 119.757 130.284 119.717C130.444 119.677 130.624 119.647 130.824 119.627C131.024 119.607 131.264 119.597 131.544 119.597C132.164 119.597 132.744 119.657 133.284 119.777C133.824 119.877 134.294 120.087 134.694 120.407C134.794 120.487 134.894 120.597 134.994 120.737C135.114 120.877 135.174 121.007 135.174 121.127C135.234 121.167 135.294 121.217 135.354 121.277C135.394 121.317 135.434 121.377 135.474 121.457C135.534 121.537 135.574 121.627 135.594 121.727C135.594 122.067 135.634 122.357 135.714 122.597C135.794 122.817 135.834 123.087 135.834 123.407C135.834 124.067 135.694 124.657 135.414 125.177C135.154 125.697 134.794 126.127 134.334 126.467C133.894 126.827 133.364 127.097 132.744 127.277C132.124 127.457 131.474 127.547 130.794 127.547ZM130.464 125.357C130.664 125.357 130.854 125.357 131.034 125.357C131.214 125.357 131.384 125.337 131.544 125.297L131.724 125.177C131.764 125.157 131.804 125.137 131.844 125.117C131.884 125.077 131.924 125.057 131.964 125.057C132.064 125.037 132.144 125.027 132.204 125.027C132.264 125.027 132.344 124.977 132.444 124.877C132.564 124.837 132.644 124.797 132.684 124.757C132.744 124.717 132.844 124.587 132.984 124.367C133.124 124.107 133.194 123.757 133.194 123.317C133.194 122.957 133.134 122.677 133.014 122.477C132.894 122.277 132.724 122.127 132.504 122.027C132.304 121.907 132.074 121.837 131.814 121.817C131.554 121.777 131.284 121.757 131.004 121.757C130.444 121.757 129.974 121.837 129.594 121.997C129.434 122.577 129.354 123.247 129.354 124.007C129.354 124.107 129.364 124.237 129.384 124.397C129.404 124.557 129.444 124.707 129.504 124.847C129.584 124.987 129.694 125.107 129.834 125.207C129.994 125.307 130.204 125.357 130.464 125.357ZM149.524 127.667C148.504 127.667 147.594 127.427 146.794 126.947C146.014 126.487 145.464 125.727 145.144 124.667C145.004 124.227 144.904 123.717 144.844 123.137C144.724 122.997 144.644 122.897 144.604 122.837C144.584 122.757 144.564 122.707 144.544 122.687C144.524 122.687 144.514 122.677 144.514 122.657C144.514 122.617 144.484 122.597 144.424 122.597C144.384 122.597 144.354 122.567 144.334 122.507C144.334 122.447 144.334 122.387 144.334 122.327C144.334 122.267 144.334 122.207 144.334 122.147C144.354 122.087 144.364 122.027 144.364 121.967C144.364 121.947 144.374 121.937 144.394 121.937C144.434 121.917 144.464 121.897 144.484 121.877C144.484 121.877 144.624 121.857 144.904 121.817C145.004 121.117 145.224 120.407 145.564 119.687C145.924 118.967 146.374 118.287 146.914 117.647C147.054 117.467 147.264 117.257 147.544 117.017C147.824 116.757 148.144 116.517 148.504 116.297C148.884 116.057 149.274 115.857 149.674 115.697C150.094 115.517 150.514 115.427 150.934 115.427C151.614 115.427 152.214 115.667 152.734 116.147C153.254 116.607 153.514 117.227 153.514 118.007C153.514 118.227 153.484 118.467 153.424 118.727C153.384 118.967 153.324 119.197 153.244 119.417C153.144 119.697 152.994 119.997 152.794 120.317C152.614 120.637 152.414 120.937 152.194 121.217C151.914 121.577 151.614 121.897 151.294 122.177C150.994 122.437 150.654 122.697 150.274 122.957C149.814 123.237 149.344 123.487 148.864 123.707C148.384 123.927 147.914 124.037 147.454 124.037C147.454 124.317 147.524 124.537 147.664 124.697C147.804 124.857 147.974 124.987 148.174 125.087C148.394 125.167 148.634 125.217 148.894 125.237C149.154 125.257 149.404 125.267 149.644 125.267C150.424 125.267 150.984 125.187 151.324 125.027C151.684 124.847 151.944 124.757 152.104 124.757C152.264 124.757 152.364 124.777 152.404 124.817C152.524 124.917 152.594 125.027 152.614 125.147C152.634 125.247 152.644 125.367 152.644 125.507V125.717C152.644 125.837 152.624 125.977 152.584 126.137C152.544 126.317 152.494 126.467 152.434 126.587C152.154 126.967 151.744 127.237 151.204 127.397C150.684 127.577 150.124 127.667 149.524 127.667ZM147.394 121.967C147.774 121.887 148.184 121.717 148.624 121.457C149.084 121.177 149.504 120.867 149.884 120.527C150.284 120.187 150.614 119.837 150.874 119.477C151.134 119.097 151.264 118.757 151.264 118.457C151.264 118.377 151.224 118.287 151.144 118.187C151.064 118.087 150.914 118.037 150.694 118.037C150.354 118.037 150.014 118.147 149.674 118.367C149.334 118.587 149.064 118.827 148.864 119.087C148.624 119.387 148.414 119.657 148.234 119.897C148.074 120.137 147.944 120.367 147.844 120.587C147.744 120.787 147.654 120.997 147.574 121.217C147.514 121.437 147.454 121.687 147.394 121.967Z" fill="white"/>
</g>
<defs>
<radialGradient id="paint0_radial" cx="0" cy="0" r="1" gradientUnits="userSpaceOnUse" gradientTransform="translate(85.463 98.4627) rotate(24.1096) scale(85.5906 96.1628)">
<stop stop-color="#407B9A"/>
<stop offset="0.6453" stop-color="#3682A1"/>
<stop offset="0.9413" stop-color="#C6DDEE" stop-opacity="0.9"/>
<stop offset="1" stop-color="white" stop-opacity="0.9"/>
</radialGradient>
<linearGradient id="paint1_linear" x1="140.442" y1="58.6722" x2="110.009" y2="73.8219" gradientUnits="userSpaceOnUse">
<stop stop-color="white"/>
<stop offset="0.4749" stop-color="#D4EFFD" stop-opacity="0.5"/>
<stop offset="1" stop-color="#3699D6" stop-opacity="0"/>
</linearGradient>
</defs>
</svg>
