<svg width="118" height="103" viewBox="0 0 118 103" fill="none" xmlns="http://www.w3.org/2000/svg">
<path opacity="0.42" d="M80.0008 79.4458C93.2442 77.0571 106.678 68.0654 110.703 59.0105C114.802 49.9929 109.1 44.9041 100.156 37.1185C94.6545 32.3802 84.7106 28.1173 76.859 25.4783C62.2726 20.5869 62.7892 19.1687 45.0362 17.646C37.9766 16.9906 31.7673 17.2593 27.1419 19.2346C23.8083 20.6786 17.5828 24.3718 14.4415 29.7624C7.72549 41.4169 11.6703 58.5272 25.424 68.866C42.6453 82.0132 52.6806 84.3959 80.0008 79.4458Z" fill="url(#paint0_radial)" stroke="white" stroke-width="0.892" stroke-miterlimit="10"/>
<path opacity="0.33" d="M22.354 53.1946C21.7453 51.9718 19.7524 44.8716 20.127 42.0435C20.3934 39.9989 21.2255 31.5373 25.6841 28.3909C29.0093 26.0218 30.2259 24.6998 36.5355 25.7366C37.2356 25.8328 40.6449 27.4402 39.9783 28.784C38.5951 31.1955 34.6618 36.1095 33.6047 44.4594C33.3049 46.5712 33.7059 52.5468 34.2564 54.8291C34.4566 55.9331 35.0906 59.9313 34.4239 60.5215C31.1322 63.5769 23.5629 55.4687 22.354 53.1946Z" fill="url(#paint1_linear)"/>
<path opacity="0.5" d="M26.888 51.024C26.6 50.576 26.304 50.04 26 49.416C25.712 48.792 25.448 48.208 25.208 47.664C25.176 47.584 25.144 47.52 25.112 47.472C25.096 47.424 25.048 47.4 24.968 47.4C24.936 47.448 24.904 47.544 24.872 47.688C24.84 47.816 24.8 47.976 24.752 48.168C24.72 48.344 24.68 48.536 24.632 48.744C24.6 48.936 24.576 49.104 24.56 49.248C24.496 49.728 24.416 50.32 24.32 51.024C24.24 51.712 24.16 52.4 24.08 53.088C24.016 53.776 23.952 54.4 23.888 54.96C23.84 55.504 23.816 55.856 23.816 56.016C23.816 56.24 23.784 56.432 23.72 56.592C23.672 56.736 23.616 56.856 23.552 56.952C23.488 57.032 23.392 57.088 23.264 57.12C23.152 57.168 23.008 57.208 22.832 57.24C22.8 57.24 22.752 57.248 22.688 57.264C22.64 57.28 22.592 57.288 22.544 57.288C22.368 57.288 22.208 57.192 22.064 57C22.032 56.952 21.992 56.904 21.944 56.856C21.912 56.792 21.888 56.728 21.872 56.664C21.824 56.536 21.792 56.416 21.776 56.304C21.776 56.192 21.776 56.096 21.776 56.016C21.76 55.968 21.752 55.888 21.752 55.776C21.752 55.728 21.752 55.68 21.752 55.632C21.752 55.568 21.76 55.504 21.776 55.44L21.872 54.648C21.904 54.424 21.928 54.168 21.944 53.88C21.96 53.592 21.984 53.312 22.016 53.04C22.048 52.752 22.072 52.448 22.088 52.128C22.104 51.808 22.12 51.504 22.136 51.216C22.152 50.912 22.16 50.632 22.16 50.376C22.176 50.12 22.192 49.896 22.208 49.704C22.208 49.528 22.208 49.304 22.208 49.032C22.224 48.76 22.232 48.488 22.232 48.216C22.248 47.944 22.256 47.688 22.256 47.448C22.256 47.192 22.256 47 22.256 46.872C22.256 46.616 22.248 46.424 22.232 46.296C22.216 46.152 22.2 46.04 22.184 45.96C22.184 45.912 22.184 45.864 22.184 45.816C22.184 45.752 22.192 45.688 22.208 45.624L22.304 45.48C22.336 45.448 22.36 45.432 22.376 45.432C22.392 45.432 22.408 45.416 22.424 45.384C22.488 45.32 22.544 45.28 22.592 45.264C22.64 45.216 22.688 45.192 22.736 45.192C22.832 45.192 22.904 45.2 22.952 45.216L23.288 45.6C23.448 45.2 23.664 44.808 23.936 44.424C24.224 44.024 24.52 43.768 24.824 43.656C24.84 43.656 24.848 43.656 24.848 43.656C24.864 43.64 24.888 43.632 24.92 43.632C24.936 43.632 24.952 43.64 24.968 43.656C24.984 43.656 25.008 43.656 25.04 43.656C25.296 43.656 25.496 43.72 25.64 43.848C25.8 43.96 25.944 44.032 26.072 44.064C26.184 44.224 26.304 44.448 26.432 44.736C26.56 45.024 26.688 45.336 26.816 45.672C26.944 46.008 27.08 46.36 27.224 46.728C27.384 47.096 27.544 47.432 27.704 47.736C27.8 47.912 27.904 48.128 28.016 48.384C28.144 48.64 28.272 48.912 28.4 49.2C28.544 49.472 28.68 49.736 28.808 49.992C28.952 50.248 29.072 50.464 29.168 50.64C29.232 50.512 29.328 50.296 29.456 49.992C29.6 49.688 29.752 49.344 29.912 48.96C30.088 48.576 30.256 48.184 30.416 47.784C30.592 47.368 30.752 46.984 30.896 46.632C31.104 46.12 31.328 45.656 31.568 45.24C31.808 44.808 32.016 44.528 32.192 44.4C32.368 44.272 32.544 44.208 32.72 44.208C32.944 44.208 33.168 44.264 33.392 44.376C33.616 44.488 33.792 44.656 33.92 44.88C34.048 45.136 34.144 45.448 34.208 45.816C34.272 46.168 34.344 46.536 34.424 46.92C34.504 47.336 34.592 47.864 34.688 48.504C34.784 49.144 34.88 49.8 34.976 50.472C35.072 51.144 35.16 51.776 35.24 52.368C35.32 52.96 35.392 53.416 35.456 53.736C35.536 54.184 35.616 54.568 35.696 54.888C35.792 55.208 35.888 55.496 35.984 55.752C36.08 55.992 36.176 56.224 36.272 56.448C36.384 56.656 36.504 56.88 36.632 57.12C36.712 57.2 36.792 57.272 36.872 57.336C36.968 57.416 37.056 57.472 37.136 57.504C37.168 57.616 37.232 57.736 37.328 57.864C37.44 57.992 37.544 58.168 37.64 58.392C37.64 58.424 37.632 58.456 37.616 58.488C37.616 58.52 37.616 58.552 37.616 58.584C37.616 58.648 37.616 58.704 37.616 58.752C37.632 58.8 37.64 58.84 37.64 58.872C37.64 58.92 37.624 58.96 37.592 58.992C37.608 59.024 37.616 59.072 37.616 59.136C37.616 59.184 37.608 59.232 37.592 59.28C37.592 59.344 37.592 59.408 37.592 59.472C37.576 59.536 37.56 59.584 37.544 59.616C37.528 59.648 37.504 59.68 37.472 59.712C37.456 59.744 37.448 59.776 37.448 59.808C37.448 59.856 37.44 59.888 37.424 59.904C37.392 59.92 37.36 59.928 37.328 59.928C37.296 59.928 37.272 59.944 37.256 59.976C37.128 60.104 36.968 60.168 36.776 60.168C36.6 60.168 36.384 60.12 36.128 60.024C35.872 59.928 35.648 59.832 35.456 59.736C35.408 59.704 35.368 59.648 35.336 59.568C35.304 59.488 35.264 59.432 35.216 59.4C35.168 59.352 35.128 59.312 35.096 59.28C35.064 59.264 35.024 59.224 34.976 59.16C34.896 59.032 34.8 58.904 34.688 58.776C34.576 58.664 34.496 58.544 34.448 58.416C34.336 58.144 34.224 57.768 34.112 57.288C34 56.824 33.88 56.384 33.752 55.968L33.536 55.128C33.424 54.664 33.328 54.16 33.248 53.616C33.184 53.056 33.12 52.488 33.056 51.912C32.992 51.32 32.928 50.736 32.864 50.16C32.8 49.584 32.728 49.04 32.648 48.528C32.616 48.4 32.592 48.336 32.576 48.336C32.544 48.336 32.52 48.36 32.504 48.408C32.504 48.44 32.488 48.472 32.456 48.504C32.312 48.776 32.136 49.112 31.928 49.512C31.736 49.912 31.528 50.328 31.304 50.76C31.096 51.176 30.88 51.592 30.656 52.008C30.432 52.408 30.224 52.744 30.032 53.016C29.888 53.24 29.72 53.392 29.528 53.472C29.352 53.536 29.176 53.568 29 53.568C28.856 53.568 28.696 53.512 28.52 53.4C28.344 53.288 28.192 53.136 28.064 52.944C27.952 52.768 27.856 52.616 27.776 52.488C27.696 52.344 27.616 52.208 27.536 52.08C27.456 51.936 27.36 51.784 27.248 51.624C27.152 51.464 27.032 51.264 26.888 51.024ZM45.1393 56.16C45.1233 56.24 45.1153 56.312 45.1153 56.376C45.1153 56.424 45.1153 56.48 45.1153 56.544C45.1153 56.624 45.1073 56.696 45.0913 56.76C45.0913 56.808 45.0913 56.864 45.0913 56.928C45.0913 56.96 45.0833 56.992 45.0673 57.024C45.0673 57.072 45.0673 57.112 45.0673 57.144C45.0673 57.208 45.0753 57.256 45.0913 57.288C45.1233 57.336 45.1393 57.392 45.1393 57.456C45.1393 57.52 45.1153 57.6 45.0673 57.696C45.0193 57.792 44.9873 57.872 44.9713 57.936C44.9553 58 44.9233 58.08 44.8753 58.176C44.8273 58.24 44.7793 58.272 44.7313 58.272C44.6993 58.288 44.6433 58.336 44.5633 58.416C44.5153 58.48 44.4353 58.512 44.3233 58.512C44.2593 58.512 44.1953 58.496 44.1313 58.464C44.0993 58.432 44.0513 58.408 43.9873 58.392C43.9233 58.376 43.8673 58.344 43.8193 58.296C43.7553 58.248 43.6913 58.176 43.6273 58.08C43.5953 58.016 43.5313 57.92 43.4353 57.792C43.3873 57.728 43.3313 57.616 43.2673 57.456C43.1713 57.216 43.1233 56.96 43.1233 56.688C43.1233 56.608 43.1233 56.512 43.1233 56.4C43.1233 56.288 43.1313 56.192 43.1473 56.112C43.1473 56.016 43.1553 55.912 43.1713 55.8C43.0433 55.96 42.8913 56.144 42.7153 56.352C42.5393 56.544 42.3393 56.728 42.1153 56.904C41.8913 57.08 41.6353 57.224 41.3473 57.336C41.0753 57.464 40.7713 57.528 40.4353 57.528C40.1473 57.528 39.8833 57.456 39.6433 57.312C39.4033 57.184 39.1953 57.008 39.0193 56.784C38.8593 56.56 38.7313 56.296 38.6353 55.992C38.5393 55.688 38.4913 55.376 38.4913 55.056C38.4913 54.56 38.5553 54.088 38.6833 53.64C38.8273 53.192 39.0193 52.76 39.2593 52.344L39.5233 51.96C39.5393 51.928 39.6033 51.856 39.7153 51.744C39.8273 51.616 39.9473 51.48 40.0753 51.336C40.2033 51.192 40.3393 51.056 40.4833 50.928C40.6273 50.8 40.7473 50.696 40.8433 50.616L41.2273 50.328C41.4673 50.184 41.7393 50.032 42.0433 49.872C42.2833 49.76 42.4673 49.696 42.5953 49.68C42.7393 49.648 42.8833 49.632 43.0273 49.632C43.3633 49.632 43.6913 49.696 44.0113 49.824C44.3473 49.952 44.6353 50.112 44.8753 50.304C44.9073 50.608 44.9233 50.936 44.9233 51.288C44.9393 51.64 44.9553 51.976 44.9713 52.296C45.0033 52.856 45.0353 53.416 45.0673 53.976C45.1153 54.536 45.1393 55.12 45.1393 55.728V56.16ZM42.8113 51.72C42.4113 51.8 42.0353 51.976 41.6833 52.248C41.3473 52.52 41.0753 52.816 40.8673 53.136C40.7073 53.376 40.5793 53.632 40.4833 53.904C40.4033 54.16 40.3633 54.448 40.3633 54.768C40.3633 54.944 40.4033 55.088 40.4833 55.2C40.5633 55.296 40.6753 55.344 40.8193 55.344C41.0273 55.344 41.2353 55.288 41.4433 55.176C41.6673 55.048 41.8673 54.904 42.0433 54.744C42.2193 54.568 42.3713 54.392 42.4993 54.216C42.6433 54.024 42.7393 53.864 42.7873 53.736C42.8513 53.592 42.9153 53.448 42.9793 53.304C43.0433 53.16 43.0993 52.928 43.1473 52.608C43.1633 52.528 43.1713 52.408 43.1713 52.248C43.1873 52.088 43.1953 51.944 43.1953 51.816C43.0993 51.752 42.9713 51.72 42.8113 51.72ZM57.2553 58.224C57.0953 58.224 56.9113 58.176 56.7033 58.08C56.5113 58 56.4153 57.848 56.4153 57.624C56.2873 57.624 56.1593 57.456 56.0313 57.12C55.9193 56.8 55.8153 56.376 55.7193 55.848C55.6233 55.304 55.5353 54.704 55.4553 54.048C55.3753 53.376 55.3113 52.704 55.2633 52.032L54.1593 55.032C54.0313 55.432 53.7593 55.632 53.3433 55.632C53.1353 55.632 52.9673 55.592 52.8393 55.512C52.7273 55.432 52.5993 55.264 52.4553 55.008C52.1833 54.512 51.9033 53.936 51.6153 53.28C51.3273 52.608 51.0873 52.024 50.8953 51.528C50.8153 51.896 50.7353 52.28 50.6553 52.68C50.5913 53.08 50.5353 53.48 50.4873 53.88C50.4233 54.344 50.3833 54.784 50.3673 55.2C50.3513 55.616 50.3273 55.96 50.2953 56.232C50.2793 56.312 50.2633 56.368 50.2473 56.4C50.2473 56.432 50.2393 56.464 50.2233 56.496C50.2073 56.528 50.1833 56.544 50.1513 56.544C50.1833 56.592 50.2153 56.648 50.2473 56.712C50.2793 56.776 50.2953 56.84 50.2953 56.904C50.2953 57.08 50.2553 57.24 50.1753 57.384C50.1113 57.528 50.0393 57.616 49.9593 57.648C49.9113 57.776 49.8313 57.856 49.7193 57.888C49.6073 57.936 49.4873 57.96 49.3593 57.96C49.2793 57.96 49.1913 57.944 49.0953 57.912C49.0153 57.88 48.9433 57.864 48.8793 57.864C48.8473 57.864 48.8233 57.864 48.8073 57.864C48.7913 57.88 48.7753 57.888 48.7593 57.888C48.7273 57.888 48.7033 57.872 48.6873 57.84C48.6713 57.808 48.6473 57.784 48.6153 57.768C48.5513 57.736 48.4873 57.664 48.4233 57.552C48.3913 57.52 48.3673 57.496 48.3513 57.48C48.3353 57.464 48.3193 57.424 48.3033 57.36C48.2713 57.232 48.2553 57.12 48.2553 57.024C48.2553 56.896 48.2793 56.736 48.3273 56.544C48.3753 56.352 48.4073 56.144 48.4233 55.92C48.4553 55.504 48.5033 55.016 48.5673 54.456C48.6313 53.88 48.7033 53.296 48.7833 52.704C48.8633 52.112 48.9513 51.536 49.0473 50.976C49.1593 50.416 49.2713 49.928 49.3833 49.512C49.4153 49.368 49.4553 49.224 49.5033 49.08C49.5513 48.936 49.6153 48.816 49.6953 48.72C49.7913 48.608 49.9033 48.52 50.0313 48.456C50.1753 48.376 50.3593 48.336 50.5833 48.336C50.8233 48.336 50.9993 48.392 51.1113 48.504C51.2233 48.6 51.3353 48.752 51.4473 48.96C51.5913 49.28 51.7673 49.68 51.9753 50.16C52.1993 50.64 52.4073 51.104 52.5993 51.552C52.8233 52.08 53.0553 52.624 53.2953 53.184C53.4713 52.624 53.6633 52.048 53.8713 51.456C54.0953 50.848 54.2953 50.304 54.4713 49.824C54.5353 49.664 54.6073 49.52 54.6873 49.392C54.7673 49.248 54.9033 49.136 55.0953 49.056C55.2553 48.816 55.4713 48.696 55.7433 48.696C55.8713 48.696 55.9833 48.712 56.0793 48.744C56.1913 48.776 56.2953 48.808 56.3913 48.84C56.4873 48.872 56.5673 48.92 56.6313 48.984C56.6953 49.048 56.7513 49.12 56.7993 49.2C56.8313 49.248 56.8633 49.328 56.8953 49.44C56.9273 49.552 56.9513 49.672 56.9673 49.8C56.9993 49.912 57.0153 50.024 57.0153 50.136C57.0313 50.248 57.0393 50.336 57.0393 50.4C57.0713 50.912 57.0953 51.4 57.1113 51.864C57.1433 52.312 57.1993 52.816 57.2793 53.376C57.3593 53.936 57.4553 54.464 57.5673 54.96C57.6793 55.456 57.8553 55.912 58.0953 56.328C58.1753 56.424 58.2313 56.52 58.2633 56.616C58.2953 56.712 58.3113 56.872 58.3113 57.096C58.3113 57.256 58.2953 57.368 58.2633 57.432C58.2313 57.496 58.1833 57.552 58.1193 57.6C58.1193 57.744 58.0633 57.856 57.9513 57.936C57.8873 57.984 57.8233 58.016 57.7593 58.032C57.7113 58.048 57.6473 58.072 57.5673 58.104C57.5193 58.12 57.4713 58.144 57.4233 58.176C57.3753 58.208 57.3193 58.224 57.2553 58.224ZM63.4912 57.48C63.0272 57.48 62.6272 57.4 62.2912 57.24C61.9712 57.08 61.7072 56.872 61.4992 56.616C61.2912 56.344 61.1312 56.056 61.0192 55.752C60.9232 55.432 60.8752 55.112 60.8752 54.792C60.8752 54.296 60.9712 53.84 61.1632 53.424C61.3552 52.992 61.5872 52.592 61.8592 52.224C61.9552 52.096 62.0672 51.952 62.1952 51.792C62.3392 51.616 62.4832 51.456 62.6272 51.312C62.7872 51.152 62.9392 51.008 63.0832 50.88C63.2272 50.752 63.3552 50.664 63.4672 50.616C63.6912 50.504 63.8512 50.4 63.9472 50.304C64.0592 50.192 64.2112 50.136 64.4032 50.136C64.7872 50.136 65.1312 50.232 65.4352 50.424C65.7392 50.6 65.9952 50.84 66.2032 51.144C66.4112 51.448 66.5632 51.792 66.6592 52.176C66.7712 52.56 66.8272 52.952 66.8272 53.352C66.8272 54.616 66.5472 55.624 65.9872 56.376C65.4272 57.112 64.5952 57.48 63.4912 57.48ZM64.0672 52.2C64.0032 52.2 63.9392 52.208 63.8752 52.224C63.8112 52.224 63.7552 52.248 63.7072 52.296C63.5792 52.424 63.4752 52.544 63.3952 52.656C63.3152 52.752 63.2112 52.912 63.0832 53.136C63.0032 53.28 62.9312 53.472 62.8672 53.712C62.8192 53.936 62.7952 54.184 62.7952 54.456C62.7952 54.728 62.8672 54.952 63.0112 55.128C63.1552 55.288 63.3872 55.368 63.7072 55.368C63.8992 55.368 64.0912 55.32 64.2832 55.224C64.4752 55.112 64.6432 54.968 64.7872 54.792C64.9312 54.616 65.0512 54.408 65.1472 54.168C65.2432 53.928 65.2912 53.672 65.2912 53.4C65.2912 53.096 65.1952 52.824 65.0032 52.584C64.8112 52.328 64.5712 52.2 64.2832 52.2H64.0672ZM75.5851 58.008C75.2651 58.008 75.1051 57.712 75.1051 57.12C75.1051 56.976 75.1051 56.816 75.1051 56.64C75.1211 56.464 75.1531 56.28 75.2011 56.088C75.2331 55.912 75.2651 55.744 75.2971 55.584C75.3291 55.424 75.3531 55.192 75.3691 54.888C75.3691 54.664 75.3691 54.456 75.3691 54.264C75.3691 54.056 75.3771 53.864 75.3931 53.688C75.1531 53.704 74.8891 53.72 74.6011 53.736C74.3291 53.736 74.0731 53.744 73.8331 53.76C73.5931 53.76 73.3771 53.768 73.1851 53.784C73.0091 53.784 72.8971 53.784 72.8491 53.784C72.7531 53.8 72.6171 53.816 72.4411 53.832C72.2651 53.832 72.0651 53.832 71.8411 53.832V54C71.8411 54.128 71.8411 54.312 71.8411 54.552C71.8571 54.792 71.8651 55.048 71.8651 55.32C71.8651 55.384 71.8651 55.488 71.8651 55.632C71.8651 55.776 71.8491 56.12 71.8171 56.664C71.8171 57.016 71.7691 57.296 71.6731 57.504C71.6571 57.536 71.6251 57.568 71.5771 57.6C71.5451 57.632 71.5211 57.664 71.5051 57.696C71.4731 57.728 71.4491 57.768 71.4331 57.816C71.4331 57.864 71.4171 57.904 71.3851 57.936C71.2571 58.032 71.0891 58.08 70.8811 58.08C70.8011 58.08 70.7211 58.072 70.6411 58.056C70.5611 58.056 70.4891 58.056 70.4251 58.056C70.1531 58.056 69.9851 57.984 69.9211 57.84C69.8731 57.712 69.8491 57.416 69.8491 56.952C69.8491 56.872 69.8491 56.744 69.8491 56.568C69.8651 56.376 69.8811 56.24 69.8971 56.16C69.9451 55.712 69.9771 55.36 69.9931 55.104C70.0091 54.832 70.0171 54.536 70.0171 54.216V53.88C69.9371 53.896 69.8651 53.904 69.8011 53.904C69.7371 53.904 69.6731 53.904 69.6091 53.904C69.5451 53.904 69.4811 53.912 69.4171 53.928C69.4011 53.896 69.3611 53.864 69.2971 53.832C69.2491 53.8 69.2251 53.72 69.2251 53.592C69.2251 53.48 69.2091 53.392 69.1771 53.328C69.1611 53.248 69.1531 53.168 69.1531 53.088C69.1531 52.96 69.1851 52.84 69.2491 52.728C69.3131 52.6 69.3851 52.496 69.4651 52.416C69.5451 52.336 69.6331 52.288 69.7291 52.272C69.8411 52.24 69.9451 52.216 70.0411 52.2C70.0571 51.8 70.0731 51.376 70.0891 50.928C70.1211 50.464 70.1531 49.984 70.1851 49.488C70.2171 49.216 70.2411 48.976 70.2571 48.768C70.2891 48.56 70.3691 48.392 70.4971 48.264C70.5931 48.184 70.6811 48.128 70.7611 48.096C70.8411 48.064 70.9691 48.048 71.1451 48.048C71.5451 48.048 71.8091 48.152 71.9371 48.36C72.0811 48.552 72.1531 48.864 72.1531 49.296C72.1531 49.408 72.1451 49.52 72.1291 49.632C72.1131 49.744 72.0891 49.864 72.0571 49.992C72.0411 50.104 72.0331 50.232 72.0331 50.376C72.0331 50.504 72.0251 50.64 72.0091 50.784C72.0091 50.928 72.0091 51.072 72.0091 51.216L71.9611 52.104C72.1051 52.104 72.2171 52.096 72.2971 52.08L75.4891 51.888V51.648C75.4891 51.52 75.4891 51.392 75.4891 51.264C75.5051 51.136 75.5131 51.008 75.5131 50.88L75.4411 49.56C75.4571 49.208 75.5131 48.92 75.6091 48.696C75.7051 48.456 75.8811 48.296 76.1371 48.216C76.1531 48.216 76.1931 48.208 76.2571 48.192C76.2891 48.192 76.3371 48.192 76.4011 48.192C76.4811 48.176 76.5611 48.168 76.6411 48.168C76.7371 48.168 76.8251 48.176 76.9051 48.192C76.9851 48.208 77.0811 48.248 77.1931 48.312C77.3211 48.392 77.3851 48.488 77.3851 48.6C77.3851 48.632 77.3931 48.664 77.4091 48.696C77.4411 48.728 77.4571 48.76 77.4571 48.792C77.4571 48.888 77.4731 48.96 77.5051 49.008C77.5371 49.04 77.5531 49.104 77.5531 49.2C77.5531 49.232 77.5451 49.272 77.5291 49.32C77.5291 49.368 77.5291 49.408 77.5291 49.44C77.5451 49.456 77.5531 49.52 77.5531 49.632C77.5531 49.712 77.5451 49.784 77.5291 49.848C77.5291 49.912 77.5211 49.984 77.5051 50.064C77.4731 50.288 77.4331 50.584 77.3851 50.952C77.3371 51.304 77.2971 51.64 77.2651 51.96C77.2331 52.392 77.2011 53.008 77.1691 53.808C77.1371 54.608 77.1211 55.536 77.1211 56.592C77.1211 57.008 77.0811 57.328 77.0011 57.552C76.9371 57.776 76.6811 57.92 76.2331 57.984C76.1371 58 76.0331 58.008 75.9211 58.008C75.8251 58.008 75.7131 58.008 75.5851 58.008ZM84.1466 58.32C84.0186 58.32 83.8986 58.312 83.7866 58.296C83.6746 58.296 83.5786 58.28 83.4986 58.248C83.4186 58.216 83.3466 58.192 83.2826 58.176C83.2346 58.16 83.1946 58.112 83.1626 58.032C83.1306 57.952 83.1066 57.832 83.0906 57.672C83.0746 57.528 83.0666 57.384 83.0666 57.24C83.0666 56.888 83.0746 56.592 83.0906 56.352C83.1226 56.096 83.1546 55.872 83.1866 55.68C83.2186 55.488 83.2426 55.312 83.2586 55.152C83.2906 54.992 83.3066 54.816 83.3066 54.624C83.3066 53.984 83.3066 53.464 83.3066 53.064C83.3066 52.648 83.3066 52.304 83.3066 52.032C83.3226 51.744 83.3386 51.504 83.3546 51.312C83.3706 51.104 83.3866 50.888 83.4026 50.664L81.5306 50.832C81.3546 50.848 81.1466 50.872 80.9066 50.904C80.6826 50.936 80.5226 50.952 80.4266 50.952C80.3146 50.952 80.2266 50.928 80.1626 50.88C80.1146 50.848 80.0746 50.808 80.0426 50.76C80.0106 50.712 79.9786 50.672 79.9466 50.64C79.8826 50.576 79.8426 50.496 79.8266 50.4C79.8106 50.304 79.8026 50.208 79.8026 50.112C79.7866 50.048 79.7706 50 79.7546 49.968C79.7546 49.936 79.7546 49.896 79.7546 49.848C79.7546 49.736 79.7866 49.632 79.8506 49.536C79.8826 49.488 79.8986 49.44 79.8986 49.392C79.9146 49.344 79.9386 49.304 79.9706 49.272C80.1626 49.192 80.3786 49.136 80.6186 49.104C80.8586 49.056 81.0906 49.016 81.3146 48.984C81.5066 48.952 81.7226 48.92 81.9626 48.888C82.2026 48.856 82.4346 48.824 82.6586 48.792C82.8986 48.76 83.1146 48.736 83.3066 48.72C83.4986 48.704 83.6506 48.688 83.7626 48.672C84.7546 48.576 85.5226 48.504 86.0666 48.456C86.6266 48.408 87.0346 48.376 87.2906 48.36C87.5626 48.328 87.7306 48.312 87.7946 48.312C87.8586 48.296 87.8986 48.288 87.9146 48.288C87.9946 48.288 88.0666 48.296 88.1306 48.312C88.1946 48.312 88.2666 48.312 88.3466 48.312C88.4106 48.312 88.4506 48.352 88.4666 48.432C88.4986 48.496 88.5386 48.568 88.5866 48.648C88.6346 48.728 88.6746 48.792 88.7066 48.84C88.7546 48.872 88.7786 48.912 88.7786 48.96C88.7786 49.024 88.7706 49.08 88.7546 49.128C88.7386 49.176 88.7306 49.24 88.7306 49.32C88.7306 49.368 88.7306 49.432 88.7306 49.512C88.7466 49.576 88.7546 49.632 88.7546 49.68C88.7546 49.792 88.6906 49.888 88.5626 49.968C88.4986 50 88.4586 50.048 88.4426 50.112C88.4266 50.16 88.3786 50.2 88.2986 50.232C88.0586 50.344 87.6586 50.4 87.0986 50.4C86.7946 50.4 86.4906 50.408 86.1866 50.424C85.8826 50.44 85.5946 50.464 85.3226 50.496C85.3066 50.592 85.2986 50.736 85.2986 50.928C85.2986 51.12 85.2906 51.4 85.2746 51.768L85.2266 52.608C85.2106 52.752 85.1946 52.944 85.1786 53.184C85.1626 53.424 85.1466 53.688 85.1306 53.976C85.1146 54.248 85.0986 54.52 85.0826 54.792C85.0826 55.064 85.0826 55.296 85.0826 55.488C85.0826 55.664 85.0826 55.88 85.0826 56.136C85.0986 56.376 85.1066 56.656 85.1066 56.976C85.1066 57.136 85.0986 57.296 85.0826 57.456C85.0666 57.616 85.0346 57.752 84.9866 57.864C84.9546 57.912 84.9306 57.952 84.9146 57.984C84.9146 58.032 84.8986 58.072 84.8666 58.104C84.8506 58.12 84.7786 58.144 84.6506 58.176C84.6186 58.192 84.5786 58.208 84.5306 58.224C84.4986 58.256 84.4666 58.272 84.4346 58.272C84.4026 58.272 84.3546 58.28 84.2906 58.296C84.2426 58.312 84.1946 58.32 84.1466 58.32ZM100.693 58.104C100.661 58.104 100.621 58.096 100.573 58.08C100.525 58.08 100.485 58.08 100.453 58.08C100.389 58.08 100.325 58.072 100.261 58.056C100.197 58.056 100.125 58.056 100.045 58.056C100.013 58.056 99.9891 58.048 99.9731 58.032C99.9571 58.016 99.9331 58.008 99.9011 58.008C99.8371 57.944 99.7811 57.904 99.7331 57.888C99.6851 57.888 99.6371 57.864 99.5891 57.816C99.5571 57.784 99.5411 57.744 99.5411 57.696C99.5411 57.648 99.5251 57.608 99.4931 57.576C99.4611 57.544 99.4291 57.512 99.3971 57.48C99.3651 57.448 99.3491 57.4 99.3491 57.336C99.3491 56.584 99.3731 55.984 99.4211 55.536C99.4851 55.088 99.5251 54.664 99.5411 54.264L99.6131 52.248C99.6291 51.88 99.6451 51.496 99.6611 51.096C99.6931 50.68 99.7251 50.248 99.7571 49.8C99.7891 49.576 99.8131 49.368 99.8291 49.176C99.8611 48.984 99.9011 48.816 99.9491 48.672C99.9811 48.576 100.013 48.504 100.045 48.456C100.077 48.408 100.141 48.352 100.237 48.288C100.269 48.256 100.301 48.224 100.333 48.192C100.381 48.144 100.437 48.12 100.501 48.12C100.533 48.12 100.565 48.128 100.597 48.144C100.645 48.144 100.693 48.144 100.741 48.144C100.789 48.144 100.837 48.136 100.885 48.12C100.949 48.104 100.997 48.096 101.029 48.096C101.109 48.096 101.213 48.112 101.341 48.144C101.421 48.176 101.477 48.232 101.509 48.312C101.541 48.328 101.589 48.4 101.653 48.528C101.717 48.624 101.749 48.76 101.749 48.936C101.749 49.32 101.733 49.736 101.701 50.184C101.669 50.632 101.613 51.184 101.533 51.84L101.293 54.072C101.293 54.392 101.301 54.696 101.317 54.984C101.333 55.272 101.341 55.504 101.341 55.68C101.341 55.744 101.333 55.832 101.317 55.944C101.317 56.056 101.317 56.168 101.317 56.28C101.301 56.424 101.293 56.568 101.293 56.712C101.293 56.84 101.277 56.984 101.245 57.144C101.229 57.304 101.205 57.432 101.173 57.528C101.173 57.64 101.165 57.728 101.149 57.792C101.101 57.936 101.013 58.008 100.885 58.008C100.869 58.04 100.837 58.064 100.789 58.08C100.757 58.096 100.725 58.104 100.693 58.104ZM93.5411 58.224C93.1571 58.224 92.7731 58.184 92.3891 58.104C92.0211 58.024 91.6851 57.896 91.3811 57.72C91.0931 57.544 90.8531 57.304 90.6611 57C90.4851 56.696 90.3971 56.32 90.3971 55.872C90.3971 55.472 90.4131 55.048 90.4451 54.6C90.4931 54.136 90.5491 53.672 90.6131 53.208C90.6771 52.744 90.7411 52.296 90.8051 51.864C90.8851 51.416 90.9491 51.008 90.9971 50.64C91.0291 50.384 91.0611 50.112 91.0931 49.824C91.1411 49.52 91.1891 49.28 91.2371 49.104C91.3011 48.896 91.4051 48.72 91.5491 48.576C91.6291 48.496 91.7331 48.456 91.8611 48.456C91.8931 48.456 91.9251 48.448 91.9571 48.432C92.0051 48.4 92.0451 48.384 92.0771 48.384C92.1091 48.384 92.1411 48.392 92.1731 48.408C92.2211 48.408 92.2611 48.408 92.2931 48.408C92.3411 48.408 92.3891 48.4 92.4371 48.384C92.4851 48.368 92.5251 48.36 92.5571 48.36C92.7011 48.36 92.8451 48.408 92.9891 48.504C93.1331 48.584 93.2451 48.712 93.3251 48.888C93.3571 48.952 93.3731 49.072 93.3731 49.248C93.3731 49.472 93.3171 49.664 93.2051 49.824C93.0931 49.968 93.0211 50.168 92.9891 50.424L92.7491 52.032C92.8611 52.016 92.9891 51.992 93.1331 51.96C93.2611 51.928 93.4051 51.904 93.5651 51.888C93.7251 51.872 93.9171 51.864 94.1411 51.864C94.6371 51.864 95.1011 51.912 95.5331 52.008C95.9651 52.088 96.3411 52.256 96.6611 52.512C96.7411 52.576 96.8211 52.664 96.9011 52.776C96.9971 52.888 97.0451 52.992 97.0451 53.088C97.0931 53.12 97.1411 53.16 97.1891 53.208C97.2211 53.24 97.2531 53.288 97.2851 53.352C97.3331 53.416 97.3651 53.488 97.3811 53.568C97.3811 53.84 97.4131 54.072 97.4771 54.264C97.5411 54.44 97.5731 54.656 97.5731 54.912C97.5731 55.44 97.4611 55.912 97.2371 56.328C97.0291 56.744 96.7411 57.088 96.3731 57.36C96.0211 57.648 95.5971 57.864 95.1011 58.008C94.6051 58.152 94.0851 58.224 93.5411 58.224ZM93.2771 56.472C93.4371 56.472 93.5891 56.472 93.7331 56.472C93.8771 56.472 94.0131 56.456 94.1411 56.424L94.2851 56.328C94.3171 56.312 94.3491 56.296 94.3811 56.28C94.4131 56.248 94.4451 56.232 94.4771 56.232C94.5571 56.216 94.6211 56.208 94.6691 56.208C94.7171 56.208 94.7811 56.168 94.8611 56.088C94.9571 56.056 95.0211 56.024 95.0531 55.992C95.1011 55.96 95.1811 55.856 95.2931 55.68C95.4051 55.472 95.4611 55.192 95.4611 54.84C95.4611 54.552 95.4131 54.328 95.3171 54.168C95.2211 54.008 95.0851 53.888 94.9091 53.808C94.7491 53.712 94.5651 53.656 94.3571 53.64C94.1491 53.608 93.9331 53.592 93.7091 53.592C93.2611 53.592 92.8851 53.656 92.5811 53.784C92.4531 54.248 92.3891 54.784 92.3891 55.392C92.3891 55.472 92.3971 55.576 92.4131 55.704C92.4291 55.832 92.4611 55.952 92.5091 56.064C92.5731 56.176 92.6611 56.272 92.7731 56.352C92.9011 56.432 93.0691 56.472 93.2771 56.472Z" fill="white"/>
<defs>
<radialGradient id="paint0_radial" cx="0" cy="0" r="1" gradientUnits="userSpaceOnUse" gradientTransform="translate(62.8437 50.5331) rotate(-95.8685) scale(33.7957 50.394)">
<stop stop-color="#407B9A"/>
<stop offset="0.6453" stop-color="#3682A1"/>
<stop offset="0.9413" stop-color="#C6DDEE" stop-opacity="0.8"/>
<stop offset="1" stop-color="white" stop-opacity="0.8"/>
</radialGradient>
<linearGradient id="paint1_linear" x1="22.9476" y1="39.4438" x2="42.7952" y2="47.2286" gradientUnits="userSpaceOnUse">
<stop stop-color="white"/>
<stop offset="0.4749" stop-color="#D4EFFD" stop-opacity="0.5"/>
<stop offset="1" stop-color="#3699D6" stop-opacity="0"/>
</linearGradient>
</defs>
</svg>
