<svg width="187" height="162" viewBox="0 0 187 162" fill="none" xmlns="http://www.w3.org/2000/svg">
<path opacity="0.3" d="M15.6923 118.719C23.7967 135.675 49.0857 150.776 72.8738 153.337C96.7369 155.986 120.15 148.833 139.06 134.35C150.541 125.696 162.548 112.184 168.251 100.792C178.907 80.0396 182.509 72.7099 175.08 52.7518C171.703 43.8325 164.799 38.0041 159.021 32.7938C154.819 28.7315 133.882 14.6903 126.528 12.6591C98.0876 4.44633 70.0972 6.38913 45.3336 27.9368C13.8913 55.0479 -1.04191 84.2785 15.6923 118.719Z" fill="url(#paint0_radial)" stroke="white" stroke-width="15.8575" stroke-miterlimit="10"/>
<path opacity="0.39" d="M126.9 25.8338C129.017 25.4812 139.75 26.3627 143.302 28.6546C145.948 30.3294 157.059 36.9405 159.024 46.3724C160.384 53.5124 161.669 56.4213 156.681 66.5584C156.152 67.6161 152.146 72.4643 150.709 70.525C148.291 66.8228 143.529 56.9502 132.72 50.1627C130.075 48.4879 121.685 45.4028 118.208 44.962C116.696 44.7857 110.649 43.2872 110.271 41.7887C107.777 34.6486 123.196 26.3627 126.9 25.8338Z" fill="url(#paint1_linear)"/>
<g opacity="0.5">
<path d="M38.036 78.068C37.7 77.5454 37.3547 76.92 37 76.192C36.664 75.464 36.356 74.7827 36.076 74.148C36.0387 74.0547 36.0013 73.98 35.964 73.924C35.9453 73.868 35.8893 73.84 35.796 73.84C35.7587 73.896 35.7213 74.008 35.684 74.176C35.6467 74.3254 35.6 74.512 35.544 74.736C35.5067 74.9414 35.46 75.1654 35.404 75.408C35.3667 75.632 35.3387 75.828 35.32 75.996C35.2453 76.556 35.152 77.2467 35.04 78.068C34.9467 78.8707 34.8533 79.6734 34.76 80.476C34.6853 81.2787 34.6107 82.0067 34.536 82.66C34.48 83.2947 34.452 83.7054 34.452 83.892C34.452 84.1534 34.4147 84.3774 34.34 84.564C34.284 84.732 34.2187 84.872 34.144 84.984C34.0693 85.0774 33.9573 85.1427 33.808 85.18C33.6773 85.236 33.5093 85.2827 33.304 85.32C33.2667 85.32 33.2107 85.3294 33.136 85.348C33.08 85.3667 33.024 85.376 32.968 85.376C32.7627 85.376 32.576 85.264 32.408 85.04C32.3707 84.984 32.324 84.928 32.268 84.872C32.2307 84.7974 32.2027 84.7227 32.184 84.648C32.128 84.4987 32.0907 84.3587 32.072 84.228C32.072 84.0974 32.072 83.9854 32.072 83.892C32.0533 83.836 32.044 83.7427 32.044 83.612C32.044 83.556 32.044 83.5 32.044 83.444C32.044 83.3694 32.0533 83.2947 32.072 83.22L32.184 82.296C32.2213 82.0347 32.2493 81.736 32.268 81.4C32.2867 81.064 32.3147 80.7374 32.352 80.42C32.3893 80.084 32.4173 79.7294 32.436 79.356C32.4547 78.9827 32.4733 78.628 32.492 78.292C32.5107 77.9374 32.52 77.6107 32.52 77.312C32.5387 77.0134 32.5573 76.752 32.576 76.528C32.576 76.3227 32.576 76.0614 32.576 75.744C32.5947 75.4267 32.604 75.1094 32.604 74.792C32.6227 74.4747 32.632 74.176 32.632 73.896C32.632 73.5974 32.632 73.3734 32.632 73.224C32.632 72.9254 32.6227 72.7014 32.604 72.552C32.5853 72.384 32.5667 72.2534 32.548 72.16C32.548 72.104 32.548 72.048 32.548 71.992C32.548 71.9174 32.5573 71.8427 32.576 71.768L32.688 71.6C32.7253 71.5627 32.7533 71.544 32.772 71.544C32.7907 71.544 32.8093 71.5254 32.828 71.488C32.9027 71.4134 32.968 71.3667 33.024 71.348C33.08 71.292 33.136 71.264 33.192 71.264C33.304 71.264 33.388 71.2734 33.444 71.292L33.836 71.74C34.0227 71.2734 34.2747 70.816 34.592 70.368C34.928 69.9014 35.2733 69.6027 35.628 69.472C35.6467 69.472 35.656 69.472 35.656 69.472C35.6747 69.4534 35.7027 69.444 35.74 69.444C35.7587 69.444 35.7773 69.4534 35.796 69.472C35.8147 69.472 35.8427 69.472 35.88 69.472C36.1787 69.472 36.412 69.5467 36.58 69.696C36.7667 69.8267 36.9347 69.9107 37.084 69.948C37.2147 70.1347 37.3547 70.396 37.504 70.732C37.6533 71.068 37.8027 71.432 37.952 71.824C38.1013 72.216 38.26 72.6267 38.428 73.056C38.6147 73.4854 38.8013 73.8774 38.988 74.232C39.1 74.4374 39.2213 74.6894 39.352 74.988C39.5013 75.2867 39.6507 75.604 39.8 75.94C39.968 76.2574 40.1267 76.5654 40.276 76.864C40.444 77.1627 40.584 77.4147 40.696 77.62C40.7707 77.4707 40.8827 77.2187 41.032 76.864C41.2 76.5094 41.3773 76.108 41.564 75.66C41.7693 75.212 41.9653 74.7547 42.152 74.288C42.3573 73.8027 42.544 73.3547 42.712 72.944C42.9547 72.3467 43.216 71.8054 43.496 71.32C43.776 70.816 44.0187 70.4894 44.224 70.34C44.4293 70.1907 44.6347 70.116 44.84 70.116C45.1013 70.116 45.3627 70.1814 45.624 70.312C45.8853 70.4427 46.0907 70.6387 46.24 70.9C46.3893 71.1987 46.5013 71.5627 46.576 71.992C46.6507 72.4027 46.7347 72.832 46.828 73.28C46.9213 73.7654 47.024 74.3814 47.136 75.128C47.248 75.8747 47.36 76.64 47.472 77.424C47.584 78.208 47.6867 78.9454 47.78 79.636C47.8733 80.3267 47.9573 80.8587 48.032 81.232C48.1253 81.7547 48.2187 82.2027 48.312 82.576C48.424 82.9494 48.536 83.2854 48.648 83.584C48.76 83.864 48.872 84.1347 48.984 84.396C49.1147 84.6387 49.2547 84.9 49.404 85.18C49.4973 85.2734 49.5907 85.3574 49.684 85.432C49.796 85.5254 49.8987 85.5907 49.992 85.628C50.0293 85.7587 50.104 85.8987 50.216 86.048C50.3467 86.1974 50.468 86.4027 50.58 86.664C50.58 86.7014 50.5707 86.7387 50.552 86.776C50.552 86.8134 50.552 86.8507 50.552 86.888C50.552 86.9627 50.552 87.028 50.552 87.084C50.5707 87.14 50.58 87.1867 50.58 87.224C50.58 87.28 50.5613 87.3267 50.524 87.364C50.5427 87.4014 50.552 87.4574 50.552 87.532C50.552 87.588 50.5427 87.644 50.524 87.7C50.524 87.7747 50.524 87.8494 50.524 87.924C50.5053 87.9987 50.4867 88.0547 50.468 88.092C50.4493 88.1294 50.4213 88.1667 50.384 88.204C50.3653 88.2414 50.356 88.2787 50.356 88.316C50.356 88.372 50.3467 88.4094 50.328 88.428C50.2907 88.4467 50.2533 88.456 50.216 88.456C50.1787 88.456 50.1507 88.4747 50.132 88.512C49.9827 88.6614 49.796 88.736 49.572 88.736C49.3667 88.736 49.1147 88.68 48.816 88.568C48.5173 88.456 48.256 88.344 48.032 88.232C47.976 88.1947 47.9293 88.1294 47.892 88.036C47.8547 87.9427 47.808 87.8774 47.752 87.84C47.696 87.784 47.6493 87.7374 47.612 87.7C47.5747 87.6814 47.528 87.6347 47.472 87.56C47.3787 87.4107 47.2667 87.2614 47.136 87.112C47.0053 86.9814 46.912 86.8414 46.856 86.692C46.7253 86.3747 46.5947 85.936 46.464 85.376C46.3333 84.8347 46.1933 84.3214 46.044 83.836L45.792 82.856C45.6613 82.3147 45.5493 81.7267 45.456 81.092C45.3813 80.4387 45.3067 79.776 45.232 79.104C45.1573 78.4134 45.0827 77.732 45.008 77.06C44.9333 76.388 44.8493 75.7534 44.756 75.156C44.7187 75.0067 44.6907 74.932 44.672 74.932C44.6347 74.932 44.6067 74.96 44.588 75.016C44.588 75.0534 44.5693 75.0907 44.532 75.128C44.364 75.4454 44.1587 75.8374 43.916 76.304C43.692 76.7707 43.4493 77.256 43.188 77.76C42.9453 78.2454 42.6933 78.7307 42.432 79.216C42.1707 79.6827 41.928 80.0747 41.704 80.392C41.536 80.6534 41.34 80.8307 41.116 80.924C40.9107 80.9987 40.7053 81.036 40.5 81.036C40.332 81.036 40.1453 80.9707 39.94 80.84C39.7347 80.7094 39.5573 80.532 39.408 80.308C39.2773 80.1027 39.1653 79.9254 39.072 79.776C38.9787 79.608 38.8853 79.4494 38.792 79.3C38.6987 79.132 38.5867 78.9547 38.456 78.768C38.344 78.5814 38.204 78.348 38.036 78.068ZM54.6811 85.6C54.1398 85.6 53.6731 85.5067 53.2811 85.32C52.9078 85.1334 52.5998 84.8907 52.3571 84.592C52.1145 84.2747 51.9278 83.9387 51.7971 83.584C51.6851 83.2107 51.6291 82.8374 51.6291 82.464C51.6291 81.8854 51.7411 81.3534 51.9651 80.868C52.1891 80.364 52.4598 79.8974 52.7771 79.468C52.8891 79.3187 53.0198 79.1507 53.1691 78.964C53.3371 78.7587 53.5051 78.572 53.6731 78.404C53.8598 78.2174 54.0371 78.0494 54.2051 77.9C54.3731 77.7507 54.5225 77.648 54.6531 77.592C54.9145 77.4614 55.1011 77.34 55.2131 77.228C55.3438 77.0974 55.5211 77.032 55.7451 77.032C56.1931 77.032 56.5945 77.144 56.9491 77.368C57.3038 77.5734 57.6025 77.8534 57.8451 78.208C58.0878 78.5627 58.2651 78.964 58.3771 79.412C58.5078 79.86 58.5731 80.3174 58.5731 80.784C58.5731 82.2587 58.2465 83.4347 57.5931 84.312C56.9398 85.1707 55.9691 85.6 54.6811 85.6ZM55.3531 79.44C55.2785 79.44 55.2038 79.4494 55.1291 79.468C55.0545 79.468 54.9891 79.496 54.9331 79.552C54.7838 79.7014 54.6625 79.8414 54.5691 79.972C54.4758 80.084 54.3545 80.2707 54.2051 80.532C54.1118 80.7 54.0278 80.924 53.9531 81.204C53.8971 81.4654 53.8691 81.7547 53.8691 82.072C53.8691 82.3894 53.9531 82.6507 54.1211 82.856C54.2891 83.0427 54.5598 83.136 54.9331 83.136C55.1571 83.136 55.3811 83.08 55.6051 82.968C55.8291 82.8374 56.0251 82.6694 56.1931 82.464C56.3611 82.2587 56.5011 82.016 56.6131 81.736C56.7251 81.456 56.7811 81.1574 56.7811 80.84C56.7811 80.4854 56.6691 80.168 56.4451 79.888C56.2211 79.5894 55.9411 79.44 55.6051 79.44H55.3531ZM62.2387 93.72C62.0894 93.72 61.9774 93.6547 61.9027 93.524C61.8467 93.3934 61.8094 93.244 61.7907 93.076C61.7721 92.9267 61.7627 92.7774 61.7627 92.628C61.7627 91.9187 61.7347 91.2187 61.6787 90.528C61.6414 89.8374 61.5947 89.1654 61.5387 88.512C61.5014 87.8774 61.4547 87.28 61.3987 86.72C61.3614 86.16 61.3427 85.656 61.3427 85.208C61.3427 84.872 61.3614 84.62 61.3987 84.452C61.4547 84.2654 61.5201 84.1254 61.5947 84.032C61.6694 83.92 61.7534 83.836 61.8467 83.78C61.9401 83.724 62.0427 83.6494 62.1547 83.556C62.2481 82.7907 62.3321 82.1467 62.4067 81.624C62.4814 81.1014 62.5467 80.7 62.6027 80.42C63.1067 77.9747 63.7881 76.164 64.6467 74.988C65.5241 73.812 66.5694 73.224 67.7827 73.224C68.3614 73.224 68.8654 73.364 69.2947 73.644C69.7427 73.924 70.1161 74.2974 70.4147 74.764C70.4521 74.8387 70.4987 74.9414 70.5547 75.072C70.6107 75.184 70.6387 75.268 70.6387 75.324C70.6947 75.3987 70.7507 75.5014 70.8067 75.632C70.8814 75.7627 70.9374 75.9307 70.9747 76.136C71.0121 76.304 71.0401 76.4814 71.0587 76.668C71.0774 76.8547 71.0867 77.0414 71.0867 77.228C71.0867 78.068 70.8627 78.8427 70.4147 79.552C69.9854 80.2427 69.4347 80.8587 68.7627 81.4C68.0907 81.9414 67.3441 82.408 66.5227 82.8C65.7201 83.1734 64.9547 83.4627 64.2267 83.668C64.2081 84.8814 64.1987 86.02 64.1987 87.084C64.1987 88.148 64.1707 89.1094 64.1147 89.968C64.0774 90.8454 63.9934 91.592 63.8627 92.208C63.7507 92.824 63.5827 93.2814 63.3587 93.58C63.2654 93.7107 63.1254 93.804 62.9387 93.86C62.9014 93.8787 62.8547 93.8974 62.7987 93.916C62.7427 93.9347 62.6961 93.944 62.6587 93.944C62.5654 93.944 62.4814 93.916 62.4067 93.86C62.3507 93.804 62.2947 93.7574 62.2387 93.72ZM68.4547 75.744C68.2494 75.5387 67.9881 75.436 67.6707 75.436C67.3534 75.436 67.0454 75.5854 66.7467 75.884C66.4481 76.1827 66.1587 76.6027 65.8787 77.144C65.6174 77.6667 65.3747 78.292 65.1507 79.02C64.9267 79.748 64.7401 80.5414 64.5907 81.4C64.5907 81.4187 64.5814 81.4374 64.5627 81.456C64.5627 81.456 64.5627 81.4654 64.5627 81.484C65.9441 81.0174 67.0081 80.392 67.7547 79.608C68.5014 78.824 68.8747 77.9187 68.8747 76.892C68.8747 76.78 68.8561 76.668 68.8187 76.556C68.7814 76.444 68.7441 76.332 68.7067 76.22C68.6694 76.164 68.6414 76.108 68.6227 76.052C68.6227 75.9774 68.6041 75.9214 68.5667 75.884L68.4547 75.744ZM77.7719 86.58C76.8199 86.58 75.9706 86.356 75.2239 85.908C74.4959 85.4787 73.9826 84.7694 73.6839 83.78C73.5533 83.3694 73.4599 82.8934 73.4039 82.352C73.2919 82.2214 73.2173 82.128 73.1799 82.072C73.1613 81.9974 73.1426 81.9507 73.1239 81.932C73.1053 81.932 73.0959 81.9227 73.0959 81.904C73.0959 81.8667 73.0679 81.848 73.0119 81.848C72.9746 81.848 72.9466 81.82 72.9279 81.764C72.9279 81.708 72.9279 81.652 72.9279 81.596C72.9279 81.54 72.9279 81.484 72.9279 81.428C72.9466 81.372 72.9559 81.316 72.9559 81.26C72.9559 81.2414 72.9653 81.232 72.9839 81.232C73.0213 81.2134 73.0493 81.1947 73.0679 81.176C73.0679 81.176 73.1986 81.1574 73.4599 81.12C73.5533 80.4667 73.7586 79.804 74.0759 79.132C74.4119 78.46 74.8319 77.8254 75.3359 77.228C75.4666 77.06 75.6626 76.864 75.9239 76.64C76.1853 76.3974 76.4839 76.1734 76.8199 75.968C77.1746 75.744 77.5386 75.5574 77.9119 75.408C78.3039 75.24 78.6959 75.156 79.0879 75.156C79.7226 75.156 80.2826 75.38 80.7679 75.828C81.2533 76.2574 81.4959 76.836 81.4959 77.564C81.4959 77.7694 81.4679 77.9934 81.4119 78.236C81.3746 78.46 81.3186 78.6747 81.2439 78.88C81.1506 79.1414 81.0106 79.4214 80.8239 79.72C80.6559 80.0187 80.4693 80.2987 80.2639 80.56C80.0026 80.896 79.7226 81.1947 79.4239 81.456C79.1439 81.6987 78.8266 81.9414 78.4719 82.184C78.0426 82.4454 77.6039 82.6787 77.1559 82.884C76.7079 83.0894 76.2693 83.192 75.8399 83.192C75.8399 83.4534 75.9053 83.6587 76.0359 83.808C76.1666 83.9574 76.3253 84.0787 76.5119 84.172C76.7173 84.2467 76.9413 84.2934 77.1839 84.312C77.4266 84.3307 77.6599 84.34 77.8839 84.34C78.6119 84.34 79.1346 84.2654 79.4519 84.116C79.7879 83.948 80.0306 83.864 80.1799 83.864C80.3293 83.864 80.4226 83.8827 80.4599 83.92C80.5719 84.0134 80.6373 84.116 80.6559 84.228C80.6746 84.3214 80.6839 84.4334 80.6839 84.564V84.76C80.6839 84.872 80.6653 85.0027 80.6279 85.152C80.5906 85.32 80.5439 85.46 80.4879 85.572C80.2266 85.9267 79.8439 86.1787 79.3399 86.328C78.8546 86.496 78.3319 86.58 77.7719 86.58ZM75.7839 81.26C76.1386 81.1854 76.5213 81.0267 76.9319 80.784C77.3613 80.5227 77.7533 80.2334 78.1079 79.916C78.4813 79.5987 78.7893 79.272 79.0319 78.936C79.2746 78.5814 79.3959 78.264 79.3959 77.984C79.3959 77.9094 79.3586 77.8254 79.2839 77.732C79.2093 77.6387 79.0693 77.592 78.8639 77.592C78.5466 77.592 78.2293 77.6947 77.9119 77.9C77.5946 78.1054 77.3426 78.3294 77.1559 78.572C76.9319 78.852 76.7359 79.104 76.5679 79.328C76.4186 79.552 76.2973 79.7667 76.2039 79.972C76.1106 80.1587 76.0266 80.3547 75.9519 80.56C75.8959 80.7654 75.8399 80.9987 75.7839 81.26ZM88.6952 82.156C88.6766 82.156 88.6206 82.0907 88.5272 81.96C88.3779 82.0534 88.2846 82.1 88.2472 82.1C88.1726 82.1374 88.0606 82.2027 87.9112 82.296C87.7806 82.3894 87.6779 82.464 87.6032 82.52C87.3046 82.7254 87.0152 82.9587 86.7352 83.22C86.4552 83.4627 86.2126 83.668 86.0072 83.836C85.7272 84.0787 85.4659 84.312 85.2232 84.536C84.9806 84.7414 84.8312 84.872 84.7752 84.928C84.6259 84.984 84.5046 85.012 84.4112 85.012C84.2432 85.012 84.1126 84.9747 84.0192 84.9C83.9446 84.8067 83.8699 84.7227 83.7952 84.648C83.7206 84.4987 83.6552 84.312 83.5992 84.088C83.5619 83.8454 83.5246 83.7054 83.4872 83.668C83.4872 83.6307 83.4872 83.6027 83.4872 83.584C83.5059 83.5654 83.5152 83.5374 83.5152 83.5C83.5152 83.4814 83.5059 83.472 83.4872 83.472C83.4872 83.4534 83.4872 83.4254 83.4872 83.388C83.5059 83.3507 83.5152 83.3134 83.5152 83.276C83.5152 83.2387 83.5246 83.192 83.5432 83.136C83.6366 83.0427 83.8046 82.884 84.0472 82.66C84.2899 82.4174 84.5512 82.184 84.8312 81.96C85.1486 81.6987 85.4846 81.4467 85.8392 81.204C86.1939 80.9614 86.5019 80.7374 86.7632 80.532L87.4912 79.888C87.3606 79.6267 87.2112 79.3654 87.0432 79.104C86.8752 78.8427 86.7352 78.6467 86.6232 78.516C86.2126 78.068 85.8579 77.62 85.5592 77.172C85.2606 76.724 85.1112 76.3974 85.1112 76.192C85.1112 76.0054 85.1206 75.8467 85.1392 75.716C85.1766 75.5667 85.2606 75.4267 85.3912 75.296C85.5406 75.1467 85.6712 75.0534 85.7832 75.016C85.8952 74.9787 85.9979 74.96 86.0912 74.96C86.2219 74.96 86.4179 74.9974 86.6792 75.072C86.9406 75.128 87.2299 75.352 87.5472 75.744C87.6592 75.8934 87.7619 76.0707 87.8552 76.276C87.9486 76.4627 88.0606 76.6587 88.1912 76.864C88.3032 77.0694 88.4059 77.2934 88.4992 77.536C88.6112 77.76 88.7326 77.9747 88.8632 78.18C88.9006 78.236 88.9286 78.3014 88.9472 78.376C88.9659 78.4507 88.9939 78.516 89.0312 78.572C89.0686 78.6467 89.1059 78.712 89.1432 78.768C89.2179 78.7494 89.2926 78.6934 89.3672 78.6C89.4606 78.5067 89.5539 78.4227 89.6472 78.348C89.6659 78.3294 89.7686 78.236 89.9552 78.068C90.1419 77.8814 90.3379 77.6854 90.5432 77.48C90.7672 77.256 90.9632 77.06 91.1312 76.892C91.3179 76.7054 91.4206 76.6027 91.4392 76.584C91.5699 76.4347 91.7472 76.2387 91.9712 75.996C92.1952 75.7534 92.3819 75.632 92.5312 75.632C92.6806 75.632 92.8112 75.6414 92.9232 75.66C93.0352 75.66 93.1472 75.7067 93.2592 75.8C93.4832 75.968 93.6326 76.1547 93.7072 76.36C93.8006 76.5467 93.8472 76.724 93.8472 76.892C93.8472 77.284 93.7726 77.5547 93.6232 77.704C93.4926 77.8347 93.3339 78.0214 93.1472 78.264C93.0539 78.3947 92.8952 78.5534 92.6712 78.74C92.4659 78.908 92.2326 79.0947 91.9712 79.3C91.7099 79.5054 91.4392 79.7107 91.1592 79.916C90.8979 80.1027 90.6739 80.2707 90.4872 80.42C90.4499 80.4574 90.4032 80.504 90.3472 80.56C90.3099 80.5974 90.2539 80.644 90.1792 80.7C90.2166 80.7747 90.2539 80.84 90.2912 80.896C90.3472 80.952 90.3846 80.9894 90.4032 81.008C90.6646 81.4 90.8886 81.708 91.0752 81.932C91.2619 82.1374 91.4766 82.3707 91.7192 82.632C91.8686 82.7814 91.9806 82.94 92.0552 83.108C92.1486 83.2574 92.2139 83.388 92.2512 83.5C92.2699 83.556 92.2792 83.6027 92.2792 83.64C92.2979 83.6774 92.3072 83.7147 92.3072 83.752C92.3072 83.7894 92.2979 83.836 92.2792 83.892C92.2792 83.948 92.2792 84.0134 92.2792 84.088C92.2792 84.2187 92.2606 84.312 92.2232 84.368C92.2046 84.424 92.1579 84.4894 92.0832 84.564C91.9899 84.6574 91.8872 84.7414 91.7752 84.816C91.6819 84.8907 91.4952 84.928 91.2152 84.928C90.9166 84.928 90.7019 84.8627 90.5712 84.732C90.4406 84.6014 90.3006 84.4614 90.1512 84.312C89.9832 84.1254 89.8339 83.9387 89.7032 83.752C89.5726 83.5467 89.4699 83.3787 89.3952 83.248C89.3019 83.0614 89.2086 82.9027 89.1152 82.772C89.0406 82.6414 88.9472 82.5014 88.8352 82.352L88.6952 82.156ZM98.8413 85.6C98.2999 85.6 97.8333 85.5067 97.4413 85.32C97.0679 85.1334 96.7599 84.8907 96.5173 84.592C96.2746 84.2747 96.0879 83.9387 95.9573 83.584C95.8453 83.2107 95.7893 82.8374 95.7893 82.464C95.7893 81.8854 95.9013 81.3534 96.1253 80.868C96.3493 80.364 96.6199 79.8974 96.9373 79.468C97.0493 79.3187 97.1799 79.1507 97.3293 78.964C97.4973 78.7587 97.6653 78.572 97.8333 78.404C98.0199 78.2174 98.1973 78.0494 98.3653 77.9C98.5333 77.7507 98.6826 77.648 98.8133 77.592C99.0746 77.4614 99.2613 77.34 99.3733 77.228C99.5039 77.0974 99.6813 77.032 99.9053 77.032C100.353 77.032 100.755 77.144 101.109 77.368C101.464 77.5734 101.763 77.8534 102.005 78.208C102.248 78.5627 102.425 78.964 102.537 79.412C102.668 79.86 102.733 80.3174 102.733 80.784C102.733 82.2587 102.407 83.4347 101.753 84.312C101.1 85.1707 100.129 85.6 98.8413 85.6ZM99.5133 79.44C99.4386 79.44 99.3639 79.4494 99.2893 79.468C99.2146 79.468 99.1493 79.496 99.0933 79.552C98.9439 79.7014 98.8226 79.8414 98.7293 79.972C98.6359 80.084 98.5146 80.2707 98.3653 80.532C98.2719 80.7 98.1879 80.924 98.1133 81.204C98.0573 81.4654 98.0293 81.7547 98.0293 82.072C98.0293 82.3894 98.1133 82.6507 98.2813 82.856C98.4493 83.0427 98.7199 83.136 99.0933 83.136C99.3173 83.136 99.5413 83.08 99.7653 82.968C99.9893 82.8374 100.185 82.6694 100.353 82.464C100.521 82.2587 100.661 82.016 100.773 81.736C100.885 81.456 100.941 81.1574 100.941 80.84C100.941 80.4854 100.829 80.168 100.605 79.888C100.381 79.5894 100.101 79.44 99.7653 79.44H99.5133ZM109.199 86.048C108.546 86.048 107.976 85.9267 107.491 85.684C107.024 85.46 106.632 85.1427 106.315 84.732C106.016 84.3027 105.792 83.7987 105.643 83.22C105.512 82.6414 105.447 82.0067 105.447 81.316C105.447 80.364 105.54 79.384 105.727 78.376C105.932 77.3494 106.306 76.4534 106.847 75.688C106.922 75.5947 107.024 75.492 107.155 75.38C107.286 75.2494 107.398 75.1747 107.491 75.156C107.491 74.988 107.584 74.8387 107.771 74.708C107.864 74.6334 107.976 74.5587 108.107 74.484C108.238 74.4094 108.359 74.3534 108.471 74.316C108.975 74.1107 109.516 74.008 110.095 74.008C110.45 74.008 110.776 74.064 111.075 74.176C111.374 74.2694 111.626 74.3814 111.831 74.512C112.074 74.6614 112.298 74.82 112.503 74.988C112.447 74.5587 112.382 74.176 112.307 73.84C112.251 73.4854 112.176 73.168 112.083 72.888C112.046 72.7947 112.008 72.7387 111.971 72.72C111.952 72.7014 111.943 72.6454 111.943 72.552C111.943 72.496 111.962 72.4494 111.999 72.412C111.98 72.3747 111.952 72.356 111.915 72.356C111.878 72.3374 111.85 72.3094 111.831 72.272C111.57 71.7867 111.215 71.432 110.767 71.208C110.338 70.9654 109.75 70.7787 109.003 70.648C108.368 70.536 107.902 70.452 107.603 70.396C107.304 70.3214 107.155 70.116 107.155 69.78C107.155 69.7427 107.127 69.6867 107.071 69.612C107.034 69.5187 107.015 69.444 107.015 69.388C107.015 69.22 107.034 69.1267 107.071 69.108C107.127 69.0707 107.155 69.0054 107.155 68.912C107.155 68.8747 107.164 68.8187 107.183 68.744C107.22 68.6694 107.258 68.6134 107.295 68.576C107.388 68.4827 107.426 68.3987 107.407 68.324C107.388 68.2494 107.416 68.1747 107.491 68.1C107.64 67.988 107.818 67.9227 108.023 67.904C108.247 67.8854 108.452 67.876 108.639 67.876C109.554 67.876 110.356 68.0254 111.047 68.324C111.738 68.6227 112.326 69.0427 112.811 69.584C112.904 69.6774 112.96 69.78 112.979 69.892C112.998 70.004 113.063 70.1067 113.175 70.2C113.25 70.256 113.306 70.3214 113.343 70.396C113.38 70.4707 113.446 70.5454 113.539 70.62C113.614 70.676 113.67 70.7507 113.707 70.844C113.744 70.9187 113.782 71.0027 113.819 71.096C114.136 71.7307 114.36 72.4307 114.491 73.196C114.64 73.9427 114.715 74.7267 114.715 75.548C114.715 76.1267 114.696 76.7614 114.659 77.452C114.64 78.124 114.584 78.8147 114.491 79.524C114.416 80.2147 114.286 80.9054 114.099 81.596C113.912 82.268 113.67 82.884 113.371 83.444C113.296 83.5934 113.203 83.668 113.091 83.668C113.035 83.724 113.007 83.7707 113.007 83.808C113.007 83.8454 113.007 83.8734 113.007 83.892C113.026 83.892 113.035 83.9014 113.035 83.92C112.979 84.0134 112.876 84.06 112.727 84.06C112.746 84.0974 112.764 84.1254 112.783 84.144C112.82 84.1627 112.839 84.1907 112.839 84.228C112.839 84.284 112.82 84.3307 112.783 84.368C112.746 84.4054 112.708 84.4427 112.671 84.48C112.559 84.6107 112.41 84.7414 112.223 84.872C112.055 84.984 111.896 85.0867 111.747 85.18C111.598 85.2734 111.476 85.3574 111.383 85.432C111.308 85.5254 111.187 85.6094 111.019 85.684C110.758 85.796 110.478 85.88 110.179 85.936C109.88 86.0107 109.554 86.048 109.199 86.048ZM109.591 83.836C109.946 83.836 110.254 83.7427 110.515 83.556C110.795 83.3694 111.028 83.1267 111.215 82.828C111.42 82.5294 111.588 82.1934 111.719 81.82C111.85 81.428 111.962 81.036 112.055 80.644C112.26 79.7107 112.372 78.6467 112.391 77.452C112.242 77.0787 111.962 76.78 111.551 76.556C111.159 76.3134 110.692 76.192 110.151 76.192C109.647 76.192 109.236 76.36 108.919 76.696C108.602 77.032 108.35 77.452 108.163 77.956C107.995 78.46 107.874 79.0014 107.799 79.58C107.724 80.1587 107.687 80.6814 107.687 81.148C107.687 81.3907 107.696 81.624 107.715 81.848C107.734 82.0534 107.771 82.2494 107.827 82.436C107.864 82.5107 107.911 82.5667 107.967 82.604C108.023 82.6414 108.07 82.688 108.107 82.744C108.144 82.8187 108.163 82.884 108.163 82.94C108.182 82.996 108.21 83.0427 108.247 83.08C108.284 83.0987 108.322 83.136 108.359 83.192C108.396 83.2294 108.424 83.2667 108.443 83.304C108.499 83.3414 108.555 83.388 108.611 83.444C108.686 83.5 108.76 83.5467 108.835 83.584C108.928 83.6214 109.022 83.668 109.115 83.724C109.208 83.78 109.292 83.8174 109.367 83.836H109.591ZM125.8 81.652C125.912 81.6894 126.005 81.7827 126.08 81.932C126.211 82.1934 126.276 82.5014 126.276 82.856C126.276 83.0054 126.229 83.1547 126.136 83.304C126.061 83.4534 125.977 83.5747 125.884 83.668C125.697 83.8547 125.529 84.032 125.38 84.2C125.231 84.3494 125.053 84.4987 124.848 84.648C124.643 84.7974 124.372 84.9654 124.036 85.152C123.719 85.3574 123.383 85.5347 123.028 85.684C122.785 85.796 122.571 85.88 122.384 85.936C122.216 86.0107 122.039 86.0667 121.852 86.104C121.684 86.1414 121.507 86.16 121.32 86.16C121.133 86.1787 120.909 86.188 120.648 86.188C120.312 86.188 119.957 86.1227 119.584 85.992C119.229 85.88 118.977 85.7774 118.828 85.684C118.212 85.3107 117.773 84.816 117.512 84.2C117.251 83.5654 117.12 82.7907 117.12 81.876C117.12 81.316 117.185 80.7747 117.316 80.252C117.447 79.7107 117.615 79.216 117.82 78.768C118.044 78.3014 118.287 77.8814 118.548 77.508C118.828 77.1347 119.108 76.8174 119.388 76.556C119.537 76.4067 119.733 76.2387 119.976 76.052C120.237 75.8654 120.499 75.6974 120.76 75.548C121.04 75.3987 121.339 75.268 121.656 75.156C121.973 75.0254 122.365 74.96 122.832 74.96C123.299 74.96 123.737 75.1374 124.148 75.492C124.577 75.828 124.792 76.2387 124.792 76.724C124.792 76.836 124.783 76.9387 124.764 77.032C124.745 77.1067 124.717 77.1814 124.68 77.256C124.643 77.368 124.577 77.4894 124.484 77.62C124.409 77.732 124.325 77.816 124.232 77.872C124.083 77.984 123.84 78.04 123.504 78.04C123.299 78.04 123.14 78.0307 123.028 78.012C122.916 77.9747 122.757 77.956 122.552 77.956C122.253 77.956 121.917 78.0867 121.544 78.348C121.189 78.5907 120.853 78.9174 120.536 79.328C120.219 79.7387 119.948 80.196 119.724 80.7C119.519 81.1854 119.416 81.68 119.416 82.184C119.416 82.6507 119.5 83.0334 119.668 83.332C119.855 83.6307 120.191 83.78 120.676 83.78C121.105 83.78 121.507 83.7054 121.88 83.556C122.272 83.388 122.589 83.2387 122.832 83.108C123.019 83.0147 123.243 82.884 123.504 82.716C123.784 82.5294 124.027 82.3707 124.232 82.24C124.419 82.128 124.568 82.016 124.68 81.904C124.792 81.792 124.904 81.708 125.016 81.652C125.109 81.6147 125.203 81.5867 125.296 81.568C125.389 81.5494 125.455 81.54 125.492 81.54C125.604 81.54 125.707 81.5774 125.8 81.652ZM145.247 84.9C145.154 85.628 144.752 85.992 144.043 85.992C143.987 85.992 143.931 85.992 143.875 85.992C143.819 86.0107 143.763 86.02 143.707 86.02C143.651 86.02 143.595 85.9827 143.539 85.908C143.464 85.908 143.38 85.8894 143.287 85.852C143.212 85.8147 143.147 85.796 143.091 85.796C143.054 85.7587 143.026 85.7214 143.007 85.684C142.988 85.6467 142.96 85.6094 142.923 85.572C142.774 85.4787 142.652 85.32 142.559 85.096C142.503 85.0214 142.456 84.9467 142.419 84.872C142.382 84.7787 142.344 84.6947 142.307 84.62C142.214 84.4147 142.148 84.2374 142.111 84.088C142.074 83.92 142.036 83.7427 141.999 83.556C141.98 83.3694 141.971 83.164 141.971 82.94C141.971 82.716 141.971 82.436 141.971 82.1V81.848C141.952 81.7734 141.906 81.7267 141.831 81.708C141.756 81.6707 141.7 81.652 141.663 81.652C141.626 81.652 141.504 81.736 141.299 81.904C141.112 82.0534 140.86 82.268 140.543 82.548C140.244 82.8094 139.908 83.108 139.535 83.444C139.162 83.78 138.788 84.1254 138.415 84.48C138.266 84.6294 138.088 84.8067 137.883 85.012C137.696 85.1987 137.407 85.292 137.015 85.292C136.922 85.292 136.763 85.264 136.539 85.208C136.334 85.152 136.194 85.096 136.119 85.04L136.007 84.956C135.895 84.732 135.792 84.4987 135.699 84.256C135.606 83.9947 135.54 83.5934 135.503 83.052C135.484 82.884 135.466 82.7067 135.447 82.52C135.447 82.3334 135.447 82.1374 135.447 81.932C135.447 81.8387 135.447 81.736 135.447 81.624C135.447 81.4934 135.428 81.3814 135.391 81.288C135.354 81.1947 135.316 81.148 135.279 81.148C135.148 81.148 135.055 81.1574 134.999 81.176C134.906 81.2134 134.822 81.26 134.747 81.316C134.672 81.372 134.56 81.4747 134.411 81.624C134.187 81.8294 133.935 82.072 133.655 82.352C133.375 82.6134 133.058 82.9214 132.703 83.276C132.311 83.668 131.947 84.0414 131.611 84.396C131.294 84.732 131.07 85.0027 130.939 85.208C130.902 85.2827 130.864 85.3667 130.827 85.46C130.79 85.572 130.762 85.656 130.743 85.712C130.706 85.7867 130.678 85.852 130.659 85.908C130.64 85.964 130.612 86.0107 130.575 86.048C130.482 86.1414 130.379 86.1974 130.267 86.216C130.155 86.2534 130.024 86.272 129.875 86.272C129.558 86.272 129.24 86.104 128.923 85.768C128.624 85.432 128.475 84.9934 128.475 84.452C128.475 84.1907 128.503 83.864 128.559 83.472C128.615 83.0614 128.68 82.6507 128.755 82.24C128.83 81.8107 128.904 81.3907 128.979 80.98C129.072 80.5694 129.147 80.224 129.203 79.944C129.259 79.6827 129.315 79.3747 129.371 79.02C129.446 78.6654 129.511 78.32 129.567 77.984C129.642 77.648 129.698 77.34 129.735 77.06C129.791 76.78 129.819 76.584 129.819 76.472C129.819 76.3227 129.791 76.1174 129.735 75.856C129.772 75.7254 129.819 75.632 129.875 75.576C129.987 75.4454 130.08 75.352 130.155 75.296C130.248 75.2214 130.36 75.184 130.491 75.184C130.659 75.184 130.818 75.212 130.967 75.268C131.266 75.38 131.499 75.576 131.667 75.856C131.835 76.136 131.956 76.4347 132.031 76.752L132.059 76.892C132.022 77.004 132.003 77.0787 132.003 77.116V77.228C132.003 77.2467 132.012 77.2654 132.031 77.284C132.031 77.6947 131.994 78.0774 131.919 78.432C131.844 78.7867 131.742 79.2067 131.611 79.692C131.574 79.8787 131.527 80.084 131.471 80.308C131.434 80.5134 131.415 80.6627 131.415 80.756C131.415 80.8494 131.462 80.896 131.555 80.896C131.648 80.896 131.732 80.8587 131.807 80.784C131.882 80.7094 131.947 80.644 132.003 80.588C132.488 79.9907 132.983 79.4307 133.487 78.908C133.991 78.3667 134.495 77.8627 134.999 77.396C135.186 77.228 135.335 77.116 135.447 77.06C135.559 76.9854 135.69 76.948 135.839 76.948C136.287 76.948 136.67 77.0787 136.987 77.34C137.304 77.5827 137.5 77.7974 137.575 77.984C137.668 78.2454 137.734 78.46 137.771 78.628C137.808 78.796 137.827 78.964 137.827 79.132C137.827 79.3934 137.818 79.692 137.799 80.028C137.799 80.3454 137.799 80.616 137.799 80.84C137.799 81.0267 137.827 81.1574 137.883 81.232C137.958 81.288 138.042 81.316 138.135 81.316C138.154 81.316 138.219 81.2787 138.331 81.204C138.443 81.1107 138.564 81.008 138.695 80.896C138.844 80.784 138.994 80.6627 139.143 80.532C139.311 80.4014 139.451 80.28 139.563 80.168C140.067 79.7387 140.534 79.3374 140.963 78.964C141.411 78.5907 141.738 78.32 141.943 78.152C142.111 78.0027 142.251 77.9094 142.363 77.872C142.475 77.816 142.624 77.788 142.811 77.788C142.979 77.788 143.147 77.8627 143.315 78.012C143.502 78.1614 143.67 78.3387 143.819 78.544C143.968 78.7494 144.09 78.964 144.183 79.188C144.276 79.412 144.323 79.608 144.323 79.776C144.323 80.0747 144.304 80.4107 144.267 80.784C144.23 81.1574 144.211 81.512 144.211 81.848C144.211 81.9787 144.22 82.1747 144.239 82.436C144.276 82.6787 144.314 82.828 144.351 82.884C144.37 83.0894 144.435 83.2854 144.547 83.472C144.659 83.64 144.79 83.8267 144.939 84.032L145.135 84.256L145.247 84.34C145.228 84.34 145.219 84.3494 145.219 84.368V84.424C145.219 84.4614 145.219 84.4894 145.219 84.508C145.238 84.508 145.247 84.5267 145.247 84.564V84.9ZM152.422 85.936C151.507 85.936 150.732 85.7027 150.098 85.236C149.93 85.1054 149.799 85.0214 149.706 84.984C149.65 84.9467 149.603 84.8907 149.566 84.816C149.547 84.7414 149.519 84.6854 149.482 84.648C149.482 84.592 149.454 84.536 149.398 84.48C149.36 84.4054 149.323 84.3307 149.286 84.256C149.211 84.1627 149.136 84.0694 149.062 83.976C148.987 83.864 148.931 83.752 148.894 83.64C148.688 83.2107 148.539 82.7254 148.446 82.184C148.371 81.6427 148.334 81.0734 148.334 80.476C148.334 79.972 148.362 79.4587 148.418 78.936C148.492 78.4134 148.576 77.9 148.67 77.396H148.39C148.315 77.396 148.259 77.396 148.222 77.396C148.184 77.3774 148.138 77.3587 148.082 77.34C148.026 77.3027 147.979 77.2467 147.942 77.172C147.904 77.0787 147.839 77.0134 147.746 76.976C147.727 76.9014 147.718 76.8267 147.718 76.752C147.736 76.6587 147.727 76.584 147.69 76.528C147.727 76.4907 147.746 76.3974 147.746 76.248C147.746 76.0987 147.764 76.0147 147.802 75.996C147.839 75.94 147.895 75.8934 147.97 75.856C148.063 75.8 148.128 75.7254 148.166 75.632C148.184 75.5947 148.212 75.5667 148.25 75.548C148.306 75.5107 148.343 75.4734 148.362 75.436C148.418 75.4174 148.502 75.3987 148.614 75.38C148.744 75.3427 148.903 75.324 149.09 75.324C149.276 74.652 149.528 73.8867 149.846 73.028C150.182 72.1694 150.583 71.3574 151.05 70.592C151.516 69.8267 152.058 69.1827 152.674 68.66C153.29 68.1187 153.999 67.848 154.802 67.848C155.399 67.848 155.856 67.932 156.174 68.1C156.51 68.268 156.808 68.5387 157.07 68.912L157.378 69.304C157.396 69.36 157.434 69.4907 157.49 69.696C157.546 69.8827 157.592 70.004 157.63 70.06C157.704 70.2654 157.76 70.4614 157.798 70.648C157.854 70.8347 157.882 71.0307 157.882 71.236C157.882 71.74 157.779 72.3187 157.574 72.972C157.368 73.6067 157.032 74.2227 156.566 74.82C156.118 75.4174 155.52 75.9494 154.774 76.416C154.046 76.864 153.15 77.1534 152.086 77.284L150.938 77.424C150.919 77.5734 150.891 77.732 150.854 77.9C150.816 78.0494 150.788 78.2174 150.77 78.404C150.751 78.572 150.732 78.7587 150.714 78.964L150.966 78.796C151.003 78.7587 151.059 78.712 151.134 78.656C151.208 78.6 151.292 78.5534 151.386 78.516C151.479 78.4787 151.544 78.46 151.582 78.46C151.619 78.4414 151.638 78.404 151.638 78.348C151.712 78.3107 151.796 78.2827 151.89 78.264C151.983 78.2267 152.076 78.1894 152.17 78.152C152.45 78.04 152.758 77.9467 153.094 77.872C153.448 77.7787 153.812 77.732 154.186 77.732C154.727 77.732 155.184 77.816 155.558 77.984C155.95 78.152 156.267 78.3854 156.51 78.684C156.752 78.964 156.93 79.3 157.042 79.692C157.154 80.0654 157.21 80.4667 157.21 80.896C157.21 81.6614 157.088 82.352 156.846 82.968C156.622 83.584 156.295 84.116 155.866 84.564C155.455 84.9934 154.951 85.3294 154.354 85.572C153.775 85.8147 153.131 85.936 152.422 85.936ZM152.786 83.64C153.458 83.64 153.98 83.4067 154.354 82.94C154.746 82.4547 154.942 81.904 154.942 81.288C154.942 80.896 154.82 80.5787 154.578 80.336C154.335 80.0934 154.027 79.972 153.654 79.972C153.392 79.972 153.14 80.0094 152.898 80.084C152.674 80.1587 152.468 80.2427 152.282 80.336L152.198 80.42C152.179 80.4387 152.16 80.448 152.142 80.448H152.114C152.095 80.448 152.086 80.4574 152.086 80.476C152.086 80.476 152.076 80.476 152.058 80.476C152.058 80.5134 152.039 80.5414 152.002 80.56C151.983 80.56 151.955 80.5787 151.918 80.616C151.899 80.6534 151.852 80.6814 151.778 80.7C151.722 80.7187 151.647 80.7747 151.554 80.868C151.535 80.9054 151.498 80.952 151.442 81.008C151.404 81.064 151.311 81.1107 151.162 81.148C151.124 81.1854 151.096 81.2227 151.078 81.26C151.059 81.2787 151.031 81.2974 150.994 81.316L150.77 81.68C150.788 82.2027 150.966 82.66 151.302 83.052C151.638 83.444 152.132 83.64 152.786 83.64ZM152.422 75.1C152.814 75.044 153.187 74.904 153.542 74.68C153.915 74.456 154.232 74.1854 154.494 73.868C154.774 73.532 154.988 73.168 155.138 72.776C155.306 72.3654 155.39 71.9547 155.39 71.544C155.39 71.2267 155.296 70.9654 155.11 70.76C154.923 70.536 154.68 70.424 154.382 70.424C154.064 70.424 153.756 70.5827 153.458 70.9C153.159 71.1987 152.879 71.5814 152.618 72.048C152.356 72.5147 152.123 73.028 151.918 73.588C151.712 74.148 151.554 74.68 151.442 75.184C151.516 75.184 151.656 75.184 151.862 75.184C152.086 75.1654 152.272 75.1374 152.422 75.1ZM165.994 85.824C165.938 85.824 165.863 85.8427 165.77 85.88C165.695 85.936 165.62 85.964 165.546 85.964C165.471 86.0387 165.396 86.104 165.322 86.16C165.247 86.216 165.126 86.2627 164.958 86.3C164.734 86.412 164.491 86.5054 164.23 86.58C163.968 86.6547 163.67 86.692 163.334 86.692C162.736 86.692 162.223 86.58 161.794 86.356C161.383 86.132 161.047 85.8427 160.786 85.488C160.524 85.1334 160.328 84.7507 160.198 84.34C160.086 83.9107 160.03 83.5 160.03 83.108C160.03 82.7534 160.048 82.4267 160.086 82.128C160.123 81.8107 160.188 81.4934 160.282 81.176C160.319 81.0267 160.356 80.896 160.394 80.784C160.431 80.672 160.478 80.5414 160.534 80.392L160.814 79.72C160.832 79.664 160.851 79.5894 160.87 79.496C160.907 79.4027 160.954 79.3094 161.01 79.216C161.084 79.0294 161.187 78.8427 161.318 78.656C161.71 78.0027 162.158 77.4987 162.662 77.144C163.166 76.7894 163.688 76.612 164.23 76.612C164.248 76.6307 164.267 76.64 164.286 76.64C164.323 76.64 164.36 76.6494 164.398 76.668C164.435 76.6867 164.463 76.696 164.482 76.696C164.519 76.696 164.547 76.7054 164.566 76.724C164.603 76.7614 164.65 76.78 164.706 76.78C164.706 76.8174 164.734 76.8734 164.79 76.948C165.126 77.0414 165.48 77.2467 165.854 77.564C166.246 77.8627 166.6 78.2267 166.918 78.656C167.235 79.0854 167.496 79.5707 167.702 80.112C167.907 80.6347 168.01 81.1667 168.01 81.708C168.01 82.548 167.842 83.3134 167.506 84.004C167.17 84.676 166.731 85.236 166.19 85.684L165.994 85.824ZM164.23 79.384C164.192 79.4214 164.164 79.44 164.146 79.44C164.108 79.4587 164.062 79.4774 164.006 79.496C163.968 79.5147 163.931 79.524 163.894 79.524C163.8 79.5427 163.716 79.552 163.642 79.552C163.567 79.552 163.483 79.5987 163.39 79.692C163.278 79.7294 163.194 79.7854 163.138 79.86C163.082 79.916 162.979 80.056 162.83 80.28C162.568 80.56 162.391 80.9427 162.298 81.428C162.204 81.8947 162.158 82.3427 162.158 82.772C162.158 83.2387 162.279 83.6027 162.522 83.864C162.764 84.1067 163.1 84.228 163.53 84.228C164.239 84.228 164.846 84.0227 165.35 83.612C165.872 83.1827 166.134 82.548 166.134 81.708C166.134 81.0734 165.956 80.532 165.602 80.084C165.266 79.636 164.827 79.384 164.286 79.328L164.23 79.384Z" fill="white"/>
</g>
<defs>
<radialGradient id="paint0_radial" cx="0" cy="0" r="1" gradientUnits="userSpaceOnUse" gradientTransform="translate(94.6369 80.7229) rotate(-9.76592) scale(91.9754 67.5639)">
<stop stop-color="#407B9A"/>
<stop offset="0.6453" stop-color="#3682A1"/>
<stop offset="0.9413" stop-color="#C6DDEE"/>
<stop offset="1" stop-color="white"/>
</radialGradient>
<linearGradient id="paint1_linear" x1="145.965" y1="31.625" x2="119.647" y2="55.6165" gradientUnits="userSpaceOnUse">
<stop stop-color="white"/>
<stop offset="0.4749" stop-color="#D4EFFD" stop-opacity="0.5"/>
<stop offset="1" stop-color="#3699D6" stop-opacity="0"/>
</linearGradient>
</defs>
</svg>
