<svg width="168" height="152" viewBox="0 0 168 152" fill="none" xmlns="http://www.w3.org/2000/svg">
<path opacity="0.31" d="M127.905 127.19C149.73 115.215 159.705 95.5365 163.53 72.1732C167.355 48.81 162.78 32.3971 144.48 18.1614C133.455 9.53631 123.405 9.87126 108.855 7.27535C82.005 2.25099 80.505 2.25104 49.605 7.9453C37.38 10.2063 31.305 14.7282 24.03 21.5948C18.78 26.6192 10.98 40.2687 8.20498 47.554C-2.67002 76.6115 4.83002 107.26 26.055 137.406C38.28 154.489 82.755 151.558 127.905 127.19Z" fill="url(#paint0_radial)" stroke="white" stroke-width="6.202" stroke-miterlimit="10"/>
<path opacity="0.45" d="M89.4299 17.4911C91.9049 16.5699 106.605 14.4764 112.305 16.0674C116.58 17.3235 133.83 21.5106 140.13 31.4756C144.93 39.1797 147.705 42.0269 145.305 54.7553C145.08 56.0952 141.855 62.7106 138.93 61.0358C134.055 57.5188 124.005 47.9724 106.905 43.3667C102.63 42.1106 90.3298 41.2732 85.6048 41.6919C83.4298 41.9432 75.0298 41.7756 73.9798 40.352C68.0548 32.6479 84.7049 19.3334 89.4299 17.4911Z" fill="url(#paint1_linear)"/>
<g opacity="0.5">
<path d="M48.93 59.1255C48.81 59.1255 48.71 59.0955 48.63 59.0355C48.55 58.9955 48.46 58.9555 48.36 58.9155C48.18 58.8355 48.03 58.7255 47.91 58.5855C47.63 58.2455 47.44 57.7955 47.34 57.2355C47.24 56.6755 47.19 56.1355 47.19 55.6155C47.19 55.3555 47.2 55.0455 47.22 54.6855C47.24 54.3255 47.26 53.9655 47.28 53.6055C47.3 53.2255 47.32 52.8555 47.34 52.4955C47.38 52.1355 47.41 51.8155 47.43 51.5355L47.73 48.6255C47.77 48.3455 47.79 48.0155 47.79 47.6355C47.81 47.2555 47.84 46.8655 47.88 46.4655C47.62 46.9255 47.38 47.3755 47.16 47.8155C46.96 48.1955 46.75 48.5855 46.53 48.9855C46.33 49.3655 46.15 49.6855 45.99 49.9455C45.65 50.5255 45.29 51.1355 44.91 51.7755C44.53 52.3955 44.14 53.0255 43.74 53.6655C43.66 53.7655 43.57 53.9255 43.47 54.1455C43.39 54.3455 43.31 54.4455 43.23 54.4455C43.15 54.6255 43.07 54.7655 42.99 54.8655C42.91 54.9455 42.82 55.0355 42.72 55.1355C42.62 55.2355 42.55 55.3655 42.51 55.5255C42.47 55.6655 42.39 55.8155 42.27 55.9755C42.25 56.0755 42.2 56.1655 42.12 56.2455C42.04 56.3255 41.95 56.4355 41.85 56.5755C41.65 56.8555 41.39 57.2155 41.07 57.6555C40.77 58.0955 40.54 58.4555 40.38 58.7355C40.1 59.1555 39.71 59.3655 39.21 59.3655C39.11 59.3655 39 59.3555 38.88 59.3355C38.78 59.3155 38.68 59.2855 38.58 59.2455C38.48 59.2055 38.41 59.1555 38.37 59.0955C38.35 59.0555 38.29 59.0155 38.19 58.9755C38.11 58.9355 38.05 58.8555 38.01 58.7355C37.97 58.6355 37.93 58.5355 37.89 58.4355C37.77 58.0755 37.71 57.5855 37.71 56.9655C37.71 56.6255 37.72 56.1555 37.74 55.5555C37.76 54.9355 37.78 54.2955 37.8 53.6355C37.84 52.9355 37.86 52.2655 37.86 51.6255C37.88 50.9855 37.89 50.4755 37.89 50.0955C37.89 49.5955 37.87 49.1255 37.83 48.6855C37.81 48.2255 37.8 47.7455 37.8 47.2455C37.8 46.8255 37.8 46.4055 37.8 45.9855C37.82 45.5455 37.83 45.1155 37.83 44.6955C37.83 44.4555 37.81 44.2055 37.77 43.9455C37.73 43.6855 37.71 43.4355 37.71 43.1955C37.71 42.4755 37.86 41.9755 38.16 41.6955C38.26 41.5955 38.4 41.5255 38.58 41.4855C38.66 41.4655 38.78 41.4555 38.94 41.4555C39.08 41.4555 39.26 41.4855 39.48 41.5455C39.54 41.5655 39.61 41.5755 39.69 41.5755C39.79 41.5755 39.86 41.5955 39.9 41.6355C39.98 41.6755 40.03 41.7255 40.05 41.7855C40.09 41.8455 40.16 41.8755 40.26 41.8755C40.38 41.8755 40.46 41.9555 40.5 42.1155C40.54 42.2555 40.56 42.4055 40.56 42.5655C40.56 42.8255 40.55 43.1055 40.53 43.4055C40.51 43.6855 40.49 43.9555 40.47 44.2155C40.45 44.4755 40.44 44.8555 40.44 45.3555C40.44 45.8355 40.44 46.2355 40.44 46.5555C40.44 46.8155 40.44 47.1755 40.44 47.6355C40.44 48.0755 40.44 48.5355 40.44 49.0155C40.46 49.4755 40.47 49.9055 40.47 50.3055C40.47 50.7055 40.47 50.9955 40.47 51.1755C40.47 51.6555 40.44 52.2055 40.38 52.8255C40.34 53.4255 40.31 53.9855 40.29 54.5055C41.23 52.9055 42.17 51.3455 43.11 49.8255C44.05 48.2855 44.97 46.8155 45.87 45.4155C46.31 44.7155 46.72 44.0555 47.1 43.4355C47.5 42.7955 47.96 42.2555 48.48 41.8155C48.58 41.7355 48.72 41.6655 48.9 41.6055C49.1 41.5455 49.28 41.5155 49.44 41.5155C49.62 41.5155 49.81 41.5455 50.01 41.6055C50.23 41.6455 50.39 41.7355 50.49 41.8755C50.55 41.9555 50.59 42.1155 50.61 42.3555C50.63 42.5755 50.64 42.7955 50.64 43.0155C50.64 43.4955 50.62 43.9755 50.58 44.4555C50.56 44.9155 50.53 45.3755 50.49 45.8355L50.04 51.7455C49.98 52.4455 49.91 53.1755 49.83 53.9355C49.77 54.6955 49.74 55.3555 49.74 55.9155C49.74 56.4355 49.77 56.8655 49.83 57.2055C49.89 57.5255 49.92 57.8455 49.92 58.1655C49.92 58.2655 49.92 58.3755 49.92 58.4955C49.92 58.6355 49.9 58.7455 49.86 58.8255C49.82 58.9255 49.76 58.9655 49.68 58.9455C49.6 58.9455 49.5 58.9655 49.38 59.0055C49.32 59.0255 49.25 59.0455 49.17 59.0655C49.11 59.1055 49.03 59.1255 48.93 59.1255ZM63.1155 54.2655C63.2355 54.3055 63.3355 54.4055 63.4155 54.5655C63.5555 54.8455 63.6255 55.1755 63.6255 55.5555C63.6255 55.7155 63.5755 55.8755 63.4755 56.0355C63.3955 56.1955 63.3055 56.3255 63.2055 56.4255C63.0055 56.6255 62.8255 56.8155 62.6655 56.9955C62.5055 57.1555 62.3155 57.3155 62.0955 57.4755C61.8755 57.6355 61.5855 57.8155 61.2255 58.0155C60.8855 58.2355 60.5255 58.4255 60.1455 58.5855C59.8855 58.7055 59.6555 58.7955 59.4555 58.8555C59.2755 58.9355 59.0855 58.9955 58.8855 59.0355C58.7055 59.0755 58.5155 59.0955 58.3155 59.0955C58.1155 59.1155 57.8755 59.1255 57.5955 59.1255C57.2355 59.1255 56.8555 59.0555 56.4555 58.9155C56.0755 58.7955 55.8055 58.6855 55.6455 58.5855C54.9855 58.1855 54.5155 57.6555 54.2355 56.9955C53.9555 56.3155 53.8155 55.4855 53.8155 54.5055C53.8155 53.9055 53.8855 53.3255 54.0255 52.7655C54.1655 52.1855 54.3455 51.6555 54.5655 51.1755C54.8055 50.6755 55.0655 50.2255 55.3455 49.8255C55.6455 49.4255 55.9455 49.0855 56.2455 48.8055C56.4055 48.6455 56.6155 48.4655 56.8755 48.2655C57.1555 48.0655 57.4355 47.8855 57.7155 47.7255C58.0155 47.5655 58.3355 47.4255 58.6755 47.3055C59.0155 47.1655 59.4355 47.0955 59.9355 47.0955C60.4355 47.0955 60.9055 47.2855 61.3455 47.6655C61.8055 48.0255 62.0355 48.4655 62.0355 48.9855C62.0355 49.1055 62.0255 49.2155 62.0055 49.3155C61.9855 49.3955 61.9555 49.4755 61.9155 49.5555C61.8755 49.6755 61.8055 49.8055 61.7055 49.9455C61.6255 50.0655 61.5355 50.1555 61.4355 50.2155C61.2755 50.3355 61.0155 50.3955 60.6555 50.3955C60.4355 50.3955 60.2655 50.3855 60.1455 50.3655C60.0255 50.3255 59.8555 50.3055 59.6355 50.3055C59.3155 50.3055 58.9555 50.4455 58.5555 50.7255C58.1755 50.9855 57.8155 51.3355 57.4755 51.7755C57.1355 52.2155 56.8455 52.7055 56.6055 53.2455C56.3855 53.7655 56.2755 54.2955 56.2755 54.8355C56.2755 55.3355 56.3655 55.7455 56.5455 56.0655C56.7455 56.3855 57.1055 56.5455 57.6255 56.5455C58.0855 56.5455 58.5155 56.4655 58.9155 56.3055C59.3355 56.1255 59.6755 55.9655 59.9355 55.8255C60.1355 55.7255 60.3755 55.5855 60.6555 55.4055C60.9555 55.2055 61.2155 55.0355 61.4355 54.8955C61.6355 54.7755 61.7955 54.6555 61.9155 54.5355C62.0355 54.4155 62.1555 54.3255 62.2755 54.2655C62.3755 54.2255 62.4755 54.1955 62.5755 54.1755C62.6755 54.1555 62.7455 54.1455 62.7855 54.1455C62.9055 54.1455 63.0155 54.1855 63.1155 54.2655ZM83.9515 57.7455C83.8515 58.5255 83.4215 58.9155 82.6615 58.9155C82.6015 58.9155 82.5415 58.9155 82.4815 58.9155C82.4215 58.9355 82.3615 58.9455 82.3015 58.9455C82.2415 58.9455 82.1815 58.9055 82.1215 58.8255C82.0415 58.8255 81.9515 58.8055 81.8515 58.7655C81.7715 58.7255 81.7015 58.7055 81.6415 58.7055C81.6015 58.6655 81.5715 58.6255 81.5515 58.5855C81.5315 58.5455 81.5015 58.5055 81.4615 58.4655C81.3015 58.3655 81.1715 58.1955 81.0715 57.9555C81.0115 57.8755 80.9615 57.7955 80.9215 57.7155C80.8815 57.6155 80.8415 57.5255 80.8015 57.4455C80.7015 57.2255 80.6315 57.0355 80.5915 56.8755C80.5515 56.6955 80.5115 56.5055 80.4715 56.3055C80.4515 56.1055 80.4415 55.8855 80.4415 55.6455C80.4415 55.4055 80.4415 55.1055 80.4415 54.7455V54.4755C80.4215 54.3955 80.3715 54.3455 80.2915 54.3255C80.2115 54.2855 80.1515 54.2655 80.1115 54.2655C80.0715 54.2655 79.9415 54.3555 79.7215 54.5355C79.5215 54.6955 79.2515 54.9255 78.9115 55.2255C78.5915 55.5055 78.2315 55.8255 77.8315 56.1855C77.4315 56.5455 77.0315 56.9155 76.6315 57.2955C76.4715 57.4555 76.2815 57.6455 76.0615 57.8655C75.8615 58.0655 75.5515 58.1655 75.1315 58.1655C75.0315 58.1655 74.8615 58.1355 74.6215 58.0755C74.4015 58.0155 74.2515 57.9555 74.1715 57.8955L74.0515 57.8055C73.9315 57.5655 73.8215 57.3155 73.7215 57.0555C73.6215 56.7755 73.5515 56.3455 73.5115 55.7655C73.4915 55.5855 73.4715 55.3955 73.4515 55.1955C73.4515 54.9955 73.4515 54.7855 73.4515 54.5655C73.4515 54.4655 73.4515 54.3555 73.4515 54.2355C73.4515 54.0955 73.4315 53.9755 73.3915 53.8755C73.3515 53.7755 73.3115 53.7255 73.2715 53.7255C73.1315 53.7255 73.0315 53.7355 72.9715 53.7555C72.8715 53.7955 72.7815 53.8455 72.7015 53.9055C72.6215 53.9655 72.5015 54.0755 72.3415 54.2355C72.1015 54.4555 71.8315 54.7155 71.5315 55.0155C71.2315 55.2955 70.8915 55.6255 70.5115 56.0055C70.0915 56.4255 69.7015 56.8255 69.3415 57.2055C69.0015 57.5655 68.7615 57.8555 68.6215 58.0755C68.5815 58.1555 68.5415 58.2455 68.5015 58.3455C68.4615 58.4655 68.4315 58.5555 68.4115 58.6155C68.3715 58.6955 68.3415 58.7655 68.3215 58.8255C68.3015 58.8855 68.2715 58.9355 68.2315 58.9755C68.1315 59.0755 68.0215 59.1355 67.9015 59.1555C67.7815 59.1955 67.6415 59.2155 67.4815 59.2155C67.1415 59.2155 66.8015 59.0355 66.4615 58.6755C66.1415 58.3155 65.9815 57.8455 65.9815 57.2655C65.9815 56.9855 66.0115 56.6355 66.0715 56.2155C66.1315 55.7755 66.2015 55.3355 66.2815 54.8955C66.3615 54.4355 66.4415 53.9855 66.5215 53.5455C66.6215 53.1055 66.7015 52.7355 66.7615 52.4355C66.8215 52.1555 66.8815 51.8255 66.9415 51.4455C67.0215 51.0655 67.0915 50.6955 67.1515 50.3355C67.2315 49.9755 67.2915 49.6455 67.3315 49.3455C67.3915 49.0455 67.4215 48.8355 67.4215 48.7155C67.4215 48.5555 67.3915 48.3355 67.3315 48.0555C67.3715 47.9155 67.4215 47.8155 67.4815 47.7555C67.6015 47.6155 67.7015 47.5155 67.7815 47.4555C67.8815 47.3755 68.0015 47.3355 68.1415 47.3355C68.3215 47.3355 68.4915 47.3655 68.6515 47.4255C68.9715 47.5455 69.2215 47.7555 69.4015 48.0555C69.5815 48.3555 69.7115 48.6755 69.7915 49.0155L69.8215 49.1655C69.7815 49.2855 69.7615 49.3655 69.7615 49.4055V49.5255C69.7615 49.5455 69.7715 49.5655 69.7915 49.5855C69.7915 50.0255 69.7515 50.4355 69.6715 50.8155C69.5915 51.1955 69.4815 51.6455 69.3415 52.1655C69.3015 52.3655 69.2515 52.5855 69.1915 52.8255C69.1515 53.0455 69.1315 53.2055 69.1315 53.3055C69.1315 53.4055 69.1815 53.4555 69.2815 53.4555C69.3815 53.4555 69.4715 53.4155 69.5515 53.3355C69.6315 53.2555 69.7015 53.1855 69.7615 53.1255C70.2815 52.4855 70.8115 51.8855 71.3515 51.3255C71.8915 50.7455 72.4315 50.2055 72.9715 49.7055C73.1715 49.5255 73.3315 49.4055 73.4515 49.3455C73.5715 49.2655 73.7115 49.2255 73.8715 49.2255C74.3515 49.2255 74.7615 49.3655 75.1015 49.6455C75.4415 49.9055 75.6515 50.1355 75.7315 50.3355C75.8315 50.6155 75.9015 50.8455 75.9415 51.0255C75.9815 51.2055 76.0015 51.3855 76.0015 51.5655C76.0015 51.8455 75.9915 52.1655 75.9715 52.5255C75.9715 52.8655 75.9715 53.1555 75.9715 53.3955C75.9715 53.5955 76.0015 53.7355 76.0615 53.8155C76.1415 53.8755 76.2315 53.9055 76.3315 53.9055C76.3515 53.9055 76.4215 53.8655 76.5415 53.7855C76.6615 53.6855 76.7915 53.5755 76.9315 53.4555C77.0915 53.3355 77.2515 53.2055 77.4115 53.0655C77.5915 52.9255 77.7415 52.7955 77.8615 52.6755C78.4015 52.2155 78.9015 51.7855 79.3615 51.3855C79.8415 50.9855 80.1915 50.6955 80.4115 50.5155C80.5915 50.3555 80.7415 50.2555 80.8615 50.2155C80.9815 50.1555 81.1415 50.1255 81.3415 50.1255C81.5215 50.1255 81.7015 50.2055 81.8815 50.3655C82.0815 50.5255 82.2615 50.7155 82.4215 50.9355C82.5815 51.1555 82.7115 51.3855 82.8115 51.6255C82.9115 51.8655 82.9615 52.0755 82.9615 52.2555C82.9615 52.5755 82.9415 52.9355 82.9015 53.3355C82.8615 53.7355 82.8415 54.1155 82.8415 54.4755C82.8415 54.6155 82.8515 54.8255 82.8715 55.1055C82.9115 55.3655 82.9515 55.5255 82.9915 55.5855C83.0115 55.8055 83.0815 56.0155 83.2015 56.2155C83.3215 56.3955 83.4615 56.5955 83.6215 56.8155L83.8315 57.0555L83.9515 57.1455C83.9315 57.1455 83.9215 57.1555 83.9215 57.1755V57.2355C83.9215 57.2755 83.9215 57.3055 83.9215 57.3255C83.9415 57.3255 83.9515 57.3455 83.9515 57.3855V57.7455ZM89.7488 58.4955C89.1688 58.4955 88.6688 58.3955 88.2488 58.1955C87.8488 57.9955 87.5188 57.7355 87.2588 57.4155C86.9988 57.0755 86.7988 56.7155 86.6588 56.3355C86.5388 55.9355 86.4788 55.5355 86.4788 55.1355C86.4788 54.5155 86.5988 53.9455 86.8388 53.4255C87.0788 52.8855 87.3688 52.3855 87.7088 51.9255C87.8288 51.7655 87.9688 51.5855 88.1288 51.3855C88.3088 51.1655 88.4888 50.9655 88.6688 50.7855C88.8688 50.5855 89.0588 50.4055 89.2388 50.2455C89.4188 50.0855 89.5788 49.9755 89.7188 49.9155C89.9988 49.7755 90.1988 49.6455 90.3188 49.5255C90.4588 49.3855 90.6488 49.3155 90.8888 49.3155C91.3688 49.3155 91.7988 49.4355 92.1788 49.6755C92.5588 49.8955 92.8788 50.1955 93.1387 50.5755C93.3988 50.9555 93.5888 51.3855 93.7088 51.8655C93.8488 52.3455 93.9188 52.8355 93.9188 53.3355C93.9188 54.9155 93.5688 56.1755 92.8688 57.1155C92.1688 58.0355 91.1288 58.4955 89.7488 58.4955ZM90.4688 51.8955C90.3888 51.8955 90.3088 51.9055 90.2288 51.9255C90.1488 51.9255 90.0788 51.9555 90.0188 52.0155C89.8588 52.1755 89.7288 52.3255 89.6287 52.4655C89.5288 52.5855 89.3988 52.7855 89.2388 53.0655C89.1388 53.2455 89.0488 53.4855 88.9688 53.7855C88.9088 54.0655 88.8788 54.3755 88.8788 54.7155C88.8788 55.0555 88.9688 55.3355 89.1488 55.5555C89.3288 55.7555 89.6188 55.8555 90.0188 55.8555C90.2588 55.8555 90.4988 55.7955 90.7388 55.6755C90.9788 55.5355 91.1888 55.3555 91.3688 55.1355C91.5488 54.9155 91.6988 54.6555 91.8188 54.3555C91.9388 54.0555 91.9988 53.7355 91.9988 53.3955C91.9988 53.0155 91.8788 52.6755 91.6388 52.3755C91.3988 52.0555 91.0988 51.8955 90.7388 51.8955H90.4688ZM97.8462 67.1955C97.6862 67.1955 97.5662 67.1255 97.4862 66.9855C97.4262 66.8455 97.3862 66.6855 97.3662 66.5055C97.3462 66.3455 97.3362 66.1855 97.3362 66.0255C97.3362 65.2655 97.3062 64.5155 97.2462 63.7755C97.2062 63.0355 97.1562 62.3155 97.0962 61.6155C97.0562 60.9355 97.0062 60.2955 96.9462 59.6955C96.9062 59.0955 96.8862 58.5555 96.8862 58.0755C96.8862 57.7155 96.9062 57.4455 96.9462 57.2655C97.0062 57.0655 97.0762 56.9155 97.1562 56.8155C97.2362 56.6955 97.3262 56.6055 97.4262 56.5455C97.5262 56.4855 97.6362 56.4055 97.7562 56.3055C97.8562 55.4855 97.9462 54.7955 98.0262 54.2355C98.1062 53.6755 98.1762 53.2455 98.2362 52.9455C98.7762 50.3255 99.5062 48.3855 100.426 47.1255C101.366 45.8655 102.486 45.2355 103.786 45.2355C104.406 45.2355 104.946 45.3855 105.406 45.6855C105.886 45.9855 106.286 46.3855 106.606 46.8855C106.646 46.9655 106.696 47.0755 106.756 47.2155C106.816 47.3355 106.846 47.4255 106.846 47.4855C106.906 47.5655 106.966 47.6755 107.026 47.8155C107.106 47.9555 107.166 48.1355 107.206 48.3555C107.246 48.5355 107.276 48.7255 107.296 48.9255C107.316 49.1255 107.326 49.3255 107.326 49.5255C107.326 50.4255 107.086 51.2555 106.606 52.0155C106.146 52.7555 105.556 53.4155 104.836 53.9955C104.116 54.5755 103.316 55.0755 102.436 55.4955C101.576 55.8955 100.756 56.2055 99.9762 56.4255C99.9562 57.7255 99.9462 58.9455 99.9462 60.0855C99.9462 61.2255 99.9162 62.2555 99.8562 63.1755C99.8162 64.1155 99.7262 64.9155 99.5862 65.5755C99.4662 66.2355 99.2862 66.7255 99.0462 67.0455C98.9462 67.1855 98.7962 67.2855 98.5962 67.3455C98.5562 67.3655 98.5062 67.3855 98.4462 67.4055C98.3862 67.4255 98.3362 67.4355 98.2962 67.4355C98.1962 67.4355 98.1062 67.4055 98.0262 67.3455C97.9662 67.2855 97.9062 67.2355 97.8462 67.1955ZM104.506 47.9355C104.286 47.7155 104.006 47.6055 103.666 47.6055C103.326 47.6055 102.996 47.7655 102.676 48.0855C102.356 48.4055 102.046 48.8555 101.746 49.4355C101.466 49.9955 101.206 50.6655 100.966 51.4455C100.726 52.2255 100.526 53.0755 100.366 53.9955C100.366 54.0155 100.356 54.0355 100.336 54.0555C100.336 54.0555 100.336 54.0655 100.336 54.0855C101.816 53.5855 102.956 52.9155 103.756 52.0755C104.556 51.2355 104.956 50.2655 104.956 49.1655C104.956 49.0455 104.936 48.9255 104.896 48.8055C104.856 48.6855 104.816 48.5655 104.776 48.4455C104.736 48.3855 104.706 48.3255 104.686 48.2655C104.686 48.1855 104.666 48.1255 104.626 48.0855L104.506 47.9355ZM118.449 58.7655C118.029 58.7655 117.679 58.6555 117.399 58.4355C117.119 58.2355 116.889 57.9855 116.709 57.6855C116.549 57.3855 116.429 57.0755 116.349 56.7555C116.269 56.4155 116.219 56.1255 116.199 55.8855C116.159 55.8255 116.119 55.7955 116.079 55.7955C115.999 55.7955 115.899 55.8655 115.779 56.0055C115.659 56.1655 115.519 56.3655 115.359 56.6055C115.199 56.8255 114.979 57.1055 114.699 57.4455C114.319 57.9055 113.859 58.3055 113.319 58.6455C112.779 59.0055 112.279 59.1855 111.819 59.1855C111.239 59.1855 110.739 58.9155 110.319 58.3755C109.899 57.8355 109.689 57.0855 109.689 56.1255C109.689 55.6455 109.719 55.1855 109.779 54.7455C109.839 54.2855 109.909 53.8555 109.989 53.4555C110.069 53.0555 110.119 52.6355 110.139 52.1955C110.159 51.7555 110.179 51.2755 110.199 50.7555C110.199 50.5955 110.199 50.4455 110.199 50.3055C110.219 50.1655 110.229 50.0455 110.229 49.9455C110.229 49.9055 110.219 49.8755 110.199 49.8555C110.179 49.8355 110.159 49.8055 110.139 49.7655C110.119 49.7255 110.109 49.6755 110.109 49.6155C110.109 49.5555 110.099 49.4855 110.079 49.4055C110.079 49.3455 110.079 49.2955 110.079 49.2555C110.099 49.1955 110.109 49.1355 110.109 49.0755C110.149 48.7955 110.269 48.5655 110.469 48.3855C110.669 48.1855 110.889 48.0855 111.129 48.0855C111.409 48.0855 111.669 48.1755 111.909 48.3555C112.169 48.5355 112.379 48.7655 112.539 49.0455C112.679 49.2655 112.769 49.4955 112.809 49.7355C112.869 49.9555 112.899 50.1755 112.899 50.3955C112.899 50.5955 112.889 50.7455 112.869 50.8455V51.1755C112.869 51.3355 112.859 51.5155 112.839 51.7155C112.839 51.9155 112.829 52.1255 112.809 52.3455C112.789 52.5455 112.769 52.7455 112.749 52.9455C112.729 53.1255 112.709 53.2655 112.689 53.3655C112.649 53.5255 112.599 53.7255 112.539 53.9655C112.499 54.2055 112.449 54.4455 112.389 54.6855C112.349 54.9055 112.309 55.1055 112.269 55.2855C112.229 55.4655 112.209 55.5855 112.209 55.6455C112.209 55.8055 112.239 55.9155 112.299 55.9755C112.379 56.0355 112.469 56.0755 112.569 56.0955C112.749 56.0955 113.019 55.9655 113.379 55.7055C113.759 55.4255 114.139 55.0655 114.519 54.6255C114.919 54.1855 115.279 53.6855 115.599 53.1255C115.939 52.5455 116.179 51.9655 116.319 51.3855C116.479 50.7455 116.639 50.3155 116.799 50.0955C116.959 49.8555 117.119 49.7355 117.279 49.7355C117.679 49.7355 118.059 49.9055 118.419 50.2455C118.799 50.5855 118.989 51.0855 118.989 51.7455C118.989 52.0855 118.949 52.4355 118.869 52.7955C118.809 53.1555 118.759 53.4655 118.719 53.7255C118.679 53.9455 118.649 54.1755 118.629 54.4155C118.609 54.6555 118.599 54.9155 118.599 55.1955C118.599 55.3555 118.599 55.5255 118.599 55.7055C118.619 55.8855 118.659 56.0155 118.719 56.0955C118.759 56.0955 118.839 56.0755 118.959 56.0355C119.139 55.9555 119.359 55.9155 119.619 55.9155C119.759 55.9155 119.939 55.9855 120.159 56.1255L120.309 56.2755C120.349 56.3155 120.389 56.3755 120.429 56.4555V56.9355C120.409 57.1355 120.359 57.3455 120.279 57.5655C120.199 57.7655 120.079 57.9555 119.919 58.1355C119.779 58.3155 119.579 58.4655 119.319 58.5855C119.079 58.7055 118.789 58.7655 118.449 58.7655ZM129.537 49.9755C129.537 49.8755 129.527 49.7755 129.507 49.6755C129.507 49.5555 129.487 49.4455 129.447 49.3455C129.347 49.3255 129.217 49.3155 129.057 49.3155C128.917 49.2955 128.767 49.2855 128.607 49.2855C128.367 49.2855 128.097 49.3155 127.797 49.3755C127.497 49.4155 127.217 49.4955 126.957 49.6155C126.717 49.7355 126.507 49.9055 126.327 50.1255C126.167 50.3255 126.087 50.5955 126.087 50.9355C126.087 51.1755 126.157 51.3755 126.297 51.5355C126.457 51.6755 126.637 51.7955 126.837 51.8955C127.037 51.9755 127.247 52.0355 127.467 52.0755C127.687 52.1155 127.857 52.1355 127.977 52.1355C128.177 52.1355 128.407 52.1355 128.667 52.1355C128.947 52.1155 129.197 52.0855 129.417 52.0455L129.537 49.9755ZM129.057 57.0255C129.077 56.7655 129.107 56.4355 129.147 56.0355C129.207 55.6155 129.257 54.9955 129.297 54.1755C128.557 54.1755 127.877 54.4455 127.257 54.9855C127.177 55.0655 127.097 55.1155 127.017 55.1355C126.997 55.2155 126.947 55.2955 126.867 55.3755C126.707 55.5355 126.577 55.6655 126.477 55.7655C126.397 55.8655 126.297 55.9955 126.177 56.1555C125.677 56.8155 125.247 57.5255 124.887 58.2855C124.767 58.5455 124.597 58.7155 124.377 58.7955C124.157 58.8955 123.897 58.9455 123.597 58.9455C123.377 58.9455 123.127 58.9155 122.847 58.8555C122.567 58.7955 122.377 58.6555 122.277 58.4355C122.237 58.3555 122.197 58.2655 122.157 58.1655C122.117 58.0855 122.097 57.9955 122.097 57.8955C122.097 57.7355 122.167 57.5755 122.307 57.4155C122.467 57.2555 122.617 57.0755 122.757 56.8755C122.977 56.5355 123.207 56.2055 123.447 55.8855C123.687 55.5455 123.897 55.2655 124.077 55.0455C124.117 55.0055 124.187 54.9455 124.287 54.8655C124.407 54.7655 124.477 54.6955 124.497 54.6555C124.637 54.6555 124.707 54.5655 124.707 54.3855C124.707 54.3655 124.747 54.3455 124.827 54.3255C124.907 54.2855 124.957 54.2555 124.977 54.2355L125.127 53.9955C125.187 53.9355 125.237 53.8755 125.277 53.8155C125.337 53.7555 125.407 53.6955 125.487 53.6355C124.907 53.4555 124.437 53.1455 124.077 52.7055C123.717 52.2455 123.537 51.7155 123.537 51.1155C123.537 49.7755 123.987 48.7755 124.887 48.1155C125.787 47.4555 127.087 47.1255 128.787 47.1255C129.387 47.1255 129.877 47.1355 130.257 47.1555C130.657 47.1755 130.977 47.2155 131.217 47.2755C131.337 47.3155 131.427 47.3655 131.487 47.4255C131.567 47.4655 131.647 47.5055 131.727 47.5455C131.827 47.6055 131.877 47.6755 131.877 47.7555C131.897 47.8155 131.927 47.8955 131.967 47.9955C132.007 48.1155 132.027 48.2555 132.027 48.4155C132.027 48.5555 132.027 48.7355 132.027 48.9555C132.027 49.2555 132.007 49.6655 131.967 50.1855C131.927 50.7055 131.877 51.3155 131.817 52.0155C131.737 52.8355 131.657 53.6955 131.577 54.5955C131.497 55.4955 131.447 56.3255 131.427 57.0855C131.427 57.7055 131.377 58.1655 131.277 58.4655C131.237 58.5255 131.207 58.5555 131.187 58.5555C131.167 58.5555 131.137 58.5755 131.097 58.6155C131.057 58.6555 131.007 58.6755 130.947 58.6755C130.907 58.6755 130.867 58.6955 130.827 58.7355C130.747 58.7755 130.677 58.7955 130.617 58.7955C130.577 58.8155 130.527 58.8255 130.467 58.8255C130.367 58.8255 130.257 58.8055 130.137 58.7655C130.017 58.7455 129.887 58.7355 129.747 58.7355C129.587 58.7355 129.467 58.7155 129.387 58.6755C129.307 58.6555 129.237 58.5655 129.177 58.4055C129.057 58.3255 128.997 58.1255 128.997 57.8055C128.997 57.7455 128.997 57.6455 128.997 57.5055C129.017 57.3655 129.037 57.2055 129.057 57.0255ZM44.1 103.736C44.04 103.736 43.96 103.756 43.86 103.796C43.78 103.856 43.7 103.886 43.62 103.886C43.54 103.966 43.46 104.036 43.38 104.096C43.3 104.156 43.17 104.206 42.99 104.246C42.75 104.366 42.49 104.466 42.21 104.546C41.93 104.626 41.61 104.666 41.25 104.666C40.61 104.666 40.06 104.546 39.6 104.306C39.16 104.066 38.8 103.756 38.52 103.376C38.24 102.996 38.03 102.586 37.89 102.146C37.77 101.686 37.71 101.246 37.71 100.826C37.71 100.446 37.73 100.096 37.77 99.7755C37.81 99.4355 37.88 99.0955 37.98 98.7555C38.02 98.5955 38.06 98.4555 38.1 98.3355C38.14 98.2155 38.19 98.0755 38.25 97.9155L38.55 97.1955C38.57 97.1355 38.59 97.0555 38.61 96.9555C38.65 96.8555 38.7 96.7555 38.76 96.6555C38.84 96.4555 38.95 96.2555 39.09 96.0555C39.51 95.3555 39.99 94.8155 40.53 94.4355C41.07 94.0555 41.63 93.8655 42.21 93.8655C42.23 93.8855 42.25 93.8955 42.27 93.8955C42.31 93.8955 42.35 93.9055 42.39 93.9255C42.43 93.9455 42.46 93.9555 42.48 93.9555C42.52 93.9555 42.55 93.9655 42.57 93.9855C42.61 94.0255 42.66 94.0455 42.72 94.0455C42.72 94.0855 42.75 94.1455 42.81 94.2255C43.17 94.3255 43.55 94.5455 43.95 94.8855C44.37 95.2055 44.75 95.5955 45.09 96.0555C45.43 96.5155 45.71 97.0355 45.93 97.6155C46.15 98.1755 46.26 98.7455 46.26 99.3255C46.26 100.226 46.08 101.046 45.72 101.786C45.36 102.506 44.89 103.106 44.31 103.586L44.1 103.736ZM42.21 96.8355C42.17 96.8755 42.14 96.8955 42.12 96.8955C42.08 96.9155 42.03 96.9355 41.97 96.9555C41.93 96.9755 41.89 96.9855 41.85 96.9855C41.75 97.0055 41.66 97.0155 41.58 97.0155C41.5 97.0155 41.41 97.0655 41.31 97.1655C41.19 97.2055 41.1 97.2655 41.04 97.3455C40.98 97.4055 40.87 97.5555 40.71 97.7955C40.43 98.0955 40.24 98.5055 40.14 99.0255C40.04 99.5255 39.99 100.006 39.99 100.466C39.99 100.966 40.12 101.356 40.38 101.636C40.64 101.896 41 102.026 41.46 102.026C42.22 102.026 42.87 101.806 43.41 101.366C43.97 100.906 44.25 100.226 44.25 99.3255C44.25 98.6455 44.06 98.0655 43.68 97.5855C43.32 97.1055 42.85 96.8355 42.27 96.7755L42.21 96.8355ZM58.6624 99.2655C58.7824 99.3055 58.8824 99.4055 58.9624 99.5655C59.1024 99.8455 59.1724 100.176 59.1724 100.556C59.1724 100.716 59.1224 100.876 59.0224 101.036C58.9424 101.196 58.8524 101.326 58.7524 101.426C58.5524 101.626 58.3724 101.816 58.2124 101.996C58.0524 102.156 57.8624 102.316 57.6424 102.476C57.4224 102.636 57.1324 102.816 56.7724 103.016C56.4324 103.236 56.0724 103.426 55.6924 103.586C55.4324 103.706 55.2024 103.796 55.0024 103.856C54.8224 103.936 54.6324 103.996 54.4324 104.036C54.2524 104.076 54.0624 104.096 53.8624 104.096C53.6624 104.116 53.4224 104.126 53.1424 104.126C52.7824 104.126 52.4024 104.056 52.0024 103.916C51.6224 103.796 51.3524 103.686 51.1924 103.586C50.5324 103.186 50.0624 102.656 49.7824 101.996C49.5024 101.316 49.3624 100.486 49.3624 99.5055C49.3624 98.9055 49.4324 98.3255 49.5724 97.7655C49.7124 97.1855 49.8924 96.6555 50.1124 96.1755C50.3524 95.6755 50.6124 95.2255 50.8924 94.8255C51.1924 94.4255 51.4924 94.0855 51.7924 93.8055C51.9524 93.6455 52.1624 93.4655 52.4224 93.2655C52.7024 93.0655 52.9824 92.8855 53.2624 92.7255C53.5624 92.5655 53.8824 92.4255 54.2224 92.3055C54.5624 92.1655 54.9824 92.0955 55.4824 92.0955C55.9824 92.0955 56.4524 92.2855 56.8924 92.6655C57.3524 93.0255 57.5824 93.4655 57.5824 93.9855C57.5824 94.1055 57.5724 94.2155 57.5524 94.3155C57.5324 94.3955 57.5024 94.4755 57.4624 94.5555C57.4224 94.6755 57.3524 94.8055 57.2524 94.9455C57.1724 95.0655 57.0824 95.1555 56.9824 95.2155C56.8224 95.3355 56.5624 95.3955 56.2024 95.3955C55.9824 95.3955 55.8124 95.3855 55.6924 95.3655C55.5724 95.3255 55.4024 95.3055 55.1824 95.3055C54.8624 95.3055 54.5024 95.4455 54.1024 95.7255C53.7224 95.9855 53.3624 96.3355 53.0224 96.7755C52.6824 97.2155 52.3924 97.7055 52.1524 98.2455C51.9324 98.7655 51.8224 99.2955 51.8224 99.8355C51.8224 100.336 51.9124 100.746 52.0924 101.066C52.2924 101.386 52.6524 101.546 53.1724 101.546C53.6324 101.546 54.0624 101.466 54.4624 101.306C54.8824 101.126 55.2224 100.966 55.4824 100.826C55.6824 100.726 55.9224 100.586 56.2024 100.406C56.5024 100.206 56.7624 100.036 56.9824 99.8955C57.1824 99.7755 57.3424 99.6555 57.4624 99.5355C57.5824 99.4155 57.7024 99.3255 57.8224 99.2655C57.9224 99.2255 58.0224 99.1955 58.1224 99.1755C58.2224 99.1555 58.2924 99.1455 58.3324 99.1455C58.4524 99.1455 58.5624 99.1855 58.6624 99.2655ZM65.3684 103.916C65.1484 103.916 64.9184 103.906 64.6784 103.886C64.4584 103.866 64.2684 103.836 64.1084 103.796H64.0484C64.0284 103.796 64.0084 103.786 63.9884 103.766C63.7084 103.706 63.4484 103.676 63.2084 103.676C62.5684 103.676 62.1284 103.456 61.8884 103.016V102.446C61.8684 102.346 61.8584 102.176 61.8584 101.936V100.676C61.8584 100.296 61.8584 99.8755 61.8584 99.4155C61.8784 98.9555 61.9084 98.4955 61.9484 98.0355C61.9684 97.5755 61.9984 97.0955 62.0384 96.5955C62.0984 96.0755 62.1484 95.5855 62.1884 95.1255C62.2284 94.6655 62.2684 94.2655 62.3084 93.9255C62.3684 93.5655 62.4084 93.3155 62.4284 93.1755V92.7555C62.4284 92.6755 62.4784 92.6055 62.5784 92.5455C62.5984 92.5255 62.6084 92.4955 62.6084 92.4555C62.6084 92.4155 62.6184 92.3755 62.6384 92.3355C62.6784 92.2755 62.6984 92.1955 62.6984 92.0955C62.6984 91.8955 62.7884 91.7855 62.9684 91.7655C63.1484 91.7255 63.2884 91.7055 63.3884 91.7055C63.4284 91.7055 63.4884 91.6955 63.5684 91.6755C63.6684 91.6555 63.7384 91.6455 63.7784 91.6455C63.9584 91.6455 64.1284 91.6955 64.2884 91.7955C64.4484 91.8955 64.6084 91.9755 64.7684 92.0355C65.0684 91.9355 65.3584 91.8655 65.6384 91.8255C65.9184 91.7855 66.1784 91.7655 66.4184 91.7655C66.9984 91.7655 67.5584 91.7855 68.0984 91.8255C68.6584 91.8655 69.1484 91.9655 69.5684 92.1255C69.9884 92.2855 70.3284 92.5355 70.5884 92.8755C70.8484 93.2155 70.9784 93.6855 70.9784 94.2855C70.9784 94.6655 70.8884 95.1055 70.7084 95.6055C70.5284 96.0855 70.0684 96.6055 69.3284 97.1655C69.8684 97.3855 70.3184 97.6755 70.6784 98.0355C71.0384 98.3755 71.2184 98.8955 71.2184 99.5955C71.2184 100.496 70.9484 101.296 70.4084 101.996C70.3084 102.116 70.1884 102.236 70.0484 102.356C69.9084 102.456 69.7384 102.536 69.5384 102.596C69.3984 102.876 69.0984 103.116 68.6384 103.316C67.7184 103.716 66.6284 103.916 65.3684 103.916ZM65.2184 98.7255C64.9984 98.7255 64.8284 98.7355 64.7084 98.7555C64.6084 98.7555 64.4684 98.7655 64.2884 98.7855C64.2684 98.9455 64.2584 99.1255 64.2584 99.3255C64.2384 99.4855 64.2284 99.6655 64.2284 99.8655C64.2284 100.066 64.2284 100.256 64.2284 100.436C64.2284 100.616 64.2284 100.786 64.2284 100.946C64.2284 101.106 64.2484 101.266 64.2884 101.426C64.5884 101.486 65.0184 101.516 65.5784 101.516C65.6984 101.516 65.8584 101.506 66.0584 101.486C66.2784 101.466 66.4984 101.436 66.7184 101.396C66.8184 101.376 66.9284 101.356 67.0484 101.336C67.1884 101.316 67.3084 101.286 67.4084 101.246C67.4484 101.226 67.5084 101.196 67.5884 101.156C67.6884 101.096 67.7584 101.056 67.7984 101.036C67.8784 100.996 67.9384 100.976 67.9784 100.976C68.0384 100.956 68.0984 100.926 68.1584 100.886C68.2384 100.826 68.2784 100.766 68.2784 100.706C68.2984 100.646 68.3384 100.566 68.3984 100.466C68.4384 100.366 68.4784 100.266 68.5184 100.166C68.5584 100.046 68.5784 99.9255 68.5784 99.8055C68.5784 99.3255 68.3384 99.0255 67.8584 98.9055C67.3784 98.7855 66.4984 98.7255 65.2184 98.7255ZM66.5684 94.0155C66.3484 94.0155 66.1084 94.0255 65.8484 94.0455C65.5884 94.0655 65.2284 94.1155 64.7684 94.1955C64.6884 94.4555 64.6184 94.7855 64.5584 95.1855C64.5184 95.5655 64.4684 96.0655 64.4084 96.6855H64.9784C65.3984 96.6855 65.8084 96.6555 66.2084 96.5955C66.6084 96.5155 66.9684 96.4055 67.2884 96.2655C67.6084 96.1055 67.8584 95.9155 68.0384 95.6955C68.2384 95.4555 68.3384 95.1755 68.3384 94.8555C68.3384 94.5555 68.1584 94.3455 67.7984 94.2255C67.4584 94.0855 67.0484 94.0155 66.5684 94.0155ZM77.3855 103.496C76.8055 103.496 76.3055 103.396 75.8855 103.196C75.4855 102.996 75.1555 102.736 74.8955 102.416C74.6355 102.076 74.4355 101.716 74.2955 101.336C74.1755 100.936 74.1155 100.536 74.1155 100.136C74.1155 99.5155 74.2355 98.9455 74.4755 98.4255C74.7155 97.8855 75.0055 97.3855 75.3455 96.9255C75.4655 96.7655 75.6055 96.5855 75.7655 96.3855C75.9455 96.1655 76.1255 95.9655 76.3055 95.7855C76.5055 95.5855 76.6955 95.4055 76.8755 95.2455C77.0555 95.0855 77.2155 94.9755 77.3555 94.9155C77.6355 94.7755 77.8355 94.6455 77.9555 94.5255C78.0955 94.3855 78.2855 94.3155 78.5255 94.3155C79.0055 94.3155 79.4355 94.4355 79.8155 94.6755C80.1955 94.8955 80.5155 95.1955 80.7755 95.5755C81.0355 95.9555 81.2255 96.3855 81.3455 96.8655C81.4855 97.3455 81.5555 97.8355 81.5555 98.3355C81.5555 99.9155 81.2055 101.176 80.5055 102.116C79.8055 103.036 78.7655 103.496 77.3855 103.496ZM78.1055 96.8955C78.0255 96.8955 77.9455 96.9055 77.8655 96.9255C77.7855 96.9255 77.7155 96.9555 77.6555 97.0155C77.4955 97.1755 77.3655 97.3255 77.2655 97.4655C77.1655 97.5855 77.0355 97.7855 76.8755 98.0655C76.7755 98.2455 76.6855 98.4855 76.6055 98.7855C76.5455 99.0655 76.5155 99.3755 76.5155 99.7155C76.5155 100.056 76.6055 100.336 76.7855 100.556C76.9655 100.756 77.2555 100.856 77.6555 100.856C77.8955 100.856 78.1355 100.796 78.3755 100.676C78.6155 100.536 78.8255 100.356 79.0055 100.136C79.1855 99.9155 79.3355 99.6555 79.4555 99.3555C79.5755 99.0555 79.6355 98.7355 79.6355 98.3955C79.6355 98.0155 79.5155 97.6755 79.2755 97.3755C79.0355 97.0555 78.7355 96.8955 78.3755 96.8955H78.1055ZM86.7129 100.736C86.4729 100.736 86.2729 100.736 86.1129 100.736C85.9729 100.736 85.8429 100.736 85.7229 100.736C85.6029 100.736 85.4729 100.736 85.3329 100.736C85.1929 100.716 85.0229 100.696 84.8229 100.676C84.5029 100.636 84.2629 100.556 84.1029 100.436C83.9629 100.296 83.8529 100.136 83.7729 99.9555C83.6929 99.8355 83.6429 99.7655 83.6229 99.7455C83.6229 99.7055 83.6229 99.6755 83.6229 99.6555C83.6229 99.6355 83.6229 99.6255 83.6229 99.6255C83.6429 99.6055 83.6529 99.5755 83.6529 99.5355C83.6329 99.5155 83.6229 99.4855 83.6229 99.4455C83.6229 99.3855 83.6429 99.3155 83.6829 99.2355C83.6629 99.2155 83.6529 99.1855 83.6529 99.1455C83.6529 99.1055 83.6529 99.0755 83.6529 99.0555C83.6729 99.0355 83.6829 99.0055 83.6829 98.9655C83.6829 98.9455 83.6729 98.9255 83.6529 98.9055C83.6529 98.8855 83.6529 98.8655 83.6529 98.8455C83.7129 98.5855 83.8729 98.3655 84.1329 98.1855C84.4129 98.0055 84.6929 97.9155 84.9729 97.9155C85.2929 97.9155 85.5929 97.9455 85.8729 98.0055C86.1529 98.0455 86.4029 98.0655 86.6229 98.0655C86.6429 97.2655 86.7529 96.5155 86.9529 95.8155C87.1529 95.0955 87.4329 94.4755 87.7929 93.9555C88.1529 93.4155 88.5929 92.9955 89.1129 92.6955C89.6529 92.3755 90.2729 92.2155 90.9729 92.2155C91.1329 92.2155 91.2729 92.2355 91.3929 92.2755C91.5329 92.2955 91.6229 92.3255 91.6629 92.3655L92.1429 92.5455C92.2429 92.5855 92.3429 92.6255 92.4429 92.6655C92.5629 92.7055 92.6529 92.7655 92.7129 92.8455C92.8329 92.9255 92.9329 93.0255 93.0129 93.1455C93.1129 93.2655 93.2129 93.3955 93.3129 93.5355C93.5729 93.9355 93.7029 94.4255 93.7029 95.0055C93.7029 95.4855 93.5829 95.9755 93.3429 96.4755C93.1229 96.9755 92.8229 97.4555 92.4429 97.9155C92.0629 98.3555 91.6129 98.7655 91.0929 99.1455C90.5929 99.5055 90.0629 99.8155 89.5029 100.076C89.8629 100.476 90.3529 100.676 90.9729 100.676C91.4929 100.676 91.9429 100.646 92.3229 100.586C92.7029 100.506 93.1129 100.466 93.5529 100.466C93.6729 100.466 93.7929 100.486 93.9129 100.526C94.0529 100.546 94.1529 100.566 94.2129 100.586C94.2129 100.626 94.2529 100.676 94.3329 100.736C94.4129 100.796 94.4829 100.886 94.5429 101.006C94.5629 101.046 94.5729 101.086 94.5729 101.126C94.5729 101.166 94.5629 101.206 94.5429 101.246C94.5229 101.266 94.5129 101.296 94.5129 101.336C94.5129 101.376 94.5229 101.406 94.5429 101.426C94.5029 101.466 94.4829 101.546 94.4829 101.666C94.4829 101.746 94.4929 101.806 94.5129 101.846C94.4729 101.886 94.4229 101.946 94.3629 102.026C94.3229 102.106 94.3029 102.186 94.3029 102.266C94.3029 102.326 94.3129 102.366 94.3329 102.386C94.2529 102.426 94.0129 102.596 93.6129 102.896C93.5129 102.976 93.4429 103.026 93.4029 103.046C93.3629 103.066 93.3029 103.096 93.2229 103.136C93.1829 103.156 93.1329 103.166 93.0729 103.166C93.0329 103.166 92.9929 103.176 92.9529 103.196C92.8729 103.196 92.8229 103.206 92.8029 103.226C92.7829 103.226 92.7629 103.216 92.7429 103.196C92.7429 103.196 92.7329 103.196 92.7129 103.196C92.6929 103.196 92.6729 103.196 92.6529 103.196C92.6529 103.216 92.6429 103.226 92.6229 103.226C92.5829 103.206 92.5429 103.186 92.5029 103.166C92.4629 103.166 92.3929 103.166 92.2929 103.166C92.1929 103.166 92.1029 103.166 92.0229 103.166C91.9629 103.186 91.8929 103.206 91.8129 103.226C91.7329 103.246 91.6329 103.256 91.5129 103.256C91.4129 103.276 91.2629 103.286 91.0629 103.286C90.3029 103.286 89.5529 103.066 88.8129 102.626C88.0929 102.186 87.5329 101.556 87.1329 100.736H86.7129ZM91.0029 94.9155C90.9629 94.8955 90.9029 94.8855 90.8229 94.8855C90.5429 94.8855 90.2729 95.0355 90.0129 95.3355C89.7729 95.6155 89.5729 95.9255 89.4129 96.2655C89.3329 96.4655 89.2529 96.6855 89.1729 96.9255C89.1129 97.1655 89.0629 97.4355 89.0229 97.7355C89.2629 97.7155 89.5129 97.6355 89.7729 97.4955C90.0329 97.3355 90.2729 97.1555 90.4929 96.9555C90.7329 96.7355 90.9229 96.5055 91.0629 96.2655C91.2229 96.0055 91.3029 95.7455 91.3029 95.4855C91.3029 95.2855 91.2429 95.1255 91.1229 95.0055L91.0029 94.9155ZM106.474 104.156C106.354 104.156 106.244 104.146 106.144 104.126C106.044 104.106 105.944 104.076 105.844 104.036C105.744 103.996 105.654 103.946 105.574 103.886C105.514 103.826 105.454 103.776 105.394 103.736C105.194 103.736 105.044 103.576 104.944 103.256C104.844 103.036 104.784 102.816 104.764 102.596C104.764 102.356 104.764 102.116 104.764 101.876C104.764 101.616 104.774 101.366 104.794 101.126C104.814 100.886 104.824 100.636 104.824 100.376C104.824 100.116 104.824 99.8555 104.824 99.5955C104.844 99.3355 104.864 99.0355 104.884 98.6955C104.664 98.7155 104.474 98.7355 104.314 98.7555C104.174 98.7555 104.084 98.7555 104.044 98.7555L100.474 98.9655C100.434 99.3055 100.404 99.6355 100.384 99.9555C100.384 100.256 100.384 100.496 100.384 100.676C100.384 101.076 100.394 101.406 100.414 101.666C100.454 101.926 100.474 102.186 100.474 102.446C100.474 103.026 100.404 103.456 100.264 103.736C100.224 103.876 100.144 103.946 100.024 103.946C99.9642 104.006 99.9142 104.056 99.8742 104.096C99.8342 104.136 99.7742 104.156 99.6942 104.156C99.5142 104.156 99.3642 104.136 99.2442 104.096C99.1242 104.076 99.0142 104.066 98.9142 104.066C98.8742 104.066 98.8342 104.066 98.7942 104.066C98.7542 104.086 98.7142 104.096 98.6742 104.096C98.5942 104.096 98.5142 104.076 98.4342 104.036C98.3742 103.996 98.3242 103.956 98.2842 103.916C98.2242 103.876 98.1842 103.826 98.1642 103.766C98.1642 103.706 98.1442 103.646 98.1042 103.586C98.0442 103.586 97.9942 103.536 97.9542 103.436C97.9342 103.336 97.9242 103.236 97.9242 103.136C97.9242 103.036 97.9242 102.926 97.9242 102.806C97.9442 102.686 97.9642 102.546 97.9842 102.386C98.1242 100.886 98.2242 99.6055 98.2842 98.5455C98.3642 97.4655 98.4042 96.6955 98.4042 96.2355C98.4042 95.7555 98.3842 95.2955 98.3442 94.8555C98.3242 94.3955 98.3142 94.0655 98.3142 93.8655C98.3142 93.6455 98.3442 93.5055 98.4042 93.4455C98.4042 93.4255 98.3942 93.4055 98.3742 93.3855C98.3742 93.3455 98.3742 93.3055 98.3742 93.2655C98.3742 93.2455 98.3742 93.2255 98.3742 93.2055C98.3942 93.1855 98.4042 93.1655 98.4042 93.1455C98.4042 93.1055 98.4142 93.0155 98.4342 92.8755C98.4742 92.7355 98.5342 92.5955 98.6142 92.4555C98.7142 92.2955 98.8442 92.1555 99.0042 92.0355C99.1842 91.9155 99.4042 91.8555 99.6642 91.8555C100.204 91.8555 100.564 91.9655 100.744 92.1855C100.924 92.4055 101.014 92.7355 101.014 93.1755C101.014 93.2355 101.004 93.3055 100.984 93.3855C100.984 93.4455 100.984 93.5155 100.984 93.5955L100.714 95.2455C100.714 95.3855 100.704 95.5555 100.684 95.7555C100.684 95.9355 100.664 96.2555 100.624 96.7155C100.904 96.7155 101.194 96.7155 101.494 96.7155C101.794 96.6955 102.074 96.6855 102.334 96.6855C102.594 96.6655 102.814 96.6555 102.994 96.6555C103.174 96.6355 103.294 96.6255 103.354 96.6255C103.414 96.6255 103.614 96.6255 103.954 96.6255C104.314 96.6055 104.694 96.5855 105.094 96.5655C105.134 96.1855 105.154 95.7755 105.154 95.3355C105.174 94.8955 105.204 94.4055 105.244 93.8655C105.204 93.7655 105.174 93.6255 105.154 93.4455C105.134 93.2655 105.124 93.1255 105.124 93.0255C105.124 92.8855 105.114 92.7555 105.094 92.6355C105.074 92.5155 105.064 92.4055 105.064 92.3055C105.064 92.1655 105.104 92.0355 105.184 91.9155C105.244 91.8155 105.314 91.7655 105.394 91.7655C105.494 91.7455 105.574 91.7155 105.634 91.6755C105.834 91.5155 106.054 91.4355 106.294 91.4355C106.494 91.4355 106.634 91.4455 106.714 91.4655C106.874 91.5055 106.974 91.5755 107.014 91.6755C107.074 91.7555 107.184 91.8555 107.344 91.9755C107.444 91.9755 107.504 92.0855 107.524 92.3055C107.564 92.5255 107.584 92.7255 107.584 92.9055C107.584 93.3455 107.554 93.8755 107.494 94.4955C107.454 95.0955 107.404 95.7555 107.344 96.4755C107.384 96.4755 107.414 96.4755 107.434 96.4755C107.474 96.4555 107.514 96.4455 107.554 96.4455H107.644C107.664 96.4855 107.704 96.5255 107.764 96.5655C107.844 96.6055 107.884 96.7055 107.884 96.8655C107.884 97.0055 107.894 97.1255 107.914 97.2255C107.954 97.3055 107.974 97.3955 107.974 97.4955C107.974 97.6555 107.934 97.8155 107.854 97.9755C107.774 98.1155 107.684 98.2355 107.584 98.3355C107.484 98.4355 107.354 98.5055 107.194 98.5455C107.134 99.3855 107.104 100.216 107.104 101.036C107.104 101.536 107.154 101.956 107.254 102.296C107.354 102.616 107.404 102.986 107.404 103.406C107.404 103.546 107.364 103.666 107.284 103.766C107.224 103.866 107.144 103.916 107.044 103.916C107.004 104.016 106.924 104.076 106.804 104.096C106.704 104.136 106.594 104.156 106.474 104.156ZM121.177 102.596C121.137 102.696 121.077 102.796 120.997 102.896C120.917 103.016 120.817 103.126 120.697 103.226C120.537 103.346 120.387 103.446 120.247 103.526C120.127 103.626 119.977 103.676 119.797 103.676C119.657 103.676 119.517 103.646 119.377 103.586C119.177 103.526 119.037 103.386 118.957 103.166C118.877 102.966 118.837 102.726 118.837 102.446C118.837 102.346 118.837 102.246 118.837 102.146C118.857 102.046 118.877 101.936 118.897 101.816C118.937 101.576 118.987 101.296 119.047 100.976C119.107 100.636 119.167 100.326 119.227 100.046C119.307 99.6655 119.377 99.3655 119.437 99.1455C119.497 98.9255 119.527 98.7055 119.527 98.4855C119.527 98.4055 119.507 98.3655 119.467 98.3655C119.387 98.3655 119.297 98.4355 119.197 98.5755C119.117 98.7155 118.977 98.9155 118.777 99.1755C118.477 99.5755 118.157 99.9555 117.817 100.316C117.477 100.676 117.047 101.086 116.527 101.546C116.047 101.966 115.537 102.356 114.997 102.716C114.457 103.056 113.867 103.226 113.227 103.226C112.627 103.226 112.157 102.996 111.817 102.536C111.497 102.056 111.337 101.516 111.337 100.916C111.337 100.716 111.347 100.486 111.367 100.226C111.407 99.9655 111.437 99.6955 111.457 99.4155C111.497 99.1355 111.537 98.8755 111.577 98.6355C111.617 98.3755 111.637 98.1655 111.637 98.0055C111.677 97.7455 111.737 97.4055 111.817 96.9855C111.897 96.5655 111.937 96.2155 111.937 95.9355L112.087 94.9155C112.127 94.7155 112.147 94.5355 112.147 94.3755C112.167 94.1955 112.197 94.0355 112.237 93.8955C112.257 93.8155 112.267 93.7455 112.267 93.6855C112.267 93.6055 112.267 93.5355 112.267 93.4755C112.267 93.3155 112.307 93.2255 112.387 93.2055C112.507 93.1055 112.667 93.0255 112.867 92.9655C113.007 92.9055 113.137 92.8855 113.257 92.9055C113.377 92.9055 113.457 92.8855 113.497 92.8455C113.717 92.8455 113.927 92.9855 114.127 93.2655C114.327 93.5455 114.447 93.7955 114.487 94.0155C114.507 94.0755 114.517 94.1655 114.517 94.2855C114.517 94.3855 114.517 94.5055 114.517 94.6455C114.517 94.9855 114.497 95.3155 114.457 95.6355C114.417 95.9555 114.367 96.2955 114.307 96.6555C114.267 96.8155 114.217 97.0155 114.157 97.2555C114.117 97.4955 114.067 97.7355 114.007 97.9755C113.967 98.2155 113.927 98.4355 113.887 98.6355C113.867 98.8155 113.857 98.9455 113.857 99.0255C113.857 99.1455 113.877 99.2555 113.917 99.3555C113.977 99.4355 114.087 99.4755 114.247 99.4755C114.427 99.4755 114.697 99.3455 115.057 99.0855C115.417 98.8255 115.797 98.5155 116.197 98.1555C116.617 97.7755 117.017 97.3855 117.397 96.9855C117.797 96.5655 118.117 96.1955 118.357 95.8755C118.737 95.3755 119.047 94.9655 119.287 94.6455C119.547 94.3255 119.777 94.0755 119.977 93.8955C120.177 93.6955 120.477 93.5955 120.877 93.5955C121.077 93.5955 121.247 93.6755 121.387 93.8355C121.547 93.9955 121.677 94.1555 121.777 94.3155C121.937 94.5755 122.017 94.8655 122.017 95.1855C122.017 95.4855 122.037 95.7955 122.077 96.1155C122.077 96.1955 122.057 96.2755 122.017 96.3555C121.977 96.4355 121.957 96.5155 121.957 96.5955C121.937 96.8155 121.917 97.0755 121.897 97.3755C121.877 97.6755 121.857 98.0055 121.837 98.3655C121.737 99.4455 121.637 100.306 121.537 100.946C121.457 101.566 121.347 102.076 121.207 102.476L121.177 102.596ZM130.433 98.0355C130.653 98.0355 130.873 98.0155 131.093 97.9755C131.313 97.9155 131.503 97.8555 131.663 97.7955L131.843 95.8755C131.843 95.3555 131.693 94.9855 131.393 94.7655C131.093 94.5455 130.743 94.4355 130.343 94.4355C130.123 94.4355 129.883 94.4555 129.623 94.4955C129.383 94.5355 129.163 94.6255 128.963 94.7655C128.763 94.8855 128.593 95.0655 128.453 95.3055C128.333 95.5255 128.273 95.8255 128.273 96.2055C128.273 96.5655 128.333 96.8655 128.453 97.1055C128.573 97.3455 128.733 97.5355 128.933 97.6755C129.133 97.8155 129.363 97.9155 129.623 97.9755C129.883 98.0155 130.153 98.0355 130.433 98.0355ZM132.473 104.036C132.313 104.036 132.183 104.016 132.083 103.976C132.003 103.936 131.893 103.896 131.753 103.856C131.573 103.796 131.413 103.686 131.273 103.526C131.153 103.366 131.093 103.146 131.093 102.866C131.093 102.586 131.123 102.226 131.183 101.786C131.243 101.346 131.333 100.676 131.453 99.7755C131.433 99.8155 131.313 99.8555 131.093 99.8955C130.993 99.9155 130.913 99.9455 130.853 99.9855C130.793 100.026 130.703 100.076 130.583 100.136C130.443 100.136 130.323 100.176 130.223 100.256C130.123 100.336 129.963 100.456 129.743 100.616C129.463 100.776 129.243 100.956 129.083 101.156C128.923 101.336 128.723 101.566 128.483 101.846C128.283 102.066 128.083 102.306 127.883 102.566C127.703 102.806 127.513 103.066 127.313 103.346C127.093 103.626 126.843 103.806 126.563 103.886C126.283 103.986 125.993 104.036 125.693 104.036C125.613 104.036 125.513 104.016 125.393 103.976C125.293 103.936 125.233 103.876 125.213 103.796C125.213 103.736 125.153 103.656 125.033 103.556C124.913 103.456 124.833 103.336 124.793 103.196C124.753 103.056 124.733 102.936 124.733 102.836C124.733 102.676 124.763 102.506 124.823 102.326C124.883 102.146 124.993 101.946 125.153 101.726C125.573 101.226 125.973 100.806 126.353 100.466C126.733 100.126 127.153 99.7855 127.613 99.4455C127.473 99.3855 127.343 99.3155 127.223 99.2355C127.123 99.1555 127.023 99.0655 126.923 98.9655C126.823 98.8855 126.753 98.8055 126.713 98.7255C126.693 98.6255 126.633 98.5255 126.533 98.4255C126.333 98.2255 126.193 98.0355 126.113 97.8555C125.873 97.3555 125.753 96.8555 125.753 96.3555C125.753 95.1155 126.143 94.1555 126.923 93.4755C127.703 92.7755 128.693 92.4255 129.893 92.4255C130.533 92.4255 131.073 92.4755 131.513 92.5755C131.973 92.6755 132.353 92.8855 132.653 93.2055C132.753 93.0855 132.873 93.0055 133.013 92.9655C133.153 92.9055 133.303 92.8755 133.463 92.8755C133.583 92.8755 133.673 92.9055 133.733 92.9655C133.813 93.0255 133.903 93.0755 134.003 93.1155C134.103 93.1555 134.173 93.1855 134.213 93.2055C134.253 93.2255 134.293 93.2855 134.333 93.3855C134.373 93.4855 134.393 93.5855 134.393 93.6855C134.393 93.7855 134.393 93.9055 134.393 94.0455C134.393 94.2655 134.383 94.4555 134.363 94.6155C134.343 94.7755 134.313 94.9455 134.273 95.1255C134.053 96.4455 133.903 97.7955 133.823 99.1755C133.743 100.556 133.703 101.886 133.703 103.166C133.703 103.266 133.683 103.356 133.643 103.436C133.623 103.536 133.553 103.586 133.433 103.586C133.433 103.746 133.333 103.866 133.133 103.946C132.953 104.006 132.733 104.036 132.473 104.036Z" fill="white"/>
</g>
<defs>
<radialGradient id="paint0_radial" cx="0" cy="0" r="1" gradientUnits="userSpaceOnUse" gradientTransform="translate(84.7451 71.0215) rotate(-102.731) scale(73.9438 86.7195)">
<stop stop-color="#407B9A"/>
<stop offset="0.6453" stop-color="#3682A1"/>
<stop offset="0.9413" stop-color="#C6DDEE"/>
<stop offset="1" stop-color="white"/>
</radialGradient>
<linearGradient id="paint1_linear" x1="117.279" y1="22.3797" x2="97.3091" y2="59.3231" gradientUnits="userSpaceOnUse">
<stop stop-color="white"/>
<stop offset="0.4749" stop-color="#D4EFFD" stop-opacity="0.5"/>
<stop offset="1" stop-color="#3699D6" stop-opacity="0"/>
</linearGradient>
</defs>
</svg>
