<svg width="146" height="126" viewBox="0 0 146 126" fill="none" xmlns="http://www.w3.org/2000/svg">
<path opacity="0.42" d="M23.1357 38.1438C8.58575 54.6405 -0.864234 81.6048 1.31077 99.6926C3.48577 117.697 14.5858 120.293 31.9108 123.81C42.4858 125.987 58.3108 123.056 70.2358 119.623C92.2858 113.259 92.7357 115.938 116.061 101.367C125.286 95.5894 132.936 89.225 137.061 81.6047C140.061 76.1616 144.786 64.3542 144.336 52.8819C143.361 28.1786 124.761 5.06652 99.4108 2.13563C67.3858 -1.80015 52.9857 4.14539 23.1357 38.1438Z" fill="url(#paint0_radial)" stroke="white" stroke-width="1.4694" stroke-miterlimit="10"/>
<path opacity="0.33" d="M61.6104 25.3322C62.9604 23.4899 71.9604 15.3672 76.3854 13.8599C79.6104 12.7713 92.6605 7.83073 100.61 12.0177C106.536 15.1998 109.461 15.9533 112.536 26.0858C112.836 27.1744 113.061 33.3713 110.586 33.3713C106.086 33.1201 95.9605 30.9428 82.8355 35.4648C79.5355 36.5534 70.9104 41.4939 67.9854 43.9223C66.5604 45.0109 61.0104 48.863 59.7354 48.3606C52.6854 45.8484 59.0604 28.7655 61.6104 25.3322Z" fill="url(#paint1_linear)"/>
<path opacity="0.5" d="M50.784 78.5211C50.784 78.4451 50.7713 78.3945 50.746 78.3691C50.6447 78.2931 50.5813 78.2171 50.556 78.1411C50.556 78.0398 50.556 77.8878 50.556 77.6851C50.556 77.6091 50.556 77.4951 50.556 77.3431C50.556 77.1658 50.556 76.9885 50.556 76.8111C50.5813 76.6085 50.594 76.4185 50.594 76.2411C50.6193 76.0638 50.632 75.9245 50.632 75.8231C50.632 75.3925 50.6193 74.8731 50.594 74.2651C50.594 73.6571 50.594 72.9098 50.594 72.0231C50.594 71.3645 50.5687 70.6551 50.518 69.8951C50.4927 69.1098 50.48 68.1471 50.48 67.0071V61.7631L50.518 61.3831C50.4927 61.2311 50.48 61.0538 50.48 60.8511C50.48 60.6485 50.48 60.4711 50.48 60.3191C50.176 60.3191 49.8593 60.3191 49.53 60.3191C49.2007 60.3191 48.8333 60.3318 48.428 60.3571C47.82 60.4078 47.1487 60.4331 46.414 60.4331C45.6793 60.4331 45.122 60.4458 44.742 60.4711L43.868 60.5091L43.906 61.4971C43.906 61.9785 43.9187 62.4851 43.944 63.0171C43.9947 63.5491 44.02 64.0938 44.02 64.6511C44.02 64.8538 44.0073 65.0438 43.982 65.2211C43.982 65.3731 43.982 65.5378 43.982 65.7151L43.602 70.5031C43.5513 70.9338 43.488 71.3898 43.412 71.8711C43.3613 72.3525 43.298 72.8211 43.222 73.2771C43.146 73.7078 43.0573 74.1258 42.956 74.5311C42.8547 74.9111 42.766 75.2278 42.69 75.4811C42.4873 76.0891 42.2087 76.7605 41.854 77.4951C41.4993 78.2045 40.98 78.7998 40.296 79.2811C39.7387 79.6865 39.1053 79.9525 38.396 80.0791C37.712 80.2058 37.0787 80.2691 36.496 80.2691C36.0653 80.2691 35.7487 80.2311 35.546 80.1551C35.3687 80.1045 35.2167 80.0285 35.09 79.9271C34.8873 79.7751 34.7227 79.6105 34.596 79.4331C34.4693 79.2558 34.3807 79.1038 34.33 78.9771C34.3047 78.9011 34.292 78.8378 34.292 78.7871C34.292 78.7618 34.2667 78.7238 34.216 78.6731C34.216 78.5465 34.2033 78.4325 34.178 78.3311C34.1527 78.2298 34.14 78.1285 34.14 78.0271C34.14 77.9005 34.178 77.8118 34.254 77.7611C34.3047 77.7611 34.33 77.7231 34.33 77.6471C34.33 77.6218 34.3173 77.5965 34.292 77.5711C34.292 77.5458 34.292 77.5205 34.292 77.4951C34.292 77.3938 34.3173 77.2925 34.368 77.1911C34.4187 77.0898 34.4947 77.0391 34.596 77.0391C34.7733 77.0391 34.9 77.0138 34.976 76.9631C35.0773 76.8871 35.166 76.8491 35.242 76.8491C35.6473 76.8491 35.9387 76.8998 36.116 77.0011C36.2933 77.1025 36.572 77.1531 36.952 77.1531C37.5347 77.1531 38.0033 77.0645 38.358 76.8871C38.738 76.7098 39.0927 76.2538 39.422 75.5191C39.8527 74.5058 40.1187 73.4671 40.22 72.4031C40.3213 71.3391 40.4227 70.3131 40.524 69.3251C40.6507 68.2611 40.7267 67.3618 40.752 66.6271C40.7773 65.8925 40.79 65.1705 40.79 64.4611C40.79 63.9038 40.7773 63.3338 40.752 62.7511C40.752 62.1431 40.752 61.4465 40.752 60.6611C40.752 60.0531 40.7647 59.5211 40.79 59.0651C40.8407 58.6091 40.9293 58.3431 41.056 58.2671C41.4107 57.9885 41.7653 57.8365 42.12 57.8111C42.5 57.7858 42.9053 57.7478 43.336 57.6971C43.6907 57.6465 44.1213 57.6211 44.628 57.6211C45.1347 57.5958 45.768 57.5578 46.528 57.5071C47.0347 57.4818 47.5667 57.4565 48.124 57.4311C48.7067 57.4058 49.2387 57.3805 49.72 57.3551C50.2013 57.3298 50.6067 57.3171 50.936 57.3171C51.2907 57.3171 51.506 57.3171 51.582 57.3171H51.886C52.2407 57.3171 52.608 57.3931 52.988 57.5451C53.368 57.6718 53.558 57.9631 53.558 58.4191C53.558 58.4698 53.5453 58.5585 53.52 58.6851C53.52 58.7865 53.52 58.8625 53.52 58.9131C53.52 59.1158 53.5327 59.3565 53.558 59.6351C53.5833 59.9138 53.596 60.1165 53.596 60.2431C53.596 60.4458 53.596 60.6738 53.596 60.9271C53.6213 61.1551 53.634 61.4338 53.634 61.7631C53.6593 62.0925 53.672 62.4978 53.672 62.9791C53.672 63.4351 53.672 64.0051 53.672 64.6891C53.672 65.3478 53.672 66.0951 53.672 66.9311C53.672 67.7671 53.6593 68.7551 53.634 69.8951L53.786 74.1511C53.786 74.3285 53.786 74.5565 53.786 74.8351C53.786 75.1138 53.7733 75.4938 53.748 75.9751L53.71 76.8491C53.6847 77.3811 53.6467 77.8498 53.596 78.2551C53.5707 78.6605 53.4947 78.9898 53.368 79.2431C53.2667 79.5218 53.102 79.7245 52.874 79.8511C52.646 80.0031 52.342 80.0791 51.962 80.0791C51.7847 80.0791 51.544 79.9905 51.24 79.8131C50.936 79.6611 50.784 79.3318 50.784 78.8251V78.5211ZM69.3678 79.8131C68.5571 79.8131 67.8731 79.6738 67.3158 79.3951C66.7838 79.1165 66.3404 78.7618 65.9858 78.3311C65.6311 77.8751 65.3778 77.3811 65.2258 76.8491C65.0738 76.2918 64.9978 75.7345 64.9978 75.1771C64.9978 74.8985 65.0104 74.6071 65.0358 74.3031C65.0611 73.9991 65.1118 73.6825 65.1878 73.3531C64.8331 73.3531 64.4911 73.3658 64.1618 73.3911C63.8831 73.4165 63.5791 73.4418 63.2498 73.4671C62.9458 73.4925 62.6924 73.5305 62.4898 73.5811C62.4644 73.9611 62.4518 74.3538 62.4518 74.7591C62.4518 75.1645 62.4518 75.5825 62.4518 76.0131C62.4518 76.3678 62.4518 76.6971 62.4518 77.0011C62.4771 77.3051 62.4898 77.5965 62.4898 77.8751C62.4898 78.1285 62.4644 78.3438 62.4138 78.5211C62.3884 78.6985 62.3124 78.8631 62.1858 79.0151C62.1098 79.0911 62.0338 79.1798 61.9578 79.2811C61.8818 79.4078 61.7804 79.4965 61.6538 79.5471C61.4258 79.6485 61.0964 79.6991 60.6658 79.6991C60.3364 79.6991 60.0958 79.6231 59.9438 79.4711C59.6904 79.4711 59.5258 79.3571 59.4498 79.1291C59.3738 78.9011 59.3358 78.6225 59.3358 78.2931C59.3358 77.6598 59.3864 77.0138 59.4878 76.3551C59.5891 75.6965 59.6778 74.8351 59.7538 73.7711C59.6018 73.7711 59.4878 73.7331 59.4118 73.6571C59.3611 73.6065 59.3231 73.5558 59.2978 73.5051C59.2724 73.4545 59.2344 73.4038 59.1838 73.3531C59.0824 73.2771 59.0191 73.1758 58.9938 73.0491C58.9938 72.9225 58.9938 72.7958 58.9938 72.6691C58.9938 72.5931 58.9811 72.5298 58.9558 72.4791C58.9558 72.4285 58.9558 72.3651 58.9558 72.2891C58.9558 72.2385 58.9684 72.1751 58.9938 72.0991C59.0191 71.9978 59.0444 71.9218 59.0698 71.8711C59.1204 71.8205 59.1584 71.7698 59.1838 71.7191C59.2091 71.6431 59.2344 71.5798 59.2598 71.5291C59.4878 71.4278 59.7158 71.3645 59.9438 71.3391L60.0198 70.9591L59.9818 70.6551L60.0958 70.3131C60.0958 70.2625 60.0831 70.1865 60.0578 70.0851C60.0578 69.9585 60.0578 69.8698 60.0578 69.8191C60.1084 69.4138 60.1338 68.9958 60.1338 68.5651C60.1338 68.1345 60.1464 67.7925 60.1718 67.5391C60.1971 66.8045 60.2478 66.2725 60.3238 65.9431C60.3998 65.6138 60.5644 65.3478 60.8178 65.1451C60.9191 65.0691 61.0204 64.9678 61.1218 64.8411C61.2231 64.6891 61.3624 64.6005 61.5398 64.5751C61.6411 64.5498 61.7424 64.5245 61.8438 64.4991C61.9704 64.4738 62.0971 64.4611 62.2238 64.4611C62.5531 64.4611 62.8318 64.5498 63.0598 64.7271C63.3131 64.8791 63.4398 65.2211 63.4398 65.7531C63.4398 66.2091 63.3511 66.8678 63.1738 67.7291C62.9964 68.5905 62.8444 69.6798 62.7178 70.9971L66.0238 70.7311C66.3024 70.0471 66.6444 69.3885 67.0498 68.7551C67.4551 68.0965 67.8984 67.5138 68.3798 67.0071C68.8864 66.4751 69.4311 66.0445 70.0138 65.7151C70.6218 65.3858 71.2678 65.1831 71.9518 65.1071C71.9771 65.1325 72.0024 65.1451 72.0278 65.1451C72.0784 65.1451 72.1291 65.1578 72.1798 65.1831C72.2304 65.2085 72.2684 65.2211 72.2938 65.2211C72.3444 65.2211 72.3824 65.2338 72.4078 65.2591C72.5091 65.3098 72.5851 65.3351 72.6358 65.3351C72.6358 65.4365 72.6738 65.5251 72.7498 65.6011C72.9778 65.6771 73.2184 65.7911 73.4718 65.9431C73.7251 66.0698 73.9784 66.2345 74.2318 66.4371C74.3584 66.5638 74.4724 66.6905 74.5738 66.8171C74.6751 66.9438 74.7891 67.0831 74.9158 67.2351C75.0171 67.3618 75.1184 67.4505 75.2198 67.5011C75.3211 67.5518 75.4098 67.6405 75.4858 67.7671C75.5364 67.8431 75.5998 67.9571 75.6758 68.1091C75.7518 68.2611 75.8151 68.3751 75.8658 68.4511C76.1698 68.9578 76.4104 69.5151 76.5878 70.1231C76.7651 70.7311 76.8538 71.3518 76.8538 71.9851C76.8538 73.1251 76.6384 74.1765 76.2078 75.1391C75.7771 76.1018 75.2071 76.9251 74.4978 77.6091C73.7884 78.2931 72.9778 78.8251 72.0658 79.2051C71.1791 79.6105 70.2798 79.8131 69.3678 79.8131ZM71.2678 76.1271C71.6984 76.0258 71.9898 75.9118 72.1418 75.7851C72.3191 75.6331 72.5091 75.4811 72.7118 75.3291C72.9398 75.1265 73.1044 74.9871 73.2058 74.9111C73.3324 74.8351 73.4211 74.7085 73.4718 74.5311C73.6238 74.4045 73.7251 74.3031 73.7758 74.2271C73.8264 74.1258 73.8518 74.0118 73.8518 73.8851C73.8518 73.8345 73.8644 73.7965 73.8898 73.7711C73.9151 73.7205 73.9278 73.6698 73.9278 73.6191L74.0798 73.2011C74.1558 72.8718 74.1938 72.5171 74.1938 72.1371C74.1938 71.2758 73.9784 70.5031 73.5478 69.8191C73.1171 69.1351 72.4964 68.7931 71.6858 68.7931C71.1791 68.7931 70.7104 68.9831 70.2798 69.3631C69.8491 69.7178 69.4691 70.1738 69.1398 70.7311C68.8104 71.2631 68.5444 71.8585 68.3418 72.5171C68.1644 73.1758 68.0758 73.7965 68.0758 74.3791C68.0758 74.9871 68.2404 75.4685 68.5698 75.8231C68.8991 76.1525 69.3551 76.3171 69.9378 76.3171C70.3684 76.3171 70.8118 76.2538 71.2678 76.1271ZM85.9334 79.7371C85.0467 79.7371 84.2741 79.5725 83.6154 79.2431C82.9821 78.9391 82.4501 78.5085 82.0194 77.9511C81.6141 77.3685 81.3101 76.6845 81.1074 75.8991C80.9301 75.1138 80.8414 74.2525 80.8414 73.3151C80.8414 72.0231 80.9681 70.6931 81.2214 69.3251C81.5001 67.9318 82.0067 66.7158 82.7414 65.6771C82.8427 65.5505 82.9821 65.4111 83.1594 65.2591C83.3367 65.0818 83.4887 64.9805 83.6154 64.9551C83.6154 64.7271 83.7421 64.5245 83.9954 64.3471C84.1221 64.2458 84.2741 64.1445 84.4514 64.0431C84.6287 63.9418 84.7934 63.8658 84.9454 63.8151C85.6294 63.5365 86.3641 63.3971 87.1494 63.3971C87.6307 63.3971 88.0741 63.4731 88.4794 63.6251C88.8847 63.7518 89.2267 63.9038 89.5054 64.0811C89.8347 64.2838 90.1387 64.4991 90.4174 64.7271C90.3414 64.1445 90.2527 63.6251 90.1514 63.1691C90.0754 62.6878 89.9741 62.2571 89.8474 61.8771C89.7967 61.7505 89.7461 61.6745 89.6954 61.6491C89.6701 61.6238 89.6574 61.5478 89.6574 61.4211C89.6574 61.3451 89.6827 61.2818 89.7334 61.2311C89.7081 61.1805 89.6701 61.1551 89.6194 61.1551C89.5687 61.1298 89.5307 61.0918 89.5054 61.0411C89.1507 60.3825 88.6694 59.9011 88.0614 59.5971C87.4787 59.2678 86.6807 59.0145 85.6674 58.8371C84.8061 58.6851 84.1727 58.5711 83.7674 58.4951C83.3621 58.3938 83.1594 58.1151 83.1594 57.6591C83.1594 57.6085 83.1214 57.5325 83.0454 57.4311C82.9947 57.3045 82.9694 57.2031 82.9694 57.1271C82.9694 56.8991 82.9947 56.7725 83.0454 56.7471C83.1214 56.6965 83.1594 56.6078 83.1594 56.4811C83.1594 56.4305 83.1721 56.3545 83.1974 56.2531C83.2481 56.1518 83.2987 56.0758 83.3494 56.0251C83.4761 55.8985 83.5267 55.7845 83.5014 55.6831C83.4761 55.5818 83.5141 55.4805 83.6154 55.3791C83.8181 55.2271 84.0587 55.1385 84.3374 55.1131C84.6414 55.0878 84.9201 55.0751 85.1734 55.0751C86.4147 55.0751 87.5041 55.2778 88.4414 55.6831C89.3787 56.0885 90.1767 56.6585 90.8354 57.3931C90.9621 57.5198 91.0381 57.6591 91.0634 57.8111C91.0887 57.9631 91.1774 58.1025 91.3294 58.2291C91.4307 58.3051 91.5067 58.3938 91.5574 58.4951C91.6081 58.5965 91.6967 58.6978 91.8234 58.7991C91.9247 58.8751 92.0007 58.9765 92.0514 59.1031C92.1021 59.2045 92.1527 59.3185 92.2034 59.4451C92.6341 60.3065 92.9381 61.2565 93.1154 62.2951C93.3181 63.3085 93.4194 64.3725 93.4194 65.4871C93.4194 66.2725 93.3941 67.1338 93.3434 68.0711C93.3181 68.9831 93.2421 69.9205 93.1154 70.8831C93.0141 71.8205 92.8367 72.7578 92.5834 73.6951C92.3301 74.6071 92.0007 75.4431 91.5954 76.2031C91.4941 76.4058 91.3674 76.5071 91.2154 76.5071C91.1394 76.5831 91.1014 76.6465 91.1014 76.6971C91.1014 76.7478 91.1014 76.7858 91.1014 76.8111C91.1267 76.8111 91.1394 76.8238 91.1394 76.8491C91.0634 76.9758 90.9241 77.0391 90.7214 77.0391C90.7467 77.0898 90.7721 77.1278 90.7974 77.1531C90.8481 77.1785 90.8734 77.2165 90.8734 77.2671C90.8734 77.3431 90.8481 77.4065 90.7974 77.4571C90.7467 77.5078 90.6961 77.5585 90.6454 77.6091C90.4934 77.7865 90.2907 77.9638 90.0374 78.1411C89.8094 78.2931 89.5941 78.4325 89.3914 78.5591C89.1887 78.6858 89.0241 78.7998 88.8974 78.9011C88.7961 79.0278 88.6314 79.1418 88.4034 79.2431C88.0487 79.3951 87.6687 79.5091 87.2634 79.5851C86.8581 79.6865 86.4147 79.7371 85.9334 79.7371ZM86.4654 76.7351C86.9467 76.7351 87.3647 76.6085 87.7194 76.3551C88.0994 76.1018 88.4161 75.7725 88.6694 75.3671C88.9481 74.9618 89.1761 74.5058 89.3534 73.9991C89.5307 73.4671 89.6827 72.9351 89.8094 72.4031C90.0881 71.1365 90.2401 69.6925 90.2654 68.0711C90.0627 67.5645 89.6827 67.1591 89.1254 66.8551C88.5934 66.5258 87.9601 66.3611 87.2254 66.3611C86.5414 66.3611 85.9841 66.5891 85.5534 67.0451C85.1227 67.5011 84.7807 68.0711 84.5274 68.7551C84.2994 69.4391 84.1347 70.1738 84.0334 70.9591C83.9321 71.7445 83.8814 72.4538 83.8814 73.0871C83.8814 73.4165 83.8941 73.7331 83.9194 74.0371C83.9447 74.3158 83.9954 74.5818 84.0714 74.8351C84.1221 74.9365 84.1854 75.0125 84.2614 75.0631C84.3374 75.1138 84.4007 75.1771 84.4514 75.2531C84.5021 75.3545 84.5274 75.4431 84.5274 75.5191C84.5527 75.5951 84.5907 75.6585 84.6414 75.7091C84.6921 75.7345 84.7427 75.7851 84.7934 75.8611C84.8441 75.9118 84.8821 75.9625 84.9074 76.0131C84.9834 76.0638 85.0594 76.1271 85.1354 76.2031C85.2367 76.2791 85.3381 76.3425 85.4394 76.3931C85.5661 76.4438 85.6927 76.5071 85.8194 76.5831C85.9461 76.6591 86.0601 76.7098 86.1614 76.7351H86.4654ZM108.008 79.4711C107.476 79.4711 107.032 79.3318 106.678 79.0531C106.323 78.7998 106.032 78.4831 105.804 78.1031C105.601 77.7231 105.449 77.3305 105.348 76.9251C105.246 76.4945 105.183 76.1271 105.158 75.8231C105.107 75.7471 105.056 75.7091 105.006 75.7091C104.904 75.7091 104.778 75.7978 104.626 75.9751C104.474 76.1778 104.296 76.4311 104.094 76.7351C103.891 77.0138 103.612 77.3685 103.258 77.7991C102.776 78.3818 102.194 78.8885 101.51 79.3191C100.826 79.7751 100.192 80.0031 99.6095 80.0031C98.8749 80.0031 98.2415 79.6611 97.7095 78.9771C97.1775 78.2931 96.9115 77.3431 96.9115 76.1271C96.9115 75.5191 96.9495 74.9365 97.0255 74.3791C97.1015 73.7965 97.1902 73.2518 97.2915 72.7451C97.3929 72.2385 97.4562 71.7065 97.4815 71.1491C97.5069 70.5918 97.5322 69.9838 97.5575 69.3251C97.5575 69.1225 97.5575 68.9325 97.5575 68.7551C97.5829 68.5778 97.5955 68.4258 97.5955 68.2991C97.5955 68.2485 97.5829 68.2105 97.5575 68.1851C97.5322 68.1598 97.5069 68.1218 97.4815 68.0711C97.4562 68.0205 97.4435 67.9571 97.4435 67.8811C97.4435 67.8051 97.4309 67.7165 97.4055 67.6151C97.4055 67.5391 97.4055 67.4758 97.4055 67.4251C97.4309 67.3491 97.4435 67.2731 97.4435 67.1971C97.4942 66.8425 97.6462 66.5511 97.8995 66.3231C98.1529 66.0698 98.4315 65.9431 98.7355 65.9431C99.0902 65.9431 99.4195 66.0571 99.7235 66.2851C100.053 66.5131 100.319 66.8045 100.522 67.1591C100.699 67.4378 100.813 67.7291 100.864 68.0331C100.94 68.3118 100.978 68.5905 100.978 68.8691C100.978 69.1225 100.965 69.3125 100.94 69.4391V69.8571C100.94 70.0598 100.927 70.2878 100.902 70.5411C100.902 70.7945 100.889 71.0605 100.864 71.3391C100.838 71.5925 100.813 71.8458 100.788 72.0991C100.762 72.3271 100.737 72.5045 100.712 72.6311C100.661 72.8338 100.598 73.0871 100.522 73.3911C100.471 73.6951 100.408 73.9991 100.332 74.3031C100.281 74.5818 100.23 74.8351 100.18 75.0631C100.129 75.2911 100.104 75.4431 100.104 75.5191C100.104 75.7218 100.142 75.8611 100.218 75.9371C100.319 76.0131 100.433 76.0638 100.56 76.0891C100.788 76.0891 101.13 75.9245 101.586 75.5951C102.067 75.2405 102.548 74.7845 103.03 74.2271C103.536 73.6698 103.992 73.0365 104.398 72.3271C104.828 71.5925 105.132 70.8578 105.31 70.1231C105.512 69.3125 105.715 68.7678 105.918 68.4891C106.12 68.1851 106.323 68.0331 106.526 68.0331C107.032 68.0331 107.514 68.2485 107.97 68.6791C108.451 69.1098 108.692 69.7431 108.692 70.5791C108.692 71.0098 108.641 71.4531 108.54 71.9091C108.464 72.3651 108.4 72.7578 108.35 73.0871C108.299 73.3658 108.261 73.6571 108.236 73.9611C108.21 74.2651 108.198 74.5945 108.198 74.9491C108.198 75.1518 108.198 75.3671 108.198 75.5951C108.223 75.8231 108.274 75.9878 108.35 76.0891C108.4 76.0891 108.502 76.0638 108.654 76.0131C108.882 75.9118 109.16 75.8611 109.49 75.8611C109.667 75.8611 109.895 75.9498 110.174 76.1271L110.364 76.3171C110.414 76.3678 110.465 76.4438 110.516 76.5451V77.1531C110.49 77.4065 110.427 77.6725 110.326 77.9511C110.224 78.2045 110.072 78.4451 109.87 78.6731C109.692 78.9011 109.439 79.0911 109.11 79.2431C108.806 79.3951 108.438 79.4711 108.008 79.4711Z" fill="white"/>
<defs>
<radialGradient id="paint0_radial" cx="0" cy="0" r="1" gradientUnits="userSpaceOnUse" gradientTransform="translate(71.1853 68.8245) rotate(57.709) scale(58.3535 79.1898)">
<stop stop-color="#407B9A"/>
<stop offset="0.6453" stop-color="#3682A1"/>
<stop offset="0.9413" stop-color="#C6DDEE" stop-opacity="0.8"/>
<stop offset="1" stop-color="white" stop-opacity="0.8"/>
</radialGradient>
<linearGradient id="paint1_linear" x1="82.2945" y1="16.1759" x2="85.3352" y2="51.164" gradientUnits="userSpaceOnUse">
<stop stop-color="white"/>
<stop offset="0.4749" stop-color="#D4EFFD" stop-opacity="0.5"/>
<stop offset="1" stop-color="#3699D6" stop-opacity="0"/>
</linearGradient>
</defs>
</svg>
