<svg width="233" height="278" viewBox="0 0 233 278" fill="none" xmlns="http://www.w3.org/2000/svg">
<path opacity="0.5" d="M8.72441 180.02C17.035 213.58 36.5936 243.785 63.4598 260.325C90.3259 276.786 124.428 278.384 151.581 262.083C168.13 252.095 181.456 236.273 192.346 218.854C212.477 186.892 225.015 148.857 228.525 109.783C229.815 96.1991 229.815 81.8161 224.872 69.2709C220 56.9655 210.758 47.6964 200.943 40.1853C168.703 15.1749 99.6395 -11.5136 62.8149 14.6156C16.3902 47.4567 -5.96242 121.449 8.72441 180.02Z" fill="url(#paint0_radial)" stroke="white" stroke-width="7.3471" stroke-miterlimit="10"/>
<path opacity="0.56" d="M76.1344 36.4852C79.1344 34.3917 97.8093 26.0177 106.209 25.1803C112.359 24.5941 137.709 21.4957 150.834 29.116C160.884 35.0616 165.909 36.7364 168.609 51.0559C168.909 52.5632 167.634 60.7697 162.909 60.1835C154.734 58.5925 136.809 53.0656 111.684 55.6616C105.384 56.2478 88.4344 60.6022 82.1344 63.0306C79.2844 64.1192 68.1094 67.72 65.8594 66.7152C54.3094 61.5233 70.6594 40.4209 76.1344 36.4852Z" fill="url(#paint1_linear)"/>
<path opacity="0.5" d="M77.67 128.35C78.3113 128.35 79.0143 128.325 79.779 128.276C80.5437 128.226 81.296 128.115 82.036 127.943C82.1347 127.918 82.2333 127.906 82.332 127.906C82.4553 127.906 82.5663 127.906 82.665 127.906C82.7637 127.906 82.8377 127.869 82.887 127.795C82.961 127.696 83.0473 127.634 83.146 127.61C83.2693 127.56 83.3803 127.536 83.479 127.536C83.5777 127.536 83.6763 127.511 83.775 127.462C83.8243 127.437 83.8613 127.4 83.886 127.351C83.9107 127.301 83.9477 127.277 83.997 127.277C84.071 127.277 84.145 127.289 84.219 127.314C84.293 127.314 84.3547 127.314 84.404 127.314C84.5767 127.314 84.7 127.24 84.774 127.092C84.8727 126.919 84.9837 126.783 85.107 126.685C85.5757 126.364 85.9333 125.932 86.18 125.39C86.4267 124.847 86.55 124.292 86.55 123.725C86.55 123.108 86.3897 122.615 86.069 122.245C85.7483 121.85 85.3167 121.542 84.774 121.32C84.2313 121.098 83.6147 120.95 82.924 120.876C82.258 120.777 81.555 120.728 80.815 120.728C80.2477 120.728 79.6927 120.752 79.15 120.802C78.6073 120.826 78.0523 120.863 77.485 120.913L77.448 121.579L77.633 125.057C77.6083 125.106 77.596 125.192 77.596 125.316V125.464L77.67 128.35ZM84.33 112.514C83.294 112.316 82.3073 112.193 81.37 112.144C80.4327 112.094 79.7297 112.07 79.261 112.07C78.891 112.07 78.5457 112.107 78.225 112.181C77.9043 112.23 77.6453 112.267 77.448 112.292L77.596 114.993C77.5713 115.017 77.559 115.042 77.559 115.067C77.559 115.067 77.5467 115.079 77.522 115.104C77.4973 115.128 77.4727 115.141 77.448 115.141C77.4727 115.215 77.5097 115.276 77.559 115.326C77.6083 115.35 77.633 115.4 77.633 115.474C77.633 115.498 77.6083 115.511 77.559 115.511C77.5097 115.511 77.485 115.548 77.485 115.622C77.485 115.868 77.485 116.103 77.485 116.325C77.5097 116.522 77.522 116.719 77.522 116.917C77.522 117.065 77.522 117.213 77.522 117.361C77.522 117.484 77.4973 117.632 77.448 117.805C77.892 117.78 78.299 117.768 78.669 117.768C79.0637 117.768 79.4707 117.768 79.89 117.768C80.0133 117.768 80.149 117.78 80.297 117.805C80.445 117.805 80.5807 117.805 80.704 117.805H81.777C81.925 117.805 82.0607 117.817 82.184 117.842C82.332 117.866 82.48 117.903 82.628 117.953C82.702 117.977 82.8007 117.99 82.924 117.99C83.0227 117.99 83.0967 117.99 83.146 117.99C83.1953 117.965 83.257 117.953 83.331 117.953C83.3803 117.953 83.442 117.99 83.516 118.064C83.59 118.138 83.664 118.175 83.738 118.175C83.7873 118.175 83.849 118.175 83.923 118.175C83.997 118.15 84.0587 118.138 84.108 118.138C84.2313 118.138 84.293 118.162 84.293 118.212C84.293 118.261 84.33 118.286 84.404 118.286C84.4533 118.286 84.515 118.286 84.589 118.286C84.663 118.261 84.7247 118.249 84.774 118.249C85.1687 118.298 85.588 118.397 86.032 118.545C86.5007 118.668 86.883 118.791 87.179 118.915C88.0423 119.334 88.7083 119.926 89.177 120.691C89.6457 121.455 89.88 122.393 89.88 123.503C89.88 124.44 89.7073 125.377 89.362 126.315C89.0167 127.252 88.511 128.017 87.845 128.609C87.2283 129.151 86.5253 129.595 85.736 129.941C84.9467 130.311 84.1203 130.594 83.257 130.792C82.3937 131.014 81.5303 131.162 80.667 131.236C79.8037 131.334 79.002 131.384 78.262 131.384H76.375C76.3257 131.384 76.2147 131.384 76.042 131.384C75.8693 131.408 75.7583 131.421 75.709 131.421C75.6843 131.396 75.672 131.371 75.672 131.347C75.598 131.273 75.5733 131.236 75.598 131.236C75.5733 131.236 75.5487 131.248 75.524 131.273C75.4993 131.322 75.4623 131.347 75.413 131.347C75.2403 131.347 75.1293 131.31 75.08 131.236C75.0307 131.162 74.9443 131.1 74.821 131.051C74.673 131.001 74.5867 130.903 74.562 130.755C74.5373 130.631 74.4757 130.545 74.377 130.496C74.2783 130.323 74.2167 130.138 74.192 129.941C74.1673 129.768 74.155 129.558 74.155 129.312C74.155 129.238 74.1797 129.102 74.229 128.905C74.303 128.707 74.3893 128.547 74.488 128.424C74.4633 128.029 74.4387 127.585 74.414 127.092C74.3893 126.672 74.3647 126.167 74.34 125.575C74.34 124.983 74.34 124.329 74.34 123.614C74.34 122.972 74.3277 122.282 74.303 121.542C74.303 120.777 74.303 119.84 74.303 118.73V118.545C74.303 117.632 74.303 116.719 74.303 115.807C74.303 114.869 74.3153 114.142 74.34 113.624L74.377 113.254C74.3523 113.032 74.3277 112.81 74.303 112.588C74.303 112.366 74.303 112.144 74.303 111.922C74.303 111.404 74.3277 110.935 74.377 110.516C74.4263 110.096 74.525 109.825 74.673 109.702C74.9443 109.504 75.1787 109.406 75.376 109.406C75.598 109.406 75.8817 109.381 76.227 109.332C76.5723 109.282 77.1643 109.245 78.003 109.221C78.8663 109.196 79.6927 109.171 80.482 109.147H81.555C81.703 109.147 81.9003 109.159 82.147 109.184C82.4183 109.184 82.6897 109.196 82.961 109.221C83.257 109.245 83.5283 109.27 83.775 109.295C84.0217 109.295 84.2067 109.307 84.33 109.332C84.7987 109.381 85.1687 109.443 85.44 109.517C85.736 109.591 86.0073 109.677 86.254 109.776C86.624 109.899 86.8707 110.059 86.994 110.257C87.0433 110.306 87.068 110.355 87.068 110.405C87.0927 110.429 87.1173 110.466 87.142 110.516C87.1913 110.565 87.216 110.614 87.216 110.664C87.216 110.713 87.2283 110.762 87.253 110.812V111.034C87.253 111.65 87.0063 112.094 86.513 112.366C86.3897 112.44 86.254 112.514 86.106 112.588C85.958 112.662 85.8223 112.699 85.699 112.699C85.3537 112.699 84.8973 112.637 84.33 112.514ZM87.0455 143.409C89.2161 143.409 91.0538 143.162 92.5585 142.669C94.0631 142.2 95.2471 141.546 96.1105 140.708C96.8505 139.992 97.4671 139.141 97.9605 138.155C98.4785 137.168 98.9101 136.033 99.2555 134.751C99.5268 133.813 99.6748 132.839 99.6995 131.828C99.7241 130.816 99.7858 129.817 99.8845 128.831C99.8351 128.954 99.7241 129.102 99.5515 129.275C99.3788 129.423 99.1568 129.558 98.8855 129.682C98.6141 129.83 98.3058 129.953 97.9605 130.052C97.6398 130.175 97.3068 130.237 96.9615 130.237C96.7148 130.237 96.4805 130.224 96.2585 130.2C96.0365 130.175 95.7898 130.101 95.5185 129.978C95.0498 129.78 94.6181 129.472 94.2235 129.053C93.8288 128.609 93.5205 128.078 93.2985 127.462C93.1505 127.042 93.0641 126.586 93.0395 126.093C93.0148 125.575 93.0025 125.081 93.0025 124.613C93.0025 123.651 93.0641 122.824 93.1875 122.134C93.3108 121.443 93.4465 120.863 93.5945 120.395C93.7178 120 93.8781 119.642 94.0755 119.322C94.2728 118.976 94.6551 118.804 95.2225 118.804H95.3705C95.6911 118.804 95.9008 118.902 95.9995 119.1C96.1228 119.272 96.1845 119.507 96.1845 119.803C96.1845 119.852 96.1845 119.926 96.1845 120.025C96.1845 120.099 96.1721 120.222 96.1475 120.395C96.0735 121.036 95.9995 121.665 95.9255 122.282C95.8515 122.898 95.8145 123.466 95.8145 123.984C95.8145 124.724 95.9131 125.365 96.1105 125.908C96.3325 126.426 96.7518 126.685 97.3685 126.685C97.5658 126.685 97.7755 126.66 97.9975 126.611C98.2195 126.537 98.4661 126.438 98.7375 126.315C99.0828 126.167 99.4158 125.846 99.7365 125.353C100.057 124.859 100.316 124.329 100.513 123.762C100.711 123.194 100.933 122.713 101.179 122.319C101.451 121.924 101.771 121.727 102.141 121.727C102.265 121.727 102.413 121.764 102.585 121.838C102.783 121.887 102.943 122.01 103.066 122.208C103.14 122.306 103.19 122.442 103.214 122.615C103.239 122.787 103.251 122.972 103.251 123.17C103.251 123.342 103.239 123.503 103.214 123.651C103.214 123.774 103.214 123.86 103.214 123.91C103.19 124.28 103.165 124.637 103.14 124.983C103.116 125.303 103.079 125.661 103.029 126.056C103.005 126.426 102.98 126.857 102.955 127.351C102.931 127.844 102.918 128.448 102.918 129.164C102.918 131.902 102.659 134.331 102.141 136.453C101.648 138.574 100.797 140.362 99.5885 141.818C98.3798 143.273 96.7765 144.371 94.7785 145.111C92.8051 145.875 90.3261 146.258 87.3415 146.258C87.1935 146.258 87.0578 146.258 86.9345 146.258C86.7865 146.258 86.6508 146.233 86.5275 146.184C86.2315 146.06 85.9478 145.962 85.6765 145.888C85.3805 145.838 85.1708 145.641 85.0475 145.296C84.9488 145.098 84.8871 144.938 84.8625 144.815C84.8378 144.716 84.8255 144.617 84.8255 144.519C84.8255 144.025 84.9981 143.717 85.3435 143.594C85.6641 143.47 86.0958 143.409 86.6385 143.409H87.0455ZM111.981 130.977C111.118 130.977 110.365 130.816 109.724 130.496C109.107 130.2 108.589 129.78 108.17 129.238C107.775 128.67 107.479 128.004 107.282 127.24C107.109 126.475 107.023 125.636 107.023 124.724C107.023 123.466 107.146 122.171 107.393 120.839C107.664 119.482 108.158 118.298 108.873 117.287C108.972 117.163 109.107 117.028 109.28 116.88C109.453 116.707 109.601 116.608 109.724 116.584C109.724 116.362 109.847 116.164 110.094 115.992C110.217 115.893 110.365 115.794 110.538 115.696C110.711 115.597 110.871 115.523 111.019 115.474C111.685 115.202 112.4 115.067 113.165 115.067C113.634 115.067 114.065 115.141 114.46 115.289C114.855 115.412 115.188 115.56 115.459 115.733C115.78 115.93 116.076 116.14 116.347 116.362C116.273 115.794 116.187 115.289 116.088 114.845C116.014 114.376 115.915 113.957 115.792 113.587C115.743 113.463 115.693 113.389 115.644 113.365C115.619 113.34 115.607 113.266 115.607 113.143C115.607 113.069 115.632 113.007 115.681 112.958C115.656 112.908 115.619 112.884 115.57 112.884C115.521 112.859 115.484 112.822 115.459 112.773C115.114 112.131 114.645 111.663 114.053 111.367C113.486 111.046 112.709 110.799 111.722 110.627C110.883 110.479 110.267 110.368 109.872 110.294C109.477 110.195 109.28 109.924 109.28 109.48C109.28 109.43 109.243 109.356 109.169 109.258C109.12 109.134 109.095 109.036 109.095 108.962C109.095 108.74 109.12 108.616 109.169 108.592C109.243 108.542 109.28 108.456 109.28 108.333C109.28 108.283 109.292 108.209 109.317 108.111C109.366 108.012 109.416 107.938 109.465 107.889C109.588 107.765 109.638 107.654 109.613 107.556C109.588 107.457 109.625 107.358 109.724 107.26C109.921 107.112 110.156 107.025 110.427 107.001C110.723 106.976 110.994 106.964 111.241 106.964C112.45 106.964 113.51 107.161 114.423 107.556C115.336 107.95 116.113 108.505 116.754 109.221C116.877 109.344 116.951 109.48 116.976 109.628C117.001 109.776 117.087 109.911 117.235 110.035C117.334 110.109 117.408 110.195 117.457 110.294C117.506 110.392 117.593 110.491 117.716 110.59C117.815 110.664 117.889 110.762 117.938 110.886C117.987 110.984 118.037 111.095 118.086 111.219C118.505 112.057 118.801 112.982 118.974 113.994C119.171 114.98 119.27 116.016 119.27 117.102C119.27 117.866 119.245 118.705 119.196 119.618C119.171 120.506 119.097 121.418 118.974 122.356C118.875 123.268 118.703 124.181 118.456 125.094C118.209 125.982 117.889 126.796 117.494 127.536C117.395 127.733 117.272 127.832 117.124 127.832C117.05 127.906 117.013 127.967 117.013 128.017C117.013 128.066 117.013 128.103 117.013 128.128C117.038 128.128 117.05 128.14 117.05 128.165C116.976 128.288 116.84 128.35 116.643 128.35C116.668 128.399 116.692 128.436 116.717 128.461C116.766 128.485 116.791 128.522 116.791 128.572C116.791 128.646 116.766 128.707 116.717 128.757C116.668 128.806 116.618 128.855 116.569 128.905C116.421 129.077 116.224 129.25 115.977 129.423C115.755 129.571 115.545 129.706 115.348 129.83C115.151 129.953 114.99 130.064 114.867 130.163C114.768 130.286 114.608 130.397 114.386 130.496C114.041 130.644 113.671 130.755 113.276 130.829C112.881 130.927 112.45 130.977 111.981 130.977ZM112.499 128.054C112.968 128.054 113.375 127.93 113.72 127.684C114.09 127.437 114.398 127.116 114.645 126.722C114.916 126.327 115.138 125.883 115.311 125.39C115.484 124.872 115.632 124.354 115.755 123.836C116.026 122.602 116.174 121.196 116.199 119.618C116.002 119.124 115.632 118.73 115.089 118.434C114.571 118.113 113.954 117.953 113.239 117.953C112.573 117.953 112.03 118.175 111.611 118.619C111.192 119.063 110.859 119.618 110.612 120.284C110.39 120.95 110.23 121.665 110.131 122.43C110.032 123.194 109.983 123.885 109.983 124.502C109.983 124.822 109.995 125.131 110.02 125.427C110.045 125.698 110.094 125.957 110.168 126.204C110.217 126.302 110.279 126.376 110.353 126.426C110.427 126.475 110.489 126.537 110.538 126.611C110.587 126.709 110.612 126.796 110.612 126.87C110.637 126.944 110.674 127.005 110.723 127.055C110.772 127.079 110.822 127.129 110.871 127.203C110.92 127.252 110.957 127.301 110.982 127.351C111.056 127.4 111.13 127.462 111.204 127.536C111.303 127.61 111.401 127.671 111.5 127.721C111.623 127.77 111.747 127.832 111.87 127.906C111.993 127.98 112.104 128.029 112.203 128.054H112.499ZM116.602 143.409C118.773 143.409 120.61 143.162 122.115 142.669C123.62 142.2 124.804 141.546 125.667 140.708C126.407 139.992 127.024 139.141 127.517 138.155C128.035 137.168 128.467 136.033 128.812 134.751C129.083 133.813 129.231 132.839 129.256 131.828C129.281 130.816 129.342 129.817 129.441 128.831C129.392 128.954 129.281 129.102 129.108 129.275C128.935 129.423 128.713 129.558 128.442 129.682C128.171 129.83 127.862 129.953 127.517 130.052C127.196 130.175 126.863 130.237 126.518 130.237C126.271 130.237 126.037 130.224 125.815 130.2C125.593 130.175 125.346 130.101 125.075 129.978C124.606 129.78 124.175 129.472 123.78 129.053C123.385 128.609 123.077 128.078 122.855 127.462C122.707 127.042 122.621 126.586 122.596 126.093C122.571 125.575 122.559 125.081 122.559 124.613C122.559 123.651 122.621 122.824 122.744 122.134C122.867 121.443 123.003 120.863 123.151 120.395C123.274 120 123.435 119.642 123.632 119.322C123.829 118.976 124.212 118.804 124.779 118.804H124.927C125.248 118.804 125.457 118.902 125.556 119.1C125.679 119.272 125.741 119.507 125.741 119.803C125.741 119.852 125.741 119.926 125.741 120.025C125.741 120.099 125.729 120.222 125.704 120.395C125.63 121.036 125.556 121.665 125.482 122.282C125.408 122.898 125.371 123.466 125.371 123.984C125.371 124.724 125.47 125.365 125.667 125.908C125.889 126.426 126.308 126.685 126.925 126.685C127.122 126.685 127.332 126.66 127.554 126.611C127.776 126.537 128.023 126.438 128.294 126.315C128.639 126.167 128.972 125.846 129.293 125.353C129.614 124.859 129.873 124.329 130.07 123.762C130.267 123.194 130.489 122.713 130.736 122.319C131.007 121.924 131.328 121.727 131.698 121.727C131.821 121.727 131.969 121.764 132.142 121.838C132.339 121.887 132.5 122.01 132.623 122.208C132.697 122.306 132.746 122.442 132.771 122.615C132.796 122.787 132.808 122.972 132.808 123.17C132.808 123.342 132.796 123.503 132.771 123.651C132.771 123.774 132.771 123.86 132.771 123.91C132.746 124.28 132.722 124.637 132.697 124.983C132.672 125.303 132.635 125.661 132.586 126.056C132.561 126.426 132.537 126.857 132.512 127.351C132.487 127.844 132.475 128.448 132.475 129.164C132.475 131.902 132.216 134.331 131.698 136.453C131.205 138.574 130.354 140.362 129.145 141.818C127.936 143.273 126.333 144.371 124.335 145.111C122.362 145.875 119.883 146.258 116.898 146.258C116.75 146.258 116.614 146.258 116.491 146.258C116.343 146.258 116.207 146.233 116.084 146.184C115.788 146.06 115.504 145.962 115.233 145.888C114.937 145.838 114.727 145.641 114.604 145.296C114.505 145.098 114.444 144.938 114.419 144.815C114.394 144.716 114.382 144.617 114.382 144.519C114.382 144.025 114.555 143.717 114.9 143.594C115.221 143.47 115.652 143.409 116.195 143.409H116.602ZM155.338 127.832C155.486 127.807 155.622 127.782 155.745 127.758C155.869 127.733 155.992 127.721 156.115 127.721C156.263 127.696 156.411 127.684 156.559 127.684C156.979 127.684 157.275 127.782 157.447 127.98C157.62 128.152 157.706 128.399 157.706 128.72L157.558 131.199L157.41 131.754C157.46 131.803 157.484 131.889 157.484 132.013C157.509 132.161 157.521 132.296 157.521 132.42C157.521 132.592 157.509 132.765 157.484 132.938C157.46 133.11 157.435 133.246 157.41 133.345C157.361 133.887 157.287 134.344 157.188 134.714C157.114 135.108 156.991 135.454 156.818 135.75C156.744 135.873 156.683 135.996 156.633 136.12C156.609 136.243 156.522 136.329 156.374 136.379C156.325 136.379 156.263 136.366 156.189 136.342C156.14 136.342 156.091 136.342 156.041 136.342C155.869 136.342 155.745 136.391 155.671 136.49C155.597 136.416 155.511 136.379 155.412 136.379C155.363 136.379 155.314 136.379 155.264 136.379C155.24 136.403 155.203 136.416 155.153 136.416C155.055 136.416 154.981 136.391 154.931 136.342C154.907 136.292 154.857 136.268 154.783 136.268C154.709 136.268 154.648 136.28 154.598 136.305C154.524 136.181 154.45 136.12 154.376 136.12C154.327 136.144 154.278 136.107 154.228 136.009C154.179 135.885 154.142 135.737 154.117 135.565C154.117 135.392 154.117 135.219 154.117 135.047C154.117 134.504 154.179 133.826 154.302 133.012C154.426 132.222 154.537 131.421 154.635 130.607C154.463 130.656 154.278 130.681 154.08 130.681C153.883 130.705 153.735 130.718 153.636 130.718C153.143 130.718 152.822 130.619 152.674 130.422C152.526 130.249 152.452 129.99 152.452 129.645C152.452 128.855 152.563 127.98 152.785 127.018C153.032 126.056 153.18 125.143 153.229 124.28L152.748 125.205C152.452 125.673 152.082 126.228 151.638 126.87C151.219 127.486 150.75 128.091 150.232 128.683C149.739 129.25 149.209 129.731 148.641 130.126C148.074 130.545 147.519 130.755 146.976 130.755C146.68 130.755 146.421 130.681 146.199 130.533C146.076 130.459 146.014 130.385 146.014 130.311C146.014 130.237 145.953 130.15 145.829 130.052C145.755 129.978 145.657 129.854 145.533 129.682C145.435 129.509 145.361 129.361 145.311 129.238C145.163 128.794 145.089 128.288 145.089 127.721C145.089 127.277 145.126 126.734 145.2 126.093C145.299 125.451 145.41 124.859 145.533 124.317L144.756 125.686C144.559 126.031 144.312 126.426 144.016 126.87C143.72 127.289 143.387 127.733 143.017 128.202C142.894 128.35 142.734 128.535 142.536 128.757C142.364 128.954 142.216 129.114 142.092 129.238C142.018 129.312 141.944 129.386 141.87 129.46C141.821 129.509 141.735 129.546 141.611 129.571C141.562 129.694 141.5 129.793 141.426 129.867C141.352 129.941 141.266 130.002 141.167 130.052C140.501 130.52 139.848 130.755 139.206 130.755C138.565 130.755 138.059 130.446 137.689 129.83C137.319 129.213 137.134 128.51 137.134 127.721C137.134 127.079 137.159 126.438 137.208 125.797C137.282 125.131 137.381 124.465 137.504 123.799C137.603 123.231 137.726 122.602 137.874 121.912C138.047 121.221 138.17 120.543 138.244 119.877C138.294 119.408 138.355 119.026 138.429 118.73C138.528 118.434 138.688 118.199 138.91 118.027C138.96 117.977 139.009 117.928 139.058 117.879C139.108 117.829 139.169 117.805 139.243 117.805C139.268 117.805 139.305 117.817 139.354 117.842C139.404 117.842 139.441 117.842 139.465 117.842C139.465 117.792 139.502 117.768 139.576 117.768C139.675 117.743 139.761 117.731 139.835 117.731C139.959 117.731 140.057 117.768 140.131 117.842C140.205 117.891 140.292 117.916 140.39 117.916C140.464 117.916 140.538 117.916 140.612 117.916C140.686 117.891 140.748 117.879 140.797 117.879C140.847 117.879 140.908 117.879 140.982 117.879C141.081 117.879 141.13 117.891 141.13 117.916C141.18 118.039 141.229 118.113 141.278 118.138C141.352 118.162 141.426 118.236 141.5 118.36C141.574 118.483 141.611 118.619 141.611 118.767C141.611 118.989 141.599 119.186 141.574 119.359C141.55 119.507 141.513 119.692 141.463 119.914C141.118 120.925 140.834 122.023 140.612 123.207C140.39 124.366 140.279 125.34 140.279 126.13C140.279 126.401 140.378 126.537 140.575 126.537C140.748 126.537 140.982 126.401 141.278 126.13C141.599 125.834 141.957 125.439 142.351 124.946C142.771 124.428 143.202 123.823 143.646 123.133C144.115 122.417 144.571 121.628 145.015 120.765C145.04 120.715 145.077 120.654 145.126 120.58C145.2 120.506 145.262 120.456 145.311 120.432C145.509 120.382 145.607 120.259 145.607 120.062C145.607 120.037 145.583 120 145.533 119.951C145.484 119.901 145.459 119.864 145.459 119.84C145.509 119.766 145.57 119.729 145.644 119.729C145.718 119.729 145.755 119.667 145.755 119.544C145.755 119.519 145.743 119.494 145.718 119.47C145.718 119.42 145.718 119.383 145.718 119.359C145.792 119.359 145.817 119.309 145.792 119.211C145.792 119.112 145.817 119.026 145.866 118.952C145.99 118.68 146.187 118.397 146.458 118.101C146.73 117.78 147.087 117.62 147.531 117.62C148.049 117.62 148.419 117.755 148.641 118.027C148.715 118.125 148.752 118.224 148.752 118.323C148.752 118.421 148.789 118.532 148.863 118.656C148.913 118.754 148.95 118.89 148.974 119.063C148.999 119.211 149.011 119.346 149.011 119.47C149.011 119.963 148.962 120.419 148.863 120.839C148.765 121.258 148.654 121.714 148.53 122.208C148.432 122.676 148.333 123.194 148.234 123.762C148.136 124.329 148.086 125.007 148.086 125.797C148.086 126.068 148.247 126.204 148.567 126.204C148.863 126.204 149.48 125.575 150.417 124.317C151.355 123.034 152.378 121.233 153.488 118.915C153.562 118.767 153.661 118.631 153.784 118.508C153.834 118.458 153.92 118.421 154.043 118.397C154.167 118.372 154.253 118.335 154.302 118.286C154.401 118.236 154.475 118.187 154.524 118.138C154.574 118.064 154.648 118.027 154.746 118.027C154.968 118.027 155.203 118.076 155.449 118.175C155.721 118.273 155.906 118.434 156.004 118.656C156.128 118.952 156.189 119.433 156.189 120.099C156.189 120.567 156.165 121.036 156.115 121.505C156.091 121.973 156.041 122.516 155.967 123.133C155.844 124.045 155.733 124.872 155.634 125.612C155.56 126.327 155.462 127.067 155.338 127.832ZM167.035 131.68C165.777 131.68 164.655 131.384 163.668 130.792C162.706 130.224 162.028 129.287 161.633 127.98C161.461 127.437 161.337 126.808 161.263 126.093C161.115 125.92 161.017 125.797 160.967 125.723C160.943 125.624 160.918 125.562 160.893 125.538C160.869 125.538 160.856 125.525 160.856 125.501C160.856 125.451 160.819 125.427 160.745 125.427C160.696 125.427 160.659 125.39 160.634 125.316C160.634 125.242 160.634 125.168 160.634 125.094C160.634 125.02 160.634 124.946 160.634 124.872C160.659 124.798 160.671 124.724 160.671 124.65C160.671 124.625 160.684 124.613 160.708 124.613C160.758 124.588 160.795 124.563 160.819 124.539C160.819 124.539 160.992 124.514 161.337 124.465C161.461 123.601 161.732 122.726 162.151 121.838C162.595 120.95 163.15 120.111 163.816 119.322C163.989 119.1 164.248 118.841 164.593 118.545C164.939 118.224 165.333 117.928 165.777 117.657C166.246 117.361 166.727 117.114 167.22 116.917C167.738 116.695 168.256 116.584 168.774 116.584C169.613 116.584 170.353 116.88 170.994 117.472C171.636 118.039 171.956 118.804 171.956 119.766C171.956 120.037 171.919 120.333 171.845 120.654C171.796 120.95 171.722 121.233 171.623 121.505C171.5 121.85 171.315 122.22 171.068 122.615C170.846 123.009 170.6 123.379 170.328 123.725C169.983 124.169 169.613 124.563 169.218 124.909C168.848 125.229 168.429 125.55 167.96 125.871C167.393 126.216 166.813 126.524 166.221 126.796C165.629 127.067 165.05 127.203 164.482 127.203C164.482 127.548 164.569 127.819 164.741 128.017C164.914 128.214 165.124 128.374 165.37 128.498C165.642 128.596 165.938 128.658 166.258 128.683C166.579 128.707 166.887 128.72 167.183 128.72C168.145 128.72 168.836 128.621 169.255 128.424C169.699 128.202 170.02 128.091 170.217 128.091C170.415 128.091 170.538 128.115 170.587 128.165C170.735 128.288 170.822 128.424 170.846 128.572C170.871 128.695 170.883 128.843 170.883 129.016V129.275C170.883 129.423 170.859 129.595 170.809 129.793C170.76 130.015 170.698 130.2 170.624 130.348C170.279 130.816 169.773 131.149 169.107 131.347C168.466 131.569 167.775 131.68 167.035 131.68ZM164.408 124.65C164.877 124.551 165.383 124.341 165.925 124.021C166.493 123.675 167.011 123.293 167.479 122.874C167.973 122.454 168.38 122.023 168.7 121.579C169.021 121.11 169.181 120.691 169.181 120.321C169.181 120.222 169.132 120.111 169.033 119.988C168.935 119.864 168.75 119.803 168.478 119.803C168.059 119.803 167.64 119.938 167.22 120.21C166.801 120.481 166.468 120.777 166.221 121.098C165.925 121.468 165.666 121.801 165.444 122.097C165.247 122.393 165.087 122.676 164.963 122.948C164.84 123.194 164.729 123.453 164.63 123.725C164.556 123.996 164.482 124.304 164.408 124.65ZM177.511 126.981C177.215 126.981 176.968 126.981 176.771 126.981C176.598 126.981 176.438 126.981 176.29 126.981C176.142 126.981 175.981 126.981 175.809 126.981C175.636 126.956 175.426 126.931 175.18 126.907C174.785 126.857 174.489 126.759 174.292 126.611C174.119 126.438 173.983 126.241 173.885 126.019C173.786 125.871 173.724 125.784 173.7 125.76C173.7 125.71 173.7 125.673 173.7 125.649C173.7 125.624 173.7 125.612 173.7 125.612C173.724 125.587 173.737 125.55 173.737 125.501C173.712 125.476 173.7 125.439 173.7 125.39C173.7 125.316 173.724 125.229 173.774 125.131C173.749 125.106 173.737 125.069 173.737 125.02C173.737 124.97 173.737 124.933 173.737 124.909C173.761 124.884 173.774 124.847 173.774 124.798C173.774 124.773 173.761 124.748 173.737 124.724C173.737 124.699 173.737 124.674 173.737 124.65C173.811 124.329 174.008 124.058 174.329 123.836C174.674 123.614 175.019 123.503 175.365 123.503C175.759 123.503 176.129 123.54 176.475 123.614C176.82 123.663 177.128 123.688 177.4 123.688C177.424 122.701 177.56 121.776 177.807 120.913C178.053 120.025 178.399 119.26 178.843 118.619C179.287 117.953 179.829 117.435 180.471 117.065C181.137 116.67 181.901 116.473 182.765 116.473C182.962 116.473 183.135 116.497 183.283 116.547C183.455 116.571 183.566 116.608 183.616 116.658L184.208 116.88C184.331 116.929 184.454 116.978 184.578 117.028C184.726 117.077 184.837 117.151 184.911 117.25C185.059 117.348 185.182 117.472 185.281 117.62C185.404 117.768 185.527 117.928 185.651 118.101C185.971 118.594 186.132 119.198 186.132 119.914C186.132 120.506 185.984 121.11 185.688 121.727C185.416 122.343 185.046 122.935 184.578 123.503C184.109 124.045 183.554 124.551 182.913 125.02C182.296 125.464 181.642 125.846 180.952 126.167C181.396 126.66 182 126.907 182.765 126.907C183.406 126.907 183.961 126.87 184.43 126.796C184.898 126.697 185.404 126.648 185.947 126.648C186.095 126.648 186.243 126.672 186.391 126.722C186.563 126.746 186.687 126.771 186.761 126.796C186.761 126.845 186.81 126.907 186.909 126.981C187.007 127.055 187.094 127.166 187.168 127.314C187.192 127.363 187.205 127.412 187.205 127.462C187.205 127.511 187.192 127.56 187.168 127.61C187.143 127.634 187.131 127.671 187.131 127.721C187.131 127.77 187.143 127.807 187.168 127.832C187.118 127.881 187.094 127.98 187.094 128.128C187.094 128.226 187.106 128.3 187.131 128.35C187.081 128.399 187.02 128.473 186.946 128.572C186.896 128.67 186.872 128.769 186.872 128.868C186.872 128.942 186.884 128.991 186.909 129.016C186.81 129.065 186.514 129.275 186.021 129.645C185.897 129.743 185.811 129.805 185.762 129.83C185.712 129.854 185.638 129.891 185.54 129.941C185.49 129.965 185.429 129.978 185.355 129.978C185.305 129.978 185.256 129.99 185.207 130.015C185.108 130.015 185.046 130.027 185.022 130.052C184.997 130.052 184.972 130.039 184.948 130.015C184.948 130.015 184.935 130.015 184.911 130.015C184.886 130.015 184.861 130.015 184.837 130.015C184.837 130.039 184.824 130.052 184.8 130.052C184.75 130.027 184.701 130.002 184.652 129.978C184.602 129.978 184.516 129.978 184.393 129.978C184.269 129.978 184.158 129.978 184.06 129.978C183.986 130.002 183.899 130.027 183.801 130.052C183.702 130.076 183.579 130.089 183.431 130.089C183.307 130.113 183.122 130.126 182.876 130.126C181.938 130.126 181.013 129.854 180.101 129.312C179.213 128.769 178.522 127.992 178.029 126.981H177.511ZM182.802 119.803C182.752 119.778 182.678 119.766 182.58 119.766C182.234 119.766 181.901 119.951 181.581 120.321C181.285 120.666 181.038 121.048 180.841 121.468C180.742 121.714 180.643 121.986 180.545 122.282C180.471 122.578 180.409 122.911 180.36 123.281C180.656 123.256 180.964 123.157 181.285 122.985C181.605 122.787 181.901 122.565 182.173 122.319C182.469 122.047 182.703 121.764 182.876 121.468C183.073 121.147 183.172 120.826 183.172 120.506C183.172 120.259 183.098 120.062 182.95 119.914L182.802 119.803ZM88.659 187.198C88.6097 187.198 88.5603 187.198 88.511 187.198C88.4863 187.222 88.437 187.235 88.363 187.235C88.3137 187.235 88.2767 187.198 88.252 187.124C88.252 187.074 88.2273 187.025 88.178 186.976C88.1287 186.926 88.067 186.902 87.993 186.902C87.9437 186.926 87.9067 186.926 87.882 186.902L87.734 186.791L87.623 186.643C87.5983 186.593 87.5613 186.556 87.512 186.532C87.4873 186.507 87.4627 186.47 87.438 186.421C87.3393 186.199 87.253 185.952 87.179 185.681C87.1297 185.434 87.0557 185.175 86.957 184.904C86.957 184.854 86.9447 184.817 86.92 184.793C86.92 184.768 86.9077 184.731 86.883 184.682C86.883 184.657 86.8707 184.645 86.846 184.645C86.8213 184.62 86.809 184.595 86.809 184.571C86.809 184.546 86.809 184.521 86.809 184.497C86.8337 184.472 86.846 184.447 86.846 184.423C86.846 184.398 86.8337 184.386 86.809 184.386C86.809 184.361 86.809 184.324 86.809 184.275L86.587 183.683C86.439 183.313 86.291 182.93 86.143 182.536C86.0197 182.116 85.8963 181.697 85.773 181.278C85.6003 181.278 85.5017 181.253 85.477 181.204C85.4523 181.179 85.4153 181.167 85.366 181.167C85.3167 181.167 85.2673 181.179 85.218 181.204C85.1687 181.204 85.1193 181.204 85.07 181.204C85.0947 181.179 85.0823 181.167 85.033 181.167C84.9837 181.142 84.9343 181.13 84.885 181.13C84.6877 181.13 84.5643 181.13 84.515 181.13C84.4657 181.13 84.4287 181.117 84.404 181.093C84.3547 181.093 84.2683 181.08 84.145 181.056C84.0463 181.006 83.9477 180.969 83.849 180.945C83.4297 180.871 82.961 180.809 82.443 180.76C81.925 180.686 81.3947 180.636 80.852 180.612C80.334 180.587 79.816 180.562 79.298 180.538C78.78 180.513 78.3113 180.501 77.892 180.501C77.744 180.501 77.6083 180.501 77.485 180.501C77.3617 180.501 77.2383 180.513 77.115 180.538C77.041 181.253 76.93 181.993 76.782 182.758C76.634 183.498 76.449 184.164 76.227 184.756C76.227 184.904 76.2023 185.027 76.153 185.126L76.042 185.274C75.82 185.57 75.6227 185.829 75.45 186.051C75.2773 186.297 75.0553 186.421 74.784 186.421C74.3893 186.421 74.1303 186.236 74.007 185.866C73.8837 185.496 73.822 185.064 73.822 184.571C73.822 184.225 73.8343 183.868 73.859 183.498C73.9083 183.128 73.9577 182.77 74.007 182.425C74.007 182.4 74.0193 182.388 74.044 182.388C74.0687 182.363 74.081 182.326 74.081 182.277C74.081 182.252 74.0687 182.24 74.044 182.24C74.044 182.215 74.044 182.178 74.044 182.129C74.044 182.03 74.0563 181.82 74.081 181.5C74.1303 181.154 74.1673 180.945 74.192 180.871C74.2167 180.821 74.229 180.76 74.229 180.686C74.229 180.587 74.2043 180.513 74.155 180.464C74.1797 180.39 74.2167 180.316 74.266 180.242C74.3153 180.192 74.34 180.143 74.34 180.094C74.3647 180.02 74.3893 179.983 74.414 179.983C74.3647 179.884 74.34 179.81 74.34 179.761C74.34 179.711 74.3523 179.662 74.377 179.613C74.4017 179.588 74.414 179.576 74.414 179.576C74.4387 179.576 74.4633 179.563 74.488 179.539C74.5127 179.539 74.525 179.526 74.525 179.502C74.525 179.452 74.488 179.403 74.414 179.354C74.3647 179.28 74.3277 179.23 74.303 179.206C74.377 179.132 74.4263 179.021 74.451 178.873C74.5003 178.725 74.525 178.589 74.525 178.466C74.525 178.416 74.5127 178.392 74.488 178.392C74.488 178.392 74.488 178.367 74.488 178.318C74.488 178.268 74.5003 178.231 74.525 178.207C74.5497 178.157 74.562 178.12 74.562 178.096C74.562 177.972 74.5743 177.874 74.599 177.8C74.6237 177.701 74.636 177.59 74.636 177.467C74.636 177.269 74.6483 177.109 74.673 176.986C74.673 176.936 74.6853 176.875 74.71 176.801C74.7347 176.702 74.7593 176.628 74.784 176.579C74.784 176.48 74.7717 176.394 74.747 176.32C74.747 176.246 74.747 176.184 74.747 176.135C74.747 176.085 74.7717 176.011 74.821 175.913C74.8457 175.789 74.8703 175.678 74.895 175.58C74.9197 175.456 74.9443 175.321 74.969 175.173C74.969 175.123 74.9567 175.086 74.932 175.062C74.932 175.012 74.932 174.963 74.932 174.914C74.932 174.864 74.9443 174.827 74.969 174.803C74.969 174.704 74.9813 174.556 75.006 174.359C75.0307 174.137 75.0677 173.952 75.117 173.804C75.1417 173.779 75.154 173.742 75.154 173.693C75.154 173.643 75.1417 173.594 75.117 173.545C75.117 173.495 75.117 173.446 75.117 173.397C75.117 173.347 75.117 173.31 75.117 173.286C75.1417 173.261 75.154 173.236 75.154 173.212C75.2033 172.447 75.2403 171.793 75.265 171.251C75.2897 170.708 75.3267 170.091 75.376 169.401C75.45 168.685 75.5733 168.093 75.746 167.625C75.9187 167.131 76.3257 166.885 76.967 166.885C77.1643 166.885 77.3 166.897 77.374 166.922C77.4233 166.946 77.448 166.971 77.448 166.996C77.4727 167.02 77.5097 167.033 77.559 167.033C77.5837 167.057 77.596 167.07 77.596 167.07C77.6207 167.07 77.6453 167.094 77.67 167.144L77.855 167.329C77.855 167.378 77.8673 167.415 77.892 167.44C77.9167 167.464 77.9413 167.501 77.966 167.551C77.9907 167.6 78.003 167.674 78.003 167.773C78.2743 167.057 78.558 166.416 78.854 165.849C79.15 165.257 79.446 164.763 79.742 164.369C79.9887 164.048 80.2107 163.826 80.408 163.703C80.6053 163.579 80.815 163.518 81.037 163.518C81.3823 163.518 81.6537 163.592 81.851 163.74C82.073 163.888 82.3567 164.27 82.702 164.887C83.368 166.046 83.9847 167.366 84.552 168.846C85.144 170.301 85.699 171.806 86.217 173.36C86.735 174.914 87.2283 176.443 87.697 177.948C88.1903 179.452 88.6713 180.809 89.14 182.018C89.3867 182.61 89.5963 183.14 89.769 183.609C89.9663 184.053 90.1267 184.447 90.25 184.793L90.324 185.015C90.324 185.039 90.324 185.052 90.324 185.052C90.3487 185.076 90.361 185.101 90.361 185.126C90.361 185.15 90.361 185.163 90.361 185.163C90.3857 185.187 90.398 185.212 90.398 185.237L90.472 185.385C90.5213 185.508 90.546 185.607 90.546 185.681C90.5707 185.779 90.6077 185.89 90.657 186.014V186.088C90.657 186.112 90.657 186.137 90.657 186.162C90.6817 186.186 90.694 186.211 90.694 186.236C90.694 186.26 90.6817 186.285 90.657 186.31L90.62 186.347C90.5213 186.421 90.4843 186.482 90.509 186.532C90.5337 186.606 90.4473 186.643 90.25 186.643C90.2007 186.692 90.176 186.729 90.176 186.754C90.176 186.951 90.1513 187.037 90.102 187.013C90.0773 187.013 90.065 187.037 90.065 187.087C90.065 187.136 90.0403 187.161 89.991 187.161C89.9663 187.185 89.9417 187.222 89.917 187.272C89.843 187.296 89.7813 187.321 89.732 187.346C89.7073 187.37 89.6703 187.383 89.621 187.383C89.5963 187.383 89.5717 187.37 89.547 187.346C89.547 187.346 89.5347 187.346 89.51 187.346C89.4607 187.346 89.3867 187.321 89.288 187.272C89.214 187.222 89.1523 187.198 89.103 187.198C89.0537 187.198 89.0167 187.185 88.992 187.161C88.9673 187.161 88.9303 187.161 88.881 187.161C88.8317 187.161 88.7947 187.161 88.77 187.161C88.7453 187.185 88.7083 187.198 88.659 187.198ZM84.737 177.948C84.4657 177.035 84.182 176.122 83.886 175.21C83.59 174.272 83.294 173.372 82.998 172.509C82.702 171.645 82.406 170.831 82.11 170.067C81.814 169.277 81.5057 168.574 81.185 167.958C81.0617 167.958 80.926 168.056 80.778 168.254C80.6547 168.426 80.519 168.661 80.371 168.957C80.075 169.598 79.779 170.338 79.483 171.177C79.187 172.015 78.9157 172.854 78.669 173.693C78.447 174.507 78.2497 175.259 78.077 175.95C77.9043 176.64 77.7933 177.134 77.744 177.43C78.3607 177.479 79.0637 177.516 79.853 177.541C80.6423 177.565 81.4687 177.615 82.332 177.689C82.6773 177.713 83.0597 177.75 83.479 177.8C83.8983 177.849 84.3177 177.898 84.737 177.948ZM93.7268 200.999C93.5542 200.653 93.4308 200.296 93.3568 199.926C93.3075 199.556 93.2828 199.062 93.2828 198.446C93.2828 197.804 93.3198 197.101 93.3938 196.337C93.4678 195.572 93.5418 194.672 93.6158 193.636C93.6405 193.216 93.6775 192.686 93.7268 192.045C93.8008 191.403 93.8995 190.7 94.0228 189.936C93.8748 189.936 93.7268 189.874 93.5788 189.751C93.4555 189.652 93.3568 189.541 93.2828 189.418C93.1102 189.072 93.0238 188.764 93.0238 188.493C93.0238 188.221 93.0485 187.987 93.0978 187.79C93.1472 187.592 93.2335 187.37 93.3568 187.124C93.3568 186.951 93.4062 186.754 93.5048 186.532C93.6035 186.334 93.7268 186.125 93.8748 185.903L94.7998 184.645L95.1328 182.684C95.3302 181.598 95.5892 180.353 95.9098 178.947C96.2552 177.541 96.6745 176.073 97.1678 174.544C97.3405 174.026 97.5625 173.483 97.8338 172.916C98.1052 172.324 98.4135 171.781 98.7588 171.288C99.1042 170.794 99.4742 170.387 99.8688 170.067C100.288 169.746 100.72 169.586 101.164 169.586C101.682 169.586 102.138 169.721 102.533 169.993C102.928 170.264 103.261 170.622 103.532 171.066C103.828 171.485 104.05 171.954 104.198 172.472C104.346 172.99 104.42 173.483 104.42 173.952C104.42 174.692 104.309 175.432 104.087 176.172C103.89 176.912 103.631 177.627 103.31 178.318C102.989 178.984 102.644 179.613 102.274 180.205C101.904 180.772 101.559 181.278 101.238 181.722L97.2418 186.976C97.2172 187.05 97.2048 187.148 97.2048 187.272C97.1308 187.79 97.0568 188.345 96.9828 188.937C96.9335 189.553 96.8718 190.133 96.7978 190.676C96.7485 191.218 96.6992 191.687 96.6498 192.082C96.6252 192.501 96.6128 192.785 96.6128 192.933C96.4895 194.314 96.4032 195.461 96.3538 196.374C96.3292 197.311 96.3168 198.051 96.3168 198.594C96.3168 198.766 96.2922 198.964 96.2428 199.186C96.1935 199.432 96.1318 199.667 96.0578 199.889C95.9838 200.111 95.8975 200.32 95.7988 200.518C95.7248 200.74 95.6508 200.912 95.5768 201.036C95.4042 201.307 95.2438 201.48 95.0958 201.554C94.9478 201.652 94.8368 201.702 94.7628 201.702C94.5408 201.702 94.3558 201.652 94.2078 201.554C94.0845 201.455 93.9242 201.27 93.7268 200.999ZM98.4998 180.649C98.8945 180.131 99.2768 179.576 99.6468 178.984C100.017 178.392 100.338 177.8 100.609 177.208C100.905 176.616 101.127 176.048 101.275 175.506C101.448 174.938 101.534 174.445 101.534 174.026C101.534 173.582 101.386 173.36 101.09 173.36C100.917 173.36 100.745 173.508 100.572 173.804C100.424 174.075 100.264 174.445 100.091 174.914C99.9428 175.333 99.7948 175.789 99.6468 176.283C99.4988 176.751 99.3508 177.22 99.2028 177.689C99.0795 178.133 98.9685 178.564 98.8698 178.984C98.7712 179.378 98.6972 179.699 98.6478 179.946L98.4998 180.649ZM111.235 174.1C111.753 173.952 112.345 173.779 113.011 173.582C113.677 173.36 114.367 173.101 115.083 172.805C115.576 172.607 116.119 172.373 116.711 172.102C117.303 171.806 117.747 171.584 118.043 171.436C118.413 171.238 118.783 171.066 119.153 170.918C119.523 170.745 119.831 170.659 120.078 170.659C120.324 170.659 120.472 170.683 120.522 170.733C120.571 170.782 120.731 170.844 121.003 170.918C121.027 170.992 121.089 171.103 121.188 171.251C121.286 171.399 121.385 171.51 121.484 171.584C121.484 171.633 121.484 171.682 121.484 171.732C121.508 171.781 121.521 171.83 121.521 171.88C121.521 171.904 121.508 171.929 121.484 171.954C121.484 171.978 121.484 172.015 121.484 172.065C121.484 172.114 121.496 172.163 121.521 172.213C121.496 172.336 121.459 172.435 121.41 172.509C121.385 172.558 121.373 172.62 121.373 172.694C121.348 172.743 121.311 172.78 121.262 172.805C121.237 172.829 121.2 172.866 121.151 172.916C121.126 172.99 121.077 173.051 121.003 173.101C120.929 173.125 120.867 173.162 120.818 173.212C120.596 173.409 120.201 173.643 119.634 173.915C119.091 174.186 118.487 174.47 117.821 174.766C117.155 175.062 116.489 175.345 115.823 175.617C115.157 175.863 114.602 176.061 114.158 176.209C113.22 176.48 112.752 176.665 112.752 176.764C112.776 176.862 112.937 177.06 113.233 177.356C113.529 177.652 113.899 178.009 114.343 178.429C114.811 178.823 115.317 179.267 115.86 179.761C116.427 180.229 116.957 180.686 117.451 181.13C117.969 181.574 118.425 181.993 118.82 182.388C119.239 182.758 119.535 183.054 119.708 183.276C119.831 183.448 119.893 183.559 119.893 183.609C119.893 183.658 119.917 183.732 119.967 183.831C120.041 183.905 120.102 183.979 120.152 184.053C120.102 184.151 120.078 184.262 120.078 184.386V184.497C120.078 184.521 120.09 184.546 120.115 184.571C120.065 184.62 120.028 184.669 120.004 184.719C120.004 184.768 119.991 184.817 119.967 184.867L119.782 185.126L119.523 185.311C119.424 185.36 119.325 185.409 119.227 185.459C119.153 185.508 119.091 185.557 119.042 185.607C118.918 185.681 118.807 185.718 118.709 185.718C118.511 185.718 118.326 185.668 118.154 185.57C118.006 185.496 117.919 185.434 117.895 185.385C117.623 185.385 117.414 185.286 117.266 185.089C117.142 184.916 116.982 184.756 116.785 184.608C116.242 184.238 115.551 183.695 114.713 182.98C113.874 182.24 112.887 181.302 111.753 180.168C111.629 180.044 111.444 179.909 111.198 179.761C110.976 179.613 110.815 179.539 110.717 179.539C110.667 179.662 110.643 179.761 110.643 179.835C110.643 179.909 110.643 180.007 110.643 180.131C110.643 180.55 110.655 180.908 110.68 181.204C110.704 181.475 110.729 181.722 110.754 181.944C110.778 182.166 110.803 182.375 110.828 182.573C110.852 182.77 110.865 182.98 110.865 183.202C110.865 183.67 110.754 184.065 110.532 184.386C110.26 184.731 109.816 184.904 109.2 184.904H108.978C108.632 184.854 108.398 184.682 108.275 184.386C108.176 184.09 108.102 183.794 108.053 183.498C108.003 183.202 107.966 182.782 107.942 182.24C107.917 181.672 107.905 181.179 107.905 180.76C107.905 180.168 107.929 179.502 107.979 178.762C108.053 177.997 108.127 177.257 108.201 176.542C108.275 175.802 108.349 175.123 108.423 174.507C108.521 173.865 108.595 173.347 108.645 172.953L108.867 171.473C108.891 171.374 108.916 171.288 108.941 171.214C108.965 171.115 109.002 171.016 109.052 170.918C109.175 170.72 109.311 170.585 109.459 170.511C109.631 170.412 109.755 170.313 109.829 170.215C109.952 170.215 110.026 170.227 110.051 170.252C110.125 170.227 110.186 170.19 110.236 170.141C110.285 170.091 110.359 170.067 110.458 170.067C110.532 170.067 110.643 170.079 110.791 170.104C110.939 170.104 111.074 170.165 111.198 170.289C111.346 170.387 111.469 170.548 111.568 170.77C111.666 170.992 111.716 171.312 111.716 171.732C111.716 171.781 111.703 171.88 111.679 172.028C111.654 172.176 111.617 172.324 111.568 172.472C111.518 172.644 111.481 172.829 111.457 173.027L111.235 174.1ZM130.102 186.68C129.904 186.68 129.719 186.667 129.547 186.643C129.374 186.643 129.226 186.618 129.103 186.569C128.979 186.519 128.868 186.482 128.77 186.458C128.696 186.433 128.634 186.359 128.585 186.236C128.535 186.112 128.498 185.927 128.474 185.681C128.449 185.459 128.437 185.237 128.437 185.015C128.437 184.472 128.449 184.016 128.474 183.646C128.523 183.251 128.572 182.906 128.622 182.61C128.671 182.314 128.708 182.042 128.733 181.796C128.782 181.549 128.807 181.278 128.807 180.982C128.807 179.995 128.807 179.193 128.807 178.577C128.807 177.935 128.807 177.405 128.807 176.986C128.831 176.542 128.856 176.172 128.881 175.876C128.905 175.555 128.93 175.222 128.955 174.877L126.069 175.136C125.797 175.16 125.477 175.197 125.107 175.247C124.761 175.296 124.515 175.321 124.367 175.321C124.194 175.321 124.058 175.284 123.96 175.21C123.886 175.16 123.824 175.099 123.775 175.025C123.725 174.951 123.676 174.889 123.627 174.84C123.528 174.741 123.466 174.618 123.442 174.47C123.417 174.322 123.405 174.174 123.405 174.026C123.38 173.927 123.355 173.853 123.331 173.804C123.331 173.754 123.331 173.693 123.331 173.619C123.331 173.446 123.38 173.286 123.479 173.138C123.528 173.064 123.553 172.99 123.553 172.916C123.577 172.842 123.614 172.78 123.664 172.731C123.96 172.607 124.293 172.521 124.663 172.472C125.033 172.398 125.39 172.336 125.736 172.287C126.032 172.237 126.365 172.188 126.735 172.139C127.105 172.089 127.462 172.04 127.808 171.991C128.178 171.941 128.511 171.904 128.807 171.88C129.103 171.855 129.337 171.83 129.51 171.806C131.039 171.658 132.223 171.547 133.062 171.473C133.925 171.399 134.554 171.349 134.949 171.325C135.368 171.275 135.627 171.251 135.726 171.251C135.824 171.226 135.886 171.214 135.911 171.214C136.034 171.214 136.145 171.226 136.244 171.251C136.342 171.251 136.453 171.251 136.577 171.251C136.675 171.251 136.737 171.312 136.762 171.436C136.811 171.534 136.873 171.645 136.947 171.769C137.021 171.892 137.082 171.991 137.132 172.065C137.206 172.114 137.243 172.176 137.243 172.25C137.243 172.348 137.23 172.435 137.206 172.509C137.181 172.583 137.169 172.681 137.169 172.805C137.169 172.879 137.169 172.977 137.169 173.101C137.193 173.199 137.206 173.286 137.206 173.36C137.206 173.532 137.107 173.68 136.91 173.804C136.811 173.853 136.749 173.927 136.725 174.026C136.7 174.1 136.626 174.161 136.503 174.211C136.133 174.383 135.516 174.47 134.653 174.47C134.184 174.47 133.715 174.482 133.247 174.507C132.778 174.531 132.334 174.568 131.915 174.618C131.89 174.766 131.878 174.988 131.878 175.284C131.878 175.58 131.865 176.011 131.841 176.579L131.767 177.874C131.742 178.096 131.717 178.392 131.693 178.762C131.668 179.132 131.643 179.539 131.619 179.983C131.594 180.402 131.569 180.821 131.545 181.241C131.545 181.66 131.545 182.018 131.545 182.314C131.545 182.585 131.545 182.918 131.545 183.313C131.569 183.683 131.582 184.114 131.582 184.608C131.582 184.854 131.569 185.101 131.545 185.348C131.52 185.594 131.471 185.804 131.397 185.977C131.347 186.051 131.31 186.112 131.286 186.162C131.286 186.236 131.261 186.297 131.212 186.347C131.187 186.371 131.076 186.408 130.879 186.458C130.829 186.482 130.768 186.507 130.694 186.532C130.644 186.581 130.595 186.606 130.546 186.606C130.496 186.606 130.422 186.618 130.324 186.643C130.25 186.667 130.176 186.68 130.102 186.68ZM151.689 184.275C151.639 184.398 151.565 184.521 151.467 184.645C151.368 184.793 151.245 184.928 151.097 185.052C150.899 185.2 150.714 185.323 150.542 185.422C150.394 185.545 150.209 185.607 149.987 185.607C149.814 185.607 149.641 185.57 149.469 185.496C149.222 185.422 149.049 185.249 148.951 184.978C148.852 184.731 148.803 184.435 148.803 184.09C148.803 183.966 148.803 183.843 148.803 183.72C148.827 183.596 148.852 183.461 148.877 183.313C148.926 183.017 148.988 182.671 149.062 182.277C149.136 181.857 149.21 181.475 149.284 181.13C149.382 180.661 149.469 180.291 149.543 180.02C149.617 179.748 149.654 179.477 149.654 179.206C149.654 179.107 149.629 179.058 149.58 179.058C149.481 179.058 149.37 179.144 149.247 179.317C149.148 179.489 148.975 179.736 148.729 180.057C148.359 180.55 147.964 181.019 147.545 181.463C147.125 181.907 146.595 182.412 145.954 182.98C145.362 183.498 144.733 183.979 144.067 184.423C143.401 184.842 142.673 185.052 141.884 185.052C141.144 185.052 140.564 184.768 140.145 184.201C139.75 183.609 139.553 182.943 139.553 182.203C139.553 181.956 139.565 181.672 139.59 181.352C139.639 181.031 139.676 180.698 139.701 180.353C139.75 180.007 139.799 179.687 139.849 179.391C139.898 179.07 139.923 178.811 139.923 178.614C139.972 178.293 140.046 177.874 140.145 177.356C140.243 176.838 140.293 176.406 140.293 176.061L140.478 174.803C140.527 174.556 140.552 174.334 140.552 174.137C140.576 173.915 140.613 173.717 140.663 173.545C140.687 173.446 140.7 173.36 140.7 173.286C140.7 173.187 140.7 173.101 140.7 173.027C140.7 172.829 140.749 172.718 140.848 172.694C140.996 172.57 141.193 172.472 141.44 172.398C141.612 172.324 141.773 172.299 141.921 172.324C142.069 172.324 142.167 172.299 142.217 172.25C142.488 172.25 142.747 172.422 142.994 172.768C143.24 173.113 143.388 173.421 143.438 173.693C143.462 173.767 143.475 173.878 143.475 174.026C143.475 174.149 143.475 174.297 143.475 174.47C143.475 174.889 143.45 175.296 143.401 175.691C143.351 176.085 143.29 176.505 143.216 176.949C143.166 177.146 143.105 177.393 143.031 177.689C142.981 177.985 142.92 178.281 142.846 178.577C142.796 178.873 142.747 179.144 142.698 179.391C142.673 179.613 142.661 179.773 142.661 179.872C142.661 180.02 142.685 180.155 142.735 180.279C142.809 180.377 142.944 180.427 143.142 180.427C143.364 180.427 143.697 180.266 144.141 179.946C144.585 179.625 145.053 179.243 145.547 178.799C146.065 178.33 146.558 177.849 147.027 177.356C147.52 176.838 147.915 176.381 148.211 175.987C148.679 175.37 149.062 174.864 149.358 174.47C149.678 174.075 149.962 173.767 150.209 173.545C150.455 173.298 150.825 173.175 151.319 173.175C151.565 173.175 151.775 173.273 151.948 173.471C152.145 173.668 152.305 173.865 152.429 174.063C152.626 174.383 152.725 174.741 152.725 175.136C152.725 175.506 152.749 175.888 152.799 176.283C152.799 176.381 152.774 176.48 152.725 176.579C152.675 176.677 152.651 176.776 152.651 176.875C152.626 177.146 152.601 177.467 152.577 177.837C152.552 178.207 152.527 178.614 152.503 179.058C152.379 180.39 152.256 181.45 152.133 182.24C152.034 183.004 151.898 183.633 151.726 184.127L151.689 184.275ZM161.182 176.542C161.453 176.344 161.761 176.11 162.107 175.839C162.477 175.567 162.797 175.308 163.069 175.062L166.769 171.843C166.892 171.719 167.028 171.608 167.176 171.51C167.324 171.386 167.459 171.263 167.583 171.14C167.928 170.819 168.187 170.659 168.36 170.659C168.582 170.659 168.754 170.683 168.878 170.733C169.026 170.782 169.186 170.893 169.359 171.066C169.507 171.238 169.593 171.374 169.618 171.473C169.667 171.571 169.692 171.67 169.692 171.769C169.692 171.843 169.679 171.917 169.655 171.991C169.655 172.065 169.655 172.163 169.655 172.287C169.655 172.533 169.593 172.768 169.47 172.99C169.346 173.212 169.223 173.36 169.1 173.434C168.976 173.557 168.767 173.767 168.471 174.063C168.175 174.334 167.891 174.568 167.62 174.766C167.496 174.864 167.274 175.037 166.954 175.284C166.658 175.53 166.337 175.802 165.992 176.098C165.646 176.394 165.301 176.677 164.956 176.949C164.635 177.22 164.388 177.43 164.216 177.578L163.18 178.429C163.106 178.478 163.044 178.527 162.995 178.577C162.945 178.601 162.921 178.651 162.921 178.725C162.921 178.799 162.958 178.873 163.032 178.947L167.953 183.424C168.175 183.596 168.384 183.806 168.582 184.053C168.804 184.299 168.952 184.521 169.026 184.719C169.075 184.842 169.1 184.916 169.1 184.941C169.124 184.99 169.149 185.064 169.174 185.163C169.223 185.261 169.248 185.36 169.248 185.459C169.248 185.508 169.235 185.607 169.211 185.755C169.211 185.927 169.211 186.038 169.211 186.088C169.211 186.162 169.186 186.26 169.137 186.384C169.087 186.507 169.038 186.593 168.989 186.643C168.939 186.717 168.804 186.791 168.582 186.865C168.384 186.939 168.224 187 168.101 187.05C167.977 187.025 167.891 186.988 167.842 186.939C167.792 186.889 167.694 186.865 167.546 186.865C167.373 186.865 167.176 186.803 166.954 186.68C166.756 186.581 166.559 186.445 166.362 186.273C166.164 186.125 165.979 185.964 165.807 185.792C165.634 185.644 165.498 185.533 165.4 185.459C165.178 185.261 164.943 185.064 164.697 184.867C164.475 184.669 164.277 184.484 164.105 184.312L161.737 181.759C161.49 181.487 161.243 181.191 160.997 180.871C160.775 180.525 160.614 180.266 160.516 180.094L160.442 179.946C160.417 179.921 160.392 179.872 160.368 179.798C160.368 179.724 160.355 179.662 160.331 179.613C160.306 179.563 160.294 179.514 160.294 179.465C160.294 179.391 160.269 179.354 160.22 179.354C160.195 179.354 160.17 179.378 160.146 179.428C160.146 179.477 160.121 179.6 160.072 179.798C159.924 180.365 159.813 180.895 159.739 181.389C159.665 181.857 159.603 182.264 159.554 182.61L158.999 185.459C158.974 185.582 158.937 185.755 158.888 185.977C158.838 186.223 158.789 186.458 158.74 186.68C158.69 186.926 158.641 187.148 158.592 187.346C158.542 187.543 158.505 187.654 158.481 187.679C158.333 187.827 158.123 187.901 157.852 187.901C157.654 187.901 157.457 187.864 157.26 187.79C157.087 187.716 156.976 187.654 156.927 187.605C156.853 187.555 156.779 187.481 156.705 187.383C156.655 187.309 156.594 187.235 156.52 187.161C156.47 187.087 156.433 187.013 156.409 186.939C156.335 186.741 156.285 186.532 156.261 186.31C156.236 186.088 156.224 185.841 156.224 185.57C156.224 185.422 156.224 185.261 156.224 185.089C156.248 184.916 156.273 184.731 156.298 184.534C156.322 184.262 156.359 183.868 156.409 183.35C156.483 182.832 156.544 182.4 156.594 182.055C156.643 181.709 156.729 181.241 156.853 180.649C156.976 180.032 157.112 179.403 157.26 178.762C157.408 178.096 157.543 177.467 157.667 176.875C157.815 176.283 157.926 175.839 158 175.543C158.074 175.296 158.172 174.963 158.296 174.544C158.419 174.1 158.53 173.668 158.629 173.249C158.752 172.805 158.863 172.398 158.962 172.028C159.06 171.658 159.122 171.411 159.147 171.288C159.147 171.238 159.159 171.177 159.184 171.103C159.208 171.004 159.233 170.93 159.258 170.881C159.282 170.831 159.307 170.794 159.332 170.77C159.356 170.72 159.381 170.671 159.406 170.622C159.43 170.572 159.455 170.535 159.48 170.511C159.529 170.437 159.566 170.363 159.591 170.289C159.64 170.215 159.714 170.178 159.813 170.178C160.01 170.178 160.207 170.202 160.405 170.252C160.627 170.301 160.787 170.363 160.886 170.437C161.132 170.609 161.342 170.856 161.515 171.177C161.589 171.3 161.675 171.497 161.774 171.769C161.872 172.015 161.922 172.225 161.922 172.398C161.922 172.669 161.885 172.99 161.811 173.36C161.737 173.73 161.638 174.112 161.515 174.507C161.416 174.877 161.305 175.247 161.182 175.617C161.083 175.987 160.984 176.32 160.886 176.616L161.182 176.542ZM184.895 184.275C184.846 184.398 184.772 184.521 184.673 184.645C184.574 184.793 184.451 184.928 184.303 185.052C184.106 185.2 183.921 185.323 183.748 185.422C183.6 185.545 183.415 185.607 183.193 185.607C183.02 185.607 182.848 185.57 182.675 185.496C182.428 185.422 182.256 185.249 182.157 184.978C182.058 184.731 182.009 184.435 182.009 184.09C182.009 183.966 182.009 183.843 182.009 183.72C182.034 183.596 182.058 183.461 182.083 183.313C182.132 183.017 182.194 182.671 182.268 182.277C182.342 181.857 182.416 181.475 182.49 181.13C182.589 180.661 182.675 180.291 182.749 180.02C182.823 179.748 182.86 179.477 182.86 179.206C182.86 179.107 182.835 179.058 182.786 179.058C182.687 179.058 182.576 179.144 182.453 179.317C182.354 179.489 182.182 179.736 181.935 180.057C181.565 180.55 181.17 181.019 180.751 181.463C180.332 181.907 179.801 182.412 179.16 182.98C178.568 183.498 177.939 183.979 177.273 184.423C176.607 184.842 175.879 185.052 175.09 185.052C174.35 185.052 173.77 184.768 173.351 184.201C172.956 183.609 172.759 182.943 172.759 182.203C172.759 181.956 172.771 181.672 172.796 181.352C172.845 181.031 172.882 180.698 172.907 180.353C172.956 180.007 173.006 179.687 173.055 179.391C173.104 179.07 173.129 178.811 173.129 178.614C173.178 178.293 173.252 177.874 173.351 177.356C173.45 176.838 173.499 176.406 173.499 176.061L173.684 174.803C173.733 174.556 173.758 174.334 173.758 174.137C173.783 173.915 173.82 173.717 173.869 173.545C173.894 173.446 173.906 173.36 173.906 173.286C173.906 173.187 173.906 173.101 173.906 173.027C173.906 172.829 173.955 172.718 174.054 172.694C174.202 172.57 174.399 172.472 174.646 172.398C174.819 172.324 174.979 172.299 175.127 172.324C175.275 172.324 175.374 172.299 175.423 172.25C175.694 172.25 175.953 172.422 176.2 172.768C176.447 173.113 176.595 173.421 176.644 173.693C176.669 173.767 176.681 173.878 176.681 174.026C176.681 174.149 176.681 174.297 176.681 174.47C176.681 174.889 176.656 175.296 176.607 175.691C176.558 176.085 176.496 176.505 176.422 176.949C176.373 177.146 176.311 177.393 176.237 177.689C176.188 177.985 176.126 178.281 176.052 178.577C176.003 178.873 175.953 179.144 175.904 179.391C175.879 179.613 175.867 179.773 175.867 179.872C175.867 180.02 175.892 180.155 175.941 180.279C176.015 180.377 176.151 180.427 176.348 180.427C176.57 180.427 176.903 180.266 177.347 179.946C177.791 179.625 178.26 179.243 178.753 178.799C179.271 178.33 179.764 177.849 180.233 177.356C180.726 176.838 181.121 176.381 181.417 175.987C181.886 175.37 182.268 174.864 182.564 174.47C182.885 174.075 183.168 173.767 183.415 173.545C183.662 173.298 184.032 173.175 184.525 173.175C184.772 173.175 184.981 173.273 185.154 173.471C185.351 173.668 185.512 173.865 185.635 174.063C185.832 174.383 185.931 174.741 185.931 175.136C185.931 175.506 185.956 175.888 186.005 176.283C186.005 176.381 185.98 176.48 185.931 176.579C185.882 176.677 185.857 176.776 185.857 176.875C185.832 177.146 185.808 177.467 185.783 177.837C185.758 178.207 185.734 178.614 185.709 179.058C185.586 180.39 185.462 181.45 185.339 182.24C185.24 183.004 185.105 183.633 184.932 184.127L184.895 184.275Z" fill="white"/>
<defs>
<radialGradient id="paint0_radial" cx="0" cy="0" r="1" gradientUnits="userSpaceOnUse" gradientTransform="translate(114.139 139.828) rotate(8.55099) scale(115.597 128.37)">
<stop stop-color="#407B9A"/>
<stop offset="0.6453" stop-color="#3682A1"/>
<stop offset="0.9413" stop-color="#C6DDEE"/>
<stop offset="1" stop-color="white"/>
</radialGradient>
<linearGradient id="paint1_linear" x1="116.336" y1="29.9934" x2="112.514" y2="77.3738" gradientUnits="userSpaceOnUse">
<stop stop-color="white"/>
<stop offset="0.4749" stop-color="#D4EFFD" stop-opacity="0.5"/>
<stop offset="1" stop-color="#3699D6" stop-opacity="0"/>
</linearGradient>
</defs>
</svg>
