<svg width="259" height="227" viewBox="0 0 259 227" fill="none" xmlns="http://www.w3.org/2000/svg">
<path opacity="0.33" d="M46.0406 26.6585C15.5117 41.5309 3.34978 84.4854 1.4469 118.664C-0.621455 152.843 13.6916 187.022 40.332 205.682C56.5479 217.044 76.4041 222.494 96.5085 224.896C133.491 229.145 172.293 223.233 207.951 207.991C220.444 202.633 232.937 195.89 241.459 184.99C249.98 174.366 253.703 160.88 255.772 147.67C262.804 104.069 254.117 42.0852 214.57 18.4372C164.681 -11.1229 98.0804 1.53241 46.0406 26.6585Z" fill="url(#paint0_radial)" stroke="white" stroke-width="1.1021" stroke-miterlimit="10"/>
<path opacity="0.33" d="M178.333 31.1844C181.063 31.6463 195.542 37.1887 200.34 41.4379C203.981 44.671 219.287 57.1417 222.43 69.2428C224.83 78.4802 226.567 82.5447 220.693 92.5211C220.031 93.5372 215.15 97.7865 212.916 94.7381C209.276 89.1033 202.574 75.6166 187.599 62.7765C183.876 59.6358 172.542 52.4306 167.826 50.3983C165.675 49.4746 157.815 45.2254 157.236 43.3779C153.761 33.8633 173.452 30.353 178.333 31.1844Z" fill="url(#paint1_linear)"/>
<path opacity="0.5" d="M109.245 78.72C109.173 78.744 108.981 78.756 108.669 78.756C108.381 78.756 108.201 78.756 108.129 78.756C108.081 79.236 108.021 79.764 107.949 80.34C107.901 80.916 107.853 81.456 107.805 81.96C107.757 82.32 107.697 82.812 107.625 83.436C107.577 84.06 107.517 84.744 107.445 85.488C107.373 86.208 107.289 86.952 107.193 87.72C107.121 88.464 107.049 89.16 106.977 89.808C106.953 90.072 106.917 90.384 106.869 90.744C106.845 91.08 106.821 91.44 106.797 91.824C106.773 92.184 106.749 92.556 106.725 92.94C106.725 93.3 106.725 93.636 106.725 93.948C106.725 94.092 106.725 94.224 106.725 94.344C106.749 94.464 106.761 94.584 106.761 94.704L106.833 96.468C106.809 97.068 106.749 97.56 106.653 97.944C106.557 98.352 106.317 98.616 105.933 98.736L105.213 98.988L104.817 98.844L104.421 98.628L104.025 98.016C103.953 97.944 103.917 97.872 103.917 97.8C103.917 97.752 103.917 97.704 103.917 97.656C103.941 97.608 103.953 97.56 103.953 97.512C103.953 97.464 103.929 97.416 103.881 97.368C103.761 97.272 103.701 97.176 103.701 97.08C103.701 97.008 103.689 96.876 103.665 96.684C103.641 96.66 103.629 96.6 103.629 96.504C103.629 96.456 103.629 96.42 103.629 96.396C103.653 96.396 103.665 96.384 103.665 96.36C103.665 96.312 103.653 96.276 103.629 96.252C103.629 96.252 103.629 96.24 103.629 96.216C103.629 96.168 103.641 96.12 103.665 96.072C103.665 96.048 103.677 96.012 103.701 95.964C103.725 95.22 103.749 94.488 103.773 93.768C103.821 93.048 103.869 92.208 103.917 91.248C103.989 90.288 104.073 89.16 104.169 87.864C104.289 86.544 104.445 84.924 104.637 83.004C104.685 82.572 104.745 81.96 104.817 81.168C104.913 80.376 104.961 79.608 104.961 78.864C104.169 78.912 103.365 78.96 102.549 79.008C101.757 79.032 101.217 79.044 100.929 79.044C100.641 79.068 100.293 79.08 99.8847 79.08C99.5007 79.08 99.1167 79.08 98.7327 79.08C98.3487 79.08 97.9887 79.092 97.6527 79.116C97.3167 79.116 97.0527 79.128 96.8607 79.152L96.6447 81.348C96.6207 81.66 96.5847 81.876 96.5367 81.996C96.5127 82.116 96.5007 82.236 96.5007 82.356C96.5007 82.524 96.5007 82.704 96.5007 82.896C96.5247 83.088 96.5367 83.292 96.5367 83.508C96.5367 83.628 96.5367 83.736 96.5367 83.832C96.5367 83.928 96.5247 84.036 96.5007 84.156C96.4767 84.228 96.4407 84.312 96.3927 84.408C96.3687 84.504 96.3447 84.624 96.3207 84.768L96.2487 85.632C96.1767 86.4 96.1287 87.036 96.1047 87.54C96.0807 88.02 96.0567 88.476 96.0327 88.908C96.0087 89.412 95.9847 89.82 95.9607 90.132C95.9607 90.42 95.9607 90.696 95.9607 90.96C95.9607 91.224 95.9607 91.476 95.9607 91.716C95.9607 91.956 95.9487 92.232 95.9247 92.544C95.9007 92.592 95.8647 92.64 95.8167 92.688C95.7687 92.736 95.7447 92.784 95.7447 92.832C95.7687 92.88 95.8047 92.904 95.8527 92.904C95.9007 92.88 95.9247 92.904 95.9247 92.976L95.8527 93.048C95.8287 93.072 95.8047 93.084 95.7807 93.084C95.7567 93.084 95.7447 93.096 95.7447 93.12C95.7207 93.192 95.7087 93.312 95.7087 93.48C95.7087 93.672 95.7087 93.864 95.7087 94.056C95.7327 94.248 95.7447 94.44 95.7447 94.632C95.7447 94.872 95.7207 95.088 95.6727 95.28C95.6487 95.448 95.6247 95.628 95.6007 95.82C95.5767 96.444 95.5167 96.972 95.4207 97.404C95.3487 97.86 95.2047 98.34 94.9887 98.844C94.9407 98.844 94.9047 98.832 94.8807 98.808C94.8807 98.808 94.8687 98.808 94.8447 98.808C94.7487 98.808 94.6647 98.82 94.5927 98.844C94.5447 98.892 94.4847 98.94 94.4127 98.988C94.3887 99.012 94.3407 99.048 94.2687 99.096C94.2207 99.144 94.1607 99.168 94.0887 99.168C94.0407 99.168 93.9927 99.144 93.9447 99.096C93.8487 99.024 93.6327 98.904 93.2967 98.736C92.9607 98.568 92.7327 98.412 92.6127 98.268C92.5167 98.172 92.4687 97.992 92.4687 97.728C92.4687 97.584 92.4687 97.44 92.4687 97.296C92.4927 97.152 92.5047 97.044 92.5047 96.972C92.5047 96.924 92.4807 96.876 92.4327 96.828C92.3847 96.804 92.3607 96.756 92.3607 96.684L92.6847 95.172C92.7327 95.004 92.7567 94.872 92.7567 94.776C92.7567 94.656 92.7567 94.536 92.7567 94.416C92.7567 94.296 92.7567 94.188 92.7567 94.092C92.7567 93.972 92.7687 93.852 92.7927 93.732C92.8407 93.324 92.8527 92.892 92.8287 92.436C92.8287 91.956 92.8527 91.44 92.9007 90.888L93.0087 88.908C93.0327 88.308 93.0567 87.684 93.0807 87.036C93.1047 86.364 93.1407 85.752 93.1887 85.2C93.2367 84.312 93.2847 83.424 93.3327 82.536C93.3807 81.624 93.4287 80.916 93.4767 80.412L93.5127 79.8C93.5127 79.56 93.4887 79.392 93.4407 79.296C93.3927 79.248 93.3087 79.188 93.1887 79.116C93.0687 79.044 93.0087 78.9 93.0087 78.684C93.0087 78.516 92.9847 78.372 92.9367 78.252C92.8887 78.108 92.8647 77.964 92.8647 77.82C92.8647 77.556 92.9247 77.328 93.0447 77.136C93.1887 76.92 93.3567 76.74 93.5487 76.596C93.8127 76.38 94.1367 76.284 94.5207 76.308C94.9047 76.308 95.2647 76.284 95.6007 76.236C95.7687 76.212 96.0087 76.2 96.3207 76.2C96.6327 76.176 96.9687 76.164 97.3287 76.164C97.7127 76.14 98.1087 76.128 98.5167 76.128C98.9487 76.104 99.3567 76.08 99.7407 76.056C100.245 76.032 100.953 75.996 101.865 75.948C102.777 75.9 103.677 75.852 104.565 75.804C105.477 75.756 106.281 75.72 106.977 75.696C107.697 75.672 108.093 75.66 108.165 75.66C108.285 75.66 108.369 75.672 108.417 75.696C108.465 75.72 108.513 75.744 108.561 75.768C108.801 75.864 108.957 75.912 109.029 75.912C109.077 75.912 109.101 75.912 109.101 75.912C109.101 75.888 109.125 75.876 109.173 75.876C109.197 75.876 109.233 75.9 109.281 75.948C109.353 75.972 109.413 76.032 109.461 76.128C109.533 76.2 109.605 76.248 109.677 76.272C109.725 76.296 109.749 76.332 109.749 76.38C109.749 76.404 109.785 76.428 109.857 76.452C109.857 76.5 109.869 76.536 109.893 76.56C109.941 76.584 109.965 76.632 109.965 76.704C109.989 76.728 110.001 76.776 110.001 76.848C110.001 76.92 110.013 76.968 110.037 76.992C110.061 77.016 110.049 77.052 110.001 77.1C109.977 77.124 109.965 77.16 109.965 77.208C109.941 77.304 109.917 77.388 109.893 77.46C109.893 77.532 109.893 77.604 109.893 77.676C109.893 77.724 109.893 77.796 109.893 77.892C109.917 77.988 109.941 78.06 109.965 78.108L110.001 78.432C110.001 78.504 109.893 78.564 109.677 78.612C109.461 78.66 109.317 78.696 109.245 78.72ZM113.051 111.912C112.883 111.576 112.763 111.228 112.691 110.868C112.643 110.508 112.619 110.028 112.619 109.428C112.619 108.804 112.655 108.12 112.727 107.376C112.799 106.632 112.871 105.756 112.943 104.748C112.967 104.34 113.003 103.824 113.051 103.2C113.123 102.576 113.219 101.892 113.339 101.148C113.195 101.148 113.051 101.088 112.907 100.968C112.787 100.872 112.691 100.764 112.619 100.644C112.451 100.308 112.367 100.008 112.367 99.744C112.367 99.48 112.391 99.252 112.439 99.06C112.487 98.868 112.571 98.652 112.691 98.412C112.691 98.244 112.739 98.052 112.835 97.836C112.931 97.644 113.051 97.44 113.195 97.224L114.095 96L114.419 94.092C114.611 93.036 114.863 91.824 115.175 90.456C115.511 89.088 115.919 87.66 116.399 86.172C116.567 85.668 116.783 85.14 117.047 84.588C117.311 84.012 117.611 83.484 117.947 83.004C118.283 82.524 118.643 82.128 119.027 81.816C119.435 81.504 119.855 81.348 120.287 81.348C120.791 81.348 121.235 81.48 121.619 81.744C122.003 82.008 122.327 82.356 122.591 82.788C122.879 83.196 123.095 83.652 123.239 84.156C123.383 84.66 123.455 85.14 123.455 85.596C123.455 86.316 123.347 87.036 123.131 87.756C122.939 88.476 122.687 89.172 122.375 89.844C122.063 90.492 121.727 91.104 121.367 91.68C121.007 92.232 120.671 92.724 120.359 93.156L116.471 98.268C116.447 98.34 116.435 98.436 116.435 98.556C116.363 99.06 116.291 99.6 116.219 100.176C116.171 100.776 116.111 101.34 116.039 101.868C115.991 102.396 115.943 102.852 115.895 103.236C115.871 103.644 115.859 103.92 115.859 104.064C115.739 105.408 115.655 106.524 115.607 107.412C115.583 108.324 115.571 109.044 115.571 109.572C115.571 109.74 115.547 109.932 115.499 110.148C115.451 110.388 115.391 110.616 115.319 110.832C115.247 111.048 115.163 111.252 115.067 111.444C114.995 111.66 114.923 111.828 114.851 111.948C114.683 112.212 114.527 112.38 114.383 112.452C114.239 112.548 114.131 112.596 114.059 112.596C113.843 112.596 113.663 112.548 113.519 112.452C113.399 112.356 113.243 112.176 113.051 111.912ZM117.695 92.112C118.079 91.608 118.451 91.068 118.811 90.492C119.171 89.916 119.483 89.34 119.747 88.764C120.035 88.188 120.251 87.636 120.395 87.108C120.563 86.556 120.647 86.076 120.647 85.668C120.647 85.236 120.503 85.02 120.215 85.02C120.047 85.02 119.879 85.164 119.711 85.452C119.567 85.716 119.411 86.076 119.243 86.532C119.099 86.94 118.955 87.384 118.811 87.864C118.667 88.32 118.523 88.776 118.379 89.232C118.259 89.664 118.151 90.084 118.055 90.492C117.959 90.876 117.887 91.188 117.839 91.428L117.695 92.112ZM138.474 95.64C138.426 95.76 138.354 95.88 138.258 96C138.162 96.144 138.042 96.276 137.898 96.396C137.706 96.54 137.526 96.66 137.358 96.756C137.214 96.876 137.034 96.936 136.818 96.936C136.65 96.936 136.482 96.9 136.314 96.828C136.074 96.756 135.906 96.588 135.81 96.324C135.714 96.084 135.666 95.796 135.666 95.46C135.666 95.34 135.666 95.22 135.666 95.1C135.69 94.98 135.714 94.848 135.738 94.704C135.786 94.416 135.846 94.08 135.918 93.696C135.99 93.288 136.062 92.916 136.134 92.58C136.23 92.124 136.314 91.764 136.386 91.5C136.458 91.236 136.494 90.972 136.494 90.708C136.494 90.612 136.47 90.564 136.422 90.564C136.326 90.564 136.218 90.648 136.098 90.816C136.002 90.984 135.834 91.224 135.594 91.536C135.234 92.016 134.85 92.472 134.442 92.904C134.034 93.336 133.518 93.828 132.894 94.38C132.318 94.884 131.706 95.352 131.058 95.784C130.41 96.192 129.702 96.396 128.934 96.396C128.214 96.396 127.65 96.12 127.242 95.568C126.858 94.992 126.666 94.344 126.666 93.624C126.666 93.384 126.678 93.108 126.702 92.796C126.75 92.484 126.786 92.16 126.81 91.824C126.858 91.488 126.906 91.176 126.954 90.888C127.002 90.576 127.026 90.324 127.026 90.132C127.074 89.82 127.146 89.412 127.242 88.908C127.338 88.404 127.386 87.984 127.386 87.648L127.566 86.424C127.614 86.184 127.638 85.968 127.638 85.776C127.662 85.56 127.698 85.368 127.746 85.2C127.77 85.104 127.782 85.02 127.782 84.948C127.782 84.852 127.782 84.768 127.782 84.696C127.782 84.504 127.83 84.396 127.926 84.372C128.07 84.252 128.262 84.156 128.502 84.084C128.67 84.012 128.826 83.988 128.97 84.012C129.114 84.012 129.21 83.988 129.258 83.94C129.522 83.94 129.774 84.108 130.014 84.444C130.254 84.78 130.398 85.08 130.446 85.344C130.47 85.416 130.482 85.524 130.482 85.668C130.482 85.788 130.482 85.932 130.482 86.1C130.482 86.508 130.458 86.904 130.41 87.288C130.362 87.672 130.302 88.08 130.23 88.512C130.182 88.704 130.122 88.944 130.05 89.232C130.002 89.52 129.942 89.808 129.87 90.096C129.822 90.384 129.774 90.648 129.726 90.888C129.702 91.104 129.69 91.26 129.69 91.356C129.69 91.5 129.714 91.632 129.762 91.752C129.834 91.848 129.966 91.896 130.158 91.896C130.374 91.896 130.698 91.74 131.13 91.428C131.562 91.116 132.018 90.744 132.498 90.312C133.002 89.856 133.482 89.388 133.938 88.908C134.418 88.404 134.802 87.96 135.09 87.576C135.546 86.976 135.918 86.484 136.206 86.1C136.518 85.716 136.794 85.416 137.034 85.2C137.274 84.96 137.634 84.84 138.114 84.84C138.354 84.84 138.558 84.936 138.726 85.128C138.918 85.32 139.074 85.512 139.194 85.704C139.386 86.016 139.482 86.364 139.482 86.748C139.482 87.108 139.506 87.48 139.554 87.864C139.554 87.96 139.53 88.056 139.482 88.152C139.434 88.248 139.41 88.344 139.41 88.44C139.386 88.704 139.362 89.016 139.338 89.376C139.314 89.736 139.29 90.132 139.266 90.564C139.146 91.86 139.026 92.892 138.906 93.66C138.81 94.404 138.678 95.016 138.51 95.496L138.474 95.64ZM143.426 111.912C143.258 111.576 143.138 111.228 143.066 110.868C143.018 110.508 142.994 110.028 142.994 109.428C142.994 108.804 143.03 108.12 143.102 107.376C143.174 106.632 143.246 105.756 143.318 104.748C143.342 104.34 143.378 103.824 143.426 103.2C143.498 102.576 143.594 101.892 143.714 101.148C143.57 101.148 143.426 101.088 143.282 100.968C143.162 100.872 143.066 100.764 142.994 100.644C142.826 100.308 142.742 100.008 142.742 99.744C142.742 99.48 142.766 99.252 142.814 99.06C142.862 98.868 142.946 98.652 143.066 98.412C143.066 98.244 143.114 98.052 143.21 97.836C143.306 97.644 143.426 97.44 143.57 97.224L144.47 96L144.794 94.092C144.986 93.036 145.238 91.824 145.55 90.456C145.886 89.088 146.294 87.66 146.774 86.172C146.942 85.668 147.158 85.14 147.422 84.588C147.686 84.012 147.986 83.484 148.322 83.004C148.658 82.524 149.018 82.128 149.402 81.816C149.81 81.504 150.23 81.348 150.662 81.348C151.166 81.348 151.61 81.48 151.994 81.744C152.378 82.008 152.702 82.356 152.966 82.788C153.254 83.196 153.47 83.652 153.614 84.156C153.758 84.66 153.83 85.14 153.83 85.596C153.83 86.316 153.722 87.036 153.506 87.756C153.314 88.476 153.062 89.172 152.75 89.844C152.438 90.492 152.102 91.104 151.742 91.68C151.382 92.232 151.046 92.724 150.734 93.156L146.846 98.268C146.822 98.34 146.81 98.436 146.81 98.556C146.738 99.06 146.666 99.6 146.594 100.176C146.546 100.776 146.486 101.34 146.414 101.868C146.366 102.396 146.318 102.852 146.27 103.236C146.246 103.644 146.234 103.92 146.234 104.064C146.114 105.408 146.03 106.524 145.982 107.412C145.958 108.324 145.946 109.044 145.946 109.572C145.946 109.74 145.922 109.932 145.874 110.148C145.826 110.388 145.766 110.616 145.694 110.832C145.622 111.048 145.538 111.252 145.442 111.444C145.37 111.66 145.298 111.828 145.226 111.948C145.058 112.212 144.902 112.38 144.758 112.452C144.614 112.548 144.506 112.596 144.434 112.596C144.218 112.596 144.038 112.548 143.894 112.452C143.774 112.356 143.618 112.176 143.426 111.912ZM148.07 92.112C148.454 91.608 148.826 91.068 149.186 90.492C149.546 89.916 149.858 89.34 150.122 88.764C150.41 88.188 150.626 87.636 150.77 87.108C150.938 86.556 151.022 86.076 151.022 85.668C151.022 85.236 150.878 85.02 150.59 85.02C150.422 85.02 150.254 85.164 150.086 85.452C149.942 85.716 149.786 86.076 149.618 86.532C149.474 86.94 149.33 87.384 149.186 87.864C149.042 88.32 148.898 88.776 148.754 89.232C148.634 89.664 148.526 90.084 148.43 90.492C148.334 90.876 148.262 91.188 148.214 91.428L148.07 92.112ZM164.529 97.008C164.457 97.008 164.361 97.032 164.241 97.08C164.145 97.152 164.049 97.188 163.953 97.188C163.857 97.284 163.761 97.368 163.665 97.44C163.569 97.512 163.413 97.572 163.197 97.62C162.909 97.764 162.597 97.884 162.261 97.98C161.925 98.076 161.541 98.124 161.109 98.124C160.341 98.124 159.681 97.98 159.129 97.692C158.601 97.404 158.169 97.032 157.833 96.576C157.497 96.12 157.245 95.628 157.077 95.1C156.933 94.548 156.861 94.02 156.861 93.516C156.861 93.06 156.885 92.64 156.933 92.256C156.981 91.848 157.065 91.44 157.185 91.032C157.233 90.84 157.281 90.672 157.329 90.528C157.377 90.384 157.437 90.216 157.509 90.024L157.869 89.16C157.893 89.088 157.917 88.992 157.941 88.872C157.989 88.752 158.049 88.632 158.121 88.512C158.217 88.272 158.349 88.032 158.517 87.792C159.021 86.952 159.597 86.304 160.245 85.848C160.893 85.392 161.565 85.164 162.261 85.164C162.285 85.188 162.309 85.2 162.333 85.2C162.381 85.2 162.429 85.212 162.477 85.236C162.525 85.26 162.561 85.272 162.585 85.272C162.633 85.272 162.669 85.284 162.693 85.308C162.741 85.356 162.801 85.38 162.873 85.38C162.873 85.428 162.909 85.5 162.981 85.596C163.413 85.716 163.869 85.98 164.349 86.388C164.853 86.772 165.309 87.24 165.717 87.792C166.125 88.344 166.461 88.968 166.725 89.664C166.989 90.336 167.121 91.02 167.121 91.716C167.121 92.796 166.905 93.78 166.473 94.668C166.041 95.532 165.477 96.252 164.781 96.828L164.529 97.008ZM162.261 88.728C162.213 88.776 162.177 88.8 162.153 88.8C162.105 88.824 162.045 88.848 161.973 88.872C161.925 88.896 161.877 88.908 161.829 88.908C161.709 88.932 161.601 88.944 161.505 88.944C161.409 88.944 161.301 89.004 161.181 89.124C161.037 89.172 160.929 89.244 160.857 89.34C160.785 89.412 160.653 89.592 160.461 89.88C160.125 90.24 159.897 90.732 159.777 91.356C159.657 91.956 159.597 92.532 159.597 93.084C159.597 93.684 159.753 94.152 160.065 94.488C160.377 94.8 160.809 94.956 161.361 94.956C162.273 94.956 163.053 94.692 163.701 94.164C164.373 93.612 164.709 92.796 164.709 91.716C164.709 90.9 164.481 90.204 164.025 89.628C163.593 89.052 163.029 88.728 162.333 88.656L162.261 88.728ZM175.221 108.492C174.741 108.492 174.285 108.396 173.853 108.204C173.421 108.012 173.013 107.76 172.629 107.448C172.245 107.136 171.873 106.788 171.513 106.404C171.177 106.02 170.865 105.636 170.577 105.252C170.361 104.916 170.145 104.58 169.929 104.244C169.713 103.932 169.509 103.62 169.317 103.308C169.269 103.14 169.221 103.008 169.173 102.912C169.125 102.84 169.101 102.744 169.101 102.624C169.077 102.6 169.065 102.528 169.065 102.408C169.065 102.336 169.077 102.276 169.101 102.228C169.125 102.18 169.137 102.132 169.137 102.084C169.137 102.06 169.125 102.024 169.101 101.976C169.101 101.952 169.101 101.916 169.101 101.868C169.101 101.844 169.125 101.784 169.173 101.688C169.221 101.616 169.317 101.556 169.461 101.508C169.629 101.46 169.761 101.436 169.857 101.436L170.037 101.472C170.085 101.472 170.121 101.46 170.145 101.436C170.169 101.436 170.193 101.436 170.217 101.436C170.337 101.388 170.493 101.364 170.685 101.364C171.093 101.364 171.561 101.628 172.089 102.156C172.353 102.42 172.569 102.72 172.737 103.056C172.905 103.416 173.085 103.752 173.277 104.064C173.469 104.4 173.697 104.676 173.961 104.892C174.225 105.132 174.585 105.252 175.041 105.252C175.497 105.252 175.893 105.072 176.229 104.712C176.565 104.352 176.853 103.896 177.093 103.344C177.357 102.792 177.573 102.192 177.741 101.544C177.933 100.896 178.089 100.284 178.209 99.708C178.329 99.18 178.449 98.52 178.569 97.728C178.713 96.936 178.845 96.132 178.965 95.316C179.109 94.476 179.217 93.684 179.289 92.94C179.385 92.196 179.445 91.584 179.469 91.104C179.373 90.912 179.265 90.816 179.145 90.816C179.025 90.816 178.869 90.876 178.677 90.996C178.509 91.092 178.185 91.332 177.705 91.716C177.489 91.908 177.201 92.112 176.841 92.328C176.481 92.544 176.085 92.76 175.653 92.976C175.245 93.168 174.825 93.336 174.393 93.48C173.985 93.6 173.613 93.66 173.277 93.66C172.749 93.66 172.305 93.552 171.945 93.336C171.585 93.096 171.285 92.808 171.045 92.472C170.829 92.112 170.673 91.716 170.577 91.284C170.481 90.852 170.433 90.42 170.433 89.988C170.433 88.884 170.733 87.792 171.333 86.712C171.645 86.112 172.101 85.536 172.701 84.984C173.301 84.432 174.009 84.156 174.825 84.156C175.689 84.156 176.481 84.372 177.201 84.804C178.017 85.38 178.497 86.184 178.641 87.216C178.689 87.336 178.701 87.444 178.677 87.54C178.677 87.612 178.701 87.672 178.749 87.72L179.181 87.432C179.301 87.312 179.493 87.192 179.757 87.072C180.045 86.952 180.345 86.892 180.657 86.892C180.801 86.892 181.041 86.988 181.377 87.18C181.737 87.348 181.977 87.552 182.097 87.792C182.145 87.912 182.205 88.08 182.277 88.296C182.349 88.512 182.385 88.716 182.385 88.908C182.409 89.028 182.421 89.124 182.421 89.196C182.445 89.268 182.457 89.328 182.457 89.376V89.556C182.409 89.868 182.337 90.648 182.241 91.896C182.169 93.12 182.001 94.584 181.737 96.288C181.569 97.488 181.377 98.58 181.161 99.564C180.969 100.572 180.777 101.412 180.585 102.084C180.393 102.732 180.141 103.428 179.829 104.172C179.541 104.916 179.169 105.612 178.713 106.26C178.281 106.908 177.777 107.436 177.201 107.844C176.625 108.276 175.965 108.492 175.221 108.492ZM173.709 90.348C174.261 90.348 174.801 90.192 175.329 89.88C175.881 89.568 176.325 89.244 176.661 88.908V88.836C176.661 88.812 176.661 88.788 176.661 88.764C176.685 88.74 176.697 88.704 176.697 88.656C176.697 88.416 176.601 88.164 176.409 87.9C176.337 87.804 176.229 87.756 176.085 87.756C175.245 87.756 174.597 88.008 174.141 88.512C173.685 89.016 173.421 89.544 173.349 90.096C173.349 90.264 173.469 90.348 173.709 90.348ZM194.53 96.396C194.506 96.204 194.494 95.964 194.494 95.676C194.494 95.364 194.494 95.088 194.494 94.848C194.494 94.632 194.458 94.5 194.386 94.452C194.338 94.38 194.29 94.344 194.242 94.344C194.146 94.344 194.062 94.38 193.99 94.452C193.918 94.524 193.834 94.608 193.738 94.704C193.522 94.92 193.21 95.172 192.802 95.46C192.418 95.748 191.998 96.012 191.542 96.252C191.086 96.516 190.606 96.732 190.102 96.9C189.598 97.068 189.13 97.152 188.698 97.152C188.266 97.152 187.882 97.056 187.546 96.864C187.234 96.672 186.958 96.408 186.718 96.072C186.502 95.76 186.334 95.4 186.214 94.992C186.118 94.584 186.07 94.152 186.07 93.696C186.07 93.288 186.106 92.88 186.178 92.472C186.25 92.208 186.334 91.92 186.43 91.608C186.55 91.272 186.706 90.912 186.898 90.528C186.922 90.48 186.958 90.408 187.006 90.312C187.078 90.216 187.138 90.12 187.186 90.024C187.258 89.928 187.33 89.82 187.402 89.7C187.762 89.1 188.242 88.5 188.842 87.9C189.442 87.3 190.09 86.76 190.786 86.28C191.506 85.776 192.214 85.38 192.91 85.092C193.606 84.78 194.218 84.624 194.746 84.624C195.106 84.624 195.442 84.66 195.754 84.732C196.09 84.804 196.414 84.972 196.726 85.236C196.918 85.404 197.086 85.62 197.23 85.884C197.398 86.124 197.482 86.388 197.482 86.676C197.482 86.796 197.446 86.928 197.374 87.072C197.326 88.008 197.278 88.872 197.23 89.664C197.182 90.36 197.146 91.044 197.122 91.716C197.122 92.364 197.122 92.856 197.122 93.192C197.122 93.936 197.146 94.608 197.194 95.208C197.266 95.808 197.338 96.24 197.41 96.504C197.41 96.696 197.398 96.864 197.374 97.008C197.374 97.152 197.338 97.284 197.266 97.404C197.218 97.5 197.158 97.596 197.086 97.692C197.014 97.788 196.918 97.872 196.798 97.944C196.702 97.992 196.618 98.016 196.546 98.016C196.45 98.016 196.366 98.004 196.294 97.98C196.222 97.956 196.138 97.944 196.042 97.944C195.874 97.968 195.79 98.004 195.79 98.052C195.262 98.052 194.95 97.896 194.854 97.584C194.758 97.272 194.65 96.876 194.53 96.396ZM195.142 88.404C195.046 88.404 194.962 88.368 194.89 88.296C194.794 88.248 194.722 88.2 194.674 88.152C194.65 88.08 194.602 88.02 194.53 87.972C194.194 87.972 193.702 88.2 193.054 88.656C192.43 89.088 191.794 89.616 191.146 90.24C190.498 90.84 189.934 91.464 189.454 92.112C188.974 92.76 188.734 93.3 188.734 93.732C188.734 94.02 188.866 94.164 189.13 94.164C189.274 94.164 189.49 94.116 189.778 94.02C190.09 93.9 190.45 93.708 190.858 93.444C191.17 93.252 191.518 93.024 191.902 92.76C192.31 92.496 192.706 92.208 193.09 91.896C193.498 91.56 193.87 91.212 194.206 90.852C194.542 90.468 194.806 90.06 194.998 89.628C195.046 89.316 195.082 89.1 195.106 88.98C195.13 88.836 195.142 88.644 195.142 88.404ZM75.3505 148.64C75.3025 148.76 75.2305 148.88 75.1345 149C75.0385 149.144 74.9185 149.276 74.7745 149.396C74.5825 149.54 74.4025 149.66 74.2345 149.756C74.0905 149.876 73.9105 149.936 73.6945 149.936C73.5265 149.936 73.3585 149.9 73.1905 149.828C72.9505 149.756 72.7825 149.588 72.6865 149.324C72.5905 149.084 72.5425 148.796 72.5425 148.46C72.5425 148.34 72.5425 148.22 72.5425 148.1C72.5665 147.98 72.5905 147.848 72.6145 147.704C72.6625 147.416 72.7225 147.08 72.7945 146.696C72.8665 146.288 72.9385 145.916 73.0105 145.58C73.1065 145.124 73.1905 144.764 73.2625 144.5C73.3345 144.236 73.3705 143.972 73.3705 143.708C73.3705 143.612 73.3465 143.564 73.2985 143.564C73.2025 143.564 73.0945 143.648 72.9745 143.816C72.8785 143.984 72.7105 144.224 72.4705 144.536C72.1105 145.016 71.7265 145.472 71.3185 145.904C70.9105 146.336 70.3945 146.828 69.7705 147.38C69.1945 147.884 68.5825 148.352 67.9345 148.784C67.2865 149.192 66.5785 149.396 65.8105 149.396C65.0905 149.396 64.5265 149.12 64.1185 148.568C63.7345 147.992 63.5425 147.344 63.5425 146.624C63.5425 146.384 63.5545 146.108 63.5785 145.796C63.6265 145.484 63.6625 145.16 63.6865 144.824C63.7345 144.488 63.7825 144.176 63.8305 143.888C63.8785 143.576 63.9025 143.324 63.9025 143.132C63.9505 142.82 64.0225 142.412 64.1185 141.908C64.2145 141.404 64.2625 140.984 64.2625 140.648L64.4425 139.424C64.4905 139.184 64.5145 138.968 64.5145 138.776C64.5385 138.56 64.5745 138.368 64.6225 138.2C64.6465 138.104 64.6585 138.02 64.6585 137.948C64.6585 137.852 64.6585 137.768 64.6585 137.696C64.6585 137.504 64.7065 137.396 64.8025 137.372C64.9465 137.252 65.1385 137.156 65.3785 137.084C65.5465 137.012 65.7025 136.988 65.8465 137.012C65.9905 137.012 66.0865 136.988 66.1345 136.94C66.3985 136.94 66.6505 137.108 66.8905 137.444C67.1305 137.78 67.2745 138.08 67.3225 138.344C67.3465 138.416 67.3585 138.524 67.3585 138.668C67.3585 138.788 67.3585 138.932 67.3585 139.1C67.3585 139.508 67.3345 139.904 67.2865 140.288C67.2385 140.672 67.1785 141.08 67.1065 141.512C67.0585 141.704 66.9985 141.944 66.9265 142.232C66.8785 142.52 66.8185 142.808 66.7465 143.096C66.6985 143.384 66.6505 143.648 66.6025 143.888C66.5785 144.104 66.5665 144.26 66.5665 144.356C66.5665 144.5 66.5905 144.632 66.6385 144.752C66.7105 144.848 66.8425 144.896 67.0345 144.896C67.2505 144.896 67.5745 144.74 68.0065 144.428C68.4385 144.116 68.8945 143.744 69.3745 143.312C69.8785 142.856 70.3585 142.388 70.8145 141.908C71.2945 141.404 71.6785 140.96 71.9665 140.576C72.4225 139.976 72.7945 139.484 73.0825 139.1C73.3945 138.716 73.6705 138.416 73.9105 138.2C74.1505 137.96 74.5105 137.84 74.9905 137.84C75.2305 137.84 75.4345 137.936 75.6025 138.128C75.7945 138.32 75.9505 138.512 76.0705 138.704C76.2625 139.016 76.3585 139.364 76.3585 139.748C76.3585 140.108 76.3825 140.48 76.4305 140.864C76.4305 140.96 76.4065 141.056 76.3585 141.152C76.3105 141.248 76.2865 141.344 76.2865 141.44C76.2625 141.704 76.2385 142.016 76.2145 142.376C76.1905 142.736 76.1665 143.132 76.1425 143.564C76.0225 144.86 75.9025 145.892 75.7825 146.66C75.6865 147.404 75.5545 148.016 75.3865 148.496L75.3505 148.64ZM108.019 144.284C107.731 144.692 107.479 145.04 107.263 145.328C107.071 145.616 106.891 145.88 106.723 146.12C106.555 146.36 106.387 146.588 106.219 146.804C106.075 147.02 105.907 147.272 105.715 147.56V147.848C105.715 148.328 105.643 148.796 105.499 149.252C105.379 149.732 105.079 149.984 104.599 150.008C104.479 150.008 104.407 150.02 104.383 150.044C104.383 150.092 104.287 150.116 104.095 150.116C103.975 150.116 103.879 150.104 103.807 150.08C103.735 150.056 103.639 150.044 103.519 150.044C103.327 150.044 103.171 149.972 103.051 149.828C102.955 149.708 102.871 149.552 102.799 149.36C102.751 149.168 102.715 148.976 102.691 148.784C102.691 148.568 102.691 148.4 102.691 148.28C102.691 147.8 102.715 147.32 102.763 146.84C102.811 146.36 102.859 145.724 102.907 144.932C102.931 144.644 102.943 144.296 102.943 143.888C102.943 143.48 102.955 143.168 102.979 142.952L99.6666 148.064C99.1626 148.832 98.5866 149.36 97.9386 149.648C97.2906 149.936 96.4746 150.08 95.4906 150.08H94.6266C94.4346 150.08 94.2906 150.044 94.1946 149.972C94.0986 149.9 94.0266 149.72 93.9786 149.432C93.8826 149.384 93.8226 149.3 93.7986 149.18C93.7746 149.084 93.7626 149.012 93.7626 148.964C93.7626 148.868 93.7746 148.772 93.7986 148.676C93.8226 148.58 93.8346 148.412 93.8346 148.172C93.8346 148.124 93.8466 148.04 93.8706 147.92C93.8946 147.8 93.9546 147.728 94.0506 147.704C94.0506 147.44 94.1586 147.248 94.3746 147.128C94.5906 147.008 94.8666 146.948 95.2026 146.948C95.8746 146.948 96.3906 146.816 96.7506 146.552C97.1346 146.288 97.4106 145.94 97.5786 145.508C97.7706 145.076 97.8906 144.584 97.9386 144.032C97.9866 143.48 98.0106 142.904 98.0106 142.304C98.0106 141.248 97.8546 140.432 97.5426 139.856C97.2546 139.256 96.6906 138.956 95.8506 138.956C95.7306 138.956 95.5626 138.956 95.3466 138.956C95.1546 138.932 94.9986 138.896 94.8786 138.848C94.5426 138.704 94.3746 138.416 94.3746 137.984C94.3746 137.84 94.3986 137.732 94.4466 137.66C94.4946 137.588 94.5186 137.456 94.5186 137.264C94.5186 137.168 94.4946 137.096 94.4466 137.048C94.4226 137 94.4106 136.952 94.4106 136.904C94.4106 136.856 94.4466 136.796 94.5186 136.724C94.6146 136.652 94.6506 136.52 94.6266 136.328C94.6266 136.136 94.7226 136.04 94.9146 136.04H95.3466C96.1386 136.04 96.8706 136.136 97.5426 136.328C98.2146 136.496 98.7906 136.82 99.2706 137.3C99.7506 137.756 100.123 138.38 100.387 139.172C100.675 139.964 100.819 140.96 100.819 142.16C101.299 141.584 101.695 141.056 102.007 140.576C102.343 140.096 102.727 139.496 103.159 138.776V137.3C103.159 137.228 103.171 137.12 103.195 136.976C103.243 136.832 103.291 136.688 103.339 136.544C103.387 136.376 103.447 136.232 103.519 136.112C103.615 135.992 103.711 135.932 103.807 135.932C103.831 135.932 103.855 135.944 103.879 135.968C103.927 135.968 103.963 135.968 103.987 135.968C104.035 135.968 104.095 135.932 104.167 135.86H104.383C104.407 135.86 104.419 135.86 104.419 135.86C104.443 135.836 104.479 135.824 104.527 135.824C104.671 135.848 104.839 135.872 105.031 135.896C105.223 135.92 105.355 135.992 105.427 136.112L105.715 136.256C105.811 136.304 105.895 136.436 105.967 136.652C106.039 136.868 106.075 137.228 106.075 137.732C106.075 138.74 106.039 139.724 105.967 140.684C105.895 141.644 105.835 142.604 105.787 143.564C106.315 142.796 106.819 142.028 107.299 141.26C107.803 140.468 108.295 139.676 108.775 138.884C109.135 138.308 109.507 137.84 109.891 137.48C110.299 137.096 110.731 136.796 111.187 136.58C111.643 136.364 112.111 136.22 112.591 136.148C113.071 136.076 113.575 136.04 114.103 136.04H114.535C114.727 136.04 114.823 136.1 114.823 136.22C114.823 136.268 114.811 136.328 114.787 136.4C114.763 136.472 114.751 136.532 114.751 136.58C114.751 136.676 114.727 136.736 114.679 136.76C114.655 136.76 114.643 136.784 114.643 136.832C114.643 136.856 114.679 136.892 114.751 136.94C114.823 136.964 114.859 137.012 114.859 137.084C114.859 137.108 114.835 137.12 114.787 137.12C114.763 137.12 114.751 137.144 114.751 137.192C114.751 137.216 114.763 137.252 114.787 137.3C114.835 137.348 114.871 137.396 114.895 137.444C114.943 137.54 114.967 137.636 114.967 137.732C114.967 137.78 114.955 137.864 114.931 137.984C114.907 138.08 114.895 138.176 114.895 138.272C114.871 138.584 114.775 138.788 114.607 138.884C114.463 138.956 114.271 138.992 114.031 138.992C113.911 138.992 113.791 138.992 113.671 138.992C113.551 138.968 113.419 138.956 113.275 138.956C112.267 138.956 111.595 139.4 111.259 140.288C110.947 141.176 110.791 142.376 110.791 143.888C110.791 144.752 110.947 145.484 111.259 146.084C111.595 146.66 112.279 146.948 113.311 146.948C113.623 146.948 113.875 146.984 114.067 147.056C114.283 147.128 114.391 147.272 114.391 147.488C114.391 147.728 114.403 147.896 114.427 147.992C114.451 148.088 114.463 148.268 114.463 148.532C114.463 148.676 114.451 148.796 114.427 148.892C114.403 148.988 114.391 149.072 114.391 149.144C114.391 149.312 114.331 149.432 114.211 149.504C114.091 149.552 114.019 149.66 113.995 149.828C113.995 149.9 113.947 149.96 113.851 150.008C113.779 150.056 113.683 150.08 113.563 150.08H112.699C111.091 150.08 109.903 149.636 109.135 148.748C108.391 147.86 108.019 146.372 108.019 144.284ZM127.941 150.044C127.437 150.044 127.017 149.912 126.681 149.648C126.345 149.408 126.069 149.108 125.853 148.748C125.661 148.388 125.517 148.016 125.421 147.632C125.325 147.224 125.265 146.876 125.241 146.588C125.193 146.516 125.145 146.48 125.097 146.48C125.001 146.48 124.881 146.564 124.737 146.732C124.593 146.924 124.425 147.164 124.233 147.452C124.041 147.716 123.777 148.052 123.441 148.46C122.985 149.012 122.433 149.492 121.785 149.9C121.137 150.332 120.537 150.548 119.985 150.548C119.289 150.548 118.689 150.224 118.185 149.576C117.681 148.928 117.429 148.028 117.429 146.876C117.429 146.3 117.465 145.748 117.537 145.22C117.609 144.668 117.693 144.152 117.789 143.672C117.885 143.192 117.945 142.688 117.969 142.16C117.993 141.632 118.017 141.056 118.041 140.432C118.041 140.24 118.041 140.06 118.041 139.892C118.065 139.724 118.077 139.58 118.077 139.46C118.077 139.412 118.065 139.376 118.041 139.352C118.017 139.328 117.993 139.292 117.969 139.244C117.945 139.196 117.933 139.136 117.933 139.064C117.933 138.992 117.921 138.908 117.897 138.812C117.897 138.74 117.897 138.68 117.897 138.632C117.921 138.56 117.933 138.488 117.933 138.416C117.981 138.08 118.125 137.804 118.365 137.588C118.605 137.348 118.869 137.228 119.157 137.228C119.493 137.228 119.805 137.336 120.093 137.552C120.405 137.768 120.657 138.044 120.849 138.38C121.017 138.644 121.125 138.92 121.173 139.208C121.245 139.472 121.281 139.736 121.281 140C121.281 140.24 121.269 140.42 121.245 140.54V140.936C121.245 141.128 121.233 141.344 121.209 141.584C121.209 141.824 121.197 142.076 121.173 142.34C121.149 142.58 121.125 142.82 121.101 143.06C121.077 143.276 121.053 143.444 121.029 143.564C120.981 143.756 120.921 143.996 120.849 144.284C120.801 144.572 120.741 144.86 120.669 145.148C120.621 145.412 120.573 145.652 120.525 145.868C120.477 146.084 120.453 146.228 120.453 146.3C120.453 146.492 120.489 146.624 120.561 146.696C120.657 146.768 120.765 146.816 120.885 146.84C121.101 146.84 121.425 146.684 121.857 146.372C122.313 146.036 122.769 145.604 123.225 145.076C123.705 144.548 124.137 143.948 124.521 143.276C124.929 142.58 125.217 141.884 125.385 141.188C125.577 140.42 125.769 139.904 125.961 139.64C126.153 139.352 126.345 139.208 126.537 139.208C127.017 139.208 127.473 139.412 127.905 139.82C128.361 140.228 128.589 140.828 128.589 141.62C128.589 142.028 128.541 142.448 128.445 142.88C128.373 143.312 128.313 143.684 128.265 143.996C128.217 144.26 128.181 144.536 128.157 144.824C128.133 145.112 128.121 145.424 128.121 145.76C128.121 145.952 128.121 146.156 128.121 146.372C128.145 146.588 128.193 146.744 128.265 146.84C128.313 146.84 128.409 146.816 128.553 146.768C128.769 146.672 129.033 146.624 129.345 146.624C129.513 146.624 129.729 146.708 129.993 146.876L130.173 147.056C130.221 147.104 130.269 147.176 130.317 147.272V147.848C130.293 148.088 130.233 148.34 130.137 148.604C130.041 148.844 129.897 149.072 129.705 149.288C129.537 149.504 129.297 149.684 128.985 149.828C128.697 149.972 128.349 150.044 127.941 150.044ZM139.362 150.152C138.186 150.152 137.19 149.852 136.374 149.252C136.158 149.084 135.99 148.976 135.87 148.928C135.798 148.88 135.738 148.808 135.69 148.712C135.666 148.616 135.63 148.544 135.582 148.496C135.582 148.424 135.546 148.352 135.474 148.28C135.426 148.184 135.378 148.088 135.33 147.992C135.234 147.872 135.138 147.752 135.042 147.632C134.946 147.488 134.874 147.344 134.826 147.2C134.562 146.648 134.37 146.024 134.25 145.328C134.154 144.632 134.106 143.9 134.106 143.132C134.106 142.484 134.142 141.824 134.214 141.152C134.31 140.48 134.418 139.82 134.538 139.172H134.178C134.082 139.172 134.01 139.172 133.962 139.172C133.914 139.148 133.854 139.124 133.782 139.1C133.71 139.052 133.65 138.98 133.602 138.884C133.554 138.764 133.47 138.68 133.35 138.632C133.326 138.536 133.314 138.44 133.314 138.344C133.338 138.224 133.326 138.128 133.278 138.056C133.326 138.008 133.35 137.888 133.35 137.696C133.35 137.504 133.374 137.396 133.422 137.372C133.47 137.3 133.542 137.24 133.638 137.192C133.758 137.12 133.842 137.024 133.89 136.904C133.914 136.856 133.95 136.82 133.998 136.796C134.07 136.748 134.118 136.7 134.142 136.652C134.214 136.628 134.322 136.604 134.466 136.58C134.634 136.532 134.838 136.508 135.078 136.508C135.318 135.644 135.642 134.66 136.05 133.556C136.482 132.452 136.998 131.408 137.598 130.424C138.198 129.44 138.894 128.612 139.686 127.94C140.478 127.244 141.39 126.896 142.422 126.896C143.19 126.896 143.778 127.004 144.186 127.22C144.618 127.436 145.002 127.784 145.338 128.264L145.734 128.768C145.758 128.84 145.806 129.008 145.878 129.272C145.95 129.512 146.01 129.668 146.058 129.74C146.154 130.004 146.226 130.256 146.274 130.496C146.346 130.736 146.382 130.988 146.382 131.252C146.382 131.9 146.25 132.644 145.986 133.484C145.722 134.3 145.29 135.092 144.69 135.86C144.114 136.628 143.346 137.312 142.386 137.912C141.45 138.488 140.298 138.86 138.93 139.028L137.454 139.208C137.43 139.4 137.394 139.604 137.346 139.82C137.298 140.012 137.262 140.228 137.238 140.468C137.214 140.684 137.19 140.924 137.166 141.188L137.49 140.972C137.538 140.924 137.61 140.864 137.706 140.792C137.802 140.72 137.91 140.66 138.03 140.612C138.15 140.564 138.234 140.54 138.282 140.54C138.33 140.516 138.354 140.468 138.354 140.396C138.45 140.348 138.558 140.312 138.678 140.288C138.798 140.24 138.918 140.192 139.038 140.144C139.398 140 139.794 139.88 140.226 139.784C140.682 139.664 141.15 139.604 141.63 139.604C142.326 139.604 142.914 139.712 143.394 139.928C143.898 140.144 144.306 140.444 144.618 140.828C144.93 141.188 145.158 141.62 145.302 142.124C145.446 142.604 145.518 143.12 145.518 143.672C145.518 144.656 145.362 145.544 145.05 146.336C144.762 147.128 144.342 147.812 143.79 148.388C143.262 148.94 142.614 149.372 141.846 149.684C141.102 149.996 140.274 150.152 139.362 150.152ZM139.83 147.2C140.694 147.2 141.366 146.9 141.846 146.3C142.35 145.676 142.602 144.968 142.602 144.176C142.602 143.672 142.446 143.264 142.134 142.952C141.822 142.64 141.426 142.484 140.946 142.484C140.61 142.484 140.286 142.532 139.974 142.628C139.686 142.724 139.422 142.832 139.182 142.952L139.074 143.06C139.05 143.084 139.026 143.096 139.002 143.096H138.966C138.942 143.096 138.93 143.108 138.93 143.132C138.93 143.132 138.918 143.132 138.894 143.132C138.894 143.18 138.87 143.216 138.822 143.24C138.798 143.24 138.762 143.264 138.714 143.312C138.69 143.36 138.63 143.396 138.534 143.42C138.462 143.444 138.366 143.516 138.246 143.636C138.222 143.684 138.174 143.744 138.102 143.816C138.054 143.888 137.934 143.948 137.742 143.996C137.694 144.044 137.658 144.092 137.634 144.14C137.61 144.164 137.574 144.188 137.526 144.212L137.238 144.68C137.262 145.352 137.49 145.94 137.922 146.444C138.354 146.948 138.99 147.2 139.83 147.2ZM139.362 136.22C139.866 136.148 140.346 135.968 140.802 135.68C141.282 135.392 141.69 135.044 142.026 134.636C142.386 134.204 142.662 133.736 142.854 133.232C143.07 132.704 143.178 132.176 143.178 131.648C143.178 131.24 143.058 130.904 142.818 130.64C142.578 130.352 142.266 130.208 141.882 130.208C141.474 130.208 141.078 130.412 140.694 130.82C140.31 131.204 139.95 131.696 139.614 132.296C139.278 132.896 138.978 133.556 138.714 134.276C138.45 134.996 138.246 135.68 138.102 136.328C138.198 136.328 138.378 136.328 138.642 136.328C138.93 136.304 139.17 136.268 139.362 136.22ZM156.812 150.008C156.74 150.008 156.644 150.032 156.524 150.08C156.428 150.152 156.332 150.188 156.236 150.188C156.14 150.284 156.044 150.368 155.948 150.44C155.852 150.512 155.696 150.572 155.48 150.62C155.192 150.764 154.88 150.884 154.544 150.98C154.208 151.076 153.824 151.124 153.392 151.124C152.624 151.124 151.964 150.98 151.412 150.692C150.884 150.404 150.452 150.032 150.116 149.576C149.78 149.12 149.528 148.628 149.36 148.1C149.216 147.548 149.144 147.02 149.144 146.516C149.144 146.06 149.168 145.64 149.216 145.256C149.264 144.848 149.348 144.44 149.468 144.032C149.516 143.84 149.564 143.672 149.612 143.528C149.66 143.384 149.72 143.216 149.792 143.024L150.152 142.16C150.176 142.088 150.2 141.992 150.224 141.872C150.272 141.752 150.332 141.632 150.404 141.512C150.5 141.272 150.632 141.032 150.8 140.792C151.304 139.952 151.88 139.304 152.528 138.848C153.176 138.392 153.848 138.164 154.544 138.164C154.568 138.188 154.592 138.2 154.616 138.2C154.664 138.2 154.712 138.212 154.76 138.236C154.808 138.26 154.844 138.272 154.868 138.272C154.916 138.272 154.952 138.284 154.976 138.308C155.024 138.356 155.084 138.38 155.156 138.38C155.156 138.428 155.192 138.5 155.264 138.596C155.696 138.716 156.152 138.98 156.632 139.388C157.136 139.772 157.592 140.24 158 140.792C158.408 141.344 158.744 141.968 159.008 142.664C159.272 143.336 159.404 144.02 159.404 144.716C159.404 145.796 159.188 146.78 158.756 147.668C158.324 148.532 157.76 149.252 157.064 149.828L156.812 150.008ZM154.544 141.728C154.496 141.776 154.46 141.8 154.436 141.8C154.388 141.824 154.328 141.848 154.256 141.872C154.208 141.896 154.16 141.908 154.112 141.908C153.992 141.932 153.884 141.944 153.788 141.944C153.692 141.944 153.584 142.004 153.464 142.124C153.32 142.172 153.212 142.244 153.14 142.34C153.068 142.412 152.936 142.592 152.744 142.88C152.408 143.24 152.18 143.732 152.06 144.356C151.94 144.956 151.88 145.532 151.88 146.084C151.88 146.684 152.036 147.152 152.348 147.488C152.66 147.8 153.092 147.956 153.644 147.956C154.556 147.956 155.336 147.692 155.984 147.164C156.656 146.612 156.992 145.796 156.992 144.716C156.992 143.9 156.764 143.204 156.308 142.628C155.876 142.052 155.312 141.728 154.616 141.656L154.544 141.728ZM167.48 150.98C167.288 150.98 167.108 150.968 166.94 150.944C166.772 150.944 166.628 150.92 166.508 150.872C166.388 150.824 166.28 150.788 166.184 150.764C166.112 150.74 166.052 150.668 166.004 150.548C165.956 150.428 165.92 150.248 165.896 150.008C165.872 149.792 165.86 149.576 165.86 149.36C165.86 148.832 165.872 148.388 165.896 148.028C165.944 147.644 165.992 147.308 166.04 147.02C166.088 146.732 166.124 146.468 166.148 146.228C166.196 145.988 166.22 145.724 166.22 145.436C166.22 144.476 166.22 143.696 166.22 143.096C166.22 142.472 166.22 141.956 166.22 141.548C166.244 141.116 166.268 140.756 166.292 140.468C166.316 140.156 166.34 139.832 166.364 139.496L163.556 139.748C163.292 139.772 162.98 139.808 162.62 139.856C162.284 139.904 162.044 139.928 161.9 139.928C161.732 139.928 161.6 139.892 161.504 139.82C161.432 139.772 161.372 139.712 161.324 139.64C161.276 139.568 161.228 139.508 161.18 139.46C161.084 139.364 161.024 139.244 161 139.1C160.976 138.956 160.964 138.812 160.964 138.668C160.94 138.572 160.916 138.5 160.892 138.452C160.892 138.404 160.892 138.344 160.892 138.272C160.892 138.104 160.94 137.948 161.036 137.804C161.084 137.732 161.108 137.66 161.108 137.588C161.132 137.516 161.168 137.456 161.216 137.408C161.504 137.288 161.828 137.204 162.188 137.156C162.548 137.084 162.896 137.024 163.232 136.976C163.52 136.928 163.844 136.88 164.204 136.832C164.564 136.784 164.912 136.736 165.248 136.688C165.608 136.64 165.932 136.604 166.22 136.58C166.508 136.556 166.736 136.532 166.904 136.508C168.392 136.364 169.544 136.256 170.36 136.184C171.2 136.112 171.812 136.064 172.196 136.04C172.604 135.992 172.856 135.968 172.952 135.968C173.048 135.944 173.108 135.932 173.132 135.932C173.252 135.932 173.36 135.944 173.456 135.968C173.552 135.968 173.66 135.968 173.78 135.968C173.876 135.968 173.936 136.028 173.96 136.148C174.008 136.244 174.068 136.352 174.14 136.472C174.212 136.592 174.272 136.688 174.32 136.76C174.392 136.808 174.428 136.868 174.428 136.94C174.428 137.036 174.416 137.12 174.392 137.192C174.368 137.264 174.356 137.36 174.356 137.48C174.356 137.552 174.356 137.648 174.356 137.768C174.38 137.864 174.392 137.948 174.392 138.02C174.392 138.188 174.296 138.332 174.104 138.452C174.008 138.5 173.948 138.572 173.924 138.668C173.9 138.74 173.828 138.8 173.708 138.848C173.348 139.016 172.748 139.1 171.908 139.1C171.452 139.1 170.996 139.112 170.54 139.136C170.084 139.16 169.652 139.196 169.244 139.244C169.22 139.388 169.208 139.604 169.208 139.892C169.208 140.18 169.196 140.6 169.172 141.152L169.1 142.412C169.076 142.628 169.052 142.916 169.028 143.276C169.004 143.636 168.98 144.032 168.956 144.464C168.932 144.872 168.908 145.28 168.884 145.688C168.884 146.096 168.884 146.444 168.884 146.732C168.884 146.996 168.884 147.32 168.884 147.704C168.908 148.064 168.92 148.484 168.92 148.964C168.92 149.204 168.908 149.444 168.884 149.684C168.86 149.924 168.812 150.128 168.74 150.296C168.692 150.368 168.656 150.428 168.632 150.476C168.632 150.548 168.608 150.608 168.56 150.656C168.536 150.68 168.428 150.716 168.236 150.764C168.188 150.788 168.128 150.812 168.056 150.836C168.008 150.884 167.96 150.908 167.912 150.908C167.864 150.908 167.792 150.92 167.696 150.944C167.624 150.968 167.552 150.98 167.48 150.98ZM185.891 150.512C185.411 150.512 185.171 150.068 185.171 149.18C185.171 148.964 185.171 148.724 185.171 148.46C185.195 148.196 185.243 147.92 185.315 147.632C185.363 147.368 185.411 147.116 185.459 146.876C185.507 146.636 185.543 146.288 185.567 145.832C185.567 145.496 185.567 145.184 185.567 144.896C185.567 144.584 185.579 144.296 185.603 144.032C185.243 144.056 184.847 144.08 184.415 144.104C184.007 144.104 183.623 144.116 183.263 144.14C182.903 144.14 182.579 144.152 182.291 144.176C182.027 144.176 181.859 144.176 181.787 144.176C181.643 144.2 181.439 144.224 181.175 144.248C180.911 144.248 180.611 144.248 180.275 144.248V144.5C180.275 144.692 180.275 144.968 180.275 145.328C180.299 145.688 180.311 146.072 180.311 146.48C180.311 146.576 180.311 146.732 180.311 146.948C180.311 147.164 180.287 147.68 180.239 148.496C180.239 149.024 180.167 149.444 180.023 149.756C179.999 149.804 179.951 149.852 179.879 149.9C179.831 149.948 179.795 149.996 179.771 150.044C179.723 150.092 179.687 150.152 179.663 150.224C179.663 150.296 179.639 150.356 179.591 150.404C179.399 150.548 179.147 150.62 178.835 150.62C178.715 150.62 178.595 150.608 178.475 150.584C178.355 150.584 178.247 150.584 178.151 150.584C177.743 150.584 177.491 150.476 177.395 150.26C177.323 150.068 177.287 149.624 177.287 148.928C177.287 148.808 177.287 148.616 177.287 148.352C177.311 148.064 177.335 147.86 177.359 147.74C177.431 147.068 177.479 146.54 177.503 146.156C177.527 145.748 177.539 145.304 177.539 144.824V144.32C177.419 144.344 177.311 144.356 177.215 144.356C177.119 144.356 177.023 144.356 176.927 144.356C176.831 144.356 176.735 144.368 176.639 144.392C176.615 144.344 176.555 144.296 176.459 144.248C176.387 144.2 176.351 144.08 176.351 143.888C176.351 143.72 176.327 143.588 176.279 143.492C176.255 143.372 176.243 143.252 176.243 143.132C176.243 142.94 176.291 142.76 176.387 142.592C176.483 142.4 176.591 142.244 176.711 142.124C176.831 142.004 176.963 141.932 177.107 141.908C177.275 141.86 177.431 141.824 177.575 141.8C177.599 141.2 177.623 140.564 177.647 139.892C177.695 139.196 177.743 138.476 177.791 137.732C177.839 137.324 177.875 136.964 177.899 136.652C177.947 136.34 178.067 136.088 178.259 135.896C178.403 135.776 178.535 135.692 178.655 135.644C178.775 135.596 178.967 135.572 179.231 135.572C179.831 135.572 180.227 135.728 180.419 136.04C180.635 136.328 180.743 136.796 180.743 137.444C180.743 137.612 180.731 137.78 180.707 137.948C180.683 138.116 180.647 138.296 180.599 138.488C180.575 138.656 180.563 138.848 180.563 139.064C180.563 139.256 180.551 139.46 180.527 139.676C180.527 139.892 180.527 140.108 180.527 140.324L180.455 141.656C180.671 141.656 180.839 141.644 180.959 141.62L185.747 141.332V140.972C185.747 140.78 185.747 140.588 185.747 140.396C185.771 140.204 185.783 140.012 185.783 139.82L185.675 137.84C185.699 137.312 185.783 136.88 185.927 136.544C186.071 136.184 186.335 135.944 186.719 135.824C186.743 135.824 186.803 135.812 186.899 135.788C186.947 135.788 187.019 135.788 187.115 135.788C187.235 135.764 187.355 135.752 187.475 135.752C187.619 135.752 187.751 135.764 187.871 135.788C187.991 135.812 188.135 135.872 188.303 135.968C188.495 136.088 188.591 136.232 188.591 136.4C188.591 136.448 188.603 136.496 188.627 136.544C188.675 136.592 188.699 136.64 188.699 136.688C188.699 136.832 188.723 136.94 188.771 137.012C188.819 137.06 188.843 137.156 188.843 137.3C188.843 137.348 188.831 137.408 188.807 137.48C188.807 137.552 188.807 137.612 188.807 137.66C188.831 137.684 188.843 137.78 188.843 137.948C188.843 138.068 188.831 138.176 188.807 138.272C188.807 138.368 188.795 138.476 188.771 138.596C188.723 138.932 188.663 139.376 188.591 139.928C188.519 140.456 188.459 140.96 188.411 141.44C188.363 142.088 188.315 143.012 188.267 144.212C188.219 145.412 188.195 146.804 188.195 148.388C188.195 149.012 188.135 149.492 188.015 149.828C187.919 150.164 187.535 150.38 186.863 150.476C186.719 150.5 186.563 150.512 186.395 150.512C186.251 150.512 186.083 150.512 185.891 150.512ZM195.17 150.836C194.882 150.836 194.654 150.764 194.486 150.62C194.318 150.476 194.162 150.284 194.018 150.044C193.97 149.924 193.934 149.804 193.91 149.684C193.91 149.564 193.886 149.432 193.838 149.288C193.79 149.096 193.718 148.892 193.622 148.676C193.55 148.436 193.514 148.184 193.514 147.92C193.514 147.512 193.526 147.14 193.55 146.804C193.598 146.444 193.67 145.94 193.766 145.292C193.79 145.172 193.826 144.98 193.874 144.716C193.946 144.452 193.994 144.248 194.018 144.104C194.018 144.032 194.042 143.912 194.09 143.744C194.138 143.576 194.162 143.444 194.162 143.348C194.162 143.18 194.174 143.024 194.198 142.88C194.222 142.712 194.258 142.496 194.306 142.232C194.306 142.136 194.294 142.052 194.27 141.98C194.27 141.884 194.27 141.788 194.27 141.692C194.318 141.212 194.354 140.72 194.378 140.216C194.426 139.688 194.45 139.16 194.45 138.632C194.45 138.416 194.438 138.2 194.414 137.984C194.414 137.768 194.414 137.54 194.414 137.3C194.414 136.916 194.51 136.592 194.702 136.328C194.774 136.208 194.858 136.136 194.954 136.112C195.074 136.064 195.218 136.016 195.386 135.968C195.506 135.92 195.626 135.884 195.746 135.86C195.866 135.812 195.998 135.788 196.142 135.788C196.382 135.788 196.562 135.824 196.682 135.896C196.802 135.944 196.934 135.992 197.078 136.04C197.198 136.088 197.27 136.184 197.294 136.328C197.342 136.448 197.366 136.568 197.366 136.688C197.462 136.688 197.522 136.772 197.546 136.94C197.57 137.108 197.582 137.264 197.582 137.408C197.582 137.816 197.486 138.404 197.294 139.172C197.102 139.94 196.958 140.72 196.862 141.512C197.054 141.128 197.294 140.756 197.582 140.396C197.894 140.036 198.254 139.712 198.662 139.424C198.854 139.304 199.082 139.184 199.346 139.064C199.61 138.92 199.862 138.824 200.102 138.776C200.39 138.704 200.618 138.632 200.786 138.56C200.954 138.488 201.182 138.452 201.47 138.452C202.046 138.452 202.562 138.572 203.018 138.812C203.474 139.028 203.858 139.328 204.17 139.712C204.506 140.072 204.758 140.492 204.926 140.972C205.094 141.452 205.178 141.956 205.178 142.484C205.178 143.996 204.854 145.28 204.206 146.336C203.582 147.392 202.778 148.256 201.794 148.928C200.834 149.6 199.754 150.08 198.554 150.368C197.378 150.68 196.25 150.836 195.17 150.836ZM197.258 147.524C198.002 147.524 198.674 147.404 199.274 147.164C199.898 146.9 200.426 146.564 200.858 146.156C201.29 145.724 201.626 145.22 201.866 144.644C202.106 144.068 202.226 143.456 202.226 142.808C202.226 142.472 202.142 142.184 201.974 141.944C201.806 141.68 201.482 141.548 201.002 141.548H200.966C200.942 141.548 200.93 141.56 200.93 141.584C200.93 141.584 200.918 141.584 200.894 141.584C200.87 141.584 200.834 141.584 200.786 141.584C200.738 141.584 200.702 141.596 200.678 141.62C200.486 141.62 200.354 141.656 200.282 141.728C200.162 141.752 200.078 141.788 200.03 141.836C199.982 141.884 199.874 141.968 199.706 142.088C199.202 142.352 198.806 142.724 198.518 143.204C198.086 143.732 197.69 144.296 197.33 144.896C196.994 145.472 196.73 145.964 196.538 146.372L196.466 147.38C196.538 147.428 196.658 147.464 196.826 147.488C196.994 147.512 197.138 147.524 197.258 147.524ZM210.722 136.508C210.722 137.084 210.686 137.768 210.614 138.56C210.566 139.352 210.506 140.168 210.434 141.008C210.362 141.848 210.29 142.664 210.218 143.456C210.17 144.224 210.146 144.884 210.146 145.436C210.146 146.132 210.134 146.792 210.11 147.416C210.086 148.04 210.014 148.58 209.894 149.036C209.774 149.492 209.618 149.756 209.426 149.828C209.426 149.948 209.378 150.032 209.282 150.08C209.21 150.152 209.114 150.212 208.994 150.26C208.802 150.308 208.634 150.332 208.49 150.332C208.37 150.332 208.25 150.332 208.13 150.332C208.01 150.332 207.89 150.308 207.77 150.26C207.434 150.188 207.218 150.068 207.122 149.9C207.05 149.732 207.014 149.468 207.014 149.108C207.014 148.772 207.086 148.28 207.23 147.632C207.398 146.984 207.518 146.36 207.59 145.76C207.59 145.688 207.578 145.616 207.554 145.544C207.554 145.448 207.554 145.364 207.554 145.292C207.554 145.124 207.566 144.992 207.59 144.896C207.638 144.8 207.674 144.668 207.698 144.5C207.722 144.38 207.734 144.26 207.734 144.14C207.734 143.996 207.734 143.864 207.734 143.744C207.806 142.784 207.842 141.656 207.842 140.36C207.842 139.808 207.818 139.304 207.77 138.848C207.746 138.368 207.734 137.96 207.734 137.624C207.734 137.288 207.758 136.964 207.806 136.652C207.854 136.316 207.986 136.064 208.202 135.896C208.202 135.776 208.25 135.68 208.346 135.608C208.442 135.536 208.55 135.476 208.67 135.428C208.862 135.38 209.03 135.356 209.174 135.356C209.318 135.356 209.45 135.38 209.57 135.428C209.714 135.476 209.846 135.5 209.966 135.5C210.182 135.5 210.362 135.572 210.506 135.716C210.65 135.86 210.722 136.124 210.722 136.508ZM217.756 146.408C217.468 146.408 217.228 146.408 217.036 146.408C216.868 146.408 216.712 146.408 216.568 146.408C216.424 146.408 216.268 146.408 216.1 146.408C215.932 146.384 215.728 146.36 215.488 146.336C215.104 146.288 214.816 146.192 214.624 146.048C214.456 145.88 214.324 145.688 214.228 145.472C214.132 145.328 214.072 145.244 214.048 145.22C214.048 145.172 214.048 145.136 214.048 145.112C214.048 145.088 214.048 145.076 214.048 145.076C214.072 145.052 214.084 145.016 214.084 144.968C214.06 144.944 214.048 144.908 214.048 144.86C214.048 144.788 214.072 144.704 214.12 144.608C214.096 144.584 214.084 144.548 214.084 144.5C214.084 144.452 214.084 144.416 214.084 144.392C214.108 144.368 214.12 144.332 214.12 144.284C214.12 144.26 214.108 144.236 214.084 144.212C214.084 144.188 214.084 144.164 214.084 144.14C214.156 143.828 214.348 143.564 214.66 143.348C214.996 143.132 215.332 143.024 215.668 143.024C216.052 143.024 216.412 143.06 216.748 143.132C217.084 143.18 217.384 143.204 217.648 143.204C217.672 142.244 217.804 141.344 218.044 140.504C218.284 139.64 218.62 138.896 219.052 138.272C219.484 137.624 220.012 137.12 220.636 136.76C221.284 136.376 222.028 136.184 222.868 136.184C223.06 136.184 223.228 136.208 223.372 136.256C223.54 136.28 223.648 136.316 223.696 136.364L224.272 136.58C224.392 136.628 224.512 136.676 224.632 136.724C224.776 136.772 224.884 136.844 224.956 136.94C225.1 137.036 225.22 137.156 225.316 137.3C225.436 137.444 225.556 137.6 225.676 137.768C225.988 138.248 226.144 138.836 226.144 139.532C226.144 140.108 226 140.696 225.712 141.296C225.448 141.896 225.088 142.472 224.632 143.024C224.176 143.552 223.636 144.044 223.012 144.5C222.412 144.932 221.776 145.304 221.104 145.616C221.536 146.096 222.124 146.336 222.868 146.336C223.492 146.336 224.032 146.3 224.488 146.228C224.944 146.132 225.436 146.084 225.964 146.084C226.108 146.084 226.252 146.108 226.396 146.156C226.564 146.18 226.684 146.204 226.756 146.228C226.756 146.276 226.804 146.336 226.9 146.408C226.996 146.48 227.08 146.588 227.152 146.732C227.176 146.78 227.188 146.828 227.188 146.876C227.188 146.924 227.176 146.972 227.152 147.02C227.128 147.044 227.116 147.08 227.116 147.128C227.116 147.176 227.128 147.212 227.152 147.236C227.104 147.284 227.08 147.38 227.08 147.524C227.08 147.62 227.092 147.692 227.116 147.74C227.068 147.788 227.008 147.86 226.936 147.956C226.888 148.052 226.864 148.148 226.864 148.244C226.864 148.316 226.876 148.364 226.9 148.388C226.804 148.436 226.516 148.64 226.036 149C225.916 149.096 225.832 149.156 225.784 149.18C225.736 149.204 225.664 149.24 225.568 149.288C225.52 149.312 225.46 149.324 225.388 149.324C225.34 149.324 225.292 149.336 225.244 149.36C225.148 149.36 225.088 149.372 225.064 149.396C225.04 149.396 225.016 149.384 224.992 149.36C224.992 149.36 224.98 149.36 224.956 149.36C224.932 149.36 224.908 149.36 224.884 149.36C224.884 149.384 224.872 149.396 224.848 149.396C224.8 149.372 224.752 149.348 224.704 149.324C224.656 149.324 224.572 149.324 224.452 149.324C224.332 149.324 224.224 149.324 224.128 149.324C224.056 149.348 223.972 149.372 223.876 149.396C223.78 149.42 223.66 149.432 223.516 149.432C223.396 149.456 223.216 149.468 222.976 149.468C222.064 149.468 221.164 149.204 220.276 148.676C219.412 148.148 218.74 147.392 218.26 146.408H217.756ZM222.904 139.424C222.856 139.4 222.784 139.388 222.688 139.388C222.352 139.388 222.028 139.568 221.716 139.928C221.428 140.264 221.188 140.636 220.996 141.044C220.9 141.284 220.804 141.548 220.708 141.836C220.636 142.124 220.576 142.448 220.528 142.808C220.816 142.784 221.116 142.688 221.428 142.52C221.74 142.328 222.028 142.112 222.292 141.872C222.58 141.608 222.808 141.332 222.976 141.044C223.168 140.732 223.264 140.42 223.264 140.108C223.264 139.868 223.192 139.676 223.048 139.532L222.904 139.424Z" fill="white"/>
<defs>
<radialGradient id="paint0_radial" cx="0" cy="0" r="1" gradientUnits="userSpaceOnUse" gradientTransform="translate(128.939 116.08) rotate(72.6199) scale(122.293 124.798)">
<stop stop-color="#407B9A" stop-opacity="0.9"/>
<stop offset="0.6453" stop-color="#3682A1"/>
<stop offset="0.9469" stop-color="#C6DDEE" stop-opacity="0.8"/>
<stop offset="1" stop-color="white" stop-opacity="0.8"/>
</radialGradient>
<linearGradient id="paint1_linear" x1="202.857" y1="50.7827" x2="173.832" y2="74.1754" gradientUnits="userSpaceOnUse">
<stop stop-color="white"/>
<stop offset="0.4749" stop-color="#D4EFFD" stop-opacity="0.5"/>
<stop offset="1" stop-color="#3699D6" stop-opacity="0"/>
</linearGradient>
</defs>
</svg>
