<svg width="453" height="528" viewBox="0 0 453 528" fill="none" xmlns="http://www.w3.org/2000/svg">
<g opacity="0.3">
<path d="M292.509 209.001C293.159 206.894 296.411 206.473 298.037 206.894C298.362 206.894 298.687 207.316 299.013 207.737C299.013 207.316 299.013 206.473 299.338 206.052C300.313 203.523 302.264 201.417 304.541 201.417C305.191 201.417 305.842 201.838 306.492 202.259C310.394 198.046 313.971 193.832 317.548 189.618C318.199 185.826 321.126 182.455 323.727 181.191C348.116 145.375 350.718 104.924 284.704 91.4405C195.927 73.3219 140.97 166.022 120.157 255.772C99.3452 345.523 87.3131 420.526 93.4917 426.004C97.0688 428.953 105.849 418.84 117.231 402.407C112.028 401.986 106.825 399.458 104.548 393.98C98.6948 379.232 119.507 374.176 126.661 379.232C127.962 380.075 129.263 381.339 130.238 383.024C133.815 377.968 137.393 372.49 140.644 367.013C138.368 367.855 136.417 367.855 135.116 365.748C133.49 362.799 134.466 358.585 136.417 356.057C138.368 353.529 140.97 351.843 143.896 353.108C145.522 353.95 146.498 355.636 146.498 358.164C150.075 352.265 153.977 346.787 157.554 341.309C154.953 341.731 153.977 338.781 153.977 335.41C153.977 332.039 155.278 327.826 157.554 325.298C158.855 323.612 161.457 321.927 162.757 324.455C163.733 326.14 163.733 329.933 163.083 332.882C170.562 321.927 177.391 312.657 183.245 307.179C180.318 309.707 175.765 309.707 176.09 304.229C176.415 300.016 178.367 295.802 181.293 293.695C183.57 292.431 186.496 292.853 187.472 296.223C188.448 299.173 186.496 302.965 184.545 305.493L184.22 305.915C186.822 303.387 189.098 301.701 191.049 300.858C193.976 300.016 197.228 298.752 200.48 296.645C200.48 296.223 200.154 295.802 200.154 294.959C199.179 289.06 202.431 283.583 206.658 281.897C210.561 279.79 215.764 279.369 219.341 282.74C223.893 278.947 228.771 274.312 233.649 269.677C233.649 269.256 233.649 268.413 233.974 267.992C234.625 265.464 236.251 261.672 238.852 261.25C239.828 261.25 240.478 261.672 241.129 262.514C246.006 257.879 250.884 252.823 256.087 247.767C256.738 246.924 257.713 246.081 258.689 245.238C263.567 240.603 268.77 235.547 273.973 230.491C273.648 230.069 272.997 229.648 272.672 229.227C269.745 223.749 276.249 215.743 280.152 216.164C281.777 216.586 283.729 217.85 283.729 220.799V221.221C286.655 218.692 289.582 216.164 292.509 213.636C293.159 213.215 293.81 212.372 294.46 211.951C292.834 213.215 291.533 211.951 292.509 209.001ZM144.547 352.265C142.921 349.315 144.547 340.045 148.449 341.731C149.099 342.152 150.075 342.995 150.4 343.838C150.725 344.68 150.725 345.944 150.725 347.63C150.4 351.422 146.498 356.9 144.547 352.265ZM154.953 319.82C154.628 322.348 151.376 326.562 150.4 323.191C149.75 321.084 152.351 315.185 154.302 316.449C155.603 316.87 155.278 318.556 154.953 319.82ZM164.709 310.55C164.058 312.235 162.757 314.763 161.782 315.185C159.506 316.449 157.554 313.921 157.554 310.971C157.554 308.022 158.855 304.651 160.806 302.965C162.107 301.701 164.383 300.437 165.684 302.544C166.66 304.651 165.359 308.443 164.709 310.55ZM187.147 285.268C187.797 283.161 191.049 282.74 192.675 283.161C193.651 283.582 194.626 285.268 194.301 287.375C193.976 290.324 184.87 291.167 187.147 285.268ZM198.854 274.312C191.699 280.633 178.041 280.212 173.814 270.099C167.961 255.351 188.773 250.295 195.927 255.351C198.529 257.037 201.13 260.829 202.106 264.621C202.756 268.835 200.154 273.048 198.854 274.312ZM311.045 155.909C312.996 153.381 315.597 151.696 318.524 152.96C320.15 153.802 321.451 156.331 321.126 158.859C320.8 163.915 312.671 170.657 309.744 165.179C308.118 162.651 309.094 158.016 311.045 155.909ZM204.057 241.446C202.431 238.497 203.406 234.283 205.358 231.755C207.309 229.227 209.91 227.541 212.837 228.805C214.463 229.648 215.764 232.176 215.438 234.704C215.113 240.603 206.983 246.924 204.057 241.446ZM219.666 269.677C217.715 271.784 214.463 273.048 212.512 269.677C209.585 264.2 216.089 256.194 219.991 256.615C221.617 257.037 223.568 258.301 223.568 261.25C223.893 265.464 220.967 268.413 219.666 269.677ZM230.072 245.66C226.17 243.553 228.771 236.811 231.698 236.39C233.324 235.968 235.275 238.075 235.275 241.025C235.275 244.396 232.023 246.502 230.072 245.66ZM246.657 248.188C245.356 251.559 243.08 254.93 240.803 253.244C238.852 251.98 238.202 247.767 239.177 245.238C240.153 242.71 242.104 240.603 244.38 240.603C246.006 240.603 247.958 241.867 247.307 244.817C247.307 244.817 247.307 245.238 247.307 245.66C248.608 244.396 250.884 243.553 252.51 244.396C253.486 244.817 254.461 246.502 254.136 248.609C254.136 250.716 246.982 251.559 246.657 248.188ZM258.689 234.704C251.535 241.025 237.877 240.603 233.649 230.491C227.796 215.743 248.608 210.687 255.762 215.743C258.364 217.428 260.965 221.221 261.941 225.013C262.916 229.227 260.315 233.44 258.689 234.704ZM275.599 195.939C275.274 200.995 267.144 207.737 264.217 202.259C262.591 199.31 263.567 195.096 265.518 192.568C267.469 190.04 270.071 188.354 272.997 189.618C274.623 190.461 275.924 192.989 275.599 195.939ZM290.232 206.473C288.281 205.63 287.956 203.523 288.606 201.838C284.704 200.574 281.127 198.046 279.501 193.832C273.648 179.084 294.46 174.028 301.614 179.084C304.216 180.77 306.817 184.562 307.793 188.354C308.768 192.568 306.167 196.782 304.541 198.046C302.264 200.152 299.013 201.417 295.436 201.838C294.785 205.209 292.184 207.316 290.232 206.473Z" fill="#CFDCE4"/>
<path d="M160.806 302.963C158.855 304.649 157.229 308.02 157.554 310.969C157.554 313.919 159.505 316.447 161.782 315.183C163.083 314.34 164.383 311.812 164.709 310.548C165.359 308.441 166.66 304.649 165.684 302.963C164.709 300.435 162.432 301.699 160.806 302.963Z" fill="#90A2A3"/>
<path d="M187.472 297.066C186.496 293.695 183.569 293.274 181.293 294.538C178.366 296.223 176.415 300.858 176.09 305.071C175.765 310.548 179.992 310.548 183.244 308.02C183.569 307.599 183.895 307.178 184.22 306.757L184.545 306.335C186.171 303.807 188.122 300.015 187.472 297.066Z" fill="#708283"/>
<path d="M162.433 325.299C161.132 322.771 158.53 324.456 157.229 326.142C155.278 328.67 153.978 332.884 153.652 336.255C153.652 339.626 154.628 342.154 157.229 342.154C159.181 339.204 161.132 336.676 162.758 333.726C163.408 330.355 163.408 326.985 162.433 325.299Z" fill="#90A2A3"/>
<path d="M150.401 323.19C151.376 326.561 154.628 322.347 154.953 319.819C154.953 318.555 155.279 316.869 154.303 316.027C152.352 314.763 149.75 320.662 150.401 323.19Z" fill="#708283"/>
<path d="M148.449 341.731C144.547 340.046 142.921 349.316 144.547 352.265C146.498 356.9 150.4 351.423 150.725 347.63C150.725 345.945 150.725 344.681 150.4 343.838C149.75 342.995 149.099 342.153 148.449 341.731Z" fill="#90A2A3"/>
<path d="M104.549 394.402C106.825 399.88 111.703 402.408 117.231 402.829C121.459 396.931 125.686 390.61 130.239 383.447C129.263 381.762 127.962 380.498 126.662 379.655C119.182 374.599 98.37 379.655 104.549 394.402Z" fill="#90A2A3"/>
<path d="M143.571 353.53C140.645 352.265 138.043 353.53 136.092 356.479C134.466 358.586 133.165 363.222 134.791 366.172C136.092 368.279 138.368 368.279 140.319 367.436C142.271 364.486 144.222 361.536 145.848 358.586C146.173 356.479 145.197 354.372 143.571 353.53Z" fill="#708283"/>
<path d="M195.602 255.351C188.448 249.873 167.635 255.351 173.489 270.098C177.716 280.211 191.7 281.054 198.529 274.312C199.829 273.048 202.756 268.834 201.781 264.621C200.805 260.828 198.203 257.036 195.602 255.351Z" fill="#90A2A3"/>
<path d="M220.316 257.036C216.089 256.194 209.91 264.62 212.837 270.098C214.463 273.047 218.04 272.205 219.991 270.098C221.292 268.834 224.219 265.884 223.894 262.092C223.894 258.722 221.942 257.458 220.316 257.036Z" fill="#708283"/>
<path d="M215.438 235.126C215.764 232.177 214.463 230.07 212.837 229.227C209.91 227.963 207.309 229.227 205.358 232.177C203.732 234.284 202.431 238.919 204.057 241.868C206.983 246.924 215.113 240.604 215.438 235.126Z" fill="#708283"/>
<path d="M246.982 246.082C246.982 245.66 247.307 245.66 247.307 245.239C247.307 244.818 247.307 244.818 247.307 244.396C247.633 241.447 245.682 240.183 244.381 240.183C242.104 240.183 240.153 242.289 239.178 244.818C238.202 247.346 238.853 251.138 240.804 252.824C243.08 254.509 245.356 251.138 246.657 247.767C246.657 247.346 246.982 246.925 246.982 246.082Z" fill="#90A2A3"/>
<path d="M238.527 262.515C236.251 262.515 234.3 266.729 233.649 269.257C233.649 269.678 233.324 270.521 233.324 270.943C235.601 268.836 238.202 266.307 240.804 263.779C240.153 262.936 239.503 262.515 238.527 262.515Z" fill="#90A2A3"/>
<path d="M258.363 246.503C257.388 247.346 256.737 248.188 255.762 249.03C256.737 248.188 257.713 247.346 258.363 246.503Z" fill="#708283"/>
<path d="M206.333 283.16C202.105 285.267 199.178 290.324 199.829 296.223C199.829 296.644 200.154 297.065 200.154 297.908C206.007 294.537 212.186 289.902 219.015 284.003C215.438 280.632 210.235 281.054 206.333 283.16Z" fill="#708283"/>
<path d="M192.675 283.161C191.049 282.74 187.798 283.161 187.147 285.268C184.871 291.166 193.976 290.323 194.301 287.374C194.627 285.689 193.651 283.583 192.675 283.161Z" fill="#90A2A3"/>
<path d="M231.698 236.39C228.771 236.811 226.169 243.553 230.072 245.66C232.023 246.503 235.275 244.396 235.275 241.025C235.275 238.075 233.649 235.968 231.698 236.39Z" fill="#90A2A3"/>
<path d="M255.762 215.744C248.608 210.266 227.796 215.744 233.649 230.491C237.876 240.604 251.86 241.446 258.689 234.705C259.989 233.441 262.916 229.227 261.94 225.014C260.965 221.643 258.038 217.851 255.762 215.744Z" fill="#90A2A3"/>
<path d="M280.477 217.849C276.249 217.007 270.07 225.434 272.997 230.912C273.322 231.333 273.648 231.755 274.298 232.176C277.55 229.226 280.802 226.277 284.054 223.327V222.906C283.729 219.113 282.103 217.849 280.477 217.849Z" fill="#708283"/>
<path d="M272.672 190.041C269.745 188.777 267.144 190.041 265.193 192.99C263.567 195.097 262.266 199.731 263.892 202.681C266.818 207.737 274.948 201.417 275.273 196.361C275.924 192.99 274.623 190.462 272.672 190.041Z" fill="#708283"/>
<path d="M299.338 206.051C299.013 206.473 299.013 207.316 299.013 207.737C299.338 208.159 299.338 208.58 299.663 209.001C301.939 206.894 304.541 204.366 306.817 201.837C306.167 201.416 305.517 200.994 304.866 200.994C302.265 201.416 300.313 203.523 299.338 206.051Z" fill="#90A2A3"/>
<path d="M252.511 243.974C251.21 243.552 248.608 243.974 247.308 245.238C246.982 246.081 246.982 246.923 246.657 247.766C246.982 251.558 253.812 250.294 254.137 247.766C254.462 246.081 253.486 244.395 252.511 243.974Z" fill="#90A2A3"/>
<path d="M246.982 246.082C246.657 246.924 246.657 247.345 246.657 248.188C246.982 247.345 247.307 246.503 247.307 245.66C247.307 245.66 247.308 245.66 246.982 246.082Z" fill="#90A2A3"/>
<path d="M295.436 201.837C293.159 202.258 290.558 201.837 288.606 201.416C288.281 203.101 288.606 205.208 290.232 206.051C292.184 207.315 294.785 205.208 295.436 201.837Z" fill="#90A2A3"/>
<path d="M291.859 197.204C293.485 196.782 295.436 198.889 295.436 201.839V202.26C298.688 201.839 301.94 200.575 304.541 198.468C305.842 197.204 308.769 192.99 307.793 188.776C306.818 184.984 303.891 181.192 301.614 179.506C294.46 174.028 273.648 179.506 279.502 194.254C281.128 198.468 284.705 200.996 288.607 202.26C288.932 199.311 290.233 197.204 291.859 197.204Z" fill="#90A2A3"/>
<path d="M295.435 201.837C295.761 198.466 293.809 196.781 291.858 196.781C290.232 197.202 288.932 198.888 288.281 201.415C290.558 202.258 292.834 202.258 295.435 201.837Z" fill="#90A2A3"/>
<path d="M317.549 189.619C319.825 186.67 321.776 184.142 323.727 181.193C321.126 182.035 318.199 185.827 317.549 189.619Z" fill="#708283"/>
<path d="M320.801 158.86C321.126 155.911 319.825 153.804 318.199 152.961C315.273 151.697 312.671 152.961 310.72 155.911C309.094 158.017 307.793 162.652 309.419 165.601C312.671 170.657 320.476 163.916 320.801 158.86Z" fill="#708283"/>
<path d="M299.012 207.738C298.687 207.316 298.362 207.316 298.037 206.895C296.411 206.474 293.159 206.895 292.509 209.002C291.533 211.53 292.834 212.794 294.785 213.215C296.086 211.951 297.712 210.687 299.012 209.423C299.012 209.002 299.012 208.159 299.012 207.738Z" fill="#90A2A3"/>
<path d="M299.013 209.423C299.338 209.423 299.338 209.002 299.663 209.002C299.663 208.58 299.338 208.159 299.013 207.738C299.013 208.159 299.013 209.002 299.013 209.423Z" fill="#90A2A3"/>
<path d="M120.158 256.193C140.97 166.443 195.927 73.7425 284.705 91.4398C304.866 95.6534 318.85 105.345 328.28 117.986C234.3 112.508 173.814 160.965 140.97 267.57C109.752 369.54 92.5165 420.525 95.118 427.689C94.4676 427.267 93.8173 426.846 93.1669 426.424C87.3134 420.947 99.3455 345.944 120.158 256.193Z" fill="#5E6B6C"/>
<path d="M88.9391 396.508C88.9391 396.508 62.9238 378.389 35.9329 391.873C8.94206 404.935 -3.41521 431.482 0.812282 435.695C5.36496 439.909 8.94206 423.476 22.9253 427.268C36.9085 430.639 42.762 458.449 61.9482 454.235C81.4597 450.022 92.8414 432.746 88.9391 396.508Z" fill="#5E6C6D"/>
<path d="M101.622 412.943C101.622 412.943 128.288 428.533 136.743 464.77C144.872 500.586 136.417 529.66 130.889 527.553C125.686 525.446 133.166 511.541 122.759 499.743C112.028 487.524 91.541 498.058 82.4357 475.725C73.3303 453.393 77.2326 430.64 101.622 412.943Z" fill="#5E6C6D"/>
<path d="M314.947 106.189C326.003 94.8119 448.925 -0.837927 452.503 0.00480278C456.08 0.847532 344.864 109.56 333.157 118.83C321.45 128.1 299.988 121.358 314.947 106.189Z" fill="white"/>
<path d="M311.044 101.974L312.67 100.289C317.873 103.66 333.157 100.289 338.035 99.4461C348.766 97.3393 361.449 91.8618 372.18 85.1202V85.5416L372.505 85.1202H372.18C372.83 84.6989 373.155 84.6989 373.481 85.1202L372.83 86.3843H372.505C361.449 93.5472 348.441 99.0247 337.384 101.131C328.279 102.817 315.597 104.924 311.044 101.974Z" fill="#D9D9D9"/>
<path d="M338.035 80.9065L339.336 79.2212C355.27 80.9065 377.058 73.7437 397.545 60.2606L397.87 61.5247C377.058 75.4291 354.62 82.5919 338.035 80.9065Z" fill="#D9D9D9"/>
<path d="M352.018 58.9948L353.644 57.3094C360.147 60.6803 371.854 58.9948 380.309 56.4667C391.366 53.5172 407.95 47.6182 422.259 38.7697L422.584 40.0337C407.95 48.8822 390.715 55.2026 379.659 58.1521C370.879 60.6803 358.847 62.7871 352.018 58.9948Z" fill="#D9D9D9"/>
<path d="M379.009 37.5066L380.635 35.8211C387.789 38.7707 403.398 33.7142 412.178 30.7646H412.503C420.958 27.8149 432.34 23.6012 440.795 17.7019L441.445 18.5447C432.665 24.8653 420.633 29.0791 412.178 32.0287H411.853C400.797 36.2425 386.163 40.4562 379.009 37.5066Z" fill="#D9D9D9"/>
<path d="M275.599 127.678C278.2 131.049 279.176 135.684 277.55 137.791C275.924 139.898 272.347 139.055 269.745 135.684C267.144 132.313 266.168 127.678 267.794 125.571C269.42 123.465 272.997 124.307 275.599 127.678Z" fill="#422F22"/>
</g>
</svg>
