<svg width="359" height="331" viewBox="0 0 359 331" fill="none" xmlns="http://www.w3.org/2000/svg">
<path d="M92.0712 31.7834C92.0712 31.7834 77.9711 21.7428 77.1711 14.5968C76.5711 8.08397 74.1711 5.00852 67.8711 7.17946C61.571 9.3504 57.971 8.80762 51.6709 9.16944C44.6709 9.53127 43.7709 11.7927 43.6709 14.6873C43.5709 17.5819 51.2709 22.5571 54.371 25.6326C57.471 28.7081 77.2711 39.2009 77.2711 39.2009L93.8712 33.9544L92.0712 31.7834Z" fill="url(#paint0_linear)"/>
<path d="M78.5698 49.6036C75.5698 47.2517 72.8697 44.4475 69.9697 42.0956C61.7697 34.9494 54.1697 27.0795 46.0697 18.8478C44.7697 17.8528 43.7697 16.4053 43.4697 15.0484C43.1697 13.6011 43.8697 11.7919 45.0697 10.9778C44.2697 12.0633 44.5697 13.5107 45.5697 14.9581C46.5697 16.315 47.1697 17.4005 48.3697 18.3955C51.4697 21.4711 54.5697 24.5467 57.8697 26.5368C62.7697 29.8837 68.4697 31.331 73.8698 32.1451C78.6698 32.9593 82.9698 33.4115 87.0698 32.5069C89.7698 31.6023 92.2698 30.0646 94.8698 30.9691C97.0698 31.6024 98.5698 33.3211 99.3698 35.7635C100.07 37.5726 100.57 39.6531 100.97 41.8241C102.17 49.3322 104.47 57.2021 108.07 64.2578C103.07 65.6147 98.4698 67.3333 93.3698 68.6902C91.1698 63.3531 87.6697 58.1971 83.2697 54.036C81.6697 52.6791 79.9698 51.3223 78.5698 49.6036Z" fill="#FD8859"/>
<path d="M225.671 174.074C225.671 174.074 206.371 154.534 189.671 145.308C183.371 142.051 150.17 134.181 150.17 134.181C150.17 134.181 146.07 115.909 108.77 64.0763C107.17 61.6339 94.7703 66.6995 94.0703 68.5086C93.3703 70.3178 134.67 153.449 142.97 164.937C151.37 176.425 219.171 199.311 219.171 199.311L225.671 174.074Z" fill="url(#paint1_linear)"/>
<path opacity="0.3" d="M177.87 157.157C188.87 164.122 188.07 163.489 196.57 171.992L219.27 199.672C219.27 199.672 151.471 176.696 143.071 165.207C140.671 162.041 136.271 154.352 130.971 144.131C145.871 146.663 166.371 149.829 177.87 157.157Z" fill="url(#paint2_linear)"/>
<path d="M163.37 306.862C163.37 306.862 156.17 309.395 153.77 313.556C151.87 317.988 153.27 329.838 156.77 329.657C160.27 329.476 162.17 321.425 165.17 322.692C168.27 323.958 170.27 328.571 171.97 328.119C174.371 327.667 171.67 314.822 171.67 314.822L163.37 306.862Z" fill="url(#paint3_linear)"/>
<path opacity="0.5" d="M154.369 326.493C155.069 326.493 156.069 326.041 156.569 325.317C161.269 320.704 164.57 321.609 167.57 320.342C170.47 319.076 166.77 311.387 166.77 311.387L167.87 311.658L171.37 315.096C171.37 315.096 173.97 327.94 171.67 328.393C169.57 328.483 167.97 324.322 164.97 323.056C161.969 321.789 159.769 330.202 156.569 330.021C156.069 329.659 155.069 328.302 154.369 326.493Z" fill="url(#paint4_linear)"/>
<path d="M15.8704 38.6572C15.8704 38.6572 -1.22946 5.27841 0.0705364 1.56966C1.47053 -2.13909 17.8704 2.02186 21.8704 1.02683C25.8704 0.122256 26.6704 7.26851 32.8703 19.9325C39.0703 32.5966 62.5701 59.1006 62.5701 59.1006C62.5701 59.1006 40.1703 62.176 33.1703 57.1104C25.9703 51.4115 18.9704 43.5418 15.8704 38.6572Z" fill="url(#paint5_linear)"/>
<path d="M41.0707 69.3227C25.6708 56.4777 15.9708 38.567 15.9708 38.567C15.9708 38.567 -1.2291 5.09766 0.170896 1.47934C0.470894 1.11751 0.47087 1.11769 0.770868 0.755859C-0.429125 5.18829 16.5708 37.8435 16.5708 37.8435C17.9708 39.5622 19.1708 41.6428 20.9708 43.7233C30.8707 54.0355 41.7706 58.4679 52.2706 57.9251C55.0706 57.7442 57.5706 58.0156 60.1705 58.1965C60.8705 58.1965 61.5705 58.106 62.2705 58.106C62.6705 58.4678 63.0706 58.8297 63.0706 58.8297C67.5705 60.0057 68.4705 62.5384 68.0705 65.7949C67.3705 71.2224 73.6705 81.0822 73.6705 81.0822L57.8706 87.0525C57.0706 86.8716 55.7706 82.2581 41.0707 69.3227Z" fill="#FD8859"/>
<path d="M304.57 245.895C304.57 245.895 296.17 256.478 292.67 258.468C289.17 260.458 220.47 273.756 218.77 275.293C216.97 276.831 172.37 315.908 171.27 315.547C170.17 315.185 162.57 309.214 162.97 307.677C163.37 306.229 201.77 259.192 203.57 257.654C205.37 256.116 242.27 239.563 242.27 239.563C242.27 239.563 204.57 223.28 194.37 218.034C194.37 218.034 109.97 184.113 105.57 180.042C101.17 175.971 57.7705 88.7712 58.5705 87.6857C59.3705 86.6002 72.6704 80.3588 74.2704 81.7157C75.9704 83.0725 113.37 139.156 117.77 158.785C117.77 158.785 160.27 155.619 174.87 161.318C189.47 167.016 214.57 182.213 214.57 182.213L306.47 221.471C311.57 223.733 313.87 229.703 311.47 233.864L304.57 245.895Z" fill="url(#paint6_linear)"/>
<path opacity="0.3" d="M311.971 233.593L304.671 246.257C304.671 246.257 296.271 256.84 292.871 258.83C289.371 260.82 220.971 274.027 219.171 275.565C217.371 277.102 172.971 315.998 171.771 315.727C171.371 315.365 168.971 314.099 166.671 311.656C180.471 298.269 209.271 270.77 211.771 267.333C215.071 262.81 270.871 253.222 278.371 242.006C297.871 213.512 206.271 184.566 206.271 184.566C206.271 184.566 210.071 184.024 216.871 182.938L306.871 221.382C311.571 223.191 313.871 229.161 311.971 233.593Z" fill="url(#paint7_linear)"/>
<path d="M327.271 255.846L305.47 246.258L307.17 239.292C308.67 234.498 313.77 232.056 318.67 233.594L322.47 234.86L327.271 255.846Z" fill="#FFD9B0"/>
<path d="M325.27 213.873C333.27 213.059 353.269 217.672 353.969 236.758C354.769 255.845 339.87 276.107 330.37 270.861C320.87 265.614 313.47 255.573 312.67 244.809C312.57 234.135 311.47 215.411 325.27 213.873Z" fill="url(#paint8_linear)"/>
<path d="M334.97 261.273C334.169 264.168 335.17 267.424 337.17 268.329C339.57 269.595 342.07 268.057 343.07 264.71C343.87 261.816 342.87 258.559 340.87 257.654C338.97 256.75 335.97 258.016 334.97 261.273Z" fill="#FFD9B0"/>
<path d="M340.27 259.284L344.27 261.998L340.57 268.511L336.57 265.797L340.27 259.284Z" fill="#2F306B"/>
<path d="M341.271 264.619C340.171 266.157 339.871 268.328 340.771 268.961C341.571 269.685 343.971 269.142 344.671 267.333C345.771 265.795 345.171 262.991 344.371 262.268C343.471 261.635 341.971 262.72 341.271 264.619Z" fill="#FEBE56"/>
<path d="M337.169 261.906C336.069 263.443 335.869 265.614 336.669 266.247C337.469 266.881 338.57 265.433 339.67 263.896C340.77 262.358 340.97 260.187 340.17 259.554C339.77 259.283 338.57 260.006 337.169 261.906Z" fill="#2F306B"/>
<path d="M195.271 159.689C198.971 150.1 205.871 144.311 211.371 146.844L305.171 191.801L292.971 226.808L199.171 181.851C193.271 178.956 191.871 168.916 195.271 159.689Z" fill="url(#paint9_linear)"/>
<path d="M289.369 204.918C285.669 214.507 287.769 224.457 292.769 226.718C298.269 229.251 310.57 226.085 314.27 216.497C317.97 206.909 310.37 194.426 304.97 191.802C299.87 189.541 292.969 195.33 289.369 204.918Z" fill="url(#paint10_linear)"/>
<path d="M310.071 210.979L315.771 213.782L313.371 220.565L307.671 217.761L310.071 210.979Z" fill="#5228B3"/>
<path d="M312.77 215.954C312.07 217.764 312.57 219.935 313.67 220.207C314.77 220.478 316.07 219.754 316.67 217.854C317.37 216.044 316.87 213.873 315.77 213.601C314.67 213.33 313.47 214.144 312.77 215.954Z" fill="#2F306B"/>
<path d="M307.27 213.33C306.57 215.139 307.07 217.31 308.17 217.581C309.27 217.852 310.57 217.129 311.17 215.23C311.87 213.421 311.37 211.25 310.27 210.979C308.77 210.345 307.97 211.521 307.27 213.33Z" fill="#5228B3"/>
<path d="M358.57 241.643C358.27 240.196 357.469 239.563 355.869 238.93C349.269 237.844 330.57 232.417 329.67 233.593C326.07 236.668 322.67 247.704 328.47 253.493C329.47 254.85 344.57 258.016 345.77 257.202C346.47 257.202 346.87 255.664 348.47 256.298C348.87 256.66 348.77 257.745 349.57 258.378C350.87 259.373 352.669 259.645 353.369 259.554C354.969 258.469 360.37 250.237 358.57 241.643Z" fill="#2F306B"/>
<path d="M329.671 251.955C331.671 252.95 341.971 255.211 344.471 255.483C344.971 254.759 346.571 253.583 348.971 254.849L349.371 255.211L349.771 255.573C350.571 256.206 351.171 257.292 351.371 258.015C351.771 258.377 351.771 258.377 352.071 258.015C353.271 257.201 357.471 249.784 356.271 242.277C354.071 241.644 349.971 240.83 345.871 240.016C340.671 238.84 333.271 237.121 331.071 236.488C329.671 238.388 327.671 242.096 328.071 246.076C327.671 247.342 328.271 250.236 329.671 251.955Z" fill="url(#paint11_linear)"/>
<path d="M312.77 239.019C312.47 237.572 312.87 236.124 312.57 234.677L327.87 238.476L327.37 242.82L312.77 239.019Z" fill="#2F306B"/>
<path d="M339.669 264.529C339.969 264.167 339.769 263.444 339.369 263.082C338.969 262.72 337.869 262.448 337.569 262.81C334.169 266.609 327.269 267.695 319.969 264.891C311.569 261.725 302.669 254.669 300.169 244.357C296.069 226.176 310.969 217.764 311.169 217.402C311.869 217.402 311.969 216.316 311.569 215.955C311.169 215.593 310.269 214.959 310.069 215.321C310.069 215.321 293.669 224.91 298.069 244.539C300.669 255.574 310.569 264.077 319.669 267.152C327.769 269.957 335.369 269.504 339.669 264.529Z" fill="#FCC342"/>
<path d="M228.97 195.872C229.77 171.087 245.87 163.67 245.87 163.67C245.87 163.67 245.27 162.584 243.37 161.68C241.87 161.047 240.87 161.499 240.87 161.499C239.87 161.951 225.07 166.745 224.37 194.063L228.97 195.872Z" fill="#2F306B"/>
<path d="M257.27 209.622C258.07 184.744 273.77 177.055 273.77 177.055C273.77 177.055 273.17 175.969 271.27 175.065C269.77 174.432 268.37 174.522 268.37 174.522C267.37 174.884 253.271 179.679 252.271 207.36L257.27 209.622Z" fill="#2F306B"/>
<path d="M111.769 177.057C116.869 181.128 123.869 186.103 130.969 191.169C117.069 185.47 106.069 180.314 104.769 179.228C100.369 175.158 56.8696 87.8671 57.7696 86.7816C58.0696 86.4198 59.9696 85.6057 62.2696 84.3394C69.6696 101.707 98.1694 166.293 111.769 177.057Z" fill="url(#paint12_linear)"/>
<path d="M255.77 196.957L228.769 184.385L227.069 194.967L253.37 207.54L255.77 196.957Z" fill="#2F306B"/>
<path d="M229.27 195.871C229.27 195.871 218.67 205.822 215.57 228.346C215.57 228.346 216.47 230.788 224.27 234.678C232.07 238.568 236.87 237.572 236.87 237.572C236.87 237.572 237.17 215.229 252.469 207.179L229.27 195.871Z" fill="#2F306B"/>
<path d="M167.071 308.219C169.171 309.937 172.771 308.58 175.571 304.872C178.271 301.073 178.571 297.184 176.471 295.466L174.371 293.748L165.271 306.139L167.371 307.857L167.071 308.219Z" fill="#21234C"/>
<path d="M164.87 306.502C166.97 308.13 170.57 306.863 173.37 303.155C176.17 299.356 176.37 295.467 174.27 293.748C172.17 292.03 168.57 293.386 165.77 297.095C163.07 300.894 162.77 304.874 164.87 306.502Z" fill="#2F306B"/>
<path d="M172.47 302.521C170.47 305.235 167.571 306.32 165.971 305.054C164.371 303.787 164.571 300.531 166.571 297.818C168.571 295.104 171.47 294.019 173.07 295.285C174.77 296.552 174.47 299.808 172.47 302.521Z" fill="url(#paint13_linear)"/>
<path d="M177.97 309.847C177.97 309.847 178.67 309.847 179.17 309.033C179.77 308.309 179.97 307.948 179.97 307.948C177.57 306.591 174.471 303.606 174.071 303.244L172.271 304.782C172.871 305.777 174.471 308.219 177.97 309.847Z" fill="#21234C"/>
<g opacity="0.3">
<g opacity="0.3">
<path opacity="0.3" d="M209.871 208.264C210.471 207.541 209.971 207.179 209.571 206.817C209.571 206.817 208.271 205.822 205.47 204.194C205.07 203.832 204.37 203.922 203.77 204.646C203.47 205.008 203.67 205.732 204.47 206.455C206.871 207.722 208.571 209.078 208.571 209.078C208.871 208.717 209.571 208.626 209.871 208.264Z" fill="url(#paint14_linear)"/>
</g>
<g opacity="0.3">
<path opacity="0.3" d="M198.071 201.026C198.671 200.302 198.171 199.941 197.371 199.217C194.971 197.86 192.571 196.594 189.771 194.966C189.371 194.604 188.671 194.694 188.071 195.418C187.771 195.78 187.971 196.503 188.771 197.227C191.571 198.855 193.971 200.212 196.371 201.478C197.071 201.478 197.771 201.478 198.071 201.026ZM182.271 193.247C182.271 193.247 182.571 192.886 182.271 193.247C182.871 192.524 181.971 191.8 181.571 191.438C179.171 190.172 176.471 189.177 173.371 187.911C172.971 187.549 171.971 188.001 172.171 188.725C171.871 189.087 172.471 190.172 173.171 190.082C175.871 190.986 178.271 192.343 180.871 193.247C181.771 194.061 181.971 193.609 182.271 193.247ZM166.771 186.916C166.771 186.916 167.071 186.554 166.771 186.916C166.871 185.831 166.471 185.469 166.071 185.107C163.371 184.203 160.271 182.936 158.071 182.303C157.371 182.303 156.671 182.394 156.871 183.117C157.071 183.841 157.171 184.565 157.871 184.474C160.071 185.107 162.771 186.011 165.871 187.278C166.071 186.916 166.571 187.278 166.771 186.916ZM150.671 182.394L150.971 182.032C150.771 181.308 150.371 180.947 149.971 180.675C147.071 180.132 144.471 179.861 141.571 179.318C140.871 179.409 140.571 179.771 140.271 180.132C140.371 180.856 140.871 181.218 141.271 181.489C143.771 181.67 146.771 182.303 149.671 182.846C149.671 182.846 150.371 182.755 150.671 182.394ZM134.071 179.409L134.371 179.047C134.171 178.324 133.771 177.962 133.371 177.691C130.371 177.148 127.471 176.605 125.171 175.972C124.471 175.972 124.171 176.424 123.971 176.786C124.171 177.51 124.571 177.871 124.971 178.143C127.171 178.776 130.171 179.319 133.071 179.861C133.571 180.133 133.771 179.771 134.071 179.409Z" fill="url(#paint15_linear)"/>
</g>
<g opacity="0.3">
<path opacity="0.3" d="M117.77 175.609L118.07 175.247C117.87 174.524 117.47 174.162 117.07 173.891C115.27 173.619 114.17 173.348 112.97 172.986L110.87 169.459C110.67 168.735 110.07 168.735 109.37 168.825C108.67 168.825 108.77 169.549 108.97 170.273L111.27 174.524C111.67 174.886 111.67 174.886 112.17 175.157C112.17 175.157 113.67 175.79 116.67 176.333C116.77 176.062 117.47 175.971 117.77 175.609Z" fill="url(#paint16_linear)"/>
</g>
<g opacity="0.3">
<path opacity="0.3" d="M106.271 162.583C106.571 162.221 106.871 161.859 106.371 161.498L102.171 153.447C102.071 152.723 101.371 152.814 100.671 152.814C99.9707 152.814 100.071 153.537 100.271 154.261L104.471 162.312C104.871 162.674 105.371 162.945 106.271 162.583C106.271 162.583 106.071 162.945 106.271 162.583ZM97.7706 146.753C98.0706 146.391 98.2706 146.029 97.8706 145.667L93.7705 137.616C93.5705 136.892 92.9705 136.893 92.1705 136.983C91.4705 136.983 91.6705 137.706 91.7705 138.43L95.8706 146.481C96.3706 146.843 97.1706 147.476 97.7706 146.753C97.7706 146.753 97.4706 147.114 97.7706 146.753ZM89.1705 131.013C89.4705 130.651 89.7705 130.289 89.2705 129.927L85.1704 121.876C85.0704 121.152 84.3704 121.152 83.6704 121.243C82.9704 121.243 83.0704 121.966 83.2704 122.69L87.3705 130.741C87.7705 131.012 88.6705 131.736 89.1705 131.013Z" fill="url(#paint17_linear)"/>
</g>
<g opacity="0.3">
<path opacity="0.3" d="M80.7698 115.546C81.0698 115.184 81.3698 114.822 80.8698 114.46L78.5698 110.299C78.4698 109.576 77.7698 109.576 77.0698 109.666C76.3698 109.666 76.4698 110.39 76.6698 111.114L78.9698 115.274C78.9698 115.274 79.8698 115.998 80.7698 115.546Z" fill="url(#paint18_linear)"/>
</g>
</g>
<path d="M327.771 234.406L330.87 232.235L354.17 261.544L351.07 263.715L327.771 234.406Z" fill="#F2F2F2"/>
<path d="M331.671 229.705L333.571 228.348L358.971 260.277L357.071 261.634L331.671 229.705Z" fill="#F2F2F2"/>
<defs>
<linearGradient id="paint0_linear" x1="79.8293" y1="11.8029" x2="62.9676" y2="32.9502" gradientUnits="userSpaceOnUse">
<stop stop-color="#F5995B"/>
<stop offset="1" stop-color="#FB5F5C"/>
</linearGradient>
<linearGradient id="paint1_linear" x1="137.556" y1="51.2368" x2="165.254" y2="157.763" gradientUnits="userSpaceOnUse">
<stop stop-color="#00C6FF"/>
<stop offset="1" stop-color="#0072FF"/>
</linearGradient>
<linearGradient id="paint2_linear" x1="220.567" y1="197.862" x2="136.933" y2="136.678" gradientUnits="userSpaceOnUse">
<stop stop-color="#00C6FF"/>
<stop offset="1" stop-color="#0072FF"/>
</linearGradient>
<linearGradient id="paint3_linear" x1="170.722" y1="312.657" x2="156.846" y2="330.061" gradientUnits="userSpaceOnUse">
<stop stop-color="#F5995B"/>
<stop offset="1" stop-color="#FB5F5C"/>
</linearGradient>
<linearGradient id="paint4_linear" x1="173.483" y1="315.567" x2="159.972" y2="332.508" gradientUnits="userSpaceOnUse">
<stop stop-color="#F5995B"/>
<stop offset="1" stop-color="#FB5F5C"/>
</linearGradient>
<linearGradient id="paint5_linear" x1="43.8875" y1="17.3152" x2="20.3532" y2="46.8435" gradientUnits="userSpaceOnUse">
<stop stop-color="#F5995B"/>
<stop offset="1" stop-color="#FB5F5C"/>
</linearGradient>
<linearGradient id="paint6_linear" x1="44.2276" y1="163.564" x2="316.305" y2="311.968" gradientUnits="userSpaceOnUse">
<stop stop-color="#00C6FF"/>
<stop offset="1" stop-color="#0072FF"/>
</linearGradient>
<linearGradient id="paint7_linear" x1="182.653" y1="307.614" x2="270.489" y2="171.633" gradientUnits="userSpaceOnUse">
<stop stop-color="#00C6FF"/>
<stop offset="1" stop-color="#0072FF"/>
</linearGradient>
<linearGradient id="paint8_linear" x1="312.96" y1="238.625" x2="348.474" y2="248.232" gradientUnits="userSpaceOnUse">
<stop stop-color="#1488CC"/>
<stop offset="1" stop-color="#2B32B2"/>
</linearGradient>
<linearGradient id="paint9_linear" x1="243.84" y1="159.834" x2="253.736" y2="209.021" gradientUnits="userSpaceOnUse">
<stop stop-color="#D0FFAE"/>
<stop offset="1" stop-color="#34EBE9"/>
</linearGradient>
<linearGradient id="paint10_linear" x1="288.752" y1="203.39" x2="303.759" y2="214.042" gradientUnits="userSpaceOnUse">
<stop stop-color="#D0FFAE"/>
<stop offset="1" stop-color="#34EBE9"/>
</linearGradient>
<linearGradient id="paint11_linear" x1="354.499" y1="254.013" x2="330.596" y2="236.533" gradientUnits="userSpaceOnUse">
<stop stop-color="#F3F7FF"/>
<stop offset="1" stop-color="#CDD9FF"/>
</linearGradient>
<linearGradient id="paint12_linear" x1="110.14" y1="122.758" x2="80.4033" y2="160.054" gradientUnits="userSpaceOnUse">
<stop stop-color="#D0FFAE"/>
<stop offset="1" stop-color="#34EBE9"/>
</linearGradient>
<linearGradient id="paint13_linear" x1="165.451" y1="298.024" x2="194.627" y2="316.809" gradientUnits="userSpaceOnUse">
<stop stop-color="#D0FFAE"/>
<stop offset="1" stop-color="#34EBE9"/>
</linearGradient>
<linearGradient id="paint14_linear" x1="207.799" y1="205.412" x2="206.128" y2="207.514" gradientUnits="userSpaceOnUse">
<stop stop-color="#00C6FF"/>
<stop offset="1" stop-color="#0072FF"/>
</linearGradient>
<linearGradient id="paint15_linear" x1="171.081" y1="178.495" x2="153.216" y2="200.907" gradientUnits="userSpaceOnUse">
<stop stop-color="#00C6FF"/>
<stop offset="1" stop-color="#0072FF"/>
</linearGradient>
<linearGradient id="paint16_linear" x1="114.022" y1="171.586" x2="111.551" y2="174.691" gradientUnits="userSpaceOnUse">
<stop stop-color="#00C6FF"/>
<stop offset="1" stop-color="#0072FF"/>
</linearGradient>
<linearGradient id="paint17_linear" x1="101.648" y1="134.931" x2="89.3627" y2="150.33" gradientUnits="userSpaceOnUse">
<stop stop-color="#00C6FF"/>
<stop offset="1" stop-color="#0072FF"/>
</linearGradient>
<linearGradient id="paint18_linear" x1="80.1781" y1="111.145" x2="77.7519" y2="114.191" gradientUnits="userSpaceOnUse">
<stop stop-color="#00C6FF"/>
<stop offset="1" stop-color="#0072FF"/>
</linearGradient>
</defs>
</svg>
