<svg width="1922" height="1057" viewBox="0 0 1922 1057" fill="none" xmlns="http://www.w3.org/2000/svg">
<path d="M1921 205.7L1919.01 146.6C1843.66 93.1996 1766.52 34.3002 1671.57 32.2002C1670.87 32.2002 1670.08 32.2002 1669.38 32.2002C1503.85 35.8002 1407.51 212.2 1242.98 230.8C1213.32 234.1 1183.26 232.1 1153.69 235.4C1112.69 240 1073.57 254.8 1035.05 269.5C973.34 293 911.629 316.5 849.918 340C827.822 348.4 805.128 357 781.439 358C699.821 361.8 668.568 307.1 550.819 286.4C522.85 281.5 493.388 283.2 465.419 278.5C440.735 274.3 429.985 271.8 409.482 257.4C362.601 224.4 334.433 211.7 277.5 214.3C220.567 211.7 192.399 224.4 145.518 257.4C125.114 271.8 114.364 274.3 89.5803 278.5C61.6113 283.2 32.1494 281.5 4.18041 286.4C3.98135 286.4 2.38881 286.5 0 286.5V1056.2H1921V205.7Z" fill="url(#paint0_linear)"/>
<path opacity="0.3" d="M798.559 495.9C789.999 464.8 753.272 450.5 736.749 422.6C719.729 393.9 723.61 351.3 723.212 318.1C730.578 342.8 738.341 369.4 752.774 390.8C764.917 408.8 781.539 423.6 793.682 441.6C803.934 456.7 810.902 473.9 813.987 491.8" fill="#003154"/>
<path opacity="0.3" d="M814.484 484.9C801.744 466.7 787.809 447.9 767.703 438.7C749.588 430.4 728.885 430.999 708.978 432.099C681.905 433.699 653.737 436.3 630.247 450C642.191 447.8 653.737 443.899 665.88 444.599C697.432 446.399 703.802 448.699 724.207 456.599C731.274 459.399 745.706 463.2 751.977 467.5C769.196 479.1 783.827 480.6 798.857 495" fill="#003154"/>
<path opacity="0.3" d="M797.763 464.8C807.218 437.6 825.632 428.9 854.397 428.9C881.869 428.9 906.752 429.7 926.559 420.7C911.53 436.9 894.708 456.4 874.205 464.6C845.539 476.1 813.489 461.7 805.228 491.7" fill="#003154"/>
<path opacity="0.3" d="M776.661 457.8C721.917 454.3 666.278 466.7 618.203 493.2C668.965 464.9 728.586 470.3 786.415 476" fill="#003154"/>
<path opacity="0.3" d="M786.814 439.1C785.619 426.6 786.017 419.3 791.392 408C793.084 404.4 797.563 393.5 799.554 390.1C805.028 380.9 814.484 362.4 815.778 351.8C815.678 375.2 806.322 415.2 804.033 438.5C803.734 441.5 803.535 444.6 804.133 447.6C805.128 452.5 808.313 457.1 807.517 462" fill="#003154"/>
<path opacity="0.3" d="M1193.11 581.9C1201.67 550.8 1238.4 536.5 1254.92 508.6C1271.94 479.9 1268.06 437.3 1268.46 404.1C1261.09 428.8 1253.33 455.4 1238.9 476.8C1226.75 494.8 1210.13 509.6 1197.99 527.6C1187.74 542.7 1180.77 559.9 1177.68 577.8" fill="#003154"/>
<path opacity="0.3" d="M1177.19 570.9C1189.93 552.7 1203.86 533.9 1223.97 524.7C1242.08 516.4 1262.78 516.999 1282.69 518.099C1309.76 519.699 1337.93 522.3 1361.42 536C1349.48 533.8 1337.93 529.899 1325.79 530.599C1294.24 532.399 1287.87 534.699 1267.46 542.599C1260.4 545.399 1245.96 549.2 1239.69 553.5C1222.47 565.1 1207.84 566.6 1192.81 581" fill="#003154"/>
<path opacity="0.3" d="M1193.91 550.8C1184.45 523.6 1166.04 514.9 1137.27 514.9C1109.8 514.9 1084.92 515.7 1065.11 506.7C1080.14 522.9 1096.96 542.4 1117.46 550.6C1146.13 562.1 1178.18 547.7 1186.44 577.7" fill="#003154"/>
<path opacity="0.3" d="M1215.01 543.8C1269.75 540.3 1325.39 552.7 1373.47 579.2C1322.7 550.9 1263.08 556.3 1205.25 562" fill="#003154"/>
<path opacity="0.3" d="M1204.86 525.1C1206.05 512.6 1205.65 505.3 1200.28 494C1198.59 490.4 1194.11 479.5 1192.12 476.1C1186.64 466.9 1177.19 448.4 1175.89 437.8C1175.99 461.2 1185.35 501.2 1187.64 524.5C1187.94 527.5 1188.13 530.6 1187.54 533.6C1186.54 538.5 1183.36 543.1 1184.15 548" fill="#003154"/>
<path opacity="0.3" d="M291 386C297.133 357.7 295.387 360.799 311.116 336.299C313.886 331.899 321.009 321.299 322.492 316.299C323.68 311.999 324.966 294.6 326.548 290.4C329.417 282.9 337.826 279.9 343.465 274.2C349.103 268.4 351.082 263.9 355.336 264.7C343.761 283.4 350.191 285.899 347.718 297.299C345.245 308.699 352.665 311.9 352.269 323.5C352.071 328.2 351.774 334.5 350.983 339.2C350.29 343.3 344.751 354.199 343.366 358.099C340.101 367.399 341.486 373.499 340.596 383.299C339.013 399.199 340.743 391.8 335.5 407C330.653 420.9 333.067 416.3 330 423" fill="#003154"/>
<path opacity="0.3" d="M249 334C245.5 326.5 251.053 339.3 235.324 309C232.554 303.6 225.431 290.6 223.948 284.5C222.76 279.2 221.474 257.6 219.892 252.4C217.023 243.1 208.614 239.5 202.975 232.4C197.337 225.3 195.358 219.8 191.104 220.7C202.679 243.7 196.249 246.9 198.722 261C201.195 275.1 193.775 278.9 194.171 293.2C194.369 299 194.666 306.9 195.457 312.6C196.15 317.7 201.689 331.2 203.074 336C206.339 347.5 205.61 350.8 206.5 363C210.156 367.9 220 378.2 222.5 380C226 382.5 232 386 234 388.5" fill="#003154"/>
<path opacity="0.3" d="M250 404C233.432 380.7 246.958 397.4 226.896 382.5C223.303 379.8 214.42 373.4 211.326 369.5C208.631 366.1 199.848 350.501 197.054 347.401C191.963 341.901 185.975 343.2 180.186 340.7C174.397 338.2 171.203 334.8 169.207 337.8C184.378 349.4 181.983 355.001 188.57 364.401C195.157 373.801 192.562 380.301 198.251 390.901C200.547 395.201 203.641 400.901 206.236 404.901C208.532 408.301 215.603 412.4 217 416.5C220.393 426.3 216.007 413.6 219.5 423.5C220.378 426 221.5 428 223 431" fill="#003154"/>
<path opacity="0.3" d="M296 367C296.424 366.2 299.319 355.2 302 351C305.5 345.5 313.811 338 314.029 325.1C314.527 295.7 293.724 294.2 298.601 265.1C299.796 257.6 309.151 235.4 308.555 221.6C308.252 214.6 306.564 209.1 301.986 201C301.886 197.6 279.69 176.1 276.704 170.6C272.225 155.1 279.392 147.4 274.714 121.6C270.036 147.4 252.916 152.4 250.726 172.9C250.328 176.3 256.299 189.1 259.285 199.1C262.769 210.8 254.309 224.1 250.726 231.6C247.441 238.5 239.081 259.4 240.375 266.9C245.252 295.9 248.834 288.7 249.332 318.1C249.431 323.2 246.891 341.2 245 346C243.706 349.3 235.391 386 233.5 389C243.5 389 247.832 399.5 249.332 405C249.332 405 266 384 279.5 382.5C285.665 381.8 286 384.5 292 387.5C292 381.5 293.5 374.5 293.5 374.5C293.5 370.5 295.5 368 296 367Z" fill="#003154"/>
<path opacity="0.3" d="M1656 265.5C1649.87 237.2 1651.49 239.799 1635.76 215.299C1632.99 210.899 1625.87 200.299 1624.39 195.299C1623.2 190.999 1621.91 173.6 1620.33 169.4C1617.46 161.9 1609.05 158.9 1603.41 153.2C1597.78 147.4 1595.8 142.9 1591.54 143.7C1603.12 162.4 1596.69 164.899 1599.16 176.299C1601.63 187.699 1594.21 190.9 1594.61 202.5C1594.81 207.2 1595.1 213.5 1595.9 218.2C1596.59 222.3 1602.13 233.199 1603.51 237.099C1606.78 246.399 1605.39 252.499 1606.28 262.299C1607.87 278.199 1611.63 283.2 1616.87 298.4C1621.72 312.3 1615.93 297.8 1619 304.5" fill="#003154"/>
<path opacity="0.3" d="M1690 259.5C1696.13 224.6 1695.83 218.3 1711.55 188C1714.32 182.6 1721.45 169.6 1722.93 163.5C1724.12 158.2 1725.4 136.6 1726.99 131.4C1729.86 122.1 1738.26 118.5 1743.9 111.4C1749.54 104.3 1751.52 98.8002 1755.77 99.7002C1744.2 122.7 1750.63 125.9 1748.16 140C1745.68 154.1 1753.1 157.9 1752.71 172.2C1752.51 178 1752.21 185.9 1751.42 191.6C1750.73 196.7 1745.19 210.2 1743.8 215C1740.54 226.5 1741.89 228.3 1741 240.5C1736 248.5 1726 256.5 1721.5 260.5C1715.5 265.8 1709 271.5 1705.5 275" fill="#003154"/>
<path opacity="0.3" d="M1705.5 275C1708 272.5 1715.86 264.5 1719.98 261.5C1723.58 258.8 1732.46 252.4 1735.55 248.5C1738.25 245.1 1747.03 229.501 1749.83 226.401C1754.92 220.901 1760.9 222.2 1766.69 219.7C1772.48 217.2 1775.68 213.8 1777.67 216.8C1762.5 228.4 1764.9 234.001 1758.31 243.401C1751.72 252.801 1754.32 259.301 1748.63 269.901C1746.33 274.201 1743.24 279.901 1740.64 283.901C1738.35 287.301 1737.29 289.3 1737 290C1736 292.5 1735.54 293.5 1735 295C1734.46 296.5 1734.1 297.4 1732 302" fill="#003154"/>
<path opacity="0.3" d="M1647 234C1645.43 230.9 1639.5 225 1639.5 222C1635.5 216.5 1632.85 209.2 1632.85 204.1C1632.35 174.7 1653.15 173.2 1648.28 144.1C1647.08 136.6 1637.73 114.4 1638.32 100.6C1638.63 93.5996 1640.31 88.1 1644.89 80C1644.99 76.6 1667.19 55.0996 1670.17 49.5996C1674.65 34.0996 1667.49 26.3996 1672.16 0.599609C1676.84 26.3996 1693.96 31.4004 1696.15 51.9004C1696.55 55.3004 1690.58 68.0996 1687.59 78.0996C1684.11 89.7996 1692.57 103.1 1696.15 110.6C1699.44 117.5 1707.8 138.4 1706.5 145.9C1701.63 174.9 1698.04 167.7 1697.55 197.1C1697.45 202.2 1698.61 207.7 1700.5 212.5C1698.5 217.5 1696.42 230.5 1695.5 233.5C1690.5 249.9 1692 255.5 1690 259L1688 258C1688 258 1682.5 253 1675.5 254C1668.5 255 1665.5 257 1665.5 257L1656.5 264.5C1653.5 255 1652.5 245 1647 234Z" fill="#003154"/>
<path opacity="0.3" d="M1865.9 392.5C1819.2 364.7 1801.2 341.4 1781.9 332.6C1718.4 304 1698.5 257.3 1679.1 253.9C1679.1 253.3 1679.1 253 1679.1 253C1678.9 253.1 1678.7 253.3 1678.5 253.4C1678.4 253.4 1678.4 253.3 1678.3 253.3C1678.3 253.3 1678.3 253.4 1678.3 253.5C1650.5 253.5 1639.1 303.5 1575.5 332.2C1556.2 340.9 1538.2 364.3 1491.5 392.1C1385.8 454.8 1327.5 506.6 1287 526.8C1194.6 572.9 1105.1 575.5 1005.4 548.8C919.6 525.8 856.5 483.2 752.9 471.4C701.3 465.6 654.3 502.3 604.8 517.9C555.3 533.4 493.9 534.4 459.2 495.8C447.8 483.1 431.8 476.6 418.1 466.4C393.1 447.7 364.6 444.4 337.9 428.1C316.8 415.2 303.1 387.4 281.5 382.5L281.195 382.4C281.095 382.4 280.5 382.5 280.336 382.4C280.048 382.2 279.5 382.9 278.8 382.8C257.2 387.8 243.4 415.6 222.3 428.4C195.6 444.7 167.1 447.9 142.1 466.7C128.4 477 112.4 483.4 101 496.1C76.4 523.8 38 531.1 0 527.4V1054.5L281.5 1054.4C281.5 1054.3 281.5 1054.2 281.5 1054.1L1620.1 1054.5C1645.4 1055.1 1678.4 1054.6 1678.6 1053.7C1678.6 1053.5 1678.7 1053.3 1678.7 1053C1678.8 1053.3 1678.8 1053.6 1678.9 1054C1679.1 1054.9 1712 1055.3 1737.4 1054.8L1922 1054.7V427.4C1904.9 416.3 1886.3 404.6 1865.9 392.5ZM1678.8 1036.6C1678.8 1035.2 1678.7 1033.5 1678.8 1031.6C1678.8 1030.3 1678.8 1029 1678.8 1027.8C1678.8 1029.2 1678.8 1030.6 1678.8 1031.9C1678.8 1033.6 1678.8 1035.2 1678.8 1036.6Z" fill="#000640"/>
<defs>
<linearGradient id="paint0_linear" x1="0" y1="544.2" x2="1921" y2="544.2" gradientUnits="userSpaceOnUse">
<stop offset="0.000911931" stop-color="#3A6C8D"/>
<stop offset="1" stop-color="#336484"/>
</linearGradient>
</defs>
</svg>
