<svg width="324" height="518" fill="none" xmlns="http://www.w3.org/2000/svg"><path d="M274.067 307.748H2.334v149.086h271.733V307.748z" fill="url(#paint0_linear)"/><path d="M274.067 162.155c-30.134-15.358-60.067-17.576-84.434-12.919-16.15 3.105-16.25-3.881.017-3.714 40.667.388 51.783-14.915 84.417.776v15.857z" fill="url(#paint1_linear)"/><path opacity=".1" d="M270.4 345.117c-.65.665-1.417-.388-2.067-.721-.567-.277-1.117-.055-1.683.111-1.9.665-2.517 2.106-3.7 1.885-.117 0-.15.055-.034.11.467.222 1.4.111 1.417.111.533-.111 1.017-.388 1.533-.609.584-.278 1.167-.388 1.75-.278.534.111 1.067.499 1.6.666.417.11.834-.056 1.167-.998.067-.166.117-.333.017-.277z" fill="#B5E0F1"/><path opacity=".12" d="M82.45 359.698c-1.617.277-3.25.277-4.867-.166-1.433-.388-2.816-1.164-4.233-1.83-1.333-.61-2.633-.831-3.983-.332-1.35.499-2.667 1.497-4.017 2.051-1.433.61-2.9.721-4.35.388-.067 0-.067.166-.017.222 1.467.998 3 .998 4.5.443 1.45-.554 2.9-1.275 4.367-1.441 1.45-.166 2.9 0 4.35.388 2.717.776 5.55 2.55 8.25.554.117-.11.117-.277 0-.277z" fill="#B5E0F1"/><path opacity=".06" d="M178.75 325.267c-.717-.388-1.434-.221-2.15 0-.8.278-1.584.666-2.4.666-.8 0-1.6-.278-2.4-.666-.717-.332-1.45-.72-2.184-.72-.683 0-1.383.332-2 1.219-.033 0-.116.222-.116.277-.05.167-.034.278.05.167.033-.056.066-.056.116-.111 1.384-1.22 2.867 0 4.25.776.717.388 1.434.665 2.15.554.734-.111 1.467-.333 2.184-.61.4-.166.8-.388 1.2-.609.433-.277.866-.776 1.3-.776.066.055.083-.111 0-.167z" fill="#B5E0F1"/><path d="M58.467 333.086c-1.05-2.772-2.384-2.828-3.4-5.821a21.35 21.35 0 01-1.034-4.879c-.1-1.165-.133-2.329-.217-3.493a39.621 39.621 0 00-.333-3.327c-.15-1.22-.35-2.384-.533-3.548-.15-.887-.483-1.885-.634-1.996-.066-.056-.033.277-.033.499a13.664 13.664 0 01-.25 3.16c-.15.776-.283 1.552-.367 2.439-.2 1.996-.2 4.159-.3 6.266-.1 2.273-.233 4.49-.4 6.708-.116 1.497-.55 3.493-1.05 4.048h8.55v-.056z" fill="#87C8E1"/><path opacity=".6" d="M98.367 231.902c-.4-1.386-.867-2.44-1.3-3.66a20.715 20.715 0 01-1.167-4.324c-.284-1.83-.45-3.826-.384-5.877 0-.166.017-.333.034-.555.15-1.552.117-3.271.166-4.934.034-1.164-.15-1.386-.166-.277-.084 3.493-.883 7.041-.883 10.589 0 3.161.416 6.155.983 8.594.3 1.275.633 2.495 1.016 3.548.417 1.165.884 2.218 1.25 3.549.734 2.661 1.1 6.431 1.334 9.924.283 4.269.45 9.924.25 14.249-.05 1.109.15.887.233-.277.517-8.317.533-17.964-.45-25.837-.25-1.718-.533-3.326-.916-4.712zm26.133 43.189c-1.45 5.655-2.917 7.484-6.2 9.037-1.017.499-2.05 1.386-2.867 3.659-.217.61-.4 1.275-.567 2.051a4.67 4.67 0 00-.116.555 55.805 55.805 0 00-.8 5.211c-.117 1.109.05 1.165.166.056.184-1.719.617-3.715.95-5.212.3-.942.934-.388 1.334-.554.4-.166.816-.333 1.216-.499a6.629 6.629 0 002.617-1.996c1.75-2.218 2.95-6.986 4.233-11.31.234-.777.284-1.83.034-.998zm24.333 16.301c-.616-1.608-1.166-2.717-1.416-5.212-.15-1.497.083-5.322.133-6.819.05-1.442.167-2.883 0-4.214-.283-2.384-.85-3.77-1.517-4.934-.85-1.442-1.75-2.606-2.683-3.327-.233-.166-.333-.055-.133.277.766 1.22 1.916 2.939 2.433 4.768.517 1.83.4 4.602.55 7.097.1 1.497-.017 3.659.133 5.045.117 1.165.3 2.273.534 3.271.466 2.052 1.166 3.771 1.916 4.491.217.167.234.056.05-.443z" fill="#A9D5E4"/><path d="M157.117 358.978s-5.667-.609-6.05 5.6c-.45 7.263 5.4 17.021 5.983 15.081 0 0-.233-1.553-.333-3.382a29.038 29.038 0 01-.05-1.719c-.034-6.154.85-7.873.45-15.58zm59.3 6.764s4.25-1.22 5.3 4.657c1.833 10.423-3.084 25.947-4.85 29.662 0 0 .633-6.154.333-16.411-.317-9.647-.983-13.972-.783-17.908zM169.6 387.198s-.8.887-1.9 2.052c-1.417 1.497-2.117.499-2.3 1.774-.233 1.552-.117 6.487 1.083 11.976 1.284 5.821 2.817 7.595 2.984 7.373 0 0-.55-5.1-.55-11.809.016-1.497.883-7.817.683-11.366zm70.317-21.622s1.9-.998 4.533-4.269c1.617-1.996 3.267-5.378 3.883-5.212 0 0 1.434-.832 3.067 1.663 1.85 2.883 3.9 9.148 3.617 9.037-5-2.55-15.067-.277-15.1-1.219z" fill="#B5E0F1"/><path opacity=".5" d="M90.466 411.538c-.75-2.329-1.666-3.937-2.4-6.265-.416-1.331-.733-2.883-.933-4.658-.216-1.996-.283-4.102-.466-6.154-.35-3.714-1.317-6.043-2.384-7.263-1.433-1.608-3.017-2.384-4.517-2.107-.333.056-.366.388-.116.499 1.05.388 2.116 1.22 3.033 2.883.933 1.719 1.6 5.323 2.15 8.428.517 2.938.9 6.209 1.65 8.593.417 1.331.917 2.274 1.4 3.272.45.942.883 1.995 1.267 3.16.916 2.716 2.433 8.15 2.45 12.419 0 .721.067-2.439.083-2.994.1-3.825-.383-7.263-1.217-9.813zm161.805-2.329c-.633-2.772-1.933-3.881-2.816-5.821-.934-2.052-2.084-2.44-3.034-4.325-.833-1.663-1.516-4.158-2.133-6.598-.6-2.439-1.15-4.989-1.717-7.484-.016-.111-.033-.222-.066-.278-.084-.221-.184-.055-.234.167a1.917 1.917 0 00-.05.554c.2 3.604.617 7.041 1.2 10.146.517 2.717 1.167 5.156 1.917 7.152.833 2.218 1.767 3.771 2.717 5.378.966 1.664 1.933 3.382 2.733 5.877.767 2.329 1.65 3.937 2.083 7.097.084.61 4.117 20.902 4.134 20.348.083-4.159-4-28.997-4.734-32.213zM157.1 398.897c-1.45 7.152-4.767 11.809-7.1 13.694-1.3 1.054-2.583 2.384-3.733 4.768-1.017 2.107-1.9 4.879-2.684 7.929-.916 3.548-1.7 7.429-2.483 11.31-.133.665.067.943.217.277.283-1.386 1.05-3.881 1.083-3.991 3.333-10.923 8.383-12.253 12.067-21.457.966-2.439 1.816-5.378 2.433-8.871.117-.721.333-4.324.2-3.659zm-94.284 44.576c-1.083-7.762-3.5-12.087-5.916-13.916-1.383-1.054-2.834-1.054-4.167-2.717-1.366-1.719-2.533-4.491-3.65-7.54-.533-1.442-1.083-2.828-1.733-3.604-.6-.721-1.267-.942-1.883-.443-.067 0-.117.11-.15.277-.067.332-.017.887.1.998 1.2 1.552 2.35 3.659 3.366 6.265.5 1.275.967 2.606 1.417 4.103.45 1.496.816 3.271 1.283 4.601.484 1.386 1.084 1.719 1.7 1.719.633-.055 1.267-.277 1.9-.333 1.317-.055 2.684.333 3.917 2.052 1.416 1.94 2.966 6.819 3.983 10.479.183.609-.083-1.276-.167-1.941z" fill="#B5E0F1"/><g opacity=".44"><path opacity=".44" d="M158.967 333.086h-92c2.35 1.663 4.85 3.105 6.117 8.039.566 2.218 2.483 16.079 2.85 18.296.583 3.604 2.033-5.267 2.633-6.597.883-1.885 3.917-9.481 5.033-10.535.534-.499 1.1-.942 1.517-1.885.333-.776.533-1.718.8-2.605.666-2.052 1.883-2.107 2.933-2.052 1.284.111 3.717 9.869 4.184 7.208.416-2.384 3.583-8.206 5.5-9.426 1.016-.554 2.399-.388 3.416.111 1.983.943 6.85 1.109 8.767 2.551 1.933 1.441 2.816 2.606 5.966 2.107.917-.167 3.167 1.829 3.867 1.164 2.3-2.218 3.05 3.825 5 2.495 6.417-4.38 5.617.111 7.617 1.33.933.555 1.533 4.713 1.816 5.046.784.942 1.267-3.05 2.15-3.327 1.884-.61 3.7-2.051 5.6-2.439 1.967-.388 8.7-.998 9.5-2.052 1.834-2.328 6.817-6.431 6.734-7.429z" fill="url(#paint2_linear)"/><path opacity=".44" d="M158.967 333.086h-92c2.35 1.663 4.85 3.105 6.117 8.039.566 2.218 2.483 16.079 2.85 18.296.583 3.604 2.033-5.267 2.633-6.597.883-1.885 3.917-9.481 5.033-10.535.534-.499 1.1-.942 1.517-1.885.333-.776.533-1.718.8-2.605.666-2.052 1.883-2.107 2.933-2.052 1.284.111 3.717 9.869 4.184 7.208.416-2.384 3.583-8.206 5.5-9.426 1.016-.554 2.399-.388 3.416.111 1.983.943 6.85 1.109 8.767 2.551 1.933 1.441 2.816 2.606 5.966 2.107.917-.167 3.167 1.829 3.867 1.164 2.3-2.218 3.05 3.825 5 2.495 6.417-4.38 5.617.111 7.617 1.33.933.555 1.533 4.713 1.816 5.046.784.942 1.267-3.05 2.15-3.327 1.884-.61 3.7-2.051 5.6-2.439 1.967-.388 8.7-.998 9.5-2.052 1.834-2.328 6.817-6.431 6.734-7.429z" fill="url(#paint3_linear)"/><path opacity=".44" d="M49.934 333.086c.5.333.933 1.663 1.05 2.661.166 1.442.3 2.939.4 4.436.1 1.386.1 2.772.3 4.102.083.61.216 1.054.366 1.608.184.666.284 1.331.25 2.107-.016.166-.033.388.034.333.166-.056.5-.776.633-1.331.2-.776.383-1.552.533-2.328.134-.721.25-1.442.334-2.218.066-.776.1-1.553.216-2.329a9.833 9.833 0 011.034-3.216c1.016-1.94 2.333-1.995 3.4-3.825h-8.55z" fill="url(#paint4_linear)"/><path opacity=".44" d="M49.934 333.086c.5.333.933 1.663 1.05 2.661.166 1.442.3 2.939.4 4.436.1 1.386.1 2.772.3 4.102.083.61.216 1.054.366 1.608.184.666.284 1.331.25 2.107-.016.166-.033.388.034.333.166-.056.5-.776.633-1.331.2-.776.383-1.552.533-2.328.134-.721.25-1.442.334-2.218.066-.776.1-1.553.216-2.329a9.833 9.833 0 011.034-3.216c1.016-1.94 2.333-1.995 3.4-3.825h-8.55z" fill="url(#paint5_linear)"/></g><path opacity=".05" d="M220.9 327.098c-2.65-1.275-5.334-1.386-7.95-.333-5.6 2.273-5.417.278-8.134-.055-.733-.111-1.466-.277-2.216-.333-.667-.055-1.35.388-1.967 1.22-.083.111-.067.166 0 .222h.033c2.617-.721 5.034 1.496 7.65 1.496 2.617 0 5.467-1.663 8.1-1.884 1.484-.111 2.9-.499 4.384-.222.1.055.183-.111.1-.111z" fill="#B5E0F1"/><path opacity=".12" d="M200.117 337.299c-2.217-1.607-4.517-.166-6.734.499-1.183.333-2.366.499-3.55.333-1.2-.167-2.383-.721-3.566-1.164-1.217-.444-2.467-.499-3.667.332-.05.056-.033.167.017.167 1.183-.278 2.383-.167 3.55.277 1.1.443 2.166 1.274 3.266 1.662 1.1.388 2.167.222 3.25-.277 1.15-.554 2.284-1.164 3.45-1.496a9.58 9.58 0 013.967-.166c.1.055.1-.111.017-.167z" fill="#B5E0F1"/><path opacity=".08" d="M250.233 336.079c-.75-.388-1.516-.222-2.283 0-.85.277-1.683.61-2.533.61-.85 0-1.684-.277-2.534-.61-.766-.332-1.533-.665-2.3-.665-.733 0-1.45.333-2.1 1.109-.033 0-.116.221-.133.277-.05.166-.033.221.05.111.033-.056.067-.056.117-.111 1.466-1.109 3.016 0 4.483.665.75.332 1.5.609 2.267.499a11.609 11.609 0 002.3-.555c.433-.166.85-.332 1.266-.554.45-.277.917-.72 1.384-.665.1.111.116-.055.016-.111zm-64.866 31.326c-.367 0-.717-.333-1.05-.499a7.423 7.423 0 00-.967-.444c-.583-.222-1.183-.388-1.766-.443-.584-.111-1.167.055-1.75.277-1.117.443-2.317 1.109-3.434.333-.033 0-.066-.056-.083-.056-.067-.055-.067-.055-.033.111.016.055.066.166.1.166.5.555 1.05.832 1.616.832.6.055 1.184-.166 1.767-.333.65-.221 1.283-.388 1.933-.332.65.055 1.3.277 1.95.499.584.221 1.167.332 1.75.11.05-.11.034-.221-.033-.221z" fill="#B5E0F1"/><path opacity=".1" d="M203.467 379.99c-.334-.832-.767-1.053-1.2-.943-.55.167-1.1.555-1.65.61-.6.111-1.217 0-1.817-.277-.533-.222-1.033-.443-1.583-.61-.017 0-.984-.166-1.45.111-.134.056-.1.166.033.111 1.233-.222 1.867 1.164 3.833 1.774.584.167 1.15.388 1.734.111.666-.277 1.466-1.331 2.133-.665.083.111.033-.056-.033-.222z" fill="#B5E0F1"/><path opacity=".08" d="M172.867 350.05c-.517 0-1.034-.499-1.534-.776a7.593 7.593 0 00-1.416-.665 14.851 14.851 0 00-2.567-.72c-.867-.167-1.7 0-2.55.277-1.633.554-3.383 1.496-5.017.277-.05-.056-.083-.056-.133-.111-.083-.111-.1-.055-.05.111.017.055.1.222.15.277.717.831 1.533 1.219 2.35 1.275.867.055 1.733-.167 2.583-.444.934-.277 1.884-.443 2.834-.388.95.056 1.883.444 2.833.832.85.277 1.7.499 2.55.221.083-.055.067-.166-.033-.166z" fill="#B5E0F1"/><path opacity=".06" d="M237.817 355.597c-2.833-.777-5.667-.998-8.5-.499-1.4.221-2.817.665-4.217.887-.7.111-1.4.166-2.083-.056-.683-.222-1.367-.61-2.05-.998-1.4-.831-2.85-1.608-4.25-.222-.083.056-.017.167.017.167 1.366-.167 2.8.665 4.133 1.552.65.444 1.267 1.165 1.917 1.442.683.277 1.333-.222 2.016-.388.7-.167 1.4.111 2.1.166.667 0 1.334-.222 2-.554a13 13 0 014.2-1.054 66.502 66.502 0 014.7-.166c.117-.056.117-.222.017-.277z" fill="#B5E0F1"/><path d="M293.05 390.803c-.4.554-.8 1.108-1.183 1.718.45.333.733-2.106 1.183-1.718z" stroke="url(#paint6_linear)" stroke-miterlimit="10"/><path opacity=".44" d="M274.067 307.748H192.25c2.083 1.83 4.317 3.382 5.433 8.815.5 2.44 2.2 17.576 2.534 20.015.533 3.937 1.8-5.766 2.35-7.207.783-2.052 3.483-10.368 4.483-11.532.483-.555.983-.998 1.35-2.052.3-.831.467-1.885.717-2.827.6-2.273 1.683-2.329 2.616-2.218 1.134.111 3.317 10.756 3.734 7.928.366-2.606 3.2-8.981 4.883-10.312.9-.61 2.133-.444 3.033.111 1.767.998 6.084 1.22 7.8 2.827 1.717 1.553 2.517 2.828 5.3 2.274.817-.167 2.817 2.051 3.434 1.275 2.033-2.44 2.7 4.213 4.45 2.716 5.7-4.768 5 .167 6.766 1.497.834.61 1.367 5.157 1.617 5.489.7 1.054 1.117-3.326 1.917-3.659 1.683-.665 3.3-2.273 4.983-2.661 1.75-.444 7.733-1.109 8.45-2.273 1.617-2.606 6.033-7.097 5.967-8.206z" fill="url(#paint7_linear)"/><path d="M323 28.581H2.334v428.431H323V28.582z" fill="url(#paint8_linear)"/><path d="M274.067 162.155c-30.134-15.358-60.067-17.576-84.434-12.919-16.15 3.105-16.25-3.881.017-3.714 40.667.388 51.783-14.915 84.417.776v15.857z" fill="url(#paint9_linear)"/><path d="M268.1 299.599c-.717-1.164-6.683-1.83-8.45-2.273-1.683-.444-3.3-2.052-4.983-2.662-.784-.277-1.217-4.712-1.917-3.659-.25.388-.783 4.879-1.617 5.489-1.766 1.331-1.066 6.265-6.766 1.497-1.75-1.442-2.417 5.156-4.45 2.717-.634-.721-2.617 1.441-3.434 1.275-2.8-.555-3.6.721-5.3 2.273-1.716 1.552-6.033 1.774-7.8 2.828-.9.499-2.133.72-3.033.111-1.7-1.331-4.517-7.763-4.883-10.313-.417-2.883-2.584 7.818-3.734 7.928-.933.111-2.016.056-2.616-2.217-.25-.943-.417-1.996-.717-2.828-.367-1.053-.883-1.497-1.35-2.051-1-1.165-3.7-9.426-4.483-11.532-.55-1.442-1.817-11.144-2.35-7.208-.334 2.495-2.034 17.575-2.534 20.015-1.116 5.433-3.35 6.986-5.433 8.815h81.817c.066-1.164-4.35-5.655-5.967-8.205zm-48.35-65.535c-.417 1.22.366 6.487.866 9.925.817 5.655 1.05 7.984 1.167 11.088.167 4.824-.5 6.82-.417 6.931.084.111 1.317-4.269 1.217-9.758-.1-5.212-.167-7.485.233-9.758.367-2.162.067-5.489 1.634-4.99 0 0-1.217-.832-2.184-1.663-1.15-1.054-2.516-1.775-2.516-1.775z" fill="#87C8E1"/><path d="M322.983 238.942c-5.948 4.816-12.165 11.181-18.383 19.76 0 0-18.333-5.59-26.106-25.405 0 0-.895 9.575-1.892 23.412-.135 1.882-2.467-8.855-2.602-6.863v58.227h49l-.017-69.131z" fill="#B5E0F1"/><path opacity=".44" d="M40.8 333.086v10.867c10.533 5.101 23.583 14.193 26.2 14.304 2.4.111 3.25-.832 6.183-.166 2.867.665 3.65 2.55 7.067 4.324 2.833 1.497 3.716.777 6.283 2.218 4.633 2.661 10.133 9.814 10.584 8.982 1.85-3.216 7.666-9.703 8.333-13.584 1.266-7.207-.184-13.029-.184-13.029 2.15-1.94 5.967 2.384 16.35 3.937 3.867.554 8.517-.167 11.984.277 9.266 1.109 9.766 2.661 12.433 1.885 4.1-1.22 6.367-4.38 10.65-10.368 3.783-5.267 5.667-7.928 5.467-9.592l-121.35-.055z" fill="url(#paint10_linear)"/><path d="M145.888 467C257.295 467 323 325.388 323 140.239V1c-7.613 0-92.863.733-176.322.733C63.212 1.733 10.121 1 3 1v129.712C3 315.861 34.48 467 145.888 467z" fill="#DCEFF9" stroke="#fff" stroke-width=".25" stroke-miterlimit="10"/><path d="M160.1 314.135c78.9 0 142.8-60.335 142.8-134.691S239 44.753 160.1 44.753 17.3 105.088 17.3 179.444s63.9 134.691 142.8 134.691z" fill="#FFFCE8" fill-opacity=".5"/><path d="M160.101 275.146c55.999 0 101.399-42.877 101.399-95.704 0-52.827-45.4-95.704-101.399-95.704-56 0-101.4 42.877-101.4 95.704 0 52.827 45.4 95.704 101.4 95.704z" fill="#FFF7BD" fill-opacity=".5"/><path d="M158.099 229.375c29.3 0 53-22.343 53-50.023 0-27.68-23.7-50.023-53-50.023-29.299 0-52.999 22.343-52.999 50.023 0 27.68 23.7 50.023 52.999 50.023z" fill="#FEF4A2"/><path d="M323 307.46H2.334v149.552H323V307.46z" fill="url(#paint11_linear)"/><path opacity=".6" d="M2.333 304.2v-56.662c9.45-22.289 35.35-50.121 35.35-50.121 3 4.546 16.667 25.947 19.5 24.395 4.45-2.384 10.117-10.091 10.934-11.421 1.7-2.828 13.833-.167 18.367 2.106 0 0 8.716-10.09 12.833-9.924 2.366.111 9.533 17.298 23.816 50.01 1.084 2.495 8.95-7.651 8.95-7.651 5.184 4.712 9.5 29.551 9.5 29.551 3.65 5.045 3.3 25.337 4.667 29.773L2.333 304.2zM323 307.46V162.198l-37.91 22.433c-3.213 5.194-17.875 29.837-20.921 28.069-4.77-2.763-10.846-11.603-11.716-13.15-1.825-3.26-14.829-.221-19.7 2.431 0 0-9.339-11.603-13.758-11.382-2.544.11-10.226 19.946-25.541 57.519-1.171 2.873-9.59-8.841-9.59-8.841-5.557 5.415-10.193 33.981-10.193 33.981-3.917 5.802-3.548 29.119-5.004 34.202H323z" fill="#ACDCF6"/><path d="M310.006 366.349c-3.657-1.72-4.709-3.329-9.269-9.655-4.543-6.27-21.244 4.55-26.154 6.603-4.91-2.053-21.628-12.817-26.155-6.603-4.559 6.326-5.611 7.935-9.269 9.655-10.438 4.882-19.106-7.99-22.213-1.11-.601 1.332 1.654 20.807.401 34.679-1.002 11.041-46.513 17.034-47.532 10.431-1.687-10.82.835-21.362 0-23.97-2.656-8.489-11.958-3.274-12.426-6.603-1.102-7.823.535-12.595.067-20.696-.401-6.936-25.937-16.368-39.449-3.717-15.532 14.481-27.607 20.03-39.215 22.138-.267.056.435 7.657.168 7.713-.502.055-5.73-2.996-5.896-4.494-.752-6.714-25.77-4.994-32.083-3.163v-.111c-6.213-1.831-31.4-3.496-32.15 3.218-.168 1.554-5.395 4.605-5.896 4.494-.267-.055.434-7.657.167-7.712-.25-.056-.518-.111-.768-.167v79.678h38.58v.055H323v-91.607c-3.691 1.61-8.15 3.163-12.994.944z" fill="url(#paint12_linear)"/><path d="M2.333 333.086v-39.032c13.884-18.296 31.05-50.786 34.5-51.285 3.167-.443 4.267 3.049 8.15.665 3.784-2.328 4.8-9.148 9.3-15.524 3.734-5.267 4.9-2.716 8.267-8.039 6.1-9.592 13.35-35.095 13.934-32.268 2.433 11.477 10.083 34.874 10.983 48.624 1.683 25.836-.25 46.794-.25 46.794 2.817 6.93 7.867-8.594 21.533-14.194 5.1-2.106 11.217.555 15.784-.942 12.2-3.992 12.866-9.592 16.366-6.709 5.4 4.38 8.384 15.746 14.034 37.258 4.983 18.961 7.466 28.442 7.2 34.486l-159.8.166z" fill="#FAFDFF"/><path d="M40.8 333.085c.3-3.16 1.55-7.928 1.55-7.928 2.583-7.928 21.15-50.231 23.916-50.675 2.534-.443 3.167 4.38 6.25 1.996 3.017-2.329 3.917-13.583 7.5-19.959 2.984-5.267 3.9-2.828 6.617-8.04 2.717-5.211 5.633 10.535 6.1 13.307 1.95 11.476 4.533 21.345 5.25 35.095 1.334 25.837 6.233 28.997 8.617 28.83 4.65-.221 6.866-17.021 17.8-22.62 4.083-2.107 9.633 2.107 13.3.776 4.566-1.663 6.1-10.701 8.9-7.873 4.316 4.38 10.066 15.58 14.583 37.091H40.8z" fill="#B5E0F1"/><path d="M.8 332.919c.3-3.16 1.55-7.928 1.55-7.928 2.583-7.928 21.15-50.231 23.916-50.675 2.534-.443 3.167 4.38 6.25 1.996 3.017-2.328 3.917-13.583 7.5-19.959 2.984-5.267 3.9-2.828 6.617-8.04 2.717-5.211 5.633 10.535 6.1 13.307 1.95 11.476 4.534 21.345 5.25 35.095 1.334 25.837 6.233 28.997 8.617 28.831 4.65-.222 6.867-17.021 17.8-22.621 4.083-2.107 9.633 2.107 13.3.776 4.566-1.663 6.1-10.701 8.9-7.873 4.316 4.38 10.066 15.58 14.583 37.091H.8z" fill="#B5E0F1"/><path d="M152.267 321.72c-.8-1.608-7.517-2.55-9.5-3.105-1.9-.554-3.717-2.827-5.6-3.714-.884-.444-1.367-6.543-2.15-5.046-.267.499-.884 6.764-1.817 7.651-1.983 1.83-1.2 8.705-7.617 2.052-1.966-2.052-2.716 7.152-5 3.77-.7-1.054-2.95 1.996-3.866 1.774-3.15-.776-4.034.998-5.967 3.216-1.917 2.162-6.783 2.495-8.767 3.881-1.016.721-2.4.998-3.416.111-1.9-1.885-5.084-10.756-5.5-14.305-.467-3.992-2.9 10.812-4.184 10.978-1.05.111-2.266.056-2.933-3.105-.283-1.275-.467-2.772-.8-3.936-.417-1.442-.983-2.052-1.517-2.828-1.133-1.608-4.166-13.084-5.033-15.967-.617-1.996-2.05-15.414-2.633-9.98-.367 3.437-2.284 24.395-2.85 27.777-1.267 7.485-3.767 9.702-6.117 12.253h92c.05-1.664-4.933-7.873-6.733-11.477z" fill="#87C8E1"/><path d="M183.333 216.367s1.24 6.901 2.865 17.335c.318 2.043 2.11 1.325 2.462 3.644.435 2.926-.57 8.889-.118 12.091 2.546 18.218 5.142 40.632 5.46 58.023H323v-80.438c-14.789 13.747-24.336 1.877-33.263 3.754-8.089 1.712-17.2.276-27.652-2.263-.887-.221.218 3.202-.703 2.981-.72-.165-3.467-3.975-4.221-4.196-19.512-5.024-43.513-12.587-73.828-10.931z" fill="#FAFDFF"/><path d="M192.233 307.748c.267-12.363.45-23.341.584-32.933.033-3.16 1.2-1.996 1.233-4.879.05-4.712-1.05-13.195-1.033-17.132.033-7.263.016-13.195 0-17.852-.017-1.719.316-1.83.3-3.216 0-.887-.35-3.16-.367-3.937a337.19 337.19 0 00-.083-5.488c3.266.998 7.55 2.106 12.533 4.102.283.111-.233 5.267.767 8.483 1.333 4.269.55 14.637.916 15.302.267.499 1.167-4.989 1.4-12.031.167-5.322.284-10.368.484-10.257 10.116 4.602 22.5 12.919 34.916 30.328 0 0 18.084-5.6 25.75-25.449 0 0 .884 9.592 1.867 23.453.133 1.885 2.433-8.871 2.567-6.875v58.271h-81.834v.11z" fill="#B5E0F1"/><path d="M242.633 273.873c-.6 0-2.783-1.331-5.583-12.863-2.35-9.703-5.9-16.245-5.9-16.245-1.033-1.774-2.633-3.881-2.633-3.881 5.016 4.491 10.183 10.146 15.366 17.409 0 0 18.084-5.6 25.75-25.448 0 0 .817 6.431.817 9.591 0 0-3.367 14.637-11.983 13.528-4.167-.498-15.834 17.909-15.834 17.909zm-240.3 59.046H48.3c.066-1.552-4.9-7.762-6.717-11.31-.8-1.608-7.517-2.551-9.5-3.105-1.9-.555-3.717-2.828-5.6-3.715-.883-.443-1.367-6.542-2.15-5.045-.267.499-.883 6.764-1.817 7.651-1.983 1.83-1.2 8.705-7.616 2.051-1.967-2.051-2.717 7.153-5 3.771-.7-1.054-2.95 1.996-3.867 1.774-1.75-.388-2.8-.056-3.717.72l.017 7.208z" fill="#87C8E1"/><path d="M323 236.692c-3.29-.946-6.394-.445-9.11 2.895 0 0-29.441 26.836-44.304-6.903 0 0-1.586 10.912-1.586 16.368 0 0 6.495 24.943 23.181 23.05 8.081-.947 30.655 30.454 30.655 30.454.253 0 .641-.111 1.164-.445v-65.419z" fill="#87C8E1"/><path d="M2.367 474.815c2.605 7.609 8.15 13.94 11.507 14.384 16.517 2 32.267-8.331 48.684-12.996 8.3-2.333 16.6-5.554 24.951-4.721 14.263 1.389 28.342 14.44 42.504 10.053 4.844-1.5 9.587-5.054 14.464-5.61 13.511-1.61 25.853 19.384 39.331 22.327 18.605 4.055 36.391-26.492 54.946-21.271 4.209 1.166 8.384 4.221 12.61 3.721 4.041-.5 7.899-4.221 11.891-5.887 6.881-2.833 13.912.722 20.742 4.221 13.512 6.942 28.576 35.656 38.981 38.655.05 0 0-1.555 0-1.666v-7.109c-.017-1.222.017-7.665.017-12.83 0-.833-.017-27.103 0-31.602.016-7.72-.017-7.164-.017-12.274v-.444c-.017-.722-1.102.833-1.687 1.222-3.323 2.166-6.814 2.221-10.221 2.166-31.866-.222-63.715-.389-95.58-.611l-53.678-.333-58.036-.334c-29.01-.166-58.02-.333-87.03-.555-5.811-.056-12.492-7.22-14.412 3.277" fill="#94D8F0"/><path d="M37.23 437.181c-2.054.172-3.885.903-5.85.344-3.973-1.119-7.411-3.657-10-6.797a.932.932 0 00-.18-.216c-2.634-3.226-4.465-6.969-5.938-10.798-1.295-3.398-2.411-6.969-2.143-10.583.223-3.399 1.83-6.883 4.733-8.733.178-.129.357-.215.535-.344 3.26-1.764 8.038-.99 9.868 2.194 5.894 10.325 7.144 23.317 8.975 34.933z" fill="#B0C9CC"/><path d="M91.392 407.625c-.938 9.465-3.974 18.757-9.064 26.931H31.605a61.414 61.414 0 01-6.921-15.617c-.268-.946-.536-1.892-.76-2.882 0-.043-.044-.086-.044-.172a68.514 68.514 0 01-1.429-8.991c-.893-10.196.67-20.564 4.644-30.029a56.504 56.504 0 011.741-3.7c2.099-4.173 4.689-8.131 6.475-12.476.446-1.118.848-2.28 1.16-3.441.894-3.356 1.072-6.884 0-10.153h40.99c-1.116 3.398-.848 7.055.09 10.497.312 1.075.67 2.108 1.071 3.097 1.741 4.345 4.331 8.303 6.474 12.476 5.403 10.626 7.457 22.715 6.296 34.46z" fill="#FFFBF2"/><path d="M45.356 330.746c-1.384-.688-2.813-1.291-4.33-1.42-1.519-.129-3.17.344-4.153 1.549-.804.989-.982 2.323-.804 3.528.268 1.807 1.295 3.484 2.813 4.603 2.099-2.624 4.376-5.636 6.474-8.26z" fill="#F7F3D6"/><path d="M40.579 337.63c-.848-.774-1.697-1.591-2.099-2.667-.401-1.076-.178-2.409.76-3.011.625-.388 1.473-.388 2.232-.259 1.072.215 2.099.689 2.902 1.42-1.473 1.592-2.5 2.839-3.795 4.517z" fill="#B0C9CC"/><path d="M67.28 330.746c1.384-.688 2.813-1.291 4.331-1.42 1.518-.129 3.17.344 4.153 1.549.804.989.982 2.323.804 3.528-.268 1.807-1.295 3.484-2.813 4.603-2.144-2.624-4.42-5.636-6.475-8.26z" fill="#F7F3D6"/><path d="M72.058 337.63c.848-.774 1.697-1.591 2.099-2.667.401-1.076.178-2.409-.76-3.011-.625-.388-1.473-.388-2.232-.259-1.072.215-2.099.689-2.902 1.42 1.428 1.592 2.5 2.839 3.795 4.517zm4.51 16.219c-4.331 5.507-9.823 15.1-19.602 15.1-9.868 0-14.958-10.368-19.423-16.046.893-3.356.045-2.539-1.027-5.808h40.99c-1.161 3.398-1.876 3.269-.938 6.754z" fill="#B0C9CC"/><path d="M80.899 349.075c-4.063 6.238-11.252 16.046-23.933 16.046-12.68 0-19.2-9.938-23.933-16.305 2.277-6.969 6.296-13.422 11.654-18.628.134-.043.268-.043.402-.086 8.126-1.591 14.78-1.419 23.04.258.089 0 .223.043.357.087 3.84 3.742 9.064 9.593 11.029 14.541a29.336 29.336 0 011.384 4.087z" fill="#FFFBF2"/><path d="M67.95 352.429c-.045.129-.134.259-.179.388-1.071 1.979-3.304 3.441-5.804 4.13-2.5.688-5.224.688-7.814.301-2.233-.301-4.465-.904-6.162-2.151-1.116-.775-1.965-1.893-2.233-3.055a3.411 3.411 0 010-1.893c.358-1.204 1.295-2.194 2.322-3.097 1.027-.904 2.188-1.721 2.992-2.71.848-1.033 1.34-2.324.938-3.485 2.857-1.119 7.858-.947 9.376-.258-.446 1.721.179 3.57 1.608 4.861.982.86 2.322 1.463 3.393 2.237.804.602 1.474 1.291 1.742 2.151.312.861.178 1.764-.18 2.581z" fill="#F7F3D6"/><path d="M51.786 348.258c.134-.602 1.161-.774 1.965-.86a57.216 57.216 0 016.072-.043c.715.043 1.697.129 1.786.688.447 3.012-4.822 5.808-4.822 5.808-.044 0-5.581-2.968-5-5.593z" fill="#240B00"/><path d="M76.835 437.181c2.054.172 3.885.903 5.85.344 3.974-1.119 7.412-3.657 10.001-6.797a.932.932 0 01.179-.216c2.634-3.226 4.465-6.969 5.939-10.798 1.339-3.398 2.411-6.969 2.187-10.583-.223-3.399-1.83-6.883-4.733-8.733-.178-.129-.357-.215-.535-.344-3.26-1.764-8.037-.99-9.868 2.194-5.939 10.325-7.234 23.317-9.02 34.933z" fill="#B0C9CC"/><path d="M92.731 430.771a.943.943 0 01.179-.215c2.634-3.227 4.465-6.969 5.938-10.798 1.34-3.399 2.411-6.97 2.188-10.583-.223-3.399-1.83-6.884-4.733-8.734a76.86 76.86 0 00-3.572 30.33z" fill="#FFFBF2"/><path d="M46.608 339.911c-2.233.775-4.286 1.936-6.028 3.485 1.875.817 3.795 1.678 5.805 1.85 5.18.387 6.474-2.797 6.162-3.528-.402-.86-1.653-3.269-5.94-1.807zm20.048 0c2.232.775 4.286 1.936 6.027 3.485-1.875.817-3.795 1.678-5.804 1.85-5.18.387-6.475-2.797-6.162-3.528.357-.86 1.607-3.269 5.939-1.807z" fill="#F7F3D6"/><path d="M49.063 344.344c-.536.258-1.295.387-2.278.344-.401-.043-.803-.086-1.205-.215-.76-.215-1.474-.559-2.188-.86.58-.56 1.295-.99 2.01-1.377.49-.258.982-.473 1.473-.645.491-.173.893-.259 1.25-.259 1.518-.086 2.01.904 2.188 1.291.179.301-.134 1.205-1.25 1.721zm17.235-2.755c1.294.43 2.5 1.118 3.482 2.022-1.071.473-2.188.989-3.349 1.075-2.991.215-3.75-1.635-3.572-2.065.224-.473.938-1.893 3.439-1.032z" fill="#FFFBF2"/><path d="M67.95 352.431c-.045.129-.134.258-.179.387-1.072 1.979-3.304 3.442-5.804 4.13-2.5.689-5.225.689-7.814.301-2.233-.301-4.465-.903-6.162-2.151-1.116-.774-1.965-1.892-2.233-3.054.804 1.205 2.233 2.065 3.617 2.667 2.367.99 4.599 1.377 7.412-.86 2.5 2.581 6.608 1.204 8.037.516a23.352 23.352 0 003.126-1.936zm14.422 82.125H31.604a61.423 61.423 0 01-6.92-15.616 53.453 53.453 0 01-.76-2.883c0-.043-.044-.086-.044-.172a68.514 68.514 0 01-1.43-8.991c.18-.387.358-.817.537-1.205 3.259-7.313 9.778-12.949 14.69-19.359.714 5.507 4.465 30.459 19.557 30.803 14.6.344 20.048-26.157 20.316-34.029 6.162 2.839 9.644 10.583 11.877 16.821.893 2.495 1.518 5.076 1.964 7.657-.893 9.551-3.929 18.8-9.02 26.974z" fill="#B0C9CC"/><path d="M77.773 418.038c-.67 5.851-2.411 11.358-5.045 16.563H39.954c-2.367-4.947-3.572-10.282-4.063-15.875 3.661 2.711 7.322 5.378 11.475 7.314 4.152 1.936 8.796 3.011 13.35 2.323 6.743-1.032 12.1-5.808 17.057-10.325z" fill="#94ADAF"/><path d="M44.151 339.008c.313 0 .58-.086.804-.258.803-.731 2.456-1.333 4.688-.774.536.129 1.072-.086 1.25-.43.179-.344-.089-.775-.58-.904-2.68-.688-5.403-.172-6.92 1.248-.313.301-.224.731.178.989.178.086.401.129.58.129zm25.094 0a1.28 1.28 0 01-.804-.258c-.804-.731-2.456-1.333-4.689-.774-.535.129-1.071-.086-1.25-.43-.178-.344.09-.775.58-.904 2.68-.688 5.404-.172 6.922 1.248.312.301.223.731-.179.989a1.419 1.419 0 01-.58.129z" fill="#F7F3D6"/><path d="M49.242 437.955h-17.19c-.939-1.85-1.787-3.7-2.59-5.55-1.876-4.388-3.483-8.862-4.734-13.422a55.385 55.385 0 01-.759-2.883c0-.043-.044-.086-.044-.172-2.992-12.949-1.965-26.759 3.215-39.063 5.849.086 12.591 5.421 15.761 10.153-4.599 16.563-1.607 31.448 4.912 47.581.491 1.076.938 2.194 1.429 3.356z" fill="#FFFBF2"/><path d="M44.91 437.353c0 .215-.044.387-.089.602h-12.77c-.938-1.85-1.786-3.7-2.59-5.55 5.716-.344 12.056 1.291 13.038 1.936 1.027.689 2.456 1.764 2.412 3.012z" fill="#F7F3D6"/><path d="M46.697 442.345c-1.072.473-2.68.775-4.51.947-.982.086-2.054.129-3.17.172-.893 0-1.786 0-2.68-.043a35.234 35.234 0 01-3.125-.258 35.801 35.801 0 01-2.41-.345 21.051 21.051 0 01-3.037-.688 8.333 8.333 0 01-1.965-.86c.313-3.141 3.215-5.421 6.385-6.195 5.85-1.377 13.217-.431 14.333.172 1.117.602 2.68 1.505 2.769 2.71.133 1.764-.938 3.657-2.59 4.388z" fill="#FFFBF2"/><path d="M31.336 439.719l-.536 3.098a21.05 21.05 0 01-3.036-.688 7.81 7.81 0 011.652-2.797c.268-.301.536-.559.938-.645.357-.086.848.043.982.387.045.172 0 .43 0 .645zm5.18.473c-.045 1.076-.134 2.108-.179 3.184a34.857 34.857 0 01-3.126-.259 8.215 8.215 0 011.34-3.14c.223-.301.491-.602.848-.774.358-.129.849-.043 1.027.258.134.258.09.516.09.731zm5.671 3.099c-.983.086-2.054.129-3.17.172-.045-1.162.223-2.28.67-3.356.178-.344.357-.688.67-.903.312-.215.803-.215 1.07.086.135.172.18.43.224.645.178 1.076.357 2.237.536 3.356z" fill="#240B00"/><path d="M64.78 437.956h17.19a103.955 103.955 0 007.368-19.015c.268-.947.536-1.893.76-2.883 0-.043.044-.086.044-.172 2.992-12.949 1.965-26.759-3.215-39.063-5.85.086-12.592 5.421-15.762 10.153 4.6 16.563 1.608 31.448-4.911 47.581-.491 1.119-.983 2.237-1.474 3.399z" fill="#FFFBF2"/><path d="M69.29 437.353c0 .215.045.387.09.602h12.77c.937-1.85 1.785-3.7 2.59-5.55-5.716-.344-12.056 1.291-13.039 1.936-1.071.689-2.5 1.764-2.41 3.012z" fill="#F7F3D6"/><path d="M67.325 442.345c1.071.473 2.679.775 4.51.947.982.086 2.053.129 3.17.172.893 0 1.786 0 2.679-.043a35.24 35.24 0 003.125-.258 35.801 35.801 0 002.411-.345 21.081 21.081 0 003.037-.688 8.333 8.333 0 001.964-.86c-.312-3.141-3.215-5.421-6.385-6.195-5.85-1.377-13.216-.431-14.333.172-1.116.602-2.679 1.505-2.768 2.71-.134 1.764.938 3.657 2.59 4.388z" fill="#FFFBF2"/><path d="M82.73 439.719l.536 3.098a21.05 21.05 0 003.036-.688 7.81 7.81 0 00-1.652-2.797c-.268-.301-.536-.559-.938-.645-.357-.086-.848.043-.982.387-.09.172-.045.43 0 .645zm-5.225.473c.045 1.076.134 2.108.179 3.184a34.854 34.854 0 003.126-.259 8.213 8.213 0 00-1.34-3.14c-.223-.301-.491-.602-.848-.774-.358-.129-.849-.043-1.027.258-.09.258-.09.516-.09.731zm-5.67 3.099c.982.086 2.054.129 3.17.172.045-1.162-.223-2.28-.67-3.356-.178-.344-.357-.688-.67-.903-.312-.215-.803-.215-1.071.086-.134.172-.179.43-.223.645-.179 1.076-.357 2.237-.536 3.356z" fill="#240B00"/><path d="M21.335 430.771a.946.946 0 00-.179-.215c-2.634-3.227-4.465-6.969-5.939-10.798-1.34-3.399-2.41-6.97-2.187-10.583.223-3.399 1.83-6.884 4.732-8.734a76.858 76.858 0 013.573 30.33z" fill="#FFFBF2"/><path d="M49.42 343.223c0 .43-.134.817-.357 1.119-.536.258-1.295.387-2.278.344-.401-.043-.803-.086-1.205-.215a2.038 2.038 0 01-.447-1.248c0-.344.09-.688.268-.989.491-.259.982-.474 1.474-.646.49-.172.893-.258 1.25-.258a2.038 2.038 0 011.295 1.893z" fill="#240B00"/><path d="M43.437 343.613c.58-.56 1.294-.99 2.009-1.377.491-.258.982-.473 1.473-.645.491-.173.893-.259 1.25-.259 1.519-.086 2.01.904 2.188 1.291l-6.92.99zm20.36-.39c0 .43.134.817.358 1.119.535.258 1.294.387 2.277.344.402-.043.803-.086 1.205-.215.268-.345.447-.775.447-1.248 0-.344-.09-.688-.268-.989a10.84 10.84 0 00-1.474-.646c-.49-.172-.893-.258-1.25-.258a2.038 2.038 0 00-1.295 1.893z" fill="#240B00"/><path d="M69.78 343.613c-.624-.56-1.294-.99-2.009-1.377a10.957 10.957 0 00-1.473-.645c-.491-.173-.893-.259-1.25-.259-1.518-.086-2.01.904-2.188 1.291l6.92.99z" fill="#240B00"/><path d="M39.687 369.681c-2.01-.172-4.198.388-5.448 1.936-1.473 1.807-1.25 4.431-.536 6.625 2.59 8.131 8.707 13.896 17.325 15.746 5.849 1.248 14.065.904 19.423-1.678 5.358-2.581 9.555-7.614 10.404-13.336.49-3.356-.626-7.443-3.93-8.647-2.724-1.033-5.715.301-8.483 1.247-4.957 1.721-10.315 2.323-15.584 1.764-2.321-.258-4.688-.645-6.831-1.506-2.099-.903-4.019-1.936-6.34-2.151z" fill="#FCFAFA"/><path d="M28.434 395.494c.268 1.248.67 2.495 1.474 3.485.803.989 2.143 1.677 3.438 1.419 1.429-.258 2.366-1.505 3.125-2.667a39.671 39.671 0 005.314-12.562c.625-2.839.937-5.98-.402-8.604-1.116-2.194-4.019-4.044-6.653-3.657-2.411.387-3.483 3.227-4.376 5.119-2.545 5.421-3.26 11.659-1.92 17.467zm56.662 0c-.268 1.248-.67 2.495-1.474 3.485-.803.989-2.143 1.677-3.438 1.419-1.429-.258-2.366-1.505-3.125-2.667a39.671 39.671 0 01-5.314-12.562c-.625-2.839-.938-5.98.402-8.604 1.116-2.194 4.019-4.044 6.653-3.657 2.411.387 3.483 3.227 4.376 5.119 2.545 5.421 3.26 11.659 1.92 17.467z" fill="#FCFAFA"/><path d="M203.704 322.761s-1.657-5.222-4.508-7.25c-2.883-2.027-6.297-1.628-6.861-1.013-.563.614 3.447 2.211 3.149 3.41-.298 1.198-2.552 2.488-2.552 2.488l10.772 2.365zm-47.896 21.104c1.558-.675 5.337-3.778 5.337-3.778l1.79.123s2.585 4.055 3.878 5.099c1.292 1.045 4.673 2.857 4.01 3.441-.662.583-8.021 0-9.38-1.843a2.88 2.88 0 01-.331-.523 2.168 2.168 0 01-.497.43c-1.89 1.414-9.082.031-9.58-.706-.43-.737 3.182-1.567 4.773-2.243z" fill="#27262C"/><path d="M225.713 346.17c1.193-1.598.298-7.312-2.586-11.244-2.883-3.932-10.673-9.615-19.125-12.81-8.087-3.072-15.777-3.164-23.103-.86-9.214 2.888-20.55 15.391-20.185 20.736 1.16 1.167 6.065-5.038 9.148-6.39 2.022-.891 11.037-4.424 18.86.031 9.446 5.406 33.345 15.329 36.991 10.537z" fill="#27262C"/><path d="M160.946 342.146c7.325-11.95 20.849-10.721 22.141-11.397 1.293-.676-4.607-3.041-1.591-4.424 3.017-1.382 10.375 4.762 12.463 7.189 2.088 2.426 11.402 5.59 14.054 6.727 2.652 1.137 5.502.952 7.093.676 1.591-.246 4.243 1.474 6.563 3.84 1.492 1.536 3.016 1.689 3.845 1.628-4.21 4.27-27.511-5.437-36.792-10.721-7.822-4.454-16.838-.922-18.86-.031-2.884 1.26-7.458 6.881-8.916 6.513zm47.001-9.954c1.293-.583 4.243 1.905 5.569 2.611 1.292.738 2.519 1.967.729 2.274-1.79.338-9.38-3.472-6.298-4.885z" fill="#F2F2F0"/><path d="M207.317 338.889s-2.552 6.144-9.314 6.728c-6.795.583-8.22-1.014-8.32-1.751-.066-.738 3.746-.062 5.867-1.997 2.089-1.936 3.646-4.885 5.072-5.622l6.695 2.642z" fill="#27262C"/><path d="M217.128 339.103c-.099.338.033.676.299.706.232.062.497-.184.563-.552.1-.338-.033-.676-.298-.706-.199 0-.464.215-.564.552z" fill="#020203"/><path d="M200.058 344.112c-.298 0-.298-.431 0-.462.331.031.298.462 0 .462zm-1.292.582c-.133.092-.233.154-.365.246-.033.031-.1.031-.133.031-.033.03-.099 0-.132 0s-.067-.031-.1-.062l-.099-.092c-.067-.061-.067-.154-.033-.246 0 0 0-.03.033-.061a.249.249 0 01.132-.123c.133-.092.232-.154.365-.246.033-.031.099-.031.133-.031.033-.03.099 0 .132 0s.067.031.1.062l.099.092c.066.061.066.154.033.246 0 0 0 .031-.033.061-.066.031-.099.092-.132.123zm-2.288.37c-.066 0-.166-.031-.265-.031-.033 0-.066-.031-.099-.062a4.356 4.356 0 01-.1-.092c-.033-.031-.033-.092-.033-.123-.033-.031 0-.092 0-.123 0 0 0-.031.033-.061.033-.031.066-.093.133-.123.033 0 .033-.031.066-.031h.166c.066 0 .166.031.265.031.033 0 .066.03.099.061l.1.092c.033.031.033.093.033.123.033.031 0 .093 0 .123 0 0 0 .031-.033.062a.25.25 0 01-.133.123c-.033 0-.033.031-.066.031h-.166zm4.939-1.229c-.033-.031-.066-.031-.099-.062a8.363 8.363 0 01-.1-.092c-.033-.03-.066-.061-.066-.092-.033-.031 0-.092 0-.123 0-.03 0-.061.033-.092 0-.03.033-.061.066-.061.034-.062.1-.062.133-.092h.1c.066 0 .099 0 .165.061.034.031.067.031.1.062l.099.092c.033.03.067.061.067.092.033.03 0 .092 0 .123 0 .03 0 .061-.034.092l-.066.061c-.033.031-.099.061-.133.092h-.099c-.099-.031-.133-.031-.166-.061zm-3.779.338c-.033.031-.099.031-.165.031h-.1c-.033 0-.033 0-.099-.031-.033 0-.067-.03-.067-.061-.033 0-.033-.062-.033-.093v-.061c0-.031 0-.062.033-.123l.034-.031c.033-.031.066-.061.099-.061.033-.031.099-.031.166-.031h.099c.033 0 .033 0 .1.031.033 0 .066.03.066.061.033 0 .033.062.033.092v.062c0 .031 0 .061-.033.123 0 .031-.033.031-.033.062-.033 0-.067 0-.1.03zm-2.685 1.136c-.066 0-.165-.031-.265-.031-.033 0-.066-.03-.066-.03s-.066-.031-.066-.062c0 0-.034-.061-.034-.092v-.093c.034-.061.067-.123.1-.123 0 0 .033-.03.066-.03.033-.031.1 0 .133 0 .066 0 .165.03.265.03.033 0 .066.031.066.031s.066.031.066.062c0 0 .034.061.034.092v.092c-.034.062-.067.123-.1.123 0 .031-.033.031-.066.031-.033.031-.1 0-.133 0zm24.396-12.196c-.132-.184-.265-.429-.431-.614-.066-.061-.066-.153-.033-.245 0-.062.066-.154.133-.184.165-.092.364-.031.431.122.132.185.265.43.431.614.066.062.066.154.033.246 0 .061-.066.153-.133.184-.132.061-.298.031-.431-.123zm-1.823-2.057c-.133-.061-.298-.123-.398-.184l-.099-.093c-.033-.03-.067-.061-.067-.092-.033-.031 0-.092 0-.123 0-.03 0-.061.034-.092a.335.335 0 01.199-.154h.099c.066 0 .099 0 .166.062.132.061.298.123.397.184l.1.092c.033.031.066.062.066.093.033.03 0 .092 0 .123 0 .03 0 .061-.033.092a.33.33 0 01-.199.153h-.099a.261.261 0 01-.166-.061zm-.133 1.382c-.099-.062-.165-.093-.265-.154l-.099-.092c-.033-.031-.067-.061-.067-.092-.033-.031 0-.092 0-.123s0-.061.034-.092c0 0 .033-.061.066-.061.033-.062.099-.062.132-.093h.1c.066 0 .099 0 .166.062.099.061.165.092.265.153l.099.092c.033.031.066.062.066.093.033.03 0 .092 0 .122 0 .031 0 .062-.033.092 0 0-.033.062-.066.062-.033.061-.1.061-.133.092h-.099a.261.261 0 00-.166-.061zm-1.823-2.427c-.066-.092-.132-.153-.198-.276-.067-.092-.067-.184-.1-.307-.033-.031 0-.092 0-.123s0-.061.033-.092l.1-.092c.033-.031.066-.061.099-.061.066-.031.199 0 .265.03a.46.46 0 01.166.184c.033.062.033.123.066.185 0-.031-.033-.031-.033-.062.033.092.1.154.133.215-.033 0-.033-.031-.067-.061h.034c.033.03.066.061.066.092.033.031.033.061.033.123a.322.322 0 01-.099.215.377.377 0 01-.232.092h-.067a.295.295 0 01-.199-.062zm5.536 3.931c-.1-.061-.166-.092-.265-.153l-.1-.092c-.033-.031-.066-.062-.066-.092-.033-.031 0-.092 0-.123s0-.061.033-.092c0 0 .033-.062.066-.062.033-.03.1-.061.133-.092h.099c.067 0 .1 0 .166.062.1.061.166.092.265.153l.1.092c.033.031.066.062.066.092.033.031 0 .093 0 .123 0 .031 0 .062-.033.092l-.066.062c-.034.061-.1.061-.133.092h-.099c-.067 0-.133 0-.166-.062zm-5.37-2.364l-.199-.092c-.033 0-.066-.031-.066-.061-.034 0-.033-.062-.033-.093v-.092c0-.031-.001-.031.033-.092l.033-.031c.033-.031.066-.061.099-.061h.067a.27.27 0 01.132.03l.199.093s.066.03.066.061c0 0 .033.062.033.092v.093c0 .03.001.03-.033.092l-.033.031c-.033.03-.066.061-.099.061h-.067c-.033-.031-.099-.031-.132-.031zm-1.756-1.628c-.033-.062-.067-.154-.1-.185-.033 0-.033-.061-.033-.092v-.092c0-.03.033-.061.033-.061 0-.031.033-.062.067-.062 0-.03.033-.03.066-.03.033-.031.099 0 .132 0 .034 0 .034 0 .067.03l.099.093c.033.061.066.153.1.184 0 0 .033.061.033.092v.092c0 .031-.033.061-.033.061 0 .031-.034.062-.067.062 0 .03-.033.03-.066.03-.033.031-.099 0-.133 0-.033 0-.033 0-.066-.03l-.099-.092zm.132-1.874c-.033-.03-.033-.061-.066-.092 0 0-.033-.061-.033-.092v-.092c.033-.031.033-.062.066-.093 0-.03.033-.061.066-.061s.033-.031.067-.031c.033-.031.099 0 .132 0s.033 0 .066.031l.1.092c.033.031.033.062.066.092a.3.3 0 00.033.093v.092c0 .031-.033.061-.033.061 0 .031-.033.062-.066.062 0 .031-.033.031-.067.031-.033.03-.099 0-.132 0 0 0-.033 0-.066-.031-.1 0-.133-.031-.133-.062zm-.663.339h-.232c-.033 0-.066-.031-.066-.031h-.033l-.066-.061c-.067-.031-.067-.093-.1-.154v-.092c-.033 0-.033-.031 0-.062 0-.031.033-.061.066-.061.034 0 .067-.031.1-.031h.066c.033 0 .066 0 .133.031l.033.03c.033.031.066.062.066.093 0 0-.033-.031-.033-.062.033 0 .033 0 .033.031-.033 0-.033-.031-.033-.062l.033.031c-.033 0-.033-.031-.066-.031.033 0 .033 0 .033.031 0 0-.033 0-.066-.031h.033-.066.033-.067.133c.033 0 .033 0 .099.031l.067.062s.033.061.033.092v.061c0 .031 0 .062-.033.123 0 .031-.033.031-.033.062 0-.031-.034 0-.067 0zm-1.293-1.322a29.71 29.71 0 00-.298-.184.169.169 0 01-.099-.154v-.092c0-.031 0-.031.033-.092.033-.062.099-.092.132-.092.067 0 .133 0 .199.03l.298.185c.067.03.1.092.1.153v.092c0 .031 0 .031-.033.092-.033.062-.1.092-.133.092-.066 0-.132 0-.199-.03zm-1.16.429c-.033 0-.099-.031-.165-.061-.033 0-.067-.031-.1-.062a8.311 8.311 0 01-.099-.092c-.033-.031-.033-.092-.033-.123-.033-.03 0-.092 0-.122 0-.031 0-.031.033-.062a.252.252 0 01.132-.123c.034 0 .034-.03.067-.03h.165c.034 0 .1.03.166.061.033 0 .066.031.1.061l.099.093c.033.03.033.092.033.122.033.031 0 .092 0 .123s0 .031-.033.062a.245.245 0 01-.133.122c-.033 0-.033.031-.066.031s-.099.031-.166 0zm-.927-1.29s-.033-.031-.067-.031c.034 0 .067 0 .067.031h-.067.067c0 .031-.033.031-.067.031.034-.031.067-.031.067-.031.033-.031 0 0 0 0h-.133c-.033 0-.066 0-.099-.031l-.1-.092c-.033-.03-.066-.061-.066-.092v-.092c0-.061 0-.092.066-.153 0-.031.033-.062.066-.062.034-.061.1-.061.133-.092h.033c.033 0 .067-.031.133 0a.32.32 0 01.166.031c.033 0 .033 0 .066.031.033 0 .066.03.099.03l.033.031.1.092c.033.031.066.061.066.092.033.031 0 .092 0 .123s0 .061-.033.092c0 .031-.033.061-.066.061-.033.062-.1.062-.133.092h-.099c-.133-.03-.199-.03-.232-.061z" fill="#42404B"/><path d="M142.89 422.485l1.163 3.35.582 1.04 2.909.424 6.316.192 1.87.424 1.455-2.272.083-.886-3.698-.539-3.907.077-3.2.077-1.703-3.043-1.87 1.156z" fill="#ED6944"/><path d="M144.178 423.794l.665 2.272 1.829.963.207.154-2.202-.346-.582-1.04-1.163-3.351.914-.578.332 1.926z" fill="#DC4D29"/><path d="M150.744 426.182l3.117.809.997.77-.997-.231-4.696-.115c-1.58-.578-3.283-1.233-3.491-1.541l.498-.347h1.455l3.117.655zm5.277-1.039l1.164.308-.042.193-1.038 1.694-1.704-.924-5.029-1.117-1.33-.423 1.995-.154 5.984.423z" fill="#E84325"/><path d="M147.917 427.107l-.415-.077-.333.193.748.347.499.347-.499-.81zm7.689.155l-.499.115-.083.193.582.538.79.308-.042-.5-.748-.654zm1.205-2.389l-.083.27.249.193.748-.077.54.115-.125-.347-1.329-.154z" fill="#020203"/><path d="M156.893 386.242l2.244.539 2.494 1.657 1.704 2.041.582 2.234.083 1.309-.582-.347-1.538.116-2.369.231-3.116-.578v-1.078l.498-6.124z" fill="#E84325"/><path d="M156.894 386.242l.873.193c.872.77 2.41 2.118 2.41 2.118l.416 1.81-.125 1.348-.166.963s-.624.424-.748.501c-.083.038-1.039.269-1.87.539l-1.164-.193-.041-1.117.415-6.162z" fill="#EB7A2E"/><path d="M157.309 386.319l2.244 2.465.291 1.695-.207 1.348s-.582.655-.749.77c-.166.077-1.496.347-1.496.347h-.955v-.539l.498-6.163.374.077z" fill="#EB7A2E"/><path d="M160.842 389.286l.333 1.31v1.116s-.167.694-.291.848c-.083.115-1.122 1.001-1.122 1.001l.914-.346.748-.771s.291-1.078.291-1.232c0-.077-.873-1.926-.873-1.926z" fill="#CF301C"/><path d="M161.881 390.557l.291 1.001.041.77-.332.577-.665.501-.54.115.956-.154.623-.577s.291-.693.291-.847c0-.116-.166-.886-.166-.886l-.499-.5z" fill="#CF301C"/><path d="M156.52 391.096l.041-.655 1.081.616.831.501s.914.385 1.039.385c.124 0 .914.077 1.039.116.124.038 1.039.346 1.039.346l1.08.501.582.77h-.166a7.6 7.6 0 01-.541-.578l-1.205-.539-1.579-.269-1.164-.308-2.077-.886z" fill="#F28C46"/><path d="M156.437 394.023l1.205-2.734.083-2.658-.499-2.464-.041-.039c-.665-.809-1.538-1.502-2.577-1.887-1.62-.693-3.366-1.079-5.111-1.194-2.036.732-3.74 2.08-4.821 3.851v.039c-.831 1.309-1.454 2.773-1.745 4.313l-.166 2.735-1.122 1.309a11.801 11.801 0 00-1.995 3.082l-.374.808-3.283 2.658a29.049 29.049 0 00-5.319 5.777l-.499.809-5.942 3.928c.166.347 2.992-.231 3.989-.423.208-.039.333-.077.333-.077l-3.117 2.464a21.583 21.583 0 00-3.075 2.966l-.374.501c-.25.308-.541.693-.79 1.04l-.582.808L117 422.64l1.205 2.002 1.704 1.117.873-.5a33 33 0 019.142-3.544l2.576.347 1.538.693 1.538 1.849 2.161 1.117 2.16-.963 1.039-1.04 3.2-1.425.748-.27a37.193 37.193 0 005.776-2.773l4.281-2.542c.54-.308.997-.693 1.454-1.078l3.283-2.889a9.18 9.18 0 001.662-2.079 9.38 9.38 0 00.831-2.35l.25-1.617c.125-.694.125-1.31.083-2.003a44.063 44.063 0 01-.166-1.964c0-.154-.624-1.271-1.081-2.196-.415-.847-1.08-1.617-1.828-2.233l-.707-.617-1.205-.616-1.08-3.043z" fill="#FFFEFA"/><path d="M139.524 423.872l1.33-3.274.166-.577c.582-1.656 1.537-3.12 2.826-4.391l.872-.847.374.077c1.33.308 2.785.346 4.198.115l6.316-1.232a6.03 6.03 0 001.912-.693l.415-.232a13.703 13.703 0 002.618-1.887l1.288-1.194c-.748 1.348-1.579 2.812-2.742 3.89l-1.829 1.695c-.207.192-.54.424-.831.693-1.163.925-2.452 1.695-3.74 2.388l-3.407 1.772c-.832.5-1.704.924-2.66 1.232l-2.452.886-3.2 1.425-1.039 1.04-2.16.963-.956-.501 2.701-1.348z" fill="#8C8B83"/><path d="M117.042 422.639l3.615-3.042.582-.809c.249-.347.54-.693.789-1.04l.374-.501a21.576 21.576 0 013.075-2.965l3.117-2.465s-.125.038-.332.077c-.998.192-3.865.809-3.99.423l6.026-4.044.499-.808a25.728 25.728 0 015.319-5.777l3.283-2.658.374-.809c.54-1.117 1.163-2.118 1.994-3.081l1.122-1.309.167-2.735c.291-1.54.914-2.965 1.745-4.313v-.039c1.081-1.772 2.784-3.081 4.821-3.851 1.745.115 3.49.539 5.111 1.194a6.216 6.216 0 012.576 1.925l.042.039.499 2.465-.083 2.657-1.206 2.735 1.039 2.965.125.039-1.122.192-1.33 1.849-2.161 1.772-2.742.886-2.702.308-1.122.077c-.415.963-.623 2.041-.54 3.081a7.642 7.642 0 01-.415 3.196l-.79 2.119c-.706 1.656-1.621 3.158-2.743 4.583l-.789.963-1.829 1.771-2.701 2.619-.083.116a11.957 11.957 0 00-1.538 3.466l-.955-1.117-1.538-.693-2.576-.347c-3.2.771-6.317 1.965-9.143 3.544l-.872.5-1.704-1.116-1.288-2.042z" fill="#020203"/><path d="M151.159 385.782l2.784-.578c.499-.077.956-.038 1.413.154.54.231.956.693 1.08 1.233l.707 2.234.498 2.233v.231l-1.205 2.696-.955.386-2.577.346-1.122-.346a12.122 12.122 0 01-4.654-2.773l-.914-1.002-.416-1.001a1.376 1.376 0 01.831-1.81l1.496-.617 3.034-1.386z" fill="#FFFEFA"/><path d="M145.84 390.019l3.989 1.656 2.868.616 2.742.192-1.288 2.042-1.247.154-1.288-.385a11.683 11.683 0 01-4.363-2.581l-1.081-1.001-.332-.693zm2.203-2.736l3.117-1.502.831-.154 1.413.578-.208 2.425-1.33-.385-1.953-.308-2.909-.154 1.039-.5z" fill="#8C8B83"/><path d="M150.951 394.101l2.66-.27 1.413-1.502.914-1.772 1.08-.847.541.27.207.962v.232l-1.246 2.811-.541.27c-.332.115-.706.231-1.038.269l-.915.116c-.831.115-1.662 0-2.41-.308l-.665-.231z" fill="#615A58"/><path d="M155.273 391.905l.706-1.271 1.081-.847.498.27.208.962v.231l-.332.809-1.288.231-.873-.385z" fill="#E05F1E"/><path d="M153.154 388.592l-1.33-.385-1.953-.308-2.909-.154.54-.193 3.699.231.955-.539.79-.886.374.501-.166 1.733z" fill="#615A58"/><path d="M152.115 387.244l.54-.616.79.732.041.693s-.124.308-.374.269c-.124-.038-.997-.423-1.62-.77l.623-.308z" fill="#E05F1E"/><path d="M152.115 387.244l.54-.616.79.693-.125.577-.499.038-.748-.346-.207-.192.249-.154z" fill="#020203"/><path d="M139.98 424.449l2.161 2.696 1.288.655 3.574.077 3.99.077 1.122 1.348.706 1.31-1.579.654-3.615.732-1.538.193-4.031-1.695-.997-1.502-.291-.886-2.992-2.734 2.202-.925z" fill="#ED6944"/><path d="M138.36 425.182l1.745 1.309 1.662 1.695.333 1.579.748 1.04-.748-.27-.998-1.502-.291-.886-2.992-2.734.541-.231z" fill="#DC4D29"/><path d="M143.388 429.379l2.368.539 2.66.924 2.909.424-3.615.731-.208.039-4.073-2.08-.041-.577zm1.746-.655l2.202-.077 2.66-.116 1.496-.077.748.886.706 1.309-.416.192-1.537-.308-2.493-.731c-.125-.039-3.242-.77-3.366-1.078z" fill="#E84325"/><path d="M146.588 431.959c-.042-.077-.291-.115-.291-.115l-.166.192.041.27.831.193.582.193-.997-.733zm4.987-1.115l-.332.154v.192l.706.154.665.116.125.077-.25-.424-.914-.269zm-.707-2.813l-.041.194.166.154.54-.039.54.078-.249-.309-.956-.078z" fill="#020203"/><path d="M234.508 278.463v4.834h2.207v12.861h-5.904v-17.695c0-.178.09-.311.209-.311h3.28c.119 0 .208.133.208.311z" fill="#F6F6F6"/><path d="M230.841 293.23h5.904v-2.971h-5.904v2.971z" fill="#D65229"/><path d="M232.838 288.795h.686v-2.084c0-.044-.03-.133-.06-.133h-.536c-.03 0-.06.044-.06.133v2.084h-.03z" fill="#C6C6C6"/><path d="M233.017 286.8h.358c.03 0 .06.044.06.089v.532c0 .045-.03.089-.06.089h-.358c-.03 0-.059-.044-.059-.089v-.532c0-.045 0-.089.059-.089z" fill="#546C82"/><path d="M232.838 283.296h.686v-2.085c0-.044-.03-.133-.06-.133h-.536c-.03 0-.06.044-.06.133v2.085h-.03z" fill="#C6C6C6"/><path d="M233.017 281.256h.358c.03 0 .06.044.06.089v.532c0 .044-.03.089-.06.089h-.358c-.03 0-.059-.045-.059-.089v-.532c0-.045 0-.089.059-.089z" fill="#546C82"/><path d="M233.286 278.152h.745v-3.903c0-.31-.149-.532-.358-.532h-.03c-.208 0-.357.222-.357.532v3.903z" fill="#3C3C3B"/><path d="M233.286 278.151h.745v-2.439c0-.311-.149-.532-.358-.532h-.03c-.208 0-.357.221-.357.532v2.439z" fill="#1D1D1B"/><path d="M232.302 278.152h.745v-3.903c0-.31-.149-.532-.358-.532h-.029c-.209 0-.358.222-.358.532v3.903z" fill="#3C3C3B"/><path d="M232.302 278.151h.745v-2.439c0-.311-.149-.532-.358-.532h-.029c-.209 0-.358.221-.358.532v2.439z" fill="#1D1D1B"/><path d="M231.318 278.152h.746v-3.903c0-.31-.149-.532-.358-.532h-.03c-.209 0-.358.222-.358.532v3.903z" fill="#3C3C3B"/><path d="M231.318 278.151h.746v-2.439c0-.311-.149-.532-.358-.532h-.03c-.209 0-.358.221-.358.532v2.439z" fill="#1D1D1B"/><path d="M231.08 275.935v2.217h.238l1.342-.976 1.342.976h.238v-2.217h-3.16zm2.802.177l-1.222.887-1.223-.887h2.445zm-1.103.976l1.342-.976v1.951l-1.342-.975zm-1.58-.976l1.342.976-1.342.975v-1.951z" fill="#3C3C3B"/><path d="M218.556 299.838h20.365v-4.036h-9.064v-5.499l.477-2.971h-3.191v-6.608h-9.332l.745 2.927v16.187z" fill="#EDEDED"/><path d="M221.687 282.941h5.456v-1.863h-5.009l-.447 1.863z" fill="#D65229"/><path d="M226.159 282.586h.239l.238-1.108h-.238l-.239 1.108zm-.476 0h.238l.239-1.108h-.239l-.238 1.108zm-.507 0h.239l.238-1.108h-.238l-.239 1.108zm-.477 0h.238l.239-1.108h-.239l-.238 1.108zm-.507 0h.238l.239-1.108h-.239l-.238 1.108zm-.477 0h.238l.239-1.108h-.239l-.238 1.108zm-.477 0h.238l.239-1.108h-.239l-.238 1.108zm-.507 0h.238l.239-1.108h-.239l-.238 1.108zm-.477 0h.238l.239-1.108h-.239l-.238 1.108z" fill="#546C82"/><path d="M217.811 280.724l.745 2.927h2.952l.746-2.927h-4.443z" fill="#F6F6F6"/><path d="M221.568 282.941l.418-1.863h-.805v1.863h.387zm-3.07 0l-.418-1.863h.805v1.863h-.387zm1.609 0h.984v-1.863h-.984v1.863zm-1.103 0h.984v-1.863h-.984v1.863z" fill="#546C82"/><path d="M218.557 286.978h2.951v-3.327h-2.951v3.327z" fill="#E6E6E6"/><path d="M220.764 286.978h.745v-3.327h-.745v3.327z" fill="#DEDEDE"/><path d="M218.557 286.978h.745v-3.327h-.745v3.327z" fill="#EDEDED"/><path d="M224.46 286.977h.656v-2.084c0-.045-.029-.133-.059-.133h-.537c-.03 0-.06.044-.06.133v2.084z" fill="#C6C6C6"/><path d="M224.61 284.938h.358c.03 0 .059.044.059.088v.533c0 .044-.029.088-.059.088h-.358c-.03 0-.06-.044-.06-.088v-.533c0-.044.03-.088.06-.088z" fill="#546C82"/><path d="M224.46 289.905h.656v-2.084c0-.045-.029-.133-.059-.133h-.537c-.03 0-.06.044-.06.133v2.084z" fill="#C6C6C6"/><path d="M224.61 287.908h.358c.03 0 .059.045.059.089v.532c0 .045-.029.089-.059.089h-.358c-.03 0-.06-.044-.06-.089v-.532c0-.044.03-.089.06-.089zm1.311-2.039h.478v-.755h-.478v.755zm-2.683 0h.477v-.755h-.477v.755zm-1.253 0h.477v-.755h-.477v.755zm7.425 3.326h.506l.179-1.109h-.477l-.208 1.109zm-.716 0h.477l.179-1.109h-.477l-.179 1.109zm-.805 0h.537l.179-1.109h-.746l.03 1.109zm-.238-1.109h-.746v1.109h.746v-1.109z" fill="#546C82"/><path d="M265.367 297.177h-.059l-7.752-1.774v.444l2.653 1.153h.03l4.532 1.996.596-1.819zm-3.667.178l-.537-.532.776-.134-.15.71-.089-.044zm-1.312-.577l.09-.443h.029l.358.354-.417.089h-.06zm.358-.355l.805.178-.507.088-.298-.266zm2.475 1.597l-.537-.665.745-.266-.208.931zm.328-.931l.417.665-.626.266.209-.931zm-.955.088l-.327-.443.954.222-.627.221zm-.536-.443l.387.532-.536.177h-.03l.179-.709zm.507.621l.417.532-.835-.355.418-.177zm1.49.576l.418.666-.954-.444.536-.222zm.12-.088l.894-.4-.387 1.154-.507-.754zm-.06-.133l-.388-.621 1.163.266-.775.355zm-5.933-1.908l2.176.488-.089.399-2.087-.887zm2.832 1.065l.328.355-.626-.266.298-.089z" fill="#FFA333"/><path d="M267.156 299.484h-2.683v-1.553c0-.621.328-1.153.775-1.153h1.163c.417 0 .775.532.775 1.153l-.03 1.553z" fill="#E38716"/><path d="M257.705 295.847h-.06v1.729h.06v-1.729zm-.209 0h-.059v1.729h.059v-1.729z" fill="#3C3C3B"/><path d="M257.824 295.625c0 .222-.119.399-.269.399-.149 0-.268-.177-.268-.399 0-.222.119-.399.268-.399.15 0 .269.177.269.399zm-.179 2.35v-.088c.09-.045.149-.178.12-.311 0-.133-.09-.221-.179-.266-.12-.044-.239.089-.239.311 0 .133.06.221.119.31v.133c0 .045.03.089.06.089.06 0 .119.089.09.222-.03.177-.209.133-.239 0-.03.177.06.266.149.266.119 0 .179-.133.209-.266.059-.311-.09-.4-.09-.4z" fill="#3C3C3B"/><path d="M265.129 297.576h-.15v1.331h.15v-1.331zm.387 0h-.149v1.331h.149v-1.331zm.388 0h-.149v1.331h.149v-1.331zm.358 0h-.149v1.331h.149v-1.331zm.387 0h-.149v1.331h.149v-1.331z" fill="#CC7914"/><path d="M228.753 286.977h.358v-10.732c0-.133-.089-.266-.179-.266-.089 0-.179.133-.179.266v10.732zm-.864 0h.358v-10.732c0-.133-.089-.266-.179-.266-.089 0-.179.133-.179.266v10.732z" fill="#1D1D1B"/><path d="M218.08 279.528h.239v-.489h-.239v.489z" fill="#DEDEDE"/><path d="M217.901 280.369h.864l-.357-.887c0-.045-.03-.044-.06-.044h-.268c-.03 0-.06.044-.06.088l-.119.843z" fill="#E6E6E6"/><path d="M217.334 279.173h1.729c.06 0 .12-.089.12-.178s-.06-.178-.12-.178h-1.729c-.06 0-.119.089-.119.178s.059.178.119.178zm5.457 1.196h.178V266h-.059l-.119 14.369zm-.924 0h.119v-7.007h-.06l-.059 7.007z" fill="#F6F6F6"/><path d="M224.4 273.274h.239v-.444h-.239v.444z" fill="#DEDEDE"/><path d="M224.281 273.717h.805l-.358-.532c0-.044-.029-.044-.059-.044h-.298c-.03 0-.06.044-.06.044l-.03.532z" fill="#E6E6E6"/><path d="M223.655 272.874h1.73c.059 0 .119-.089.119-.178s-.06-.177-.119-.177h-1.73c-.059 0-.119.088-.119.177 0 .134.06.178.119.178z" fill="#F6F6F6"/><path d="M224.192 273.007v.843h1.58l-.686 4.612.179.044.06-.399.954-1.109.775 1.065v.354h.179v-8.736h.656c.03 0 .06-.045.06-.089s-.03-.089-.06-.089h-.656v-1.153h-.119v-.221h.268v-.178h-.984v.178h.269v.221h-.12l-.03.133h-.626v.976h-.506c-.03 0-.06.044-.06.089 0 .044.03.088.06.088h.954l-.149 1.02h-1.789v.843h1.669l-.208 1.331h-1.64l-.03.177zm2.862-4.302v.222h-.358l.03-.222h.328zm-.209 2.173l.06.178h-.388l.09-.178h.238zm-.178-.089l.089-.177.06.177h-.149zm.178-.354l.209-.444v.754h-.089l-.12-.31zm-.447 2.572l.209-.355.149.355h-.358zm.418.089l.059.177h-.656l.12-.177h.477zm-.12-.621l.358-.665v1.153h-.149l-.209-.488zm.358.621v.177h-.03l-.059-.177h.089zm0-2.04l-.059-.178h.059v.178zm0 4.568l-.537-.932.537-.754v1.686zm-.059.177h-1.223l.686-.976.537.976zm-.955-1.951h.895l-.507.709-.388-.709zm0-.267l.12-.221h.745l.09.221h-.955zm.06-.487h.09l-.12.177h-.03l.06-.177zm-1.58-1.952h1.67l-.03.222h-1.64v-.222zm1.699-.266l-.029.178h-1.67v-.178h1.699zm.06.932l.268.62-.298.533h-.119l.149-1.153zm.06-.134h.626l-.358.666-.268-.666zm.149-.532h.477l.089.222h-.656l.09-.222zm-.09-.088l.03-.178h.06l-.09.178zm-.417-1.641h.447l-.03.177h-.417v-.177zm0-.399h.507l-.03.266h-.477v-.266zm.566-.355l-.03.266h-.536v-.266h.566zm.149 1.774l-.179.354h-.089l.119-.798.149.444zm-.089-.666h.417l-.238.488-.179-.488zm.03-.354h.417v.177h-.447l.03-.177zm.059-.399h.388v.266h-.417l.029-.266zm.358-.577h-.298v-.222h.298v.222zm-.686 8.515l.686-.798v1.729l-.686-.931zm-.626-.887h1.163l-.626.754-.537-.754zm-.119.089l.567.798-.805.931.238-1.729zm.328-2.173l.417.709-.656.887.239-1.596zm-1.67-.621h1.581l-.03.221h-1.551v-.221zm0-.266h1.61l-.029.177h-1.61l.029-.177z" fill="#F6F6F6"/><path d="M223.954 280.368h5.396v-2.572h-4.412l-.984 2.572z" fill="#EDEDED"/><path d="M225.921 280.37h.656v-2.085c0-.044-.029-.133-.059-.133h-.537c-.03 0-.06.045-.06.133v2.085z" fill="#C6C6C6"/><path d="M226.07 278.329h.358c.029 0 .059.044.059.089v.532c0 .045-.03.089-.059.089h-.358c-.03 0-.06-.044-.06-.089v-.532c0-.045.03-.089.06-.089z" fill="#546C82"/><path d="M217.841 280.724h11.778v-.355h-11.778v.355zm-.03-1.463v1.064h.06v-.31h1.878v.31h.06v-.31h1.908v.31h.059v-.31h1.909v.31h.059v-.31h1.908v.31h.06v-.31h1.908v.31h.06v-.31h1.878v.31h.06v-1.064h-11.807zm3.906.088v.222h-1.908v-.222h1.908zm1.968 0v.222h-1.909v-.222h1.909zm1.967 0v.222h-1.908v-.222h1.908zm1.938 0v.222h-1.908v-.222h1.908zm1.938.222h-1.878v-.222h1.878v.222zm-1.848.355v-.266h1.878v.266h-1.878zm-1.968 0v-.266h1.908v.266h-1.908zm-1.968 0v-.266h1.908v.266h-1.908zm-1.968 0v-.266h1.909v.266h-1.909zm-1.938 0v-.266h1.909v.266h-1.909zm-1.938-.266h1.879v.266H217.9v-.266zm0-.311h1.879v.222H217.9v-.222zm9.244 4.301h9.809v-.355h-9.809v.355zm1.938-1.374v.222h-1.938v.089h1.938v.266h-1.938v.088h1.938v.311h.059v-.311h1.908v.311h.06v-.311h1.908v.311h.06v-.311h1.908v.311h.06v-.311h1.61v.311h.059v-1.064h-9.541v.088h1.909zm3.935 0v.222h-1.908v-.222h1.908zm1.938 0v.222h-1.908v-.222h1.908zm1.7.222h-1.61v-.222h1.61v.222zm-1.64.399v-.266h1.61v.266h-1.61zm-1.938 0v-.266h1.908v.266h-1.908zm-1.968 0v-.266h1.908v.266h-1.908zm-1.968-.31h1.908v.266h-1.908v-.266zm0-.311h1.908v.222h-1.908v-.222zm-1.759 13.527h13.984v-.4h-13.984v.4z" fill="#3C3C3B"/><path d="M240.889 299.837h.238v-4.035h-.238v4.035zm-11.807-5.409v.221h-1.67v.089h1.67v.266h-1.67v.089h1.67v.31h.059v-.31h1.909v.31h.059v-.31h1.908v.31h.06v-.31h1.908v.31h.06v-.31h1.908v.31h.06v-.31h1.908v.31h.06v-.31h2.116v.31h.06v-1.064h-13.715v.089h1.64zm3.935 0v.221h-1.908v-.221h1.908zm1.938 0v.221h-1.908v-.221h1.908zm1.968 0v.221h-1.908v-.221h1.908zm1.968 0v.221h-1.908v-.221h1.908zm2.177.221h-2.117v-.221h2.117v.221zm-2.117.355v-.266h2.117v.266h-2.117zm-1.968 0v-.266h1.908v.266h-1.908zm-1.968 0v-.266h1.908v.266h-1.908zm-1.938 0v-.266h1.908v.266h-1.908zm-1.968 0v-.266h1.908v.266h-1.908zm-1.968-.266h1.909v.266h-1.909v-.266zm0-.31h1.909v.221h-1.909v-.221z" fill="#3C3C3B"/><path d="M237.579 296.956c0-.089-.03-.178-.119-.178-.537.089-2.326.222-3.668.222-1.52 0-3.786-.222-3.786-.222s.209 1.952 1.133 2.262c.656.222 4.8.133 5.665.133.089 0 .149-.089.179-.222.03-.31.089-.709.507-1.02l.089-.975z" fill="#FFA333"/><path d="M236.923 297.887c-.059.443-.298.975-.596.975s-4.293.045-4.592 0c-.298-.044-.834-.088-1.073-.487.149.399.537.576 1.133.62.507.045 4.294 0 4.532 0 .298 0 .537-.31.596-1.108zm-6.768-1.109c.507.045 2.355.222 3.637.222 1.193 0 2.743-.088 3.459-.177 0 0-1.461.533-3.876.444-2.415-.045-3.22-.489-3.22-.489z" fill="#C6C6C6"/><path d="M235.76 299.484h.596v-.311c0-.089-.029-.133-.089-.133h-.417c-.06 0-.09.044-.09.133v.311zm-3.637 0h.596v-.311c0-.089-.029-.133-.089-.133h-.417c-.06 0-.09.044-.09.133v.311z" fill="#3C3C3B"/><path d="M247.627 296.956c0-.089-.03-.178-.119-.178-.537.089-2.356.222-3.668.222-1.52 0-3.786-.222-3.786-.222s.208 1.952 1.133 2.262c.656.222 4.8.133 5.665.133.089 0 .149-.089.179-.222.029-.31.089-.709.506-1.02l.09-.975z" fill="#FFA333"/><path d="M247.001 297.887c-.06.443-.298.975-.596.975s-4.294.045-4.592 0c-.298-.044-.835-.088-1.073-.487.149.399.536.576 1.133.62.507.045 4.293 0 4.532 0 .268 0 .507-.31.596-1.108zm-6.798-1.109c.507.045 2.356.222 3.638.222 1.192 0 2.743-.088 3.458-.177 0 0-1.461.533-3.876.444-2.415-.045-3.22-.489-3.22-.489z" fill="#C6C6C6"/><path d="M245.808 299.484h.596v-.311c0-.089-.029-.133-.089-.133h-.417c-.06 0-.09.044-.09.133v.311zm-3.637 0h.596v-.311c0-.089-.03-.133-.089-.133h-.418c-.059 0-.089.044-.089.133v.311zm-14.759-7.629v-.088h3.399v.088h-1.67v.222h1.67v.089h-1.67v.266h1.67v.088h-1.67v.311h-.059v-.266h-1.67v-.089h1.67v-.266h-1.67v-.089h1.67v-.221l-1.67-.045zm-.03 1.376h3.429v-.355h-3.429v.355z" fill="#3C3C3B"/><path d="M216.351 286.136h.238v-.445h-.238v.445z" fill="#DEDEDE"/><path d="M216.171 287.066h.627l-.12-.976c0-.044-.03-.044-.03-.044h-.298c-.03 0-.03.044-.03.044l-.149.976zm.299-2.306h-.746v.089l.746.266v-.355zm0-.71h-.746v.089l.746.266v-.355z" fill="#E6E6E6"/><path d="M216.47 285.647c.059 0 .089-.044.089-.133v-2.572c0-.089-.03-.133-.089-.133-.06 0-.09.044-.09.133v2.572c0 .044.06.133.09.133z" fill="#F6F6F6"/><path d="M216.47 285.247c.208 0 .357.178.357.355h-.745c.03-.222.179-.355.388-.355z" fill="#E6E6E6"/><path d="M215.605 285.78h1.729c.06 0 .12-.089.12-.177 0-.089-.06-.178-.12-.178h-1.729c-.06 0-.119.089-.119.178 0 .088.059.177.119.177zm.209-1.729h.179v-.267c0-.044-.03-.089-.06-.089h-.059c-.03 0-.06.045-.06.089v.267zm0 .71h.179v-.267c0-.044-.03-.089-.06-.089h-.059c-.03 0-.06.045-.06.089v.267z" fill="#F6F6F6"/><path d="M216.112 287.333h14.222v-.355h-14.222v.355zm0-1.465v1.064h.059v-.31h2.117v.31h.06v-.31h1.908v.31h.06v-.31h1.908v.31h.06v-.31h1.908v.31h.059v-.31h1.909v.31h.059v-.31h1.908v.31h.06v-.31h2.117v.31h.06v-1.064h-14.252zm4.144.089v.222h-1.908v-.222h1.908zm1.968 0v.222h-1.908v-.222h1.908zm1.938 0v.222h-1.908v-.222h1.908zm1.968 0v.222h-1.908v-.222h1.908zm1.968 0v.222h-1.909v-.222h1.909zm2.176.222h-2.117v-.222h2.117v.222zm-2.117.399v-.266h2.117v.266h-2.117zm-1.968 0v-.266h1.909v.266h-1.909zm-1.938 0v-.266h1.909v.266h-1.909zm-1.967 0v-.266h1.908v.266h-1.908zm-1.968 0v-.266h1.908v.266h-1.908zm-1.968 0v-.266h1.908v.266h-1.908zm-2.177-.311h2.117v.266h-2.117v-.266zm0-.31h2.117v.222h-2.117v-.222zm14.64 3.948l.746-1.109h5.396v.355h-5.396l-.746 1.108h-6.857v-.354h6.857z" fill="#3C3C3B"/><path d="M225.146 288.928v.222h-1.192v.088h1.192v.266h-1.192v.089h1.192v.311h.06v-.311h1.908v.311h.06v-.311h1.908v.311h.06v-.311h1.61v.311h.059v-.311h.03l.716-1.064v.31h.059v-.31h1.372v.31h.059v-.31h1.909v.31h.059v-.31h1.61v.31h.06v-1.109h-5.099l-.745 1.109h-6.887v.089h1.192zm9.869-.798h1.61v.266h-1.61v-.266zm0-.311h1.61v.222h-1.61v-.222zm-1.938.311h1.908v.266h-1.908v-.266zm0-.311h1.908v.222h-1.908v-.222zm-1.461.311h1.372v.266h-1.372v-.266zm0-.311h1.372v.222h-1.372v-.222zm-.805 1.419l.746-1.064v.266h-.03l-.716 1.064v-.266zm0-.31l.746-1.109v.222h-.03l-.716 1.064v-.177zm-1.669.31h1.61v.266h-1.61v-.266zm0-.31h1.61v.222h-1.61v-.222zm-1.968.31h1.908v.266h-1.908v-.266zm0-.31h1.908v.222h-1.908v-.222zm-1.968.31h1.908v.266h-1.908v-.266zm0-.31h1.908v.222h-1.908v-.222zm4.353 9.536v.221h-1.461v.089h1.461v.266h-1.461v.089h1.461v.311h.059v-.311h1.908v.311h.06v-.311h1.908v.311h.06v-.311h1.908v.311h.06v-.311h1.908v.311h.06v-.311h1.908v.311h.059v-.311h1.909v.311h.059v-.311h1.908v.311h.06v-.311h1.908v.311h.06v-.311h1.908v.311h.06v-.311h1.908v.311h.059v-.311h1.909v.311h.059v-.311h2.117v.311h.06v-1.065h-25.343v.089h1.461zm21.646.31h2.117v.266h-2.117v-.266zm0-.31h2.117v.221h-2.117v-.221zm-1.938.31h1.908v.266h-1.908v-.266zm0-.31h1.908v.221h-1.908v-.221zm-1.968.31h1.908v.266h-1.908v-.266zm0-.31h1.908v.221h-1.908v-.221zm-1.968.31h1.908v.266h-1.908v-.266zm0-.31h1.908v.221h-1.908v-.221zm-1.968.31h1.908v.266h-1.908v-.266zm0-.31h1.908v.221h-1.908v-.221zm-1.968.31h1.909v.266h-1.909v-.266zm0-.31h1.909v.221h-1.909v-.221zm-7.901 0v.221h-1.908v-.221h1.908zm1.968 0v.221h-1.908v-.221h1.908zm1.968 0v.221h-1.908v-.221h1.908zm1.968 0v.221h-1.908v-.221h1.908zm1.938.266h-1.908v-.222h1.908v.222zm-1.908.355v-.311h1.908v.266h-1.908v.045zm-1.938 0v-.311h1.908v.266h-1.908v.045zm-1.968 0v-.311h1.908v.266h-1.908v.045zm-1.968 0v-.311h1.908v.266h-1.908v.045zm-1.968 0v-.311h1.908v.266h-1.908v.045zm-1.968-.311h1.908v.266h-1.908v-.266zm0-.31h1.908v.221h-1.908v-.221zm-31.664-3.016h6.381v-.533c0-.354-.179-.576-.388-.576h-5.575c-.239 0-.388.266-.388.576l-.03.533zm7.126 0l.179-.798c.03-.133.119-.222.209-.178l8.199.621-8.587.355z" fill="#3C3C3B"/><path d="M268.587 299.484l-.984-.755h-11.27l-2.952.755h2.445l.477-.355h11.032l.239.355h1.013z" fill="#D65229"/><path d="M246.285 308.53l-30.65.089c.089.178-10.048-.399-13.745-4.346l-4.89-6.608.477-2.572h17.174l1.461-7.717h7.841v2.971h3.429v6.608l1.729 2.573h39.476l1.73 1.463h1.938c.417 0 .745.488.745 1.109 0 .222-.06.443-.179.621-.417.621-1.52 2.084-3.25 2.661l-3.697 2.572-6.619.355-12.97.221z" fill="#F6F6F6"/><path d="M273 302.1c0 .222-.06.444-.179.621-.328.532-1.163 1.641-2.415 2.306h-16.28l-3.935 1.464h-44.783c-2.236-.577-2.386-1.065-3.519-2.218l-2.713-3.681h30.681l-.746-1.109h39.476l1.729 1.464h1.938c.418 0 .746.532.746 1.153z" fill="#1D1D1B"/><path d="M197.12 296.912l.357-1.863h17.174l.984 1.863H197.12z" fill="#D65229"/><path d="M221.985 289.549h.746v-1.109h-.746v1.109zm-1.938 0h.746v-1.109h-.746v1.109zm-2.206 0h.746v-1.109h-.746v1.109zm4.144 2.971h.746v-1.109h-.746v1.109zm-1.938 0h.746v-1.109h-.746v1.109zm-2.206 0h.746v-1.109h-.746v1.109zm4.144 2.928h.746v-1.109h-.746v1.109zm-1.938 0h.746v-1.109h-.746v1.109zm-2.206 0h.746v-1.109h-.746v1.109zm-1.729 0h.477v-1.109h-.477v1.109zm0-2.928h.477v-1.109h-.477v1.109zm5.873 5.855h.746v-1.108h-.746v1.108zm1.969-5.855h.745v-1.109h-.745v1.109zm0 2.928h.745v-1.109h-.745v1.109zm0 2.927h.745v-1.108h-.745v1.108zm1.967-5.855h.746v-1.109h-.746v1.109zm0 2.928h.746v-1.109h-.746v1.109zm0 2.927h.746v-1.108h-.746v1.108zm-5.874 0h.746v-1.108h-.746v1.108zm-2.206 0h.746v-1.108h-.746v1.108z" fill="#546C82"/><path d="M229.857 300.592h40.042l-1.282-1.109h-39.475l.715 1.109z" fill="#D65229"/><path d="M208.909 401.453c-1.1-.684 0-4.884.143-6.153.191-2.588.335-5.128 2.583-6.837 3.874-2.93 9.039-1.123 11.048 2.979 1.53 3.125 1.1 4.346 4.447 5.958 1.913.927 3.874 1.172 5.357 2.685 2.152 2.247 3.109 4.932 4.543 7.569 1.005 1.807 2.487 3.419 3.683 5.177 2.917 4.346 6.361 8.399 9.183 12.794.478.781.908 1.611 1.339 2.392.908 1.71.574 1.612.287 3.223-.144.831.717.879-.048 1.514-.526.44-1.004-.049-1.578-.049-.479-.048-.909-.537-1.34-.537-.573 0-.908.733-1.673.684-1.005-.049-2.009-1.172-2.727-1.807-1.434-1.27-1.817-1.465-3.539-2.051-2.2-.781-4.161-2.588-6.504-2.93-2.057-.293-4.687.488-6.265 1.026-1.292.439-4.544 1.416-6.218.488-1.913-1.026-3.3-3.662-5.117-4.932-.957-.684-1.865-.635-2.774-1.856-.956-1.269-1.626-2.881-2.391-4.248-1.292-2.051-2.822-4.151-3.205-6.544-.478-2.783.383-5.762.766-8.545z" fill="#D3D3D3"/><path d="M216.608 391.003c-1.195-.586-2.917-.586-3.539-1.904 1.244-.733 4.448-1.416 5.787-.537 2.2 1.465-.861 2.002-2.248 2.441z" fill="#EEEDED"/><path d="M221.152 426.114c-1.148-.098-3.395-.635-3.156 1.318 1.1.098 2.2.195 3.252.293 0-.537-.096-1.074-.096-1.611z" fill="#A3A3A2"/><path d="M210.583 395.545c3.204.928 8.513 1.416 11.43-.44 1.148 2.051-3.013 5.567-5.117 5.274-1.34-.195-1.77-1.22-3.013-1.953-1.387-.83-2.918-.879-3.3-2.881z" fill="#B8B7B7"/><path d="M219.861 395.984c-2.104.489-4.783.098-6.983.147 2.535 1.514 4.879 2.783 6.983-.147z" fill="#A3A3A2"/><path d="M213.883 399.989c-1.674-.244-3.731 0-5.213-.927-1.483 2.734 5.069 1.464 6.313 1.367-.335-.147-.718-.342-1.1-.44z" fill="#EEEDED"/><path d="M216.991 394.129c-1.243.488-.621 2.197-.095 3.125.669-.879 1.148-2.49.095-3.125z" fill="#231F20"/><path d="M216.991 394.129c-.478.586-.239 1.514-.095 2.393.287-.83.526-1.807.095-2.393z" fill="#4A4445"/><path d="M214.6 397.45c-.096.196-.239.391-.335.635a.872.872 0 00.335.098c.287-.44 0-.635 0-.733zm.526.147c-.096.39-.43.537 0 .683v-.683zm-1.817-.831c-.192.244-.431.488-.622.781.096.049.143.146.239.195.383-.342.335-.781.383-.976zm2.343 1.172l-.143 1.172h.287c.191-.586-.096-.879-.144-1.172zm.574.244c-.048.39-.096.83-.143 1.22.095 0 .239 0 .334.049.192-.635-.095-.928-.191-1.269zm1.004.098c.048.342.096.684.096 1.026.144-.049.239-.098.383-.098.048-.635-.383-.732-.479-.928zm1.053-.488c.095.439.239.83.382 1.221.144-.098.239-.147.383-.244-.096-.147-.144-.293-.239-.44l.574.147c.048-.098.143-.245.191-.342-.478-.44-.813-.293-1.291-.342zm1.1-.781c.143.244-.239.537.478.732.048-.097.096-.146.144-.244a21.752 21.752 0 01-.622-.488zm.621-.586c.192.146.383.244.622.39.096-.048.144-.146.239-.195a6.976 6.976 0 00-.861-.195z" fill="#D3D3D3"/><path d="M212.209 391.785c1.1-.781 2.439-.146 3.252.782-1.004.537-3.3 1.611-3.252-.782z" fill="#231F20"/><path d="M212.448 391.834c.717-.342 2.869-.146 2.152.928-.717 1.123-2.104.049-2.152-.928z" fill="#EFB125"/><path d="M221.678 391.785c-1.1-.781-2.439-.146-3.252.782 1.052.586 3.3 1.66 3.252-.782z" fill="#231F20"/><path d="M221.439 391.883c-.717-.342-2.869-.146-2.152.928.717 1.074 2.104 0 2.152-.928z" fill="#EFB125"/><path d="M215.174 392.908c.718 1.953-2.965 2.686-3.013.44 1.004.976 2.2.781 3.013-.44zm3.539.196c-.526 1.806 2.2 1.904 3.061.683-1.052.147-2.152.244-3.061-.683z" fill="#EEEDED"/><path d="M215.652 387.732c.048.293.096.635.144.928.095 0 .239-.049.335-.049.047-.293.095-.586.095-.879h-.574zm.765-.39c.048.244.096.537.096.781.67-.342.431-.049.574-.83-.239.049-.478.049-.67.049zm-1.243.146c0 .244.048.489.048.733-.622-.147-.431 0-.718-.586.24-.049.431-.098.67-.147zm1.387 1.074v.586h.383c.334-.732-.192-.293-.383-.586zm1.052-.683c-.048.244-.048.488-.095.732.86-.39.239-.439.095-.732zm-3.204.293c.048.195.095.391.095.586-.095.049-.191.098-.239.098-.43-.538.096-.391.144-.684zm3.874 0c0 .391-.383.439.048.684.43-.489-.048-.44-.048-.684zm.765-.147c-.096.196-.144.342-.239.538.669-.098.287-.293.239-.538zm-5.5 0c0 .44.43.489 0 .782-.526-.537 0-.537 0-.782z" fill="#4D484A"/><path d="M214.169 391.101c.383.196.766.342 1.196.538-.096-.782-.526-.977-1.196-.538zm3.922.44c.479.049.957.147 1.148-.586-.574 0-.717.293-1.148.586z" fill="#B8B7B7"/><path d="M251.235 428.018c-.622-1.074-1.435-3.271-2.535-4.004-1.243-.83-2.965.147-4.591.586-3.109.879-6.218.342-9.231 1.709 1.913.538 3.54 1.807 5.405 2.491 2.2.83 3.061 2.1 5.117 3.32 1.77 1.026 1.244.098 2.774.147.526 0 2.009.879 2.678.684 1.579-.391 1.1-3.468.383-4.933z" fill="#A3A3A2"/><path d="M249.896 425.674c-1.674-2.246-1.579-2.246-4.209-1.465 1.913 2.247 3.73 4.688 5.835 6.837 1.339-1.465-.861-4.004-1.626-5.372z" fill="#B8B7B7"/><path d="M250.039 430.607c-.956-1.27-3.587-5.811-4.974-6.251-.813-.195-2.63.733-3.587.83-1.387.147-2.774 0-4.161.244 2.535 1.905 4.544 3.712 6.744 5.665 1.387 1.221 2.056 1.514 3.682 1.563.24 0 .479-.44.766-.44.382 0 .765.488 1.148.488.908.049 1.339.538 2.152-.097-.574-.684-1.196-1.368-1.77-2.002z" fill="#848484"/><path d="M250.996 432.999c-1.483-1.611-3.061-3.174-4.353-4.932-.43-.634-1.578-3.271-2.247-3.515-.526-.196-1.866.537-2.487.634 2.008 2.442 3.969 4.932 5.93 7.374.813-.781 2.104.244 3.157.439z" fill="#D3D3D3"/><path d="M246.739 423.917c1.77 2.051 3.539 4.102 5.261 6.201 0-1.709-3.491-7.178-5.261-6.201z" fill="#848484"/><path d="M221.009 399.843c-2.2.146-4.352.097-6.361 1.123-2.583 1.318-2.439 3.272-2.009 6.104.718 4.639 4.4 8.985 8.035 11.671 3.443 2.539 8.465 3.369 12.674 4.102 2.152.39 4.448.83 6.456 1.416.957.244 5.453 2.832 5.118-.049 1.052.391 3.778 1.465 4.161-.537.334-1.66-2.726-2.637-3.779-3.223-3.347-2.002-5.404-4.493-8.034-7.423-2.392-2.636-4.735-5.273-7.126-7.91-2.918-3.174-4.927-4.444-9.135-5.274z" fill="#D3D3D3"/><path d="M224.404 396.961c.861.391 7.031 2.539 6.887 3.028-.669 2.148-6.265-2.198-6.887-3.028z" fill="#EEEDED"/><path d="M222.73 399.305c.67-.293 1.1-.439 1.627-.146-.574.635-1.148.781-1.627.146zm1.579-.83c.143.147.287.244.43.391.096-.098.239-.196.335-.293-.335-.586-.383-.049-.765-.098zm.67.733c-.287.195-.383.439-.766.488.861.293 1.674-.049.766-.488zm1.147.146l-.287.586c.143.098.239.196.382.293.622-.586.096-.439-.095-.879zm-2.487-1.708c-.239.439-.143.976-1.004.244.335-.049.669-.147 1.004-.244z" fill="#4D484A"/><path d="M234.448 425.772c-3.013-.928-6.17-1.367-9.231-2.197-3.443-.928-4.926-1.563-7.317-4.346-1.865-2.1-3.874-3.614-5.309-5.762-1.913-2.833-3.156-5.03-4.161-8.351-.574 4.053-.047 6.251 1.913 9.767 1.053 1.904 2.009 4.15 3.348 5.908 1.148 1.563 2.296 1.514 3.635 2.442 1.291.928 2.344 3.174 3.539 3.955 1.578 1.075 3.061.635 4.831.489 2.2-.147 2.343-1.075 4.639-1.368 1.004-.097 4.065-.048 4.113-.537z" fill="#B8B7B7"/><path d="M221.152 426.7c-1.195 0-2.821-.146-3.826.635-.956.733-1.482 1.905.192 2.295.908.244 2.104-.683 3.013-.928 1.195-.244 2.295.342 2.869-1.123-.669-.341-1.435-.732-2.248-.879z" fill="#D3D3D3"/><path d="M220.53 429.288c.144-1.904 4.496-2.148 4.209-.293-.191 1.221-3.348.879-4.209.293z" fill="#D3D3D3"/><path d="M216.705 428.116c-.957 0-1.818.489-1.77 1.514a5.155 5.155 0 012.104-.732 3.812 3.812 0 00-.334-.782zm5.93.879c-1.004.098-.909 1.074-.574 2.1.526-.635.765-1.319.574-2.1z" fill="#4D484A"/><path d="M240.044 417.276a6.65 6.65 0 00.956-.196c-3.443-3.808-6.839-7.617-10.33-11.426-2.153-2.344-3.348-4.053-6.361-5.03-2.439-.781-4.544-.733-7.079-.586 1.961.732 4.066 1.318 5.835 2.49 2.009 1.368 3.874 3.37 5.644 5.079 2.104 2.051 3.874 4.444 6.026 6.397 1.578 1.416 3.395 2.246 5.309 3.272z" fill="#EEEDED"/><path d="M222.348 418.057c-4.926-5.127-7.318-9.376-8.657-16.408-3.778 1.221.287 9.181 1.483 11.232 2.009 3.516 5.309 6.299 9.039 7.569a101.86 101.86 0 00-1.865-2.393z" fill="#B8B7B7"/><path d="M242.387 418.691c-1.196-2.441-3.204.342-4.878.928-1.531.537-3.826.635-5.405.635-4.065 0-8.178-1.123-12.1-2.1 3.396 3.125 8.896 3.907 13.344 4.688 2.152.391 4.448.83 6.456 1.416.957.244 5.453 2.833 5.118-.049 1.387.489 5.261 1.172 3.922-1.709-.67-1.416-5.07-2.978-6.457-3.809z" fill="#B8B7B7"/><path d="M242.387 418.692c-1.052-2.247-3.3 0-4.735.83a381.72 381.72 0 017.222 5.03v-.342c1.387.488 5.261 1.172 3.922-1.709-.622-1.416-5.022-2.979-6.409-3.809z" fill="#A3A3A2"/><path d="M240.474 417.959c-.383.098-.861.488-1.196.684 1.579 1.22 7.413 6.836 9.326 5.518 1.722-1.172-1.96-1.905-2.774-2.393-1.913-1.026-3.634-2.539-5.356-3.809zm-1.1 4.59c-1.339-1.514-1.817-2.539-3.682-2.686-1.148-.097-2.392.391-3.587.391-2.535 0-5.644-.342-8.083-1.123.956 2.637 5.022 2.93 7.413 3.369 2.487.44 6.648 2.1 8.991 1.709a15.886 15.886 0 00-1.052-1.66z" fill="#EEEDED"/><path d="M234.113 420.06c1.77 2.783 2.152 3.125 5.118 4.248-1.531-2.149-2.344-4.932-5.118-4.248z" fill="#A3A3A2"/><path d="M230.191 422.257c.622.146 1.244.244 1.865.342-.813-1.319-1.243-3.028-3.06-2.735.382.83.765 1.612 1.195 2.393z" fill="#B8B7B7"/><path d="M226.843 421.279l2.152.733c-.765-2.246-.717-2.198-3.06-2.491.287.586.573 1.172.908 1.758z" fill="#A3A3A2"/><path d="M230.67 400.868c1.195.244 2.2.293 2.965 1.367-.957.684-3.061-.39-2.965-1.367zm-1.722-.146c2.008.586.191 1.025-.909.146.335-.049.622-.097.909-.146zm-1.531-.733c.479.83-.143 1.172-.908.733.335-.244.622-.489.908-.733zm1.818 1.856c-.287.195-.526.537-.813.732.861.44 1.53.098.813-.732zm1.817.342c-.478.39-.287.83-1.004.976.669 1.074 2.343-.146 1.004-.976zm3.683 2.929c-.43-.488-1.004-.732-1.626-.83.096.879.909 1.074 1.769 1.563l-.143-.733zm-1.674.147c.861.293 1.195.781.669 1.465-.382-.244-.956-.782-1.195-1.123.143-.147.334-.245.526-.342zm-.526-.391c-.622-.098-1.052.049-.813-.928.239.293.526.586.813.928zm-17.361-2.734a5.646 5.646 0 012.152-.733c-.143.928-1.148 1.172-2.152.733zm4.209-1.465c-2.152-.244-1.483 1.172.574.489-.192-.147-.383-.342-.574-.489zm1.865 0c-.192.098-.383.146-.622.244.67.195.813.195 1.483-.146a4.207 4.207 0 00-.861-.098zm.143.83a4.61 4.61 0 00-1.626.146c.67.537 1.052.244 1.626-.146zm1.866-.537c-.431.244-.718.342-.813.83.717 0 .861-.049 1.339-.586-.191-.098-.335-.147-.526-.244zm-4.352.928c-.527.048-1.005.293-1.435.586.765.439 1.004.048 1.435-.586zm-4.687.537c-.335.146-.67.244-1.005.39.861.44.766-.097 1.005-.39zm1.578.341c-.479.147-.909.538-1.196.928.813.537 2.2-.049 1.196-.928zm2.391.586c-.383.147-.765.391-1.148.586.717.489 1.148.391 1.148-.586zm2.248-.586c-.478.196-.861.538-1.148.928.813.537 1.483.244 1.77-.683a3.301 3.301 0 00-.622-.245zm-6.791 3.077c.526-.049 1.004.146 1.53 0-.478.732-1.243.83-1.53 0zm3.156.195c.574-.147 1.243-.147 1.817-.293.239 1.27-1.435 1.416-1.817.293zm4.783-1.416c-.574.293-.957.732-1.531.977.718.976 2.248.195 1.531-.977zm1.578-1.807c-.431.342-.765.44-.622 1.026.574-.098.67-.342 1.1-.684-.143-.146-.335-.244-.478-.342zm-7.844 2.1c.622.342.957.586 1.531-.097-.574-.342-.909-.196-1.531.097zm1.148 1.953c-.574.293-1.195.488-1.817.635.717.83 2.104.586 1.817-.635zm-1.339 1.66c-.334.147-.717.342-1.052.489.574.732 1.052.537 1.483-.293-.144-.049-.287-.147-.431-.196zm5.548-1.513c-.43.195-.909.634-1.291.976.861.928 2.009.244 2.152-.928-.287-.048-.574-.048-.861-.048zm3.635-.538c.621-.341 1.1-.293 1.53-1.025.43 1.27-.622 2.1-1.53 1.025zm2.104-3.906c-.43.293-.622.733-1.148.977.909.537 2.152-.244 1.148-.977zm-6.887 7.374c-.574 0-1.196.147-1.77.147.813 1.025 2.344 1.172 2.774-.244-.335.048-.669.048-1.004.097zm4.974-1.075c-.526.342-.813.83-1.435 1.074 1.005 1.172 3.253-.732 1.435-1.074zm-.861-1.123c-.478.146-.956.439-1.387.635.766.342 1.435.146 1.961-.586-.191-.049-.382-.049-.574-.049zm4.735-2.441c-.431.39-.622.879-1.148 1.172 1.004.585 2.296-.44 1.148-1.172zm-1.052 2.099c-.479.244-.909.684-1.292 1.026.813.341 1.579.097 1.961-.733-.239-.098-.478-.195-.669-.293zm-4.544 3.956c-.621.049-1.243.244-1.865.293.717.928 1.77.977 2.487 0-.239-.097-.43-.195-.622-.293zm-3.348.488c-.717.245-1.482.293-2.2.293.527 1.27 2.105 1.026 2.2-.293zm-2.821-1.464a2.716 2.716 0 00-1.531.146c.622.83 1.865.879 1.531-.146zm10.808-1.172c-.382.683-1.052 1.123-1.817 1.123 1.1 1.123 3.252.244 1.817-1.123zm3.109-1.808c-2.774 2.002 2.583.781 0 0zm.43 2.882c-.478.244-.717.732-1.291.977.861.879 1.913.048 1.291-.977zm-4.304 1.904a3.458 3.458 0 01-1.817.684c.67 1.27 2.391.537 1.817-.684zm-4.782 1.416c-.67.244-1.34.391-2.057.391.717 1.025 2.391 1.123 2.057-.391zm2.678 1.123c-.287.098-.574.244-.909.342-.43.83 1.291.147 1.531-.244a2.73 2.73 0 01-.622-.098zm5.261-1.904c-.526.537-1.148 1.026-1.818 1.367 1.005 1.368 3.348-.488 1.818-1.367zm3.969-1.758c-4.639 2.295 3.205.83 0 0zm-.048 2.735c-4.161.293.622 2.051 0 0zm1.866-1.27c-.383.195-.718.635-1.005.977.718.39 1.387.097 1.866-.635-.24-.098-.527-.244-.861-.342zm-15.831 3.516c.526.195 2.822-.244 2.152.488-.621.732-2.582.732-2.152-.488zm-.669-1.514c-.239 1.074-1.387 1.074-1.866.097.574-.049 1.292-.195 1.866-.097zm5.165 1.611c-2.009.44-.526 1.661.622.44a6.975 6.975 0 01-.622-.44zm3.061-.976c-.574.195-1.053.537-1.387 1.074.765.488 1.578.195 2.104-.586a6.194 6.194 0 01-.717-.488zm3.156.586c-.43.195-.717.342-.813.781.909.537 1.913.098 1.77-1.025-.335.097-.67.195-.957.244zm5.404 1.025c-.526.147-1.052.537-1.626.684.766.976 2.439.439 1.626-.684zm.383-2.051c-.239.147-.526.342-.765.489.67.732 1.291.341 1.435-.635-.192.098-.431.098-.67.146zm-4.734 3.369c-.479.098-.861.245-1.148.635.717.635 1.435.537 1.817-.39a5.716 5.716 0 00-.669-.245zM209.1 405.653c.478-.439.909-.684 1.483-.488-.287.732-.813.879-1.483.488zm-.526 1.27c.431-.147 1.005-.098 1.435-.147-.335.879-1.148 1.368-1.435.147zm.67-3.32c.574.39.765.732 1.291-.049-.43 0-.861 0-1.291.049zm1.769 3.467c-.382.244-.669.391-.956.733.908.244.813-.147.956-.733zm-.382 2.442c-.431.049-.909.195-1.339.293.334.83 1.482.586 1.339-.293zm-.909-1.173c-.383 0-.813.049-1.196.049.144.732.718.732 1.435.39-.048-.097-.143-.293-.239-.439zm2.056-.147c-1.339.831.144 1.172 0 0zm.479 2.492c-.192.097-.431.195-.622.293 0 1.074 1.1-.391 1.1-.391-.144 0-.335.049-.478.098zm-1.579 1.416a7.793 7.793 0 01-1.052.097c.526.733 1.196.586 1.052-.097zm2.965.732c-1.243 1.221.192 1.27.622.098-.239-.049-.43-.049-.622-.098zm-2.343 1.904c.478-.146 1.052-.048 1.53-.097-.143.83-.861.927-1.53.097z" fill="#4D484A"/><path d="M213.643 392.859a.484.484 0 00.479-.488.484.484 0 00-.479-.488.483.483 0 00-.478.488c0 .27.214.488.478.488zm6.553 0a.483.483 0 00.478-.488.483.483 0 00-.478-.488.483.483 0 00-.478.488c0 .27.214.488.478.488z" fill="#231F20"/><defs><linearGradient id="paint0_linear" x1="138.2" y1="307.749" x2="138.2" y2="456.835" gradientUnits="userSpaceOnUse"><stop stop-color="#E6E6E6"/><stop offset=".844" stop-color="#E6E6E6"/></linearGradient><linearGradient id="paint1_linear" x1="177.485" y1="150.681" x2="274.067" y2="150.681" gradientUnits="userSpaceOnUse"><stop offset=".085" stop-color="#1A1A1A"/><stop offset=".92" stop-color="#fff"/></linearGradient><linearGradient id="paint2_linear" x1="66.967" y1="346.682" x2="158.968" y2="346.682" gradientUnits="userSpaceOnUse"><stop stop-color="#E6E6E6"/><stop offset=".844" stop-color="#333"/></linearGradient><linearGradient id="paint3_linear" x1="66.967" y1="346.682" x2="158.968" y2="346.682" gradientUnits="userSpaceOnUse"><stop stop-color="#409CCB"/><stop offset=".844" stop-color="#3E5680"/></linearGradient><linearGradient id="paint4_linear" x1="49.934" y1="340.714" x2="58.474" y2="340.714" gradientUnits="userSpaceOnUse"><stop stop-color="#E6E6E6"/><stop offset=".844" stop-color="#333"/></linearGradient><linearGradient id="paint5_linear" x1="49.934" y1="340.714" x2="58.474" y2="340.714" gradientUnits="userSpaceOnUse"><stop stop-color="#409CCB"/><stop offset=".844" stop-color="#3E5680"/></linearGradient><linearGradient id="paint6_linear" x1="291.599" y1="391.657" x2="293.31" y2="391.657" gradientUnits="userSpaceOnUse"><stop offset=".001" stop-color="#fff" stop-opacity=".05"/><stop offset=".382" stop-color="#ACC0CD" stop-opacity=".413"/><stop offset=".807" stop-color="#557E99" stop-opacity=".816"/><stop offset="1" stop-color="#336484"/></linearGradient><linearGradient id="paint7_linear" x1="192.25" y1="322.629" x2="274.067" y2="322.629" gradientUnits="userSpaceOnUse"><stop stop-color="#409CCB"/><stop offset=".844" stop-color="#3E5680"/></linearGradient><linearGradient id="paint8_linear" x1="162.667" y1="457.012" x2="162.667" y2="28.581" gradientUnits="userSpaceOnUse"><stop stop-color="#fff"/><stop offset=".741" stop-color="#C8E9FA"/></linearGradient><linearGradient id="paint9_linear" x1="177.485" y1="150.681" x2="274.067" y2="150.681" gradientUnits="userSpaceOnUse"><stop offset=".085" stop-color="#fff"/><stop offset=".92" stop-color="#C8E9FA"/></linearGradient><linearGradient id="paint10_linear" x1="40.8" y1="353.384" x2="162.164" y2="353.384" gradientUnits="userSpaceOnUse"><stop stop-color="#409CCB"/><stop offset=".844" stop-color="#3E5680"/></linearGradient><linearGradient id="paint11_linear" x1="162.667" y1="307.461" x2="162.667" y2="457.013" gradientUnits="userSpaceOnUse"><stop stop-color="#409CCB"/><stop offset=".844" stop-color="#3E5680"/></linearGradient><linearGradient id="paint12_linear" x1="162.667" y1="349.139" x2="162.667" y2="457.013" gradientUnits="userSpaceOnUse"><stop offset=".318" stop-color="#fff"/><stop offset="1" stop-color="#B5E0F1"/></linearGradient></defs></svg>