<svg width="295" height="218" viewBox="0 0 295 218" fill="none" xmlns="http://www.w3.org/2000/svg">
<path d="M136.978 0.727673V-3.05176e-05C137.706 -3.05176e-05 138.49 0.727673 138.49 1.51135C138.49 2.23906 138.49 2.23906 137.706 2.23906C138.49 1.51135 136.194 1.51135 136.978 0.727673Z" fill="#528FBF"/>
<path d="M146.047 1.5113C146.047 0.7836 146.047 0.7836 146.831 0.7836C147.558 0.7836 149.07 0.7836 149.07 2.29498C149.07 3.07866 149.07 3.07866 148.286 3.07866C147.558 2.23901 146.047 3.02269 146.047 1.5113Z" fill="#528FBF"/>
<path d="M119.625 4.53416C118.841 4.53416 118.113 5.31784 118.113 3.80645C118.113 2.29507 118.841 3.07875 119.625 3.07875C120.408 3.07875 121.136 2.29507 121.136 3.80645C121.136 5.26186 120.352 4.53416 119.625 4.53416Z" fill="#528FBF"/>
<path d="M126.399 3.75051C127.127 3.75051 127.127 3.75051 127.127 4.47821C127.127 5.9896 126.399 5.26189 125.616 5.26189C124.832 5.26189 124.832 5.26189 124.832 4.47821C125.672 5.26189 125.672 3.02281 126.399 3.75051Z" fill="#528FBF"/>
<path d="M106.807 5.2619H107.59C106.807 6.77329 106.079 8.28467 104.568 9.01237C103.84 9.01237 103.84 9.01237 103.84 8.22869C104.512 6.77329 105.295 6.04558 106.807 5.2619Z" fill="#528FBF"/>
<path d="M115.091 6.04553C115.875 6.04553 115.875 6.04553 115.875 6.77324C115.875 7.50094 115.091 8.28462 114.364 8.28462C113.58 8.28462 113.58 8.28462 113.58 7.55692C113.58 6.77324 114.308 6.04553 115.091 6.04553Z" fill="#528FBF"/>
<path d="M152.092 15.8415C150.58 12.0911 150.58 9.796 151.308 6.04553C155.842 7.55692 154.331 11.3074 155.059 14.3302C154.331 15.1138 152.819 15.1138 152.092 15.8415Z" fill="#528FBF"/>
<path d="M109.827 8.28461C110.555 8.28461 111.338 9.06829 111.338 9.79599C110.555 12.8188 108.316 13.5465 106.076 15.1138C106.804 13.6024 103.837 15.1138 104.565 13.6024C106.804 12.0911 108.316 9.79599 109.827 8.28461Z" fill="#528FBF"/>
<path d="M97.7388 11.3073C96.9551 11.3073 96.9551 11.3073 96.9551 10.5237V9.79595C97.7388 9.06825 97.7388 11.3073 98.4665 10.5237C98.4665 11.3073 98.4665 11.3073 97.7388 11.3073Z" fill="#528FBF"/>
<path d="M92.4185 11.3073C93.2022 10.5236 93.2022 12.8187 93.9299 12.035C93.9299 13.5464 91.6348 13.5464 91.6348 15.0578C91.6348 15.7855 90.9071 16.5692 92.3625 16.5692C91.6348 17.3528 90.8512 18.0806 90.1235 18.8642C88.6121 18.8642 87.8284 17.3528 86.317 17.3528C82.5665 18.0806 88.6121 22.6147 84.0779 22.6147C83.3502 23.3984 83.3502 21.1033 82.5665 21.887C81.8388 23.3984 80.2715 24.1261 78.8161 24.1261C78.0324 24.1261 77.3047 23.3984 77.3047 22.6147C79.5438 21.887 78.0324 19.5919 78.8161 18.8642C80.3275 17.3529 82.5665 17.3528 84.0779 16.5692C85.5893 15.8415 84.8616 15.0578 85.5893 14.3301C86.317 13.6024 86.317 16.5692 87.8844 15.1138C88.6121 15.1138 89.3958 16.6251 90.1794 14.3301C90.9071 13.6024 91.6908 12.091 92.4185 11.3073Z" fill="#528FBF"/>
<path d="M101.488 12.0911C102.272 11.3634 102.272 13.6024 102.999 12.8188C102.999 14.3301 101.488 13.5465 100.704 14.3301C99.9766 14.3301 99.9766 14.3301 99.9766 13.6024C99.9766 12.8188 100.76 12.0911 101.488 12.0911Z" fill="#528FBF"/>
<path d="M73.5571 23.3983C72.7734 23.3983 72.7734 23.3983 72.7734 22.6147C72.7734 21.887 72.7734 21.887 73.5571 21.887C74.2848 21.887 74.2848 21.887 74.2848 22.6147C74.3408 23.3983 74.3408 23.3983 73.5571 23.3983Z" fill="#528FBF"/>
<path d="M75.0667 28.6602C76.5781 28.6602 75.8504 30.1716 76.5781 30.9553C76.5781 31.683 75.8504 32.4667 75.0667 32.4667C75.8504 31.739 72.7717 31.739 74.2831 30.2276C73.5554 29.4439 75.8504 29.4439 75.0667 28.6602Z" fill="#528FBF"/>
<path d="M161.104 40.7514C163.343 40.7514 160.376 42.9905 162.615 42.9905C161.832 45.2855 159.593 46.7409 159.593 49.7637C158.865 51.2751 159.593 52.0588 160.376 53.5142C159.593 54.2419 158.865 55.0255 158.081 55.7533V55.0256C157.298 54.2978 160.376 54.2978 158.865 52.7865C158.865 51.2751 157.354 49.7637 157.354 48.2523C158.137 47.5246 158.865 46.7409 159.649 46.0132C161.104 44.5578 158.081 41.5351 161.104 40.7514Z" fill="#528FBF"/>
<path d="M72.0441 55.0814C71.3164 55.0814 71.3164 55.0814 71.3164 54.3537H72.0441H72.7718C72.8278 55.0814 72.8278 55.0814 72.0441 55.0814Z" fill="#528FBF"/>
<path d="M76.5797 55.8652C78.0911 56.5929 78.8748 57.3766 78.8748 58.888C78.8748 59.6157 78.8748 60.3994 78.8748 61.1271C78.8748 61.1271 78.0911 61.1271 77.3634 61.1271C75.852 60.3994 75.0684 58.888 75.0684 57.3766C75.0684 56.5929 75.852 55.8652 76.5797 55.8652Z" fill="#528FBF"/>
<path d="M161.887 64.1499C162.671 64.1499 163.398 64.8776 163.398 65.6613C163.398 67.1726 162.671 67.9003 161.159 68.684C161.887 67.9563 158.92 67.9563 160.432 66.4449C160.376 65.6613 160.376 64.1499 161.887 64.1499Z" fill="#528FBF"/>
<path d="M73.5559 64.9335H74.2836C75.0673 64.9335 75.0673 64.9335 75.0673 65.6612C75.0673 66.3889 75.0673 66.3889 74.2836 66.3889C75.0673 65.6612 72.8282 65.6612 73.5559 64.9335Z" fill="#528FBF"/>
<path d="M78.873 69.4677C78.873 68.684 78.0894 67.9563 79.6007 67.9563C81.8958 68.684 79.6007 70.9791 81.1121 71.7068C81.8958 72.4345 82.6235 73.2182 83.4072 73.9459C83.4072 74.6736 84.1349 75.4573 82.6235 75.4573C82.6235 73.9459 80.3284 74.6736 80.3284 73.9459C80.3844 72.4345 78.873 70.9231 78.873 69.4677Z" fill="#528FBF"/>
<path d="M77.3618 79.9913C76.5781 79.9913 76.5781 79.9913 76.5781 79.2636V78.5359C77.3618 77.7523 77.3618 80.775 78.8732 79.2636C78.8732 80.775 78.0895 79.9913 77.3618 79.9913Z" fill="#528FBF"/>
<path d="M84.9196 93.5938C86.431 95.1051 87.9424 96.6165 89.4537 98.1279C89.4537 98.8556 89.4537 98.8556 88.6701 98.8556C86.375 98.1279 84.1359 97.3442 83.4082 94.3215C84.1359 95.1051 84.1359 92.8101 84.9196 93.5938Z" fill="#528FBF"/>
<path d="M81.8965 100.367C81.8965 99.6392 81.1128 98.8556 82.6242 98.8556C87.1583 101.878 85.6469 107.14 88.6697 110.947C88.6697 112.458 87.942 111.674 87.1583 111.674C83.4078 108.708 84.9192 103.39 81.8965 100.367Z" fill="#528FBF"/>
<path d="M156.625 107.924C155.842 107.924 155.842 107.924 155.842 107.196H156.625H157.353C157.353 107.924 157.353 107.924 156.625 107.924Z" fill="#5893C5"/>
<path d="M84.9191 114.753C87.9419 117.776 86.4305 121.526 87.9419 124.549C88.6696 125.277 90.2369 124.549 90.2369 126.061C90.2369 127.572 89.4533 126.844 88.7256 126.844C83.4637 124.549 87.2142 118.56 84.1914 115.537C84.9191 115.481 84.9191 115.481 84.9191 114.753Z" fill="#528FBF"/>
<path d="M160.377 122.254C161.888 122.254 161.104 122.982 161.104 123.765C161.104 124.493 161.832 125.277 160.377 125.277C158.865 125.277 159.593 123.765 158.865 123.038C159.593 123.765 159.593 121.526 160.377 122.254Z" fill="#528FBF"/>
<path d="M93.203 128.3C94.7144 128.3 93.9867 129.811 95.4981 129.811C94.7144 130.539 95.4981 132.05 93.9867 132.05C95.4981 135.073 96.2818 138.096 100.032 140.335C102.327 141.846 97.7931 146.38 101.544 148.619C102.327 149.347 99.2486 149.347 100.76 150.914C100.032 150.914 100.032 150.914 99.2486 150.914C96.2258 147.892 99.2486 143.357 97.0095 141.846C93.9867 138.096 93.9867 133.561 91.7476 130.539C91.6916 129.083 93.203 129.811 93.203 128.3Z" fill="#528FBF"/>
<path d="M87.1582 142.63V141.902C89.4533 142.63 88.6696 144.141 89.4533 145.653C89.4533 146.38 90.2369 147.164 88.6696 147.164C86.3745 146.436 87.8859 144.141 87.1582 142.63Z" fill="#528FBF"/>
<path d="M93.2037 143.413C93.2037 142.686 92.4201 141.902 93.9874 141.902C95.4988 141.902 95.4988 143.413 95.4988 144.141C95.4988 144.925 96.2825 145.653 94.7151 145.653C93.2037 145.653 93.2037 144.141 93.2037 143.413Z" fill="#528FBF"/>
<path d="M161.886 85.3091C163.398 84.5814 163.398 83.0701 164.181 81.5587C161.886 80.831 163.398 78.5359 162.67 77.8082H161.159C160.431 80.831 159.647 83.0701 159.647 86.0928H157.352C156.625 85.3651 155.841 84.5815 155.113 83.8537C154.385 83.126 158.864 80.831 154.385 80.831C154.385 80.0473 152.874 78.5919 155.113 78.5919C155.113 76.2968 156.625 77.8082 157.352 77.8082C158.864 75.5691 161.103 73.2741 159.647 70.2513C158.136 67.9562 157.352 69.5236 156.625 69.5236C156.625 71.035 156.625 72.5464 155.113 72.5464C154.385 71.8187 153.602 71.035 152.874 70.3073C152.09 67.2845 152.874 65.0454 154.385 62.0227C154.385 60.5113 155.897 61.2949 155.897 61.2949C156.681 62.8063 157.408 62.8063 158.192 62.8063C156.681 60.5672 159.703 57.5445 156.681 56.0331C155.897 57.5445 155.897 59.0559 154.441 59.0559C148.396 56.7608 158.976 50.7712 153.658 48.4762C152.93 49.9876 152.146 50.7153 150.635 49.9876C150.635 49.9876 150.635 49.2599 150.635 48.4762C151.363 49.2039 151.363 46.9648 152.93 46.9648C155.953 46.9648 154.441 43.2143 155.953 40.9193C155.841 40.9193 155.785 40.9193 155.785 40.9193H153.714C154.497 37.8965 152.202 34.8737 153.714 33.3623C155.953 31.0673 156.736 28.1005 159.759 25.8054H161.998C161.998 31.0673 156.736 33.3623 155.225 37.8965C155.225 38.6242 156.736 39.4079 155.953 40.9193C156.345 40.9193 157.464 40.9193 157.464 40.9193C158.248 38.6242 159.759 37.1688 161.215 35.6574C162.726 34.146 161.942 31.1233 162.726 28.8842C164.237 24.35 161.215 19.8159 160.487 15.2817C160.487 13.7703 159.703 14.498 158.976 14.498C158.976 16.7371 155.953 17.5208 155.953 19.7599C154.441 17.5208 154.441 21.2713 152.202 20.4876C147.668 17.4648 152.986 17.4648 152.202 15.9534C149.18 15.9534 146.94 11.4193 143.134 13.7144C142.35 11.4753 140.111 12.9867 139.384 11.4753C139.384 10.6916 138.656 9.96388 140.167 9.96388C140.167 5.42973 142.406 9.23618 143.19 9.23618C143.918 10.7476 146.213 14.498 148.452 12.2589C148.452 11.5312 149.963 9.96388 149.236 8.50848C148.452 8.50848 147.724 10.0199 146.996 7.78077C146.213 7.05307 144.701 5.54169 143.974 4.0303C143.974 4.0303 142.462 4.0303 141.735 4.0303C141.007 4.75801 140.223 5.54169 139.44 6.32537C134.905 8.56445 133.394 4.81398 129.644 4.0303C129.644 4.75801 128.916 5.54169 130.427 5.54169C128.916 9.29216 125.165 9.29216 122.143 10.0758C122.143 8.56445 120.631 8.56445 119.848 8.56445C117.552 9.34813 116.097 11.5872 113.802 12.3149C112.291 13.8263 110.779 16.0654 110.052 17.5768C107.756 21.3272 107.029 18.3045 105.517 18.3045C107.029 16.7931 104.006 16.7931 104.734 16.0094C100.983 18.3045 96.4491 18.3045 92.6426 22.055C91.9149 22.055 90.4035 23.5663 90.4035 21.3272C86.5971 23.5663 83.6303 25.8614 79.8239 27.3728C77.5848 28.8842 82.1189 31.1233 79.8239 33.4183C79.0962 34.146 77.5848 32.6346 76.8011 34.9297C75.2897 38.6802 73.0506 41.7029 73.7783 45.5094C73.7783 47.0208 76.0734 48.5322 75.2897 50.0435C74.506 50.7712 74.506 50.7712 74.506 51.5549C75.2897 51.5549 76.0174 51.5549 76.0174 51.5549C77.5288 48.5322 76.0174 45.5094 76.0174 42.4866C76.7451 40.2475 78.2565 37.9525 79.0402 37.9525C82.7907 37.9525 79.7679 42.4866 80.5516 44.7257C82.8466 47.7485 85.8134 49.2599 85.8134 53.0103C85.0857 53.0103 84.302 54.5217 83.5743 52.2826C82.7907 51.5549 82.7907 50.7712 82.063 49.9876C81.2793 49.9876 79.7679 49.2599 80.5516 50.7153C82.0629 53.0103 82.8466 55.2494 82.8466 57.4885C80.5516 57.4885 82.1189 58.9999 82.1189 59.7276C83.6303 59.7276 83.6303 58.2162 83.6303 57.4885C84.358 57.4885 84.358 57.4885 85.1417 57.4885C89.6758 60.5113 86.6531 62.7504 85.1417 64.2617C84.358 65.7731 83.6303 61.239 82.8466 61.9667C80.5516 64.9894 84.358 68.0122 85.1417 71.035C85.8694 75.5691 88.1645 68.7399 88.1645 71.035C88.8922 74.0577 85.1417 75.5691 84.414 78.5919C83.6863 85.3651 88.1645 92.1943 92.6986 98.1839C94.21 99.6953 91.9709 102.718 91.1872 105.741C90.4595 109.491 94.21 111.786 95.7214 114.025C95.7214 114.809 99.4719 117.048 94.9377 117.048C94.9377 118.56 94.21 117.776 93.4263 117.776C93.4263 116.265 91.9149 115.537 91.9149 114.025C88.8922 114.809 90.4035 117.776 90.4035 119.287C91.1313 121.582 88.8922 123.821 91.1313 125.333C91.859 125.333 93.3703 124.605 94.154 123.094C94.154 123.094 95.6654 122.366 95.6654 123.821C98.6882 122.31 96.4491 118.56 98.6882 117.048C99.4719 117.048 100.2 117.776 100.2 118.56C98.6882 120.071 101.711 120.855 100.2 122.31C98.6882 123.821 95.6654 126.061 97.1768 126.844C98.6882 129.083 95.6654 132.106 97.1768 133.617C100.2 135.129 99.4159 138.152 100.927 139.663C101.711 140.391 103.222 136.64 105.461 139.663C106.245 141.174 105.461 141.902 105.461 142.686C103.222 144.981 103.95 146.436 103.95 148.731C104.678 150.243 108.484 148.731 108.484 151.754C106.973 151.026 106.973 153.265 105.461 152.482V154.721C109.212 153.209 113.018 153.993 116.769 153.209C117.497 153.209 115.257 151.698 116.041 150.97C118.28 150.97 122.814 150.97 121.303 154.721C122.087 154.721 122.087 154.721 122.814 154.721C122.087 151.698 124.326 150.97 125.053 148.675C125.053 147.164 126.565 147.164 127.348 147.164C129.588 150.187 132.61 150.187 135.633 151.698C136.361 151.698 136.361 150.187 137.144 149.403C139.384 144.869 141.679 149.403 143.918 148.675V146.436C142.406 145.709 140.167 144.925 138.656 144.925C136.361 145.653 135.633 149.459 133.394 147.948C131.883 146.436 129.644 147.22 128.86 145.709C128.132 144.197 129.588 141.958 131.099 141.958C131.883 141.958 131.883 143.469 132.61 144.197C133.338 146.492 134.122 144.981 134.849 144.981C136.361 144.197 137.872 143.469 139.384 141.958C139.384 143.469 140.895 142.686 141.679 143.469C142.406 141.958 143.918 141.23 144.701 141.23C146.996 141.958 140.951 142.742 144.701 145.764C145.429 146.492 146.996 145.764 147.724 146.492C149.236 144.981 151.475 142.742 152.258 141.958C154.553 136.696 155.281 130.651 156.009 124.605C151.475 124.605 155.281 122.366 155.281 121.582C157.52 118.56 158.304 115.537 160.543 113.298C162.782 111.059 162.054 108.764 162.054 106.524C161.327 105.013 158.304 103.502 159.815 101.99C160.599 100.479 162.838 98.9676 161.327 96.7285C159.815 95.9448 159.088 95.2171 159.815 93.7057C160.599 92.978 160.599 92.978 161.327 92.1943C164.125 89.8433 158.864 87.5482 161.886 85.3091ZM85.6455 27.9326H86.3732C87.1569 27.9326 87.1569 27.9326 87.1569 28.6603C87.1569 29.388 87.1569 29.388 86.3732 29.388C87.1569 28.6603 84.9178 28.6603 85.6455 27.9326ZM85.6455 38.5122C84.9178 40.0236 86.3732 42.2627 84.1341 43.0464C82.6227 40.0236 82.6227 37.7845 81.895 34.7618C81.895 34.0341 81.895 32.5227 83.4064 32.5227C85.6455 33.3064 85.6455 36.2731 87.9406 37.0568C87.8846 38.5122 86.3732 37.7286 85.6455 38.5122ZM90.9073 67.1726C91.635 67.1726 91.635 67.1726 91.635 67.9003C91.635 68.628 91.635 68.628 90.9073 68.628C90.1796 68.628 90.1796 68.628 90.1796 67.9003C90.1796 67.1726 90.1796 67.1726 90.9073 67.1726ZM89.396 86.0368C87.1009 85.3092 87.8846 83.7978 87.8846 82.2864C87.1009 83.0141 87.1009 79.9913 85.5895 81.5587C85.5895 80.831 85.5895 80.831 85.5895 80.0473C85.5895 77.8082 87.8846 77.8082 88.6123 75.5131C90.9073 76.2408 90.9073 78.5359 91.635 80.775C90.9073 82.2864 91.691 85.3092 89.396 86.0368ZM93.2024 92.8101C91.691 92.8101 91.691 91.2987 91.691 90.571C92.4187 89.0596 93.2024 88.2759 94.7138 87.5482C95.4975 87.5482 95.4975 87.5482 95.4975 88.2759C93.9301 89.8433 94.7138 92.0824 93.2024 92.8101ZM103.782 126.788C102.998 126.788 102.998 126.788 102.998 126.005C102.998 125.277 102.998 125.277 103.782 125.277C104.51 125.277 104.51 125.277 104.51 126.005C104.51 126.788 104.51 126.788 103.782 126.788ZM119.624 148.675C118.112 150.187 118.112 147.164 117.329 147.948C115.817 147.948 115.817 150.187 114.306 149.459C112.794 147.948 109.772 150.97 109.044 147.948C110.555 145.708 111.283 144.197 113.578 142.686C114.362 142.686 115.089 141.958 115.089 143.413C115.873 144.141 113.578 144.141 114.362 144.925C114.362 145.653 114.362 146.436 114.362 146.436C116.601 147.164 119.624 144.925 121.135 147.948C121.135 149.459 120.351 148.675 119.624 148.675ZM121.863 144.141C120.351 143.413 118.112 144.141 117.329 141.902C118.112 142.63 118.112 139.663 119.624 141.174C121.135 141.902 122.646 141.902 123.374 143.413C123.374 144.925 122.646 144.141 121.863 144.141ZM121.863 17.3529C120.351 18.0806 120.351 15.8415 118.84 16.5692C116.601 16.5692 115.089 18.8643 112.794 18.8643C112.067 18.8643 112.067 18.8643 112.067 18.1365C112.794 15.8415 115.089 13.6024 118.112 14.3861C119.624 13.6584 120.407 14.3861 121.863 15.1698C122.59 15.8975 122.59 13.6584 123.374 14.3861C124.158 14.3861 124.885 13.6584 124.885 15.1698C124.158 16.6252 123.374 17.3529 121.863 17.3529ZM131.715 12.8187C130.931 13.5464 130.931 10.5237 129.42 12.091C127.908 12.8187 127.181 14.3301 125.669 14.3301C126.453 13.6024 124.158 13.6024 124.885 12.8187C126.397 11.3073 127.908 11.3073 129.42 9.06825H131.715C132.498 9.06825 134.737 5.31778 134.737 9.79595C133.954 11.3073 133.17 12.091 131.715 12.8187ZM136.977 15.8415C136.193 15.8415 135.465 16.5692 135.465 15.1138C135.465 14.3301 136.193 13.6024 136.977 13.6024C138.488 12.091 138.488 15.1138 139.216 14.3301C139.216 15.8415 137.704 15.8415 136.977 15.8415ZM151.307 86.8205C151.307 85.3092 152.818 85.3091 153.602 85.3091C154.385 85.3091 155.113 84.5814 155.113 86.0368C154.385 87.5482 153.602 88.3319 152.09 88.3319C150.579 88.3319 151.307 87.5482 151.307 86.8205ZM149.068 22.6147C151.307 21.887 150.579 25.6375 152.818 25.6375C155.057 24.1261 156.569 21.887 158.864 20.3756C159.591 20.3756 160.375 20.3756 160.375 20.3756C160.375 20.3756 160.375 21.1593 160.375 21.887C160.375 22.6147 161.886 24.1261 159.591 24.1261C157.296 24.8538 155.057 26.3652 153.546 27.1489C152.818 27.8766 152.818 29.388 151.251 30.1716C148.228 28.6603 150.523 24.9098 148.228 22.6147H149.068ZM150.579 59.6156L149.068 61.127V60.3993C149.068 59.6716 149.068 59.6716 149.795 59.6716H150.579V59.6156ZM149.068 90.571C150.579 90.571 151.307 91.2987 151.307 92.8101C151.307 93.5378 152.09 94.3215 150.579 94.3215C149.068 93.5938 148.284 92.8101 148.284 91.2987C148.284 90.571 148.284 90.571 149.068 90.571ZM151.307 98.1279C151.307 98.8556 151.307 98.8556 150.579 98.8556C149.795 98.8556 149.795 98.8556 149.795 98.1279H151.307ZM145.261 17.3529C146.045 17.3529 146.045 17.3529 146.045 18.0806C146.045 18.8083 146.045 18.8083 145.261 18.8083C144.533 18.8083 144.533 18.8083 144.533 18.0806C144.533 17.3529 144.533 17.3529 145.261 17.3529ZM147.556 138.879H144.533C144.533 138.879 144.533 138.096 144.533 137.368C144.533 136.64 145.261 135.857 146.045 135.857C147.556 136.584 149.795 135.857 150.579 138.096C150.579 142.63 148.284 138.879 147.556 138.879ZM152.818 125.277C152.818 126.005 152.818 127.572 151.307 127.572C150.579 127.572 149.795 126.844 149.795 126.061C150.579 125.333 151.307 124.549 152.09 123.821C153.602 123.765 152.818 124.549 152.818 125.277ZM158.08 94.3215C158.08 95.0492 159.591 95.8329 158.864 97.3442C160.375 99.5833 156.569 100.367 156.569 101.878C158.08 104.117 159.591 105.629 161.103 107.924C160.375 110.163 158.08 111.674 156.569 113.969C153.546 112.458 153.546 109.435 152.818 107.196C152.034 104.901 155.057 104.901 155.057 103.446C155.057 101.934 153.546 101.151 153.546 99.6953C156.569 95.9448 152.034 90.627 156.569 87.6042C158.08 87.6042 159.591 88.3319 159.591 90.627C158.864 91.2987 160.375 93.5938 158.08 94.3215Z" fill="#528FBF"/>
<path d="M153.606 147.164C154.389 147.164 154.389 147.164 154.389 147.892C154.389 148.619 153.606 149.403 152.878 149.403V148.675C152.094 147.948 154.333 147.948 153.606 147.164Z" fill="#528FBF"/>
<path d="M126.399 153.993C127.127 153.993 127.91 154.721 127.91 155.505C127.91 157.016 127.127 156.288 126.399 156.288C125.615 156.288 125.615 156.288 125.615 155.505C124.888 154.721 127.183 154.721 126.399 153.993Z" fill="#528FBF"/>
<path d="M99.248 156.232V155.449V154.721C100.032 154.721 100.032 154.721 100.032 155.449C99.9757 156.232 99.9758 156.232 99.248 156.232Z" fill="#5893C5"/>
<path d="M185.341 10.2998C185.285 9.90795 184.557 10.2438 185.117 9.96393C185.397 10.1319 185.621 10.2998 185.341 10.2998Z" fill="black"/>
<path d="M104.565 51.8348C106.301 49.8756 107.252 52.4505 108.875 51.331C109.043 51.275 108.54 52.5625 108.987 52.3386C110.611 50.8272 112.178 52.4505 113.578 53.9619L113.41 54.2978C113.69 54.5777 114.193 53.4581 114.473 53.626L114.361 54.2978C114.529 53.5701 114.977 54.0179 115.145 53.5141L115.257 54.6896L115.537 53.9059C116.208 52.0027 116.712 54.1298 117.496 53.1782L117.384 53.682C118.56 52.6185 119.847 52.8983 121.078 52.5625L121.023 53.682C121.078 52.8424 121.47 52.6744 121.806 52.5065C121.918 53.4021 122.366 51.7228 122.702 52.2826L122.646 52.4505C122.926 51.4989 123.038 52.9543 123.262 51.8348L123.43 52.5065C123.541 51.275 123.821 53.1222 124.045 52.4505V52.1706C124.269 51.8348 124.381 52.4505 124.549 52.2266L124.605 52.3945C125.053 52.0587 125.333 52.6744 125.277 51.7228C125.445 52.5065 124.829 52.1147 125.165 53.2342C126.676 52.1147 128.244 52.1706 129.755 52.0587L130.203 52.8983C130.315 52.6744 130.763 52.6744 130.819 52.1706C130.763 52.1706 130.986 52.6744 131.042 52.6744C131.378 53.0103 131.21 51.6109 131.602 52.0027V52.9543C131.77 52.1706 132.106 52.2826 132.386 52.0027L132.33 52.5625C132.554 51.6668 133.002 52.7304 133.17 52.1147V52.6744C133.729 53.2342 133.114 51.4989 133.561 51.7788L133.617 52.3945C133.841 51.275 134.457 51.4989 134.793 51.0511V51.275C135.185 51.0511 135.689 51.275 136.024 50.7152C136.248 50.9391 136.248 52.0587 136.64 51.7228C136.36 50.6592 137.256 51.1071 136.752 49.9315C137.144 50.0435 137.816 50.2674 137.984 49.8756C137.928 50.3234 138.487 51.163 138.207 51.331L138.599 51.9467C138.655 52.3945 138.319 51.8348 138.543 52.3945C138.711 52.2826 139.047 51.7788 139.215 51.8907C139.327 51.163 139.271 49.8756 139.663 49.5957C139.551 50.0435 140.111 50.7712 139.999 50.9951L140.055 48.756C140.167 48.6441 140.335 49.5957 140.447 49.2598L140.391 48.5321C140.503 48.6441 140.95 48.1403 141.342 49.1479C141.51 49.5397 141.174 49.4278 141.454 49.7636C141.734 49.7076 141.622 49.3158 141.902 49.2598L141.958 49.3718C142.182 49.4837 142.35 48.812 141.958 48.2522C141.846 48.2522 142.238 48.868 141.902 48.5881C141.846 47.9723 142.126 47.6925 142.35 47.5805L142.462 48.3642C142.574 47.4126 142.798 46.9648 143.078 46.461C142.91 45.9572 143.245 47.4126 143.133 47.1887C143.861 47.6365 143.805 45.7892 144.589 46.6289C144.533 46.7408 144.309 45.9572 144.365 46.0691C144.645 46.0131 144.869 46.7408 144.925 46.405C145.093 46.7968 145.093 46.1811 145.205 46.0131C145.149 45.6773 145.317 46.1811 145.205 46.293C145.317 45.8452 145.932 44.8376 146.716 45.2295C146.604 44.9496 146.604 44.1099 146.716 44.1099L146.94 44.7816C147.22 45.1175 147.332 44.5577 147.556 45.1175C147.5 44.2219 146.828 46.1811 146.94 45.4534C147.276 45.9572 146.996 44.2219 147.276 45.1175C147.5 45.0056 147.444 44.1659 147.892 44.6697C147.78 44.6137 148.059 45.6213 148.283 45.5093C148.563 45.2295 148.227 45.1735 148.451 44.8376L148.507 44.5018C148.227 43.886 148.843 44.4458 148.395 43.83C148.675 44.3338 148.731 43.3262 149.179 44.3338L149.515 45.1175C149.627 45.0056 149.347 44.1659 149.291 43.7741L149.515 44.1099C148.955 42.8784 149.907 44.0539 149.627 43.0464C150.131 43.3262 150.411 42.7665 150.914 43.3822C150.97 42.8784 150.914 42.3187 151.306 42.4306L151.362 42.9344C151.698 43.1583 151.586 42.8224 151.642 42.5426C151.698 42.7665 152.314 43.0464 152.706 43.3262C152.706 42.8224 152.314 42.2627 152.09 41.8708C152.93 42.8784 152.258 40.7513 153.097 41.6469C153.097 41.8708 153.097 42.4306 153.433 42.5985C154.273 43.6061 153.321 41.479 153.993 41.8708L153.377 40.9752C153.881 41.479 153.489 40.1355 154.049 41.1431C153.937 40.7513 154.609 41.1991 153.993 40.3035C155.001 40.7513 154.945 39.072 156.344 40.4714C156.288 40.2475 156.624 40.3035 156.288 39.8557C155.84 39.4638 156.344 40.3035 156.064 40.0236L155.896 39.5758C156.176 39.6877 156.344 39.6877 156.68 40.5274C157.408 40.8632 156.064 38.7921 156.736 38.8481C156.96 39.2399 157.072 39.3519 157.184 39.1839L157.016 38.4002C157.408 38.3443 157.744 39.128 158.191 39.7437C158.303 39.5198 158.471 39.4638 158.247 38.96L158.975 39.5758C158.415 39.128 158.863 39.128 158.807 38.96L158.863 39.128C159.087 39.3519 159.143 39.072 159.143 38.96C158.863 38.6242 158.583 38.6242 158.359 38.5682C158.247 38.2323 158.415 38.2323 158.303 37.8405C158.695 38.4562 158.863 38.0644 159.031 38.0084C159.255 38.0084 158.807 37.3367 158.863 37.3367C159.087 37.6166 159.143 37.2247 159.311 37.7285C159.367 37.8405 158.975 37.5046 159.143 37.8405C159.423 38.0084 159.815 38.5122 159.703 38.0084C159.591 37.6166 158.807 36.8889 159.311 37.0568L159.647 37.7845L160.151 37.8965L159.759 37.3367L159.983 37.5606C159.647 36.9448 160.207 37.0568 159.759 36.3851C159.815 36.2171 160.318 36.553 160.486 36.497V36.553C160.878 36.7209 160.934 36.3851 160.71 35.9373L160.822 36.0492C160.934 36.0492 161.046 35.7693 160.878 35.3775C161.382 35.6014 162.558 37.2807 162.222 36.441C162.39 36.2731 161.774 35.2096 161.382 34.9856C161.998 35.0416 161.718 33.8661 162.726 34.3699L162.446 33.8101C163.117 33.5862 163.005 32.2987 164.293 32.9145C164.349 33.2504 164.741 33.4183 165.021 33.6982C164.741 33.1384 165.58 34.034 164.965 33.2504C164.517 32.8025 164.349 32.5786 164.013 32.5226C164.069 32.0189 164.573 31.627 165.133 31.9069C164.853 31.7949 164.797 31.571 164.741 31.4031C165.412 32.1308 165.692 32.0189 165.636 31.571L165.244 31.1232L165.748 31.4591C165.692 31.2352 164.909 30.5075 165.468 30.7314L165.972 31.1232C165.804 30.6194 165.412 29.7798 165.916 29.9477L166.7 30.3955C166.7 30.2276 166.42 29.7798 166.14 29.7238C166.812 29.7798 167.036 29.6118 167.651 30.0037C166.812 28.2124 167.428 27.3727 168.099 26.813L168.435 27.0929C168.883 27.2048 167.931 26.5331 168.267 26.5891C168.547 26.9249 169.107 27.0369 169.387 27.4847C169.947 27.5407 169.051 26.701 169.051 26.3652C168.603 25.9733 169.219 26.757 168.659 26.2532C168.547 26.0853 169.275 26.1972 168.659 25.6375C168.995 25.8054 169.443 26.2532 169.667 26.4771L169.443 26.0853C170.394 26.5331 170.506 27.6526 171.626 28.2684V28.0445C172.466 28.4923 172.074 29.108 172.689 28.8841C172.521 28.4363 171.626 27.5407 171.178 27.4287C171.29 26.9249 169.667 25.9733 170.003 25.6934C170.506 25.9173 169.835 26.0293 170.506 26.4211C171.178 26.701 170.45 25.8614 170.786 25.8614C170.394 25.8054 169.779 25.1337 169.779 24.9657C170.282 25.0217 170.338 25.5815 170.618 25.4135C170.226 25.0777 170.17 24.6299 169.667 24.5739C168.827 23.7902 170.17 24.5179 169.555 23.8462C170.282 24.238 170.842 25.2456 171.402 25.1896C170.73 24.7418 170.842 24.238 169.779 23.6783C170.058 23.6783 170.562 24.0701 170.842 24.406C171.346 24.5179 169.947 23.1745 171.234 24.0141L170.618 23.5103C170.842 23.6223 171.066 23.6223 171.458 23.7902C171.57 23.6223 170.898 22.6707 171.85 23.3984C171.794 23.2864 172.018 22.9506 171.29 22.6147C170.73 22.5587 171.626 23.2304 170.674 22.6707C171.514 23.0625 170.786 22.2788 170.562 21.9989L170.954 22.2228C170.842 22.0549 171.01 21.943 170.674 21.6071L171.234 21.9989L170.674 21.5511C170.562 21.0473 171.738 22.1669 171.738 21.775L172.074 22.2788C172.018 22.1669 172.633 22.4468 172.522 22.1669L171.066 20.8794C170.954 20.5435 171.738 21.2153 171.234 20.7115L171.738 21.3272C171.906 21.4951 172.689 21.775 172.857 21.5511C172.745 21.2712 172.13 20.5995 171.682 20.5995C171.738 20.4876 172.186 20.5435 172.522 20.8794C172.466 20.4876 171.906 20.5435 171.738 20.0957C172.13 20.2636 172.857 20.3196 173.473 20.4876L174.257 21.2712L174.369 21.1033C174.984 21.775 174.984 21.3832 175.712 21.943C175.88 21.887 175.712 21.6071 175.6 21.3832C174.201 20.9354 174.145 19.9838 172.913 19.368C172.857 18.8082 175.824 20.7674 174.313 19.312C173.977 19.2001 173.249 18.4724 173.417 18.9202C173.697 18.7523 172.354 18.0805 173.025 18.0805C173.361 18.5843 174.313 18.5284 174.817 19.2561C174.425 19.0322 174.425 19.2561 174.481 19.368C174.985 19.5359 175.6 20.0957 175.768 19.8158C175.768 19.5919 175.88 19.368 175.264 19.0322C174.593 18.6403 175.208 19.312 174.593 18.8082C174.537 18.3604 175.6 18.8642 174.537 18.0805C174.481 18.3604 173.809 17.9686 173.361 17.7447L173.249 17.3528L173.641 17.6327C174.201 17.4648 172.913 17.073 173.249 16.7931L174.257 17.1289C174.984 17.6327 173.585 17.4648 174.873 18.0805C175.04 17.8566 174.481 17.4648 174.929 17.4088L175.208 17.9126C175.32 17.8566 177 18.6403 176.216 17.8007C175.936 17.4088 175.824 17.5208 175.376 17.2409C175.488 16.7931 175.096 16.4572 175.152 16.1773C176.048 16.6811 175.432 15.7855 176.216 16.5132C175.656 16.4012 175.376 16.905 176.104 17.5208C177.28 17.9686 175.768 17.7447 176.776 18.4164C177 18.1365 178.063 18.6963 178.735 19.0322C178.847 18.9762 178.567 18.7523 178.511 18.6403C177.895 18.2485 177.839 18.3604 177.168 18.0246C177.559 17.8007 177.392 17.2409 176.832 16.7371C177.224 16.7931 177.839 17.1289 177.839 17.3528C177.839 16.7931 178.119 16.4012 178.511 16.0654C177.336 15.7855 178.455 15.4496 177.503 15.2257C177.168 15.3377 176.328 15.1697 175.88 14.7779C175.992 14.6659 176.328 15.0018 176.608 15.0578C176.104 14.61 177.671 15.2257 176.832 14.61C177 15.1697 178.119 15.3377 178.903 15.7855C178.567 15.2817 179.519 16.0654 179.631 15.7855C179.295 15.2817 179.071 14.7219 179.015 14.3301C180.022 14.2741 179.463 13.3225 179.575 12.9306C180.078 12.9306 181.03 13.4904 181.254 13.3225C181.366 13.0426 180.134 13.0426 180.694 12.8747L180.862 12.9866C180.694 12.7627 181.814 12.5948 180.47 11.9231L181.478 12.4828C181.59 12.4268 181.366 12.3149 181.31 12.2029L182.206 12.5948C183.045 12.6508 182.317 12.091 182.373 11.8111L181.646 11.6991C181.31 11.0834 182.094 11.0274 182.038 10.5796L182.653 10.8035L182.373 10.4117C182.933 10.6916 183.437 10.5796 182.989 10.2997L184.277 11.4752C183.829 11.5312 183.605 10.9714 182.933 10.8595C182.373 10.7475 182.373 11.1953 182.933 11.4752C183.045 11.3633 182.933 11.3073 182.765 11.0834C183.661 11.3633 183.549 11.5872 184.053 11.9231C184.053 11.8111 184.333 11.8111 184.109 11.6991C184.445 12.035 184.445 12.2029 184.389 12.4828C184.109 12.2029 183.829 12.3709 183.605 12.2029C184.333 12.5388 184.501 12.8747 184.165 13.0986C183.213 12.9866 184.445 13.9382 184.053 14.2181C183.325 13.7703 182.821 13.3225 182.597 12.9866C182.094 13.0426 182.485 13.2665 182.038 13.3225C182.541 13.6583 183.381 14.1062 183.605 14.554L183.045 14.3301C183.213 14.7219 184.053 15.0578 183.717 15.3936C183.157 15.8974 182.933 16.5132 182.653 16.905L182.094 16.6811C183.157 17.5208 182.15 17.7447 182.541 18.3044C181.758 18.6403 182.485 19.8718 181.422 19.6479C181.254 20.8234 181.142 21.887 180.302 22.7826L179.631 22.1669C180.078 22.6707 179.127 21.9989 179.127 22.2788C179.855 22.4468 179.743 23.0065 180.134 23.3984C179.239 23.4543 179.575 24.4619 179.799 25.1896L179.295 24.8538C180.022 25.8614 178.847 25.8054 178.399 26.1972C178.175 26.1413 177.615 25.8614 177.559 26.0853C178.231 26.9249 178.063 27.0369 178.343 27.7646C178.175 28.0445 177.671 28.3803 177.168 28.4363C177.559 30.3395 175.936 30.7314 175.712 32.2987L175.096 31.9069C175.432 33.8661 173.305 34.202 173.137 35.5454L172.298 34.6498C171.794 34.6498 172.018 35.4894 172.689 35.9932C172.186 35.9932 172.522 37.0568 171.682 36.553C171.29 36.665 171.794 37.2807 171.738 37.6166C170.954 37.8405 170.786 38.0644 170.45 38.6801L170.618 38.6242C170.506 38.4002 170.114 38.0084 169.947 38.0644C170.003 38.4562 168.995 38.4562 170.226 39.3519C169.107 39.1839 169.387 40.9752 168.099 40.5834C168.435 40.8632 168.323 41.0312 168.435 41.2551C167.931 41.7029 166.924 41.479 166.98 42.3746C166.756 42.2627 166.644 41.7589 166.42 41.8708C166.42 42.0947 166.756 42.2627 166.756 42.5985C166.42 43.886 164.685 43.3822 164.069 44.1099C163.285 45.8452 161.438 46.293 160.151 47.3006L159.983 47.0207C160.095 48.2522 158.303 46.6849 158.807 48.3642C158.527 48.1963 158.303 48.5321 158.135 47.9723C158.191 48.868 156.736 47.9723 156.736 49.1479L156.792 48.924C155.952 48.7001 155.896 49.7636 155.057 49.5957L155.001 49.0359C154.497 48.6441 155.057 50.4353 154.273 49.2598C154.161 49.3718 154.497 49.9315 154.553 49.8756C153.041 50.0995 151.978 51.387 150.746 52.2826C149.403 51.9467 149.739 50.0995 149.347 51.4429C149.179 51.219 149.515 51.9467 149.403 51.6668C149.235 52.1706 148.339 50.3794 148.395 51.163C148.843 51.9467 148.451 51.6668 148.619 52.1706C147.78 51.8907 147.388 51.219 147.164 52.0587L147.052 51.6109C146.996 53.0663 146.1 52.6744 146.1 54.2418C143.078 55.8092 139.999 57.0406 136.808 58.1042C133.561 58.8319 130.371 59.3917 126.956 58.9439C126.116 57.8243 126.06 57.8243 125.221 58.3841V57.9363C125.221 58.9439 124.605 58.1042 124.605 58.9998C123.374 58.9439 122.254 59.2797 120.967 59.1678C121.19 59.0558 121.302 58.2721 121.023 58.3281L120.743 58.9439L120.687 58.664C120.519 58.7759 120.351 59.2797 120.463 59.6156C117.16 60.1754 114.193 58.1042 111.115 57.8803C110.443 57.3205 109.379 57.4325 108.54 57.4885C106.468 55.6412 104.733 54.1858 102.158 54.5217C102.438 54.5217 103.502 52.1706 104.565 51.8348Z" fill="black"/>
<path d="M185.23 10.7475C184.726 10.6356 184.39 10.8035 183.83 10.4117L185.23 10.7475Z" fill="black"/>
<path d="M177.897 15.0018C178.008 15.0578 177.673 15.0018 177.617 15.0018C177.617 14.8899 177.281 14.666 177.505 14.7219C177.505 14.7779 177.729 14.8899 177.897 15.0018Z" fill="black"/>
<path d="M177.001 16.3452C176.609 16.1213 176.441 15.6175 176.497 15.4496L177.001 16.3452Z" fill="black"/>
<path d="M174.652 16.8491C174.26 16.7931 174.092 16.6812 174.204 16.5132L174.652 16.8491Z" fill="black"/>
<path d="M175.489 17.4089C175.433 17.5209 175.154 17.4649 174.93 17.3529C175.266 17.5768 174.874 17.0171 175.489 17.4089Z" fill="black"/>
<path d="M172.636 19.5361C172.636 19.592 172.86 19.9279 172.412 19.76C172.748 19.8719 172.132 19.1442 172.636 19.5361Z" fill="black"/>
<path d="M172.41 21.1594L172.354 21.2713C172.13 21.2153 171.906 20.9914 171.906 20.8795L172.41 21.1594Z" fill="black"/>
<path d="M153.604 41.4791L153.659 41.1992L153.827 41.5911L153.604 41.4791Z" fill="black"/>
<path d="M142.407 46.7409C142.351 47.0768 142.183 46.405 142.127 46.3491C142.295 46.2371 142.239 46.9088 142.407 46.7409Z" fill="black"/>
<path d="M136.416 50.5474H136.472L136.64 51.3871L136.416 50.5474Z" fill="black"/>
<path d="M239.642 92.1383C239.977 91.5226 238.802 91.8584 239.698 91.5786C239.921 91.9144 240.033 92.1943 239.642 92.1383Z" fill="black"/>
<path d="M129.197 25.3576C130.764 28.1565 127.797 30.1157 128.525 32.7466C128.525 33.0265 127.294 32.4107 127.461 33.0825C128.301 35.6014 127.406 38.8481 125.614 41.535L125.278 41.3111C124.943 41.8149 126.062 42.5426 125.838 43.1024C125.614 43.1024 125.502 42.8785 125.166 42.9904C125.838 43.1584 125.39 44.054 125.894 44.2779C125.614 44.5018 125.054 44.4458 124.719 44.7257L125.502 45.0616C127.406 46.0132 125.054 47.2447 126.286 48.4202C126.118 48.3642 125.95 48.2523 125.782 48.3642C127.126 50.2675 127.182 52.6745 127.797 54.7456C127.517 54.6897 126.958 54.6897 126.678 54.8576C127.517 54.8576 127.797 55.4733 128.021 56.0331C127.182 56.4249 128.917 56.8728 128.525 57.6005H128.357C129.309 57.9363 127.909 58.4401 129.029 58.6081L128.413 59.0559C129.645 59.0559 127.853 59.8955 128.525 60.1754L128.749 60.1194C129.141 60.3993 128.581 60.7352 128.917 61.0151L128.805 61.071C129.365 61.7988 128.861 62.4145 129.757 62.1906C129.085 62.6384 129.197 61.5189 128.245 62.1906C130.036 64.5976 130.652 67.3405 131.548 69.9714C131.268 70.4192 131.212 70.6431 130.932 70.8671C131.212 71.035 131.436 71.8187 131.94 71.8746C131.884 71.8187 131.548 72.2105 131.548 72.3784C131.436 72.9942 132.779 72.4344 132.667 73.1061C132.331 72.9942 131.996 73.0502 131.716 73.2741C132.611 73.386 132.835 74.0018 133.339 74.3936C133.171 74.3936 133.003 74.2817 132.723 74.4496C133.787 74.6175 133.115 75.5132 133.843 75.7371L133.227 75.793C133.059 76.8566 134.403 75.5132 134.403 76.3528C134.179 76.2968 134.011 76.4088 133.787 76.5207C135.018 76.6887 135.242 77.8082 135.914 78.256L135.69 78.368C136.138 78.9837 136.25 79.8234 137.034 80.3272C136.978 80.719 135.802 80.9429 136.418 81.5587C137.369 80.9429 137.481 82.5103 138.321 81.3908C138.433 82.1185 138.657 83.238 139.329 83.35C138.769 83.35 138.433 84.4135 137.985 84.0217L137.705 84.7494C137.313 84.9733 137.537 84.3016 137.146 84.7494C137.369 84.9733 138.265 85.3651 138.265 85.645C139.161 85.645 140.504 85.2532 141.176 85.813C140.56 85.757 140.336 86.7646 140 86.6526L142.463 86.2608C142.687 86.4287 141.792 86.8765 142.295 86.9885C142.519 86.7646 142.743 86.8205 143.023 86.7646C142.967 86.9325 143.975 87.4923 143.191 88.276C142.967 88.6678 142.743 88.052 142.631 88.5558C142.967 88.9477 143.303 88.7238 143.639 89.1156L143.527 89.2276C143.639 89.6194 144.535 89.6754 144.758 89.0037C144.646 88.7797 144.311 89.5075 144.367 89.0596C144.982 88.8357 145.486 89.1716 145.822 89.5634C145.598 89.5634 145.374 89.7873 145.094 89.8993C146.158 89.8433 146.83 90.2352 147.557 90.571C147.949 90.2352 146.718 91.0188 146.83 90.739C146.886 92.0824 149.069 91.3547 148.901 92.6422C148.733 92.6422 149.349 92.0264 149.237 92.1944C149.572 92.5302 149.013 93.09 149.461 93.09C149.181 93.4259 149.852 93.2579 150.188 93.3139C150.524 93.2019 150.132 93.5378 149.852 93.3699C150.468 93.3699 152.259 93.9856 152.595 95.1052C152.763 94.8812 153.771 94.6573 153.883 94.8253L153.379 95.3291C153.267 95.7769 153.995 95.7769 153.659 96.2807C154.554 95.9448 151.756 95.609 152.651 95.553C152.427 96.1127 154.051 95.2731 153.379 95.9448C153.771 96.2247 154.554 95.8888 154.554 96.6725C154.498 96.5046 153.715 97.1763 153.995 97.4002C154.61 97.7361 154.331 97.2323 154.89 97.4002H155.338C155.73 96.8964 155.73 97.848 156.01 97.0644C155.73 97.5682 156.961 97.4002 156.234 98.2399L155.674 98.9116C155.954 99.0236 156.514 98.4638 156.961 98.2399L156.849 98.6317C157.633 97.5122 157.409 99.0236 158.249 98.3518C158.529 99.0236 159.536 99.0795 159.368 99.9752C159.984 99.8632 160.6 99.6393 160.936 100.143C160.768 100.199 160.656 100.143 160.488 100.423C160.6 100.927 160.824 100.647 161.216 100.591C161.048 100.759 161.44 101.599 161.552 102.214C162.167 102.102 162.335 101.375 162.615 100.983C162.391 102.382 164.127 100.815 164.071 102.158C163.847 102.27 163.175 102.438 163.399 102.886C163.175 104.285 164.574 102.438 164.91 103.334L165.246 102.27C165.246 103.054 166.366 102.158 165.862 103.166C166.198 102.886 166.422 103.894 166.813 102.886C167.373 104.397 169.5 103.278 169.444 105.349C169.668 105.237 170.004 105.517 170.116 104.957C170.06 104.341 169.612 105.237 169.668 104.845C169.836 104.845 169.948 104.565 170.004 104.453C170.228 104.789 170.508 104.957 169.836 105.685C170.34 106.525 171.236 104.229 172.019 104.901C171.851 105.293 171.851 105.517 172.131 105.517L172.859 104.957C173.419 105.293 172.915 106.021 172.691 106.748C173.027 106.748 173.475 106.86 173.755 106.413L173.867 107.42C173.755 106.692 174.258 107.084 174.482 106.916L174.258 107.028C174.202 107.364 174.65 107.308 174.874 107.252C174.93 106.804 174.594 106.469 174.426 106.301C174.706 106.021 174.93 106.189 175.266 105.853C174.986 106.525 175.658 106.525 175.882 106.692C176.162 106.972 176.386 106.189 176.442 106.189C176.33 106.58 176.889 106.413 176.553 106.86C176.441 106.972 176.442 106.413 176.162 106.692C176.274 107.028 176.106 107.644 176.609 107.308C177.001 107.028 176.889 105.853 177.337 106.525L176.889 107.14L177.337 107.7L177.505 107.028V107.364C177.841 106.748 178.345 107.42 178.681 106.692C178.96 106.748 179.184 107.308 179.408 107.364L179.352 107.42C179.632 107.812 180.08 107.644 180.472 107.196L180.416 107.364C180.584 107.42 181.032 107.364 181.312 107.028C181.703 107.588 181.032 109.547 181.703 108.764C182.207 108.82 182.599 107.644 182.487 107.196C183.271 107.7 184.334 106.748 184.95 107.868C185.118 107.588 185.062 107.42 185.286 107.308C186.461 107.7 187.861 106.804 188.756 108.204C188.421 108.428 188.701 108.876 188.701 109.267C189.036 108.708 189.036 109.939 189.204 108.932C189.204 108.316 189.26 108.036 188.924 107.756C189.652 107.532 190.716 107.644 191.108 108.204C190.884 107.924 191.052 107.756 191.219 107.588C191.163 108.596 191.723 108.652 192.115 108.316L192.171 107.7L192.451 108.316C192.619 108.148 192.619 107.084 193.011 107.588L193.123 108.204C193.515 107.7 194.074 106.86 194.522 107.308L194.914 108.148C195.082 108.036 195.418 107.532 195.026 107.308C195.81 107.812 196.313 107.812 196.649 108.54C197.825 106.748 199.672 106.245 201.183 106.133L201.239 106.58C201.743 106.916 201.295 105.797 201.631 106.021C201.575 106.469 202.135 106.86 201.855 107.42C202.527 107.756 202.471 106.524 202.807 106.301C202.751 105.741 202.583 106.692 202.527 105.965C202.527 105.741 203.422 106.301 203.311 105.405C203.534 105.741 203.534 106.357 203.534 106.748L203.814 106.301C204.486 107.252 203.199 108.26 203.87 109.435L204.206 109.267C204.71 110.107 203.478 110.443 204.43 110.611C204.71 110.107 204.766 108.82 204.374 108.484C205.102 108.092 204.262 106.357 205.102 106.245C205.438 106.692 204.486 106.525 204.822 107.196C205.382 107.756 205.494 106.58 205.885 106.748C205.438 106.525 205.55 105.573 205.718 105.349C206.221 105.629 205.662 106.245 206.221 106.133C206.165 105.629 206.613 105.125 206.053 104.901C205.941 103.726 206.725 105.069 206.781 104.117C207.173 104.845 206.669 106.077 207.397 106.301C207.117 105.573 207.901 105.069 207.229 104.062C207.509 104.229 207.733 104.789 207.677 105.293C208.181 105.629 208.125 103.726 208.684 105.125L208.572 104.341C208.74 104.565 208.964 104.677 209.3 105.069C209.636 105.013 209.972 103.782 210.308 104.901C210.364 104.733 211.035 104.509 210.532 103.838C209.972 103.502 210.252 104.621 209.636 103.614C210.252 104.397 210.196 103.278 210.364 102.886L210.532 103.334C210.588 103.11 210.979 103.054 210.867 102.55C210.867 102.83 211.035 103.11 211.147 103.166L211.035 102.438C211.483 101.878 211.595 103.558 212.099 103.166L211.875 103.838C211.931 103.67 212.379 104.229 212.547 103.894C212.435 103.278 212.323 102.438 212.267 101.934C212.491 101.543 212.659 102.55 212.771 101.822L212.659 102.718C212.659 102.942 213.33 103.614 213.722 103.446C213.89 103.11 214.002 102.102 213.442 101.934C213.666 101.822 214.114 102.102 214.114 102.606C214.506 102.214 213.778 101.99 214.058 101.487C214.394 101.822 215.178 102.158 215.737 102.606V103.782L216.017 103.67C215.961 104.621 216.465 104.173 216.633 105.125C216.913 105.181 217.025 104.789 217.137 104.509C215.961 103.502 216.969 102.382 216.185 101.263C216.745 100.535 218.033 103.95 217.921 101.654C217.641 101.431 217.585 100.311 217.249 100.927C217.753 100.815 216.969 99.5833 217.753 99.7513C217.585 100.423 218.816 100.703 218.592 101.71C218.424 101.319 218.089 101.599 218.089 101.766C218.536 102.102 218.648 102.998 219.152 102.718C219.432 102.438 219.824 102.214 219.432 101.654C219.04 100.983 219.04 101.934 218.872 101.151C219.32 100.591 219.992 101.599 219.6 100.255C219.264 100.535 218.816 99.9192 218.592 99.4154L218.872 98.9116L219.04 99.4154C219.88 99.3594 218.816 98.5198 219.544 98.2959L220.328 99.0236C220.607 99.8632 219.152 99.1915 219.992 100.367C220.44 100.199 220.272 99.4714 220.831 99.5833L220.663 99.9752C220.831 99.9192 221.895 101.487 222.007 100.199C222.119 99.6393 221.839 99.6953 221.559 99.2475C222.119 98.6877 222.063 98.072 222.399 97.7361C222.847 98.6877 223.182 97.3443 223.294 98.5198C222.735 98.1279 221.839 98.7997 222.119 99.8072C222.959 100.703 221.503 99.9752 221.951 101.095C222.567 100.815 223.126 101.822 223.574 102.494C223.742 102.438 223.742 102.046 223.742 101.878C223.406 101.207 223.238 101.319 222.847 100.703C223.574 100.479 223.91 99.7513 223.854 98.9116C224.246 99.0795 224.582 99.7513 224.358 99.9752C224.974 99.3035 225.813 98.9116 226.597 98.6317C225.477 97.96 227.213 97.904 226.317 97.2883C225.813 97.2883 225.03 96.7845 224.918 96.2247C225.198 96.1687 225.198 96.6725 225.422 96.8405C225.31 96.1128 226.485 97.4002 226.149 96.3926C225.757 97.1203 226.877 97.6801 227.325 98.5198C227.493 97.7921 227.717 99.0795 228.164 98.7437C228.332 98.016 228.612 97.1763 229.004 96.6725C230.18 96.8964 230.571 95.3851 231.131 94.9372C231.747 95.0492 232.195 96.0568 232.643 95.9448C232.978 95.609 231.635 95.2731 232.475 95.2171L232.587 95.441C232.587 95.1052 234.098 95.1611 233.202 93.8737L233.818 94.8813C233.986 94.8813 233.874 94.6014 233.874 94.4334C234.154 94.7133 234.49 94.8253 234.49 95.1611C235.329 95.441 235.05 94.3775 235.385 94.0416L234.714 93.7617C234.938 92.8101 235.777 92.9221 236.169 92.1384L236.617 92.6422L236.673 92.0264C237.065 92.5862 237.681 92.5302 237.457 91.9705L237.736 93.9856C237.233 93.9296 237.457 93.146 236.785 92.8661C236.225 92.5862 235.833 93.2579 236.225 93.7617C236.505 93.5938 236.393 93.4818 236.393 93.146C237.121 93.7617 236.785 94.0416 237.065 94.6014C237.121 94.4894 237.513 94.4894 237.345 94.2655C237.457 94.8253 237.289 95.0492 236.953 95.441C236.953 94.9372 236.449 95.1611 236.337 94.8813C236.897 95.497 236.729 96.0008 236.113 96.2807C235.162 95.8888 235.665 97.5682 234.938 97.7921C234.602 96.9524 234.49 96.2247 234.602 95.7209C233.986 95.6649 234.21 96.0568 233.594 96.0008C233.818 96.6165 234.322 97.4002 234.098 98.072L233.65 97.6241C233.426 98.1839 233.986 98.9116 233.37 99.1915C232.251 99.6953 231.355 100.479 230.571 100.983L230.18 100.535C230.571 101.934 229.116 101.822 228.892 102.718C227.605 102.83 227.101 104.565 226.037 104.006C224.638 105.573 223.182 106.636 221.223 107.476L221.111 106.525C221.055 107.252 220.663 106.189 220.384 106.469C221.055 106.916 220.328 107.532 220.328 108.148C219.208 107.98 218.424 109.155 217.865 109.995L217.585 109.435C217.249 110.779 215.905 110.219 214.842 110.443C214.618 110.275 214.282 109.771 214.002 109.939C213.834 111.059 213.498 111.115 212.939 112.01C212.379 112.234 211.315 112.234 210.588 112.066C208.74 113.913 206.221 113.969 203.982 115.033L203.702 114.361C201.631 116.209 198.552 115.481 196.649 116.209L196.761 114.977C196.089 114.641 195.362 115.369 195.586 116.265C194.914 115.929 194.018 116.936 193.571 115.929C192.899 115.761 192.787 116.544 192.283 116.712C190.996 116.376 190.492 116.321 189.26 116.432L189.54 116.544C189.708 116.265 189.708 115.761 189.428 115.649C188.98 115.929 187.805 115.145 188.197 116.656C186.965 115.705 185.062 117.048 183.886 115.761C183.942 116.153 183.607 116.209 183.439 116.488C182.263 116.376 181.2 115.425 180.136 116.041C179.968 115.817 180.528 115.425 180.08 115.313C179.8 115.425 179.968 115.817 179.632 116.041C177.561 116.712 176.05 114.697 174.37 114.361C171.292 114.193 168.325 112.906 165.526 112.122L165.638 111.842C164.238 112.626 163.959 110.051 162.615 111.171C162.503 110.779 161.887 110.611 162.279 110.219C161.272 110.555 160.712 108.54 159.257 108.876H159.592C158.921 107.756 157.633 108.092 156.849 106.972C157.017 106.916 157.241 106.916 157.409 106.692C157.297 105.965 155.842 107.252 156.346 105.909C156.122 105.797 155.842 106.413 155.954 106.469C153.883 104.901 151.14 104.117 148.901 102.494C147.893 100.591 150.3 100.535 148.453 100.423C148.509 100.143 148.061 100.815 148.229 100.535C147.501 100.479 148.509 98.7437 147.781 99.0236C147.333 99.8072 147.277 99.2475 146.886 99.6393C146.326 98.4638 146.718 97.7361 145.542 97.6241L145.878 97.3442C144.199 97.6241 143.695 96.2807 141.904 96.7845C138.041 92.1944 132.723 88.7238 130.092 83.182C127.238 77.9202 124.159 72.8263 123.487 66.6688C124.215 64.9895 124.159 64.9335 123.263 63.59C123.487 63.59 123.543 63.702 123.711 63.534C122.703 63.702 123.319 62.5265 122.312 62.5824L121.36 56.0891C121.528 56.4249 122.312 56.5369 122.2 56.0891L121.528 55.6972L121.808 55.5853C121.64 55.3054 121.136 55.0255 120.8 55.3614C119.009 49.5957 121.192 43.8861 121.752 38.3443C122.312 37.0568 122.032 35.1536 122.144 33.6422C124.607 29.7238 126.678 26.5331 127.014 22.1109C126.902 22.055 129.141 23.5663 129.197 25.3576Z" fill="black"/>
<path d="M239.194 92.8101C238.747 92.5862 238.187 92.6982 237.963 91.9705L239.194 92.8101Z" fill="black"/>
<path d="M226.764 97.0084C226.82 97.1204 226.484 96.9525 226.428 96.8965C226.54 96.7845 226.372 96.3927 226.652 96.5046C226.54 96.6166 226.652 96.7845 226.764 97.0084Z" fill="black"/>
<path d="M224.079 98.4078C223.855 98.016 224.191 97.4002 224.471 97.1204L224.079 98.4078Z" fill="black"/>
<path d="M220.831 98.3518C220.439 98.1839 220.383 97.96 220.663 97.7921L220.831 98.3518Z" fill="black"/>
<path d="M221.223 99.3035C220.999 99.4154 220.775 99.2475 220.551 99.0796C220.775 99.4154 220.887 98.6318 221.223 99.3035Z" fill="black"/>
<path d="M215.404 100.871C215.292 100.983 215.18 101.431 214.844 101.039C215.124 101.263 215.236 100.199 215.404 100.871Z" fill="black"/>
<path d="M213.161 102.438L212.937 102.55C212.713 102.438 212.769 102.046 212.881 101.99L213.161 102.438Z" fill="black"/>
<path d="M164.352 102.27L164.743 102.214L164.519 102.606L164.352 102.27Z" fill="black"/>
<path d="M146.436 89.1717C146.044 89.1157 146.604 88.7239 146.604 88.6679C146.828 88.8358 146.156 88.9478 146.436 89.1717Z" fill="black"/>
<path d="M137.201 80.7751L137.313 80.887L136.529 81.3348L137.201 80.7751Z" fill="black"/>
<path d="M196.371 52.3386C196.539 52.1706 196.427 51.5549 196.483 52.0027C196.427 52.3386 196.371 52.6185 196.371 52.3386Z" fill="black"/>
<path d="M166.926 39.352C168.661 37.7847 167.653 39.9118 168.885 39.0161C168.997 38.9602 168.101 40.0237 168.381 39.7998C169.781 38.6243 169.669 39.8558 169.277 41.2552L169.053 41.5351C168.997 41.815 169.781 40.9194 169.781 41.0873L169.389 41.5911C169.836 41.0313 169.725 41.4232 170.06 41.0313L169.445 42.0389L169.948 41.4232C171.18 39.9678 170.172 41.759 170.956 41.0873L170.62 41.4791C171.572 40.7514 171.796 41.1433 172.355 41.0313L171.74 41.9829C172.243 41.3112 172.467 41.1993 172.635 41.0873C172.188 41.815 173.195 40.5275 173.027 40.9753L172.915 41.1433C173.475 40.4156 172.747 41.6471 173.363 40.8074L173.027 41.4232C173.755 40.4156 172.803 42.0389 173.195 41.5351L173.307 41.3112C173.531 41.0873 173.195 41.6471 173.363 41.4791L173.307 41.5911C173.587 41.4232 173.307 42.0389 173.811 41.1993C173.419 41.871 173.475 41.4232 172.971 42.3748C173.923 41.815 174.203 42.3188 174.651 42.5427L174.315 43.3264C174.483 43.1585 174.595 43.2704 174.874 42.8786C174.874 42.8786 174.651 43.3264 174.651 43.3824C174.539 43.7182 175.266 42.5427 175.154 42.9345L174.651 43.7182C175.098 43.1025 175.154 43.2704 175.378 43.1025L175.042 43.5503C175.546 42.8786 175.154 43.7742 175.49 43.3824L175.154 43.8302C174.986 44.5019 175.77 42.8226 175.714 43.2704L175.378 43.7742C175.994 42.9345 175.994 43.3264 176.274 43.1025L176.162 43.3264C176.33 43.2704 176.33 43.6063 176.666 43.2704C176.61 43.4943 175.994 44.4459 176.218 44.334C176.778 43.3264 176.666 44.0541 177.169 42.8786C177.169 43.1025 177.169 43.5503 177.393 43.2704C177.169 43.6063 176.834 44.5019 176.666 44.5579L176.442 45.1736C176.218 45.5655 176.442 45.0057 176.162 45.5095C176.218 45.5095 176.554 45.1736 176.554 45.3416C176.946 44.7818 177.617 43.6623 177.841 43.6063C177.561 43.9421 177.337 44.7258 177.169 44.8937L178.345 43.1025C178.401 43.1025 177.953 43.8862 178.177 43.6623L178.569 43.1025C178.513 43.2144 178.849 42.9345 178.401 43.9421C178.233 44.334 178.233 44.1101 178.121 44.5019C178.233 44.5579 178.401 44.222 178.457 44.222L178.401 44.334C178.401 44.5019 178.793 43.9981 178.961 43.4383C178.961 43.3824 178.681 44.0541 178.793 43.7182C179.129 43.1585 179.297 43.0465 179.353 43.1025L178.961 43.7742C179.465 43.0465 179.688 42.8786 179.968 42.5987C180.192 42.1509 179.521 43.4383 179.632 43.1585C179.465 43.8862 180.416 42.3748 180.08 43.4383C180.024 43.4943 180.36 42.7666 180.304 42.8786C180.36 42.9905 180.024 43.6623 180.192 43.4383C180.024 43.8302 180.304 43.3264 180.416 43.2704C180.584 42.9905 180.36 43.4943 180.248 43.4943C180.472 43.2144 181.032 42.7106 180.92 43.3824C181.032 43.1025 181.48 42.4308 181.48 42.4867L181.2 43.1025C181.088 43.4943 181.368 43.1025 181.144 43.6623C181.536 42.9345 180.528 44.166 180.92 43.6063C180.696 44.166 181.536 42.6547 181.088 43.5503C181.2 43.5503 181.536 42.8786 181.368 43.4943C181.368 43.3824 180.92 44.334 180.976 44.334L181.312 43.8862L181.48 43.6623C181.76 43.0465 181.536 43.7742 181.816 43.1025C181.592 43.6063 182.095 42.8786 181.648 43.8862L181.312 44.6698C181.368 44.6139 181.76 43.8862 181.928 43.5503L181.816 43.9421C182.319 42.7106 181.872 44.1101 182.319 43.1585C182.263 43.6063 182.543 43.2704 182.263 44.0541C182.487 43.7182 182.767 43.2704 182.711 43.5503C182.655 43.6623 182.599 43.6623 182.487 43.9421C182.375 44.334 182.543 43.9981 182.655 43.8302C182.543 43.9981 182.487 44.6139 182.375 45.0617C182.599 44.7258 182.823 44.0541 182.991 43.6063C182.599 44.8378 183.551 42.8786 183.159 44.0541C183.047 44.222 182.823 44.6139 182.767 44.9497C182.375 46.1812 183.271 44.1101 183.159 44.7258L183.607 43.6623C183.439 44.334 183.999 43.1025 183.607 44.166C183.775 43.8302 183.607 44.5579 183.999 43.5503C183.887 44.4459 184.614 43.2144 184.111 45.0057C184.223 44.8378 184.223 45.0617 184.391 44.5019C184.558 43.9421 184.167 44.8937 184.279 44.5019C184.335 44.5019 184.447 44.222 184.447 44.0541C184.391 44.278 184.447 44.39 184.111 45.2296C183.999 45.9013 184.838 43.5503 184.894 43.9981C184.726 44.39 184.726 44.5579 184.782 44.5019L185.118 43.8302C185.174 44.0541 184.838 44.7818 184.614 45.5095C184.726 45.3975 184.782 45.4535 185.006 44.9497L184.782 45.8454C184.95 45.1736 185.006 45.4535 185.062 45.2856L184.95 45.4535C184.838 45.7334 185.006 45.6215 185.062 45.5095C185.23 45.0617 185.174 44.8938 185.23 44.7258C185.342 44.4459 185.398 44.5019 185.566 44.166C185.286 44.8378 185.51 44.6698 185.51 44.7818C185.51 44.9497 185.79 44.166 185.79 44.222C185.678 44.5579 185.846 44.334 185.622 44.7818C185.566 44.8937 185.678 44.39 185.566 44.7258C185.51 45.0057 185.286 45.6215 185.51 45.1736C185.678 44.8378 185.958 43.7742 185.902 44.278L185.622 44.9497L185.566 45.3416L185.79 44.7258L185.678 45.0057C185.958 44.334 185.902 44.8378 186.182 44.1101C186.238 44.0541 186.126 44.5579 186.182 44.6698L186.126 44.7258C186.07 45.1177 186.238 44.8937 186.406 44.5019L186.35 44.6698C186.35 44.7258 186.462 44.6698 186.63 44.278C186.574 44.7818 185.902 46.685 186.238 45.9013C186.35 45.9013 186.742 44.7818 186.854 44.334C186.854 44.8378 187.357 43.8302 187.189 44.8378L187.413 44.278C187.525 44.6139 188.085 43.6623 187.861 45.0057L187.581 46.0133C187.805 45.4535 187.469 46.629 187.749 45.6215C187.917 45.0617 188.029 44.7818 188.029 44.5019C188.253 44.222 188.421 44.278 188.365 44.8378L188.589 44.222C188.309 45.1736 188.365 45.3416 188.533 45.0057L188.701 44.4459L188.589 45.0617C188.645 44.8937 188.925 43.8862 188.869 44.4459L188.701 45.0617C188.869 44.6139 189.205 43.8862 189.149 44.39L188.981 45.2296C189.037 45.1736 189.205 44.6698 189.261 44.39C189.261 44.9497 189.317 45.0057 189.149 45.7334C189.82 44.0541 190.212 44.0541 190.436 44.222L190.324 44.6698C190.324 45.0617 190.548 43.9421 190.548 44.222L190.212 45.6215C190.212 46.0693 190.548 44.8938 190.66 44.7258C190.828 44.166 190.492 45.0617 190.716 44.39C190.772 44.222 190.772 44.8378 190.996 43.9981L190.66 45.2856L190.828 44.8937C190.66 45.9013 190.212 46.629 189.988 47.8605L190.1 47.7486C189.932 48.6442 189.708 48.7002 189.764 49.0361C189.932 48.6442 190.268 47.4127 190.324 47.0209C190.492 46.797 190.884 45.0057 190.996 45.1177C190.94 45.6215 190.828 45.2296 190.716 45.9013C190.604 46.629 190.94 45.5655 190.94 45.7894C190.94 45.4535 191.22 44.6139 191.276 44.4459C191.276 44.8378 191.052 45.2296 191.108 45.3416L191.444 44.166C191.724 43.0465 191.5 44.5019 191.724 43.6623C191.556 44.4459 191.164 45.4535 191.22 45.8454C191.388 45.0617 191.612 44.8378 191.78 43.7182C191.78 43.9421 191.668 44.5579 191.5 45.0057C191.444 45.5095 192.003 43.6623 191.668 45.1736L191.891 44.39C191.836 44.6698 191.836 44.8378 191.78 45.2856C191.836 45.2856 192.227 44.278 191.947 45.4535C192.003 45.3416 192.115 45.3975 192.227 44.6139C192.283 44.1101 192.003 45.1736 192.227 44.1101C192.059 45.0057 192.395 43.9981 192.507 43.7182L192.395 44.166C192.451 43.9981 192.507 44.1101 192.619 43.6063L192.507 44.278L192.675 43.6063C192.843 43.2704 192.451 44.8378 192.563 44.6698L192.339 45.1736C192.395 45.0617 192.283 45.7334 192.395 45.5095C192.563 44.8938 192.731 44.1101 192.899 43.6623C193.011 43.3824 192.787 44.39 192.955 43.7182L192.731 44.4459C192.675 44.6698 192.563 45.5095 192.619 45.5095C192.731 45.2856 193.011 44.39 193.011 44.0541C193.067 44.0541 193.011 44.4459 192.899 44.8937C193.067 44.6698 193.011 44.222 193.179 43.8302C193.123 44.278 193.067 44.8938 193.011 45.5095L192.675 46.5731H192.731C192.507 47.4127 192.619 47.2448 192.395 48.0844C192.395 48.2524 192.507 47.9165 192.619 47.6926C192.787 46.2372 193.179 45.7894 193.403 44.4459C193.627 44.1101 192.843 47.6366 193.403 45.6215C193.459 45.2856 193.739 44.278 193.571 44.6698C193.627 44.8378 193.907 43.3824 193.907 43.9421C193.739 44.4459 193.739 45.2856 193.459 46.0133C193.571 45.5655 193.459 45.6774 193.403 45.7894C193.347 46.2932 193.123 47.0769 193.235 47.1328C193.347 47.0209 193.403 47.0209 193.515 46.3492C193.683 45.6215 193.403 46.4051 193.627 45.6774C193.795 45.4535 193.571 46.5731 193.907 45.2856C193.795 45.3975 193.963 44.6139 194.075 44.1101L194.243 43.8302L194.131 44.334C194.187 44.7258 194.354 43.4383 194.466 43.6063L194.354 44.6139C194.131 45.4535 194.243 44.222 193.963 45.5655C194.019 45.6215 194.187 44.9497 194.243 45.3416L194.131 45.6215C194.131 45.6774 193.851 47.5247 194.187 46.4611C194.354 46.0693 194.299 45.9573 194.41 45.4535C194.578 45.3416 194.746 44.7818 194.802 44.7258C194.578 45.7334 194.97 44.8378 194.634 45.8454C194.69 45.2296 194.466 45.2856 194.243 46.2372C194.075 47.4127 194.187 46.0693 193.907 47.2448C194.019 47.3008 193.795 48.4763 193.627 49.26C193.627 49.3159 193.739 48.9801 193.795 48.8681C193.963 48.1404 193.907 48.1404 194.075 47.4127C194.187 47.6366 194.354 47.2448 194.578 46.5731C194.522 46.9649 194.41 47.6366 194.354 47.6926C194.578 47.5247 194.69 47.6366 194.802 47.9165C194.914 46.741 195.026 47.6926 195.138 46.685C195.082 46.4051 195.194 45.5655 195.362 45.0057C195.418 45.0617 195.25 45.5095 195.25 45.7894C195.418 45.1736 195.138 46.853 195.418 45.8454C195.194 46.1812 195.138 47.3008 194.914 48.1964C195.082 47.6926 194.802 48.8681 194.914 48.8681C195.082 48.3643 195.306 47.9725 195.474 47.8046C195.474 48.7002 195.81 47.9165 195.978 47.8605C195.978 48.3643 195.754 49.3719 195.81 49.5958C195.922 49.5958 195.922 48.4763 195.978 48.9801L195.922 49.204C195.978 48.9801 196.034 49.9877 196.314 48.4763L196.09 49.5958C196.09 49.7078 196.146 49.4279 196.202 49.3159L196.034 50.2676C195.978 51.0512 196.202 50.1556 196.314 50.1556L196.37 49.4839C196.594 48.9801 196.594 49.6518 196.762 49.4839L196.65 50.1556L196.817 49.7638C196.706 50.3795 196.706 50.8273 196.873 50.3235L196.37 51.8909C196.37 51.4991 196.538 51.1072 196.65 50.4355C196.706 49.8757 196.538 49.9877 196.426 50.6594C196.482 50.7154 196.482 50.6034 196.538 50.3795C196.426 51.2751 196.37 51.2751 196.202 51.8349C196.258 51.7789 196.258 52.1148 196.258 51.7789C196.146 52.2268 196.09 52.2827 195.978 52.2827L196.09 51.4431C195.978 52.2268 195.81 52.5066 195.754 52.2268C195.81 51.2751 195.474 52.7865 195.362 52.5066C195.53 51.723 195.698 51.0512 195.866 50.7714C195.866 50.3235 195.754 50.7714 195.754 50.3235C195.642 50.9393 195.418 51.8349 195.25 52.2268L195.362 51.611C195.194 51.8909 195.082 52.7865 194.97 52.6186C194.802 52.2827 194.578 52.2268 194.466 52.1148L194.578 51.4991C194.243 52.7865 194.187 51.8909 193.963 52.4507C193.851 51.8349 193.403 52.9545 193.515 51.8909C193.067 52.2827 192.675 52.6746 192.339 52.3947L192.563 51.555C192.395 52.1708 192.619 51.0512 192.507 51.1632C192.451 51.8909 192.227 52.0588 192.059 52.5626C192.059 51.8349 191.668 52.5626 191.388 53.1224L191.5 52.5066C191.108 53.5702 191.164 52.5626 190.996 52.3387C191.052 52.0588 191.108 51.4991 191.052 51.555C190.716 52.5066 190.716 52.3947 190.436 53.0104C190.324 53.0104 190.212 52.7306 190.156 52.3387C189.429 53.6262 189.205 52.6746 188.589 53.4023L188.757 52.6746C187.973 54.074 187.805 52.6746 187.245 53.2903L187.581 52.1148C187.581 51.723 187.245 52.3387 187.077 53.1784C187.077 52.7865 186.63 53.6822 186.854 52.6746C186.798 52.3947 186.574 53.1784 186.406 53.2903C186.294 52.7865 186.182 52.8425 185.902 53.0104L185.958 53.1224C186.07 52.8425 186.182 52.3947 186.182 52.2827C186.014 52.5626 186.014 51.8909 185.622 53.2903C185.622 52.3947 184.894 53.7941 185.006 52.6186C184.894 53.0104 184.838 53.0664 184.726 53.2903C184.503 53.2343 184.558 52.3947 184.167 53.0104C184.223 52.7865 184.447 52.3947 184.335 52.2827L184.055 52.9545C183.495 53.5702 183.663 52.0028 183.271 52.1148C182.487 52.6746 182.095 52.1148 181.536 52.0588L181.648 51.7789C181.088 52.7865 181.648 50.5474 180.92 52.1148C180.976 51.8349 180.808 51.9469 181.032 51.4431C180.64 52.1148 180.92 50.6034 180.36 51.4991L180.472 51.3871C180.528 50.7154 180.024 51.4991 180.024 50.8833L180.304 50.4355C180.416 49.8757 179.632 51.4991 180.136 50.2116C180.08 50.2116 179.856 50.8833 179.856 50.8273C179.632 50.2116 178.849 50.7714 178.233 50.8273C178.233 49.8757 179.185 48.6442 178.513 49.4839C178.625 49.204 178.289 49.9877 178.401 49.7078C178.121 50.0437 178.905 48.1964 178.513 48.8122C178.177 49.5958 178.233 49.26 178.065 49.7078C178.121 49.092 178.401 48.3643 177.953 48.8681L178.177 48.4763C177.449 49.5399 177.561 48.8122 176.778 50.0996C175.658 49.8197 174.315 50.0996 173.251 49.7078C172.411 48.9241 171.068 49.092 170.564 47.7486C171.012 46.5731 170.956 46.629 170.452 46.8529L170.676 46.5171C170.116 47.3567 170.452 46.4611 169.948 47.2448C169.725 46.853 169.277 46.853 168.941 46.629C169.053 46.5731 169.501 45.9013 169.445 45.9573L169.053 46.4611L169.165 46.2372C169.053 46.3492 168.717 46.685 168.605 47.0209C167.262 47.0769 167.541 44.8937 166.59 44.5019C166.646 44.0541 166.142 44.1101 165.806 44.1101C165.974 42.5987 166.086 41.3672 164.855 41.6471C164.575 41.5351 166.31 39.6319 166.926 39.352Z" fill="black"/>
<path d="M196.199 52.3945C196.255 51.8907 196.199 51.6108 196.367 50.9951L196.199 52.3945Z" fill="black"/>
<path d="M194.857 46.9648C194.857 47.1327 194.857 46.7409 194.857 46.6849C194.913 46.6289 194.969 46.2371 194.969 46.5169C194.969 46.5169 194.913 46.7409 194.857 46.9648Z" fill="black"/>
<path d="M194.412 46.573C194.468 46.1252 194.692 45.8453 194.748 45.7893L194.412 46.573Z" fill="black"/>
<path d="M194.24 44.6698C194.296 44.2779 194.296 44.11 194.352 44.11L194.24 44.6698Z" fill="black"/>
<path d="M194.019 45.6773C193.963 45.6773 194.019 45.3974 194.019 45.1735C193.963 45.5094 194.187 44.9496 194.019 45.6773Z" fill="black"/>
<path d="M193.235 44.2219C193.179 44.2779 193.067 44.6138 193.179 44.11C193.067 44.4458 193.403 43.6062 193.235 44.2219Z" fill="black"/>
<path d="M192.619 44.7817C192.563 44.6138 192.675 44.2779 192.731 44.2219L192.619 44.7817Z" fill="black"/>
<path d="M183.439 43.942L183.551 43.7741L183.383 44.1659L183.439 43.942Z" fill="black"/>
<path d="M179.801 42.3187C179.633 42.5426 179.969 41.9269 179.969 41.8709C180.025 41.8709 179.689 42.3747 179.801 42.3187Z" fill="black"/>
<path d="M176.833 43.2704H176.889L176.441 44.054L176.833 43.2704Z" fill="black"/>
<path d="M124.27 130.203C124.493 130.371 125.053 130.035 124.605 130.315C124.214 130.315 123.99 130.315 124.27 130.203Z" fill="black"/>
<path d="M137.481 85.9808C139.048 87.8281 136.753 87.0444 137.593 88.3878C137.649 88.4998 136.585 87.6601 136.753 87.94C137.873 89.4514 136.529 89.6193 134.962 89.4514L134.682 89.2275C134.402 89.2275 135.298 89.9552 135.074 90.0112L134.514 89.6193C135.074 90.0112 134.626 90.0112 135.074 90.347L134.01 89.8432L134.626 90.347C136.137 91.5785 134.178 90.7389 134.906 91.5225L134.458 91.2427C135.186 92.2502 134.682 92.6981 134.738 93.3698L133.786 92.81C134.514 93.2578 134.626 93.4817 134.682 93.7056C133.898 93.3138 135.298 94.3214 134.794 94.2654L134.626 94.1535C135.354 94.7132 134.066 94.0975 135.018 94.7132L134.402 94.4334C135.466 95.0491 133.786 94.2654 134.29 94.7132L134.514 94.8252C134.738 95.0491 134.178 94.8252 134.29 94.9931L134.178 94.9372C134.346 95.273 133.674 95.1051 134.57 95.4969C133.842 95.217 134.346 95.1611 133.283 94.7132C133.842 95.8328 133.395 96.3926 133.059 97.0643L132.219 96.8404C132.387 97.0083 132.275 97.1762 132.667 97.4561C132.667 97.4001 132.219 97.2882 132.163 97.2882C131.771 97.2322 133.059 97.848 132.611 97.792L131.827 97.3442C132.443 97.792 132.275 97.848 132.443 98.1278L131.939 97.848C132.667 98.3518 131.659 98.0159 132.107 98.4077L131.603 98.1278C130.876 98.0719 132.611 98.6876 132.163 98.6876L131.603 98.4077C132.443 98.9675 131.995 99.1354 132.275 99.4153L132.051 99.3034C132.107 99.5273 131.715 99.5833 131.995 99.9751C131.715 99.9751 130.764 99.4153 130.876 99.6952C131.883 100.143 131.155 100.199 132.331 100.591C132.107 100.703 131.603 100.759 131.883 101.039C131.547 100.815 130.596 100.591 130.54 100.423L129.868 100.255C129.476 100.087 130.036 100.199 129.532 100.031C129.532 100.143 129.868 100.479 129.644 100.479C130.204 100.871 131.323 101.43 131.379 101.71C131.044 101.43 130.204 101.319 130.036 101.151L131.939 102.214C131.995 102.326 131.099 101.934 131.379 102.102L132.051 102.438C131.939 102.438 132.219 102.83 131.211 102.494C130.82 102.382 131.043 102.27 130.652 102.214C130.652 102.326 130.988 102.494 130.932 102.606L130.82 102.55C130.652 102.606 131.155 102.942 131.771 103.11C131.827 103.054 131.155 102.886 131.491 102.942C132.051 103.222 132.219 103.446 132.163 103.558L131.435 103.222C132.219 103.67 132.387 103.949 132.667 104.285C133.171 104.453 131.771 103.893 132.051 103.949C131.267 103.949 132.891 104.789 131.827 104.677C131.771 104.621 132.555 104.901 132.387 104.845C132.275 104.957 131.603 104.677 131.827 104.845C131.435 104.733 131.939 105.013 132.051 105.125C132.331 105.293 131.827 105.069 131.827 105.013C132.163 105.237 132.667 105.909 131.995 105.965C132.275 106.077 133.003 106.468 132.947 106.524L132.331 106.301C131.939 106.245 132.331 106.524 131.771 106.356C132.555 106.748 131.211 105.629 131.827 106.021C131.267 105.909 132.779 106.58 131.939 106.245C131.939 106.356 132.611 106.692 131.995 106.636C132.107 106.636 131.099 106.245 131.155 106.356L131.659 106.692L131.883 106.86C132.499 107.084 131.771 106.972 132.499 107.14C131.939 106.972 132.779 107.476 131.715 107.14L130.876 106.86C130.932 106.972 131.715 107.252 132.051 107.42L131.659 107.308C132.947 107.7 131.491 107.476 132.443 107.812C131.939 107.812 132.275 108.204 131.491 108.036C131.827 108.26 132.275 108.484 131.939 108.54C131.827 108.484 131.827 108.428 131.547 108.372C131.155 108.372 131.491 108.484 131.659 108.596C131.491 108.54 130.876 108.54 130.372 108.54C130.708 108.764 131.435 108.931 131.827 109.043C130.54 108.819 132.555 109.603 131.379 109.435C131.211 109.323 130.82 109.099 130.428 109.099C129.14 108.875 131.323 109.547 130.652 109.547L131.715 109.771C131.044 109.659 132.275 110.163 131.211 109.883C131.547 110.051 130.82 109.995 131.827 110.219C130.876 110.275 132.163 111.003 130.26 110.723C130.428 110.779 130.204 110.891 130.764 110.947C131.379 111.003 130.372 110.779 130.764 110.835C130.764 110.891 131.043 110.947 131.211 111.003C130.932 111.059 130.876 111.059 130.036 110.779C129.308 110.835 131.771 111.394 131.267 111.562C130.82 111.45 130.652 111.45 130.708 111.506L131.435 111.786C131.211 111.898 130.428 111.674 129.7 111.506C129.812 111.618 129.756 111.73 130.26 111.898L129.308 111.786C129.98 111.842 129.756 111.954 129.924 112.01L129.756 111.954C129.42 111.898 129.588 112.066 129.7 112.122C130.148 112.178 130.372 112.122 130.54 112.122C130.82 112.234 130.764 112.29 131.099 112.402C130.372 112.234 130.54 112.458 130.428 112.458C130.26 112.514 131.044 112.682 131.044 112.682C130.652 112.626 130.932 112.794 130.428 112.626C130.316 112.57 130.82 112.626 130.484 112.514C130.204 112.514 129.532 112.346 129.98 112.57C130.316 112.738 131.379 112.85 130.932 112.906L130.204 112.682L129.812 112.738L130.484 112.85L130.148 112.794C130.82 112.962 130.316 113.074 131.099 113.242C131.155 113.298 130.596 113.298 130.54 113.354H130.484C130.092 113.354 130.316 113.522 130.764 113.69L130.596 113.634C130.54 113.689 130.652 113.801 130.988 113.913C130.484 113.969 128.469 113.522 129.308 113.801C129.308 113.913 130.484 114.193 130.932 114.249C130.484 114.361 131.547 114.809 130.484 114.865L131.044 115.033C130.764 115.313 131.771 115.817 130.428 115.873L129.364 115.705C129.98 115.873 128.748 115.705 129.756 115.873C130.372 115.929 130.652 115.985 130.876 115.929C131.155 116.152 131.155 116.432 130.596 116.488L131.211 116.6C130.26 116.432 130.092 116.6 130.428 116.712L130.988 116.824H130.372C130.54 116.88 131.603 117.048 131.044 117.048L130.428 116.992C130.876 117.16 131.715 117.44 131.211 117.496H130.372C130.428 117.552 130.988 117.72 131.211 117.664C130.652 117.776 130.596 117.944 129.868 117.888C131.603 118.448 131.659 118.951 131.491 119.343L131.044 119.287C130.596 119.343 131.827 119.399 131.491 119.455L130.036 119.343C129.588 119.455 130.764 119.623 130.988 119.735C131.547 119.791 130.652 119.623 131.379 119.679C131.603 119.735 130.932 119.847 131.771 119.959L130.428 119.847L130.82 119.959C129.756 120.015 129.028 119.567 127.741 119.567L127.853 119.679C126.957 119.679 126.845 119.343 126.509 119.567C126.957 119.679 128.189 119.903 128.581 119.847C128.804 120.071 130.652 120.127 130.54 120.295C130.036 120.295 130.428 120.127 129.7 120.127C128.972 120.183 130.092 120.351 129.812 120.407C130.148 120.351 131.044 120.463 131.155 120.575C130.764 120.631 130.316 120.463 130.204 120.575C130.708 120.631 131.044 120.799 131.435 120.687C132.555 120.799 131.099 120.799 131.995 120.967C131.211 120.967 130.148 120.687 129.756 120.799C130.54 120.855 130.764 121.078 131.939 121.078C131.715 121.134 131.099 121.078 130.652 121.023C130.148 121.078 132.051 121.358 130.484 121.302L131.267 121.358C130.988 121.358 130.82 121.414 130.372 121.414C130.372 121.47 131.435 121.75 130.204 121.694C130.316 121.75 130.26 121.918 131.099 121.862C131.603 121.75 130.484 121.694 131.603 121.694C130.708 121.75 131.715 121.862 131.995 121.974H131.547C131.715 122.03 131.603 122.086 132.107 122.142H131.435L132.163 122.198C132.499 122.366 130.932 122.198 131.099 122.366L130.54 122.198C130.652 122.254 129.98 122.254 130.204 122.366C130.82 122.422 131.603 122.534 132.107 122.534C132.387 122.646 131.379 122.534 132.051 122.646L131.267 122.478C131.044 122.478 130.204 122.534 130.204 122.646C130.428 122.758 131.323 122.87 131.715 122.758C131.715 122.814 131.323 122.87 130.876 122.814C131.099 122.982 131.603 122.814 131.939 122.926C131.491 122.982 130.876 123.094 130.26 123.15L129.196 122.982V123.038C128.357 122.926 128.525 123.094 127.629 122.982C127.461 123.038 127.797 123.094 128.021 123.15C129.476 123.038 129.98 123.374 131.323 123.374C131.659 123.597 128.077 123.43 130.148 123.709C130.484 123.653 131.491 123.821 131.099 123.653C130.932 123.765 132.443 123.765 131.883 123.933C131.323 123.821 130.54 124.045 129.756 123.877C130.204 123.877 130.092 123.765 129.98 123.765C129.476 123.821 128.636 123.709 128.636 123.877C128.748 123.989 128.748 124.101 129.476 124.101C130.26 124.101 129.42 123.989 130.148 124.045C130.428 124.213 129.252 124.213 130.596 124.325C130.484 124.213 131.267 124.213 131.827 124.213L132.107 124.325L131.603 124.269C131.211 124.437 132.499 124.325 132.331 124.549L131.323 124.605C130.484 124.549 131.715 124.325 130.316 124.325C130.26 124.437 130.932 124.493 130.596 124.605L130.316 124.493C130.26 124.549 128.413 124.605 129.476 124.773C129.924 124.885 129.98 124.773 130.484 124.829C130.652 125.053 131.211 125.109 131.267 125.221C130.26 125.221 131.155 125.445 130.092 125.333C130.708 125.277 130.596 124.941 129.644 124.885C128.413 124.941 129.812 124.717 128.581 124.661C128.525 124.829 127.349 124.829 126.565 124.829C126.509 124.885 126.845 124.941 126.957 124.941C127.685 124.941 127.685 124.885 128.469 124.885C128.301 125.053 128.692 125.277 129.42 125.333C129.084 125.389 128.357 125.389 128.245 125.333C128.469 125.557 128.357 125.781 128.189 126.004C129.364 125.837 128.469 126.228 129.476 126.116C129.756 126.004 130.596 125.893 131.155 125.948C131.099 126.004 130.652 125.949 130.372 126.004C131.043 126.06 129.308 126.172 130.372 126.228C129.98 126.06 128.916 126.228 127.965 126.228C128.525 126.396 127.293 126.228 127.293 126.396C127.797 126.508 128.245 126.676 128.469 126.844C127.573 127.068 128.469 127.348 128.525 127.572C128.021 127.684 127.013 127.684 126.789 127.796C126.789 127.908 127.909 127.628 127.461 127.852H127.237C127.517 127.908 126.509 128.244 128.077 128.188H126.901C126.789 128.244 127.069 128.244 127.181 128.244L126.229 128.3C125.446 128.467 126.341 128.523 126.397 128.691L127.069 128.579C127.629 128.747 126.957 128.971 127.181 129.139L126.509 129.195L126.901 129.307C126.285 129.307 125.838 129.475 126.397 129.475L124.774 129.251C125.166 129.139 125.558 129.307 126.229 129.195C126.789 129.083 126.621 128.915 125.95 128.915C125.894 128.971 126.006 128.971 126.285 129.027C125.334 129.139 125.39 128.971 124.774 128.971C124.83 129.027 124.55 129.083 124.83 129.083C124.382 129.027 124.326 128.971 124.27 128.803L125.11 128.747C124.326 128.803 124.046 128.691 124.27 128.523C125.222 128.356 123.655 128.244 123.878 128.02C124.718 128.076 125.39 128.132 125.726 128.188C126.118 128.02 125.67 128.076 126.118 127.908C125.502 127.908 124.55 127.908 124.158 127.74L124.774 127.684C124.438 127.572 123.543 127.628 123.71 127.404C123.99 127.068 123.99 126.788 124.046 126.508L124.662 126.452C123.375 126.34 124.158 126.06 123.599 125.893C124.158 125.613 122.983 125.221 124.046 125.109C123.543 124.605 123.151 124.101 123.431 123.597L124.326 123.709C123.71 123.597 124.83 123.653 124.718 123.541C123.99 123.653 123.822 123.374 123.263 123.318C123.99 123.094 123.263 122.758 122.647 122.534H123.263C122.143 122.254 123.151 122.03 123.375 121.806C123.655 121.806 124.214 121.75 124.158 121.694C123.207 121.526 123.263 121.414 122.647 121.19C122.647 121.023 122.927 120.799 123.319 120.631C121.975 119.959 122.927 119.399 122.143 118.671H122.871C121.415 117.944 122.871 117.272 122.143 116.712L123.375 116.88C123.766 116.768 123.095 116.488 122.199 116.432C122.591 116.32 121.639 115.929 122.647 115.985C122.871 115.873 122.087 115.705 121.975 115.537C122.479 115.257 122.367 115.145 122.199 114.753L122.087 114.809C122.367 114.865 122.871 114.977 122.927 114.865C122.591 114.697 123.319 114.473 121.863 114.361C122.703 114.137 121.247 113.466 122.423 113.298C122.031 113.242 121.975 113.186 121.695 113.074C121.695 112.794 122.535 112.57 121.919 112.234C122.143 112.234 122.591 112.458 122.647 112.29L121.919 112.066C121.192 111.45 122.815 111.226 122.759 110.779C122.199 109.883 122.815 109.155 122.927 108.372L123.207 108.428C122.199 107.924 124.494 108.148 122.871 107.532C123.151 107.532 123.039 107.364 123.599 107.532C122.871 107.14 124.494 107.196 123.599 106.636L123.71 106.748C124.438 106.636 123.655 106.133 124.27 106.021C124.382 106.077 124.438 106.189 124.718 106.245C125.278 106.301 123.599 105.629 124.998 105.965C124.998 105.909 124.326 105.741 124.382 105.797C125.11 105.293 124.438 104.341 124.326 103.558C125.278 103.334 126.621 104.285 125.726 103.558C126.006 103.614 125.222 103.39 125.502 103.446C125.166 103.166 127.069 103.726 126.397 103.39C125.558 103.166 125.95 103.166 125.446 102.998C126.062 102.886 126.845 103.054 126.285 102.606L126.733 102.774C125.614 102.102 126.341 101.99 124.998 101.263C125.11 99.6392 124.886 97.9039 125.502 96.3926C126.397 95.1051 126.453 93.4258 127.853 92.3622C129.084 92.5861 129.084 92.5301 128.804 91.9704L129.14 92.1943C128.301 91.6905 129.196 91.9144 128.357 91.4106C128.804 90.9628 128.748 90.347 129.084 89.8432C129.14 89.9552 129.812 90.403 129.812 90.291L129.308 89.8992L129.532 90.0112C129.42 89.8992 129.084 89.5633 128.748 89.4514C128.86 87.7161 131.323 87.4922 131.939 86.1487C132.499 86.0928 132.443 85.477 132.499 85.0292C134.178 84.8053 135.578 84.6374 135.466 83.1819C135.298 83.6298 137.201 85.2531 137.481 85.9808Z" fill="black"/>
<path d="M124.16 130.035C124.664 129.979 124.944 129.811 125.56 129.867L124.16 130.035Z" fill="black"/>
<path d="M129.085 126.564C128.917 126.564 129.253 126.508 129.365 126.508C129.421 126.564 129.813 126.564 129.589 126.62C129.533 126.564 129.309 126.62 129.085 126.564Z" fill="black"/>
<path d="M129.367 125.781C129.815 125.781 130.151 125.949 130.207 126.061L129.367 125.781Z" fill="black"/>
<path d="M131.158 125.109C131.55 125.053 131.718 125.053 131.718 125.165L131.158 125.109Z" fill="black"/>
<path d="M130.148 125.053C130.148 124.997 130.428 124.941 130.652 124.941C130.26 124.941 130.876 125.053 130.148 125.053Z" fill="black"/>
<path d="M131.548 123.542C131.492 123.486 131.156 123.43 131.66 123.374C131.324 123.43 132.22 123.598 131.548 123.542Z" fill="black"/>
<path d="M130.988 122.814V122.758C131.212 122.702 131.492 122.758 131.548 122.814H130.988Z" fill="black"/>
<path d="M131.212 109.603L131.38 109.771L130.988 109.603H131.212Z" fill="black"/>
<path d="M132.777 104.006C132.553 103.838 133.169 104.117 133.225 104.117C133.281 104.173 132.777 103.894 132.777 104.006Z" fill="black"/>
<path d="M131.883 100.199V100.255L131.1 99.8632L131.883 100.199Z" fill="black"/>
<path d="M200.121 151.754C200.177 152.034 200.793 152.146 200.345 152.034C200.065 151.81 199.841 151.642 200.121 151.754Z" fill="black"/>
<path d="M212.042 109.155C214.337 109.491 212.042 110.443 213.554 110.891C213.666 110.947 212.322 110.947 212.602 111.115C214.393 111.562 213.386 112.626 212.042 113.354L211.706 113.298C211.483 113.466 212.658 113.578 212.49 113.69H211.818C212.546 113.69 212.154 113.914 212.658 113.97L211.483 114.137L212.322 114.193C214.281 114.417 212.21 114.753 213.218 115.033H212.714C213.89 115.537 213.722 116.153 214.169 116.768L213.05 116.712C213.89 116.768 214.113 116.936 214.281 117.104C213.442 117.16 215.065 117.384 214.561 117.552H214.393C215.289 117.72 213.834 117.72 214.953 117.888L214.281 117.944C215.513 118.056 213.61 118.112 214.225 118.224H214.505C214.785 118.336 214.169 118.392 214.393 118.448H214.281C214.561 118.672 213.89 118.784 214.841 118.84C214.057 118.895 214.505 118.616 213.386 118.672C214.281 119.455 214.057 120.183 214.001 120.967L213.106 121.023C213.274 121.135 213.274 121.303 213.722 121.414C213.722 121.414 213.218 121.414 213.162 121.47C212.77 121.582 214.225 121.694 213.778 121.806L212.882 121.638C213.61 121.862 213.498 121.974 213.722 122.142C213.554 122.086 213.498 122.03 213.162 122.03C214.001 122.31 212.938 122.31 213.498 122.478L212.938 122.366C212.266 122.534 214.113 122.59 213.666 122.702L213.05 122.59C214.057 122.87 213.666 123.15 214.001 123.374L213.778 123.318C213.89 123.542 213.554 123.71 213.946 123.989C213.666 124.045 212.602 123.766 212.77 123.989C213.89 124.157 213.218 124.437 214.449 124.493C214.281 124.661 213.834 124.885 214.169 125.053C213.778 124.885 212.826 124.941 212.714 124.773H212.042C211.594 124.661 212.21 124.661 211.65 124.605C211.706 124.661 212.098 124.941 211.93 124.997C212.602 125.221 213.834 125.557 213.946 125.837C213.554 125.669 212.714 125.669 212.546 125.613L214.617 126.284C214.673 126.34 213.722 126.173 214.001 126.284L214.673 126.508C214.561 126.508 214.841 126.844 213.778 126.732C213.33 126.676 213.61 126.564 213.162 126.564C213.162 126.732 213.498 126.788 213.498 126.9H213.33C213.162 126.956 213.722 127.236 214.337 127.292C214.393 127.236 213.666 127.18 214.001 127.18C214.617 127.348 214.729 127.572 214.729 127.684L213.946 127.46C214.729 127.796 214.953 128.076 215.233 128.356C215.737 128.468 214.337 128.076 214.617 128.132C213.834 128.244 215.457 128.915 214.393 128.915C214.337 128.859 215.121 129.027 214.953 129.027C214.841 129.139 214.113 128.971 214.393 129.139C213.946 129.027 214.505 129.251 214.617 129.419C214.897 129.531 214.393 129.419 214.393 129.307C214.729 129.531 215.289 130.147 214.561 130.259C214.841 130.315 215.569 130.651 215.513 130.763L214.841 130.595C214.449 130.539 214.841 130.819 214.281 130.707C215.065 131.043 213.722 130.035 214.337 130.371C213.778 130.315 215.345 130.875 214.449 130.651C214.449 130.763 215.177 131.099 214.505 131.043C214.617 131.043 213.61 130.707 213.61 130.819L214.113 131.154L214.393 131.322C215.009 131.49 214.281 131.49 215.009 131.602C214.449 131.49 215.289 131.938 214.225 131.658L213.386 131.434C213.442 131.546 214.225 131.77 214.617 131.938L214.225 131.882C215.513 132.218 214.057 132.05 215.065 132.386C214.561 132.442 214.897 132.778 214.057 132.666C214.393 132.89 214.841 133.17 214.561 133.226C214.449 133.17 214.393 133.114 214.169 133.002C213.778 133.002 214.113 133.114 214.281 133.226C214.113 133.17 213.498 133.17 212.994 133.17C213.33 133.394 214.057 133.562 214.449 133.673C213.162 133.45 215.177 134.289 214.001 134.065C213.834 133.953 213.442 133.673 213.05 133.729C211.762 133.45 213.946 134.233 213.274 134.233L214.337 134.513C213.666 134.401 214.897 134.961 213.834 134.625C214.169 134.793 213.442 134.737 214.449 135.017C213.498 135.073 214.785 135.969 212.882 135.521C213.05 135.633 212.826 135.689 213.386 135.801C213.946 135.913 212.994 135.577 213.386 135.689C213.386 135.745 213.666 135.857 213.834 135.857C213.554 135.857 213.498 135.913 212.658 135.577C211.986 135.577 214.337 136.36 213.834 136.528C213.442 136.36 213.274 136.36 213.274 136.472L213.946 136.864C213.722 136.976 212.938 136.64 212.266 136.416C212.378 136.528 212.322 136.64 212.826 136.864L211.93 136.696C212.602 136.808 212.322 136.92 212.49 137.032L212.322 136.92C212.042 136.808 212.154 136.976 212.266 137.088C212.714 137.2 212.938 137.2 213.05 137.144C213.33 137.312 213.274 137.368 213.61 137.536C212.938 137.256 213.05 137.536 212.994 137.592C212.826 137.648 213.61 137.928 213.554 137.928C213.218 137.816 213.442 138.04 212.994 137.816C212.882 137.76 213.386 137.872 213.05 137.704C212.77 137.648 212.154 137.424 212.546 137.704C212.882 137.928 213.945 138.152 213.442 138.208L212.77 137.872L212.378 137.928L212.994 138.152L212.714 138.04C213.386 138.32 212.826 138.376 213.61 138.655C213.666 138.767 213.106 138.655 212.994 138.711L212.938 138.655C212.546 138.599 212.714 138.823 213.106 139.047L212.994 138.991C212.938 139.047 212.994 139.159 213.33 139.383C212.77 139.327 210.923 138.543 211.65 138.935C211.594 139.047 212.714 139.551 213.106 139.663C212.602 139.719 213.498 140.391 212.434 140.167L212.938 140.447C212.546 140.671 213.33 141.454 211.986 141.174L211.035 140.783C211.538 141.062 210.419 140.615 211.371 141.062C211.93 141.286 212.21 141.398 212.49 141.398C212.714 141.734 212.546 142.014 211.986 141.902L212.546 142.182C211.65 141.79 211.483 141.846 211.706 142.126L212.21 142.35L211.65 142.182C211.818 142.294 212.77 142.742 212.21 142.63L211.594 142.406C211.986 142.686 212.658 143.19 212.154 143.134L211.315 142.854C211.371 142.966 211.818 143.246 212.098 143.246C211.538 143.246 211.427 143.358 210.699 143.078C212.154 144.197 211.986 144.757 211.65 145.093L211.259 144.869C210.811 144.813 211.93 145.261 211.594 145.205L210.307 144.589C209.803 144.533 210.923 145.149 211.035 145.317C211.538 145.597 210.755 145.093 211.371 145.429C211.538 145.541 210.867 145.429 211.65 145.876L210.475 145.261L210.811 145.541C209.859 145.205 209.299 144.477 208.124 144.029L208.236 144.197C207.396 143.861 207.396 143.525 207.004 143.581C207.34 143.861 208.46 144.533 208.852 144.589C208.964 144.869 210.699 145.597 210.531 145.765C210.027 145.597 210.475 145.541 209.859 145.261C209.187 145.037 210.139 145.653 209.859 145.597C210.195 145.653 210.923 146.1 211.035 146.268C210.643 146.212 210.307 145.821 210.195 145.932C210.643 146.212 210.923 146.492 211.259 146.548C212.266 147.108 210.867 146.548 211.65 147.052C210.923 146.716 210.083 146.044 209.635 146.044C210.363 146.38 210.475 146.716 211.538 147.164C211.315 147.108 210.755 146.828 210.363 146.604C209.915 146.492 211.483 147.5 210.139 146.828L210.811 147.22C210.587 147.108 210.363 147.108 209.971 146.94C209.915 146.996 210.811 147.724 209.747 147.164C209.859 147.22 209.691 147.444 210.475 147.724C210.979 147.836 210.027 147.276 211.035 147.78C210.195 147.444 211.035 148.004 211.315 148.228L210.923 148.004C211.035 148.116 210.923 148.172 211.371 148.451L210.755 148.116L211.371 148.507C211.594 148.843 210.251 147.948 210.363 148.228L209.915 147.836C210.027 147.892 209.411 147.668 209.523 147.836L211.147 148.843C211.371 149.067 210.475 148.563 211.035 148.955L210.419 148.451C210.251 148.339 209.467 148.004 209.411 148.172C209.579 148.339 210.307 148.955 210.699 148.955C210.699 149.011 210.307 148.899 209.915 148.619C210.027 148.899 210.531 148.955 210.811 149.235C210.419 149.067 209.803 148.955 209.187 148.731L208.292 148.06L208.236 148.116C207.564 147.612 207.62 147.836 206.892 147.332C206.724 147.332 207.004 147.556 207.172 147.724C208.516 148.284 208.796 148.899 209.971 149.515C210.195 149.907 207.116 148.06 208.796 149.347C209.131 149.459 209.915 150.075 209.691 149.739C209.523 149.795 210.811 150.523 210.251 150.411C209.859 150.019 209.02 149.851 208.404 149.291C208.796 149.515 208.74 149.347 208.628 149.291C208.18 149.067 207.452 148.619 207.396 148.731C207.452 148.899 207.452 149.011 208.012 149.347C208.684 149.739 208.012 149.179 208.628 149.627C208.796 149.963 207.788 149.403 208.908 150.131C208.852 149.963 209.579 150.355 210.027 150.579L210.251 150.858L209.803 150.579C209.411 150.635 210.587 151.082 210.363 151.25L209.467 150.858C208.74 150.355 209.971 150.747 208.74 150.075C208.628 150.187 209.243 150.579 208.852 150.523L208.684 150.299C208.628 150.299 207.004 149.403 207.844 150.187C208.18 150.467 208.236 150.467 208.684 150.746C208.684 151.026 209.131 151.362 209.075 151.53C208.236 150.97 208.852 151.698 208.068 151.026C208.628 151.25 208.74 150.97 207.956 150.355C206.892 149.795 208.18 150.299 207.172 149.627C207.06 149.795 206.053 149.123 205.381 148.787C205.325 148.787 205.549 149.011 205.661 149.123C206.277 149.515 206.333 149.459 206.948 149.851C206.668 149.907 206.892 150.299 207.452 150.746C207.116 150.635 206.501 150.243 206.501 150.131C206.557 150.467 206.333 150.635 205.997 150.691C207.116 151.194 206.109 151.082 207.004 151.53C207.284 151.586 208.068 151.922 208.516 152.258C208.404 152.314 208.068 151.978 207.844 151.866C208.348 152.314 206.892 151.418 207.676 152.09C207.452 151.698 206.445 151.25 205.717 150.746C206.053 151.138 205.157 150.411 205.045 150.523C205.381 150.914 205.661 151.306 205.717 151.586C204.821 151.306 205.381 152.034 205.325 152.258C204.877 152.09 204.038 151.418 203.814 151.418C203.758 151.53 204.821 151.978 204.317 151.866L204.15 151.754C204.317 151.922 203.366 151.642 204.597 152.538L203.646 151.866C203.534 151.81 203.758 152.034 203.814 152.09L203.03 151.53C202.302 151.194 202.974 151.81 202.974 151.922L203.59 152.258C203.926 152.762 203.254 152.482 203.366 152.818L202.806 152.426L203.086 152.762C202.582 152.37 202.19 152.202 202.582 152.594L201.407 151.362C201.798 151.53 202.022 151.922 202.582 152.258C203.086 152.538 203.03 152.258 202.526 151.866C202.414 151.866 202.526 151.978 202.694 152.146C201.91 151.642 202.022 151.586 201.519 151.194C201.519 151.25 201.295 151.138 201.519 151.306C201.183 150.97 201.183 150.858 201.239 150.746C201.519 151.026 201.742 151.026 201.966 151.194C201.295 150.747 201.127 150.467 201.407 150.467C202.246 150.914 201.071 149.907 201.351 149.907C202.022 150.411 202.526 150.858 202.75 151.138C203.142 151.25 202.806 151.026 203.198 151.138C202.694 150.746 201.966 150.187 201.742 149.851L202.246 150.187C202.078 149.907 201.295 149.403 201.519 149.347C201.91 149.291 202.078 149.011 202.302 148.899L202.806 149.235C201.798 148.451 202.638 148.619 202.246 148.172C202.918 148.228 202.078 147.332 203.086 147.78C202.974 147.164 202.75 146.492 203.142 146.156L203.87 146.66C203.366 146.268 204.317 146.884 204.261 146.716C203.59 146.436 203.534 146.156 203.086 145.821C203.758 145.932 203.254 145.317 202.806 144.813L203.366 145.093C202.47 144.365 203.422 144.645 203.702 144.477C203.926 144.589 204.485 144.813 204.429 144.701C203.646 144.085 203.702 144.085 203.254 143.581C203.31 143.469 203.646 143.358 204.038 143.413C203.03 142.294 204.094 142.182 203.59 141.342L204.261 141.622C203.142 140.447 204.653 140.447 204.15 139.719L205.213 140.279C205.605 140.279 205.045 139.831 204.261 139.551C204.653 139.551 203.87 138.991 204.821 139.327C205.101 139.271 204.373 138.935 204.261 138.767C204.821 138.711 204.765 138.543 204.653 138.208L204.541 138.264C204.765 138.376 205.269 138.599 205.381 138.543C205.101 138.32 205.829 138.32 204.429 137.872C205.325 137.928 204.094 136.976 205.269 137.144C204.877 137.032 204.877 136.92 204.597 136.808C204.709 136.584 205.549 136.64 205.045 136.192C205.269 136.248 205.661 136.472 205.717 136.416L205.045 136.08C204.541 135.465 206.109 135.577 205.997 135.129C205.437 134.233 205.997 133.673 206.053 133.002L206.333 133.114C205.325 132.554 207.564 132.946 205.997 132.274C206.277 132.33 206.165 132.106 206.724 132.33C205.997 131.938 207.564 132.05 206.668 131.546L206.78 131.658C207.452 131.602 206.668 131.154 207.34 131.043C207.452 131.099 207.508 131.154 207.788 131.266C208.348 131.322 206.668 130.707 208.012 131.043C208.012 130.987 207.34 130.819 207.396 130.875C208.068 130.427 207.34 129.587 207.228 128.915C208.18 128.691 209.579 129.419 208.628 128.859C208.908 128.915 208.124 128.691 208.404 128.803C208.068 128.58 210.027 128.971 209.299 128.691C208.46 128.524 208.852 128.524 208.348 128.412C208.964 128.3 209.747 128.412 209.187 128.02L209.635 128.132C208.46 127.628 209.187 127.46 207.788 126.956C207.956 125.613 207.34 124.213 207.228 122.87C207.62 121.638 207.06 120.295 208.012 119.063C209.243 118.84 209.187 118.784 208.74 118.448L209.187 118.504C208.18 118.448 209.131 118.28 208.18 118.168C208.404 117.664 208.236 117.216 208.18 116.768C208.292 116.824 209.075 116.936 209.02 116.824L208.404 116.712H208.684C208.516 116.656 208.068 116.544 207.732 116.6C206.836 115.369 208.74 114.137 208.46 112.906C208.852 112.57 208.46 112.178 208.236 111.898C209.523 110.891 210.531 109.883 209.579 108.988C208.908 108.932 211.427 108.764 212.042 109.155Z" fill="black"/>
<path d="M200.178 151.53C200.626 151.81 200.905 151.866 201.353 152.314L200.178 151.53Z" fill="black"/>
<path d="M206.165 151.642C206.053 151.586 206.389 151.698 206.445 151.754C206.445 151.81 206.781 152.09 206.557 151.978L206.165 151.642Z" fill="black"/>
<path d="M206.895 151.026C207.23 151.25 207.454 151.586 207.454 151.754L206.895 151.026Z" fill="black"/>
<path d="M208.852 151.306C209.187 151.474 209.355 151.53 209.299 151.642L208.852 151.306Z" fill="black"/>
<path d="M208.012 150.746C208.012 150.69 208.292 150.802 208.516 150.858C208.18 150.69 208.683 151.138 208.012 150.746Z" fill="black"/>
<path d="M209.916 149.795C209.916 149.739 209.637 149.459 210.084 149.683C209.749 149.571 210.476 150.131 209.916 149.795Z" fill="black"/>
<path d="M209.691 148.731V148.675C209.915 148.731 210.139 148.955 210.139 149.011L209.691 148.731Z" fill="black"/>
<path d="M213.777 134.289L214.001 134.401L213.553 134.289H213.777Z" fill="black"/>
<path d="M215.404 128.02C215.124 127.908 215.795 128.02 215.907 128.02C215.907 128.132 215.404 127.908 215.404 128.02Z" fill="black"/>
<path d="M213.836 124.269V124.325L212.996 124.157L213.836 124.269Z" fill="black"/>
<path d="M32.1309 178.231C30.5076 176.328 28.5484 174.985 26.1973 174.201C23.8463 173.417 20.6556 173.025 16.6252 173.025H0V174.201H1.67932C3.41461 174.201 4.70208 174.649 5.54174 175.6C6.15749 176.272 6.43737 177.951 6.43737 180.694V208.627C6.43737 211.09 6.21347 212.657 5.76565 213.329C4.92599 214.504 3.58254 215.12 1.62334 215.12H0V216.296H19.4801V215.12H17.7448C16.0654 215.12 14.778 214.672 13.9383 213.721C13.3226 213.049 12.9867 211.37 12.9867 208.627V196.032C14.4421 196.312 15.7856 196.536 17.073 196.704C18.3605 196.872 19.536 196.928 20.5996 196.928C25.0218 196.928 28.4924 195.808 30.8994 193.625C33.3064 191.386 34.5379 188.531 34.5379 185.004C34.5379 182.374 33.7542 180.134 32.1309 178.231ZM24.3501 192.281C22.6708 194.017 20.7116 194.856 18.4165 194.856C17.8007 194.856 17.0171 194.8 16.1214 194.688C15.2258 194.577 14.1622 194.409 12.9867 194.185V176.16C14.722 175.768 16.1774 175.544 17.2969 175.544C19.1442 175.544 20.8235 175.936 22.2789 176.72C23.7343 177.504 24.8539 178.735 25.6375 180.358C26.4212 181.982 26.8131 183.717 26.8131 185.564C26.869 188.363 26.0294 190.546 24.3501 192.281Z" fill="#528FBF"/>
<path d="M78.3662 212.545C78.0863 212.713 77.7504 212.769 77.4146 212.769C77.0787 212.769 76.7988 212.657 76.5189 212.433C76.239 212.209 76.0711 211.818 75.9592 211.202C75.8472 210.586 75.7912 208.851 75.7912 206.108V196.2C75.7912 193.401 75.5673 191.498 75.1755 190.602C74.5597 189.203 73.5521 188.195 72.2647 187.523C70.5294 186.684 68.2903 186.236 65.5474 186.236C62.0208 186.236 59.222 187.02 57.2628 188.531C55.3036 190.098 54.296 191.778 54.296 193.625C54.296 194.577 54.5759 195.36 55.0797 195.92C55.5835 196.48 56.3112 196.76 57.1508 196.76C57.9905 196.76 58.7182 196.48 59.222 195.976C59.7818 195.472 60.0057 194.689 60.0057 193.737L59.9497 191.89C59.9497 190.938 60.3415 190.154 61.2372 189.427C62.0768 188.699 63.1964 188.363 64.5958 188.363C66.443 188.363 67.8425 188.923 68.8501 189.986C69.8017 191.05 70.3055 193.065 70.3055 195.976V197.152C65.0436 198.999 61.2372 200.51 58.9981 201.798C56.703 203.085 55.1356 204.429 54.24 205.884C53.5683 206.948 53.2324 208.123 53.2324 209.578C53.2324 211.818 53.9042 213.609 55.3036 215.008C56.703 216.408 58.4383 217.079 60.5654 217.079C61.9089 217.079 63.1964 216.8 64.4279 216.296C65.2115 215.96 67.2267 214.616 70.3614 212.265C70.3614 214.001 70.6973 215.232 71.369 215.904C72.0408 216.632 72.8804 216.967 74 216.967C76.295 216.967 78.702 215.344 81.221 212.153V210.362C79.7656 211.482 78.814 212.265 78.3662 212.545ZM70.3055 210.026C67.5066 212.097 65.2675 213.161 63.5882 213.161C62.3567 213.161 61.2372 212.657 60.2296 211.65C59.278 210.642 58.7742 209.411 58.7742 207.899C58.7742 206.724 59.166 205.604 59.8937 204.597C60.6774 203.589 61.9089 202.637 63.7002 201.742C64.7077 201.238 66.8909 200.342 70.2495 199.055V210.026H70.3055Z" fill="#528FBF"/>
<path d="M113.635 187.076V188.251C115.706 188.307 117.049 188.587 117.665 189.203C118.337 189.763 118.617 190.938 118.617 192.561V209.131C116.937 210.754 115.482 211.874 114.306 212.433C113.075 212.993 112.011 213.273 111.06 213.273C109.66 213.273 108.429 212.825 107.477 211.985C106.469 211.146 105.966 209.355 105.966 206.612V187.02H95.1621V188.195C96.7854 188.195 97.905 188.307 98.5207 188.587C99.1365 188.867 99.5843 189.259 99.9202 189.763C100.256 190.266 100.424 191.218 100.424 192.505V205.66C100.424 208.403 100.648 210.53 101.152 212.041C101.655 213.553 102.551 214.784 103.783 215.736C105.07 216.688 106.525 217.191 108.261 217.191C109.772 217.191 111.284 216.855 112.683 216.128C114.082 215.456 116.098 213.721 118.729 211.034V217.191H120.24L129.476 213.665L129.028 212.489C128.133 212.881 127.349 213.049 126.677 213.049C126.173 213.049 125.726 212.881 125.39 212.601C124.998 212.321 124.774 211.762 124.55 211.034C124.382 210.306 124.27 208.235 124.27 204.932V187.132H113.635V187.076Z" fill="#528FBF"/>
<path d="M154.439 170.954L145.203 174.481L145.763 175.656C146.659 175.32 147.386 175.153 148.002 175.153C148.562 175.153 149.01 175.32 149.345 175.544C149.681 175.824 149.961 176.328 150.129 177.112C150.297 177.895 150.353 179.911 150.353 183.213V209.69C150.353 211.482 150.185 212.713 149.905 213.329C149.625 213.945 149.233 214.393 148.674 214.672C148.17 214.952 147.218 215.064 145.819 215.064V216.24H160.989V215.064C159.365 215.064 158.302 214.896 157.686 214.616C157.126 214.337 156.678 213.889 156.399 213.273C156.119 212.657 155.951 211.482 155.951 209.69V170.954H154.439Z" fill="#528FBF"/>
<path d="M196.815 186.18C196.535 186.684 196.311 187.02 196.143 187.132C195.92 187.3 195.64 187.356 195.304 187.356C194.912 187.356 194.184 187.188 193.009 186.908C191.273 186.404 189.818 186.18 188.642 186.18C185.9 186.18 183.661 186.964 181.981 188.587C180.246 190.21 179.406 192.226 179.406 194.633C179.406 196.48 179.91 197.991 180.918 199.223C181.925 200.454 184.052 201.854 187.299 203.365C190.546 204.876 192.673 206.164 193.736 207.172C194.8 208.179 195.36 209.411 195.36 210.866C195.36 212.098 194.856 213.105 193.904 214.001C192.953 214.84 191.665 215.288 190.154 215.288C187.971 215.288 186.012 214.505 184.276 212.993C182.541 211.482 181.365 209.243 180.694 206.22H179.518V216.632H180.694C180.974 216.184 181.365 215.96 181.925 215.96C182.373 215.96 182.989 216.072 183.716 216.24C186.124 216.856 188.251 217.135 190.154 217.135C192.785 217.135 195.136 216.296 197.207 214.672C199.334 213.049 200.398 210.922 200.398 208.235C200.398 204.765 198.103 202.022 193.568 199.894L188.698 197.599C186.571 196.648 185.172 195.696 184.5 194.801C183.828 193.961 183.493 192.953 183.493 191.722C183.493 190.77 183.996 189.875 184.892 189.091C185.844 188.307 187.075 187.915 188.642 187.915C190.658 187.915 192.337 188.475 193.624 189.595C194.912 190.714 196.031 192.841 196.871 195.976H198.047V186.012H196.815V186.18Z" fill="#528FBF"/>
<path d="M240.31 210.306C238.798 211.37 237.063 211.874 235.048 211.874C232.025 211.874 229.394 210.642 227.155 208.235C224.916 205.772 223.796 202.413 223.796 198.103H245.18C245.18 194.465 244.06 191.61 241.877 189.427C239.638 187.244 236.839 186.18 233.369 186.18C229.282 186.18 225.868 187.58 223.181 190.378C220.494 193.177 219.15 197.096 219.15 202.078C219.15 206.668 220.438 210.362 223.125 213.105C225.756 215.848 228.946 217.191 232.641 217.191C236.055 217.191 238.854 216.016 241.149 213.609C243.444 211.202 244.788 208.515 245.236 205.548L244.06 204.876C243.053 207.451 241.821 209.299 240.31 210.306ZM226.427 190.49C227.883 189.147 229.562 188.419 231.465 188.419C232.697 188.419 233.872 188.755 234.992 189.427C236.111 190.099 236.951 191.05 237.511 192.226C237.847 193.009 238.127 194.297 238.239 196.2H223.852C224.076 193.793 224.916 191.89 226.427 190.49Z" fill="#528FBF"/>
<path d="M271.993 186.18H270.538L261.189 189.707L261.693 190.882C262.589 190.546 263.317 190.378 263.988 190.378C264.548 190.378 265.052 190.49 265.388 190.77C265.724 191.05 266.003 191.554 266.171 192.338C266.339 193.121 266.451 195.248 266.451 198.719V209.634C266.451 211.762 266.171 213.161 265.668 213.945C265.108 214.672 264.1 215.064 262.589 215.064H261.917V216.24H277.087V215.064C275.408 215.064 274.288 214.896 273.728 214.616C273.169 214.337 272.721 213.889 272.441 213.273C272.217 212.825 272.049 211.594 272.049 209.634V194.129C274.68 191.33 277.311 189.987 279.942 189.987C281.621 189.987 282.853 190.602 283.58 191.778C284.308 193.009 284.644 194.912 284.644 197.599V209.634C284.644 211.314 284.588 212.265 284.532 212.601C284.308 213.385 283.916 214.001 283.3 214.449C282.741 214.84 281.733 215.064 280.278 215.064H279.662V216.24H295V215.064C293.488 215.064 292.481 214.896 291.921 214.616C291.361 214.337 290.969 213.889 290.745 213.385C290.41 212.713 290.298 211.482 290.298 209.634V197.152C290.298 194.521 290.074 192.561 289.57 191.274C288.842 189.427 287.891 188.139 286.715 187.3C285.54 186.516 284.084 186.124 282.405 186.124C279.158 186.124 275.744 188.139 272.161 192.226V186.18H271.993Z" fill="#528FBF"/>
</svg>
