<svg width="316" height="101" viewBox="0 0 316 101" fill="none" xmlns="http://www.w3.org/2000/svg">
<g clip-path="url(#clip0)">
<path d="M55.2959 76.8317C52.569 76.9597 49.7158 76.6525 46.8625 76.8317C45.903 76.8829 45.1708 77.3437 44.7921 78.3166C44.2113 79.7503 43.7821 81.2608 42.8226 82.5153C42.2923 83.2322 41.7621 83.949 40.9289 84.3331C39.9189 84.7939 39.1109 84.4355 38.6311 83.4114C38.2271 82.5409 38.1009 81.5937 37.6969 80.7232C37.3434 79.9039 36.7626 79.3919 36.1062 79.4943C35.3739 79.5967 34.8184 80.2624 34.7427 81.1328C34.6417 82.0289 34.8942 82.8738 35.2224 83.693C35.5254 84.4867 35.8032 85.2803 35.9547 86.1252C36.3839 88.7622 33.9599 89.8375 32.1925 89.4279C31.1067 89.1975 30.1725 88.6342 29.314 87.943C27.4708 86.5093 26.1325 84.6147 24.6933 82.8226C22.9763 80.6464 21.2088 78.5214 19.0374 76.7805C17.2699 75.3468 15.1994 74.6299 13.0784 73.9899C12.2452 73.7338 11.3615 73.5802 10.5787 73.145C9.51822 72.5561 9.41722 71.7369 10.2505 70.8408C11.0332 70.0215 12.0432 69.5607 13.0279 69.0487C13.4824 68.8182 13.9874 68.6134 14.3409 68.2038C14.5934 67.9222 14.5682 67.7174 14.3409 67.4613C13.8864 66.9749 13.2299 66.8213 12.6744 66.4885C12.1442 66.1812 11.6139 65.9252 11.1595 65.5156C10.3262 64.7475 10.099 64.0051 10.705 63.0578C11.4624 61.8545 11.311 60.7536 10.705 59.5759C9.34147 56.9389 10.0737 55.3004 12.0937 53.5082C14.5682 51.3321 17.0426 49.1559 19.2141 46.6469C19.4161 46.4165 19.4919 46.1604 19.6434 45.93C19.8201 45.674 19.8453 45.3668 19.6181 45.1364C19.3909 44.9316 19.0879 44.9572 18.8354 45.1364C18.2799 45.546 17.7244 45.9556 17.1941 46.3909C16.8406 46.6725 16.4619 46.8773 16.0579 47.0821C15.4014 47.4149 14.8459 47.0053 14.5429 46.0836C14.1389 44.8291 13.9622 43.549 13.8612 42.2433C13.7097 40.5536 13.5329 38.8639 13.5834 37.1741C13.6339 35.3308 13.8359 33.4874 14.2147 31.6697C14.5934 29.8264 15.0984 28.0598 15.8306 26.3445C16.7901 24.0659 18.1284 22.0433 19.7696 20.2256C21.8653 17.9214 24.3398 16.1805 27.0415 14.8492C29.5412 13.6203 32.1925 12.8778 34.9699 12.5194C37.3686 12.1866 39.7674 12.3658 42.1408 12.2634C44.2871 12.1866 46.408 11.8793 48.4533 11.1113C50.0945 10.4968 51.6347 9.62635 53.276 8.9607C54.4627 8.49986 55.6494 8.06463 56.9119 8.03903C56.9877 8.03903 57.0887 8.01343 57.1644 8.03903C57.5179 8.11583 57.9724 8.14144 58.1239 8.55107C58.2754 8.9607 57.8967 9.19112 57.6442 9.39594C56.7857 10.1128 55.8009 10.7016 55.0182 11.5465C53.276 13.4411 52.2407 15.6172 52.7205 18.3054C53.1497 20.7888 55.3212 22.2994 57.5179 22.6066C57.9219 22.6578 58.3259 22.709 58.7046 22.7602C59.2096 22.837 59.3864 23.1186 59.2096 23.6307C58.9319 24.4243 58.6036 25.218 58.3511 26.0373C57.4927 28.8535 57.9977 31.3625 60.4721 33.257C60.7499 33.4874 61.0529 33.7179 61.3054 33.9483C61.5326 34.1531 61.8104 34.3835 61.6589 34.7675C61.5074 35.126 61.1539 35.0492 60.8761 35.0748C59.9924 35.126 59.1591 35.3564 58.5531 36.0477C57.9472 36.7389 57.3917 37.4302 56.8362 38.1726C56.4574 38.6847 56.1039 39.2479 55.7757 39.7855C55.1192 40.912 55.4222 41.9361 56.5332 42.5506C56.9119 42.7554 57.3159 42.9602 57.6947 43.1906C58.8056 43.8307 59.0329 44.7779 58.2501 45.8276C57.3917 47.0053 56.1797 47.8246 55.0939 48.7463C54.5637 49.2071 54.0082 49.6423 53.478 50.1032C52.4175 51.0248 52.0892 52.1513 52.6447 53.4826C53.0992 54.6091 53.4275 55.7868 53.6295 56.9901C53.9324 58.7054 54.0587 60.472 54.2102 62.2129C54.3869 64.3635 54.5889 66.5141 54.7404 68.6646C54.8414 70.0215 54.9172 71.3785 55.1444 72.7354C55.3717 74.1435 56.0787 75.1163 57.4169 75.6028C57.5179 75.6284 57.6442 75.6284 57.6947 75.6796C57.9219 75.8844 58.3511 75.9356 58.3006 76.294C58.2501 76.6269 57.8462 76.5757 57.5937 76.6525C56.9624 76.8573 56.2049 76.8317 55.2959 76.8317ZM55.5232 28.0598C55.5484 26.2421 54.7909 24.9108 53.3517 24.0147C52.6447 23.5795 52.0892 23.8867 51.9882 24.7316C51.9377 25.218 51.9882 25.7044 52.1145 26.1909C52.266 26.7285 52.266 27.2406 52.0387 27.8038C51.7105 28.5719 51.1802 29.1863 50.852 29.9288C50.5237 30.6712 50.1955 31.3881 50.5742 32.2585C50.953 33.1034 51.66 33.5387 52.3165 34.0507C52.8215 34.4603 53.3265 34.87 53.3012 35.638C53.3012 36.4061 52.6952 36.7645 52.2155 37.1741C51.559 37.7118 50.751 38.0446 50.1702 38.6847C49.4128 39.4783 49.438 40.0672 50.2207 40.8352C50.65 41.2705 51.1297 41.5265 51.6852 41.2449C52.165 41.0144 52.1902 40.4768 52.1397 40.016C52.064 39.0175 52.4932 38.3518 53.3012 37.7886C54.1849 37.1741 55.1697 36.7645 55.9524 35.9708C56.6594 35.254 56.6594 34.6907 55.9524 33.9995C55.7504 33.7947 55.5232 33.6155 55.3212 33.4362C54.9424 33.1034 54.7657 32.6682 54.7404 32.2073C54.7152 31.5161 54.8667 30.8504 55.0687 30.1848C55.2959 29.4423 55.5737 28.7511 55.5232 28.0598ZM35.4749 49.3607C35.9042 49.2839 36.4092 49.1815 36.9141 49.1047C37.9241 48.9255 38.7574 48.4134 39.3634 47.5686C39.9946 46.6981 40.1461 45.674 40.2471 44.6243C40.3229 43.9587 40.4744 43.293 40.7521 42.6786C41.2066 41.6801 42.1156 41.2705 43.0751 40.9888C43.8326 40.7584 44.5901 40.528 45.3223 40.272C47.0645 39.6575 47.721 38.2238 48.0998 36.5853C48.1755 36.2013 48.3523 35.8172 48.3018 35.382C48.2765 35.2028 48.226 35.0492 48.0745 34.998C47.8473 34.8956 47.7968 35.0748 47.721 35.2284C47.519 35.6124 47.317 35.9708 47.115 36.3549C46.6605 37.3021 46.0798 38.1214 45.0193 38.4286C43.7316 38.7871 42.4438 39.0687 41.1561 39.4271C39.7674 39.8111 38.7069 40.5792 38.2776 42.0897C37.9746 43.1394 37.9494 44.1891 37.9494 45.2388C37.9494 46.4933 37.4444 47.4406 36.3587 48.055C35.9799 48.2598 35.5254 48.3622 35.1214 48.5414C34.8942 48.6438 34.5154 48.695 34.5659 49.0023C34.6164 49.2327 34.9447 49.3095 35.1972 49.3863C35.2729 49.3607 35.3487 49.3351 35.4749 49.3607ZM32.1167 35.0492C32.1167 34.8188 32.1167 34.5883 32.1167 34.3835C32.1167 34.0763 32.0662 33.7691 31.738 33.6923C31.435 33.6155 31.3087 33.9227 31.1572 34.1275C30.7785 34.7932 30.3997 35.4588 30.021 36.1245C28.4302 38.9151 26.5365 41.5009 24.8195 44.1891C23.9863 45.4948 23.1531 46.8261 22.5218 48.2598C22.4208 48.4646 22.3703 48.6182 22.5723 48.7975C22.7491 48.9511 22.9511 48.9511 23.1278 48.7975C23.3046 48.6438 23.4813 48.5158 23.6076 48.3366C24.8195 46.8005 25.9053 45.1876 27.3445 43.8563C28.405 42.8578 29.5412 41.9105 30.4755 40.784C31.8137 39.1455 32.0157 37.1229 32.1167 35.0492ZM35.6517 52.7658C35.7274 53.6106 36.0557 54.3275 36.5354 54.9932C37.2424 55.9404 38.1261 56.7085 39.0351 57.4509C39.8936 58.1422 40.5249 58.9615 40.4239 60.1392C40.3986 60.344 40.4491 60.5488 40.6511 60.6768C40.9036 60.8048 41.0803 60.6256 41.2318 60.4976C42.3176 59.6527 42.3681 58.4494 42.3428 57.2461C42.3176 56.4013 41.9893 55.6332 41.5853 54.8907C41.2318 54.2251 40.9289 53.5594 40.6006 52.8682C40.4744 52.6122 40.2976 52.3561 39.9694 52.4073C39.5906 52.4585 39.5401 52.817 39.5401 53.1242C39.5401 53.6106 39.5149 54.0971 39.7926 54.5579C39.9441 54.8139 40.0451 55.1212 39.8179 55.3516C39.5401 55.6332 39.2624 55.3772 39.0604 55.2236C38.3029 54.6603 37.6211 53.9691 37.0656 53.201C36.8636 52.9194 36.6111 52.689 36.3334 52.4585C36.1819 52.3305 36.0304 52.2281 35.8284 52.3561C35.6769 52.4329 35.6769 52.6378 35.6517 52.7658ZM41.0803 50.1544C41.3328 50.1288 41.5348 50.1032 41.7116 50.0776C43.4033 49.924 44.6658 49.1559 45.2213 47.4662C45.6505 46.1861 46.2818 45.2388 47.6705 44.9316C48.2765 44.8035 48.731 44.2915 48.9835 43.6771C49.0593 43.4722 49.135 43.2162 48.9078 43.0626C48.731 42.9346 48.5543 43.0626 48.428 43.1906C47.9988 43.5746 47.4685 43.7795 46.8878 43.8307C46.2313 43.9075 45.5495 43.9075 44.9436 44.1635C43.9336 44.5731 43.4033 45.4436 43.1761 46.4933C42.9741 47.5174 42.5701 48.3366 41.4843 48.6438C41.2823 48.6951 41.0803 48.7207 40.9036 48.8231C40.4996 49.0535 39.7674 49.0535 39.8179 49.6167C39.9189 50.2824 40.7016 49.9752 41.0803 50.1544ZM34.7679 58.8591C34.8942 57.7582 34.1872 57.0157 33.4802 56.2989C33.2277 56.0428 32.9247 55.6076 32.5965 55.7868C32.1925 56.0172 32.4955 56.5037 32.5965 56.8365C32.7732 57.4253 32.9247 58.0398 32.7227 58.6286C32.4955 59.3455 32.2177 60.0368 31.94 60.7536C31.435 62.1105 31.1825 63.4418 32.142 64.6963C32.3692 65.0035 32.5964 65.4644 33.0004 65.362C33.4297 65.2596 33.3792 64.7219 33.4044 64.3635C33.4297 63.4674 33.6569 62.6482 34.0104 61.8289C34.3892 60.9328 34.7932 59.9855 34.7679 58.8591ZM38.9846 31.004C38.9594 30.492 38.4796 30.2616 37.9746 30.492C37.0656 30.9016 36.3334 31.5161 35.7022 32.2585C34.6164 33.513 34.1619 35.0492 33.7327 36.5853C33.6569 36.8157 33.4549 37.0973 33.7832 37.3021C34.0609 37.4814 34.2629 37.2253 34.4649 37.0461C35.9799 35.8428 37.2929 34.4603 38.2271 32.7194C38.5049 32.1561 38.8584 31.5929 38.9846 31.004ZM45.5243 27.471C44.9688 27.471 44.5143 27.7014 44.0346 27.8294C42.1408 28.3414 40.9541 29.5959 40.3734 31.4649C40.2976 31.6953 40.2219 31.9769 40.4996 32.1305C40.7774 32.3098 40.9541 32.0537 41.1056 31.9001C41.9893 31.004 42.9993 30.2616 44.0346 29.5447C44.6406 29.1351 45.2718 28.8023 45.802 28.2902C45.9535 28.1366 46.1555 27.9574 46.0545 27.7014C45.9535 27.4198 45.701 27.4966 45.5243 27.471Z" fill="#980101"/>
<path d="M46.2074 94.1643C44.9196 94.3691 43.3289 94.1643 41.7382 93.9595C40.2737 93.7547 38.8092 93.4986 37.4962 92.7306C37.1932 92.5514 36.865 92.3466 36.9407 91.9369C37.0417 91.4761 37.4457 91.5785 37.7992 91.5785C38.0012 91.5785 38.2032 91.6041 38.4052 91.6553C40.6777 92.2697 43.0007 92.3978 45.2984 92.1161C48.6566 91.7065 51.4846 90.196 53.7823 87.6102C55.373 85.7924 56.6355 83.8211 57.595 81.5937C57.9232 80.8513 58.3272 80.16 58.807 79.4944C59.2867 78.8543 59.817 78.6239 60.423 78.8031C60.9027 78.9311 61.3824 79.7248 61.4077 80.3648C61.4329 81.1841 61.3824 82.0033 61.6349 82.7714C61.8369 83.3859 62.1652 83.4627 62.6702 83.0786C63.0994 82.7714 63.3772 82.285 63.8064 82.0033C64.0842 81.8241 64.3367 81.7473 64.6397 81.8753C64.9679 82.0289 64.9174 82.3362 64.9174 82.6178C64.9427 83.7443 64.3367 84.6404 63.7812 85.5108C62.2409 87.8918 60.0695 89.5303 57.6707 90.8872C55.575 92.0649 53.4035 93.0122 51.0806 93.5754C49.6161 93.9339 48.0506 94.1131 46.2074 94.1643Z" fill="#9A0303"/>
<path d="M64.4875 45.418C65.7753 45.3412 65.952 45.4948 66.3055 46.5957C67.164 49.2839 67.7447 52.049 68.5275 54.7628C68.8557 55.9149 69.1335 57.067 69.4617 58.219C69.5627 58.6031 69.5375 58.9871 69.588 59.3711C69.7647 60.6256 68.3002 61.2145 67.4922 60.728C67.164 60.5232 66.7852 60.344 66.4317 60.1904C65.6743 59.8576 65.0683 60.088 64.4623 60.4976C63.528 61.1377 62.6443 61.8801 61.5586 62.3154C60.7253 62.6226 60.1951 62.2898 60.1193 61.3937C60.0436 60.6256 60.3971 59.96 60.6243 59.2943C61.0536 58.1422 61.4576 56.9646 61.7101 55.7613C61.8868 54.8652 61.3818 54.1483 60.8768 53.5083C60.6496 53.2011 60.3466 52.945 60.0941 52.6634C59.8416 52.3818 59.7406 52.1258 60.1193 51.8441C60.3466 51.6649 60.3971 51.4345 60.2203 51.2041C59.9678 50.8969 60.1193 50.6664 60.2708 50.436C60.6243 49.8984 60.8768 49.3607 60.9021 48.6951C60.9273 48.3367 61.0536 48.0294 61.4071 47.8502C61.8111 47.6198 61.7858 47.3638 61.4071 47.1078C61.2808 47.031 61.1798 46.9542 61.0536 46.8517C60.8011 46.6469 60.7758 46.4165 61.0788 46.2117C61.5081 45.9045 62.0131 45.7765 62.4928 45.6997C63.1493 45.6228 63.8563 45.29 64.4875 45.418Z" fill="#9A0303"/>
<path d="M76.6588 0.025602C78.5272 0.025602 80.421 0.025602 82.2894 0.025602C82.6682 0.025602 82.8197 0.102408 82.8197 0.512041C82.7944 4.07072 82.7944 7.6294 82.8197 11.1881C82.8197 11.5721 82.7439 11.7513 82.3399 11.7257C81.33 11.7001 80.32 11.7001 79.31 11.7257C78.7797 11.7257 78.5525 11.5465 78.5777 10.9833C78.6282 8.8327 78.5272 6.68213 78.6282 4.55716C78.6535 4.09632 78.3505 4.19873 78.098 4.19873C75.8255 4.19873 73.5278 4.17313 71.2553 4.19873C70.6746 4.19873 70.4726 4.07072 70.5231 3.45627C70.5736 2.5346 70.5736 1.61293 70.5231 0.691255C70.4978 0.179214 70.5988 0 71.1796 0C72.9976 0.0512041 74.8155 0.025602 76.6588 0.025602Z" fill="#9A0303"/>
<path d="M76.6581 101C74.8149 101 72.9969 100.974 71.1537 101C70.7244 101 70.6234 100.872 70.6234 100.462C70.6487 99.5152 70.6487 98.5423 70.6234 97.5694C70.5982 97.0574 70.7749 96.9038 71.2799 96.9038C73.4514 96.9294 75.6481 96.9038 77.8196 96.9294C78.3751 96.9294 78.5518 96.8013 78.5266 96.2125C78.5013 94.0875 78.5266 91.9626 78.5013 89.8376C78.5013 89.428 78.6023 89.2488 79.0316 89.2744C80.1426 89.3 81.2536 89.3 82.3645 89.2744C82.718 89.2744 82.7938 89.4024 82.7938 89.7352C82.7938 93.3451 82.7938 96.9806 82.7938 100.59C82.7938 100.974 82.6423 101.026 82.3393 101.026C80.4456 101 78.5518 101 76.6581 101Z" fill="#980101"/>
<path d="M6.00975 0.0268664C7.85297 0.0268664 9.67095 0.0268664 11.5142 0.0268664C11.8929 0.0268664 12.0444 0.103672 12.0444 0.538907C12.0192 1.58859 12.0192 2.61267 12.0444 3.66235C12.0444 4.09759 11.8929 4.2 11.4889 4.2C9.16596 4.17439 6.84299 4.2 4.52001 4.17439C4.06552 4.17439 3.96452 4.2768 3.96452 4.76324C4.01502 6.88821 3.96452 9.01318 3.98977 11.1381C3.98977 11.599 3.81302 11.7526 3.38378 11.7526C2.39904 11.727 1.4143 11.727 0.429564 11.7526C0.101317 11.7526 0.0255684 11.6502 0.0255684 11.3174C0.0255684 7.68187 0.0255684 4.04638 0.0255684 0.410897C0.000318669 0.00126432 0.202316 0.0268664 0.480063 0.0268664C2.32329 0.0268664 4.16652 0.0268664 6.00975 0.0268664Z" fill="#9A0303"/>
<path d="M5.90843 101C4.1157 101 2.32297 100.974 0.530244 101C0.100999 101 0 100.898 0 100.462C0.0252497 96.9037 0.0252497 93.345 0 89.7863C0 89.4279 0.0504994 89.2487 0.479744 89.2487C1.46448 89.2743 2.44922 89.2743 3.43396 89.2487C3.8632 89.2487 4.0147 89.3767 4.0147 89.8375C3.98945 91.9625 4.0147 94.0875 3.98945 96.2124C3.98945 96.7501 4.1157 96.9293 4.6712 96.9037C6.84267 96.8781 9.03939 96.9037 11.2109 96.8781C11.7664 96.8781 11.8926 97.0573 11.8674 97.5693C11.8169 98.491 11.8169 99.4127 11.8674 100.334C11.8926 100.872 11.7159 100.974 11.2361 100.949C9.46864 100.974 7.70116 101 5.90843 101Z" fill="#980101"/>
<path d="M96.1514 80.0318C94.0809 80.0318 91.9852 80.0062 89.9147 80.0574C89.4097 80.0574 89.334 79.9038 89.334 79.443C89.3592 76.2427 89.3592 73.0169 89.334 69.8166C89.334 69.3814 89.4097 69.2278 89.8895 69.2278C90.8742 69.279 90.8742 69.2278 90.8742 70.2775C90.8742 72.8121 90.8742 75.3467 90.8742 77.8813C90.8742 78.2909 90.9247 78.4957 91.4045 78.4701C92.5155 78.4189 93.6264 78.4189 94.7374 78.4701C95.2172 78.4957 95.2929 78.2909 95.2677 77.8813C95.2424 75.193 95.2677 72.5304 95.2424 69.8422C95.2424 69.3558 95.3687 69.2278 95.8484 69.2278C96.8079 69.2534 96.8079 69.2278 96.8079 70.175C96.8079 72.7609 96.8079 75.321 96.8079 77.9069C96.8079 78.3165 96.8837 78.4701 97.3382 78.4445C98.5249 78.4189 99.7116 78.4189 100.898 78.4445C101.353 78.4445 101.479 78.3421 101.479 77.8813C101.454 75.193 101.479 72.5304 101.454 69.8422C101.454 69.3046 101.605 69.151 102.085 69.2278C102.262 69.2534 102.439 69.2534 102.641 69.2278C102.918 69.2022 103.019 69.3046 103.019 69.5862C103.019 72.9401 102.994 76.2939 103.019 79.6478C103.019 80.083 102.792 80.0318 102.514 80.0318C100.393 80.0318 98.2724 80.0318 96.1514 80.0318Z" fill="#9A0303"/>
<path d="M158.593 55.4795C158.593 56.734 158.568 57.8861 158.593 59.0382C158.593 59.4478 158.492 59.5502 158.088 59.5502C157.028 59.5246 157.028 59.5502 157.028 58.4493C157.028 57.502 157.028 56.5804 157.028 55.6075C156.598 55.6843 156.321 55.9403 155.992 56.1195C155.058 56.6316 154.149 57.1948 153.19 57.6813C152.659 57.9373 152.457 58.2701 152.533 58.8589C152.558 59.0638 152.685 59.4734 152.432 59.5246C151.978 59.6014 151.523 59.5246 151.069 59.499C151.043 59.499 151.018 59.3966 151.018 59.3454C151.018 59.2686 151.018 59.1918 151.018 59.0894C151.018 58.4493 150.816 57.6557 151.094 57.1692C151.346 56.7084 152.104 56.5036 152.659 56.1963C153.821 55.5307 155.008 54.865 156.27 54.1738C155.361 53.6617 154.528 53.1753 153.695 52.7145C152.962 52.3048 152.23 51.8696 151.473 51.4856C151.119 51.3064 150.968 51.0759 151.018 50.6663C151.043 50.3335 151.018 50.0006 151.018 49.6934C151.018 48.7718 151.018 48.7974 151.927 48.7461C152.533 48.6949 152.659 48.951 152.558 49.463C152.457 50.0775 152.71 50.4103 153.24 50.6919C154.503 51.3576 155.74 52.0744 157.053 52.8169C157.053 51.6136 157.078 50.4871 157.053 49.3862C157.053 48.951 157.103 48.7461 157.634 48.7717C158.618 48.823 158.618 48.7718 158.618 49.8214C158.618 50.7943 158.618 51.7928 158.618 52.8169C159.123 52.6633 159.527 52.356 159.957 52.1256C160.79 51.6648 161.598 51.1527 162.456 50.7431C163.012 50.4871 163.214 50.1287 163.163 49.5142C163.138 49.2838 162.987 48.8998 163.315 48.823C163.744 48.7461 164.199 48.7974 164.628 48.823C164.653 48.823 164.678 48.9254 164.703 48.9766C164.729 49.0534 164.703 49.1302 164.703 49.2326C164.703 49.8982 164.905 50.6919 164.628 51.2295C164.375 51.716 163.593 51.9208 163.037 52.2536C161.926 52.8937 160.79 53.5337 159.679 54.1738C159.654 54.1738 159.654 54.1994 159.603 54.2762C160.285 54.6602 160.967 55.0698 161.674 55.4539C162.583 55.9659 163.466 56.478 164.375 56.9644C164.628 57.118 164.754 57.2716 164.754 57.5788C164.729 58.1421 164.729 58.6797 164.754 59.243C164.754 59.499 164.729 59.627 164.4 59.6526C163.214 59.7038 163.214 59.7038 163.189 58.5261C163.189 58.3213 163.214 58.1421 162.987 58.0141C161.472 57.118 160.058 56.2987 158.593 55.4795Z" fill="#9A0303"/>
<path d="M165.613 13.1851C165.613 11.5721 165.639 9.9592 165.613 8.34627C165.613 7.93664 165.714 7.83423 166.118 7.83423C168.492 7.85983 170.865 7.83423 173.264 7.85983C174.526 7.85983 175.41 8.49988 175.966 9.60077C176.496 10.7017 176.445 11.8025 175.738 12.7754C175.461 13.1594 175.385 13.3899 175.713 13.7995C176.445 14.7468 176.521 15.8477 175.991 16.8973C175.461 17.9726 174.577 18.5871 173.39 18.6127C170.941 18.6639 168.517 18.6127 166.068 18.6383C165.714 18.6383 165.639 18.5359 165.639 18.203C165.613 16.5389 165.613 14.8492 165.613 13.1851ZM170.461 9.47276C169.502 9.47276 168.517 9.47276 167.557 9.47276C167.305 9.47276 167.128 9.49836 167.153 9.83119C167.179 10.6248 167.179 11.4185 167.153 12.2122C167.153 12.4426 167.229 12.5194 167.456 12.5194C169.401 12.5194 171.32 12.5194 173.264 12.4938C174.148 12.4682 174.703 11.7769 174.678 10.9065C174.653 10.0872 174.021 9.47276 173.188 9.47276C172.279 9.44716 171.37 9.47276 170.461 9.47276ZM170.385 17.051C171.345 17.0254 172.33 17.0766 173.289 17.0254C174.148 16.9742 174.728 16.3085 174.678 15.4892C174.653 14.7212 174.021 14.1323 173.163 14.1323C171.294 14.1323 169.451 14.1323 167.583 14.1067C167.204 14.1067 167.103 14.2347 167.128 14.5932C167.154 15.2588 167.154 15.8989 167.128 16.5645C167.103 16.9998 167.28 17.051 167.633 17.051C168.567 17.0254 169.476 17.051 170.385 17.051Z" fill="#9A0303"/>
<path d="M216.869 48.7207C218.031 48.7207 219.167 48.7207 220.329 48.7207C221.616 48.7207 222.525 49.3608 223.081 50.4872C223.636 51.6393 223.535 52.7658 222.753 53.7643C222.5 54.0971 222.475 54.2507 222.753 54.5836C223.51 55.5308 223.636 56.6317 223.106 57.7326C222.576 58.8591 221.642 59.4736 220.404 59.4992C218.006 59.5248 215.607 59.4992 213.208 59.5248C212.855 59.5248 212.729 59.448 212.729 59.0639C212.754 55.7869 212.754 52.4842 212.729 49.2071C212.729 48.7719 212.855 48.7207 213.234 48.7207C214.445 48.7207 215.657 48.7207 216.869 48.7207ZM217.526 50.3336C216.566 50.3336 215.632 50.3336 214.673 50.3336C214.395 50.3336 214.269 50.4104 214.269 50.6921C214.294 51.4601 214.294 52.2538 214.269 53.0218C214.269 53.2779 214.319 53.3803 214.597 53.3803C216.516 53.3547 218.435 53.3803 220.329 53.3547C221.238 53.3291 221.818 52.6378 221.793 51.7417C221.768 50.9225 221.111 50.3336 220.202 50.3336C219.344 50.3336 218.435 50.3336 217.526 50.3336ZM217.551 54.9932C216.592 54.9932 215.657 54.9932 214.698 54.9932C214.395 54.9932 214.243 55.0444 214.269 55.3772C214.294 56.1197 214.294 56.8366 214.269 57.579C214.269 57.8094 214.319 57.9118 214.572 57.9118C216.516 57.8862 218.435 57.9118 220.379 57.8862C221.263 57.8606 221.818 57.195 221.793 56.3757C221.768 55.5821 221.137 54.9932 220.253 54.9932C219.369 54.9932 218.46 54.9932 217.551 54.9932Z" fill="#9A0303"/>
<path d="M99.7366 10.9066C98.2973 13.0315 96.8581 15.1309 95.3684 17.3327C93.8786 15.1565 92.4142 12.9803 90.8487 10.7018C90.8487 11.0602 90.8487 11.2394 90.8487 11.4442C90.8487 13.6716 90.8487 15.899 90.8487 18.1263C90.8487 18.536 90.7729 18.6896 90.3437 18.6896C89.2832 18.664 89.2832 18.6896 89.2832 17.6143C89.2832 14.5421 89.2832 11.4698 89.2832 8.42318C89.2832 8.01354 89.3842 7.91114 89.7882 7.85993C90.5709 7.78313 91.0507 8.06475 91.4799 8.756C92.6162 10.5481 93.8281 12.2635 95.0149 14.0044C95.1159 14.158 95.2169 14.286 95.3684 14.4909C96.6309 12.6475 97.8428 10.8298 99.0801 9.01202C99.1558 8.90962 99.2316 8.80721 99.2821 8.7048C99.5851 7.93674 100.166 7.78313 100.923 7.83433C101.353 7.85993 101.454 7.96234 101.454 8.39757C101.428 11.1882 101.454 14.0044 101.454 16.795C101.454 17.0511 101.454 17.3327 101.454 17.5887C101.454 18.664 101.454 18.6384 100.368 18.664C99.9638 18.664 99.8628 18.5616 99.8628 18.1519C99.8881 15.9758 99.8628 13.774 99.8628 11.5978C99.8628 11.3674 99.8628 11.1626 99.8628 10.9322C99.8376 10.9322 99.7871 10.9066 99.7366 10.9066Z" fill="#9A0303"/>
<path d="M125.389 59.5246C123.294 59.5246 121.198 59.5246 119.102 59.5246C118.698 59.5246 118.547 59.4222 118.622 59.0126C118.622 58.9614 118.622 58.8846 118.622 58.8334C118.622 57.9117 118.622 57.8861 119.531 57.9373C119.961 57.9629 120.112 57.8605 120.112 57.3741C120.087 55.6075 120.087 53.8154 120.112 52.0488C120.112 50.0263 121.4 48.7206 123.395 48.7206C125.642 48.7206 127.914 48.7462 130.161 48.695C130.692 48.695 130.767 48.8486 130.767 49.335C130.742 51.9464 130.793 54.5578 130.742 57.1692C130.742 57.8349 130.944 57.9885 131.5 57.9117C131.601 57.8861 131.702 57.9117 131.803 57.9117C132.131 57.8605 132.257 57.9885 132.257 58.3469C132.282 59.5246 132.282 59.5246 131.146 59.5246C129.227 59.5246 127.308 59.5246 125.389 59.5246ZM125.44 57.9373C126.576 57.9373 127.687 57.9373 128.823 57.9373C129.126 57.9373 129.252 57.8605 129.227 57.5277C129.202 55.2747 129.202 53.0217 129.227 50.7943C129.227 50.4615 129.126 50.3335 128.798 50.3335C126.904 50.3591 125.011 50.3335 123.117 50.3335C122.233 50.3335 121.627 50.948 121.627 51.844C121.602 53.713 121.627 55.6075 121.627 57.4765C121.627 57.8349 121.728 57.9117 122.056 57.9117C123.193 57.9117 124.329 57.9373 125.44 57.9373Z" fill="#980101"/>
<path d="M233.408 59.5248C231.792 59.5248 230.176 59.5248 228.56 59.5248C228.232 59.5248 228.105 59.448 228.105 59.0895C228.131 55.7869 228.131 52.4586 228.105 49.1559C228.105 48.8231 228.181 48.7207 228.535 48.7207C231.792 48.7463 235.024 48.7463 238.281 48.7207C238.71 48.7207 238.761 48.8999 238.761 49.2583C238.761 50.3592 238.761 50.3592 237.7 50.3592C235.226 50.3592 232.726 50.3848 230.252 50.3336C229.747 50.3336 229.646 50.5128 229.671 50.9481C229.696 51.5625 229.696 52.177 229.671 52.7914C229.646 53.2523 229.747 53.4059 230.252 53.4059C232.373 53.3803 234.494 53.4059 236.615 53.3803C237.094 53.3803 237.271 53.4571 237.246 53.9947C237.195 54.9932 237.246 54.9932 236.211 54.9932C234.216 54.9932 232.221 54.9932 230.226 54.9932C229.822 54.9932 229.646 55.07 229.671 55.5308C229.721 56.1453 229.721 56.7597 229.671 57.3742C229.646 57.8094 229.747 57.963 230.226 57.963C232.878 57.9374 235.504 57.963 238.155 57.9374C238.66 57.9374 238.862 58.0654 238.761 58.5775C238.736 58.6799 238.736 58.7823 238.761 58.8847C238.837 59.3967 238.685 59.576 238.13 59.576C236.564 59.4992 234.973 59.5248 233.408 59.5248Z" fill="#980101"/>
<path d="M174.349 59.5247C172.733 59.5247 171.117 59.4991 169.501 59.5247C169.122 59.5247 168.996 59.4223 168.996 59.0127C169.021 55.7356 169.021 52.4585 168.996 49.1815C168.996 48.7718 169.097 48.6694 169.501 48.6694C172.708 48.695 175.915 48.695 179.121 48.6694C179.55 48.6694 179.651 48.7718 179.651 49.2071C179.626 50.2824 179.651 50.2824 178.566 50.2824C176.091 50.2824 173.592 50.2824 171.117 50.2824C170.688 50.2824 170.511 50.3592 170.536 50.8456C170.587 51.4857 170.587 52.1513 170.536 52.817C170.511 53.2522 170.637 53.3546 171.067 53.3546C173.238 53.329 175.384 53.3546 177.556 53.329C178.01 53.329 178.137 53.4314 178.111 53.8922C178.086 54.9675 178.111 54.9675 177.076 54.9675C175.081 54.9675 173.087 54.9675 171.092 54.9675C170.688 54.9675 170.536 55.0699 170.562 55.5052C170.587 56.1452 170.587 56.7853 170.562 57.3997C170.536 57.8094 170.663 57.9118 171.067 57.9118C173.743 57.8862 176.394 57.9118 179.071 57.8862C179.601 57.8862 179.752 58.0398 179.677 58.5262C179.651 58.6542 179.651 58.8078 179.677 58.9614C179.752 59.3967 179.576 59.5247 179.146 59.4991C177.531 59.4991 175.94 59.5247 174.349 59.5247Z" fill="#980101"/>
<path d="M105.645 33.7177C105.645 32.0792 105.67 30.4407 105.645 28.8021C105.645 28.4181 105.746 28.3413 106.124 28.3413C109.356 28.3669 112.588 28.3669 115.82 28.3413C116.224 28.3413 116.325 28.4437 116.325 28.8533C116.325 29.9798 116.325 29.9798 115.214 29.9798C112.74 29.9798 110.24 29.9798 107.766 29.9798C107.362 29.9798 107.21 30.0822 107.21 30.5175C107.235 31.1831 107.235 31.8744 107.21 32.54C107.185 32.9497 107.311 33.0521 107.715 33.0521C109.886 33.0265 112.083 33.0521 114.255 33.0265C114.684 33.0265 114.81 33.1289 114.785 33.5641C114.76 34.665 114.785 34.665 113.724 34.665C111.73 34.665 109.735 34.665 107.74 34.665C107.362 34.665 107.21 34.7674 107.235 35.177C107.261 35.8171 107.261 36.4828 107.235 37.1484C107.21 37.5324 107.336 37.6348 107.715 37.6092C110.391 37.5836 113.043 37.6092 115.719 37.5836C116.275 37.5836 116.426 37.7629 116.35 38.2749C116.325 38.4541 116.325 38.6333 116.35 38.8381C116.376 39.1454 116.275 39.2222 115.972 39.2222C112.664 39.2222 109.356 39.2222 106.049 39.2222C105.645 39.2222 105.72 38.9917 105.72 38.7613C105.645 37.0204 105.645 35.3819 105.645 33.7177Z" fill="#980101"/>
<path d="M300.193 54.1738C300.193 55.7867 300.168 57.3997 300.193 59.0126C300.193 59.4222 300.067 59.5246 299.688 59.5246C298.628 59.499 298.628 59.5246 298.628 58.4237C298.628 57.8861 298.603 57.3485 298.628 56.8364C298.628 56.5292 298.527 56.4524 298.249 56.4524C296.835 56.4524 295.421 56.478 294.007 56.4524C293.73 56.4524 293.553 56.5804 293.376 56.7596C292.593 57.5533 291.785 58.3213 291.028 59.1662C290.624 59.627 290.169 59.5246 289.69 59.499C289.412 59.499 289.412 58.5518 289.715 58.2445C290.245 57.7069 290.75 57.1692 291.306 56.6316C291.533 56.4268 291.609 56.2988 291.255 56.1196C290.068 55.5051 289.513 54.481 289.538 53.1241C289.538 52.5609 289.513 51.972 289.563 51.4088C289.74 49.8471 291.053 48.695 292.593 48.695C294.967 48.695 297.315 48.695 299.688 48.695C300.067 48.695 300.193 48.7974 300.193 49.207C300.168 50.8711 300.193 52.5353 300.193 54.1738ZM295.421 50.3335C294.512 50.3335 293.603 50.3335 292.694 50.3335C291.71 50.3335 291.129 50.9224 291.104 51.9208C291.104 52.3305 291.104 52.7401 291.104 53.1497C291.129 54.225 291.684 54.8395 292.745 54.8395C294.588 54.8651 296.406 54.8395 298.249 54.8651C298.577 54.8651 298.653 54.7627 298.653 54.4554C298.628 53.2265 298.628 51.9976 298.653 50.7687C298.653 50.4359 298.577 50.3079 298.224 50.3079C297.264 50.3591 296.355 50.3335 295.421 50.3335Z" fill="#9A0303"/>
<path d="M236.589 13.2363C236.589 14.8492 236.564 16.4621 236.589 18.075C236.589 18.5359 236.488 18.6639 236.033 18.6639C235.023 18.6383 235.049 18.6639 235.023 17.6398C234.998 16.9742 235.326 16.0781 234.897 15.6941C234.544 15.3612 233.66 15.5916 233.029 15.5916C232.069 15.5916 230.933 15.2844 230.15 15.6684C229.191 16.1549 228.509 17.2046 227.701 17.9982C227.398 18.3055 227.171 18.7663 226.615 18.6383C226.388 18.5871 226.009 18.7663 225.984 18.5103C225.933 18.1518 225.782 17.691 226.135 17.3582C226.666 16.8205 227.171 16.2829 227.726 15.7709C228.004 15.5148 227.953 15.4124 227.625 15.2332C226.514 14.6444 225.959 13.6715 225.959 12.3914C225.959 11.6745 225.883 10.9577 226.034 10.2664C226.388 8.80711 227.575 7.85983 229.039 7.85983C231.362 7.85983 233.685 7.88543 236.008 7.83423C236.513 7.83423 236.589 7.98784 236.589 8.44868C236.564 10.036 236.589 11.6489 236.589 13.2363ZM231.791 9.47276C230.882 9.47276 229.973 9.47276 229.064 9.47276C228.105 9.47276 227.524 10.0616 227.499 11.0345C227.474 11.4697 227.499 11.8793 227.499 12.3146C227.524 13.3643 228.08 13.9531 229.09 13.9787C230.933 14.0043 232.801 13.9787 234.645 14.0043C234.922 14.0043 235.023 13.9275 235.023 13.6203C234.998 12.3658 234.998 11.1369 235.023 9.88239C235.023 9.49836 234.872 9.44716 234.569 9.47276C233.635 9.47276 232.726 9.47276 231.791 9.47276Z" fill="#9A0303"/>
<path d="M252.824 33.8201C252.824 35.4331 252.799 37.046 252.824 38.6589C252.824 39.0686 252.698 39.171 252.319 39.171C251.259 39.171 251.259 39.171 251.259 38.0701C251.259 37.5324 251.234 36.9948 251.259 36.4828C251.259 36.1755 251.158 36.0987 250.88 36.0987C249.466 36.0987 248.052 36.1243 246.638 36.0987C246.36 36.0987 246.184 36.2267 246.007 36.406C245.224 37.1996 244.416 37.9677 243.659 38.8125C243.255 39.2734 242.8 39.171 242.32 39.1454C242.043 39.1454 242.043 38.1981 242.346 37.8909C242.876 37.3532 243.381 36.8156 243.936 36.2779C244.164 36.0731 244.239 35.9451 243.886 35.7659C242.699 35.1515 242.144 34.1274 242.169 32.7705C242.169 32.2072 242.144 31.6184 242.194 31.0551C242.371 29.4934 243.684 28.3413 245.224 28.3413C247.598 28.3413 249.946 28.3413 252.319 28.3413C252.698 28.3413 252.824 28.4437 252.824 28.8533C252.799 30.4919 252.824 32.156 252.824 33.8201ZM248.052 29.9542C247.143 29.9542 246.234 29.9542 245.325 29.9542C244.34 29.9542 243.76 30.5431 243.734 31.5416C243.734 31.9512 243.734 32.3608 243.734 32.7705C243.76 33.8457 244.315 34.4602 245.376 34.4602C247.219 34.4858 249.037 34.4602 250.88 34.4858C251.208 34.4858 251.284 34.3834 251.284 34.0762C251.259 32.8473 251.259 31.6184 251.284 30.3895C251.284 30.0566 251.208 29.9286 250.855 29.9286C249.895 29.9798 248.986 29.9542 248.052 29.9542Z" fill="#9A0303"/>
<path d="M226.666 35.0234C226.666 33.8714 226.666 32.7449 226.666 31.5928C226.666 29.6726 227.979 28.3669 229.847 28.3413C231.312 28.3413 232.802 28.3413 234.266 28.3413C235.882 28.3413 237.271 29.647 237.296 31.3111C237.321 33.7945 237.296 36.2523 237.321 38.7357C237.321 39.1198 237.17 39.171 236.867 39.171C235.756 39.171 235.756 39.1966 235.756 38.0701C235.756 37.6092 235.731 37.1228 235.756 36.662C235.781 36.2523 235.68 36.0987 235.251 36.0987C233.079 36.1243 230.883 36.1243 228.711 36.0987C228.282 36.0987 228.206 36.2267 228.231 36.6108C228.257 37.3276 228.231 38.0445 228.257 38.7613C228.257 39.043 228.181 39.1454 227.903 39.1454C226.717 39.1966 226.717 39.2222 226.717 38.0189C226.666 37.0204 226.666 36.0219 226.666 35.0234ZM231.943 34.4858C233.029 34.4858 234.115 34.4602 235.226 34.4858C235.63 34.4858 235.781 34.409 235.756 33.9738C235.705 33.1801 235.756 32.3864 235.756 31.5928C235.756 30.5943 235.175 29.9798 234.19 29.9798C232.726 29.9798 231.287 29.9798 229.822 29.9798C228.837 29.9798 228.257 30.5687 228.231 31.5672C228.206 32.412 228.231 33.2569 228.231 34.0762C228.231 34.409 228.332 34.4858 228.635 34.4858C229.721 34.4602 230.832 34.4858 231.943 34.4858Z" fill="#9A0303"/>
<path d="M175.891 34.9981C175.891 36.2013 175.865 37.4046 175.891 38.6079C175.891 39.0432 175.764 39.1456 175.335 39.1456C174.3 39.12 174.3 39.1456 174.3 38.0703C174.3 37.5327 174.275 36.995 174.3 36.483C174.325 36.1501 174.199 36.0733 173.896 36.0733C171.649 36.0733 169.427 36.0733 167.179 36.0733C166.851 36.0733 166.775 36.1757 166.775 36.483C166.801 37.1998 166.775 37.9167 166.775 38.6335C166.775 38.992 166.725 39.1456 166.321 39.1456C165.21 39.1456 165.21 39.1712 165.21 38.0447C165.21 35.9197 165.26 33.7948 165.185 31.6698C165.134 29.6984 166.75 28.1879 168.467 28.3159C169.906 28.4183 171.32 28.3415 172.76 28.3415C174.477 28.3415 175.815 29.6984 175.84 31.4394C175.891 32.6427 175.891 33.8204 175.891 34.9981ZM170.588 34.486C171.699 34.486 172.81 34.4604 173.921 34.486C174.275 34.486 174.35 34.3836 174.35 34.0508C174.325 33.2059 174.35 32.3866 174.35 31.5418C174.35 30.5689 173.744 29.9801 172.785 29.9801C171.32 29.9801 169.881 29.9801 168.417 29.9801C167.432 29.9801 166.826 30.5689 166.801 31.5674C166.775 32.3866 166.826 33.2059 166.775 34.0252C166.75 34.4604 166.927 34.5116 167.28 34.5116C168.391 34.4604 169.477 34.486 170.588 34.486Z" fill="#9A0303"/>
<path d="M274.162 55.3516C274.162 54.1995 274.162 53.0731 274.162 51.921C274.187 50.052 275.5 48.7207 277.318 48.7207C278.783 48.7207 280.272 48.7207 281.737 48.7207C283.403 48.7207 284.767 50.052 284.792 51.7161C284.817 54.1739 284.792 56.6317 284.817 59.0639C284.817 59.4736 284.666 59.5248 284.312 59.5248C283.252 59.5248 283.252 59.5248 283.227 58.4495C283.227 57.8094 283.504 56.939 283.1 56.5805C282.747 56.2733 281.914 56.4781 281.282 56.4781C279.616 56.4781 277.975 56.5037 276.308 56.4525C275.828 56.4525 275.626 56.5549 275.677 57.067C275.727 57.7326 275.677 58.4239 275.702 59.0895C275.702 59.3968 275.626 59.4992 275.298 59.4992C274.137 59.5248 274.137 59.5504 274.137 58.3983C274.162 57.3998 274.162 56.3757 274.162 55.3516ZM279.439 54.8652C280.55 54.8652 281.661 54.8396 282.772 54.8652C283.126 54.8652 283.252 54.7884 283.252 54.4044C283.227 53.5851 283.252 52.7658 283.252 51.9466C283.252 50.9481 282.671 50.3336 281.686 50.3336C280.222 50.3336 278.783 50.3336 277.318 50.3336C276.359 50.3336 275.753 50.9225 275.727 51.8698C275.702 52.7402 275.727 53.5851 275.702 54.4556C275.702 54.7884 275.803 54.8652 276.106 54.8652C277.217 54.8396 278.328 54.8652 279.439 54.8652Z" fill="#9A0303"/>
<path d="M210.557 14.4652C210.557 13.3131 210.557 12.1866 210.557 11.0345C210.582 9.16553 211.895 7.83423 213.738 7.83423C215.203 7.83423 216.692 7.83423 218.157 7.83423C219.823 7.83423 221.187 9.16553 221.187 10.8297C221.212 13.2875 221.187 15.7453 221.212 18.1774C221.212 18.5359 221.111 18.6127 220.783 18.6127C219.672 18.6127 219.672 18.6383 219.646 17.5374C219.646 16.8973 219.924 16.0269 219.52 15.6684C219.167 15.3612 218.334 15.566 217.702 15.566C216.011 15.566 214.319 15.566 212.627 15.566C212.248 15.566 212.097 15.6684 212.122 16.0781C212.147 16.7949 212.122 17.5118 212.147 18.2287C212.147 18.5615 212.046 18.6383 211.743 18.6383C210.582 18.6639 210.582 18.6895 210.582 17.5118C210.557 16.5133 210.557 15.4892 210.557 14.4652ZM215.884 13.9787C216.995 13.9787 218.106 13.9531 219.217 13.9787C219.545 13.9787 219.672 13.9019 219.646 13.5435C219.621 12.7242 219.646 11.905 219.646 11.0857C219.646 10.036 219.066 9.44716 218.031 9.44716C216.591 9.44716 215.152 9.44716 213.738 9.44716C212.753 9.44716 212.147 10.036 212.122 11.0345C212.097 11.8793 212.147 12.7242 212.097 13.5435C212.097 13.9019 212.223 13.9787 212.551 13.9787C213.662 13.9787 214.773 13.9787 215.884 13.9787Z" fill="#9A0303"/>
<path d="M163.037 75.9356C163.037 77.1133 163.012 78.3166 163.037 79.4943C163.037 79.904 162.961 80.0576 162.507 80.032C161.472 80.0064 161.472 80.032 161.472 78.9823C161.472 78.4446 161.446 77.907 161.472 77.395C161.472 77.0877 161.396 76.9597 161.068 76.9597C158.821 76.9853 156.599 76.9853 154.351 76.9597C153.973 76.9597 153.922 77.0877 153.922 77.4206C153.947 78.163 153.922 78.8799 153.922 79.6223C153.922 79.904 153.846 80.0064 153.543 80.0064C152.357 80.0576 152.357 80.0832 152.357 78.8799C152.357 76.7549 152.382 74.6299 152.357 72.505C152.306 70.5592 153.947 69.0743 155.614 69.2023C157.053 69.3047 158.518 69.2279 159.982 69.2279C161.623 69.2279 162.987 70.5848 163.012 72.249C163.062 73.4779 163.037 74.7067 163.037 75.9356ZM157.684 75.3468C158.821 75.3468 159.957 75.3212 161.068 75.3468C161.421 75.3468 161.497 75.2444 161.497 74.9116C161.472 74.0667 161.497 73.2474 161.497 72.4026C161.497 71.4297 160.891 70.8408 159.931 70.8408C158.467 70.8408 157.028 70.8408 155.563 70.8408C154.579 70.8408 153.973 71.4297 153.947 72.4282C153.922 73.2474 153.973 74.0667 153.922 74.886C153.897 75.3212 154.074 75.3724 154.427 75.3724C155.538 75.3468 156.599 75.3468 157.684 75.3468Z" fill="#9A0303"/>
<path d="M106.125 13.1851C106.125 12.417 106.125 11.6745 106.125 10.9065C106.125 9.19114 107.463 7.83423 109.155 7.83423C110.619 7.83423 112.059 7.83423 113.523 7.83423C115.366 7.83423 116.705 9.08873 116.755 10.9833C116.806 12.4938 116.806 14.0043 116.755 15.5148C116.705 17.4094 115.392 18.6383 113.498 18.6383C112.033 18.6383 110.544 18.6383 109.079 18.6383C107.438 18.6383 106.125 17.307 106.125 15.6428C106.125 14.8236 106.125 14.0043 106.125 13.1851ZM107.69 13.2363C107.69 13.9787 107.69 14.6956 107.69 15.438C107.69 16.3853 108.221 17.0254 109.155 17.0254C110.695 17.051 112.21 17.051 113.75 17.0254C114.584 16.9998 115.164 16.4365 115.19 15.5916C115.24 14.0299 115.24 12.4426 115.19 10.8809C115.164 10.036 114.533 9.47276 113.725 9.47276C112.185 9.44716 110.67 9.44716 109.13 9.47276C108.296 9.47276 107.69 10.1128 107.69 10.9577C107.665 11.7001 107.69 12.4682 107.69 13.2363Z" fill="#9A0303"/>
<path d="M150.336 13.2617C150.336 12.4937 150.336 11.7 150.336 10.932C150.336 9.21662 151.674 7.85971 153.366 7.85971C154.83 7.85971 156.27 7.85971 157.734 7.85971C159.577 7.85971 160.916 9.11421 160.991 11.0088C161.042 12.5193 161.042 14.0298 160.991 15.5403C160.941 17.4349 159.628 18.6638 157.734 18.6638C156.27 18.6638 154.78 18.6638 153.315 18.6638C151.649 18.6638 150.361 17.3325 150.361 15.6683C150.336 14.8491 150.336 14.0554 150.336 13.2617ZM151.901 13.2105C151.901 13.9786 151.901 14.7211 151.901 15.4891C151.901 16.3852 152.432 16.9996 153.29 17.0252C154.856 17.0764 156.446 17.0764 158.012 17.0252C158.82 16.9996 159.401 16.4364 159.426 15.6171C159.476 14.0554 159.476 12.4681 159.426 10.9064C159.401 10.0615 158.795 9.49824 157.987 9.47264C156.421 9.44704 154.881 9.44704 153.315 9.47264C152.507 9.47264 151.927 10.1127 151.927 10.932C151.901 11.7 151.901 12.4425 151.901 13.2105Z" fill="#9A0303"/>
<path d="M136.172 54.1483C136.172 53.3803 136.172 52.5866 136.172 51.8185C136.172 50.052 137.51 48.7207 139.252 48.7207C140.692 48.7207 142.131 48.7207 143.545 48.7207C145.413 48.7207 146.726 49.9752 146.802 51.8441C146.852 53.3547 146.852 54.8652 146.802 56.3757C146.752 58.2703 145.439 59.4992 143.57 59.4992C142.106 59.4992 140.616 59.4992 139.151 59.4992C137.485 59.4992 136.197 58.1935 136.172 56.5037C136.172 55.7357 136.172 54.942 136.172 54.1483ZM137.737 54.0715C137.737 54.8396 137.737 55.582 137.737 56.3501C137.737 57.2718 138.268 57.8862 139.151 57.9118C140.692 57.963 142.257 57.9374 143.823 57.9118C144.631 57.8862 145.211 57.323 145.237 56.5293C145.287 54.942 145.287 53.3291 145.237 51.7417C145.211 50.9225 144.605 50.3592 143.823 50.3592C142.257 50.3336 140.717 50.3336 139.151 50.3592C138.318 50.3592 137.737 50.9993 137.737 51.8698C137.712 52.5866 137.737 53.3291 137.737 54.0715Z" fill="#9A0303"/>
<path d="M121.629 74.6299C121.629 73.8618 121.629 73.0682 121.629 72.3001C121.629 70.5336 122.967 69.2279 124.709 69.2023C126.149 69.2023 127.588 69.2023 129.002 69.2023C130.845 69.2023 132.183 70.4568 132.259 72.3257C132.31 73.8362 132.31 75.3468 132.259 76.8573C132.209 78.7518 130.896 79.9807 129.027 79.9807C127.563 79.9807 126.073 79.9807 124.608 79.9807C122.942 79.9807 121.654 78.675 121.629 76.9853C121.629 76.2428 121.629 75.4236 121.629 74.6299ZM123.194 74.5531C123.194 75.3212 123.194 76.0636 123.194 76.8317C123.194 77.7534 123.725 78.3678 124.608 78.3934C126.149 78.4446 127.714 78.419 129.28 78.3934C130.088 78.3678 130.668 77.8046 130.694 77.0109C130.744 75.4236 130.744 73.8106 130.694 72.2233C130.668 71.4041 130.062 70.8408 129.28 70.8408C127.714 70.8152 126.174 70.8152 124.608 70.8408C123.775 70.8408 123.194 71.4809 123.194 72.3513C123.194 73.0938 123.194 73.8106 123.194 74.5531Z" fill="#9A0303"/>
<path d="M114.583 52.7914C114.583 53.9435 114.583 55.07 114.583 56.2221C114.557 58.2191 113.27 59.5248 111.325 59.5248C109.937 59.5248 108.548 59.5248 107.159 59.5248C105.72 59.5248 104.457 58.3215 104.281 56.8878C104.23 56.5549 104.306 56.4269 104.634 56.4525C104.836 56.4781 105.038 56.4781 105.24 56.4525C105.619 56.3757 105.796 56.5293 105.897 56.939C106.073 57.579 106.578 57.9118 107.21 57.9118C108.649 57.9374 110.113 57.963 111.578 57.9118C112.487 57.8862 112.992 57.2974 113.042 56.3757C113.118 55.0188 113.118 55.0188 111.78 55.0188C110.139 55.0188 108.523 55.0444 106.881 54.9932C105.24 54.942 103.978 53.6107 103.978 51.921C103.978 51.0249 104.003 50.1288 103.978 49.2327C103.952 48.8231 104.079 48.7207 104.483 48.7207C105.543 48.7463 105.543 48.7207 105.543 49.8216C105.543 50.5128 105.543 51.2041 105.543 51.8954C105.568 52.6634 106.073 53.3291 106.831 53.3547C108.826 53.4059 110.82 53.3803 112.815 53.4059C113.169 53.4059 113.068 53.1755 113.068 52.9962C113.068 51.7417 113.093 50.5128 113.068 49.2583C113.068 48.8743 113.143 48.7463 113.547 48.7463C114.633 48.7719 114.633 48.7463 114.633 49.8216C114.583 50.7945 114.583 51.7929 114.583 52.7914Z" fill="#9A0303"/>
<path d="M89.2824 33.6922C89.2824 32.0793 89.3076 30.4664 89.2824 28.8535C89.2824 28.4182 89.4086 28.3158 89.8126 28.3158C90.8478 28.3414 90.8478 28.3158 90.8478 29.3911C90.8478 31.9001 90.8478 34.4091 90.8478 36.9437C90.8478 37.3789 90.9236 37.5582 91.4286 37.5582C93.5748 37.5325 95.7463 37.5325 97.9177 37.5582C98.3217 37.5582 98.4227 37.4557 98.4227 37.0461C98.3975 34.3323 98.4227 31.6185 98.3975 28.8791C98.3975 28.4182 98.4985 28.2902 98.953 28.3158C99.963 28.3414 99.963 28.3158 99.963 29.3399C99.963 31.9001 99.963 34.4603 99.963 36.9949C99.963 37.4301 100.089 37.5326 100.493 37.5326C101.453 37.5069 101.453 37.5325 101.453 38.5054C101.453 39.0687 101.427 39.6063 101.453 40.1696C101.478 40.528 101.326 40.6304 100.998 40.6048C100.922 40.6048 100.847 40.6048 100.746 40.6048C99.8872 40.6048 99.862 40.6048 99.8872 39.7343C99.9125 39.2223 99.7357 39.1455 99.2812 39.1455C96.125 39.1711 92.9941 39.1455 89.8378 39.1711C89.3834 39.1711 89.2571 39.0687 89.2824 38.6078C89.3076 36.9693 89.2824 35.3308 89.2824 33.6922Z" fill="#9A0303"/>
<path d="M150.109 33.7178C150.109 32.1304 150.135 30.5175 150.109 28.9302C150.109 28.4693 150.185 28.3157 150.69 28.3157C153.038 28.3413 155.361 28.3157 157.71 28.3413C159.401 28.3413 160.74 29.6982 160.765 31.4136C160.765 31.9512 160.765 32.4889 160.765 33.0009C160.765 34.665 159.477 36.0219 157.861 36.0731C156.043 36.1244 154.225 36.1244 152.407 36.0731C151.751 36.0475 151.624 36.278 151.675 36.8668C151.725 37.5069 151.675 38.1213 151.7 38.7614C151.7 39.043 151.624 39.1454 151.321 39.1454C150.135 39.1966 150.135 39.2222 150.135 38.0189C150.109 36.5852 150.109 35.1515 150.109 33.7178ZM154.957 29.9543C153.998 29.9543 153.064 29.9543 152.104 29.9543C151.826 29.9543 151.65 29.9543 151.65 30.3127C151.675 31.5672 151.65 32.8473 151.65 34.1018C151.65 34.3578 151.7 34.4602 151.978 34.4602C153.897 34.4346 155.816 34.4602 157.735 34.4346C158.669 34.409 159.174 33.7946 159.199 32.8217C159.199 32.3865 159.199 31.9512 159.199 31.5416C159.199 30.5431 158.619 29.9543 157.634 29.9287C156.725 29.9543 155.841 29.9543 154.957 29.9543Z" fill="#9A0303"/>
<path d="M200.256 39.1454C199.044 39.1454 197.832 39.1454 196.62 39.1454C196.267 39.1454 196.141 39.0942 196.141 38.6846C196.166 35.3819 196.166 32.1048 196.141 28.8022C196.141 28.3669 196.292 28.3157 196.671 28.3157C197.706 28.3157 197.731 28.3157 197.731 29.3654C197.731 30.1335 197.757 30.9271 197.731 31.6952C197.731 32.0536 197.832 32.1304 198.161 32.1304C200.029 32.1048 201.872 32.1304 203.741 32.1304C205.458 32.1304 206.771 33.4873 206.821 35.2283C206.872 36.534 206.67 37.7117 205.534 38.531C205.003 38.915 204.448 39.1198 203.791 39.1198C202.579 39.1454 201.418 39.1454 200.256 39.1454ZM200.938 33.769C199.979 33.769 199.044 33.769 198.085 33.769C197.832 33.769 197.656 33.769 197.656 34.1018C197.681 35.1515 197.656 36.1756 197.656 37.2252C197.656 37.4557 197.706 37.5581 197.959 37.5581C199.903 37.5325 201.872 37.5581 203.817 37.5325C204.625 37.5069 205.155 36.8412 205.18 36.022C205.18 35.7915 205.18 35.5611 205.18 35.3563C205.18 34.409 204.574 33.7946 203.615 33.7946C202.756 33.769 201.847 33.769 200.938 33.769Z" fill="#9A0303"/>
<path d="M99.6105 50.0519C99.863 50.82 99.358 51.332 98.6762 51.7929C97.7672 52.4073 96.934 53.1242 96.0503 53.7642C95.6715 54.0459 95.621 54.1739 96.025 54.4811C97.0855 55.2491 98.1207 56.094 99.1812 56.8621C99.4842 57.0925 99.661 57.3229 99.6105 57.7325C99.5852 57.963 99.6105 58.1934 99.6105 58.3982C99.6105 59.5759 99.6105 59.5503 98.449 59.5247C98.1712 59.5247 97.9945 59.4479 98.0702 59.1407C98.2722 58.219 97.7925 57.6813 97.0602 57.2205C96.227 56.6573 95.419 56.0172 94.6363 55.3772C94.3585 55.1467 94.1818 55.1979 93.9293 55.4028C92.9698 56.1452 92.0356 56.9389 91.0256 57.6045C90.4953 57.963 90.4448 58.3982 90.4953 58.9102C90.5458 59.3455 90.4448 59.5503 89.9398 59.5247C88.9551 59.4735 89.0309 59.4991 88.9299 58.5262C88.8289 57.5533 89.1571 56.9389 89.9651 56.4268C90.8741 55.838 91.7073 55.0955 92.5911 54.4555C92.9193 54.2251 92.9698 54.0971 92.5911 53.8154C91.4801 52.9962 90.3943 52.1513 89.3086 51.3064C89.0561 51.1272 88.9298 50.9224 88.9551 50.5896C88.9803 50.2312 88.9551 49.8471 88.9551 49.4887C88.9551 48.695 88.9551 48.7462 89.7631 48.6694C90.3943 48.6182 90.5963 48.823 90.4953 49.4375C90.3943 50.0263 90.6468 50.3592 91.1013 50.692C92.0608 51.3832 92.9698 52.1001 93.904 52.8426C94.1565 53.0218 94.308 53.1242 94.611 52.8682C95.621 52.0489 96.6563 51.2552 97.6915 50.5128C98.146 50.1799 98.045 49.7447 98.0197 49.3607C97.9692 48.823 98.146 48.5926 98.6762 48.695C98.8025 48.7206 98.954 48.7206 99.1055 48.695C99.459 48.6438 99.6357 48.7462 99.5852 49.1559C99.5852 49.4119 99.6105 49.6679 99.6105 50.0519Z" fill="#9A0303"/>
<path d="M131.425 33.8203C131.425 35.4332 131.4 37.0461 131.425 38.6591C131.425 39.0687 131.299 39.1711 130.92 39.1711C129.859 39.1455 129.859 39.1711 129.859 38.0702C129.859 37.0717 129.834 36.0733 129.859 35.0748C129.859 34.7164 129.758 34.6396 129.405 34.6396C127.183 34.6652 124.961 34.6652 122.739 34.6396C122.385 34.6396 122.284 34.742 122.284 35.1004C122.31 36.2781 122.259 37.4814 122.31 38.6591C122.31 39.0943 122.183 39.1967 121.779 39.1967C120.744 39.1711 120.744 39.1967 120.744 38.147C120.744 35.0748 120.744 32.0025 120.744 28.9559C120.744 28.4951 120.87 28.3671 121.3 28.3927C122.31 28.4183 122.31 28.3927 122.31 29.4167C122.31 30.492 122.31 31.5417 122.31 32.617C122.31 32.9498 122.36 33.0778 122.714 33.0778C124.961 33.0522 127.183 33.0522 129.43 33.0778C129.809 33.0778 129.834 32.9242 129.834 32.617C129.809 31.3625 129.834 30.1336 129.809 28.8791C129.809 28.4951 129.91 28.3927 130.263 28.3927C131.374 28.3927 131.374 28.3927 131.374 29.5192C131.425 30.9017 131.425 32.361 131.425 33.8203Z" fill="#9A0303"/>
<path d="M243.256 54.0715C243.256 52.4586 243.256 50.8457 243.256 49.2327C243.256 48.8487 243.332 48.7207 243.736 48.7207C244.821 48.7463 244.821 48.7207 244.821 49.796C244.821 50.8713 244.821 51.921 244.821 52.9962C244.821 53.3035 244.897 53.4059 245.225 53.4059C247.473 53.3803 249.695 53.3803 251.942 53.4059C252.295 53.4059 252.371 53.2779 252.371 52.945C252.346 51.6905 252.371 50.4616 252.346 49.2071C252.346 48.8487 252.396 48.7207 252.8 48.7207C253.911 48.7207 253.911 48.7207 253.911 49.8216C253.911 52.8426 253.911 55.8637 253.911 58.9103C253.911 59.4224 253.81 59.6272 253.28 59.5504C253.154 59.5248 253.027 59.5248 252.926 59.5504C252.472 59.6272 252.295 59.4736 252.32 58.9615C252.371 57.8094 252.32 56.6317 252.346 55.454C252.346 55.1212 252.27 54.9932 251.916 54.9932C249.695 55.0188 247.473 55.0188 245.251 54.9932C244.847 54.9932 244.796 55.1468 244.796 55.4796C244.821 56.6573 244.796 57.8094 244.821 58.9871C244.821 59.4224 244.72 59.5504 244.291 59.5248C243.256 59.4992 243.256 59.5248 243.256 58.4751C243.256 57.0158 243.256 55.5308 243.256 54.0715Z" fill="#9A0303"/>
<path d="M269.288 54.1227C269.288 55.7612 269.263 57.3998 269.288 59.0383C269.288 59.4479 269.187 59.5503 268.783 59.5503C267.723 59.5247 267.723 59.5503 267.723 58.475C267.723 57.4766 267.697 56.4781 267.723 55.4796C267.723 55.1468 267.647 55.0188 267.293 55.0188C265.071 55.0444 262.849 55.0444 260.627 55.0188C260.223 55.0188 260.173 55.1724 260.173 55.5308C260.198 56.7085 260.148 57.8606 260.198 59.0383C260.198 59.4735 260.097 59.6015 259.668 59.5759C258.633 59.5503 258.633 59.5759 258.633 58.5262C258.633 55.4796 258.658 52.433 258.607 49.3863C258.607 48.8743 258.708 48.6695 259.213 48.7719C259.34 48.7975 259.466 48.7975 259.567 48.7719C260.021 48.6951 260.198 48.8743 260.173 49.3607C260.122 50.564 260.173 51.7673 260.148 52.9706C260.148 53.3546 260.249 53.4314 260.627 53.4314C262.824 53.4058 265.021 53.4058 267.218 53.4314C267.647 53.4314 267.697 53.2778 267.697 52.9194C267.672 51.6905 267.697 50.4616 267.672 49.2327C267.672 48.8743 267.748 48.7463 268.127 48.7463C269.238 48.7463 269.238 48.7463 269.238 49.8728C269.288 51.2553 269.288 52.689 269.288 54.1227Z" fill="#9A0303"/>
<path d="M211.289 33.7434C211.289 32.1049 211.314 30.4663 211.289 28.8278C211.289 28.4182 211.39 28.3158 211.794 28.3158C212.854 28.3414 212.854 28.3158 212.854 29.4167C212.854 30.4663 212.854 31.4904 212.854 32.5401C212.854 32.8473 212.88 33.0009 213.258 33.0009C215.505 32.9753 217.727 32.9753 219.975 33.0009C220.353 33.0009 220.379 32.8473 220.379 32.5401C220.353 31.3112 220.404 30.0823 220.353 28.8534C220.353 28.4182 220.454 28.2902 220.884 28.3158C221.919 28.3414 221.919 28.3158 221.919 29.3655C221.919 32.4377 221.919 35.5099 221.919 38.5566C221.919 39.0174 221.793 39.1454 221.338 39.1198C220.328 39.0942 220.328 39.1198 220.328 38.0957C220.328 37.0717 220.303 36.0476 220.328 35.0235C220.328 34.6651 220.227 34.5883 219.899 34.5883C217.677 34.6139 215.455 34.6139 213.233 34.5883C212.905 34.5883 212.779 34.6907 212.779 35.0235C212.804 36.2268 212.779 37.4301 212.804 38.6334C212.804 39.0174 212.703 39.1198 212.324 39.1198C211.238 39.1198 211.238 39.1454 211.238 38.0701C211.289 36.6364 211.289 35.2027 211.289 33.7434Z" fill="#9A0303"/>
<path d="M180.764 13.2363C180.764 12.4682 180.764 11.6745 180.764 10.9065C180.764 9.19114 182.102 7.83423 183.794 7.83423C185.334 7.83423 186.849 7.83423 188.389 7.83423C189.879 7.83423 191.167 9.06313 191.343 10.548C191.369 10.8041 191.343 10.9321 191.066 10.9065C190.864 10.8809 190.662 10.8809 190.46 10.9065C190.056 10.9577 189.828 10.8553 189.702 10.3944C189.525 9.75438 188.995 9.47276 188.364 9.44716C186.824 9.42155 185.309 9.42155 183.768 9.44716C182.91 9.44716 182.329 10.0616 182.329 10.9321C182.329 12.4682 182.329 14.0043 182.329 15.5404C182.329 16.3597 182.885 16.9998 183.718 17.0254C185.283 17.0766 186.874 17.051 188.44 17.0254C189.046 17.0254 189.576 16.6925 189.727 16.1037C189.854 15.6428 190.056 15.566 190.46 15.5916C191.495 15.6172 191.571 15.6941 191.192 16.6925C190.737 17.8958 189.601 18.6639 188.313 18.6639C186.798 18.6639 185.283 18.6639 183.768 18.6639C182.051 18.6639 180.764 17.3326 180.764 15.5916C180.764 14.798 180.764 14.0299 180.764 13.2363Z" fill="#9A0303"/>
<path d="M121.275 13.2361C121.275 12.4681 121.275 11.6744 121.275 10.9064C121.275 9.24222 122.614 7.85971 124.28 7.85971C125.846 7.85971 127.386 7.85971 128.951 7.85971C130.441 7.85971 131.754 9.11421 131.88 10.5991C131.88 10.6759 131.931 10.8295 131.905 10.8295C131.527 11.0344 131.123 10.8808 130.744 10.932C130.567 10.9576 130.441 10.9576 130.34 10.7015C130.012 9.75426 129.608 9.49824 128.648 9.49824C127.26 9.49824 125.871 9.49824 124.482 9.49824C123.447 9.49824 122.866 10.0871 122.866 11.1112C122.866 12.5705 122.866 14.0042 122.866 15.4635C122.866 16.4108 123.396 17.0252 124.331 17.0508C125.871 17.0764 127.386 17.0764 128.926 17.0508C129.583 17.0508 130.113 16.6924 130.29 16.0268C130.391 15.6427 130.567 15.5915 130.896 15.5915C132.057 15.5915 132.158 15.7451 131.653 16.8204C131.098 17.9725 130.189 18.6382 128.901 18.6638C127.361 18.6638 125.846 18.6638 124.305 18.6638C122.639 18.6638 121.326 17.3325 121.326 15.6427C121.275 14.8235 121.275 14.0298 121.275 13.2361Z" fill="#9A0303"/>
<path d="M184.02 54.0971C184.02 53.3291 184.02 52.5354 184.02 51.7673C184.02 50.0776 185.358 48.7207 186.999 48.7207C188.564 48.7207 190.105 48.7207 191.67 48.7207C193.16 48.7207 194.448 49.9496 194.624 51.4345C194.65 51.7161 194.599 51.8186 194.321 51.7929C194.145 51.7673 193.968 51.7673 193.766 51.7929C193.362 51.8442 193.109 51.7929 192.958 51.2809C192.781 50.6665 192.251 50.3592 191.62 50.3592C190.079 50.3592 188.564 50.3336 187.024 50.3592C186.191 50.3592 185.585 50.9993 185.585 51.8442C185.585 53.3803 185.585 54.9164 185.585 56.4525C185.585 57.2462 186.115 57.8862 186.923 57.9118C188.539 57.963 190.155 57.9374 191.771 57.9118C192.352 57.9118 192.857 57.5534 192.983 56.9902C193.109 56.5037 193.337 56.4781 193.741 56.4781C194.776 56.5037 194.852 56.5805 194.448 57.6046C193.968 58.8079 192.857 59.5504 191.569 59.5504C190.054 59.5504 188.539 59.5504 187.024 59.5504C185.358 59.5504 184.02 58.2191 184.02 56.5293C184.02 55.7101 184.02 54.9164 184.02 54.0971Z" fill="#9A0303"/>
<path d="M206.291 18.5615C204.801 19.0223 203.791 18.3823 202.857 17.307C202.024 16.3341 201.039 15.4893 200.18 14.5676C199.877 14.2348 199.574 14.0812 199.12 14.1324C198.539 14.1836 197.782 13.8763 197.453 14.2604C197.176 14.5932 197.352 15.3613 197.352 15.9245C197.352 16.6926 197.327 17.4862 197.352 18.2543C197.352 18.5871 197.251 18.6639 196.948 18.6639C195.787 18.6895 195.787 18.7151 195.787 17.5374C195.787 14.5164 195.812 11.4953 195.762 8.44871C195.762 7.93666 195.863 7.73185 196.368 7.83426C196.494 7.85986 196.62 7.85986 196.721 7.83426C197.176 7.75745 197.352 7.93667 197.327 8.4231C197.277 9.6264 197.327 10.8297 197.302 12.033C197.302 12.417 197.428 12.4682 197.782 12.5194C199.12 12.6986 200.155 12.289 201.014 11.1881C201.847 10.1384 202.882 9.26797 203.791 8.26949C204.094 7.93666 204.397 7.78305 204.852 7.83426C205.331 7.88546 205.811 7.83426 206.442 7.83426C205.634 8.65352 204.953 9.39598 204.246 10.1128C203.337 11.0601 202.402 12.0074 201.468 12.9291C201.19 13.1851 201.216 13.3387 201.468 13.5947C202.983 15.1052 204.473 16.6158 205.963 18.1519C206.089 18.3055 206.291 18.4079 206.291 18.5615Z" fill="#9A0303"/>
<path d="M146.977 8.0903C145.336 9.70323 143.72 11.3162 142.054 12.8779C141.7 13.2363 141.751 13.4155 142.079 13.7227C143.544 15.1821 144.983 16.667 146.447 18.1263C146.574 18.2543 146.776 18.3567 146.927 18.4591C146.877 18.5103 146.851 18.5871 146.801 18.6383C146.195 18.6383 145.564 18.6383 144.958 18.6383C144.73 18.6383 144.629 18.5103 144.503 18.3823C143.266 17.1278 141.978 15.8989 140.766 14.6188C140.387 14.2348 140.034 14.0556 139.504 14.1068C138.973 14.158 138.292 13.9532 137.989 14.2092C137.635 14.5164 137.888 15.2333 137.862 15.7965C137.837 16.5902 137.837 17.3838 137.862 18.1775C137.862 18.5103 137.812 18.6383 137.433 18.6383C136.297 18.6639 136.297 18.6639 136.297 17.5118C136.297 14.4652 136.297 11.4186 136.297 8.37193C136.297 7.91109 136.423 7.78308 136.852 7.80868C137.862 7.83428 137.862 7.80868 137.862 8.83276C137.862 9.88244 137.888 10.9065 137.862 11.9562C137.862 12.3146 137.913 12.4426 138.342 12.4939C139.68 12.6475 140.69 12.2378 141.574 11.1369C142.407 10.0873 143.443 9.21679 144.352 8.21831C144.655 7.88549 144.958 7.75748 145.412 7.78308C145.892 7.80868 146.372 7.78308 146.851 7.78308C146.851 7.93669 146.902 8.0135 146.977 8.0903Z" fill="#9A0303"/>
<path d="M118.37 69.4327C117.612 70.1495 116.83 70.8408 116.097 71.5832C115.188 72.4793 114.33 73.4266 113.396 74.3226C113.093 74.6043 113.118 74.7579 113.396 75.0395C115.012 76.6524 116.628 78.291 118.345 80.0319C117.537 80.0319 116.905 80.0319 116.249 80.0319C116.072 80.0319 115.971 79.8783 115.87 79.7503C114.582 78.4702 113.295 77.2157 112.032 75.91C111.729 75.6028 111.452 75.4747 111.022 75.5003C110.593 75.5259 110.139 75.5259 109.684 75.5003C109.305 75.4747 109.204 75.6027 109.204 75.9868C109.23 77.1645 109.204 78.3678 109.23 79.5455C109.23 79.9551 109.103 80.0575 108.725 80.0575C107.664 80.0319 107.664 80.0575 107.664 78.9566C107.664 75.8844 107.664 72.8121 107.664 69.7655C107.664 69.3303 107.765 69.2278 108.194 69.2278C109.23 69.2534 109.23 69.2278 109.23 70.2775C109.23 71.3528 109.255 72.4025 109.23 73.4778C109.23 73.8362 109.331 73.9642 109.684 73.913C109.735 73.913 109.76 73.913 109.81 73.913C111.123 74.1178 112.083 73.6826 112.916 72.6073C113.749 71.532 114.81 70.6616 115.744 69.6631C116.022 69.3559 116.325 69.2022 116.754 69.2534C117.234 69.279 117.739 69.2534 118.244 69.2534C118.269 69.279 118.319 69.3559 118.37 69.4327Z" fill="#9A0303"/>
<path d="M147.534 74.6811C147.534 76.294 147.509 77.907 147.534 79.5199C147.534 79.9295 147.408 80.0319 147.029 80.0319C145.969 80.0063 145.969 80.0319 145.969 78.931C145.969 76.422 145.969 73.913 145.969 71.3784C145.969 70.9176 145.868 70.7896 145.413 70.8152C143.646 70.8408 141.853 70.8152 140.086 70.8408C139.025 70.8408 138.444 71.4296 138.444 72.5049C138.444 74.8091 138.419 77.1133 138.444 79.4431C138.444 79.9295 138.293 80.0575 137.838 80.0319C136.879 80.0063 136.879 80.0319 136.879 79.0334C136.879 76.8829 136.879 74.7323 136.879 72.6073C136.879 70.5336 138.167 69.2278 140.187 69.2278C142.459 69.2278 144.757 69.2278 147.029 69.2278C147.433 69.2278 147.534 69.3303 147.534 69.7399C147.534 71.3784 147.534 73.017 147.534 74.6811Z" fill="#9A0303"/>
<path d="M191.267 33.769C191.267 35.3819 191.241 36.9948 191.267 38.6077C191.267 39.043 191.166 39.171 190.736 39.1454C189.701 39.1198 189.701 39.1454 189.701 38.0957C189.701 35.5611 189.676 33.0265 189.726 30.4919C189.726 30.0055 189.575 29.9287 189.146 29.9287C187.378 29.9543 185.636 29.9287 183.869 29.9287C182.758 29.9287 182.177 30.4919 182.177 31.6184C182.177 33.9226 182.152 36.2268 182.177 38.5565C182.177 39.0174 182.076 39.1454 181.621 39.1198C180.611 39.0942 180.611 39.1198 180.611 38.0957C180.611 35.9451 180.611 33.7946 180.611 31.6696C180.611 29.5958 181.899 28.3157 183.944 28.3157C186.192 28.3157 188.413 28.3157 190.661 28.3157C191.115 28.3157 191.292 28.3925 191.267 28.9046C191.241 30.5431 191.267 32.156 191.267 33.769Z" fill="#9A0303"/>
<path d="M60.6253 13.2874C60.6001 15.0539 59.5396 16.1036 58.1761 16.9229C57.8226 17.1277 57.4943 17.3581 57.1913 17.6141C57.0651 17.7422 57.0146 17.8958 57.0904 18.0494C57.1661 18.203 57.3428 18.1774 57.4691 18.1774C57.9236 18.1518 58.3528 17.9214 58.8073 17.8702C59.7163 17.7678 60.2971 17.947 60.4486 18.4846C60.6253 19.1759 60.1708 20.1231 59.4133 20.3024C57.8983 20.6864 55.9036 20.2255 55.1209 18.5614C54.8179 17.9214 54.8684 17.2557 55.0704 16.5901C55.6006 14.7979 56.4844 13.2362 57.9236 12.0585C58.1256 11.9049 58.3276 11.7513 58.5801 11.6233C59.8173 10.9832 60.4991 11.7001 60.6506 12.9802C60.6253 13.0826 60.6253 13.185 60.6253 13.2874Z" fill="#9A0303"/>
<path d="M203.412 48.7207C205.002 48.7207 206.593 48.7463 208.184 48.7207C208.588 48.7207 208.739 48.7975 208.739 49.2583C208.714 50.3592 208.739 50.3592 207.679 50.3592C206.694 50.3592 205.709 50.3848 204.725 50.3592C204.27 50.3336 204.144 50.4616 204.144 50.9225C204.169 53.6107 204.144 56.2733 204.169 58.9615C204.169 59.4223 204.093 59.6016 203.588 59.576C202.604 59.5248 202.604 59.576 202.604 58.5775C202.604 56.0173 202.604 53.4571 202.604 50.9225C202.604 50.5128 202.528 50.3592 202.073 50.3592C200.912 50.3848 199.725 50.3592 198.564 50.3848C198.21 50.3848 198.084 50.3336 198.084 49.924C198.084 48.7463 198.059 48.7463 199.246 48.7463C200.609 48.7207 202.023 48.7207 203.412 48.7207Z" fill="#9A0303"/>
<path d="M140.767 28.3413C142.358 28.3413 143.949 28.3669 145.539 28.3413C145.943 28.3413 146.095 28.4181 146.095 28.879C146.07 29.9798 146.095 29.9798 145.034 29.9798C144.075 29.9798 143.09 30.0054 142.131 29.9798C141.626 29.9542 141.499 30.0822 141.499 30.5943C141.525 33.2569 141.499 35.9195 141.525 38.5565C141.525 39.0173 141.449 39.1966 140.944 39.171C139.959 39.1198 139.959 39.171 139.959 38.1725C139.959 35.6379 139.959 33.1033 139.959 30.5687C139.959 30.1078 139.883 29.9286 139.378 29.9542C138.242 30.0054 137.081 29.9542 135.919 29.9798C135.566 29.9798 135.439 29.9286 135.439 29.519C135.439 28.3413 135.414 28.3413 136.601 28.3413C137.99 28.3413 139.378 28.3413 140.767 28.3413Z" fill="#9A0303"/>
<path d="M285.802 91.988C286.686 92.4745 287.494 92.9097 288.302 93.345C288.63 93.5242 288.883 94.4971 288.681 94.7787C288.529 94.9579 288.302 94.8299 288.125 94.8555C287.873 94.8811 287.847 94.7019 287.898 94.5227C287.999 94.0874 287.721 93.9082 287.393 93.7546C286.863 93.4986 286.358 93.2169 285.853 92.9353C285.499 92.7305 285.323 92.7049 285.348 93.2169C285.373 93.601 285.348 93.985 285.348 94.3946C285.348 94.6763 285.373 94.8811 284.969 94.8811C284.54 94.8811 284.54 94.6763 284.54 94.3434C284.54 93.9594 284.54 93.5754 284.54 93.1657C284.565 92.8073 284.489 92.6537 284.111 92.8841C283.606 93.1913 283.101 93.4986 282.596 93.7802C282.318 93.9338 282.141 94.0874 282.192 94.4458C282.267 94.8043 282.065 94.8299 281.762 94.8299C281.485 94.8299 281.409 94.7531 281.384 94.4458C281.333 93.8058 281.459 93.345 282.141 93.0633C282.798 92.7817 283.404 92.3465 284.111 91.9368C283.303 91.476 282.545 91.0408 281.813 90.5799C281.51 90.4007 281.232 89.4022 281.434 89.1206C281.586 88.9158 281.813 89.0438 281.99 89.0182C282.192 88.9926 282.217 89.1462 282.192 89.2998C282.091 89.7863 282.419 89.9911 282.772 90.1703C283.227 90.4263 283.681 90.6823 284.136 90.964C284.464 91.1688 284.565 91.092 284.54 90.7079C284.515 90.2471 284.565 89.8119 284.54 89.351C284.515 88.967 284.717 88.9926 284.994 88.967C285.297 88.967 285.373 89.0438 285.373 89.351C285.348 89.8119 285.373 90.2983 285.373 90.7592C285.373 91.0408 285.424 91.1432 285.701 90.9896C286.358 90.6311 287.014 90.2727 287.671 89.9399C287.923 89.8119 287.923 89.5815 287.898 89.3766C287.847 89.0438 288.024 88.967 288.327 88.967C288.605 88.967 288.731 88.9926 288.756 89.351C288.807 90.0167 288.655 90.4519 287.999 90.7079C287.216 91.1432 286.56 91.5784 285.802 91.988Z" fill="#9A0303"/>
<path d="M310.293 91.9882C310.293 91.1945 310.318 90.4008 310.293 89.6072C310.293 89.2488 310.343 89.0951 310.747 89.1207C311.934 89.1463 313.121 89.1207 314.308 89.1207C314.964 89.1207 315.469 89.428 315.772 90.0168C316.075 90.6057 316.075 91.2201 315.646 91.7321C315.469 91.9626 315.519 92.065 315.646 92.2954C316.378 93.3963 315.696 94.83 314.383 94.8812C313.146 94.9324 311.884 94.8812 310.646 94.9068C310.343 94.9068 310.268 94.8044 310.268 94.5228C310.293 93.6523 310.293 92.8074 310.293 91.9882ZM312.894 91.5529C313.348 91.5529 313.828 91.5529 314.282 91.5529C314.812 91.5529 315.166 91.2201 315.166 90.7593C315.166 90.2984 314.812 89.9656 314.282 89.9656C313.6 89.9656 312.919 89.9656 312.237 89.9656C311.025 89.9656 311.05 89.9656 311.101 91.2201C311.126 91.4761 311.177 91.5785 311.454 91.5529C311.934 91.5529 312.414 91.5529 312.894 91.5529ZM312.868 94.0107C313.323 94.0107 313.752 94.0107 314.206 94.0107C314.787 94.0107 315.141 93.7035 315.166 93.2171C315.166 92.7306 314.812 92.4234 314.232 92.4234C313.55 92.4234 312.868 92.4234 312.187 92.4234C311.101 92.4234 311.101 92.4234 311.101 93.5499C311.101 93.9083 311.151 94.0619 311.555 94.0363C311.985 93.9851 312.439 94.0107 312.868 94.0107Z" fill="#9A0303"/>
<path d="M269.54 94.881C268.479 94.881 267.444 94.881 266.384 94.881C266.131 94.881 265.853 94.9579 265.879 94.497C265.904 94.1642 265.904 93.9338 266.333 94.0106C266.687 94.0874 266.712 93.857 266.712 93.5753C266.712 92.6793 266.712 91.7832 266.712 90.8871C266.712 89.7607 267.394 89.1206 268.505 89.095C269.641 89.095 270.777 89.1206 271.888 89.0694C272.368 89.0438 272.443 89.223 272.443 89.6583C272.418 90.9127 272.443 92.1928 272.418 93.4729C272.418 93.8058 272.418 94.0874 272.873 94.0106C273.277 93.9338 273.201 94.241 273.226 94.4714C273.251 94.7274 273.201 94.881 272.873 94.881C271.762 94.8554 270.651 94.881 269.54 94.881ZM269.59 94.0106C270.146 94.0106 270.676 93.985 271.231 94.0106C271.534 94.0106 271.661 93.9594 271.636 93.6266C271.61 92.5513 271.61 91.476 271.636 90.3751C271.636 90.0679 271.585 89.9399 271.257 89.9399C270.323 89.9655 269.363 89.9399 268.429 89.9399C267.873 89.9399 267.57 90.2471 267.545 90.8103C267.52 91.7576 267.545 92.6793 267.545 93.6266C267.545 93.9338 267.646 94.0106 267.924 94.0106C268.454 94.0106 269.01 94.0106 269.59 94.0106Z" fill="#9A0303"/>
<path d="M213.613 94.8811C212.552 94.8811 211.467 94.8811 210.406 94.8811C210.103 94.8811 209.926 94.8555 209.952 94.4715C209.977 94.1643 210.002 93.9595 210.381 94.0107C210.76 94.0875 210.785 93.8571 210.785 93.5498C210.76 92.6794 210.785 91.7833 210.785 90.9128C210.785 89.7607 211.467 89.1207 212.603 89.0951C213.714 89.0951 214.825 89.1207 215.936 89.0951C216.365 89.0951 216.517 89.1719 216.517 89.6583C216.491 90.9384 216.517 92.2441 216.491 93.5242C216.491 93.8571 216.491 94.1131 216.921 94.0107C217.299 93.9339 217.274 94.1899 217.299 94.4459C217.325 94.7531 217.249 94.8811 216.921 94.8811C215.784 94.8555 214.699 94.8811 213.613 94.8811ZM213.588 94.0107C214.143 94.0107 214.724 93.9851 215.279 94.0107C215.582 94.0107 215.658 93.9083 215.658 93.6266C215.633 92.5257 215.633 91.4249 215.658 90.324C215.658 90.0423 215.582 89.9399 215.279 89.9399C214.345 89.9655 213.386 89.9399 212.451 89.9399C211.871 89.9399 211.568 90.2472 211.542 90.836C211.517 91.7577 211.542 92.6794 211.542 93.601C211.542 93.9595 211.694 94.0107 211.972 93.9851C212.502 94.0107 213.057 94.0107 213.588 94.0107Z" fill="#9A0303"/>
<path d="M228.913 92.577C229.62 91.5529 230.302 90.5032 231.034 89.4791C231.135 89.3255 231.186 89.1463 231.388 89.0951C231.918 88.9671 232.12 89.0951 232.12 89.6583C232.12 91.2201 232.12 92.7562 232.12 94.3179C232.12 94.6251 232.196 94.9067 231.691 94.8811C231.186 94.8811 231.287 94.5739 231.287 94.2923C231.287 93.1146 231.287 91.9625 231.287 90.6056C230.428 91.8345 229.696 92.961 228.888 94.1387C228.105 92.9866 227.322 91.8601 226.464 90.58C226.464 91.9881 226.464 93.1914 226.464 94.4203C226.464 94.7275 226.413 94.8811 226.06 94.8811C225.706 94.8811 225.631 94.7787 225.631 94.4203C225.656 92.833 225.631 91.2713 225.656 89.6839C225.656 89.4791 225.454 89.1463 225.858 89.0951C226.161 89.0695 226.489 89.0183 226.716 89.3767C227.348 90.3496 228.004 91.2969 228.661 92.2697C228.686 92.3721 228.711 92.5258 228.913 92.577Z" fill="#9A0303"/>
<path d="M67.9457 30.9272C68.0215 31.8233 67.5417 32.5913 67.1377 33.3594C66.658 34.2555 66.5822 35.1259 67.0115 36.022C67.5165 37.0973 67.9962 38.1982 68.3497 39.3247C68.6274 40.1951 68.8294 41.0912 68.8042 42.0129C68.8042 42.1921 68.7789 42.3713 68.7032 42.5505C68.6527 42.7297 68.5264 42.9089 68.3244 42.8833C68.1225 42.8577 68.072 42.6785 68.072 42.5249C67.971 40.2207 66.5317 38.5054 65.4965 36.6108C64.8653 35.4588 64.8148 34.4859 65.6227 33.4106C66.3045 32.4889 66.9862 31.5672 67.365 30.4664C67.4407 30.2871 67.5417 30.0567 67.7942 30.1079C68.0467 30.1591 67.9457 30.4408 67.971 30.62C67.971 30.6968 67.9457 30.7736 67.9457 30.9272Z" fill="#9A0303"/>
<path d="M292.822 94.8811C292.014 94.8811 291.206 94.8555 290.398 94.8811C290.07 94.8811 289.943 94.8299 289.943 94.4459C289.969 92.8074 289.969 91.1688 289.943 89.5559C289.943 89.2231 290.019 89.0951 290.373 89.0951C291.989 89.1207 293.605 89.1207 295.22 89.0951C295.599 89.0951 295.624 89.2231 295.65 89.5559C295.675 89.9399 295.498 89.9655 295.195 89.9655C293.857 89.9399 292.544 89.9655 291.206 89.9399C290.852 89.9399 290.777 90.0423 290.777 90.3752C290.777 91.5273 290.751 91.5273 291.888 91.5273C292.746 91.5273 293.579 91.5529 294.438 91.5273C294.816 91.5273 294.867 91.6553 294.867 91.9881C294.867 92.2953 294.791 92.3977 294.463 92.3977C293.403 92.3721 292.317 92.3977 291.256 92.3721C290.953 92.3721 290.802 92.3977 290.802 92.7818C290.802 93.9595 290.777 93.9595 291.938 93.9595C293.049 93.9595 294.16 93.9851 295.271 93.9595C295.65 93.9595 295.675 94.1131 295.7 94.4203C295.7 94.7275 295.624 94.8555 295.296 94.8299C294.413 94.8555 293.605 94.8811 292.822 94.8811Z" fill="#9A0303"/>
<path d="M221.339 94.8811C220.531 94.8811 219.723 94.8811 218.915 94.8811C218.587 94.8811 218.461 94.8299 218.461 94.4459C218.486 92.7818 218.486 91.1432 218.461 89.4791C218.461 89.1975 218.537 89.0951 218.84 89.0951C220.481 89.0951 222.147 89.1207 223.789 89.0951C224.193 89.0951 224.117 89.2999 224.142 89.5559C224.167 89.8631 224.092 89.9911 223.738 89.9655C222.4 89.9399 221.087 89.9655 219.749 89.9399C219.37 89.9399 219.244 90.0423 219.244 90.452C219.269 91.5529 219.244 91.5529 220.355 91.5529C221.188 91.5529 221.996 91.5785 222.829 91.5529C223.183 91.5529 223.334 91.6041 223.334 92.0137C223.334 92.3977 223.183 92.4233 222.854 92.4233C221.794 92.3977 220.759 92.4233 219.698 92.4233C219.395 92.4233 219.244 92.4489 219.244 92.833C219.244 94.0107 219.218 94.0107 220.38 94.0107C221.491 94.0107 222.602 94.0363 223.713 94.0107C224.092 94.0107 224.142 94.1387 224.142 94.4715C224.142 94.7787 224.066 94.9067 223.738 94.8811C222.955 94.8555 222.147 94.8811 221.339 94.8811Z" fill="#9A0303"/>
<path d="M208.765 92.6537C208.765 93.2681 208.74 93.8826 208.765 94.497C208.765 94.7787 208.689 94.8811 208.386 94.8811C208.134 94.8811 207.932 94.8811 207.932 94.497C207.932 94.113 208.134 93.5498 207.831 93.3449C207.553 93.1401 207.048 93.2681 206.669 93.2681C205.861 93.2681 205.053 93.2681 204.245 93.2681C203.968 93.2681 203.841 93.3449 203.867 93.6522C203.892 93.8826 203.867 94.1386 203.867 94.3946C203.867 94.6507 203.942 94.9067 203.513 94.9067C203.109 94.9067 203.059 94.7531 203.059 94.3946C203.084 93.2425 203.059 92.0648 203.059 90.9128C203.059 89.8119 203.74 89.1206 204.826 89.1206C205.558 89.1206 206.265 89.1206 206.998 89.1206C208.033 89.1206 208.689 89.7863 208.715 90.8359C208.765 91.4248 208.765 92.0392 208.765 92.6537ZM205.912 92.4233C206.467 92.4233 207.048 92.4233 207.604 92.4233C207.755 92.4233 207.957 92.4745 207.957 92.2185C207.957 91.6808 207.982 91.1176 207.907 90.5799C207.856 90.1703 207.528 89.9655 207.124 89.9655C206.695 89.9655 206.291 89.9911 205.861 89.9655C203.715 89.8887 203.917 90.1703 203.892 92.0136C203.892 92.3209 203.968 92.4489 204.296 92.4233C204.826 92.3977 205.356 92.4233 205.912 92.4233Z" fill="#9A0303"/>
<path d="M189.019 92.6025C189.019 92.0136 189.019 91.4248 189.019 90.8359C189.045 89.8119 189.726 89.1206 190.736 89.1206C191.494 89.1206 192.226 89.1206 192.984 89.1206C193.994 89.1206 194.675 89.7863 194.701 90.7847C194.726 92.0392 194.701 93.2681 194.726 94.5226C194.726 94.8043 194.65 94.9067 194.347 94.9067C194.095 94.9067 193.893 94.9067 193.893 94.5226C193.893 94.1386 194.095 93.5754 193.792 93.3706C193.514 93.1657 193.009 93.2937 192.63 93.2937C191.822 93.2937 191.014 93.2937 190.206 93.2937C189.903 93.2937 189.802 93.3705 189.827 93.6778C189.853 93.9082 189.827 94.1642 189.827 94.4202C189.827 94.6763 189.903 94.9323 189.449 94.9323C189.045 94.9323 188.994 94.7787 188.994 94.4202C189.045 93.7802 189.019 93.1913 189.019 92.6025ZM191.873 92.4233C192.428 92.4233 193.009 92.4233 193.564 92.4233C193.716 92.4233 193.918 92.4745 193.918 92.2185C193.918 91.6808 193.943 91.1176 193.867 90.5799C193.817 90.1959 193.514 89.9911 193.135 89.9911C192.302 89.9911 191.494 89.9655 190.661 89.9911C190.181 90.0167 189.878 90.3239 189.878 90.8103C189.853 91.2456 189.878 91.6552 189.878 92.0904C189.853 92.3721 189.954 92.4489 190.231 92.4233C190.736 92.3977 191.292 92.4233 191.873 92.4233Z" fill="#9A0303"/>
<path d="M238.331 90.4008C237.145 91.7577 235.958 93.1146 234.771 94.4715C234.695 94.5483 234.645 94.6251 234.569 94.7019C234.342 95.0091 234.014 94.9067 233.736 94.8555C233.483 94.8043 233.61 94.4971 233.61 94.3179C233.61 92.7561 233.61 91.22 233.61 89.6583C233.61 89.3255 233.61 89.0951 234.064 89.0951C234.569 89.0951 234.418 89.4279 234.418 89.6839C234.418 90.964 234.418 92.2441 234.418 93.7034C234.746 93.345 234.973 93.089 235.175 92.833C236.16 91.7065 237.17 90.58 238.155 89.4535C238.382 89.1975 238.609 89.0951 238.937 89.1207C239.19 89.1207 239.291 89.1975 239.291 89.4791C239.291 91.1688 239.266 92.8842 239.291 94.5739C239.291 94.9067 239.139 94.9067 238.887 94.9323C238.584 94.9579 238.458 94.8811 238.458 94.5227C238.483 93.3962 238.458 92.2697 238.458 91.1432C238.458 90.9128 238.458 90.708 238.458 90.4776C238.432 90.4264 238.382 90.4008 238.331 90.4008Z" fill="#9A0303"/>
<path d="M143.317 93.6778C144.604 92.2184 145.791 90.8871 146.978 89.5302C147.079 89.4278 147.155 89.2998 147.256 89.223C147.483 88.9926 147.811 89.0694 148.064 89.1206C148.291 89.1718 148.165 89.4278 148.165 89.607C148.165 91.1944 148.165 92.8073 148.165 94.3946C148.165 94.6762 148.215 94.9067 147.786 94.9067C147.357 94.9067 147.357 94.7274 147.357 94.3946C147.382 93.2681 147.357 92.1416 147.357 91.0152C147.357 90.8359 147.432 90.6055 147.23 90.3751C146.296 91.4504 145.387 92.4745 144.478 93.5241C144.175 93.8826 143.847 94.2154 143.569 94.5994C143.317 94.9579 142.963 94.9323 142.66 94.8554C142.357 94.7786 142.509 94.4202 142.509 94.2154C142.483 92.6793 142.509 91.1432 142.483 89.607C142.483 89.2742 142.509 89.095 142.913 89.095C143.342 89.095 143.291 89.3254 143.291 89.5814C143.317 90.8871 143.317 92.1928 143.317 93.6778Z" fill="#9A0303"/>
<path d="M103.7 93.6779C105.013 92.1929 106.2 90.8616 107.387 89.5303C107.488 89.4279 107.564 89.2999 107.665 89.2231C107.917 88.9927 108.22 89.0695 108.473 89.1463C108.675 89.1975 108.574 89.4535 108.574 89.6327C108.574 91.2201 108.574 92.833 108.574 94.4203C108.574 94.7019 108.574 94.9068 108.17 94.9068C107.816 94.9068 107.74 94.7788 107.74 94.4459C107.766 93.1146 107.74 91.8089 107.74 90.452C107.437 90.4776 107.362 90.6824 107.261 90.8104C106.15 92.0649 105.064 93.3194 103.978 94.5739C103.801 94.7531 103.65 94.8812 103.372 94.9068C102.968 94.9324 102.867 94.8044 102.867 94.3947C102.892 92.8074 102.892 91.1945 102.867 89.6071C102.867 89.2487 102.918 89.1207 103.322 89.0951C103.776 89.0951 103.675 89.3511 103.675 89.6071C103.7 90.8872 103.7 92.1929 103.7 93.6779Z" fill="#9A0303"/>
<path d="M245.705 90.2729C244.392 91.7578 243.205 93.1147 242.019 94.4972C241.943 94.5996 241.867 94.702 241.766 94.7788C241.514 95.0092 241.211 94.9324 240.958 94.8556C240.731 94.8044 240.857 94.5484 240.857 94.3692C240.857 92.7819 240.857 91.1689 240.857 89.5816C240.857 89.2744 240.908 89.1208 241.286 89.0952C241.665 89.0952 241.69 89.2744 241.69 89.556C241.665 90.6825 241.69 91.809 241.69 92.9355C241.69 93.1403 241.69 93.3195 241.69 93.6779C242.978 92.2186 244.165 90.8873 245.352 89.556C245.453 89.4536 245.528 89.3512 245.629 89.2232C245.857 88.9672 246.16 89.0696 246.437 89.0952C246.715 89.1464 246.564 89.428 246.564 89.6072C246.564 91.1945 246.564 92.7563 246.564 94.3436C246.564 94.6508 246.589 94.8812 246.16 94.8556C245.68 94.8556 245.756 94.574 245.756 94.2924C245.756 93.1915 245.756 92.0906 245.756 90.9897C245.756 90.8361 245.73 90.6313 245.705 90.2729Z" fill="#9A0303"/>
<path d="M178.59 93.5499C179.297 92.7563 179.979 91.9626 180.661 91.169C181.191 90.5801 181.721 89.9913 182.201 89.3768C182.479 89.044 182.807 89.044 183.135 89.1464C183.413 89.2232 183.262 89.556 183.262 89.7865C183.287 91.3482 183.262 92.8843 183.287 94.446C183.287 94.7788 183.211 94.9069 182.858 94.9069C182.504 94.9069 182.428 94.7788 182.428 94.446C182.454 93.1147 182.428 91.7578 182.428 90.2729C181.444 91.425 180.56 92.4491 179.676 93.4987C179.348 93.8572 179.02 94.2156 178.742 94.6252C178.54 94.9069 178.313 94.9325 178.01 94.9325C177.757 94.9325 177.656 94.8813 177.656 94.5996C177.656 92.9099 177.681 91.2202 177.656 89.5048C177.656 89.1976 177.783 89.1464 178.06 89.1464C178.338 89.1464 178.515 89.172 178.49 89.5304C178.464 90.6825 178.49 91.809 178.49 92.9611C178.49 93.0891 178.439 93.2939 178.59 93.5499Z" fill="#9A0303"/>
<path d="M150.741 93.5498C151.448 92.7561 152.13 91.9625 152.811 91.1688C153.342 90.58 153.847 89.9655 154.377 89.3767C154.503 89.2487 154.579 89.095 154.806 89.095C155.21 89.0694 155.463 89.0951 155.437 89.6583C155.387 91.2456 155.412 92.8329 155.437 94.4459C155.437 94.7787 155.362 94.9067 155.008 94.9067C154.655 94.9067 154.579 94.7531 154.579 94.4459C154.604 93.1146 154.579 91.7577 154.579 90.2727C153.594 91.4248 152.71 92.4489 151.827 93.4986C151.498 93.857 151.17 94.2155 150.892 94.6251C150.69 94.9067 150.463 94.9323 150.16 94.9323C149.908 94.9323 149.807 94.8811 149.807 94.5995C149.807 92.9097 149.832 91.22 149.807 89.5047C149.807 89.1975 149.933 89.1463 150.211 89.1463C150.488 89.1463 150.665 89.1719 150.64 89.5303C150.615 90.6824 150.64 91.8089 150.64 92.961C150.64 93.089 150.564 93.2938 150.741 93.5498Z" fill="#9A0303"/>
<path d="M173.415 89.0951C173.793 89.0951 174.172 89.0951 174.576 89.0951C175.46 89.1207 176.167 89.7607 176.217 90.6568C176.268 91.5273 176.268 92.4233 176.217 93.2938C176.167 94.2411 175.485 94.8555 174.551 94.8811C173.768 94.8811 172.985 94.8811 172.203 94.8811C171.268 94.8555 170.612 94.2667 170.587 93.345C170.536 92.4745 170.536 91.5785 170.587 90.708C170.637 89.7607 171.294 89.1463 172.253 89.1207C172.607 89.0951 173.011 89.0951 173.415 89.0951ZM173.364 89.9655C172.985 89.9655 172.607 89.9655 172.228 89.9655C171.698 89.9655 171.395 90.2728 171.369 90.7848C171.344 91.5785 171.344 92.3721 171.369 93.1658C171.395 93.7034 171.672 94.0107 172.203 94.0107C172.985 94.0107 173.768 94.0363 174.551 94.0107C175.106 94.0107 175.409 93.7034 175.409 93.1402C175.435 92.3721 175.435 91.5785 175.409 90.8104C175.384 90.2728 175.106 89.9911 174.576 89.9655C174.172 89.9399 173.768 89.9655 173.364 89.9655Z" fill="#9A0303"/>
<path d="M124.052 94.881C123.648 94.881 123.244 94.881 122.84 94.881C121.956 94.8554 121.299 94.2666 121.249 93.3705C121.198 92.4744 121.198 91.5783 121.249 90.6823C121.299 89.7606 121.956 89.1461 122.865 89.1205C123.648 89.0949 124.43 89.1205 125.213 89.1205C126.147 89.1205 126.854 89.7862 126.905 90.7079C126.955 91.5527 126.955 92.4232 126.905 93.2937C126.854 94.2665 126.172 94.9066 125.188 94.9066C124.834 94.881 124.43 94.881 124.052 94.881ZM124.077 89.9654C123.698 89.9654 123.319 89.9654 122.941 89.9654C122.385 89.9654 122.082 90.2726 122.057 90.8103C122.032 91.5783 122.032 92.372 122.057 93.1401C122.082 93.7033 122.385 94.0105 122.941 94.0105C123.698 94.0105 124.481 94.0105 125.238 94.0105C125.794 94.0105 126.122 93.7033 126.122 93.1657C126.147 92.3976 126.147 91.6039 126.122 90.8359C126.097 90.2726 125.794 89.991 125.238 89.9654C124.834 89.9398 124.456 89.9654 124.077 89.9654Z" fill="#9A0303"/>
<path d="M277.19 94.8812C276.761 94.8812 276.332 94.9068 275.928 94.8812C275.069 94.8556 274.438 94.2412 274.387 93.3707C274.337 92.4746 274.337 91.5786 274.387 90.6825C274.438 89.7608 275.094 89.1208 276.003 89.1208C276.811 89.0952 277.619 89.0952 278.427 89.1208C279.311 89.1464 280.018 89.7864 280.043 90.6825C280.094 91.553 280.094 92.449 280.043 93.3195C279.993 94.2412 279.286 94.8556 278.352 94.8812C277.948 94.8812 277.569 94.8812 277.19 94.8812ZM277.165 94.0108C277.544 94.0108 277.922 94.0108 278.301 94.0108C278.882 93.9852 279.185 93.7035 279.21 93.1147C279.235 92.3722 279.21 91.6554 279.21 90.9129C279.21 90.2729 278.907 89.9912 278.276 89.9656C277.544 89.9656 276.786 89.9656 276.054 89.9656C275.498 89.9656 275.17 90.2473 275.145 90.8105C275.12 91.6042 275.12 92.3978 275.145 93.1915C275.17 93.7035 275.473 94.0108 276.003 94.0108C276.407 94.0108 276.786 94.0108 277.165 94.0108Z" fill="#9A0303"/>
<path d="M264.794 91.3737C264.794 91.9625 264.819 92.5514 264.794 93.1402C264.769 94.1899 264.087 94.8556 263.052 94.8556C262.319 94.8556 261.587 94.8556 260.88 94.8556C260.148 94.83 259.593 94.4203 259.365 93.7547C259.315 93.6011 259.163 93.345 259.365 93.2938C259.593 93.2426 259.946 93.089 260.097 93.4475C260.299 93.9339 260.678 94.0107 261.133 94.0107C261.789 93.9851 262.42 94.0107 263.077 94.0107C263.784 93.9851 264.264 93.217 263.986 92.5514C263.885 92.321 263.708 92.4234 263.582 92.4234C262.673 92.4234 261.764 92.4234 260.855 92.4234C259.82 92.4234 259.163 91.7577 259.113 90.708C259.088 90.2984 259.138 89.8888 259.113 89.4791C259.088 89.1207 259.264 89.0951 259.542 89.0951C259.87 89.0695 259.971 89.1975 259.946 89.5047C259.921 89.8632 259.921 90.2472 259.946 90.6056C259.971 91.2457 260.249 91.5529 260.88 91.5529C261.789 91.5529 262.698 91.5273 263.607 91.5529C263.961 91.5529 264.036 91.4249 264.036 91.0921C264.011 90.5544 264.036 90.0168 264.036 89.5047C264.036 89.1975 264.087 89.0695 264.415 89.0695C264.769 89.0695 264.87 89.1719 264.844 89.5303C264.769 90.1448 264.794 90.7592 264.794 91.3737Z" fill="#9A0303"/>
<path d="M114.279 91.9882C114.279 91.1945 114.304 90.4008 114.279 89.6072C114.279 89.2488 114.33 89.0951 114.734 89.1207C115.92 89.1463 117.107 89.1207 118.294 89.1463C119.228 89.1463 119.885 89.812 119.935 90.7593C119.96 91.0921 119.96 91.4249 119.935 91.7321C119.885 92.6282 119.228 93.2939 118.319 93.3195C117.435 93.3451 116.552 93.3707 115.668 93.3195C115.138 93.2939 114.986 93.4731 115.062 93.9595C115.087 94.1131 115.062 94.2923 115.062 94.446C115.087 94.7276 115.087 94.9324 114.683 94.9324C114.254 94.9324 114.254 94.7276 114.254 94.4204C114.304 93.5755 114.279 92.7818 114.279 91.9882ZM116.703 92.4234C117.284 92.4234 117.764 92.4234 118.243 92.4234C118.824 92.4234 119.127 92.1418 119.152 91.5273C119.152 91.3481 119.152 91.1689 119.152 90.9641C119.127 90.2472 118.875 89.9656 118.168 89.9656C117.385 89.9656 116.602 90.0168 115.819 89.94C115.188 89.8888 115.011 90.0936 115.087 90.7081C115.138 91.2457 114.91 91.9882 115.188 92.2954C115.491 92.6538 116.249 92.3722 116.703 92.4234Z" fill="#9A0303"/>
<path d="M95.873 91.9881C95.873 91.1688 95.8983 90.3496 95.873 89.5303C95.873 89.1719 95.974 89.0951 96.3275 89.0951C97.5395 89.1207 98.7515 89.0951 99.9635 89.0951C100.216 89.0951 100.443 89.1719 100.67 89.2743C101.478 89.6839 101.832 90.7336 101.554 91.9881C101.377 92.7818 100.696 93.2682 99.812 93.2682C98.9283 93.2682 98.0445 93.2938 97.1608 93.2682C96.8073 93.2682 96.7063 93.3706 96.7315 93.7034C96.7568 93.9339 96.7315 94.1643 96.7315 94.3691C96.7315 94.6251 96.782 94.8811 96.3528 94.8811C95.9488 94.8811 95.8983 94.7019 95.8983 94.3691C95.873 93.5754 95.873 92.7818 95.873 91.9881ZM98.4485 92.4233C98.903 92.4233 99.3827 92.4233 99.8372 92.4233C99.8625 92.4233 99.8877 92.4233 99.8877 92.4233C100.393 92.4233 100.67 92.1417 100.721 91.6297C100.746 91.3993 100.746 91.1432 100.721 90.8872C100.696 90.2472 100.418 89.9655 99.7867 89.9655C98.903 89.9655 98.0193 89.9911 97.1355 89.9399C96.7063 89.9143 96.6305 90.0935 96.6558 90.452C96.681 90.9128 96.681 91.3992 96.6558 91.8601C96.6305 92.2697 96.7315 92.4489 97.1608 92.3977C97.6153 92.3721 98.0193 92.4233 98.4485 92.4233Z" fill="#9A0303"/>
<path d="M58.5547 68.4341C58.6052 67.7685 58.7062 67.154 58.9839 66.642C59.4637 65.7203 60.4989 65.4643 61.4332 66.0275C62.0896 66.4115 62.7209 66.8212 63.4531 67.026C64.0086 67.1796 64.0591 67.4612 63.5541 67.7685C62.8976 68.1781 62.1906 68.5621 61.5089 68.8949C60.9282 69.1766 60.3979 69.5094 59.7919 69.7142C59.1354 69.9446 58.9334 69.8934 58.7314 69.2278C58.6304 68.9717 58.5799 68.6645 58.5547 68.4341Z" fill="#9A0303"/>
<path d="M254.265 91.9881C253.583 91.4761 252.977 91.0153 252.371 90.5544C252.144 90.3752 251.967 89.4023 252.119 89.1975C252.27 88.9927 252.498 89.1207 252.674 89.0951C252.902 89.0695 252.952 89.2231 252.927 89.4024C252.826 89.8888 253.129 90.0936 253.457 90.324C253.962 90.6824 254.417 91.3737 254.972 91.3481C255.477 91.3225 255.957 90.6824 256.437 90.324C256.765 90.0936 257.068 89.8888 256.967 89.4024C256.891 89.0439 257.169 89.0951 257.371 89.0695C257.598 89.0695 257.775 89.0439 257.8 89.4024C257.825 89.9912 257.775 90.452 257.194 90.7849C256.664 91.0921 256.184 91.5273 255.629 91.9625C256.235 92.449 256.841 92.8842 257.421 93.3451C257.724 93.5755 257.952 94.3691 257.775 94.702C257.649 94.958 257.421 94.8044 257.245 94.83C257.118 94.8556 256.916 94.83 256.967 94.6252C257.144 93.9595 256.613 93.7547 256.209 93.4475C255.805 93.1146 255.376 92.577 254.947 92.577C254.518 92.577 254.088 93.1146 253.684 93.4475C253.306 93.7547 252.775 93.9595 252.927 94.6252C252.977 94.83 252.801 94.8556 252.649 94.83C252.472 94.8044 252.245 94.958 252.119 94.702C251.967 94.3691 252.169 93.5499 252.472 93.3451C253.053 92.9354 253.634 92.5002 254.265 91.9881Z" fill="#9A0303"/>
<path d="M88.6016 91.9625C88.6016 91.1432 88.6268 90.324 88.6016 89.5047C88.6016 89.1975 88.6773 89.0951 89.0056 89.0951C90.6468 89.1207 92.288 89.1207 93.904 89.0951C94.1817 89.0951 94.2827 89.1719 94.2827 89.4791C94.2575 91.1688 94.2575 92.833 94.2827 94.5227C94.2827 94.8299 94.1817 94.9067 93.904 94.9067C93.6262 94.9067 93.4495 94.8811 93.4495 94.5227C93.4748 93.1914 93.4243 91.8601 93.4748 90.5288C93.5 90.0423 93.3233 89.9655 92.894 89.9655C91.9345 89.9911 90.9498 89.9911 89.9903 89.9655C89.5358 89.9399 89.3591 90.0423 89.3843 90.5544C89.4348 91.8089 89.4096 93.089 89.4096 94.3691C89.4096 94.6251 89.5106 94.9323 89.0308 94.9323C88.6016 94.9323 88.6016 94.7275 88.6016 94.3947C88.6016 93.5754 88.6016 92.7562 88.6016 91.9625Z" fill="#9A0303"/>
<path d="M302.668 93.3194C302.567 94.2667 301.987 94.8555 301.052 94.8555C300.244 94.8811 299.436 94.8811 298.628 94.8555C297.719 94.8299 297.063 94.2155 297.012 93.2938C296.962 92.4233 296.962 91.5273 297.012 90.6568C297.063 89.7351 297.719 89.1207 298.628 89.0951C299.462 89.0695 300.27 89.0695 301.103 89.0951C301.759 89.1207 302.391 89.5815 302.567 90.1704C302.618 90.324 302.769 90.58 302.542 90.6568C302.34 90.708 301.961 90.8616 301.835 90.5544C301.583 89.9911 301.153 89.9399 300.648 89.9655C299.992 89.9911 299.361 89.9655 298.704 89.9655C298.098 89.9655 297.795 90.2472 297.77 90.836C297.745 91.6041 297.745 92.3977 297.77 93.1658C297.795 93.7034 298.073 94.0107 298.603 94.0107C299.386 94.0107 300.169 94.0107 300.951 94.0107C301.229 94.0107 301.456 93.9338 301.658 93.7034C302.113 93.2682 302.113 93.2426 302.668 93.3194Z" fill="#9A0303"/>
<path d="M134.026 93.2938C133.925 94.2667 133.344 94.8555 132.435 94.8555C131.627 94.8811 130.819 94.8811 130.011 94.8555C129.102 94.8299 128.446 94.2155 128.395 93.2938C128.345 92.4233 128.345 91.5273 128.395 90.6568C128.446 89.7351 129.102 89.0951 130.011 89.0951C130.845 89.0695 131.653 89.0695 132.486 89.0951C133.142 89.1207 133.774 89.5559 133.95 90.1704C134.001 90.324 134.152 90.58 133.95 90.6568C133.748 90.7336 133.37 90.8616 133.243 90.5544C132.991 89.9399 132.511 89.9399 131.981 89.9399C131.324 89.9399 130.693 89.9399 130.037 89.9399C129.481 89.9399 129.178 90.2472 129.153 90.8104C129.128 91.5785 129.128 92.3721 129.153 93.1402C129.178 93.7034 129.481 93.9851 130.037 93.9851C130.794 93.9851 131.577 93.9851 132.334 93.9851C132.637 93.9851 132.966 93.9082 133.067 93.6266C133.294 93.1146 133.672 93.2938 134.026 93.2938Z" fill="#9A0303"/>
<path d="M141.071 93.3194C140.97 94.2667 140.389 94.8555 139.455 94.8555C138.647 94.8811 137.839 94.8811 137.031 94.8555C136.122 94.8299 135.465 94.2155 135.415 93.2938C135.364 92.4233 135.364 91.5273 135.415 90.6568C135.465 89.7351 136.122 89.1207 137.031 89.0951C137.864 89.0695 138.672 89.0695 139.505 89.0951C140.162 89.1207 140.793 89.5815 140.97 90.1704C141.02 90.324 141.172 90.58 140.944 90.6568C140.742 90.708 140.364 90.8616 140.238 90.5544C139.985 89.9911 139.556 89.9399 139.051 89.9655C138.394 89.9655 137.763 89.9655 137.107 89.9655C136.501 89.9655 136.198 90.2472 136.172 90.836C136.147 91.6041 136.147 92.3977 136.172 93.1658C136.198 93.7034 136.475 94.0107 137.006 94.0107C137.788 94.0107 138.571 94.0107 139.354 94.0107C139.632 94.0107 139.859 93.9338 140.061 93.7034C140.515 93.2682 140.49 93.2426 141.071 93.3194Z" fill="#9A0303"/>
<path d="M162.634 93.3194C162.533 94.2923 161.927 94.8555 160.968 94.8811C160.21 94.8811 159.427 94.8811 158.67 94.8811C157.685 94.8811 157.029 94.2411 157.003 93.2426C156.978 92.3977 156.978 91.5785 157.003 90.7336C157.054 89.7607 157.71 89.1207 158.695 89.0951C159.478 89.0951 160.261 89.0951 161.043 89.0951C161.75 89.0951 162.382 89.5559 162.584 90.196C162.634 90.3496 162.786 90.6056 162.558 90.6568C162.356 90.708 161.978 90.8616 161.851 90.5544C161.599 89.9655 161.17 89.9399 160.665 89.9655C160.008 89.9655 159.377 89.9655 158.72 89.9655C158.114 89.9655 157.811 90.2472 157.786 90.836C157.761 91.6041 157.761 92.3977 157.786 93.1658C157.811 93.729 158.114 94.0107 158.67 94.0107C159.427 94.0107 160.16 94.0107 160.917 94.0107C161.22 94.0107 161.548 93.9595 161.649 93.7034C161.877 93.1914 162.23 93.2426 162.634 93.3194Z" fill="#9A0303"/>
<path d="M57.2169 50.0777C57.5452 50.5898 57.9997 50.7946 58.4289 51.0506C58.9086 51.3578 58.9086 51.5882 58.4542 51.8955C57.8734 52.2795 57.2927 52.3307 56.6614 51.9211C56.1817 51.6138 55.7777 51.2298 55.3737 50.8202C54.995 50.4618 55.0707 50.1033 55.4747 49.7961C56.5352 49.028 57.5957 48.2088 58.8329 47.7223C59.1611 47.5943 59.4894 47.5431 59.8176 47.6711C60.3984 47.876 60.4236 47.9528 59.9691 48.3368C59.8429 48.4392 59.7671 48.5672 59.7419 48.7464C59.7166 48.9512 59.6914 49.1561 59.6409 49.3609C59.4389 50.4874 59.1864 50.641 58.1512 50.3081C57.8734 50.2057 57.6209 50.0009 57.2169 50.0777Z" fill="#9A0303"/>
<path d="M201.947 89.1719C201.063 90.068 200.23 90.9129 199.397 91.7321C199.195 91.9369 199.195 92.0394 199.397 92.2442C200.23 93.0634 201.063 93.9083 201.947 94.8044C201.341 94.9068 200.836 94.9836 200.407 94.4459C199.876 93.8315 199.27 93.2683 198.715 92.705C198.589 92.577 198.462 92.4234 198.21 92.3978C197.124 92.2954 197.124 92.2954 197.124 93.3963C197.124 93.7547 197.124 94.0875 197.124 94.4459C197.124 94.7276 197.124 94.9068 196.746 94.8812C196.417 94.8812 196.291 94.8044 196.291 94.4459C196.316 92.8074 196.316 91.1689 196.291 89.5304C196.291 89.1719 196.392 89.0951 196.746 89.0951C197.099 89.0951 197.124 89.2487 197.124 89.5304C197.099 90.0936 197.124 90.6312 197.124 91.1945C197.124 91.4761 197.2 91.5529 197.503 91.5785C198.134 91.6297 198.614 91.5017 199.043 90.9897C199.422 90.5032 199.927 90.1448 200.306 89.6584C200.71 89.0951 201.215 88.9927 201.947 89.1719Z" fill="#9A0303"/>
<path d="M169.728 94.8043C168.971 94.9835 168.44 94.8299 167.986 94.2667C167.531 93.7035 166.976 93.217 166.446 92.705C166.294 92.577 166.193 92.4234 165.941 92.4234C164.855 92.3465 164.855 92.3209 164.855 93.4218C164.855 93.7547 164.855 94.0875 164.855 94.3947C164.855 94.6763 164.88 94.8811 164.476 94.8811C164.047 94.8811 164.047 94.6763 164.047 94.3691C164.047 92.7818 164.072 91.1689 164.047 89.5815C164.047 89.2231 164.123 89.0951 164.501 89.0951C164.956 89.0951 164.855 89.3511 164.855 89.6071C164.855 90.1192 164.88 90.6312 164.855 91.1433C164.83 91.5017 164.981 91.5529 165.309 91.5785C165.915 91.6297 166.37 91.4505 166.774 90.964C167.153 90.5032 167.632 90.0936 168.036 89.6583C168.668 89.0183 168.668 89.0183 169.678 89.1719C168.87 89.9912 168.112 90.8104 167.304 91.5529C166.9 91.9113 166.976 92.0905 167.329 92.4234C168.137 93.1914 168.895 93.9851 169.728 94.8043Z" fill="#9A0303"/>
<path d="M63.4262 30.9273C63.3504 31.4393 63.4009 32.0538 63.0222 32.5402C62.8202 32.7962 62.492 33.0011 62.391 32.5914C61.987 31.2345 60.775 30.4153 60.2952 29.1608C59.967 28.3159 59.8912 27.3942 60.3962 26.5749C60.674 26.0885 61.0275 26.0885 61.2042 26.6005C61.5325 27.599 62.2395 28.2903 62.8455 29.0327C63.2494 29.5704 63.4009 30.1848 63.4262 30.9273Z" fill="#9A0303"/>
<path d="M66.2293 16.846C66.3051 17.4604 66.0273 18.0237 65.8506 18.5613C65.5981 19.355 65.7748 20.0206 66.1283 20.7119C66.3556 21.1471 66.6081 21.6079 66.6838 22.12C66.7091 22.3504 66.7091 22.5808 66.5071 22.7344C66.2798 22.9137 66.1283 22.6576 66.0021 22.5552C65.3456 21.992 64.6891 21.4031 64.0831 20.7887C63.6034 20.3022 63.5276 19.611 63.8306 18.9965C64.2346 18.2285 64.6133 17.4604 65.0173 16.6924C65.0426 16.6668 65.0426 16.6155 65.0678 16.5899C65.2698 16.2827 65.3961 15.7963 65.8758 15.9243C66.2798 16.0267 66.2546 16.4619 66.2293 16.846Z" fill="#9A0303"/>
<path d="M306.304 89.0951C307.137 89.0951 307.97 89.1207 308.778 89.0951C309.132 89.0951 309.157 89.2487 309.157 89.5303C309.157 89.8119 309.132 89.9911 308.778 89.9655C308.223 89.9399 307.693 89.9655 307.137 89.9399C306.809 89.9143 306.683 90.0167 306.708 90.3752C306.733 91.7065 306.708 93.0378 306.733 94.3691C306.733 94.7019 306.708 94.8811 306.279 94.8811C305.875 94.8811 305.9 94.6763 305.9 94.3947C305.9 93.089 305.9 91.7833 305.9 90.4776C305.9 90.0935 305.824 89.9143 305.42 89.9655C304.966 90.0167 304.486 89.9655 304.031 89.9655C303.754 89.9655 303.451 90.0679 303.451 89.5559C303.425 88.9927 303.754 89.1207 304.057 89.1207C304.814 89.0951 305.546 89.0951 306.304 89.0951Z" fill="#9A0303"/>
<path d="M63.0492 64.466C62.822 64.5172 62.5695 64.594 62.3422 64.594C62.1655 64.594 61.8625 64.594 61.9635 64.2356C62.1655 63.5187 64.0845 62.5202 64.741 62.8019C64.8925 62.8531 65.0187 62.9811 65.145 63.0579C65.4227 63.2371 65.7762 63.4419 65.5994 63.8004C65.4227 64.1844 65.2459 64.6196 64.7157 64.6708C64.1097 64.7732 63.6047 64.5428 63.0492 64.466Z" fill="#9A0303"/>
<path d="M180.486 89.0951C179.779 89.0951 179.122 88.6599 178.895 88.0198C178.845 87.8662 178.693 87.6102 178.895 87.5334C179.122 87.4566 179.4 87.3798 179.627 87.6358C180.334 88.5062 180.612 88.4807 181.37 87.6102C181.571 87.3798 181.874 87.4566 182.076 87.5334C182.304 87.6102 182.127 87.8662 182.076 87.9942C181.849 88.6599 181.218 89.0951 180.486 89.0951Z" fill="#9A0303"/>
<path d="M152.635 89.095C151.928 89.095 151.271 88.6853 151.019 88.0197C150.968 87.866 150.842 87.61 151.019 87.5332C151.246 87.4564 151.549 87.354 151.776 87.6612C152.332 88.4549 152.963 88.4549 153.468 87.6612C153.67 87.3284 153.998 87.4564 154.2 87.5076C154.478 87.5844 154.251 87.866 154.2 88.0197C153.973 88.6853 153.342 89.095 152.635 89.095Z" fill="#9A0303"/>
</g>
<defs>
<clipPath id="clip0">
<rect width="316" height="101" fill="white"/>
</clipPath>
</defs>
</svg>
