<svg width="322" height="156" viewBox="0 0 322 156" fill="none" xmlns="http://www.w3.org/2000/svg">
<rect width="322" height="156" rx="14" fill="#E1E1E1"/>
<path fill-rule="evenodd" clip-rule="evenodd" d="M37.3667 40.5756C37.3667 35.2421 37.2296 34.1754 34.625 33.9087L33.5283 33.7753C32.9799 33.5087 32.9799 31.8419 33.6653 31.8419C38.4634 31.5086 42.9872 31.3086 49.0876 31.3086C53.8171 31.3086 58.5466 31.7753 62.5221 33.1753C70.0619 35.8421 74.243 42.4423 74.243 49.4426C74.243 56.9762 70.5417 63.043 63.893 66.2432C59.986 68.1766 55.2565 68.9099 49.2932 68.9099C46.5515 68.9099 43.6727 68.5766 41.6164 68.5766C38.8746 68.5766 35.9273 68.6432 32.6372 68.7766C32.1574 68.4432 32.1574 67.1098 32.6372 66.7765L34.4193 66.5098C37.024 66.0431 37.3667 65.6431 37.3667 60.5096V40.5756ZM45.6604 58.3762C45.6604 61.443 45.7975 63.5097 46.8257 64.6431C47.8538 65.7765 49.5674 66.2432 51.6237 66.2432C61.6311 66.2432 64.9897 57.5762 64.9897 49.9759C64.9897 39.8422 59.5062 33.842 49.0876 33.842C47.5111 33.842 46.4144 34.1087 46.0717 34.5754C45.729 35.0421 45.6604 36.1088 45.6604 37.8422V58.3762Z" fill="#322D2D"/>
<path fill-rule="evenodd" clip-rule="evenodd" d="M86.5127 55.8422C85.1418 55.8422 84.9362 55.9088 84.5935 56.9755L82.4686 63.5091C82.1259 64.6424 82.0573 65.1091 82.0573 65.5091C82.0573 65.8425 82.5372 66.1758 84.1136 66.4425L85.8272 66.7092C86.1699 67.1092 86.307 68.3759 85.6901 68.7092C83.7024 68.5759 81.3719 68.5759 78.9044 68.5092C76.9166 68.5092 75.6143 68.7092 72.9411 68.7092C72.3242 68.3759 72.3927 67.1758 72.7355 66.7092L74.312 66.5092C75.6828 66.3092 76.9166 65.9091 77.8077 63.7091C78.8358 61.4423 79.7954 58.7756 81.3719 54.7088L86.5812 40.9751C87.9521 37.4416 88.9802 35.4416 88.8431 33.8415C91.5849 33.2415 93.7783 30.4414 93.8468 30.4414C94.6008 30.4414 94.9435 30.7081 95.1491 31.5748C95.6289 33.1748 96.3144 35.3082 97.7538 39.2417L105.636 61.2423C106.87 64.6424 107.35 65.8425 109.475 66.2425L111.668 66.5758C112.011 66.8425 112.148 68.1759 111.6 68.5759C108.858 68.4426 105.705 68.3759 102.689 68.3759C99.8101 68.3759 97.5481 68.4426 94.875 68.5759C94.2581 68.2425 94.121 67.0425 94.7379 66.5758L96.5885 66.3092C97.8909 66.1091 98.165 65.7091 98.165 65.3758C98.165 64.9758 97.7538 63.6424 97.0683 61.5757L95.4918 56.7755C95.2177 55.8422 94.7379 55.7755 92.7501 55.7755H86.5127V55.8422ZM92.6816 52.8421C93.9839 52.8421 94.3266 52.6421 93.8468 51.242L92.3389 46.7086C91.5163 44.3085 90.7624 41.9751 90.2826 40.8417C89.7342 42.1084 88.7746 44.4418 87.8835 47.0419L86.4441 51.1754C85.8958 52.7087 86.2385 52.8421 87.6779 52.8421H92.6816Z" fill="#322D2D"/>
<path fill-rule="evenodd" clip-rule="evenodd" d="M127.433 59.2425C127.433 61.9093 127.639 63.7093 128.393 64.576C129.147 65.5094 130.175 65.9761 134.425 65.9761C139.703 65.9761 141.279 65.7761 144.706 59.3092C145.186 58.7758 146.488 58.9758 146.9 59.6425C146.625 62.576 145.255 67.2428 144.432 68.7095C141.348 68.5761 135.864 68.5095 131.066 68.5095H123.321C120.647 68.5095 117.769 68.5761 114.204 68.7095C113.656 68.3761 113.587 67.1094 113.999 66.7094L116.192 66.4427C118.797 66.0427 119.14 65.6427 119.14 60.4426V39.5752C119.14 34.3751 118.797 33.9751 116.192 33.5084L114.547 33.3084C113.999 32.975 113.999 31.7083 114.684 31.375C117.7 31.5083 120.579 31.575 123.321 31.575C126.062 31.575 129.01 31.5083 131.889 31.375C132.368 31.7083 132.368 32.975 131.889 33.3084L130.381 33.5084C127.776 33.9751 127.433 34.3751 127.433 39.5752V59.2425Z" fill="#322D2D"/>
<path fill-rule="evenodd" clip-rule="evenodd" d="M161.772 46.1088C161.772 47.7088 161.841 47.7755 163.417 47.7755H167.393C170.409 47.7755 171.026 47.3755 171.643 44.7087L171.917 43.3087C172.328 42.842 173.767 42.842 174.042 43.3754C173.905 45.1754 173.836 47.1755 173.836 49.3089C173.836 51.4423 173.905 53.4423 174.042 55.2424C173.767 55.7757 172.328 55.7757 171.917 55.3091L171.643 53.909C171.026 51.2423 170.34 50.7756 167.393 50.7756H163.417C161.841 50.7756 161.772 50.8423 161.772 52.509V59.1758C161.772 61.7759 161.978 63.576 162.663 64.5093C163.417 65.5094 164.514 65.9761 168.695 65.9761C173.699 65.9761 175.687 65.7761 178.84 59.4425C179.319 58.8425 180.759 59.0425 180.964 59.7092C180.759 62.6426 179.319 67.1761 178.565 68.7095C175.481 68.5761 169.929 68.5095 165.2 68.5095H157.728C154.987 68.5095 152.108 68.5761 147.79 68.7095C147.31 68.3761 147.31 67.0428 147.79 66.7094L150.531 66.3094C153.136 65.9761 153.479 65.576 153.479 60.4426V39.5086C153.479 34.3751 153.136 33.9751 150.531 33.5751L149.092 33.3084C148.544 32.975 148.612 31.7083 149.229 31.375C151.971 31.5083 154.781 31.575 157.523 31.575H169.723C173.425 31.575 176.715 31.5083 177.469 31.375C177.537 32.2417 177.949 36.3085 178.223 40.1086C178.017 40.7086 176.646 40.842 176.098 40.3086C175.481 38.3752 174.659 36.6418 173.905 35.8418C172.808 34.7751 171.094 34.1084 168.215 34.1084H163.623C161.704 34.1084 161.704 34.2418 161.704 36.3085V46.1088H161.772Z" fill="#322D2D"/>
<path fill-rule="evenodd" clip-rule="evenodd" d="M188.367 40.5756C188.367 34.9754 188.23 34.3754 185.831 33.9754L184.255 33.7753C183.706 33.5087 183.706 32.1086 184.392 31.8419C188.71 31.5753 193.234 31.3086 198.717 31.3086C203.652 31.3086 207.833 32.042 210.027 33.3087C213.385 35.2421 215.099 38.0422 215.099 41.6423C215.099 46.6425 211.672 48.7759 208.999 50.0426C208.45 50.3093 208.45 50.6426 208.724 51.3093C212.563 58.8429 214.893 63.043 217.704 65.3765C219.212 66.5765 220.72 66.9098 221.542 66.9098C222.09 67.1765 222.09 68.0432 221.748 68.3766C220.857 68.7766 219.006 68.9099 217.155 68.9099C211.809 68.9099 208.519 67.0432 205.983 63.043C204.132 60.0429 202.83 57.3095 201.459 54.3761C200.773 52.8427 199.814 52.376 198.374 52.376C196.387 52.376 196.25 52.5093 196.25 53.576V60.5096C196.25 65.6431 196.592 66.0431 199.197 66.5098L200.773 66.7765C201.185 67.0432 201.185 68.3766 200.773 68.7766C197.689 68.6432 195.084 68.5766 192.274 68.5766C189.395 68.5766 186.859 68.6432 183.843 68.7766C183.363 68.4432 183.363 67.1098 183.843 66.7765L185.42 66.5098C188.024 66.0431 188.367 65.6431 188.367 60.5096V40.5756ZM196.25 47.7092C196.25 49.7092 196.455 49.8426 199.814 49.8426C201.87 49.8426 203.104 49.3092 204.201 48.2425C205.16 47.3092 206.257 45.5091 206.257 42.1756C206.257 37.1088 203.172 33.842 198.717 33.842C196.387 33.842 196.387 34.042 196.25 36.7088V47.7092Z" fill="#322D2D"/>
<path fill-rule="evenodd" clip-rule="evenodd" d="M37.1611 94.6439C37.1611 89.0438 37.024 88.4437 34.625 88.0437L33.0485 87.8437C32.5001 87.577 32.5001 86.177 33.1855 85.9103C37.5038 85.6436 42.0276 85.377 47.5111 85.377C52.4462 85.377 56.6274 86.1103 58.8208 87.377C62.1794 89.3104 63.893 92.1105 63.893 95.7106C63.893 100.711 60.4658 102.844 57.7926 104.111C57.2443 104.378 57.2443 104.711 57.5185 105.378C61.3569 112.911 63.6874 117.111 66.4976 119.445C68.0056 120.645 69.5136 120.978 70.3361 120.978C70.8844 121.245 70.8844 122.112 70.5417 122.445C69.6506 122.845 67.8 122.978 65.9493 122.978C60.6715 122.978 57.3128 121.112 54.7767 117.111C52.926 114.111 51.6237 111.378 50.2529 108.444C49.5674 106.911 48.6078 106.444 47.1684 106.444C45.1806 106.444 45.0436 106.578 45.0436 107.644V114.578C45.0436 119.711 45.3863 120.112 47.9909 120.578L49.5674 120.845C49.9787 121.112 49.9787 122.445 49.5674 122.845C46.483 122.712 43.8783 122.645 41.068 122.645C38.1892 122.645 35.6531 122.712 32.6372 122.845C32.1574 122.512 32.1574 121.178 32.6372 120.845L34.2137 120.578C36.8183 120.112 37.1611 119.711 37.1611 114.578V94.6439ZM45.0436 101.778C45.0436 103.778 45.2492 103.911 48.6078 103.911C50.6641 103.911 51.8979 103.378 52.9946 102.311C53.9542 101.378 55.0509 99.5775 55.0509 96.244C55.0509 91.1772 51.9664 87.9104 47.5111 87.9104C45.1121 87.9104 45.1121 88.1104 45.0436 90.7771V101.778Z" fill="#322D2D"/>
<path fill-rule="evenodd" clip-rule="evenodd" d="M110.914 103.911C110.914 116.178 102.484 123.512 90.0772 123.512C78.4933 123.512 70.0625 116.111 70.0625 104.378C70.0625 93.2439 78.6304 84.6436 90.6941 84.6436C102.689 84.6436 110.914 92.5105 110.914 103.911ZM90.2143 87.2437C83.0857 87.2437 79.3159 93.7106 79.3159 103.044C79.3159 109.911 81.7834 120.912 91.2424 120.912C98.7822 120.912 101.73 113.711 101.73 104.644C101.661 95.044 97.3428 87.2437 90.2143 87.2437Z" fill="#322D2D"/>
<path fill-rule="evenodd" clip-rule="evenodd" d="M167.462 87.7775C166.16 88.1108 165.474 88.5109 165.063 89.0442C164.446 89.9109 163.418 91.711 161.91 95.3111C159.031 101.911 152.588 115.845 149.709 123.179C149.366 123.445 148.544 123.645 147.79 123.645C147.173 123.645 146.625 123.445 146.213 123.179C145.597 121.845 144.774 119.779 144.02 118.245L141.621 112.912C140.798 111.112 140.045 109.445 139.565 108.578C139.016 109.512 138.331 110.912 137.577 112.445L134.835 118.179C133.876 119.979 133.327 121.579 132.436 123.445C132.162 123.712 131.408 123.912 130.517 123.912C129.9 123.912 129.557 123.712 129.009 123.445C128.118 121.112 125.787 116.045 123.8 111.845L114.341 91.7776C112.833 88.3775 112.422 88.0442 110.502 87.7775L109.063 87.5108C108.583 86.9775 108.652 85.8441 109.269 85.5774C111.393 85.7108 113.861 85.7774 116.74 85.7774C119.276 85.7774 121.538 85.7108 123.731 85.5774C124.211 85.7774 124.417 87.1775 123.868 87.5108L122.84 87.7108C121.812 87.9108 121.401 88.1775 121.401 88.5775C121.401 88.9775 122.566 91.5776 124.417 95.5111L130.106 107.912C131.751 111.378 132.299 112.578 132.985 113.912C133.67 112.645 134.63 110.978 135.726 108.445L136.48 106.845C136.892 105.978 137.234 104.711 137.234 104.378C137.234 104.045 137.097 103.445 136.892 102.845L131.34 90.9776C130.037 88.1775 129.626 87.8442 127.433 87.5775L126.884 87.5108C126.336 87.0441 126.404 85.7774 127.09 85.5774C129.557 85.7108 131.819 85.7774 134.355 85.7774C137.303 85.7774 139.496 85.7108 141.004 85.5774C141.69 85.7774 141.621 87.2441 141.21 87.5108L140.25 87.7108C139.565 87.8442 138.674 88.1108 138.674 88.5108C138.674 88.9775 138.948 89.5776 139.222 90.1776L140.936 94.0444C141.484 95.2444 142.032 96.4445 142.581 97.4445C143.129 96.2445 143.746 95.1111 144.294 93.911L144.843 92.7777C145.871 90.6443 146.419 88.9775 146.419 88.6442C146.419 88.2442 146.213 88.1108 145.254 87.8442L143.54 87.4441C143.129 87.0441 143.198 85.7774 143.746 85.5107C145.391 85.6441 147.516 85.7108 149.435 85.7108C151.697 85.7108 153.822 85.6441 155.33 85.5107C155.809 85.7774 155.878 87.1108 155.398 87.5108L153.753 87.8442C151.765 88.2442 151.354 88.4442 149.366 91.8443C147.996 94.1777 146.556 96.7111 145.802 98.1779C145.254 99.1779 144.5 100.845 144.5 101.111C144.5 101.311 144.568 101.645 144.98 102.511L147.721 108.178C149.092 111.312 149.915 112.912 150.257 113.712C152.999 107.178 155.741 100.245 158.483 93.3777C158.894 92.4443 160.059 89.2442 160.059 88.5775C160.059 88.1775 159.716 87.9775 158.962 87.7775L157.66 87.4441C157.18 86.9108 157.317 85.7774 157.866 85.5107C159.716 85.6441 162.047 85.7108 163.761 85.7108C165.748 85.7108 167.462 85.6441 169.038 85.5107C169.587 85.7774 169.587 87.0441 169.244 87.4441L167.462 87.7775Z" fill="#322D2D"/>
<path fill-rule="evenodd" clip-rule="evenodd" d="M206.189 113.112C206.189 116.778 206.189 120.312 206.326 122.179C205.915 122.845 204.338 123.445 202.899 123.445C202.83 123.445 200.911 120.579 198.238 117.312L184.872 101.244C181.582 97.1777 179.594 94.9109 178.566 94.0442C178.292 94.5776 178.292 95.5776 178.292 97.6443V108.511C178.292 113.045 178.497 117.245 179.183 118.778C179.731 119.979 181.033 120.312 182.541 120.579L184.186 120.779C184.666 121.245 184.529 122.379 184.186 122.779C181.033 122.645 178.771 122.579 176.441 122.579C174.316 122.579 172.191 122.645 169.998 122.779C169.655 122.445 169.518 121.245 169.998 120.779L170.958 120.579C172.534 120.245 173.631 119.912 174.111 118.712C174.659 117.178 174.933 112.978 174.933 108.445V94.1775C174.933 91.1108 174.933 90.1774 174.522 89.3774C174.111 88.444 173.288 87.844 171.232 87.444L169.587 87.244C169.175 86.7773 169.244 85.4439 169.792 85.3105C172.534 85.4439 175.413 85.5106 177.743 85.5106C179.731 85.5106 181.376 85.4439 182.61 85.3105C183.158 87.844 186.928 92.1108 192.137 98.111L197.004 103.645C199.609 106.578 201.185 108.511 202.556 109.845C202.762 109.311 202.762 108.311 202.762 107.311V99.5777C202.762 95.0442 202.556 90.8441 201.871 89.3107C201.322 88.1107 200.089 87.7773 198.512 87.5106L196.936 87.3106C196.456 86.8439 196.593 85.7106 196.936 85.3772C200.02 85.5106 202.282 85.5772 204.681 85.5772C206.806 85.5772 208.862 85.5106 211.124 85.3772C211.467 85.7106 211.604 86.9106 211.124 87.3106L210.096 87.5106C208.588 87.844 207.491 88.1773 206.943 89.3774C206.326 90.9108 206.052 95.1109 206.052 99.6444V113.112H206.189Z" fill="#322D2D"/>
<path fill-rule="evenodd" clip-rule="evenodd" d="M227.163 100.177C227.163 101.777 227.232 101.844 228.808 101.844H232.784C235.799 101.844 236.416 101.444 237.033 98.7772L237.307 97.3771C237.719 96.9105 239.158 96.9104 239.432 97.4438C239.295 99.2439 239.227 101.244 239.227 103.377C239.227 105.511 239.295 107.511 239.432 109.311C239.158 109.844 237.719 109.844 237.307 109.378L237.033 107.978C236.416 105.311 235.731 104.844 232.784 104.844H228.808C227.232 104.844 227.163 104.911 227.163 106.577V113.244C227.163 115.844 227.369 117.645 228.123 118.578C228.877 119.578 229.973 120.045 234.154 120.045C239.158 120.045 241.146 119.845 244.299 113.511C244.779 112.911 246.218 113.111 246.424 113.778C246.218 116.711 244.779 121.245 244.025 122.778C240.94 122.645 235.388 122.578 230.659 122.578H223.119C220.377 122.578 217.498 122.645 213.18 122.778C212.7 122.445 212.7 121.111 213.18 120.778L215.922 120.378C218.527 120.045 218.869 119.645 218.869 114.511V93.577C218.869 88.4435 218.527 88.0435 215.922 87.6434L214.482 87.3768C213.934 87.0434 214.003 85.7767 214.62 85.4434C217.361 85.5767 220.172 85.6434 222.913 85.6434H235.183C238.884 85.6434 242.174 85.5767 242.928 85.4434C242.997 86.3101 243.408 90.3769 243.682 94.177C243.476 94.777 242.105 94.9104 241.557 94.377C240.94 92.4436 240.118 90.7102 239.364 89.9102C238.267 88.8435 236.553 88.1768 233.743 88.1768H229.014C227.094 88.1768 227.094 88.3101 227.094 90.3769V100.177H227.163Z" fill="#322D2D"/>
<path fill-rule="evenodd" clip-rule="evenodd" d="M267.604 114.578C267.604 119.778 267.947 120.178 270.552 120.578L272.882 120.845C273.293 121.178 273.293 122.445 272.882 122.845C269.112 122.711 266.302 122.645 263.492 122.645C260.75 122.645 257.803 122.711 254.444 122.845C253.964 122.511 253.964 121.245 254.444 120.845L256.432 120.578C259.036 120.178 259.379 119.778 259.379 114.578V111.711C259.379 108.911 259.31 107.978 257.803 105.044L250.948 91.2436C249.783 88.9102 249.303 88.1101 247.247 87.7101L245.259 87.3768C244.711 86.9101 244.779 85.5767 245.465 85.4434C248.069 85.5767 250.194 85.6434 253.621 85.6434C257.117 85.6434 260.064 85.5767 262.052 85.4434C262.601 85.6434 262.669 86.9767 262.189 87.3768L260.202 87.8434C259.173 88.0435 258.831 88.3101 258.831 88.3768C258.831 88.8435 259.105 89.6435 260.339 92.3103L263.08 98.3105C263.971 100.177 265.068 102.377 265.754 103.844C267.399 101.111 269.044 97.8438 270.62 94.977C272.814 90.9769 273.636 89.1102 273.636 88.4435C273.636 88.1101 273.088 87.9101 271.648 87.6434L270.346 87.4434C269.866 87.1768 269.798 85.7767 270.414 85.51C272.745 85.6434 274.801 85.71 276.858 85.71C279.051 85.71 280.833 85.6434 282.547 85.51C283.232 85.71 283.232 87.1101 282.752 87.4434L281.244 87.7101C280.216 87.9101 279.119 88.2435 278.503 89.0435C277.612 90.1102 276.172 92.1103 273.43 97.0438L269.798 103.444C268.29 106.111 267.741 107.511 267.741 110.711V114.578H267.604Z" fill="#322D2D"/>
<path fill-rule="evenodd" clip-rule="evenodd" d="M227.986 50.6422L266.096 25.708L304.207 50.6422L266.096 75.5098L227.986 50.6422Z" fill="#009846"/>
<path fill-rule="evenodd" clip-rule="evenodd" d="M237.102 50.5763L266.095 31.709L295.089 50.5763L266.095 69.5103L237.102 50.5763Z" stroke="#FEFEFE" stroke-width="0.9798" stroke-miterlimit="3.864"/>
<path fill-rule="evenodd" clip-rule="evenodd" d="M237.102 50.5763L266.095 31.709L295.089 50.5763L266.095 69.5103L237.102 50.5763Z" stroke="#FEFEFE" stroke-width="1.1619" stroke-miterlimit="3.864"/>
</svg>
