<svg width="317" height="156" viewBox="0 0 317 156" fill="none" xmlns="http://www.w3.org/2000/svg">
<rect x="0.15625" y="0.384766" width="316.788" height="155.615" rx="14" fill="#E1E1E1"/>
<g clip-path="url(#clip0)">
<path d="M71.8478 98.5567C69.5457 98.6647 67.137 98.4055 64.7283 98.5567C63.9183 98.5999 63.3002 98.9887 62.9804 99.8096C62.4901 101.019 62.1278 102.294 61.3178 103.352C60.8701 103.957 60.4225 104.562 59.7191 104.886C58.8664 105.275 58.1843 104.972 57.7793 104.108C57.4383 103.374 57.3317 102.575 56.9906 101.84C56.6922 101.149 56.2019 100.717 55.6477 100.803C55.0296 100.89 54.5606 101.451 54.4967 102.186C54.4114 102.942 54.6246 103.655 54.9017 104.346C55.1575 105.016 55.3919 105.685 55.5198 106.398C55.8822 108.623 53.8359 109.53 52.3438 109.185C51.4272 108.99 50.6385 108.515 49.9137 107.932C48.3577 106.722 47.2279 105.124 46.0129 103.611C44.5635 101.775 43.0713 99.9824 41.2382 98.5135C39.7461 97.3038 37.9981 96.699 36.2076 96.1589C35.5042 95.9429 34.7581 95.8133 34.0973 95.4461C33.2021 94.9492 33.1168 94.258 33.8202 93.5019C34.481 92.8107 35.3337 92.4219 36.165 91.9898C36.5487 91.7954 36.975 91.6226 37.2734 91.277C37.4866 91.0394 37.4652 90.8666 37.2734 90.6505C36.8897 90.2401 36.3355 90.1105 35.8666 89.8297C35.4189 89.5705 34.9713 89.3544 34.5876 89.0088C33.8842 88.3608 33.6923 87.7343 34.2039 86.9351C34.8434 85.9198 34.7155 84.991 34.2039 83.9973C33.0529 81.7723 33.671 80.3898 35.3763 78.8777C37.4652 77.0416 39.5542 75.2055 41.3874 73.0885C41.5579 72.8941 41.6219 72.6781 41.7498 72.4837C41.899 72.2677 41.9203 72.0085 41.7284 71.814C41.5366 71.6412 41.2808 71.6628 41.0676 71.814C40.5987 72.1597 40.1297 72.5053 39.6821 72.8725C39.3837 73.1101 39.0639 73.2829 38.7229 73.4558C38.1687 73.7366 37.6997 73.391 37.4439 72.6133C37.1029 71.5548 36.9537 70.4748 36.8684 69.3731C36.7405 67.9474 36.5913 66.5217 36.6339 65.096C36.6766 63.5407 36.8471 61.9854 37.1668 60.4517C37.4866 58.8964 37.9129 57.4059 38.531 55.9586C39.341 54.036 40.4708 52.3295 41.8563 50.7958C43.6256 48.8517 45.7145 47.3828 47.9953 46.2595C50.1056 45.2226 52.3438 44.5962 54.6885 44.2938C56.7135 44.0129 58.7385 44.1642 60.7422 44.0778C62.5541 44.0129 64.3446 43.7537 66.0712 43.1057C67.4568 42.5872 68.757 41.8528 70.1426 41.2912C71.1444 40.9023 72.1463 40.5351 73.2121 40.5135C73.276 40.5135 73.3613 40.4919 73.4252 40.5135C73.7236 40.5783 74.1073 40.5999 74.2352 40.9455C74.3631 41.2912 74.0434 41.4856 73.8302 41.6584C73.1055 42.2632 72.2742 42.7601 71.6134 43.4729C70.1426 45.0714 69.2686 46.9075 69.6736 49.1757C70.036 51.271 71.8692 52.5455 73.7236 52.8047C74.0647 52.848 74.4058 52.8912 74.7255 52.9344C75.1518 52.9992 75.301 53.2368 75.1518 53.6688C74.9173 54.3385 74.6402 55.0081 74.4271 55.6993C73.7023 58.0755 74.1286 60.1925 76.2176 61.791C76.4521 61.9854 76.7079 62.1798 76.921 62.3742C77.1129 62.547 77.3474 62.7414 77.2195 63.0655C77.0916 63.3679 76.7931 63.3031 76.5587 63.3247C75.8126 63.3679 75.1092 63.5623 74.5976 64.1455C74.086 64.7288 73.6171 65.312 73.1481 65.9384C72.8284 66.3705 72.5299 66.8457 72.2528 67.2993C71.6986 68.2498 71.9544 69.1139 72.8923 69.6323C73.2121 69.8051 73.5531 69.9779 73.8729 70.1723C74.8108 70.7124 75.0026 71.5116 74.3418 72.3973C73.6171 73.391 72.5939 74.0822 71.6773 74.8599C71.2297 75.2487 70.7607 75.6159 70.3131 76.0047C69.4178 76.7824 69.1407 77.7329 69.6097 78.8561C69.9934 79.8066 70.2705 80.8003 70.441 81.8155C70.6968 83.2628 70.8034 84.7533 70.9313 86.2222C71.0805 88.0368 71.251 89.8513 71.3789 91.6658C71.4642 92.8107 71.5281 93.9556 71.7199 95.1004C71.9118 96.2885 72.5086 97.1094 73.6384 97.5198C73.7236 97.5414 73.8302 97.5414 73.8729 97.5846C74.0647 97.7574 74.4271 97.8006 74.3844 98.103C74.3418 98.3839 74.0008 98.3407 73.7876 98.4055C73.2547 98.5783 72.6152 98.5567 71.8478 98.5567ZM72.0397 57.4059C72.061 55.8722 71.4215 54.7489 70.2065 53.9928C69.6097 53.6256 69.1407 53.8848 69.0555 54.5977C69.0128 55.0081 69.0555 55.4185 69.162 55.829C69.2899 56.2826 69.2899 56.7146 69.0981 57.1898C68.821 57.8379 68.3733 58.3563 68.0962 58.9828C67.8191 59.6092 67.542 60.2141 67.8618 60.9485C68.1815 61.6614 68.7783 62.0286 69.3326 62.4606C69.7589 62.8062 70.1852 63.1519 70.1639 63.7999C70.1639 64.4479 69.6523 64.7504 69.2473 65.096C68.6931 65.5496 68.011 65.8304 67.5207 66.3705C66.8812 67.0401 66.9025 67.537 67.5633 68.185C67.9257 68.5522 68.3307 68.7682 68.7997 68.5306C69.2047 68.3362 69.226 67.8826 69.1833 67.4938C69.1194 66.6513 69.4818 66.0897 70.1639 65.6144C70.9099 65.096 71.7413 64.7504 72.4021 64.0807C72.9989 63.4759 72.9989 63.0006 72.4021 62.4174C72.2315 62.2446 72.0397 62.0934 71.8692 61.9422C71.5494 61.6614 71.4002 61.2941 71.3789 60.9053C71.3576 60.3221 71.4855 59.7604 71.656 59.1988C71.8478 58.5723 72.0823 57.9891 72.0397 57.4059ZM55.1148 75.3783C55.4772 75.3135 55.9035 75.2271 56.3298 75.1623C57.1825 75.0111 57.8859 74.579 58.3975 73.8662C58.9304 73.1317 59.0583 72.2677 59.1435 71.382C59.2075 70.8204 59.3354 70.2587 59.5699 69.7403C59.9536 68.8978 60.7209 68.5522 61.5309 68.3146C62.1704 68.1202 62.8099 67.9258 63.4281 67.7098C64.8988 67.1913 65.4531 65.9816 65.7728 64.5992C65.8368 64.2751 65.986 63.9511 65.9433 63.5839C65.922 63.4327 65.8794 63.3031 65.7515 63.2599C65.5596 63.1735 65.517 63.3247 65.4531 63.4543C65.2825 63.7783 65.112 64.0807 64.9415 64.4047C64.5578 65.204 64.0675 65.8952 63.1723 66.1545C62.0851 66.4569 60.998 66.6945 59.9109 66.9969C58.7385 67.3209 57.8433 67.969 57.4809 69.2435C57.2251 70.1291 57.2038 71.0148 57.2038 71.9005C57.2038 72.9589 56.7775 73.7582 55.8609 74.2766C55.5412 74.4494 55.1575 74.5358 54.8164 74.687C54.6246 74.7735 54.3048 74.8167 54.3475 75.0759C54.3901 75.2703 54.6672 75.3351 54.8804 75.3999C54.9443 75.3783 55.0083 75.3567 55.1148 75.3783ZM52.2798 63.3031C52.2798 63.1087 52.2798 62.9142 52.2798 62.7414C52.2798 62.4822 52.2372 62.223 51.9601 62.1582C51.7043 62.0934 51.5977 62.3526 51.4698 62.5254C51.1501 63.0871 50.8303 63.6487 50.5106 64.2103C49.1677 66.5649 47.569 68.7466 46.1195 71.0148C45.4161 72.1165 44.7127 73.2397 44.1798 74.4494C44.0945 74.6222 44.0519 74.7519 44.2224 74.9031C44.3716 75.0327 44.5421 75.0327 44.6913 74.9031C44.8406 74.7735 44.9898 74.6654 45.0964 74.5142C46.1195 73.2181 47.0361 71.8573 48.2511 70.734C49.1464 69.8915 50.1056 69.0923 50.8943 68.1418C52.024 66.7593 52.1946 65.0528 52.2798 63.3031ZM55.264 78.2513C55.328 78.9641 55.6051 79.569 56.0101 80.1306C56.607 80.9299 57.353 81.5779 58.1204 82.2044C58.8451 82.7876 59.378 83.4788 59.2928 84.4725C59.2714 84.6453 59.3141 84.8181 59.4846 84.9261C59.6978 85.0342 59.847 84.8829 59.9749 84.7749C60.8915 84.0621 60.9341 83.0468 60.9128 82.0315C60.8915 81.3187 60.6143 80.6707 60.2733 80.0442C59.9749 79.4826 59.7191 78.9209 59.442 78.3377C59.3354 78.1217 59.1862 77.9057 58.9091 77.9489C58.5893 77.9921 58.5467 78.2945 58.5467 78.5537C58.5467 78.9641 58.5254 79.3746 58.7599 79.7634C58.8878 79.9794 58.973 80.2386 58.7812 80.433C58.5467 80.6707 58.3122 80.4546 58.1417 80.325C57.5022 79.8498 56.9267 79.2666 56.4577 78.6185C56.2872 78.3809 56.0741 78.1865 55.8396 77.9921C55.7117 77.8841 55.5838 77.7977 55.4133 77.9057C55.2854 77.9705 55.2854 78.1433 55.264 78.2513ZM59.847 76.0479C60.0601 76.0263 60.2307 76.0047 60.3799 75.9831C61.808 75.8535 62.8738 75.2055 63.3428 73.7798C63.7052 72.6997 64.2381 71.9005 65.4104 71.6412C65.922 71.5332 66.3057 71.1012 66.5189 70.5828C66.5828 70.41 66.6468 70.1939 66.4549 70.0643C66.3057 69.9563 66.1565 70.0643 66.0499 70.1723C65.6875 70.4964 65.2399 70.6692 64.7496 70.7124C64.1954 70.7772 63.6199 70.7772 63.1083 70.9932C62.2557 71.3388 61.808 72.0733 61.6162 72.9589C61.4457 73.823 61.1046 74.5142 60.188 74.7735C60.0175 74.8167 59.847 74.8383 59.6978 74.9247C59.3567 75.1191 58.7385 75.1191 58.7812 75.5943C58.8664 76.1559 59.5272 75.8967 59.847 76.0479ZM54.518 83.3924C54.6246 82.4636 54.0277 81.8371 53.4309 81.2323C53.2177 81.0163 52.9619 80.6491 52.6848 80.8003C52.3438 80.9947 52.5996 81.4051 52.6848 81.6859C52.834 82.1828 52.9619 82.7012 52.7914 83.198C52.5996 83.8029 52.3651 84.3861 52.1306 84.991C51.7043 86.1358 51.4911 87.2591 52.3011 88.3176C52.493 88.5768 52.6848 88.9656 53.0259 88.8792C53.3882 88.7928 53.3456 88.3392 53.3669 88.0368C53.3882 87.2807 53.5801 86.5895 53.8785 85.8982C54.1983 85.1422 54.5393 84.3429 54.518 83.3924ZM58.0777 59.89C58.0564 59.458 57.6514 59.2636 57.2251 59.458C56.4577 59.8036 55.8396 60.3221 55.3067 60.9485C54.3901 62.007 54.0064 63.3031 53.644 64.5992C53.5801 64.7936 53.4096 65.0312 53.6867 65.204C53.9211 65.3552 54.0917 65.1392 54.2622 64.988C55.5412 63.9727 56.6496 62.8062 57.4383 61.3373C57.6727 60.8621 57.9712 60.3869 58.0777 59.89ZM63.5986 56.909C63.1296 56.909 62.7459 57.1034 62.3409 57.2115C60.7422 57.6435 59.7404 58.702 59.2501 60.2789C59.1862 60.4733 59.1222 60.7109 59.3567 60.8405C59.5912 60.9917 59.7404 60.7757 59.8683 60.6461C60.6143 59.89 61.467 59.2636 62.3409 58.6588C62.8525 58.3131 63.3854 58.0323 63.8331 57.6003C63.9609 57.4707 64.1315 57.3195 64.0462 57.1034C63.9609 56.8658 63.7478 56.9306 63.5986 56.909Z" fill="#980101"/>
<path d="M64.1741 113.18C63.0869 113.353 61.744 113.18 60.4011 113.008C59.1648 112.835 57.9285 112.619 56.8201 111.971C56.5643 111.82 56.2872 111.647 56.3511 111.301C56.4364 110.912 56.7774 110.999 57.0759 110.999C57.2464 110.999 57.4169 111.02 57.5874 111.063C59.5059 111.582 61.4669 111.69 63.4067 111.452C66.2417 111.107 68.6291 109.832 70.5688 107.65C71.9117 106.117 72.9775 104.453 73.7876 102.574C74.0647 101.948 74.4057 101.364 74.8107 100.803C75.2157 100.263 75.6634 100.068 76.1749 100.22C76.5799 100.328 76.9849 100.997 77.0063 101.537C77.0276 102.228 76.9849 102.92 77.1981 103.568C77.3686 104.086 77.6457 104.151 78.0721 103.827C78.4344 103.568 78.6689 103.157 79.0313 102.92C79.2657 102.769 79.4789 102.704 79.7347 102.812C80.0118 102.941 79.9692 103.201 79.9692 103.438C79.9905 104.389 79.4789 105.145 79.01 105.879C77.7097 107.888 75.8765 109.271 73.8515 110.415C72.0823 111.409 70.2491 112.208 68.288 112.684C67.0517 112.986 65.7301 113.137 64.1741 113.18Z" fill="#9A0303"/>
<path d="M79.6069 72.0518C80.694 71.987 80.8432 72.1166 81.1416 73.0455C81.8664 75.3136 82.3566 77.6466 83.0174 79.9363C83.2945 80.9084 83.529 81.8805 83.8061 82.8525C83.8914 83.1766 83.8701 83.5006 83.9127 83.8246C84.0619 84.8831 82.8256 85.3799 82.1435 84.9695C81.8664 84.7967 81.5466 84.6455 81.2482 84.5159C80.6087 84.235 80.0971 84.4295 79.5856 84.7751C78.7969 85.3151 78.0508 85.9416 77.1342 86.3088C76.4308 86.568 75.9832 86.2872 75.9192 85.5311C75.8553 84.8831 76.1537 84.3215 76.3455 83.7598C76.7079 82.7877 77.049 81.7941 77.2621 80.7788C77.4113 80.0228 76.985 79.4179 76.5587 78.8779C76.3668 78.6187 76.1111 78.4026 75.8979 78.165C75.6847 77.9274 75.5995 77.7114 75.9192 77.4738C76.1111 77.3226 76.1537 77.1282 76.0045 76.9337C75.7913 76.6745 75.9192 76.4801 76.0471 76.2857C76.3455 75.8321 76.5587 75.3784 76.58 74.8168C76.6013 74.5144 76.7079 74.2552 77.0063 74.1039C77.3474 73.9095 77.3261 73.6935 77.0063 73.4775C76.8997 73.4127 76.8145 73.3479 76.7079 73.2615C76.4947 73.0887 76.4734 72.8943 76.7292 72.7215C77.0916 72.4622 77.5179 72.3542 77.9229 72.2894C78.4771 72.2246 79.074 71.9438 79.6069 72.0518Z" fill="#9A0303"/>
<path d="M89.8814 33.7521C91.4588 33.7521 93.0575 33.7521 94.6348 33.7521C94.9546 33.7521 95.0825 33.8169 95.0825 34.1625C95.0612 37.1651 95.0612 40.1677 95.0825 43.1703C95.0825 43.4943 95.0185 43.6455 94.6775 43.6239C93.8248 43.6023 92.9722 43.6023 92.1196 43.6239C91.6719 43.6239 91.4801 43.4727 91.5014 42.9975C91.544 41.183 91.4588 39.3685 91.544 37.5755C91.5653 37.1867 91.3095 37.2731 91.0964 37.2731C89.178 37.2731 87.2382 37.2515 85.3198 37.2731C84.8295 37.2731 84.659 37.1651 84.7016 36.6467C84.7442 35.869 84.7442 35.0914 84.7016 34.3137C84.6803 33.8817 84.7656 33.7305 85.2558 33.7305C86.7906 33.7737 88.3253 33.7521 89.8814 33.7521Z" fill="#9A0303"/>
<path d="M89.8816 118.948C88.3256 118.948 86.7908 118.927 85.2348 118.948C84.8724 118.948 84.7871 118.84 84.7871 118.495C84.8084 117.695 84.8084 116.874 84.7871 116.054C84.7658 115.622 84.915 115.492 85.3413 115.492C87.1745 115.514 89.029 115.492 90.8622 115.514C91.3311 115.514 91.4803 115.406 91.459 114.909C91.4377 113.116 91.459 111.323 91.4377 109.53C91.4377 109.184 91.523 109.033 91.8853 109.055C92.8232 109.076 93.7611 109.076 94.699 109.055C94.9975 109.055 95.0614 109.163 95.0614 109.444C95.0614 112.489 95.0614 115.557 95.0614 118.603C95.0614 118.927 94.9335 118.97 94.6777 118.97C93.079 118.948 91.4803 118.948 89.8816 118.948Z" fill="#980101"/>
<path d="M30.2402 33.7532C31.7963 33.7532 33.331 33.7532 34.8871 33.7532C35.2068 33.7532 35.3347 33.818 35.3347 34.1852C35.3134 35.0709 35.3134 35.9349 35.3347 36.8206C35.3347 37.1878 35.2068 37.2742 34.8658 37.2742C32.9047 37.2526 30.9436 37.2742 28.9826 37.2526C28.5989 37.2526 28.5136 37.339 28.5136 37.7495C28.5562 39.5424 28.5136 41.3353 28.5349 43.1282C28.5349 43.5171 28.3857 43.6467 28.0233 43.6467C27.192 43.6251 26.3607 43.6251 25.5294 43.6467C25.2523 43.6467 25.1883 43.5603 25.1883 43.2794C25.1883 40.212 25.1883 37.1446 25.1883 34.0772C25.167 33.7316 25.3375 33.7532 25.572 33.7532C27.1281 33.7532 28.6841 33.7532 30.2402 33.7532Z" fill="#9A0303"/>
<path d="M30.1539 118.948C28.6405 118.948 27.1271 118.927 25.6137 118.948C25.2513 118.948 25.166 118.862 25.166 118.495C25.1873 115.492 25.1873 112.489 25.166 109.487C25.166 109.184 25.2086 109.033 25.571 109.033C26.4023 109.055 27.2337 109.055 28.065 109.033C28.4274 109.033 28.5552 109.141 28.5552 109.53C28.5339 111.323 28.5552 113.116 28.5339 114.909C28.5339 115.362 28.6405 115.514 29.1095 115.492C30.9426 115.47 32.7971 115.492 34.6303 115.47C35.0992 115.47 35.2058 115.622 35.1845 116.054C35.1419 116.831 35.1419 117.609 35.1845 118.387C35.2058 118.84 35.0566 118.927 34.6516 118.905C33.1595 118.927 31.6674 118.948 30.1539 118.948Z" fill="#980101"/>
<path d="M106.337 101.256C104.589 101.256 102.82 101.235 101.072 101.278C100.646 101.278 100.582 101.148 100.582 100.76C100.603 98.0594 100.603 95.3377 100.582 92.6375C100.582 92.2703 100.646 92.1406 101.051 92.1406C101.882 92.1838 101.882 92.1406 101.882 93.0263C101.882 95.1649 101.882 97.3034 101.882 99.4419C101.882 99.7876 101.925 99.9604 102.33 99.9388C103.268 99.8956 104.206 99.8956 105.144 99.9388C105.549 99.9604 105.613 99.7876 105.591 99.4419C105.57 97.1738 105.591 94.9272 105.57 92.6591C105.57 92.2487 105.677 92.1406 106.082 92.1406C106.892 92.1622 106.892 92.1406 106.892 92.9399C106.892 95.1217 106.892 97.2818 106.892 99.4635C106.892 99.8092 106.956 99.9388 107.339 99.9172C108.341 99.8956 109.343 99.8956 110.345 99.9172C110.728 99.9172 110.835 99.8308 110.835 99.4419C110.814 97.1738 110.835 94.9272 110.814 92.6591C110.814 92.2054 110.942 92.0758 111.347 92.1406C111.496 92.1622 111.645 92.1622 111.816 92.1406C112.05 92.119 112.135 92.2054 112.135 92.4431C112.135 95.2729 112.114 98.1027 112.135 100.932C112.135 101.3 111.943 101.256 111.709 101.256C109.918 101.256 108.128 101.256 106.337 101.256Z" fill="#9A0303"/>
<path d="M159.051 80.5411C159.051 81.5996 159.03 82.5716 159.051 83.5437C159.051 83.8893 158.966 83.9757 158.625 83.9757C157.73 83.9541 157.73 83.9757 157.73 83.0469C157.73 82.2476 157.73 81.47 157.73 80.6491C157.367 80.7139 157.133 80.9299 156.856 81.0811C156.067 81.5132 155.3 81.9884 154.49 82.3988C154.042 82.6148 153.872 82.8957 153.936 83.3925C153.957 83.5653 154.063 83.9109 153.85 83.9541C153.467 84.0189 153.083 83.9541 152.699 83.9325C152.678 83.9325 152.657 83.8461 152.657 83.8029C152.657 83.7381 152.657 83.6733 152.657 83.5869C152.657 83.0469 152.486 82.3772 152.721 81.9668C152.934 81.578 153.573 81.4052 154.042 81.1459C155.023 80.5843 156.024 80.0227 157.09 79.4394C156.323 79.0074 155.619 78.597 154.916 78.2081C154.298 77.8625 153.68 77.4953 153.04 77.1713C152.742 77.0201 152.614 76.8257 152.657 76.48C152.678 76.1992 152.657 75.9184 152.657 75.6592C152.657 74.8815 152.657 74.9031 153.424 74.8599C153.936 74.8167 154.042 75.0327 153.957 75.4648C153.872 75.9832 154.085 76.264 154.532 76.5016C155.598 77.0633 156.643 77.6681 157.751 78.2946C157.751 77.2793 157.772 76.3288 157.751 75.4C157.751 75.0327 157.794 74.8599 158.241 74.8815C159.073 74.9247 159.073 74.8815 159.073 75.7672C159.073 76.588 159.073 77.4305 159.073 78.2946C159.499 78.1649 159.84 77.9057 160.202 77.7113C160.906 77.3225 161.588 76.8905 162.313 76.5448C162.782 76.3288 162.952 76.0264 162.909 75.508C162.888 75.3135 162.76 74.9895 163.037 74.9247C163.4 74.8599 163.783 74.9031 164.146 74.9247C164.167 74.9247 164.188 75.0111 164.21 75.0543C164.231 75.1191 164.21 75.1839 164.21 75.2703C164.21 75.832 164.38 76.5016 164.146 76.9553C163.933 77.3657 163.272 77.5385 162.803 77.8193C161.865 78.3594 160.906 78.8994 159.968 79.4394C159.947 79.4394 159.947 79.461 159.904 79.5258C160.479 79.8499 161.055 80.1955 161.652 80.5195C162.419 80.9515 163.165 81.3836 163.933 81.794C164.146 81.9236 164.252 82.0532 164.252 82.3124C164.231 82.7877 164.231 83.2413 164.252 83.7165C164.252 83.9325 164.231 84.0405 163.954 84.0621C162.952 84.1053 162.952 84.1053 162.931 83.1117C162.931 82.9389 162.952 82.7877 162.76 82.6797C161.481 81.9236 160.288 81.2324 159.051 80.5411Z" fill="#9A0303"/>
<path d="M164.978 44.8555C164.978 43.4946 164.999 42.1337 164.978 40.7728C164.978 40.4272 165.063 40.3408 165.404 40.3408C167.408 40.3624 169.411 40.3408 171.436 40.3624C172.502 40.3624 173.248 40.9025 173.717 41.8313C174.165 42.7602 174.122 43.689 173.525 44.5099C173.291 44.8339 173.227 45.0283 173.504 45.374C174.122 46.1732 174.186 47.1021 173.738 47.9877C173.291 48.895 172.545 49.4134 171.543 49.435C169.475 49.4782 167.429 49.435 165.361 49.4566C165.063 49.4566 164.999 49.3702 164.999 49.0894C164.978 47.6853 164.978 46.2596 164.978 44.8555ZM169.07 41.7233C168.26 41.7233 167.429 41.7233 166.619 41.7233C166.406 41.7233 166.256 41.7449 166.278 42.0257C166.299 42.6954 166.299 43.365 166.278 44.0347C166.278 44.2291 166.342 44.2939 166.534 44.2939C168.175 44.2939 169.795 44.2939 171.436 44.2723C172.182 44.2507 172.651 43.6674 172.63 42.933C172.609 42.2417 172.076 41.7233 171.372 41.7233C170.605 41.7017 169.838 41.7233 169.07 41.7233ZM169.006 48.1174C169.816 48.0958 170.648 48.139 171.458 48.0958C172.182 48.0525 172.673 47.4909 172.63 46.7997C172.609 46.1516 172.076 45.6548 171.351 45.6548C169.774 45.6548 168.218 45.6548 166.64 45.6332C166.32 45.6332 166.235 45.7412 166.256 46.0436C166.278 46.6052 166.278 47.1453 166.256 47.7069C166.235 48.0741 166.384 48.1174 166.683 48.1174C167.471 48.0958 168.239 48.1174 169.006 48.1174Z" fill="#9A0303"/>
<path d="M208.249 74.8379C209.229 74.8379 210.188 74.8379 211.169 74.8379C212.256 74.8379 213.023 75.3779 213.492 76.3284C213.961 77.3005 213.876 78.2509 213.215 79.0934C213.002 79.3742 212.981 79.5038 213.215 79.7846C213.855 80.5839 213.961 81.5128 213.514 82.4416C213.066 83.3921 212.277 83.9105 211.233 83.9321C209.208 83.9537 207.183 83.9321 205.158 83.9537C204.86 83.9537 204.753 83.8889 204.753 83.5649C204.774 80.7999 204.774 78.0133 204.753 75.2483C204.753 74.8811 204.86 74.8379 205.179 74.8379C206.202 74.8379 207.226 74.8379 208.249 74.8379ZM208.803 76.1988C207.993 76.1988 207.204 76.1988 206.394 76.1988C206.16 76.1988 206.053 76.2636 206.053 76.5012C206.075 77.1493 206.075 77.8189 206.053 78.4669C206.053 78.683 206.096 78.7694 206.33 78.7694C207.95 78.7478 209.57 78.7694 211.169 78.7478C211.936 78.7262 212.427 78.1429 212.405 77.3869C212.384 76.6956 211.83 76.1988 211.062 76.1988C210.338 76.1988 209.57 76.1988 208.803 76.1988ZM208.824 80.1303C208.014 80.1303 207.226 80.1303 206.416 80.1303C206.16 80.1303 206.032 80.1735 206.053 80.4543C206.075 81.0807 206.075 81.6856 206.053 82.312C206.053 82.5064 206.096 82.5928 206.309 82.5928C207.95 82.5712 209.57 82.5928 211.212 82.5712C211.958 82.5496 212.427 81.988 212.405 81.2967C212.384 80.6271 211.851 80.1303 211.105 80.1303C210.359 80.1303 209.592 80.1303 208.824 80.1303Z" fill="#9A0303"/>
<path d="M109.364 42.9327C108.149 44.7256 106.934 46.497 105.676 48.3547C104.419 46.5186 103.182 44.6824 101.861 42.7599C101.861 43.0623 101.861 43.2135 101.861 43.3863C101.861 45.2657 101.861 47.145 101.861 49.0243C101.861 49.37 101.797 49.4996 101.434 49.4996C100.539 49.478 100.539 49.4996 100.539 48.5923C100.539 46.0001 100.539 43.4079 100.539 40.8374C100.539 40.4917 100.624 40.4053 100.965 40.3621C101.626 40.2973 102.031 40.5349 102.394 41.1182C103.353 42.6303 104.376 44.0776 105.378 45.5465C105.463 45.6761 105.548 45.7841 105.676 45.9569C106.742 44.4016 107.765 42.8679 108.81 41.3342C108.874 41.2478 108.938 41.1614 108.98 41.075C109.236 40.4269 109.726 40.2973 110.366 40.3405C110.728 40.3621 110.813 40.4485 110.813 40.8158C110.792 43.1703 110.813 45.5465 110.813 47.9011C110.813 48.1171 110.813 48.3547 110.813 48.5707C110.813 49.478 110.813 49.4564 109.897 49.478C109.556 49.478 109.47 49.3916 109.47 49.0459C109.492 47.2098 109.47 45.3521 109.47 43.516C109.47 43.3215 109.47 43.1487 109.47 42.9543C109.449 42.9543 109.406 42.9327 109.364 42.9327Z" fill="#9A0303"/>
<path d="M131.022 83.9538C129.252 83.9538 127.483 83.9538 125.714 83.9538C125.373 83.9538 125.245 83.8674 125.309 83.5218C125.309 83.4786 125.309 83.4138 125.309 83.3706C125.309 82.5929 125.309 82.5713 126.076 82.6145C126.439 82.6361 126.567 82.5497 126.567 82.1393C126.545 80.6488 126.545 79.1367 126.567 77.6462C126.567 75.9397 127.654 74.838 129.338 74.838C131.235 74.838 133.153 74.8596 135.05 74.8164C135.498 74.8164 135.562 74.946 135.562 75.3564C135.541 77.5598 135.583 79.7631 135.541 81.9665C135.541 82.5281 135.711 82.6577 136.18 82.5929C136.265 82.5713 136.351 82.5929 136.436 82.5929C136.713 82.5497 136.819 82.6577 136.819 82.9602C136.841 83.9538 136.841 83.9538 135.882 83.9538C134.262 83.9538 132.642 83.9538 131.022 83.9538ZM131.064 82.6145C132.023 82.6145 132.961 82.6145 133.92 82.6145C134.176 82.6145 134.283 82.5497 134.262 82.2689C134.24 80.368 134.24 78.4671 134.262 76.5877C134.262 76.3069 134.176 76.1989 133.899 76.1989C132.3 76.2205 130.702 76.1989 129.103 76.1989C128.357 76.1989 127.845 76.7173 127.845 77.4734C127.824 79.0503 127.845 80.6488 127.845 82.2257C127.845 82.5281 127.931 82.5929 128.208 82.5929C129.167 82.5929 130.126 82.6145 131.064 82.6145Z" fill="#980101"/>
<path d="M222.211 83.9537C220.847 83.9537 219.482 83.9537 218.118 83.9537C217.841 83.9537 217.734 83.8889 217.734 83.5865C217.756 80.7999 217.756 77.9917 217.734 75.2051C217.734 74.9243 217.798 74.8379 218.097 74.8379C220.847 74.8595 223.575 74.8595 226.325 74.8379C226.687 74.8379 226.73 74.9891 226.73 75.2915C226.73 76.2204 226.73 76.2204 225.834 76.2204C223.745 76.2204 221.635 76.242 219.546 76.1988C219.12 76.1988 219.035 76.35 219.056 76.7172C219.077 77.2357 219.077 77.7541 219.056 78.2725C219.035 78.6614 219.12 78.791 219.546 78.791C221.337 78.7694 223.127 78.791 224.918 78.7694C225.323 78.7694 225.472 78.8342 225.451 79.2878C225.408 80.1302 225.451 80.1303 224.577 80.1303C222.893 80.1303 221.209 80.1303 219.525 80.1303C219.184 80.1303 219.035 80.1951 219.056 80.5839C219.099 81.1023 219.099 81.6208 219.056 82.1392C219.035 82.5064 219.12 82.636 219.525 82.636C221.763 82.6144 223.98 82.636 226.218 82.6144C226.644 82.6144 226.815 82.7224 226.73 83.1545C226.708 83.2409 226.708 83.3273 226.73 83.4137C226.794 83.8457 226.666 83.9969 226.197 83.9969C224.875 83.9321 223.532 83.9537 222.211 83.9537Z" fill="#980101"/>
<path d="M172.353 83.9539C170.989 83.9539 169.625 83.9323 168.26 83.9539C167.941 83.9539 167.834 83.8675 167.834 83.5219C167.855 80.7569 167.855 77.9919 167.834 75.227C167.834 74.8813 167.919 74.7949 168.26 74.7949C170.967 74.8165 173.675 74.8165 176.382 74.7949C176.744 74.7949 176.829 74.8813 176.829 75.2486C176.808 76.1558 176.829 76.1558 175.913 76.1558C173.824 76.1558 171.713 76.1558 169.625 76.1558C169.262 76.1558 169.113 76.2206 169.134 76.631C169.177 77.1711 169.177 77.7327 169.134 78.2944C169.113 78.6616 169.22 78.748 169.582 78.748C171.415 78.7264 173.227 78.748 175.06 78.7264C175.444 78.7264 175.55 78.8128 175.529 79.2016C175.508 80.1089 175.529 80.1089 174.655 80.1089C172.971 80.1089 171.287 80.1089 169.603 80.1089C169.262 80.1089 169.134 80.1953 169.156 80.5625C169.177 81.1026 169.177 81.6426 169.156 82.161C169.134 82.5066 169.241 82.5931 169.582 82.5931C171.841 82.5715 174.08 82.5931 176.339 82.5715C176.787 82.5715 176.915 82.7011 176.851 83.1115C176.829 83.2195 176.829 83.3491 176.851 83.4787C176.915 83.8459 176.765 83.9539 176.403 83.9323C175.039 83.9323 173.696 83.9539 172.353 83.9539Z" fill="#980101"/>
<path d="M114.352 62.1799C114.352 60.7974 114.373 59.4149 114.352 58.0324C114.352 57.7084 114.437 57.6436 114.757 57.6436C117.485 57.6652 120.213 57.6652 122.942 57.6436C123.283 57.6436 123.368 57.73 123.368 58.0756C123.368 59.026 123.368 59.026 122.43 59.026C120.341 59.026 118.231 59.026 116.142 59.026C115.801 59.026 115.673 59.1125 115.673 59.4797C115.694 60.0413 115.694 60.6246 115.673 61.1862C115.652 61.5318 115.758 61.6182 116.099 61.6182C117.933 61.5966 119.787 61.6182 121.62 61.5966C121.983 61.5966 122.089 61.683 122.068 62.0503C122.047 62.9791 122.068 62.9791 121.173 62.9791C119.489 62.9791 117.805 62.9791 116.121 62.9791C115.801 62.9791 115.673 63.0655 115.694 63.4111C115.716 63.9512 115.716 64.5128 115.694 65.0745C115.673 65.3985 115.78 65.4849 116.099 65.4633C118.359 65.4417 120.597 65.4633 122.857 65.4417C123.326 65.4417 123.453 65.5929 123.39 66.0249C123.368 66.1761 123.368 66.3273 123.39 66.5002C123.411 66.7594 123.326 66.8242 123.07 66.8242C120.277 66.8242 117.485 66.8242 114.693 66.8242C114.352 66.8242 114.416 66.6298 114.416 66.4353C114.352 64.9664 114.352 63.584 114.352 62.1799Z" fill="#980101"/>
<path d="M278.59 79.4391C278.59 80.8 278.569 82.1609 278.59 83.5218C278.59 83.8674 278.484 83.9538 278.164 83.9538C277.269 83.9322 277.269 83.9538 277.269 83.025C277.269 82.5713 277.248 82.1177 277.269 81.6857C277.269 81.4265 277.184 81.3617 276.949 81.3617C275.755 81.3617 274.562 81.3833 273.368 81.3617C273.134 81.3617 272.984 81.4697 272.835 81.6209C272.174 82.2905 271.492 82.9386 270.853 83.6514C270.512 84.0402 270.128 83.9538 269.723 83.9322C269.489 83.9322 269.489 83.133 269.744 82.8738C270.192 82.4201 270.618 81.9665 271.087 81.5129C271.279 81.3401 271.343 81.232 271.045 81.0808C270.043 80.5624 269.574 79.6983 269.595 78.5535C269.595 78.0782 269.574 77.5814 269.617 77.1062C269.766 75.7885 270.874 74.8164 272.174 74.8164C274.178 74.8164 276.16 74.8164 278.164 74.8164C278.484 74.8164 278.59 74.9028 278.59 75.2484C278.569 76.6525 278.59 78.0566 278.59 79.4391ZM274.562 76.1989C273.794 76.1989 273.027 76.1989 272.26 76.1989C271.428 76.1989 270.938 76.6957 270.917 77.5382C270.917 77.8838 270.917 78.2294 270.917 78.5751C270.938 79.4823 271.407 80.0008 272.302 80.0008C273.858 80.0224 275.393 80.0008 276.949 80.0224C277.226 80.0224 277.29 79.936 277.29 79.6767C277.269 78.6399 277.269 77.603 277.29 76.5661C277.29 76.2853 277.226 76.1773 276.928 76.1773C276.118 76.2205 275.35 76.1989 274.562 76.1989Z" fill="#9A0303"/>
<path d="M224.897 44.8987C224.897 46.2596 224.875 47.6205 224.897 48.9814C224.897 49.3702 224.811 49.4782 224.428 49.4782C223.575 49.4566 223.596 49.4782 223.575 48.6142C223.554 48.0525 223.831 47.2965 223.468 46.9725C223.17 46.6917 222.424 46.8861 221.891 46.8861C221.081 46.8861 220.122 46.6269 219.461 46.9509C218.651 47.3613 218.075 48.247 217.393 48.9166C217.138 49.1758 216.946 49.5647 216.477 49.4566C216.285 49.4134 215.965 49.5647 215.944 49.3486C215.901 49.0462 215.773 48.6574 216.072 48.3766C216.519 47.9229 216.946 47.4693 217.415 47.0373C217.649 46.8213 217.606 46.7349 217.329 46.5836C216.391 46.0868 215.923 45.266 215.923 44.1859C215.923 43.581 215.859 42.9762 215.986 42.393C216.285 41.1617 217.287 40.3624 218.523 40.3624C220.484 40.3624 222.445 40.384 224.406 40.3408C224.833 40.3408 224.897 40.4704 224.897 40.8593C224.875 42.1985 224.897 43.5594 224.897 44.8987ZM220.847 41.7233C220.079 41.7233 219.312 41.7233 218.544 41.7233C217.734 41.7233 217.244 42.2201 217.223 43.041C217.201 43.4082 217.223 43.7539 217.223 44.1211C217.244 45.0067 217.713 45.5036 218.566 45.5252C220.122 45.5468 221.699 45.5252 223.255 45.5468C223.49 45.5468 223.575 45.482 223.575 45.2228C223.554 44.1643 223.554 43.1274 223.575 42.0689C223.575 41.7449 223.447 41.7017 223.191 41.7233C222.403 41.7233 221.635 41.7233 220.847 41.7233Z" fill="#9A0303"/>
<path d="M238.602 62.2663C238.602 63.6272 238.581 64.9881 238.602 66.349C238.602 66.6946 238.496 66.781 238.176 66.781C237.281 66.781 237.281 66.781 237.281 65.8521C237.281 65.3985 237.259 64.9449 237.281 64.5128C237.281 64.2536 237.195 64.1888 236.961 64.1888C235.767 64.1888 234.574 64.2104 233.38 64.1888C233.145 64.1888 232.996 64.2968 232.847 64.448C232.186 65.1177 231.504 65.7657 230.865 66.4786C230.523 66.8674 230.14 66.781 229.735 66.7594C229.5 66.7594 229.5 65.9601 229.756 65.7009C230.204 65.2473 230.63 64.7936 231.099 64.34C231.291 64.1672 231.355 64.0592 231.056 63.908C230.055 63.3895 229.586 62.5255 229.607 61.3806C229.607 60.9054 229.586 60.4085 229.628 59.9333C229.777 58.6156 230.886 57.6436 232.186 57.6436C234.19 57.6436 236.172 57.6436 238.176 57.6436C238.496 57.6436 238.602 57.73 238.602 58.0756C238.581 59.4581 238.602 60.8622 238.602 62.2663ZM234.574 59.0044C233.806 59.0044 233.039 59.0044 232.271 59.0044C231.44 59.0044 230.95 59.5013 230.928 60.3437C230.928 60.6894 230.928 61.035 230.928 61.3806C230.95 62.2879 231.419 62.8063 232.314 62.8063C233.87 62.8279 235.405 62.8063 236.961 62.8279C237.238 62.8279 237.302 62.7415 237.302 62.4823C237.281 61.4454 237.281 60.4085 237.302 59.3717C237.302 59.0909 237.238 58.9828 236.94 58.9828C236.13 59.0261 235.362 59.0044 234.574 59.0044Z" fill="#9A0303"/>
<path d="M216.52 63.2815C216.52 62.3095 216.52 61.359 216.52 60.3869C216.52 58.7668 217.628 57.6652 219.205 57.6436C220.442 57.6436 221.699 57.6436 222.936 57.6436C224.3 57.6436 225.472 58.7452 225.494 60.1493C225.515 62.2447 225.494 64.3184 225.515 66.4138C225.515 66.7378 225.387 66.781 225.131 66.781C224.193 66.781 224.193 66.8026 224.193 65.8521C224.193 65.4633 224.172 65.0529 224.193 64.664C224.215 64.3184 224.129 64.1888 223.767 64.1888C221.934 64.2104 220.079 64.2104 218.246 64.1888C217.884 64.1888 217.82 64.2968 217.841 64.6208C217.862 65.2257 217.841 65.8305 217.862 66.4354C217.862 66.673 217.798 66.7594 217.564 66.7594C216.562 66.8026 216.562 66.8242 216.562 65.8089C216.52 64.9665 216.52 64.124 216.52 63.2815ZM220.975 62.8279C221.891 62.8279 222.808 62.8063 223.746 62.8279C224.087 62.8279 224.215 62.7631 224.193 62.3959C224.151 61.7262 224.193 61.0566 224.193 60.3869C224.193 59.5445 223.703 59.026 222.872 59.026C221.635 59.026 220.42 59.026 219.184 59.026C218.353 59.026 217.862 59.5229 217.841 60.3653C217.82 61.0782 217.841 61.791 217.841 62.4823C217.841 62.7631 217.926 62.8279 218.182 62.8279C219.099 62.8063 220.037 62.8279 220.975 62.8279Z" fill="#9A0303"/>
<path d="M173.653 63.2596C173.653 64.2749 173.632 65.2902 173.653 66.3054C173.653 66.6727 173.547 66.7591 173.184 66.7591C172.31 66.7375 172.31 66.7591 172.31 65.8518C172.31 65.3982 172.289 64.9445 172.31 64.5125C172.332 64.2317 172.225 64.1669 171.969 64.1669C170.072 64.1669 168.196 64.1669 166.299 64.1669C166.022 64.1669 165.958 64.2533 165.958 64.5125C165.979 65.1173 165.958 65.7222 165.958 66.327C165.958 66.6294 165.916 66.7591 165.574 66.7591C164.637 66.7591 164.637 66.7807 164.637 65.8302C164.637 64.0373 164.679 62.2443 164.615 60.4514C164.573 58.7881 165.937 57.5136 167.386 57.6216C168.601 57.708 169.795 57.6432 171.01 57.6432C172.459 57.6432 173.589 58.7881 173.611 60.257C173.653 61.2723 173.653 62.2659 173.653 63.2596ZM169.177 62.8276C170.115 62.8276 171.053 62.806 171.991 62.8276C172.289 62.8276 172.353 62.7412 172.353 62.4604C172.332 61.7475 172.353 61.0563 172.353 60.3434C172.353 59.5226 171.841 59.0257 171.031 59.0257C169.795 59.0257 168.58 59.0257 167.344 59.0257C166.512 59.0257 166.001 59.5226 165.979 60.365C165.958 61.0563 166.001 61.7475 165.958 62.4388C165.937 62.806 166.086 62.8492 166.384 62.8492C167.322 62.806 168.239 62.8276 169.177 62.8276Z" fill="#9A0303"/>
<path d="M256.614 80.4327C256.614 79.4606 256.614 78.5101 256.614 77.5381C256.635 75.9612 257.744 74.8379 259.279 74.8379C260.515 74.8379 261.773 74.8379 263.009 74.8379C264.416 74.8379 265.567 75.9612 265.588 77.3653C265.609 79.439 265.588 81.5128 265.609 83.5649C265.609 83.9105 265.482 83.9537 265.183 83.9537C264.288 83.9537 264.288 83.9537 264.266 83.0465C264.266 82.5064 264.501 81.772 264.16 81.4696C263.861 81.2103 263.158 81.3831 262.625 81.3831C261.218 81.3831 259.833 81.4047 258.426 81.3615C258.021 81.3615 257.85 81.4479 257.893 81.88C257.936 82.4416 257.893 83.0249 257.914 83.5865C257.914 83.8457 257.85 83.9321 257.573 83.9321C256.593 83.9537 256.593 83.9753 256.593 83.0033C256.614 82.1608 256.614 81.2967 256.614 80.4327ZM261.069 80.0223C262.007 80.0223 262.945 80.0006 263.883 80.0223C264.181 80.0223 264.288 79.9574 264.288 79.6334C264.267 78.9422 264.288 78.2509 264.288 77.5597C264.288 76.7172 263.798 76.1988 262.966 76.1988C261.73 76.1988 260.515 76.1988 259.279 76.1988C258.469 76.1988 257.957 76.6956 257.936 77.4949C257.914 78.2293 257.936 78.9422 257.914 79.6766C257.914 79.9574 258 80.0223 258.255 80.0223C259.193 80.0006 260.131 80.0223 261.069 80.0223Z" fill="#9A0303"/>
<path d="M202.92 45.9356C202.92 44.9635 202.92 44.0131 202.92 43.041C202.941 41.4641 204.05 40.3408 205.606 40.3408C206.842 40.3408 208.1 40.3408 209.336 40.3408C210.743 40.3408 211.894 41.4641 211.894 42.8682C211.915 44.9419 211.894 47.0157 211.915 49.0678C211.915 49.3702 211.83 49.435 211.553 49.435C210.615 49.435 210.615 49.4566 210.594 48.5278C210.594 47.9877 210.828 47.2533 210.487 46.9509C210.189 46.6917 209.485 46.8645 208.952 46.8645C207.524 46.8645 206.096 46.8645 204.668 46.8645C204.348 46.8645 204.22 46.9509 204.241 47.2965C204.263 47.9013 204.242 48.5062 204.263 49.111C204.263 49.3918 204.178 49.4566 203.922 49.4566C202.941 49.4782 202.941 49.4998 202.941 48.5062C202.92 47.6637 202.92 46.7997 202.92 45.9356ZM207.418 45.5252C208.355 45.5252 209.293 45.5036 210.231 45.5252C210.508 45.5252 210.615 45.4604 210.594 45.158C210.572 44.4667 210.594 43.7755 210.594 43.0842C210.594 42.1985 210.103 41.7017 209.229 41.7017C208.014 41.7017 206.799 41.7017 205.606 41.7017C204.774 41.7017 204.263 42.1985 204.241 43.041C204.22 43.7539 204.263 44.4667 204.22 45.158C204.22 45.4604 204.327 45.5252 204.604 45.5252C205.542 45.5252 206.48 45.5252 207.418 45.5252Z" fill="#9A0303"/>
<path d="M162.803 97.801C162.803 98.7946 162.781 99.8099 162.803 100.804C162.803 101.149 162.739 101.279 162.355 101.257C161.481 101.236 161.481 101.257 161.481 100.372C161.481 99.9179 161.46 99.4643 161.481 99.0322C161.481 98.773 161.417 98.665 161.14 98.665C159.243 98.6866 157.367 98.6866 155.47 98.665C155.15 98.665 155.108 98.773 155.108 99.0539C155.129 99.6803 155.108 100.285 155.108 100.912C155.108 101.149 155.044 101.236 154.788 101.236C153.786 101.279 153.786 101.3 153.786 100.285C153.786 98.4922 153.807 96.6993 153.786 94.9064C153.743 93.2647 155.129 92.0118 156.536 92.1198C157.751 92.2062 158.987 92.1414 160.224 92.1414C161.609 92.1414 162.76 93.2863 162.781 94.6904C162.824 95.7272 162.803 96.7641 162.803 97.801ZM158.284 97.3041C159.243 97.3041 160.202 97.2825 161.14 97.3041C161.439 97.3041 161.502 97.2177 161.502 96.9369C161.481 96.2241 161.502 95.5328 161.502 94.82C161.502 93.9991 160.991 93.5023 160.181 93.5023C158.945 93.5023 157.73 93.5023 156.493 93.5023C155.662 93.5023 155.15 93.9991 155.129 94.8416C155.108 95.5328 155.15 96.2241 155.108 96.9153C155.086 97.2825 155.236 97.3257 155.534 97.3257C156.472 97.3041 157.367 97.3041 158.284 97.3041Z" fill="#9A0303"/>
<path d="M114.757 44.8555C114.757 44.2075 114.757 43.581 114.757 42.933C114.757 41.4857 115.887 40.3408 117.315 40.3408C118.551 40.3408 119.766 40.3408 121.002 40.3408C122.558 40.3408 123.688 41.3993 123.731 42.9978C123.773 44.2723 123.773 45.5468 123.731 46.8213C123.688 48.4198 122.58 49.4566 120.981 49.4566C119.745 49.4566 118.487 49.4566 117.251 49.4566C115.865 49.4566 114.757 48.3334 114.757 46.9293C114.757 46.238 114.757 45.5468 114.757 44.8555ZM116.078 44.8987C116.078 45.5252 116.078 46.13 116.078 46.7565C116.078 47.5557 116.526 48.0958 117.315 48.0958C118.615 48.1174 119.894 48.1174 121.194 48.0958C121.898 48.0741 122.388 47.5989 122.409 46.8861C122.452 45.5684 122.452 44.2291 122.409 42.9114C122.388 42.1985 121.855 41.7233 121.173 41.7233C119.873 41.7017 118.594 41.7017 117.293 41.7233C116.59 41.7233 116.078 42.2634 116.078 42.9762C116.057 43.6026 116.078 44.2507 116.078 44.8987Z" fill="#9A0303"/>
<path d="M152.081 44.9202C152.081 44.2722 152.081 43.6025 152.081 42.9545C152.081 41.5072 153.211 40.3623 154.639 40.3623C155.875 40.3623 157.09 40.3623 158.327 40.3623C159.883 40.3623 161.012 41.4208 161.076 43.0193C161.119 44.2938 161.119 45.5683 161.076 46.8428C161.034 48.4413 159.925 49.4781 158.327 49.4781C157.09 49.4781 155.833 49.4781 154.596 49.4781C153.189 49.4781 152.102 48.3549 152.102 46.9508C152.081 46.2595 152.081 45.5899 152.081 44.9202ZM153.403 44.877C153.403 45.5251 153.403 46.1515 153.403 46.7995C153.403 47.5556 153.85 48.074 154.575 48.0956C155.897 48.1388 157.24 48.1388 158.561 48.0956C159.243 48.074 159.733 47.5988 159.755 46.9076C159.797 45.5899 159.797 44.2506 159.755 42.9329C159.733 42.22 159.222 41.7448 158.54 41.7232C157.218 41.7016 155.918 41.7016 154.596 41.7232C153.914 41.7232 153.424 42.2632 153.424 42.9545C153.403 43.6025 153.403 44.229 153.403 44.877Z" fill="#9A0303"/>
<path d="M140.123 79.4174C140.123 78.7694 140.123 78.0997 140.123 77.4517C140.123 75.9612 141.253 74.8379 142.724 74.8379C143.939 74.8379 145.154 74.8379 146.347 74.8379C147.925 74.8379 149.033 75.8964 149.097 77.4733C149.14 78.7478 149.14 80.0222 149.097 81.2967C149.054 82.8952 147.946 83.9321 146.369 83.9321C145.132 83.9321 143.875 83.9321 142.638 83.9321C141.231 83.9321 140.144 82.8304 140.123 81.4047C140.123 80.7567 140.123 80.087 140.123 79.4174ZM141.445 79.3526C141.445 80.0006 141.445 80.6271 141.445 81.2751C141.445 82.0528 141.892 82.5712 142.638 82.5928C143.939 82.636 145.26 82.6144 146.582 82.5928C147.264 82.5712 147.754 82.096 147.775 81.4263C147.818 80.087 147.818 78.7262 147.775 77.3869C147.754 76.6956 147.243 76.2204 146.582 76.2204C145.26 76.1988 143.96 76.1988 142.638 76.2204C141.935 76.2204 141.445 76.7604 141.445 77.4949C141.423 78.0997 141.445 78.7262 141.445 79.3526Z" fill="#9A0303"/>
<path d="M127.845 96.6987C127.845 96.0506 127.845 95.381 127.845 94.7329C127.845 93.2424 128.974 92.1407 130.445 92.1191C131.66 92.1191 132.875 92.1191 134.069 92.1191C135.625 92.1191 136.755 93.1776 136.819 94.7545C136.861 96.029 136.861 97.3035 136.819 98.578C136.776 100.176 135.668 101.213 134.09 101.213C132.854 101.213 131.596 101.213 130.36 101.213C128.953 101.213 127.866 100.112 127.845 98.686C127.845 98.0596 127.845 97.3683 127.845 96.6987ZM129.166 96.6339C129.166 97.2819 129.166 97.9083 129.166 98.5564C129.166 99.334 129.614 99.8525 130.36 99.8741C131.66 99.9173 132.982 99.8957 134.303 99.8741C134.986 99.8525 135.476 99.3772 135.497 98.7076C135.54 97.3683 135.54 96.0074 135.497 94.6681C135.476 93.9769 134.964 93.5016 134.303 93.5016C132.982 93.48 131.682 93.48 130.36 93.5016C129.657 93.5016 129.166 94.0417 129.166 94.7761C129.166 95.4026 129.166 96.0074 129.166 96.6339Z" fill="#9A0303"/>
<path d="M121.898 78.2725C121.898 79.2446 121.898 80.1951 121.898 81.1671C121.876 82.852 120.789 83.9537 119.148 83.9537C117.976 83.9537 116.803 83.9537 115.631 83.9537C114.416 83.9537 113.35 82.9385 113.201 81.7288C113.158 81.4479 113.222 81.3399 113.499 81.3615C113.67 81.3831 113.84 81.3831 114.011 81.3615C114.331 81.2967 114.48 81.4263 114.565 81.772C114.714 82.312 115.141 82.5928 115.673 82.5928C116.888 82.6144 118.125 82.636 119.361 82.5928C120.128 82.5712 120.555 82.0744 120.597 81.2967C120.661 80.1519 120.661 80.1519 119.532 80.1519C118.146 80.1519 116.782 80.1735 115.396 80.1303C114.011 80.0871 112.945 78.9638 112.945 77.5381C112.945 76.782 112.966 76.026 112.945 75.2699C112.924 74.9243 113.03 74.8379 113.371 74.8379C114.267 74.8595 114.267 74.8379 114.267 75.7668C114.267 76.35 114.267 76.9332 114.267 77.5165C114.288 78.1645 114.714 78.7262 115.354 78.7478C117.038 78.791 118.722 78.7694 120.406 78.791C120.704 78.791 120.619 78.5966 120.619 78.4453C120.619 77.3869 120.64 76.35 120.619 75.2915C120.619 74.9675 120.683 74.8595 121.024 74.8595C121.94 74.8811 121.94 74.8595 121.94 75.7668C121.898 76.5876 121.898 77.4301 121.898 78.2725Z" fill="#9A0303"/>
<path d="M100.54 62.1581C100.54 60.7972 100.561 59.4363 100.54 58.0754C100.54 57.7082 100.646 57.6218 100.987 57.6218C101.861 57.6434 101.861 57.6218 101.861 58.529C101.861 60.646 101.861 62.7629 101.861 64.9015C101.861 65.2687 101.925 65.4199 102.352 65.4199C104.163 65.3983 105.997 65.3983 107.83 65.4199C108.171 65.4199 108.256 65.3335 108.256 64.9879C108.235 62.6981 108.256 60.4084 108.235 58.097C108.235 57.7082 108.32 57.6002 108.704 57.6218C109.556 57.6434 109.556 57.6218 109.556 58.4858C109.556 60.646 109.556 62.8061 109.556 64.9447C109.556 65.3119 109.663 65.3983 110.004 65.3983C110.814 65.3767 110.814 65.3983 110.814 66.2191C110.814 66.6944 110.793 67.148 110.814 67.6232C110.835 67.9257 110.707 68.0121 110.43 67.9905C110.366 67.9905 110.302 67.9905 110.217 67.9905C109.492 67.9905 109.471 67.9905 109.492 67.256C109.514 66.824 109.364 66.7592 108.981 66.7592C106.316 66.7808 103.673 66.7592 101.009 66.7808C100.625 66.7808 100.518 66.6944 100.54 66.3056C100.561 64.9231 100.54 63.5406 100.54 62.1581Z" fill="#9A0303"/>
<path d="M151.89 62.18C151.89 60.8407 151.911 59.4798 151.89 58.1405C151.89 57.7517 151.954 57.6221 152.38 57.6221C154.362 57.6437 156.323 57.6221 158.306 57.6437C159.734 57.6437 160.864 58.7885 160.885 60.2358C160.885 60.6895 160.885 61.1431 160.885 61.5751C160.885 62.9792 159.798 64.1241 158.434 64.1673C156.899 64.2105 155.364 64.2105 153.829 64.1673C153.275 64.1457 153.169 64.3401 153.211 64.837C153.254 65.377 153.211 65.8954 153.233 66.4355C153.233 66.6731 153.169 66.7595 152.913 66.7595C151.911 66.8027 151.911 66.8243 151.911 65.809C151.89 64.5993 151.89 63.3897 151.89 62.18ZM155.982 59.0046C155.172 59.0046 154.384 59.0046 153.574 59.0046C153.339 59.0046 153.19 59.0046 153.19 59.307C153.211 60.3655 153.19 61.4455 153.19 62.504C153.19 62.72 153.233 62.8064 153.467 62.8064C155.087 62.7848 156.707 62.8064 158.327 62.7848C159.116 62.7632 159.542 62.2448 159.563 61.4239C159.563 61.0567 159.563 60.6895 159.563 60.3439C159.563 59.5014 159.073 59.0046 158.242 58.983C157.474 59.0046 156.728 59.0046 155.982 59.0046Z" fill="#9A0303"/>
<path d="M194.223 66.7595C193.199 66.7595 192.176 66.7595 191.153 66.7595C190.855 66.7595 190.748 66.7163 190.748 66.3707C190.769 63.5841 190.769 60.8191 190.748 58.0325C190.748 57.6653 190.876 57.6221 191.196 57.6221C192.07 57.6221 192.091 57.6221 192.091 58.5077C192.091 59.1558 192.112 59.8254 192.091 60.4735C192.091 60.7759 192.176 60.8407 192.453 60.8407C194.031 60.8191 195.587 60.8407 197.164 60.8407C198.614 60.8407 199.722 61.9856 199.765 63.4545C199.807 64.5561 199.637 65.5498 198.678 66.2411C198.23 66.5651 197.761 66.7379 197.207 66.7379C196.184 66.7595 195.203 66.7595 194.223 66.7595ZM194.798 62.2232C193.988 62.2232 193.199 62.2232 192.389 62.2232C192.176 62.2232 192.027 62.2232 192.027 62.504C192.048 63.3897 192.027 64.2537 192.027 65.1394C192.027 65.3338 192.07 65.4202 192.283 65.4202C193.924 65.3986 195.587 65.4202 197.228 65.3986C197.91 65.377 198.358 64.8154 198.379 64.1241C198.379 63.9297 198.379 63.7353 198.379 63.5625C198.379 62.7632 197.868 62.2448 197.058 62.2448C196.333 62.2232 195.565 62.2232 194.798 62.2232Z" fill="#9A0303"/>
<path d="M109.257 75.9609C109.47 76.609 109.044 77.041 108.469 77.4298C107.701 77.9483 106.998 78.5531 106.252 79.0931C105.932 79.3307 105.889 79.4388 106.23 79.698C107.126 80.346 108 81.0589 108.895 81.7069C109.151 81.9013 109.3 82.0957 109.257 82.4414C109.236 82.6358 109.257 82.8302 109.257 83.003C109.257 83.9967 109.257 83.9751 108.277 83.9535C108.042 83.9535 107.893 83.8887 107.957 83.6294C108.127 82.8518 107.722 82.3982 107.104 82.0093C106.401 81.5341 105.719 80.9941 105.058 80.454C104.823 80.2596 104.674 80.3028 104.461 80.4756C103.651 81.1021 102.862 81.7717 102.01 82.3334C101.562 82.6358 101.52 83.003 101.562 83.435C101.605 83.8023 101.52 83.9751 101.093 83.9535C100.262 83.9103 100.326 83.9319 100.241 83.111C100.155 82.2902 100.432 81.7717 101.115 81.3397C101.882 80.8429 102.585 80.2164 103.331 79.6764C103.608 79.482 103.651 79.374 103.331 79.1363C102.393 78.4451 101.477 77.7322 100.56 77.0194C100.347 76.8682 100.241 76.6954 100.262 76.4146C100.283 76.1121 100.262 75.7881 100.262 75.4857C100.262 74.816 100.262 74.8592 100.944 74.7944C101.477 74.7512 101.647 74.9241 101.562 75.4425C101.477 75.9393 101.69 76.2201 102.074 76.501C102.884 77.0842 103.651 77.689 104.44 78.3155C104.653 78.4667 104.781 78.5531 105.037 78.3371C105.889 77.6458 106.763 76.9762 107.637 76.3497C108.021 76.0689 107.936 75.7017 107.914 75.3777C107.872 74.9241 108.021 74.7296 108.469 74.816C108.575 74.8376 108.703 74.8376 108.831 74.816C109.129 74.7728 109.279 74.8592 109.236 75.2049C109.236 75.4209 109.257 75.6369 109.257 75.9609Z" fill="#9A0303"/>
<path d="M136.115 62.2657C136.115 63.6266 136.094 64.9875 136.115 66.3484C136.115 66.694 136.009 66.7804 135.689 66.7804C134.794 66.7588 134.794 66.7804 134.794 65.8516C134.794 65.0091 134.772 64.1667 134.794 63.3242C134.794 63.0218 134.708 62.957 134.41 62.957C132.534 62.9786 130.658 62.9786 128.783 62.957C128.484 62.957 128.399 63.0434 128.399 63.3458C128.42 64.3395 128.378 65.3547 128.42 66.3484C128.42 66.7156 128.314 66.802 127.973 66.802C127.099 66.7804 127.099 66.802 127.099 65.9164C127.099 63.3242 127.099 60.732 127.099 58.1614C127.099 57.7726 127.205 57.6646 127.568 57.6862C128.42 57.7078 128.42 57.6862 128.42 58.5503C128.42 59.4575 128.42 60.3432 128.42 61.2505C128.42 61.5313 128.463 61.6393 128.761 61.6393C130.658 61.6177 132.534 61.6177 134.431 61.6393C134.751 61.6393 134.772 61.5097 134.772 61.2505C134.751 60.192 134.772 59.1551 134.751 58.0966C134.751 57.7726 134.836 57.6862 135.135 57.6862C136.073 57.6862 136.073 57.6862 136.073 58.6367C136.115 59.8032 136.115 61.0344 136.115 62.2657Z" fill="#9A0303"/>
<path d="M230.523 79.3526C230.523 77.9917 230.523 76.6308 230.523 75.2699C230.523 74.9459 230.587 74.8379 230.928 74.8379C231.845 74.8595 231.845 74.8379 231.845 75.7452C231.845 76.6524 231.845 77.5381 231.845 78.4453C231.845 78.7046 231.909 78.791 232.186 78.791C234.083 78.7694 235.959 78.7694 237.856 78.791C238.155 78.791 238.218 78.683 238.218 78.4021C238.197 77.3437 238.218 76.3068 238.197 75.2483C238.197 74.9459 238.24 74.8379 238.581 74.8379C239.519 74.8379 239.519 74.8379 239.519 75.7668C239.519 78.3157 239.519 80.8647 239.519 83.4353C239.519 83.8673 239.433 84.0401 238.986 83.9753C238.879 83.9537 238.773 83.9537 238.687 83.9753C238.304 84.0401 238.155 83.9105 238.176 83.4785C238.218 82.5064 238.176 81.5128 238.197 80.5191C238.197 80.2383 238.133 80.1303 237.835 80.1303C235.959 80.1519 234.083 80.1519 232.207 80.1303C231.866 80.1303 231.824 80.2599 231.824 80.5407C231.845 81.5344 231.824 82.5064 231.845 83.5001C231.845 83.8673 231.76 83.9753 231.397 83.9537C230.523 83.9321 230.523 83.9537 230.523 83.0681C230.523 81.8368 230.523 80.5839 230.523 79.3526Z" fill="#9A0303"/>
<path d="M252.501 79.3957C252.501 80.7782 252.48 82.1607 252.501 83.5432C252.501 83.8888 252.416 83.9752 252.075 83.9752C251.179 83.9536 251.179 83.9752 251.179 83.0679C251.179 82.2255 251.158 81.383 251.179 80.5406C251.179 80.2597 251.115 80.1517 250.817 80.1517C248.941 80.1733 247.065 80.1733 245.19 80.1517C244.849 80.1517 244.806 80.2813 244.806 80.5838C244.827 81.5774 244.785 82.5495 244.827 83.5432C244.827 83.9104 244.742 84.0184 244.38 83.9968C243.506 83.9752 243.506 83.9968 243.506 83.1111C243.506 80.5406 243.527 77.97 243.484 75.3994C243.484 74.9674 243.57 74.7946 243.996 74.881C244.103 74.9026 244.209 74.9026 244.294 74.881C244.678 74.8162 244.827 74.9674 244.806 75.3778C244.763 76.3931 244.806 77.4083 244.785 78.4236C244.785 78.7476 244.87 78.8124 245.19 78.8124C247.044 78.7908 248.899 78.7908 250.753 78.8124C251.115 78.8124 251.158 78.6828 251.158 78.3804C251.137 77.3435 251.158 76.3067 251.137 75.2698C251.137 74.9674 251.201 74.8594 251.52 74.8594C252.458 74.8594 252.458 74.8594 252.458 75.8098C252.501 76.9763 252.501 78.186 252.501 79.3957Z" fill="#9A0303"/>
<path d="M203.538 62.2013C203.538 60.8188 203.559 59.4363 203.538 58.0538C203.538 57.7082 203.623 57.6218 203.964 57.6218C204.859 57.6434 204.859 57.6218 204.859 58.5506C204.859 59.4363 204.859 60.3004 204.859 61.186C204.859 61.4452 204.881 61.5748 205.2 61.5748C207.097 61.5532 208.973 61.5532 210.87 61.5748C211.19 61.5748 211.211 61.4452 211.211 61.186C211.19 60.1491 211.233 59.1123 211.19 58.0754C211.19 57.7082 211.275 57.6002 211.638 57.6218C212.512 57.6434 212.512 57.6218 212.512 58.5074C212.512 61.0996 212.512 63.6918 212.512 66.2624C212.512 66.6512 212.405 66.7592 212.021 66.7376C211.169 66.716 211.169 66.7376 211.169 65.8735C211.169 65.0095 211.148 64.1454 211.169 63.2814C211.169 62.9789 211.084 62.9141 210.806 62.9141C208.931 62.9357 207.055 62.9357 205.179 62.9141C204.902 62.9141 204.795 63.0005 204.795 63.2814C204.817 64.2966 204.795 65.3119 204.817 66.3272C204.817 66.6512 204.731 66.7376 204.412 66.7376C203.495 66.7376 203.495 66.7592 203.495 65.8519C203.538 64.6423 203.538 63.4326 203.538 62.2013Z" fill="#9A0303"/>
<path d="M177.767 44.8987C177.767 44.2507 177.767 43.581 177.767 42.933C177.767 41.4857 178.896 40.3408 180.325 40.3408C181.625 40.3408 182.904 40.3408 184.204 40.3408C185.462 40.3408 186.549 41.3777 186.698 42.6306C186.719 42.8466 186.698 42.9546 186.463 42.933C186.293 42.9114 186.122 42.9114 185.952 42.933C185.611 42.9762 185.419 42.8898 185.312 42.501C185.163 41.9609 184.716 41.7233 184.183 41.7017C182.882 41.6801 181.603 41.6801 180.303 41.7017C179.578 41.7017 179.088 42.2201 179.088 42.9546C179.088 44.2507 179.088 45.5468 179.088 46.8429C179.088 47.5341 179.557 48.0741 180.261 48.0958C181.582 48.139 182.925 48.1174 184.247 48.0958C184.758 48.0958 185.206 47.8149 185.334 47.3181C185.44 46.9293 185.611 46.8645 185.952 46.8861C186.826 46.9077 186.89 46.9725 186.57 47.8149C186.186 48.8302 185.227 49.4782 184.14 49.4782C182.861 49.4782 181.582 49.4782 180.303 49.4782C178.854 49.4782 177.767 48.355 177.767 46.8861C177.767 46.2164 177.767 45.5684 177.767 44.8987Z" fill="#9A0303"/>
<path d="M127.547 44.8986C127.547 44.2506 127.547 43.5809 127.547 42.9329C127.547 41.5288 128.677 40.3623 130.083 40.3623C131.405 40.3623 132.705 40.3623 134.027 40.3623C135.285 40.3623 136.393 41.4208 136.5 42.6737C136.5 42.7385 136.542 42.8681 136.521 42.8681C136.201 43.0409 135.86 42.9113 135.54 42.9545C135.391 42.9761 135.285 42.9761 135.199 42.7601C134.922 41.9608 134.581 41.7448 133.771 41.7448C132.599 41.7448 131.426 41.7448 130.254 41.7448C129.38 41.7448 128.89 42.2416 128.89 43.1057C128.89 44.337 128.89 45.5467 128.89 46.7779C128.89 47.5772 129.337 48.0956 130.126 48.1172C131.426 48.1388 132.705 48.1388 134.006 48.1172C134.56 48.1172 135.007 47.8148 135.157 47.2532C135.242 46.9292 135.391 46.886 135.668 46.886C136.649 46.886 136.734 47.0156 136.308 47.9228C135.839 48.8949 135.071 49.4565 133.984 49.4781C132.684 49.4781 131.405 49.4781 130.105 49.4781C128.698 49.4781 127.59 48.3549 127.59 46.9292C127.547 46.2379 127.547 45.5683 127.547 44.8986Z" fill="#9A0303"/>
<path d="M180.517 79.3742C180.517 78.7262 180.517 78.0565 180.517 77.4085C180.517 75.9828 181.646 74.8379 183.032 74.8379C184.353 74.8379 185.654 74.8379 186.975 74.8379C188.233 74.8379 189.32 75.8748 189.469 77.1276C189.491 77.3653 189.448 77.4517 189.214 77.4301C189.064 77.4085 188.915 77.4085 188.745 77.4301C188.404 77.4733 188.19 77.4301 188.062 76.998C187.913 76.4796 187.466 76.2204 186.933 76.2204C185.632 76.2204 184.353 76.1988 183.053 76.2204C182.35 76.2204 181.838 76.7604 181.838 77.4733C181.838 78.7694 181.838 80.0655 181.838 81.3615C181.838 82.0312 182.286 82.5712 182.968 82.5928C184.332 82.636 185.696 82.6144 187.061 82.5928C187.551 82.5928 187.977 82.2904 188.084 81.8152C188.19 81.4047 188.382 81.3831 188.723 81.3831C189.597 81.4047 189.661 81.4695 189.32 82.3336C188.915 83.3489 187.977 83.9753 186.89 83.9753C185.611 83.9753 184.332 83.9753 183.053 83.9753C181.646 83.9753 180.517 82.852 180.517 81.4263C180.517 80.7351 180.517 80.0655 180.517 79.3742Z" fill="#9A0303"/>
<path d="M199.317 49.392C198.06 49.7808 197.207 49.2407 196.418 48.3335C195.715 47.5126 194.884 46.7998 194.159 46.0221C193.903 45.7413 193.647 45.6117 193.264 45.6549C192.773 45.6981 192.134 45.4389 191.857 45.7629C191.622 46.0437 191.772 46.6918 191.772 47.167C191.772 47.815 191.75 48.4847 191.772 49.1327C191.772 49.4136 191.686 49.4784 191.431 49.4784C190.45 49.5 190.45 49.5216 190.45 48.5279C190.45 45.9789 190.471 43.4299 190.429 40.8594C190.429 40.4273 190.514 40.2545 190.94 40.3409C191.047 40.3625 191.153 40.3625 191.239 40.3409C191.622 40.2761 191.772 40.4273 191.75 40.8378C191.708 41.853 191.75 42.8683 191.729 43.8836C191.729 44.2076 191.836 44.2508 192.134 44.294C193.264 44.4452 194.138 44.0996 194.862 43.1707C195.566 42.2851 196.44 41.5506 197.207 40.7082C197.463 40.4273 197.719 40.2977 198.102 40.3409C198.507 40.3841 198.912 40.3409 199.445 40.3409C198.763 41.0322 198.188 41.6586 197.591 42.2635C196.823 43.0627 196.035 43.862 195.246 44.6396C195.012 44.8556 195.033 44.9853 195.246 45.2013C196.525 46.4758 197.783 47.7502 199.04 49.0463C199.147 49.1759 199.317 49.2623 199.317 49.392Z" fill="#9A0303"/>
<path d="M149.246 40.5568C147.861 41.9177 146.496 43.2786 145.09 44.5963C144.791 44.8987 144.834 45.0499 145.111 45.3091C146.347 46.5404 147.562 47.7933 148.798 49.0246C148.905 49.1326 149.076 49.219 149.203 49.3054C149.161 49.3486 149.14 49.4134 149.097 49.4566C148.585 49.4566 148.052 49.4566 147.541 49.4566C147.349 49.4566 147.264 49.3486 147.157 49.2406C146.113 48.1821 145.026 47.1453 144.002 46.0652C143.683 45.7412 143.384 45.59 142.937 45.6332C142.489 45.6764 141.913 45.5036 141.658 45.7196C141.359 45.9788 141.572 46.5836 141.551 47.0589C141.53 47.7285 141.53 48.3981 141.551 49.0678C141.551 49.3486 141.508 49.4566 141.189 49.4566C140.229 49.4782 140.229 49.4782 140.229 48.5062C140.229 45.9356 140.229 43.365 140.229 40.7944C140.229 40.4056 140.336 40.2976 140.698 40.3192C141.551 40.3408 141.551 40.3192 141.551 41.1833C141.551 42.0689 141.572 42.933 141.551 43.8186C141.551 44.1211 141.594 44.2291 141.956 44.2723C143.086 44.4019 143.938 44.0563 144.685 43.1274C145.388 42.2417 146.262 41.5073 147.029 40.6648C147.285 40.384 147.541 40.276 147.925 40.2976C148.33 40.3192 148.735 40.2976 149.14 40.2976C149.14 40.4272 149.182 40.492 149.246 40.5568Z" fill="#9A0303"/>
<path d="M125.095 92.3134C124.455 92.9183 123.794 93.5015 123.176 94.128C122.409 94.884 121.684 95.6833 120.895 96.4393C120.64 96.6769 120.661 96.8065 120.895 97.0442C122.26 98.4051 123.624 99.7875 125.073 101.256C124.391 101.256 123.858 101.256 123.304 101.256C123.155 101.256 123.07 101.127 122.984 101.019C121.897 99.9388 120.81 98.8803 119.744 97.7786C119.489 97.5194 119.254 97.4114 118.892 97.433C118.529 97.4546 118.146 97.4546 117.762 97.433C117.442 97.4114 117.357 97.5194 117.357 97.8434C117.378 98.8371 117.357 99.8524 117.378 100.846C117.378 101.192 117.272 101.278 116.952 101.278C116.057 101.256 116.057 101.278 116.057 100.349C116.057 97.757 116.057 95.1648 116.057 92.5943C116.057 92.227 116.142 92.1406 116.504 92.1406C117.378 92.1622 117.378 92.1406 117.378 93.0263C117.378 93.9335 117.4 94.8192 117.378 95.7265C117.378 96.0289 117.463 96.1369 117.762 96.0937C117.805 96.0937 117.826 96.0937 117.868 96.0937C118.977 96.2665 119.787 95.8993 120.49 94.992C121.194 94.0848 122.089 93.3503 122.878 92.5079C123.112 92.2486 123.368 92.119 123.73 92.1622C124.135 92.1838 124.562 92.1622 124.988 92.1622C125.009 92.1838 125.052 92.2486 125.095 92.3134Z" fill="#9A0303"/>
<path d="M149.715 96.7418C149.715 98.1026 149.694 99.4635 149.715 100.824C149.715 101.17 149.608 101.256 149.289 101.256C148.393 101.235 148.393 101.256 148.393 100.328C148.393 98.2106 148.393 96.0937 148.393 93.9552C148.393 93.5663 148.308 93.4583 147.925 93.4799C146.432 93.5015 144.919 93.4799 143.427 93.5015C142.532 93.5015 142.041 93.9984 142.041 94.9056C142.041 96.8498 142.02 98.7939 142.041 100.76C142.041 101.17 141.913 101.278 141.53 101.256C140.72 101.235 140.72 101.256 140.72 100.414C140.72 98.5995 140.72 96.785 140.72 94.992C140.72 93.2423 141.807 92.1406 143.512 92.1406C145.431 92.1406 147.37 92.1406 149.289 92.1406C149.63 92.1406 149.715 92.227 149.715 92.5727C149.715 93.9552 149.715 95.3377 149.715 96.7418Z" fill="#9A0303"/>
<path d="M186.634 62.2232C186.634 63.5841 186.613 64.945 186.634 66.3059C186.634 66.6731 186.549 66.7811 186.186 66.7595C185.312 66.7379 185.312 66.7595 185.312 65.8738C185.312 63.7353 185.291 61.5967 185.334 59.4582C185.334 59.0478 185.206 58.983 184.843 58.983C183.351 59.0046 181.881 58.983 180.388 58.983C179.451 58.983 178.96 59.4582 178.96 60.4087C178.96 62.3528 178.939 64.2969 178.96 66.2627C178.96 66.6515 178.875 66.7595 178.491 66.7379C177.639 66.7163 177.639 66.7379 177.639 65.8738C177.639 64.0593 177.639 62.2448 177.639 60.4519C177.639 58.7021 178.726 57.6221 180.452 57.6221C182.35 57.6221 184.225 57.6221 186.122 57.6221C186.506 57.6221 186.655 57.6869 186.634 58.1189C186.613 59.5014 186.634 60.8623 186.634 62.2232Z" fill="#9A0303"/>
<path d="M76.3456 44.9419C76.3243 46.4324 75.4291 47.3181 74.278 48.0093C73.9796 48.1821 73.7025 48.3765 73.4467 48.5926C73.3401 48.7006 73.2975 48.8302 73.3614 48.9598C73.4254 49.0894 73.5746 49.0678 73.6811 49.0678C74.0648 49.0462 74.4272 48.8518 74.8109 48.8086C75.5783 48.7222 76.0685 48.8734 76.1964 49.327C76.3456 49.9102 75.962 50.7095 75.3225 50.8607C74.0435 51.1847 72.3596 50.7959 71.6988 49.3918C71.443 48.8518 71.4856 48.2901 71.6561 47.7285C72.1038 46.2164 72.8498 44.8987 74.0648 43.905C74.2354 43.7754 74.4059 43.6458 74.619 43.5378C75.6635 42.9978 76.2391 43.6026 76.367 44.6827C76.3456 44.7691 76.3456 44.8555 76.3456 44.9419Z" fill="#9A0303"/>
<path d="M196.887 74.8379C198.23 74.8379 199.573 74.8595 200.916 74.8379C201.257 74.8379 201.385 74.9027 201.385 75.2915C201.364 76.2204 201.385 76.2204 200.49 76.2204C199.658 76.2204 198.827 76.242 197.996 76.2204C197.612 76.1988 197.505 76.3068 197.505 76.6956C197.527 78.9638 197.505 81.2103 197.527 83.4785C197.527 83.8673 197.463 84.0185 197.037 83.9969C196.205 83.9537 196.205 83.9969 196.205 83.1545C196.205 80.9943 196.205 78.8342 196.205 76.6956C196.205 76.35 196.141 76.2204 195.758 76.2204C194.777 76.242 193.775 76.2204 192.795 76.242C192.496 76.242 192.39 76.1988 192.39 75.8532C192.39 74.8595 192.368 74.8595 193.37 74.8595C194.521 74.8379 195.715 74.8379 196.887 74.8379Z" fill="#9A0303"/>
<path d="M144.002 57.6436C145.344 57.6436 146.687 57.6652 148.03 57.6436C148.371 57.6436 148.499 57.7084 148.499 58.0972C148.478 59.026 148.499 59.026 147.604 59.026C146.794 59.026 145.963 59.0476 145.153 59.026C144.726 59.0044 144.62 59.1125 144.62 59.5445C144.641 61.791 144.62 64.0376 144.641 66.2625C144.641 66.6514 144.577 66.8026 144.151 66.781C143.319 66.7378 143.319 66.781 143.319 65.9385C143.319 63.8 143.319 61.6614 143.319 59.5229C143.319 59.1341 143.256 58.9828 142.829 59.0044C141.87 59.0476 140.889 59.0044 139.909 59.026C139.611 59.026 139.504 58.9828 139.504 58.6372C139.504 57.6436 139.483 57.6436 140.484 57.6436C141.657 57.6436 142.829 57.6436 144.002 57.6436Z" fill="#9A0303"/>
<path d="M266.441 111.345C267.187 111.755 267.869 112.123 268.551 112.49C268.828 112.641 269.042 113.462 268.871 113.699C268.743 113.851 268.551 113.743 268.402 113.764C268.189 113.786 268.168 113.635 268.21 113.483C268.296 113.116 268.061 112.965 267.784 112.835C267.336 112.619 266.91 112.382 266.484 112.144C266.185 111.971 266.036 111.95 266.057 112.382C266.079 112.706 266.057 113.03 266.057 113.375C266.057 113.613 266.079 113.786 265.738 113.786C265.375 113.786 265.375 113.613 265.375 113.332C265.375 113.008 265.375 112.684 265.375 112.339C265.397 112.036 265.333 111.907 265.013 112.101C264.587 112.36 264.16 112.619 263.734 112.857C263.499 112.987 263.35 113.116 263.393 113.419C263.457 113.721 263.286 113.743 263.031 113.743C262.796 113.743 262.732 113.678 262.711 113.419C262.668 112.879 262.775 112.49 263.35 112.252C263.904 112.015 264.416 111.647 265.013 111.302C264.331 110.913 263.691 110.546 263.073 110.157C262.817 110.006 262.583 109.163 262.753 108.926C262.881 108.753 263.073 108.861 263.222 108.839C263.393 108.818 263.414 108.947 263.393 109.077C263.308 109.487 263.585 109.66 263.883 109.811C264.267 110.027 264.651 110.243 265.034 110.481C265.311 110.654 265.397 110.589 265.375 110.265C265.354 109.876 265.397 109.509 265.375 109.12C265.354 108.796 265.524 108.817 265.759 108.796C266.015 108.796 266.079 108.861 266.079 109.12C266.057 109.509 266.079 109.919 266.079 110.308C266.079 110.546 266.121 110.632 266.356 110.502C266.91 110.2 267.464 109.898 268.018 109.617C268.232 109.509 268.232 109.314 268.21 109.142C268.168 108.861 268.317 108.796 268.573 108.796C268.807 108.796 268.914 108.817 268.935 109.12C268.978 109.682 268.85 110.049 268.296 110.265C267.635 110.632 267.081 110.999 266.441 111.345Z" fill="#9A0303"/>
<path d="M287.117 111.345C287.117 110.675 287.138 110.005 287.117 109.336C287.117 109.033 287.16 108.904 287.501 108.925C288.503 108.947 289.504 108.925 290.506 108.925C291.06 108.925 291.487 109.184 291.743 109.681C291.998 110.178 291.998 110.696 291.636 111.129C291.487 111.323 291.529 111.409 291.636 111.604C292.254 112.533 291.679 113.742 290.57 113.785C289.526 113.829 288.46 113.785 287.415 113.807C287.16 113.807 287.096 113.721 287.096 113.483C287.117 112.749 287.117 112.036 287.117 111.345ZM289.313 110.977C289.696 110.977 290.101 110.977 290.485 110.977C290.933 110.977 291.231 110.696 291.231 110.308C291.231 109.919 290.933 109.638 290.485 109.638C289.909 109.638 289.334 109.638 288.758 109.638C287.735 109.638 287.756 109.638 287.799 110.696C287.82 110.912 287.863 110.999 288.098 110.977C288.503 110.977 288.908 110.977 289.313 110.977ZM289.291 113.051C289.675 113.051 290.037 113.051 290.421 113.051C290.911 113.051 291.21 112.792 291.231 112.381C291.231 111.971 290.933 111.712 290.442 111.712C289.867 111.712 289.291 111.712 288.716 111.712C287.799 111.712 287.799 111.712 287.799 112.662C287.799 112.965 287.842 113.094 288.183 113.073C288.545 113.029 288.929 113.051 289.291 113.051Z" fill="#9A0303"/>
<path d="M252.713 113.785C251.818 113.785 250.944 113.785 250.049 113.785C249.836 113.785 249.601 113.85 249.622 113.461C249.644 113.181 249.644 112.986 250.006 113.051C250.305 113.116 250.326 112.921 250.326 112.684C250.326 111.928 250.326 111.172 250.326 110.416C250.326 109.465 250.901 108.925 251.839 108.904C252.799 108.904 253.758 108.925 254.696 108.882C255.101 108.86 255.165 109.012 255.165 109.379C255.143 110.437 255.165 111.517 255.143 112.597C255.143 112.878 255.143 113.116 255.527 113.051C255.868 112.986 255.804 113.245 255.825 113.44C255.847 113.656 255.804 113.785 255.527 113.785C254.589 113.764 253.651 113.785 252.713 113.785ZM252.756 113.051C253.225 113.051 253.672 113.029 254.141 113.051C254.397 113.051 254.504 113.008 254.482 112.727C254.461 111.82 254.461 110.912 254.482 109.984C254.482 109.724 254.44 109.616 254.163 109.616C253.374 109.638 252.564 109.616 251.775 109.616C251.306 109.616 251.051 109.876 251.029 110.351C251.008 111.15 251.029 111.928 251.029 112.727C251.029 112.986 251.115 113.051 251.349 113.051C251.797 113.051 252.266 113.051 252.756 113.051Z" fill="#9A0303"/>
<path d="M205.498 113.785C204.603 113.785 203.686 113.785 202.791 113.785C202.535 113.785 202.386 113.764 202.407 113.44C202.429 113.18 202.45 113.008 202.77 113.051C203.089 113.116 203.111 112.921 203.111 112.662C203.089 111.928 203.111 111.171 203.111 110.437C203.111 109.465 203.686 108.925 204.645 108.903C205.583 108.903 206.521 108.925 207.459 108.903C207.822 108.903 207.949 108.968 207.949 109.379C207.928 110.459 207.949 111.56 207.928 112.64C207.928 112.921 207.928 113.137 208.29 113.051C208.61 112.986 208.589 113.202 208.61 113.418C208.632 113.677 208.568 113.785 208.29 113.785C207.331 113.764 206.415 113.785 205.498 113.785ZM205.477 113.051C205.946 113.051 206.436 113.029 206.905 113.051C207.161 113.051 207.225 112.964 207.225 112.727C207.203 111.798 207.203 110.869 207.225 109.94C207.225 109.703 207.161 109.616 206.905 109.616C206.116 109.638 205.306 109.616 204.518 109.616C204.027 109.616 203.772 109.875 203.75 110.372C203.729 111.15 203.75 111.928 203.75 112.705C203.75 113.008 203.878 113.051 204.113 113.029C204.56 113.051 205.029 113.051 205.477 113.051Z" fill="#9A0303"/>
<path d="M218.416 111.841C219.013 110.977 219.589 110.092 220.207 109.228C220.292 109.098 220.335 108.947 220.505 108.904C220.953 108.796 221.124 108.904 221.124 109.379C221.124 110.697 221.124 111.993 221.124 113.31C221.124 113.57 221.187 113.807 220.761 113.786C220.335 113.786 220.42 113.526 220.42 113.289C220.42 112.295 220.42 111.323 220.42 110.178C219.695 111.215 219.077 112.165 218.395 113.159C217.734 112.187 217.074 111.237 216.349 110.157C216.349 111.345 216.349 112.36 216.349 113.397C216.349 113.656 216.306 113.786 216.008 113.786C215.709 113.786 215.645 113.699 215.645 113.397C215.667 112.057 215.645 110.74 215.667 109.4C215.667 109.228 215.496 108.947 215.837 108.904C216.093 108.882 216.37 108.839 216.562 109.141C217.095 109.962 217.649 110.761 218.203 111.582C218.225 111.669 218.246 111.798 218.416 111.841Z" fill="#9A0303"/>
<path d="M82.5269 59.8253C82.5909 60.5813 82.1859 61.2294 81.8448 61.8774C81.4398 62.6335 81.3759 63.3679 81.7382 64.124C82.1646 65.0312 82.5696 65.9601 82.868 66.9106C83.1025 67.645 83.273 68.4011 83.2517 69.1787C83.2517 69.3299 83.2304 69.4811 83.1664 69.6324C83.1238 69.7836 83.0172 69.9348 82.8467 69.9132C82.6761 69.8916 82.6335 69.7404 82.6335 69.6108C82.5483 67.6666 81.3332 66.2193 80.4593 64.6208C79.9264 63.6488 79.8838 62.8279 80.5659 61.9206C81.1414 61.143 81.7169 60.3653 82.0367 59.4365C82.1006 59.2853 82.1859 59.0908 82.399 59.1341C82.6122 59.1773 82.5269 59.4149 82.5483 59.5661C82.5483 59.6309 82.5269 59.6957 82.5269 59.8253Z" fill="#9A0303"/>
<path d="M272.367 113.785C271.685 113.785 271.003 113.764 270.321 113.785C270.044 113.785 269.938 113.742 269.938 113.418C269.959 112.036 269.959 110.653 269.938 109.292C269.938 109.011 270.001 108.903 270.3 108.903C271.664 108.925 273.028 108.925 274.392 108.903C274.712 108.903 274.734 109.011 274.755 109.292C274.776 109.616 274.627 109.638 274.371 109.638C273.241 109.616 272.133 109.638 271.003 109.616C270.705 109.616 270.641 109.703 270.641 109.983C270.641 110.955 270.62 110.955 271.579 110.955C272.304 110.955 273.007 110.977 273.732 110.955C274.051 110.955 274.094 111.063 274.094 111.344C274.094 111.604 274.03 111.69 273.753 111.69C272.858 111.668 271.941 111.69 271.046 111.668C270.79 111.668 270.662 111.69 270.662 112.014C270.662 113.008 270.641 113.008 271.621 113.008C272.559 113.008 273.497 113.029 274.435 113.008C274.755 113.008 274.776 113.137 274.797 113.396C274.797 113.656 274.734 113.764 274.456 113.742C273.71 113.764 273.028 113.785 272.367 113.785Z" fill="#9A0303"/>
<path d="M212.022 113.785C211.34 113.785 210.658 113.785 209.975 113.785C209.698 113.785 209.592 113.742 209.592 113.418C209.613 112.014 209.613 110.631 209.592 109.227C209.592 108.99 209.656 108.903 209.912 108.903C211.297 108.903 212.704 108.925 214.089 108.903C214.43 108.903 214.367 109.076 214.388 109.292C214.409 109.551 214.345 109.659 214.047 109.638C212.917 109.616 211.809 109.638 210.679 109.616C210.359 109.616 210.253 109.703 210.253 110.048C210.274 110.977 210.253 110.977 211.19 110.977C211.894 110.977 212.576 110.999 213.279 110.977C213.578 110.977 213.706 111.02 213.706 111.366C213.706 111.69 213.578 111.712 213.301 111.712C212.405 111.69 211.532 111.712 210.636 111.712C210.38 111.712 210.253 111.733 210.253 112.057C210.253 113.051 210.231 113.051 211.212 113.051C212.15 113.051 213.088 113.072 214.025 113.051C214.345 113.051 214.388 113.159 214.388 113.44C214.388 113.699 214.324 113.807 214.047 113.785C213.386 113.764 212.704 113.785 212.022 113.785Z" fill="#9A0303"/>
<path d="M201.406 111.906C201.406 112.424 201.385 112.943 201.406 113.461C201.406 113.699 201.342 113.785 201.087 113.785C200.873 113.785 200.703 113.785 200.703 113.461C200.703 113.137 200.873 112.662 200.618 112.489C200.383 112.316 199.957 112.424 199.637 112.424C198.955 112.424 198.273 112.424 197.591 112.424C197.356 112.424 197.25 112.489 197.271 112.748C197.292 112.943 197.271 113.159 197.271 113.375C197.271 113.591 197.335 113.807 196.973 113.807C196.631 113.807 196.589 113.677 196.589 113.375C196.61 112.403 196.589 111.409 196.589 110.437C196.589 109.508 197.164 108.925 198.081 108.925C198.699 108.925 199.296 108.925 199.914 108.925C200.788 108.925 201.342 109.486 201.364 110.372C201.406 110.869 201.406 111.387 201.406 111.906ZM198.998 111.711C199.467 111.711 199.957 111.711 200.426 111.711C200.554 111.711 200.724 111.755 200.724 111.539C200.724 111.085 200.746 110.61 200.682 110.156C200.639 109.81 200.362 109.638 200.021 109.638C199.658 109.638 199.317 109.659 198.955 109.638C197.143 109.573 197.314 109.81 197.292 111.366C197.292 111.625 197.356 111.733 197.633 111.711C198.081 111.69 198.529 111.711 198.998 111.711Z" fill="#9A0303"/>
<path d="M184.737 111.863C184.737 111.366 184.737 110.869 184.737 110.372C184.758 109.508 185.334 108.925 186.187 108.925C186.826 108.925 187.444 108.925 188.084 108.925C188.936 108.925 189.512 109.486 189.533 110.329C189.555 111.387 189.533 112.424 189.555 113.483C189.555 113.72 189.491 113.807 189.235 113.807C189.022 113.807 188.851 113.807 188.851 113.483C188.851 113.159 189.022 112.683 188.766 112.511C188.531 112.338 188.105 112.446 187.785 112.446C187.103 112.446 186.421 112.446 185.739 112.446C185.483 112.446 185.398 112.511 185.419 112.77C185.441 112.964 185.419 113.18 185.419 113.396C185.419 113.612 185.483 113.828 185.1 113.828C184.758 113.828 184.716 113.699 184.716 113.396C184.758 112.856 184.737 112.359 184.737 111.863ZM187.146 111.711C187.615 111.711 188.105 111.711 188.574 111.711C188.702 111.711 188.872 111.755 188.872 111.539C188.872 111.085 188.894 110.61 188.83 110.156C188.787 109.832 188.531 109.659 188.212 109.659C187.508 109.659 186.826 109.638 186.123 109.659C185.718 109.681 185.462 109.94 185.462 110.351C185.441 110.718 185.462 111.063 185.462 111.431C185.441 111.668 185.526 111.733 185.76 111.711C186.187 111.69 186.656 111.711 187.146 111.711Z" fill="#9A0303"/>
<path d="M226.367 110.005C225.365 111.15 224.364 112.295 223.362 113.44C223.298 113.504 223.255 113.569 223.191 113.634C222.999 113.893 222.722 113.807 222.488 113.764C222.275 113.72 222.381 113.461 222.381 113.31C222.381 111.992 222.381 110.696 222.381 109.379C222.381 109.098 222.381 108.903 222.765 108.903C223.191 108.903 223.063 109.184 223.063 109.4C223.063 110.48 223.063 111.56 223.063 112.792C223.34 112.489 223.532 112.273 223.703 112.057C224.534 111.107 225.387 110.156 226.218 109.206C226.41 108.99 226.602 108.903 226.879 108.925C227.092 108.925 227.177 108.99 227.177 109.227C227.177 110.653 227.156 112.1 227.177 113.526C227.177 113.807 227.049 113.807 226.836 113.828C226.58 113.85 226.474 113.785 226.474 113.483C226.495 112.532 226.474 111.582 226.474 110.631C226.474 110.437 226.474 110.264 226.474 110.07C226.453 110.027 226.41 110.005 226.367 110.005Z" fill="#9A0303"/>
<path d="M146.155 112.77C147.242 111.539 148.243 110.415 149.245 109.271C149.331 109.184 149.395 109.076 149.48 109.011C149.672 108.817 149.949 108.882 150.162 108.925C150.354 108.968 150.247 109.184 150.247 109.335C150.247 110.675 150.247 112.036 150.247 113.375C150.247 113.613 150.29 113.807 149.927 113.807C149.565 113.807 149.565 113.656 149.565 113.375C149.586 112.424 149.565 111.474 149.565 110.524C149.565 110.372 149.629 110.178 149.458 109.983C148.67 110.891 147.902 111.755 147.135 112.64C146.879 112.943 146.602 113.224 146.368 113.548C146.155 113.85 145.856 113.829 145.6 113.764C145.345 113.699 145.472 113.396 145.472 113.224C145.451 111.928 145.472 110.632 145.451 109.335C145.451 109.055 145.472 108.903 145.813 108.903C146.176 108.903 146.133 109.098 146.133 109.314C146.155 110.415 146.155 111.517 146.155 112.77Z" fill="#9A0303"/>
<path d="M112.711 112.77C113.82 111.517 114.822 110.394 115.823 109.271C115.909 109.184 115.973 109.076 116.058 109.011C116.271 108.817 116.527 108.882 116.74 108.947C116.91 108.99 116.825 109.206 116.825 109.357C116.825 110.696 116.825 112.057 116.825 113.397C116.825 113.634 116.825 113.807 116.484 113.807C116.186 113.807 116.122 113.699 116.122 113.418C116.143 112.295 116.122 111.193 116.122 110.048C115.866 110.07 115.802 110.243 115.717 110.351C114.779 111.409 113.862 112.468 112.946 113.526C112.797 113.677 112.669 113.785 112.434 113.807C112.093 113.829 112.008 113.721 112.008 113.375C112.029 112.036 112.029 110.675 112.008 109.335C112.008 109.033 112.05 108.925 112.392 108.903C112.775 108.903 112.69 109.119 112.69 109.335C112.711 110.416 112.711 111.517 112.711 112.77Z" fill="#9A0303"/>
<path d="M232.591 109.897C231.482 111.15 230.481 112.295 229.479 113.461C229.415 113.548 229.351 113.634 229.266 113.699C229.052 113.893 228.797 113.829 228.584 113.764C228.392 113.721 228.498 113.505 228.498 113.353C228.498 112.014 228.498 110.653 228.498 109.314C228.498 109.055 228.541 108.925 228.861 108.903C229.18 108.903 229.202 109.055 229.202 109.292C229.18 110.243 229.202 111.193 229.202 112.144C229.202 112.316 229.202 112.468 229.202 112.77C230.289 111.539 231.291 110.416 232.293 109.292C232.378 109.206 232.442 109.119 232.527 109.011C232.719 108.795 232.975 108.882 233.209 108.903C233.444 108.947 233.316 109.184 233.316 109.335C233.316 110.675 233.316 111.992 233.316 113.332C233.316 113.591 233.337 113.785 232.975 113.764C232.57 113.764 232.634 113.526 232.634 113.289C232.634 112.36 232.634 111.431 232.634 110.502C232.634 110.372 232.612 110.2 232.591 109.897Z" fill="#9A0303"/>
<path d="M175.933 112.663C176.53 111.993 177.106 111.323 177.681 110.654C178.129 110.157 178.576 109.66 178.981 109.142C179.216 108.861 179.493 108.861 179.77 108.947C180.005 109.012 179.877 109.293 179.877 109.487C179.898 110.805 179.877 112.101 179.898 113.419C179.898 113.699 179.834 113.807 179.536 113.807C179.237 113.807 179.173 113.699 179.173 113.419C179.195 112.295 179.173 111.15 179.173 109.898C178.342 110.87 177.596 111.734 176.85 112.619C176.573 112.922 176.296 113.224 176.061 113.57C175.891 113.807 175.699 113.829 175.443 113.829C175.23 113.829 175.145 113.786 175.145 113.548C175.145 112.123 175.166 110.697 175.145 109.25C175.145 108.99 175.251 108.947 175.486 108.947C175.72 108.947 175.869 108.969 175.848 109.271C175.827 110.243 175.848 111.194 175.848 112.166C175.848 112.274 175.805 112.447 175.933 112.663Z" fill="#9A0303"/>
<path d="M152.422 112.663C153.019 111.993 153.595 111.323 154.17 110.654C154.618 110.157 155.044 109.638 155.492 109.141C155.599 109.033 155.662 108.904 155.854 108.904C156.195 108.882 156.409 108.904 156.387 109.379C156.345 110.718 156.366 112.058 156.387 113.419C156.387 113.699 156.323 113.807 156.025 113.807C155.726 113.807 155.663 113.678 155.663 113.419C155.684 112.295 155.663 111.15 155.663 109.898C154.831 110.87 154.085 111.734 153.339 112.619C153.062 112.922 152.785 113.224 152.55 113.57C152.38 113.807 152.188 113.829 151.932 113.829C151.719 113.829 151.634 113.786 151.634 113.548C151.634 112.122 151.655 110.697 151.634 109.249C151.634 108.99 151.74 108.947 151.975 108.947C152.209 108.947 152.359 108.969 152.337 109.271C152.316 110.243 152.337 111.194 152.337 112.166C152.337 112.274 152.273 112.446 152.422 112.663Z" fill="#9A0303"/>
<path d="M171.564 108.903C171.884 108.903 172.203 108.903 172.544 108.903C173.29 108.925 173.887 109.465 173.93 110.221C173.973 110.955 173.973 111.712 173.93 112.446C173.887 113.245 173.312 113.764 172.523 113.785C171.862 113.785 171.202 113.785 170.541 113.785C169.752 113.764 169.198 113.267 169.177 112.489C169.134 111.755 169.134 110.999 169.177 110.264C169.219 109.465 169.773 108.947 170.583 108.925C170.882 108.903 171.223 108.903 171.564 108.903ZM171.521 109.638C171.202 109.638 170.882 109.638 170.562 109.638C170.114 109.638 169.859 109.897 169.837 110.329C169.816 110.999 169.816 111.668 169.837 112.338C169.859 112.792 170.093 113.051 170.541 113.051C171.202 113.051 171.862 113.072 172.523 113.051C172.992 113.051 173.248 112.792 173.248 112.316C173.269 111.668 173.269 110.999 173.248 110.351C173.227 109.897 172.992 109.659 172.544 109.638C172.203 109.616 171.862 109.638 171.521 109.638Z" fill="#9A0303"/>
<path d="M129.891 113.785C129.55 113.785 129.209 113.785 128.868 113.785C128.122 113.763 127.568 113.267 127.525 112.51C127.483 111.754 127.483 110.998 127.525 110.242C127.568 109.465 128.122 108.946 128.889 108.925C129.55 108.903 130.211 108.925 130.872 108.925C131.66 108.925 132.257 109.486 132.3 110.264C132.343 110.977 132.343 111.711 132.3 112.446C132.257 113.267 131.682 113.807 130.85 113.807C130.552 113.785 130.211 113.785 129.891 113.785ZM129.913 109.637C129.593 109.637 129.273 109.637 128.953 109.637C128.484 109.637 128.229 109.897 128.207 110.35C128.186 110.998 128.186 111.668 128.207 112.316C128.229 112.791 128.484 113.051 128.953 113.051C129.593 113.051 130.254 113.051 130.893 113.051C131.362 113.051 131.639 112.791 131.639 112.338C131.66 111.69 131.66 111.02 131.639 110.372C131.618 109.897 131.362 109.659 130.893 109.637C130.552 109.616 130.232 109.637 129.913 109.637Z" fill="#9A0303"/>
<path d="M259.172 113.786C258.81 113.786 258.448 113.807 258.107 113.786C257.382 113.764 256.849 113.246 256.806 112.511C256.764 111.755 256.764 110.999 256.806 110.243C256.849 109.465 257.403 108.925 258.171 108.925C258.853 108.904 259.535 108.904 260.217 108.925C260.963 108.947 261.56 109.487 261.581 110.243C261.624 110.978 261.624 111.734 261.581 112.468C261.539 113.246 260.942 113.764 260.153 113.786C259.812 113.786 259.492 113.786 259.172 113.786ZM259.151 113.051C259.471 113.051 259.791 113.051 260.11 113.051C260.601 113.03 260.856 112.792 260.878 112.295C260.899 111.669 260.878 111.064 260.878 110.437C260.878 109.897 260.622 109.66 260.089 109.638C259.471 109.638 258.831 109.638 258.213 109.638C257.744 109.638 257.467 109.876 257.446 110.351C257.425 111.021 257.425 111.69 257.446 112.36C257.467 112.792 257.723 113.051 258.171 113.051C258.512 113.051 258.831 113.051 259.151 113.051Z" fill="#9A0303"/>
<path d="M248.706 110.826C248.706 111.323 248.727 111.82 248.706 112.316C248.684 113.202 248.109 113.764 247.235 113.764C246.617 113.764 245.998 113.764 245.402 113.764C244.783 113.742 244.314 113.397 244.123 112.835C244.08 112.705 243.952 112.489 244.123 112.446C244.314 112.403 244.613 112.273 244.741 112.576C244.911 112.986 245.231 113.051 245.615 113.051C246.169 113.029 246.702 113.051 247.256 113.051C247.853 113.029 248.258 112.381 248.023 111.82C247.938 111.625 247.789 111.712 247.682 111.712C246.915 111.712 246.148 111.712 245.38 111.712C244.506 111.712 243.952 111.15 243.909 110.264C243.888 109.919 243.931 109.573 243.909 109.227C243.888 108.925 244.037 108.903 244.272 108.903C244.549 108.882 244.634 108.99 244.613 109.249C244.592 109.551 244.592 109.876 244.613 110.178C244.634 110.718 244.869 110.977 245.402 110.977C246.169 110.977 246.936 110.956 247.704 110.977C248.002 110.977 248.066 110.869 248.066 110.588C248.045 110.135 248.066 109.681 248.066 109.249C248.066 108.99 248.109 108.882 248.386 108.882C248.684 108.882 248.769 108.968 248.748 109.271C248.684 109.789 248.706 110.308 248.706 110.826Z" fill="#9A0303"/>
<path d="M121.641 111.345C121.641 110.675 121.663 110.005 121.641 109.336C121.641 109.033 121.684 108.904 122.025 108.925C123.027 108.947 124.029 108.925 125.031 108.947C125.819 108.947 126.374 109.508 126.416 110.308C126.438 110.588 126.438 110.869 126.416 111.129C126.374 111.885 125.819 112.446 125.052 112.468C124.306 112.489 123.56 112.511 122.814 112.468C122.366 112.446 122.238 112.597 122.302 113.008C122.324 113.137 122.302 113.289 122.302 113.418C122.324 113.656 122.324 113.829 121.982 113.829C121.62 113.829 121.62 113.656 121.62 113.397C121.663 112.684 121.641 112.014 121.641 111.345ZM123.688 111.712C124.178 111.712 124.583 111.712 124.988 111.712C125.478 111.712 125.734 111.474 125.755 110.956C125.755 110.804 125.755 110.653 125.755 110.48C125.734 109.876 125.521 109.638 124.924 109.638C124.263 109.638 123.602 109.681 122.942 109.616C122.409 109.573 122.26 109.746 122.324 110.264C122.366 110.718 122.174 111.345 122.409 111.604C122.665 111.906 123.304 111.669 123.688 111.712Z" fill="#9A0303"/>
<path d="M106.103 111.344C106.103 110.653 106.124 109.962 106.103 109.271C106.103 108.968 106.188 108.903 106.486 108.903C107.509 108.925 108.533 108.903 109.556 108.903C109.769 108.903 109.961 108.968 110.153 109.055C110.835 109.4 111.133 110.286 110.899 111.344C110.749 112.014 110.174 112.424 109.428 112.424C108.682 112.424 107.936 112.446 107.19 112.424C106.891 112.424 106.806 112.511 106.827 112.792C106.849 112.986 106.827 113.18 106.827 113.353C106.827 113.569 106.87 113.785 106.508 113.785C106.166 113.785 106.124 113.634 106.124 113.353C106.103 112.684 106.103 112.014 106.103 111.344ZM108.277 111.712C108.66 111.712 109.065 111.712 109.449 111.712C109.47 111.712 109.492 111.712 109.492 111.712C109.918 111.712 110.153 111.474 110.195 111.042C110.217 110.847 110.217 110.631 110.195 110.415C110.174 109.875 109.939 109.638 109.407 109.638C108.66 109.638 107.914 109.659 107.168 109.616C106.806 109.595 106.742 109.746 106.763 110.048C106.785 110.437 106.785 110.847 106.763 111.236C106.742 111.582 106.827 111.733 107.19 111.69C107.573 111.668 107.914 111.712 108.277 111.712Z" fill="#9A0303"/>
<path d="M74.5977 91.4716C74.6403 90.9099 74.7256 90.3915 74.96 89.9594C75.365 89.1818 76.239 88.9658 77.0277 89.441C77.5819 89.765 78.1148 90.1107 78.7329 90.2835C79.2019 90.4131 79.2445 90.6507 78.8182 90.9099C78.264 91.2555 77.6672 91.5796 77.0916 91.8604C76.6014 92.098 76.1537 92.3788 75.6421 92.5516C75.0879 92.746 74.9174 92.7028 74.7469 92.1412C74.6616 91.9252 74.619 91.666 74.5977 91.4716Z" fill="#9A0303"/>
<path d="M239.818 111.345C239.242 110.913 238.73 110.524 238.219 110.135C238.027 109.984 237.878 109.163 238.006 108.99C238.134 108.817 238.325 108.925 238.475 108.904C238.666 108.882 238.709 109.012 238.688 109.163C238.603 109.573 238.858 109.746 239.135 109.941C239.562 110.243 239.945 110.826 240.414 110.805C240.841 110.783 241.246 110.243 241.651 109.941C241.928 109.746 242.184 109.573 242.098 109.163C242.034 108.861 242.269 108.904 242.439 108.882C242.631 108.882 242.78 108.861 242.802 109.163C242.823 109.66 242.78 110.049 242.29 110.329C241.843 110.589 241.438 110.956 240.969 111.323C241.48 111.734 241.992 112.101 242.482 112.49C242.738 112.684 242.93 113.354 242.78 113.634C242.674 113.851 242.482 113.721 242.333 113.742C242.226 113.764 242.056 113.742 242.098 113.57C242.248 113.008 241.8 112.835 241.459 112.576C241.118 112.295 240.755 111.842 240.393 111.842C240.031 111.842 239.668 112.295 239.327 112.576C239.008 112.835 238.56 113.008 238.688 113.57C238.73 113.742 238.581 113.764 238.453 113.742C238.304 113.721 238.112 113.851 238.006 113.634C237.878 113.354 238.048 112.662 238.304 112.49C238.794 112.144 239.285 111.777 239.818 111.345Z" fill="#9A0303"/>
<path d="M99.9639 111.323C99.9639 110.631 99.9852 109.94 99.9639 109.249C99.9639 108.99 100.028 108.903 100.305 108.903C101.69 108.925 103.076 108.925 104.44 108.903C104.675 108.903 104.76 108.968 104.76 109.227C104.739 110.653 104.739 112.057 104.76 113.483C104.76 113.742 104.675 113.807 104.44 113.807C104.206 113.807 104.057 113.785 104.057 113.483C104.078 112.36 104.035 111.236 104.078 110.113C104.099 109.703 103.95 109.638 103.588 109.638C102.778 109.659 101.946 109.659 101.136 109.638C100.753 109.616 100.603 109.703 100.625 110.135C100.667 111.193 100.646 112.273 100.646 113.353C100.646 113.569 100.731 113.828 100.326 113.828C99.9639 113.828 99.9639 113.656 99.9639 113.375C99.9639 112.684 99.9639 111.992 99.9639 111.323Z" fill="#9A0303"/>
<path d="M280.68 112.468C280.594 113.267 280.104 113.764 279.316 113.764C278.633 113.786 277.951 113.786 277.269 113.764C276.502 113.743 275.948 113.224 275.905 112.447C275.862 111.712 275.862 110.956 275.905 110.222C275.948 109.444 276.502 108.925 277.269 108.904C277.973 108.882 278.655 108.882 279.358 108.904C279.912 108.925 280.445 109.314 280.595 109.811C280.637 109.941 280.765 110.157 280.573 110.222C280.403 110.265 280.083 110.394 279.976 110.135C279.763 109.66 279.401 109.617 278.974 109.638C278.42 109.66 277.887 109.638 277.333 109.638C276.822 109.638 276.566 109.876 276.544 110.373C276.523 111.021 276.523 111.69 276.544 112.339C276.566 112.792 276.8 113.051 277.248 113.051C277.909 113.051 278.569 113.051 279.23 113.051C279.465 113.051 279.657 112.987 279.827 112.792C280.211 112.425 280.211 112.403 280.68 112.468Z" fill="#9A0303"/>
<path d="M138.311 112.447C138.226 113.267 137.735 113.764 136.968 113.764C136.286 113.786 135.604 113.786 134.922 113.764C134.154 113.743 133.6 113.224 133.557 112.447C133.515 111.712 133.515 110.956 133.557 110.222C133.6 109.444 134.154 108.904 134.922 108.904C135.625 108.882 136.307 108.882 137.011 108.904C137.565 108.925 138.098 109.293 138.247 109.811C138.29 109.941 138.417 110.157 138.247 110.222C138.076 110.286 137.757 110.394 137.65 110.135C137.437 109.617 137.032 109.617 136.584 109.617C136.03 109.617 135.497 109.617 134.943 109.617C134.474 109.617 134.218 109.876 134.197 110.351C134.176 110.999 134.176 111.669 134.197 112.317C134.218 112.792 134.474 113.03 134.943 113.03C135.582 113.03 136.243 113.03 136.883 113.03C137.138 113.03 137.416 112.965 137.501 112.727C137.693 112.295 138.012 112.447 138.311 112.447Z" fill="#9A0303"/>
<path d="M144.258 112.468C144.173 113.267 143.682 113.764 142.894 113.764C142.212 113.786 141.529 113.786 140.847 113.764C140.08 113.743 139.526 113.224 139.483 112.447C139.441 111.712 139.441 110.956 139.483 110.222C139.526 109.444 140.08 108.925 140.847 108.904C141.551 108.882 142.233 108.882 142.936 108.904C143.491 108.925 144.023 109.314 144.173 109.811C144.215 109.941 144.343 110.157 144.151 110.222C143.981 110.265 143.661 110.394 143.554 110.135C143.341 109.66 142.979 109.617 142.553 109.638C141.998 109.638 141.466 109.638 140.911 109.638C140.4 109.638 140.144 109.876 140.123 110.373C140.101 111.021 140.101 111.69 140.123 112.339C140.144 112.792 140.378 113.051 140.826 113.051C141.487 113.051 142.148 113.051 142.808 113.051C143.043 113.051 143.235 112.987 143.405 112.792C143.789 112.425 143.768 112.403 144.258 112.468Z" fill="#9A0303"/>
<path d="M162.462 112.468C162.377 113.288 161.865 113.764 161.055 113.785C160.416 113.785 159.755 113.785 159.115 113.785C158.284 113.785 157.73 113.245 157.708 112.403C157.687 111.69 157.687 110.999 157.708 110.286C157.751 109.465 158.305 108.925 159.137 108.903C159.797 108.903 160.458 108.903 161.119 108.903C161.716 108.903 162.249 109.292 162.419 109.832C162.462 109.962 162.59 110.178 162.398 110.221C162.227 110.264 161.908 110.394 161.801 110.135C161.588 109.638 161.226 109.616 160.799 109.638C160.245 109.638 159.712 109.638 159.158 109.638C158.646 109.638 158.39 109.875 158.369 110.372C158.348 111.02 158.348 111.69 158.369 112.338C158.39 112.813 158.646 113.051 159.115 113.051C159.755 113.051 160.373 113.051 161.012 113.051C161.268 113.051 161.545 113.008 161.631 112.792C161.822 112.36 162.121 112.403 162.462 112.468Z" fill="#9A0303"/>
<path d="M73.4685 75.9827C73.7456 76.4148 74.1293 76.5876 74.4916 76.8036C74.8966 77.0628 74.8966 77.2572 74.5129 77.5164C74.0227 77.8405 73.5324 77.8837 72.9995 77.538C72.5945 77.2788 72.2535 76.9548 71.9124 76.6092C71.5927 76.3068 71.6566 76.0043 71.9977 75.7451C72.8929 75.0971 73.7882 74.4058 74.8327 73.9954C75.1098 73.8874 75.3869 73.8442 75.664 73.9522C76.1543 74.125 76.1756 74.1898 75.7919 74.5138C75.6853 74.6003 75.6214 74.7083 75.6001 74.8595C75.5787 75.0323 75.5574 75.2051 75.5148 75.3779C75.3443 76.3284 75.1311 76.458 74.2572 76.1772C74.0227 76.0908 73.8095 75.9179 73.4685 75.9827Z" fill="#9A0303"/>
<path d="M195.651 108.968C194.905 109.724 194.201 110.437 193.498 111.128C193.327 111.301 193.327 111.388 193.498 111.56C194.201 112.252 194.905 112.965 195.651 113.721C195.139 113.807 194.713 113.872 194.35 113.418C193.903 112.9 193.391 112.425 192.922 111.949C192.816 111.841 192.709 111.712 192.496 111.69C191.579 111.604 191.579 111.604 191.579 112.533C191.579 112.835 191.579 113.116 191.579 113.418C191.579 113.656 191.579 113.807 191.26 113.785C190.983 113.785 190.876 113.721 190.876 113.418C190.897 112.036 190.897 110.653 190.876 109.271C190.876 108.968 190.961 108.904 191.26 108.904C191.558 108.904 191.579 109.033 191.579 109.271C191.558 109.746 191.579 110.2 191.579 110.675C191.579 110.912 191.643 110.977 191.899 110.999C192.432 111.042 192.837 110.934 193.199 110.502C193.519 110.092 193.945 109.789 194.265 109.379C194.606 108.904 195.033 108.817 195.651 108.968Z" fill="#9A0303"/>
<path d="M168.452 113.721C167.813 113.872 167.365 113.743 166.982 113.267C166.598 112.792 166.129 112.382 165.681 111.95C165.553 111.842 165.468 111.712 165.255 111.712C164.338 111.647 164.338 111.626 164.338 112.555C164.338 112.835 164.338 113.116 164.338 113.375C164.338 113.613 164.36 113.786 164.019 113.786C163.656 113.786 163.656 113.613 163.656 113.354C163.656 112.014 163.678 110.654 163.656 109.314C163.656 109.012 163.72 108.904 164.04 108.904C164.424 108.904 164.338 109.12 164.338 109.336C164.338 109.768 164.36 110.2 164.338 110.632C164.317 110.934 164.445 110.978 164.722 110.999C165.234 111.042 165.617 110.891 165.958 110.481C166.278 110.092 166.683 109.746 167.024 109.379C167.557 108.839 167.557 108.839 168.41 108.969C167.728 109.66 167.088 110.351 166.406 110.978C166.065 111.28 166.129 111.431 166.427 111.712C167.109 112.36 167.749 113.03 168.452 113.721Z" fill="#9A0303"/>
<path d="M78.7111 59.8251C78.6471 60.2571 78.6897 60.7756 78.37 61.186C78.1995 61.402 77.9224 61.5748 77.8371 61.2292C77.4961 60.0843 76.4729 59.3931 76.0679 58.3346C75.7908 57.6217 75.7268 56.8441 76.1532 56.1528C76.3876 55.7424 76.6861 55.7424 76.8353 56.1744C77.1124 57.0169 77.7092 57.6001 78.2208 58.2266C78.5619 58.6802 78.6897 59.1986 78.7111 59.8251Z" fill="#9A0303"/>
<path d="M81.0775 47.9438C81.1415 48.4622 80.907 48.9375 80.7578 49.3911C80.5446 50.0608 80.6938 50.6224 80.9923 51.2056C81.1841 51.5729 81.3973 51.9617 81.4612 52.3937C81.4825 52.5881 81.4825 52.7825 81.312 52.9122C81.1202 53.0634 80.9923 52.8473 80.8857 52.7609C80.3315 52.2857 79.7773 51.7889 79.2657 51.2704C78.8607 50.86 78.7967 50.2768 79.0525 49.7583C79.3936 49.1103 79.7133 48.4622 80.0544 47.8142C80.0757 47.7926 80.0757 47.7494 80.097 47.7278C80.2675 47.4686 80.3741 47.0582 80.7791 47.1662C81.1202 47.2526 81.0988 47.6198 81.0775 47.9438Z" fill="#9A0303"/>
<path d="M283.75 108.903C284.453 108.903 285.157 108.925 285.839 108.903C286.137 108.903 286.159 109.033 286.159 109.271C286.159 109.508 286.137 109.659 285.839 109.638C285.37 109.616 284.922 109.638 284.453 109.616C284.176 109.595 284.069 109.681 284.091 109.983C284.112 111.107 284.091 112.23 284.112 113.353C284.112 113.634 284.091 113.785 283.728 113.785C283.387 113.785 283.409 113.612 283.409 113.375C283.409 112.273 283.409 111.171 283.409 110.07C283.409 109.746 283.345 109.595 283.004 109.638C282.62 109.681 282.215 109.638 281.831 109.638C281.597 109.638 281.341 109.724 281.341 109.292C281.32 108.817 281.597 108.925 281.853 108.925C282.492 108.903 283.11 108.903 283.75 108.903Z" fill="#9A0303"/>
<path d="M78.3916 88.123C78.1997 88.1662 77.9866 88.231 77.7947 88.231C77.6455 88.231 77.3897 88.231 77.475 87.9286C77.6455 87.3237 79.2655 86.4813 79.8198 86.7189C79.9476 86.7621 80.0542 86.8701 80.1608 86.9349C80.3953 87.0861 80.6937 87.2589 80.5445 87.5614C80.3953 87.8854 80.2461 88.2526 79.7984 88.2958C79.2869 88.3822 78.8605 88.1878 78.3916 88.123Z" fill="#9A0303"/>
<path d="M177.533 108.904C176.936 108.904 176.382 108.537 176.19 107.997C176.147 107.867 176.019 107.651 176.19 107.586C176.382 107.521 176.616 107.457 176.808 107.673C177.405 108.407 177.639 108.386 178.279 107.651C178.449 107.457 178.705 107.521 178.875 107.586C179.067 107.651 178.918 107.867 178.875 107.975C178.684 108.537 178.151 108.904 177.533 108.904Z" fill="#9A0303"/>
<path d="M154.021 108.904C153.424 108.904 152.87 108.558 152.657 107.997C152.614 107.867 152.508 107.651 152.657 107.586C152.849 107.521 153.105 107.435 153.296 107.694C153.765 108.364 154.298 108.364 154.725 107.694C154.895 107.413 155.172 107.521 155.343 107.565C155.577 107.629 155.385 107.867 155.343 107.997C155.151 108.558 154.618 108.904 154.021 108.904Z" fill="#9A0303"/>
</g>
<defs>
<clipPath id="clip0">
<rect width="266.769" height="85.2178" fill="white" transform="translate(25.166 33.7305)"/>
</clipPath>
</defs>
</svg>
