<svg width="258" height="128" viewBox="0 0 258 128" fill="none" xmlns="http://www.w3.org/2000/svg">
<path d="M117.213 42.6371L129.587 9.66875C130.148 9.04782 130.148 8.16078 129.705 7.48071C129.262 6.77108 128.376 6.41626 127.372 6.41626H5.46343V2.09933C5.46343 0.946177 4.22308 0 2.68741 0C1.12222 0 0 0.975745 0 2.09933V125.871C0 127.024 1.24035 127.97 2.68741 127.97C4.13448 127.97 5.37483 126.995 5.37483 125.871V78.9466H127.254C128.258 78.9466 129.144 78.5031 129.587 77.7935C130.03 77.0839 130.03 76.2855 129.468 75.6054L117.213 42.6371Z" fill="#4683C6"/>
<path d="M5.46387 74.6297V10.6445H124.33L113.463 41.5136C112.901 42.2232 112.901 43.1102 113.463 43.7903L124.212 74.6593H5.46387V74.6297Z" fill="white"/>
<path fill-rule="evenodd" clip-rule="evenodd" d="M30.0647 17.0312C31.1574 17.12 32.191 17.5635 33.136 18.1253C33.7562 18.3914 34.2878 18.7758 34.7898 19.2489C34.3764 19.8402 33.8153 20.3429 33.2542 20.7864C35.8235 21.4369 38.4223 20.7273 40.9916 20.4021C42.793 20.1655 44.6535 20.6682 46.2187 21.5553C46.9866 21.9692 47.4886 22.6787 48.1383 23.2405C48.8175 23.8319 49.3491 24.6007 50.1465 25.0738C51.0029 25.5468 51.8593 26.0496 52.8339 26.1679C52.9225 25.2217 52.5386 24.2163 52.893 23.2997C53.2178 23.3292 53.6017 23.2997 53.8675 23.5066C54.9307 24.4824 56.2596 25.3399 56.6435 26.8183C56.2301 27.0548 55.7871 27.2323 55.3441 27.3801C56.2006 27.6166 57.057 27.7645 57.9429 27.7645C58.2383 28.6812 57.7362 29.5385 57.057 30.1003C56.3187 29.3907 55.4918 28.7106 54.7239 28.001C54.9011 28.5332 54.9602 29.095 54.8716 29.6568C53.4541 29.6272 52.0365 28.9472 51.121 27.9123C50.7962 27.4096 51.3278 26.9365 51.6822 26.6409C50.6485 26.3156 49.6149 25.8721 48.788 25.1329C48.8471 25.4286 48.8766 25.7243 48.9652 26.0199C49.2605 26.286 49.6149 26.434 49.9102 26.7297C50.4713 27.528 50.0579 28.7993 49.1424 29.1542C48.7289 29.3907 48.3155 29.1247 47.9611 28.9473C46.9275 30.2187 45.3918 30.8987 43.8266 31.2535C44.6535 31.9927 45.569 32.6433 46.455 33.2938C47.3705 33.9443 48.1383 34.979 49.3491 34.979C49.7921 35.0679 50.3827 34.8312 50.7076 35.2156C50.5895 35.3043 50.3532 35.5113 50.2351 35.6C50.5599 35.9252 50.8848 36.3097 50.6485 36.8124C50.6485 37.3742 50.0284 37.4037 49.6149 37.2262C48.788 37.0192 48.3155 36.2506 47.7249 35.6888C46.7503 34.6539 45.569 33.8259 44.3582 33.1163C45.067 35.6591 45.6281 38.2611 46.4254 40.7744C45.4509 41.0405 44.4763 41.3363 43.4722 41.5728C43.7971 43.1695 44.2696 44.7661 44.4763 46.3923C45.3032 46.5401 46.1892 46.6289 46.898 47.1019C47.1637 47.3089 47.5181 47.8411 47.0752 48.0481C46.1597 48.4029 45.1556 48.3143 44.2105 48.3143C43.6199 48.3439 43.1179 47.8116 43.1179 47.2202C43.1179 45.3574 42.6453 43.5243 42.35 41.6911C41.6708 41.6615 40.962 41.6319 40.2828 41.6023C39.9875 43.1103 39.5445 44.5887 39.2787 46.0966C39.1606 46.5993 39.4264 47.0725 39.3673 47.5456C39.3082 47.9299 38.9538 48.2255 38.5404 48.2255C37.5954 48.2551 36.6208 48.3438 35.6758 48.2255C35.1442 48.1368 34.7898 47.2794 35.3214 46.9542C36.1188 46.5402 37.0638 46.481 37.9202 46.274C38.1565 44.6182 38.6585 43.0216 39.072 41.3954C37.6544 40.9815 36.355 40.3013 35.0556 39.6213C36.0006 36.8715 37.0933 34.1807 37.9498 31.4014C36.798 30.9579 35.5872 30.5143 34.7012 29.6272C34.1106 29.0654 33.6676 28.3854 33.2542 27.7053C31.9252 28.888 30.3305 29.716 28.7062 30.4256C28.8539 31.3422 28.972 32.2588 29.1197 33.1754C28.2928 33.5598 27.4068 33.6485 26.5504 33.8555C26.9343 35.2452 27.3478 36.6644 27.7021 38.0541C27.8498 38.3794 27.525 38.5568 27.3182 38.7342C27.3773 39.8873 27.584 41.011 27.7317 42.1642C27.2296 42.2824 26.7276 42.4007 26.2551 42.5485C26.4618 43.879 26.6685 45.2097 26.7571 46.5401C27.3773 46.5107 27.9975 46.3924 28.6472 46.422C29.2378 46.5107 29.7989 47.0132 29.9466 47.6046C29.8284 48.196 29.2083 48.4916 28.6767 48.5508C27.8793 48.6691 27.0524 48.6395 26.2846 48.3438C25.6349 48.0777 25.4577 47.309 25.3986 46.6585C25.251 45.2688 25.2805 43.8495 25.2215 42.4302C24.7489 42.4893 24.2764 42.5486 23.8039 42.6077C23.7449 42.0163 23.6267 41.4249 23.42 40.8631C23.1542 41.5136 23.1247 42.2528 23.0361 42.9328C22.5636 42.9921 22.0615 43.0807 21.589 43.1694C21.5299 44.7661 21.7662 46.3627 21.589 47.9298C20.8802 48.7873 19.6399 48.669 18.6358 48.6395C18.1042 48.5803 17.2773 48.4621 17.3069 47.7524C17.2773 47.4568 17.5431 47.3386 17.7794 47.2794C18.6653 47.0133 19.5513 46.9245 20.4668 46.8358C20.5259 45.6236 20.644 44.4112 20.7031 43.2285C20.2305 43.2582 19.7876 43.2878 19.3446 43.3172C19.2264 42.4007 19.2855 41.4249 19.1379 40.5084C19.0197 40.4788 18.7835 40.39 18.6653 40.3309C18.6949 38.9116 18.7835 37.5219 18.8425 36.1026C18.5177 36.3393 18.1928 36.6644 17.7794 36.6644C17.1887 36.5757 16.8934 36.014 16.5095 35.6296C15.8598 36.221 15.2101 36.8123 14.5604 37.3741C14.1765 37.6993 14.0583 38.2316 13.6154 38.4977C13.5858 38.3498 13.5268 38.0542 13.5268 37.8768C12.9066 37.8472 12.2569 37.8768 11.6367 37.729C11.6367 37.6994 11.6367 37.6107 11.6367 37.5811C12.2864 37.1967 12.8771 36.5758 13.7335 36.694C14.5604 36.1913 15.2101 35.4226 15.8598 34.7129C15.5349 34.0624 15.8598 33.3824 16.3914 32.9684C17.0706 32.3771 17.8384 31.8448 18.6653 31.49C17.5431 30.8987 16.3618 30.2186 15.6826 29.1246C15.1806 29.2133 14.5604 29.4203 14.1174 29.095C13.4086 28.6219 13.3496 27.587 13.704 26.8478C13.9402 26.3747 14.4423 26.1382 14.8852 25.9312C15.2692 24.3641 16.5095 23.1518 17.927 22.4718C17.6908 22.3239 17.4841 22.1466 17.3069 21.9396C17.6613 21.9692 18.0452 22.1465 18.4291 22.0282C18.3996 21.703 18.0747 21.5257 17.927 21.2596C18.3996 21.2004 18.9016 21.289 19.3741 21.3778C19.1969 20.9342 18.9607 20.5203 18.6949 20.1063C19.2264 20.4316 19.6694 20.8455 20.0829 21.289C20.201 21.0821 20.3191 20.9048 20.4373 20.6978C20.5259 20.9343 20.6145 21.1412 20.7031 21.3778C21.087 21.0821 21.4118 20.7273 21.7071 20.3724C21.6481 20.7568 21.5004 21.1412 21.2937 21.4665C22.8884 21.4073 24.5717 21.4666 25.9893 22.2353C26.7276 22.6197 27.3478 23.211 27.9089 23.8319C28.529 23.7432 29.2673 23.9502 29.5627 24.5711C30.1533 25.5174 29.5922 27.0252 28.4109 27.0844C28.1156 28.001 27.6431 28.888 26.9934 29.6272C27.4659 29.4498 27.9679 29.1246 28.4995 29.3611C29.8875 28.7698 31.246 28.0897 32.3387 27.0252C32.7226 26.6409 32.9293 26.1086 33.4314 25.9017C33.7562 25.7834 34.0515 26.0791 34.1697 26.3452C34.908 28.2671 36.5322 29.9229 38.5404 30.4847C37.5363 29.7751 36.5913 28.9177 36.0597 27.7941C35.7053 27.0549 35.6463 26.1973 35.6758 25.399C35.2033 24.8963 34.465 24.305 34.7603 23.5066C34.9375 22.6196 35.912 22.2945 36.7094 22.3832C36.7685 22.2945 36.8866 22.1465 36.9457 22.0578C35.7349 22.2057 34.524 22.117 33.3723 21.7621C33.52 22.2648 33.6381 22.7674 33.7562 23.2701C32.2796 23.4179 30.5963 23.4771 29.3264 22.5605C29.6513 21.8804 30.1533 21.3187 30.7439 20.8456C29.9761 20.9343 29.2378 20.9638 28.47 21.0525C28.6767 20.2542 28.9425 19.4558 29.1492 18.6575C29.858 19.101 30.5667 19.5741 31.2755 20.0472C30.7144 19.0123 29.858 18.1253 30.0647 17.0312ZM31.1574 18.1549C31.1869 18.3322 31.2165 18.4801 31.2755 18.6575C31.6299 19.1601 31.8957 19.7811 32.4863 20.0472C32.6045 19.9585 32.7521 19.8402 32.8702 19.7515C32.9884 19.6924 33.1951 19.5741 33.2837 19.515C32.6931 18.894 31.8957 18.5392 31.2165 18.007C31.1869 17.5339 30.7144 18.2141 31.1574 18.1549ZM31.1279 21.4074C30.8325 21.6144 30.5372 21.8213 30.2419 22.0282L30.1533 22.0578C30.301 22.2944 30.7735 22.4718 31.0393 22.2944H31.2755C31.689 22.4422 32.1319 22.3832 32.5454 22.3535C32.3091 21.9987 32.1024 21.6144 31.8662 21.2596C31.6299 21.2891 31.3936 21.3483 31.1279 21.4074ZM39.3378 22.7379C38.8948 22.6492 38.5404 22.3535 38.186 22.0875C36.8275 23.0631 36.2369 24.8668 36.4436 26.4635C36.6503 27.7644 37.684 28.6515 38.6881 29.3907C40.017 30.3664 41.7594 30.5438 43.3246 30.2778C44.8603 30.0709 46.4845 29.5681 47.4295 28.2671C48.286 27.2914 48.2564 25.9018 47.9316 24.719C46.6617 24.2459 45.1851 24.4233 44.0038 23.7136C43.2655 23.2997 42.7044 22.6787 42.2319 21.9987C41.3459 22.5013 40.3714 22.9449 39.3378 22.7379ZM21.8548 22.2648C21.8843 22.4126 21.9139 22.7083 21.9139 22.8266C21.589 22.6787 21.2937 22.5013 20.9688 22.3832C20.9984 22.6788 21.0574 22.9744 21.087 23.2701C20.7621 22.9744 20.4077 22.7083 20.0238 22.4718C19.9943 22.9449 19.9352 23.4179 19.699 23.8319C19.5513 23.5066 19.4332 23.1814 19.315 22.8562C18.9607 23.2405 18.5472 23.5362 18.0747 23.7136L18.311 23.1518C17.5136 23.6249 16.7458 24.1867 16.1551 24.8963C15.5645 25.5764 15.4464 26.6113 15.7712 27.4392C16.1847 28.5924 16.982 29.6864 18.1338 30.189C20.0238 30.9874 22.2387 31.0465 24.0992 30.1299C25.6054 29.5681 26.7866 28.2968 27.3773 26.8183C27.8203 25.5469 27.2296 24.0094 26.0779 23.3293C24.8375 22.5014 23.3019 22.2648 21.8548 22.2648ZM35.2328 23.3293C34.9966 23.7729 35.1737 24.3346 35.5577 24.6598C35.8235 24.0684 36.0892 23.5066 36.296 22.8857C35.9416 22.9744 35.4395 22.945 35.2328 23.3293ZM53.5722 24.4233C53.6313 24.7781 53.6903 25.1033 53.7789 25.4581C53.8085 25.7243 53.838 26.0199 53.8675 26.286C54.2514 26.493 54.6944 26.5226 55.1079 26.493V26.3156C55.226 26.3156 55.4918 26.286 55.6099 26.286C55.4622 26.0791 55.3146 25.8721 55.1669 25.6651C54.783 25.1033 54.1628 24.7485 53.5722 24.4233ZM28.1451 24.6894C28.2337 25.1625 28.2633 25.6652 28.3518 26.1679C28.7358 26.4044 28.913 25.7538 28.913 25.4581C28.913 25.0146 28.4404 24.8668 28.1451 24.6894ZM14.1469 28.1784C14.2651 28.5628 14.6785 28.6219 15.0034 28.5628C14.7966 27.9714 14.6785 27.3506 14.5899 26.7297C14.2355 27.114 13.7926 27.6462 14.1469 28.1784ZM49.0538 26.7297C48.9061 27.3802 48.6699 28.001 48.3746 28.5924C49.0243 28.7698 49.5263 28.208 49.6444 27.6462C49.674 27.2323 49.3196 26.9662 49.0538 26.7297ZM51.9184 27.7645C52.509 28.3855 53.3359 28.7107 54.1333 28.9177C54.0742 28.7403 54.0152 28.5628 53.9561 28.3855C53.838 28.1194 53.7199 27.8827 53.6017 27.6166C53.4245 27.4392 53.2769 27.2027 53.0406 27.1139C52.5976 27.1731 52.2433 27.4984 51.9184 27.7645ZM27.141 30.0709C26.7867 30.1596 26.4618 30.2777 26.1074 30.3664V30.4551C25.2805 30.3369 24.5717 30.8396 23.863 31.1649C23.5677 31.2536 23.3019 31.3422 23.0066 31.431L23.0361 31.5787C22.8589 31.5787 22.475 31.6083 22.2978 31.6083C22.2978 31.6379 22.2978 31.7266 22.2978 31.7561C21.8548 31.7561 21.4414 31.7857 20.9984 31.7857L21.0279 31.9335C20.5259 31.9335 19.9943 31.8744 19.4922 31.9335C18.4291 32.3771 17.3955 32.939 16.5686 33.7373C16.48 34.6835 17.1592 36.0731 18.2814 35.8069C18.813 35.6 18.9902 35.0677 19.1969 34.5947C19.1969 34.979 19.1969 35.3931 19.1969 35.7775L19.315 35.8069C19.2855 37.0784 19.3446 38.3203 19.2855 39.5918C19.4036 39.5622 19.6104 39.4734 19.699 39.4143L19.6694 39.3256C19.9352 39.2961 20.2305 39.2368 20.4963 39.1777C20.7916 39.1187 21.1165 39.0594 21.4118 38.9707C21.7367 38.9412 22.0911 38.9116 22.4159 38.882L22.4454 38.7342C22.8884 38.7342 23.3019 38.7047 23.7449 38.7047L23.7153 38.5569C24.1878 38.5569 24.6603 38.5864 25.1033 38.409C25.31 38.409 25.5463 38.3794 25.7826 38.3794L25.753 38.2315C26.1665 38.2315 26.6981 38.1724 26.9048 37.7584C26.7571 37.3149 26.5504 36.9011 26.3732 36.4575C26.2551 35.9549 26.1369 35.4818 25.9893 34.979C25.9598 34.5651 25.9302 34.1807 25.9007 33.7668C25.7826 33.7668 25.5463 33.7668 25.3986 33.7668C25.3986 33.6486 25.3691 33.3825 25.3691 33.2346C25.9893 33.2642 26.639 33.2938 27.2592 33.0868C27.6726 33.0276 28.0565 32.9684 28.4404 32.8797C28.2928 32.6136 28.1451 32.318 27.9975 32.0223C27.9384 31.8449 27.8793 31.6674 27.8203 31.49C27.7021 30.9282 27.584 30.3665 27.584 29.7752C27.4364 29.8934 27.2887 29.982 27.141 30.0709ZM39.2196 30.81C38.4518 32.2588 38.127 33.885 37.5954 35.4226C37.1819 36.7531 36.5027 37.995 36.0597 39.3551C37.241 39.9465 38.5699 40.3605 39.8693 40.6562C41.6413 41.0702 43.4722 40.7449 45.1556 40.2127C44.5354 37.2262 43.8857 34.2694 42.9702 31.3717C41.7003 31.5787 40.4304 31.3126 39.2196 30.81ZM19.8171 40.183C19.8171 41.0405 19.7876 41.9275 19.699 42.785C20.6145 42.6667 21.5299 42.4599 22.475 42.3712C22.3864 41.7207 22.2978 41.0996 22.2387 40.4492C22.8589 40.3309 23.4791 40.2717 24.0992 40.3013C24.1288 40.8335 24.2174 41.3657 24.4241 41.8388C25.31 41.6614 26.196 41.5727 27.082 41.5431C26.9638 40.6561 26.7867 39.7691 26.6685 38.882C24.365 39.296 22.1206 39.7986 19.8171 40.183ZM65.2078 21.0525C65.1192 20.6681 65.4736 20.343 65.8575 20.4021C71.0256 20.4021 76.2233 20.4021 81.3914 20.4021C81.6572 20.3725 81.8344 20.5498 82.0411 20.6681C82.2773 20.4907 82.5431 20.343 82.8384 20.4021C85.5849 20.4021 88.3314 20.4021 91.0779 20.4021C91.4027 20.3725 91.6981 20.5204 91.8162 20.8456C92.7317 23.5955 93.7062 26.3453 95.0942 28.8881C96.3936 26.286 97.5454 23.5955 98.4609 20.8456C98.5495 20.5795 98.8153 20.4021 99.1106 20.4021C101.68 20.4021 104.249 20.4021 106.789 20.4021C107.173 20.343 107.586 20.6386 107.498 21.0821C107.025 30.2777 106.671 39.503 106.582 48.7282C106.612 49.083 106.464 49.5266 106.051 49.5266C104.279 49.5561 102.536 49.5266 100.764 49.5266C100.469 49.5561 100.174 49.4379 99.9966 49.2014C99.908 47.0133 99.967 44.7957 99.8784 42.6077C99.5831 43.0512 99.2878 43.4947 98.9925 43.9383V44.0564C98.0179 45.8305 96.9843 47.6046 95.9507 49.3491C95.6849 49.7039 95.4781 50.3249 94.917 50.177C94.5627 49.9405 94.3559 49.5266 94.0901 49.1717C92.9975 47.3681 91.8457 45.6236 90.753 43.82C90.4872 43.3764 90.2215 42.9625 89.9261 42.519C89.7785 44.5888 89.9557 46.6584 89.7194 48.7282C89.8375 48.8169 90.0443 48.9647 90.1624 49.0239C90.1033 49.0239 89.9557 48.9943 89.8966 48.9647C89.6899 49.1421 89.5718 49.4969 89.2469 49.4674C87.475 49.4969 85.7031 49.4674 83.9311 49.4674C83.5768 49.5266 83.1633 49.2604 83.2224 48.8465C82.927 39.6805 82.8384 30.5143 82.0116 21.3778C82.0411 22.5309 81.8934 23.7136 81.8934 24.8668C81.7162 27.528 81.6276 30.2186 81.4209 32.8797C79.7671 32.9093 78.1724 32.4953 76.5186 32.584C76.5186 34.1511 76.3414 35.6887 76.3414 37.2558C77.8771 37.2854 79.4127 37.0192 80.9484 36.9897C81.0075 37.1966 81.037 37.4036 81.0961 37.6106C80.8007 39.3256 80.5349 41.0406 80.2987 42.785C80.2987 43.1694 80.0329 43.6129 79.5899 43.4946C78.5268 43.3764 77.4636 43.0807 76.4005 43.1103C76.3414 43.1694 76.1937 43.2582 76.1051 43.3172C75.9575 45.1504 76.1051 46.9837 75.987 48.8169C75.987 49.1421 75.7803 49.4969 75.3964 49.4674C72.768 49.4969 70.1692 49.4674 67.5408 49.4674C67.1865 49.4379 66.8025 49.5266 66.5072 49.2901C66.271 48.6396 66.3596 47.9004 66.271 47.1907C66.2414 44.4409 66.0643 41.6614 66.0347 38.9116C65.8575 36.3096 65.9166 33.7076 65.7394 31.1056C65.6213 27.7645 65.3259 24.4233 65.2078 21.0525ZM66.4482 21.5257C66.4482 23.4771 66.6549 25.4286 66.714 27.3801C66.9207 28.8586 66.8616 30.3665 66.9207 31.8449C67.0979 34.033 66.9502 36.2506 67.1865 38.409C67.216 41.6911 67.4227 44.973 67.4227 48.2551C68.604 48.403 69.7853 48.3142 70.9666 48.3438C72.266 48.3142 73.5654 48.403 74.8648 48.2551C74.8353 46.5107 74.8943 44.7661 74.8943 42.9921C74.9239 42.6373 74.8353 42.0755 75.3078 42.0163C76.6072 41.8685 77.9066 42.1346 79.2355 42.2233C79.3537 41.1884 79.2946 40.0944 79.7671 39.1482L79.6195 39.2369C79.649 38.9117 79.6785 38.5863 79.708 38.2612C78.32 38.3202 76.9025 38.5569 75.5145 38.409C74.9829 38.3499 75.0715 37.6993 75.1011 37.3149C75.3668 35.393 75.1601 33.4711 75.4554 31.5492C77.0797 31.283 78.7335 31.5197 80.3578 31.6971C80.4464 28.4445 80.7121 25.1921 80.8598 21.9396C80.9189 21.6144 80.8007 21.496 80.4759 21.5257C75.8098 21.5257 71.1142 21.5553 66.4482 21.5257ZM82.927 21.7326C83.1633 21.8508 83.311 22.0282 83.2814 22.2944C83.4586 26.1382 83.7835 29.982 83.8721 33.8555C84.0788 36.28 83.9607 38.7342 84.1379 41.1588C84.1969 43.5538 84.1969 45.9488 84.3741 48.3438C85.7621 48.3142 87.1796 48.3142 88.5677 48.3438C88.6267 45.7122 88.7449 43.0512 88.7449 40.4197C88.6563 39.8283 89.5127 39.6212 89.7785 40.0943C91.5209 42.785 93.1451 45.5644 94.917 48.2255C94.9761 48.2255 95.0942 48.196 95.1533 48.196C96.7185 45.5348 98.2246 42.8441 99.7603 40.183C99.908 39.8873 100.203 39.6213 100.558 39.7691C101.001 39.8874 100.942 40.4196 100.971 40.7744C100.971 43.2581 101.06 45.7418 101.03 48.2551C102.477 48.403 103.924 48.2551 105.371 48.3438C105.519 42.785 105.578 37.1966 105.844 31.6379C105.992 28.2671 106.11 24.8668 106.287 21.496C103.983 21.496 101.709 21.496 99.4354 21.496C98.4609 24.4233 97.132 27.2028 95.8325 29.982C95.6849 30.3665 95.3896 30.6326 95.0647 30.8692C94.8875 30.6918 94.6513 30.5438 94.5036 30.337C93.027 27.4984 91.7867 24.5415 90.8416 21.496C88.5972 21.4665 86.3528 21.496 84.1083 21.4665C83.6949 21.5256 83.311 21.6439 82.927 21.7326ZM23.4791 24.2163C22.9475 24.8372 23.9516 25.9608 24.5127 25.2216C25.0147 24.5415 24.0992 23.7136 23.4791 24.2163ZM40.1647 24.4233C39.8103 24.8076 39.9875 25.7244 40.6076 25.6061C40.9916 25.4582 41.1097 24.8372 40.8439 24.512C40.7258 24.2754 40.3123 24.1276 40.1647 24.4233ZM19.2855 24.9555C18.9902 25.2216 18.9607 25.6651 19.1969 25.9904C19.3741 26.3748 20.0238 26.4635 20.201 25.9904C20.6145 25.4878 19.8466 24.6302 19.2855 24.9555ZM44.3877 25.1625C44.0629 25.4878 44.3582 26.227 44.8307 26.1679C45.2442 26.1679 45.3918 25.6061 45.2146 25.3104C45.0965 24.9852 44.5945 24.8372 44.3877 25.1625ZM24.0697 27.7349C22.3273 28.5924 20.2305 28.5925 18.4586 27.7941C19.4627 28.7403 20.7326 29.6273 22.1797 29.4795C23.8925 29.3316 25.2805 27.9715 25.8416 26.4044C25.2215 26.8183 24.7489 27.4392 24.0697 27.7349ZM38.6585 26.5522C39.131 27.4689 39.6626 28.4445 40.519 29.0359C42.1728 30.1595 44.5059 29.3612 45.569 27.7941C44.8603 28.001 44.2401 28.4445 43.5018 28.4741C41.7003 28.622 39.9284 27.8532 38.6585 26.5522ZM55.669 42.0163C53.8971 42.4303 52.6272 44.3226 52.952 46.1263C53.1883 47.9299 54.9011 49.3195 56.7026 49.2309C58.7108 49.2014 60.4532 47.2499 60.1874 45.2393C60.0692 43.0511 57.7658 41.4249 55.669 42.0163ZM53.9561 43.9086C53.2178 45.1209 53.5131 46.8064 54.5468 47.7229C54.8421 47.8412 55.1669 47.8411 55.4622 47.9003C55.9938 47.6342 56.5549 47.3977 56.9684 46.9542C57.5 46.422 57.8248 45.7122 58.0611 45.0322C57.559 44.3225 58.0315 43.3764 57.6476 42.6372C56.3187 42.1345 54.6649 42.6372 53.9561 43.9086ZM58.8289 44.0564C58.6222 45.6532 57.5886 47.0428 56.2006 47.8116C55.9643 47.8707 55.7576 47.9595 55.5213 48.0186C56.0529 48.2256 56.5845 48.2551 57.1456 48.2255V48.0778C57.5295 48.0778 57.8543 47.9003 58.1792 47.7524C59.3014 46.895 59.5377 45.2687 58.8289 44.0564Z" fill="#020102"/>
<path fill-rule="evenodd" clip-rule="evenodd" d="M31.1571 18.1552C30.6846 18.2143 31.1571 17.5343 31.2162 18.0369L31.1571 18.1552ZM91.8159 20.8163C92.1112 21.0233 92.4065 21.2598 92.4951 21.6147C93.263 23.8027 94.0013 25.9907 95.0349 28.0605C96.0685 26.109 96.8954 24.0097 97.6042 21.9399C97.7223 21.4668 97.9881 21.0233 98.4606 20.8459C97.5451 23.6253 96.3933 26.2864 95.0939 28.8884C93.7059 26.316 92.7314 23.5661 91.8159 20.8163ZM82.9267 21.7329C83.163 21.8512 83.3107 22.0286 83.2811 22.2947C83.4583 26.1386 83.7832 29.9824 83.8718 33.8558C84.0785 36.2804 83.9604 38.7345 84.1376 41.1591C84.1966 43.5541 84.1966 45.9491 84.3738 48.3442C85.7618 48.3146 87.1794 48.3146 88.5674 48.3442C88.6264 45.7126 88.7446 43.0515 88.7446 40.4199C88.656 39.8286 89.5124 39.6216 89.7782 40.0947C91.5206 42.7854 93.1448 45.5648 94.9167 48.2259C94.9758 48.2259 95.0939 48.1963 95.153 48.1963C96.7182 45.5352 98.2243 42.8445 99.76 40.1834C99.9077 39.8877 100.203 39.6216 100.557 39.7694C101 39.8877 100.941 40.4199 100.971 40.7747C100.971 43.2585 101.059 45.7422 101.03 48.2554C102.477 48.4033 103.924 48.2554 105.371 48.3442C105.519 42.7854 105.578 37.197 105.844 31.6382C105.991 28.2675 106.109 24.8671 106.287 21.4964C103.983 21.4964 101.709 21.4964 99.4352 21.4964C98.4606 24.4236 97.1317 27.203 95.8322 29.9824C95.6846 30.3668 95.3893 30.6329 95.0644 30.8694C94.8872 30.692 94.651 30.5442 94.5033 30.3372C93.0267 27.4987 91.7864 24.5419 90.8413 21.4964C88.5969 21.4668 86.3525 21.4964 84.108 21.4668C83.6946 21.526 83.3107 21.6442 82.9267 21.7329ZM89.7191 48.7285C89.9554 46.6588 89.7782 44.589 89.9258 42.5193C90.2212 42.9332 90.5165 43.3767 90.7527 43.8202C90.546 45.2691 90.6937 46.7179 90.5755 48.1667C90.5755 48.5216 90.3098 48.7877 90.1326 49.0538C90.044 48.9651 89.8077 48.8172 89.7191 48.7285ZM98.9626 43.9089C99.258 43.4654 99.5237 42.9923 99.8486 42.5784C99.9372 44.7664 99.8781 46.984 99.9667 49.1721C99.6419 48.9947 99.2579 48.8468 99.1694 48.4624C98.9036 47.0136 99.258 45.4761 98.9331 44.0568L98.9626 43.9089Z" fill="#0076CE"/>
<path fill-rule="evenodd" clip-rule="evenodd" d="M66.4475 21.5249C71.143 21.5545 75.8091 21.5249 80.5047 21.5249C80.8296 21.4953 80.9477 21.6136 80.8886 21.9388C80.741 25.1913 80.4752 28.4438 80.3866 31.6963C78.7623 31.5189 77.1085 31.2823 75.4843 31.5484C75.1889 33.4704 75.3957 35.3923 75.1299 37.3142C75.1003 37.6986 75.0117 38.3491 75.5433 38.4082C76.9313 38.5561 78.3489 38.3195 79.7369 38.2604C79.7073 38.5856 79.6778 38.9109 79.6483 39.2361L79.7959 39.1474C79.3234 40.0936 79.353 41.1876 79.2644 42.2225C77.9649 42.1338 76.6655 41.8677 75.3366 42.0155C74.8345 42.0747 74.9231 42.6069 74.9231 42.9913C74.9231 44.7358 74.8641 46.4803 74.8936 48.2544C73.5942 48.4022 72.2948 48.3135 70.9954 48.3431C69.8141 48.3135 68.6328 48.4022 67.4515 48.2544C67.4515 44.9723 67.2153 41.6903 67.2153 38.4082C66.979 36.2202 67.1267 34.0322 66.9495 31.8441C66.8609 30.3657 66.92 28.8578 66.7428 27.3794C66.6542 25.4279 66.4475 23.4764 66.4475 21.5249ZM30.1526 22.0571L30.2412 22.0275C30.507 22.0275 30.7432 22.0571 30.9795 22.0867C30.9795 22.1458 31.009 22.2345 31.0385 22.2937C30.7728 22.4711 30.3002 22.2937 30.1526 22.0571ZM39.2189 30.8092C40.4002 31.3119 41.6701 31.6076 42.9695 31.3415C43.885 34.2391 44.5642 37.2255 45.1549 40.1823C43.442 40.7145 41.611 41.0398 39.8686 40.6258C38.5692 40.3302 37.2698 39.9458 36.059 39.3248C36.4724 37.9943 37.1517 36.7524 37.5947 35.3923C38.1262 33.8548 38.4511 32.2581 39.2189 30.8092ZM76.4883 32.6129C76.4883 34.18 76.3111 35.7175 76.3111 37.2846C77.8468 37.3142 79.3825 37.0481 80.9181 37.0185C80.9772 37.2255 81.0067 37.4325 81.0658 37.6395C81.1249 37.0481 80.7705 36.368 80.1208 36.368C78.969 36.3976 77.8468 36.575 76.6951 36.575C76.7246 35.481 76.7837 34.387 76.8132 33.293C77.9945 33.2634 79.1462 33.4704 80.298 33.6182C80.8296 33.7069 81.2135 33.3225 81.4202 32.9086C79.7664 32.9677 78.1421 32.5538 76.4883 32.6129ZM19.8164 40.1823C22.0903 39.7979 24.3643 39.2657 26.6383 38.8813C26.7859 39.7684 26.9336 40.6554 27.0517 41.5424C26.1658 41.572 25.2798 41.6607 24.3938 41.8381C24.1576 41.365 24.069 40.8328 24.069 40.3006C23.4488 40.271 22.8286 40.3302 22.2085 40.4484C22.2675 41.0989 22.3561 41.7199 22.4447 42.3704C21.5292 42.4591 20.6137 42.666 19.6687 42.7843C19.7868 41.9268 19.8459 41.0694 19.8164 40.1823ZM53.9554 43.9079C54.6937 42.6365 56.3475 42.1338 57.6764 42.6069C58.0899 43.3461 57.6174 44.3218 58.0899 45.0019C57.8241 45.7115 57.4992 46.3916 56.9972 46.9238C56.5838 47.3378 55.9931 47.5743 55.4911 47.87C55.1662 47.8109 54.8709 47.8109 54.5756 47.6926C53.4829 46.8056 53.1876 45.1202 53.9554 43.9079ZM76.0749 43.3461C75.9272 45.1793 76.0749 47.0125 75.9568 48.8458C76.134 48.5205 76.3407 48.1657 76.3111 47.7813C76.3407 46.2438 76.3997 44.7062 76.3702 43.1687C76.2816 43.1983 76.134 43.3165 76.0749 43.3461ZM35.4093 54.4637C36.4724 54.2863 37.7423 54.375 38.5397 55.2029C39.0122 55.7055 38.5692 56.6517 37.89 56.563C37.1221 56.4447 36.3838 56.0604 35.616 56.3265C34.7005 56.6517 34.2871 57.657 34.228 58.5736C34.1394 59.6085 34.5233 60.8504 35.616 61.2348C36.4724 61.56 37.2993 61.0869 38.1262 60.9391C38.6578 60.9095 39.0417 61.56 38.835 62.0331C38.6578 62.5062 38.1853 62.8019 37.7423 62.9497C36.1476 63.4524 34.1985 63.0975 33.1353 61.7374C31.7178 59.8746 31.895 56.8291 33.726 55.2916C34.1689 54.8481 34.7596 54.582 35.4093 54.4637ZM74.9231 55.6168C75.1299 55.0255 75.5729 54.4341 76.2521 54.4045C76.9018 54.3158 77.522 54.7594 77.7582 55.3803C78.467 57.3318 79.1462 59.2833 79.8255 61.2348C79.9436 61.6191 80.1503 62.0627 79.9731 62.4766C79.6483 63.068 78.6737 63.1271 78.3193 62.5358C78.0535 62.0922 77.9354 61.56 77.7878 61.0574C76.7837 61.0574 75.8091 61.0574 74.805 61.0574C74.6574 61.56 74.5392 62.0627 74.2734 62.5358C73.9486 63.0975 73.0036 63.068 72.7378 62.4766C72.5606 62.0331 72.7378 61.5304 72.8854 61.0869C73.5647 59.2537 74.2439 57.4205 74.9231 55.6168ZM75.3661 59.372C75.9863 59.372 76.636 59.372 77.2562 59.372C76.9609 58.4258 76.6655 57.4501 76.3407 56.5039C75.9568 57.4501 75.691 58.4258 75.3661 59.372ZM90.6637 55.6464C90.6342 55.1437 90.8409 54.4637 91.4315 54.4045C91.9927 54.2567 92.5242 54.7002 92.5242 55.262C92.6424 56.6813 92.5242 58.1301 92.5833 59.5494C93.8532 58.0414 94.9754 56.4152 96.1862 54.9072C96.4815 54.5228 97.0426 54.2567 97.5152 54.4932C97.9286 54.7002 97.9877 55.2324 97.9877 55.6464C97.9877 57.5388 97.9877 59.4311 97.9877 61.3235C97.9877 61.7965 97.9877 62.2992 97.6923 62.6836C97.3084 63.0975 96.5406 63.0088 96.2453 62.5062C96.0976 62.1809 96.0976 61.8261 96.0681 61.5009C96.0385 60.259 96.0976 59.0172 96.0386 57.8049C94.8277 59.3128 93.676 60.9095 92.4947 62.4175C92.1108 62.9201 91.2544 63.1862 90.8114 62.6245C90.6047 62.2696 90.6342 61.8557 90.6342 61.4713C90.6637 59.5494 90.6342 57.5979 90.6637 55.6464ZM12.8763 56.356C12.9059 55.3507 13.8509 54.5524 14.8255 54.6115C15.9181 54.6115 17.0404 54.5524 18.1626 54.6411C18.6942 54.7298 18.8714 55.3507 18.8714 55.8238C18.9009 57.657 18.8714 59.4902 18.9009 61.3235C19.2257 61.4122 19.7278 61.4417 19.8164 61.8557C19.905 62.5949 19.8754 63.3341 19.8164 64.0733C19.6392 64.5759 18.9599 64.6351 18.5465 64.4281C18.0445 64.1029 18.2216 63.4524 18.1921 62.9497C16.5679 62.9497 14.9731 62.9497 13.3489 62.9497C13.3193 63.3341 13.3784 63.748 13.2603 64.1324C12.9649 64.7829 11.7246 64.6646 11.6655 63.8959C11.636 63.0975 11.5474 62.2696 11.8427 61.5009C12.1085 61.4417 12.3743 61.3826 12.6106 61.2643C12.7878 61.0278 12.7878 60.7025 12.8468 60.4069C12.9059 59.0467 12.8173 57.7162 12.8763 56.356ZM14.7664 56.3265C14.7073 56.3856 14.6187 56.4743 14.5892 56.5334C14.4711 58.1301 14.7664 59.7859 14.3234 61.353C15.2094 61.353 16.0953 61.353 16.9813 61.353C16.9813 59.6677 16.9813 57.9823 16.9813 56.2969C16.243 56.2969 15.4752 56.2378 14.7664 56.3265ZM21.0272 55.8238C20.9977 55.3212 21.2339 54.7298 21.8246 54.6411C22.9172 54.5524 24.0099 54.5524 25.0731 54.6411C25.5161 54.6707 25.7228 55.0846 25.9295 55.4394C25.7818 55.7351 25.6933 56.1195 25.3389 56.2378C24.571 56.5039 23.7441 56.3265 22.9468 56.356C22.9468 56.8587 22.9468 57.3613 22.9468 57.864C23.6851 57.8936 24.4234 57.7457 25.1321 57.9823C25.7818 58.2188 25.7523 59.2537 25.1026 59.4902C24.3938 59.6972 23.6555 59.6085 22.9468 59.6085C22.9468 60.1407 22.9468 60.6434 22.9468 61.1756C23.7441 61.2052 24.571 61.0869 25.3389 61.2939C25.8409 61.4417 26.0772 62.0922 25.7523 62.5358C25.3979 63.0384 24.7187 62.9201 24.1871 62.9793C23.3307 62.9497 22.4152 63.068 21.5588 62.861C21.0567 62.7132 21.0272 62.1218 21.0272 61.7078C21.0272 59.7268 20.9977 57.7753 21.0272 55.8238ZM26.7564 54.7298C26.1362 54.9368 26.1067 55.9716 26.7269 56.2082C27.2289 56.3856 27.79 56.356 28.3216 56.3856C28.3216 58.1005 28.3216 59.7859 28.3216 61.5009C28.3216 61.9148 28.3216 62.3879 28.6169 62.7427C29.0008 63.2454 29.9163 63.0975 30.1231 62.5062C30.3888 61.5304 30.2117 60.4956 30.2412 59.4902C30.2707 58.4554 30.3002 57.4205 30.2412 56.4152C30.8023 56.3856 31.3929 56.4447 31.895 56.2082C32.5152 55.8829 32.397 54.8776 31.7178 54.7298C30.8318 54.5228 29.8868 54.6707 28.9713 54.6115C28.2035 54.6411 27.4356 54.4932 26.7564 54.7298ZM39.9572 54.7889C40.3411 54.2863 41.3157 54.4341 41.4634 55.0846C41.6701 55.9125 41.5224 56.77 41.5815 57.6275C42.5265 56.7108 43.4125 55.7055 44.3575 54.7889C44.7709 54.3454 45.5388 54.4045 45.8341 54.9368C46.1294 55.2916 45.8636 55.7351 45.5978 56.0012C44.8595 56.7996 44.0326 57.5092 43.2943 58.3075C44.2098 59.4311 45.2435 60.4069 46.0999 61.56C46.4838 62.0035 46.2475 62.7427 45.716 62.9201C45.273 63.1271 44.8005 62.7723 44.5052 62.447C43.6192 61.4122 42.7332 60.3773 41.8473 59.3424C41.1385 60.2886 41.9359 61.6487 41.2862 62.6245C40.9908 63.0384 40.3411 63.0384 39.9868 62.7427C39.6619 62.3879 39.6324 61.8557 39.6324 61.4122C39.6324 59.6381 39.6324 57.864 39.6324 56.1195C39.6619 55.7055 39.6619 55.1733 39.9572 54.7889ZM49.0826 54.6411C47.9899 54.9072 47.104 55.7351 46.661 56.77C45.8046 58.751 46.2771 61.5304 48.2853 62.6245C49.5551 63.275 51.1794 63.2454 52.4197 62.5062C53.6306 61.767 54.2507 60.3477 54.2507 58.958C54.3098 57.7162 53.9259 56.3856 52.9808 55.5281C51.9768 54.5228 50.4116 54.3158 49.0826 54.6411ZM49.437 56.4152C50.2344 56.0604 51.3566 56.2673 51.7996 57.0657C52.4197 58.1597 52.4197 59.6381 51.6519 60.673C50.8545 61.6487 49.0826 61.4417 48.5806 60.2886C48.0195 59.0467 48.1376 57.1544 49.437 56.4152ZM55.3139 55.8238C55.2548 55.2916 55.5797 54.6707 56.1703 54.6411C57.1449 54.582 58.1194 54.582 59.094 54.6115C59.537 54.6115 59.8618 54.9072 60.1276 55.2324C60.0685 55.5873 60.039 56.0899 59.596 56.2082C58.8282 56.4743 57.9718 56.2969 57.1744 56.356C57.1744 56.8587 57.1744 57.3318 57.1744 57.8344C57.8832 57.864 58.651 57.7457 59.3302 57.9527C59.9504 58.1301 60.039 59.1059 59.4484 59.4015C58.7396 59.7564 57.9127 59.5494 57.1449 59.5789C57.1449 60.1112 57.1449 60.6138 57.1449 61.1461C57.9422 61.1756 58.7987 61.0278 59.5665 61.2643C60.3048 61.4713 60.2457 62.654 59.5074 62.8019C58.3852 62.9793 57.2039 62.9201 56.0522 62.861C55.5206 62.861 55.1958 62.2992 55.2548 61.8261C55.3139 59.8451 55.3139 57.8344 55.3139 55.8238ZM66.6837 56.0012C66.7132 58.0118 66.6246 60.052 66.7132 62.0627C66.7132 62.9201 67.8945 63.3045 68.367 62.5949C68.7214 61.8557 68.5442 60.9686 68.6033 60.1703C69.6664 60.1703 70.8773 60.3181 71.7928 59.6085C72.8559 58.8397 73.0036 57.3318 72.5901 56.1491C72.2062 55.1142 71.084 54.4932 69.9913 54.4932C69.0758 54.4932 68.1603 54.375 67.2743 54.582C66.7132 54.7889 66.6837 55.4986 66.6837 56.0012ZM68.6033 56.2673C69.0758 56.2673 69.5483 56.2378 70.0208 56.3265C70.9363 56.5334 70.9954 58.0414 70.1094 58.3371C69.6074 58.4849 69.1053 58.4258 68.6033 58.4258C68.6033 57.7162 68.6033 56.977 68.6033 56.2673ZM82.2766 56.0012C82.4243 55.1437 83.2512 54.4932 84.1076 54.4932C85.2003 54.4637 86.3225 54.4637 87.4152 54.4932C87.9763 54.4932 88.2716 55.0255 88.2716 55.5281C88.3012 57.3909 88.2716 59.2833 88.2716 61.1461C88.626 61.2939 89.1871 61.2939 89.2462 61.767C89.3348 62.4175 89.3052 63.068 89.2757 63.748C89.2462 64.5464 87.9763 64.6055 87.681 63.955C87.5629 63.5706 87.5924 63.1862 87.5629 62.8019C85.9386 62.8019 84.3439 62.8019 82.7196 62.8019C82.7196 63.1567 82.7196 63.5115 82.6605 63.8663C82.4538 64.5759 81.2135 64.5759 81.0658 63.8367C80.9772 63.1271 80.9477 62.3583 81.0658 61.6487C81.2135 61.1165 82.129 61.353 82.129 60.7321C82.3652 59.1946 82.0699 57.5979 82.2766 56.0012ZM83.9895 56.2378C83.7532 57.8936 84.1371 59.6085 83.6942 61.2348C84.5801 61.2348 85.4661 61.2348 86.3816 61.2348C86.3816 59.5494 86.3816 57.8936 86.3816 56.2082C85.5842 56.1786 84.7868 56.1786 83.9895 56.2378ZM102.034 54.5524C103.008 54.2863 104.042 54.3454 104.957 54.7002C106.168 55.2029 106.995 56.4152 107.202 57.7162C107.379 59.0172 107.231 60.4364 106.404 61.5009C104.898 63.4524 101.502 63.4228 100.055 61.4122C99.228 60.2886 99.0803 58.8102 99.3757 57.4796C99.6415 56.1195 100.705 54.9072 102.034 54.5524ZM102.388 56.356C101.768 56.6517 101.443 57.3613 101.325 58.0414C101.148 58.5145 101.856 59.0172 101.325 59.4015C101.472 59.9338 101.65 60.4956 102.122 60.8208C102.979 61.4713 104.455 61.2348 104.928 60.1999C105.459 59.0763 105.43 57.5092 104.514 56.5926C103.953 56.0899 103.067 56.0012 102.388 56.356Z" fill="#E50023"/>
<path d="M24.7677 99.152L24.5517 99.248C24.4237 99.248 24.3357 99.256 24.2877 99.272C23.7277 99.4 23.2477 99.64 22.8477 99.992C22.4637 100.344 22.1357 100.768 21.8637 101.264C21.6077 101.76 21.4157 102.312 21.2877 102.92C21.1757 103.528 21.1197 104.152 21.1197 104.792C21.1197 105.832 21.4237 106.656 22.0317 107.264C22.6557 107.872 23.5357 108.176 24.6717 108.176C25.0397 108.176 25.4077 108.16 25.7757 108.128C26.1597 108.08 26.5197 108.032 26.8557 107.984C27.2077 107.92 27.5277 107.872 27.8157 107.84C28.1037 107.792 28.3437 107.768 28.5357 107.768C28.9037 107.768 29.1357 107.848 29.2317 108.008C29.3437 108.152 29.3997 108.36 29.3997 108.632C29.3997 108.648 29.3837 108.736 29.3517 108.896C29.3197 109.04 29.2957 109.12 29.2797 109.136C29.1677 109.264 29.0397 109.376 28.8957 109.472C28.7677 109.568 28.6157 109.664 28.4397 109.76C28.3757 109.792 28.3037 109.832 28.2237 109.88C28.1437 109.912 28.0797 109.944 28.0317 109.976C27.9997 110.008 27.9597 110.024 27.9117 110.024C27.8797 110.024 27.8477 110.04 27.8157 110.072C27.7677 110.072 27.7277 110.072 27.6957 110.072C27.6797 110.088 27.6477 110.096 27.5997 110.096C27.5357 110.128 27.4477 110.152 27.3357 110.168C27.2397 110.184 27.1597 110.192 27.0957 110.192C27.0157 110.24 26.9357 110.264 26.8557 110.264C26.7917 110.28 26.7117 110.296 26.6157 110.312C26.5357 110.344 26.4077 110.368 26.2317 110.384C26.0557 110.4 25.9117 110.416 25.7997 110.432C25.5437 110.448 25.3037 110.456 25.0797 110.456C24.8557 110.456 24.6397 110.456 24.4317 110.456C23.5517 110.456 22.7757 110.304 22.1037 110C21.4317 109.712 20.8717 109.32 20.4237 108.824C19.9757 108.312 19.6317 107.728 19.3917 107.072C19.1677 106.416 19.0557 105.728 19.0557 105.008C19.0557 104 19.1597 103.048 19.3677 102.152C19.5757 101.24 19.8877 100.416 20.3037 99.68C20.3677 99.616 20.4077 99.52 20.4237 99.392C20.4557 99.264 20.5117 99.184 20.5917 99.152C20.6877 99.088 20.7757 98.976 20.8557 98.816C20.9357 98.64 21.0077 98.52 21.0717 98.456C21.1357 98.44 21.2077 98.392 21.2877 98.312C21.3677 98.232 21.4237 98.16 21.4557 98.096C21.5197 98.096 21.5597 98.072 21.5757 98.024C21.6077 97.96 21.6397 97.912 21.6717 97.88C21.7037 97.88 21.7357 97.864 21.7677 97.832C21.8157 97.8 21.8557 97.768 21.8877 97.736C21.9357 97.704 22.0157 97.656 22.1277 97.592C22.2397 97.512 22.3117 97.44 22.3437 97.376C22.4397 97.344 22.5357 97.32 22.6317 97.304C22.7277 97.272 22.8077 97.256 22.8717 97.256C22.9037 97.192 22.9597 97.144 23.0397 97.112C23.1357 97.064 23.2397 97 23.3517 96.92C23.5277 96.92 23.6557 96.912 23.7357 96.896C23.8157 96.864 23.8957 96.848 23.9757 96.848C24.1037 96.784 24.3117 96.728 24.5997 96.68C24.8877 96.616 25.1517 96.584 25.3917 96.584C25.7597 96.584 26.1277 96.656 26.4957 96.8C26.8637 96.928 27.1597 97.104 27.3837 97.328C27.7197 97.664 27.8877 98.016 27.8877 98.384C27.8877 98.56 27.8397 98.776 27.7437 99.032C27.7277 99.096 27.6877 99.192 27.6237 99.32C27.5437 99.448 27.4157 99.544 27.2397 99.608C27.0797 99.656 26.9117 99.68 26.7357 99.68C26.5597 99.68 26.4317 99.68 26.3517 99.68C26.2877 99.664 26.2077 99.616 26.1117 99.536C26.0477 99.488 25.9837 99.456 25.9197 99.44C25.8717 99.408 25.8237 99.376 25.7757 99.344C25.5517 99.232 25.3517 99.176 25.1757 99.176C25.1437 99.176 25.1037 99.184 25.0557 99.2C25.0237 99.216 24.9917 99.224 24.9597 99.224L24.7677 99.152ZM39.5294 110.36C39.4814 110.36 39.4334 110.352 39.3854 110.336C39.3374 110.336 39.2894 110.336 39.2414 110.336C39.1614 110.336 39.0814 110.336 39.0014 110.336C38.9374 110.336 38.8654 110.32 38.7854 110.288C38.7214 110.256 38.6654 110.224 38.6174 110.192C38.5694 110.176 38.5214 110.168 38.4734 110.168C38.4734 110.104 38.4414 110.04 38.3774 109.976C38.3134 109.912 38.2654 109.84 38.2334 109.76C38.1694 109.52 38.0894 109.176 37.9934 108.728C37.9134 108.264 37.8094 107.768 37.6814 107.24C37.5694 106.712 37.4414 106.192 37.2974 105.68C37.1534 105.168 37.0014 104.752 36.8414 104.432C36.4574 105.408 36.0654 106.296 35.6654 107.096C35.2654 107.896 34.8494 108.584 34.4174 109.16C34.0014 109.72 33.5774 110.152 33.1454 110.456C32.7294 110.776 32.3054 110.936 31.8734 110.936C31.6334 110.936 31.4414 110.872 31.2974 110.744C31.1694 110.632 31.0574 110.496 30.9614 110.336C30.8814 110.192 30.8014 110.064 30.7214 109.952C30.6574 109.824 30.5694 109.76 30.4574 109.76C30.5374 109.632 30.6254 109.544 30.7214 109.496L30.6014 109.4C30.6494 109.4 30.6894 109.392 30.7214 109.376C30.7534 109.36 30.7854 109.344 30.8174 109.328C30.9454 109.312 31.0094 109.272 31.0094 109.208C30.9934 109.192 30.9854 109.176 30.9854 109.16V109.136C31.0494 109.056 31.1454 109 31.2734 108.968C31.4174 108.92 31.5614 108.88 31.7054 108.848C31.9774 108.784 32.2654 108.576 32.5694 108.224C32.8734 107.872 33.1694 107.456 33.4574 106.976C33.7614 106.48 34.0414 105.96 34.2974 105.416C34.5694 104.856 34.8094 104.336 35.0174 103.856C35.2254 103.36 35.3934 102.936 35.5214 102.584C35.6654 102.232 35.7534 102.024 35.7854 101.96C35.8814 101.752 36.0094 101.584 36.1694 101.456C36.3294 101.312 36.5294 101.24 36.7694 101.24C37.0734 101.24 37.2894 101.28 37.4174 101.36C37.5614 101.424 37.6974 101.56 37.8254 101.768C37.9854 102.024 38.1534 102.36 38.3294 102.776C38.5214 103.192 38.7054 103.648 38.8814 104.144L39.0254 104.48C39.0254 104.56 39.0414 104.632 39.0734 104.696C39.1054 104.744 39.1214 104.8 39.1214 104.864C39.1854 104.928 39.2254 104.992 39.2414 105.056C39.2734 105.12 39.3054 105.224 39.3374 105.368C39.4334 105.56 39.4974 105.776 39.5294 106.016C39.5614 106.256 39.6494 106.536 39.7934 106.856C39.9694 107.416 40.1054 107.912 40.2014 108.344C40.3134 108.776 40.3694 109.08 40.3694 109.256C40.3694 109.352 40.3614 109.456 40.3454 109.568C40.3454 109.68 40.3214 109.736 40.2734 109.736C40.2734 109.864 40.2334 109.968 40.1534 110.048C40.1214 110.08 40.0734 110.096 40.0094 110.096C39.9454 110.112 39.8974 110.136 39.8654 110.168C39.7854 110.2 39.7294 110.24 39.6974 110.288C39.6654 110.336 39.6094 110.36 39.5294 110.36ZM49.0988 112.496C48.9548 113.216 48.7548 113.904 48.4988 114.56C48.2588 115.216 47.9308 115.88 47.5148 116.552C47.4508 116.648 47.3708 116.752 47.2748 116.864C47.1788 116.976 47.0908 117.08 47.0108 117.176C46.9628 117.224 46.9148 117.264 46.8668 117.296C46.8348 117.328 46.7868 117.384 46.7228 117.464C46.5948 117.624 46.4668 117.808 46.3388 118.016C46.2108 118.224 46.0828 118.392 45.9548 118.52C45.3788 119.112 44.7308 119.576 44.0108 119.912C43.3068 120.264 42.5148 120.44 41.6348 120.44C41.1868 120.44 40.8508 120.352 40.6268 120.176C40.5468 120.112 40.4988 120.072 40.4828 120.056C40.4668 120.04 40.4508 119.968 40.4348 119.84C40.4028 119.824 40.3948 119.776 40.4108 119.696C40.4108 119.616 40.3868 119.56 40.3388 119.528C40.3548 119.512 40.3628 119.488 40.3628 119.456C40.3628 119.424 40.3468 119.392 40.3148 119.36C40.2988 119.344 40.2908 119.328 40.2908 119.312C40.3228 119.28 40.3388 119.248 40.3388 119.216C40.3388 119.2 40.3388 119.184 40.3388 119.168C40.3228 119.168 40.3148 119.16 40.3148 119.144C40.3308 119.112 40.3468 119.072 40.3628 119.024C40.3628 118.992 40.4028 118.952 40.4828 118.904C40.4828 118.84 40.5148 118.8 40.5788 118.784C40.6268 118.768 40.6508 118.712 40.6508 118.616C40.7308 118.552 40.8188 118.496 40.9148 118.448C41.0108 118.4 41.0908 118.376 41.1548 118.376C41.3148 118.376 41.4348 118.384 41.5148 118.4C41.5948 118.416 41.6588 118.424 41.7068 118.424C41.7708 118.424 41.8348 118.424 41.8988 118.424C42.5068 118.424 43.0588 118.28 43.5548 117.992C44.0668 117.704 44.5228 117.344 44.9228 116.912C45.2908 116.512 45.6108 116.088 45.8828 115.64C46.1548 115.192 46.3788 114.768 46.5548 114.368C46.5868 114.288 46.6268 114.208 46.6748 114.128C46.7228 114.064 46.7628 113.992 46.7948 113.912C46.8428 113.72 46.9068 113.496 46.9868 113.24C47.0828 112.984 47.1708 112.736 47.2508 112.496L47.4908 111.656C47.4908 111.64 47.4908 111.608 47.4908 111.56C47.4908 111.512 47.5068 111.432 47.5388 111.32C47.6668 110.808 47.7628 110.328 47.8268 109.88C47.9068 109.416 47.9868 109.016 48.0668 108.68C48.1468 108.312 48.1948 108.072 48.2108 107.96C48.2428 107.832 48.2588 107.744 48.2588 107.696C48.2588 107.632 48.2348 107.6 48.1868 107.6C48.1228 107.6 48.0668 107.64 48.0188 107.72C47.9708 107.8 47.8348 108 47.6108 108.32C47.4828 108.496 47.3148 108.712 47.1068 108.968C46.9148 109.224 46.6828 109.472 46.4108 109.712C46.1548 109.952 45.8668 110.16 45.5468 110.336C45.2428 110.512 44.9308 110.6 44.6108 110.6C44.0028 110.6 43.5708 110.392 43.3148 109.976C43.0588 109.544 42.9308 109.064 42.9308 108.536C42.9308 108.024 42.9468 107.584 42.9788 107.216C43.0268 106.848 43.0668 106.552 43.0988 106.328C43.1308 106.2 43.1388 106.056 43.1228 105.896C43.1228 105.736 43.1388 105.584 43.1708 105.44C43.1708 105.36 43.1628 105.28 43.1468 105.2C43.1468 105.12 43.1468 105.04 43.1468 104.96C43.1468 104.816 43.1388 104.688 43.1228 104.576C43.1228 104.464 43.1148 104.368 43.0988 104.288C43.0828 104.208 43.0748 104.136 43.0748 104.072C43.0748 103.992 43.0748 103.912 43.0748 103.832C43.1068 103.672 43.1388 103.552 43.1708 103.472C43.2188 103.392 43.2588 103.312 43.2908 103.232C43.3228 103.152 43.3708 103.08 43.4348 103.016C43.4348 102.952 43.4748 102.92 43.5548 102.92C43.6188 102.92 43.6988 102.904 43.7948 102.872C43.8748 102.856 43.9868 102.848 44.1308 102.848L44.3948 102.968C44.5068 103.032 44.6108 103.112 44.7068 103.208C44.8188 103.304 44.8988 103.432 44.9468 103.592C45.0428 103.976 45.0908 104.256 45.0908 104.432C45.0748 104.592 45.0348 104.792 44.9708 105.032C44.9228 105.256 44.8988 105.456 44.8988 105.632C44.8828 105.744 44.8668 105.888 44.8508 106.064C44.8348 106.24 44.8108 106.424 44.7788 106.616C44.7628 106.808 44.7468 107 44.7308 107.192C44.7148 107.368 44.7068 107.52 44.7068 107.648C44.7068 107.984 44.7948 108.152 44.9708 108.152C45.1308 108.152 45.3228 108.08 45.5468 107.936C45.7708 107.792 45.9948 107.608 46.2188 107.384C46.4428 107.16 46.6668 106.904 46.8908 106.616C47.1148 106.312 47.3068 106.008 47.4668 105.704C47.6428 105.384 47.8108 105.104 47.9708 104.864C48.1468 104.608 48.3788 104.48 48.6668 104.48C48.7788 104.48 48.9068 104.504 49.0508 104.552C49.2108 104.584 49.3548 104.664 49.4828 104.792C49.7068 105 49.8588 105.208 49.9388 105.416C50.0188 105.624 50.0588 105.92 50.0588 106.304C50.0588 106.416 50.0428 106.624 50.0108 106.928C49.9948 107.216 49.9628 107.56 49.9148 107.96C49.8668 108.36 49.8028 108.808 49.7228 109.304C49.6428 109.784 49.5548 110.272 49.4588 110.768L49.0988 112.496ZM59.9896 108.464C60.0376 108.464 60.0856 108.448 60.1336 108.416C60.1816 108.384 60.2456 108.344 60.3256 108.296L60.5896 108.128C60.6696 108.064 60.7416 107.992 60.8056 107.912C60.8536 107.88 60.8936 107.84 60.9256 107.792C60.9576 107.728 60.9896 107.688 61.0216 107.672C61.0536 107.64 61.0856 107.592 61.1176 107.528C61.1496 107.464 61.1736 107.424 61.1896 107.408C61.2216 107.408 61.2536 107.376 61.2856 107.312C61.3336 107.248 61.3816 107.176 61.4296 107.096L61.8136 106.592C61.8456 106.528 61.8776 106.464 61.9096 106.4C61.9416 106.336 61.9736 106.288 62.0056 106.256C62.2776 105.824 62.5016 105.376 62.6776 104.912C62.8536 104.448 63.0056 104.008 63.1336 103.592C63.2136 103.352 63.3016 103.152 63.3976 102.992C63.4936 102.832 63.5816 102.704 63.6616 102.608C63.7096 102.544 63.7576 102.504 63.8056 102.488C63.8696 102.472 63.9256 102.448 63.9736 102.416C64.0216 102.384 64.0616 102.36 64.0936 102.344C64.1416 102.312 64.1976 102.296 64.2616 102.296H64.4536C64.7096 102.296 64.9096 102.376 65.0536 102.536C65.2136 102.696 65.2936 102.896 65.2936 103.136C65.2936 103.488 65.2296 103.888 65.1016 104.336C64.9896 104.784 64.8936 105.184 64.8136 105.536C64.6536 106.128 64.5176 106.64 64.4056 107.072C64.3096 107.504 64.2616 107.952 64.2616 108.416C64.2616 108.752 64.3096 109.024 64.4056 109.232C64.5016 109.424 64.6856 109.52 64.9576 109.52C65.1016 109.52 65.2216 109.504 65.3176 109.472C65.4296 109.44 65.5416 109.424 65.6536 109.424C65.8136 109.424 65.9416 109.472 66.0376 109.568C66.1336 109.664 66.1816 109.824 66.1816 110.048C66.1816 110.064 66.1736 110.096 66.1576 110.144C66.1576 110.208 66.1336 110.24 66.0856 110.24C66.1176 110.272 66.1336 110.32 66.1336 110.384C66.1336 110.48 66.0776 110.528 65.9656 110.528C65.9976 110.592 66.0136 110.648 66.0136 110.696C66.0136 110.808 65.9656 110.896 65.8696 110.96C65.7896 111.04 65.7016 111.096 65.6056 111.128C65.4456 111.192 65.2776 111.256 65.1016 111.32C64.9256 111.384 64.7496 111.416 64.5736 111.416C64.1576 111.416 63.8056 111.352 63.5176 111.224C63.2456 111.096 63.0216 110.92 62.8456 110.696C62.6696 110.488 62.5416 110.248 62.4616 109.976C62.3976 109.688 62.3656 109.392 62.3656 109.088C62.3656 108.976 62.3656 108.872 62.3656 108.776C62.3656 108.664 62.3736 108.568 62.3896 108.488C62.4056 108.408 62.4216 108.328 62.4376 108.248C62.1976 108.616 61.9496 108.968 61.6936 109.304C61.4376 109.64 61.1736 109.936 60.9016 110.192C60.6456 110.448 60.3896 110.648 60.1336 110.792C59.8776 110.952 59.6456 111.032 59.4376 111.032C59.0216 111.032 58.6616 110.816 58.3576 110.384C58.0536 109.952 57.9016 109.352 57.9016 108.584C57.9016 108.44 57.9096 108.272 57.9256 108.08C57.9416 107.888 57.9656 107.72 57.9976 107.576L57.5176 108.416C57.4856 108.464 57.4376 108.512 57.3736 108.56C57.3256 108.608 57.2856 108.664 57.2536 108.728C57.2056 108.808 57.1656 108.896 57.1336 108.992C57.1016 109.072 57.0536 109.152 56.9896 109.232C56.6376 109.712 56.2376 110.128 55.7896 110.48C55.3576 110.848 54.8856 111.032 54.3736 111.032C53.9576 111.032 53.6216 110.816 53.3656 110.384C53.1096 109.952 52.9816 109.352 52.9816 108.584C52.9816 108.152 53.0056 107.752 53.0536 107.384C53.0696 107.272 53.0936 107.16 53.1256 107.048C53.1576 106.92 53.1896 106.8 53.2216 106.688C53.2536 106.56 53.2616 106.456 53.2456 106.376C53.2456 106.296 53.2616 106.192 53.2936 106.064C53.3416 105.792 53.3816 105.512 53.4136 105.224C53.4456 104.936 53.4696 104.624 53.4856 104.288C53.4856 104.064 53.4536 103.88 53.3896 103.736C53.3256 103.576 53.2936 103.4 53.2936 103.208C53.2936 102.984 53.3576 102.832 53.4856 102.752C53.5176 102.672 53.5496 102.592 53.5816 102.512C53.6296 102.432 53.6936 102.392 53.7736 102.392C53.8536 102.312 53.9176 102.256 53.9656 102.224C54.0296 102.176 54.1176 102.152 54.2296 102.152C54.3576 102.152 54.4616 102.176 54.5416 102.224C54.6376 102.272 54.7336 102.296 54.8296 102.296C54.8936 102.296 54.9496 102.328 54.9976 102.392C55.0616 102.44 55.1096 102.496 55.1416 102.56C55.2216 102.688 55.2936 102.848 55.3576 103.04C55.4216 103.232 55.4536 103.44 55.4536 103.664C55.4536 104 55.4216 104.368 55.3576 104.768C55.2936 105.152 55.2136 105.544 55.1176 105.944C55.0376 106.344 54.9656 106.736 54.9016 107.12C54.8376 107.488 54.8056 107.816 54.8056 108.104C54.8056 108.344 54.8936 108.464 55.0696 108.464C55.2776 108.464 55.5416 108.304 55.8616 107.984C56.1816 107.664 56.5016 107.264 56.8216 106.784C57.1416 106.304 57.4376 105.784 57.7096 105.224C57.9976 104.648 58.1976 104.12 58.3096 103.64C58.3096 103.56 58.3016 103.472 58.2856 103.376C58.2696 103.28 58.2616 103.184 58.2616 103.088C58.2616 102.816 58.3416 102.608 58.5016 102.464C58.6776 102.32 58.8536 102.248 59.0296 102.248C59.1896 102.248 59.3416 102.264 59.4856 102.296C59.6456 102.312 59.7816 102.368 59.8936 102.464C60.0056 102.544 60.0936 102.68 60.1576 102.872C60.2216 103.064 60.2536 103.328 60.2536 103.664C60.2536 104 60.2216 104.368 60.1576 104.768C60.1096 105.152 60.0536 105.544 59.9896 105.944C59.9256 106.344 59.8616 106.736 59.7976 107.12C59.7496 107.488 59.7256 107.816 59.7256 108.104C59.7256 108.344 59.8136 108.464 59.9896 108.464ZM73.9881 110.264C73.9721 110.136 73.9641 109.976 73.9641 109.784C73.9641 109.576 73.9641 109.392 73.9641 109.232C73.9641 109.088 73.9401 109 73.8921 108.968C73.8601 108.92 73.8281 108.896 73.7961 108.896C73.7321 108.896 73.6761 108.92 73.6281 108.968C73.5801 109.016 73.5241 109.072 73.4601 109.136C73.3161 109.28 73.1081 109.448 72.8361 109.64C72.5801 109.832 72.3001 110.008 71.9961 110.168C71.6921 110.344 71.3721 110.488 71.0361 110.6C70.7001 110.712 70.3881 110.768 70.1001 110.768C69.8121 110.768 69.5561 110.704 69.3321 110.576C69.1241 110.448 68.9401 110.272 68.7801 110.048C68.6361 109.84 68.5241 109.6 68.4441 109.328C68.3801 109.056 68.3481 108.768 68.3481 108.464C68.3481 108.192 68.3721 107.92 68.4201 107.648C68.4681 107.472 68.5241 107.28 68.5881 107.072C68.6681 106.848 68.7721 106.608 68.9001 106.352C68.9161 106.32 68.9401 106.272 68.9721 106.208C69.0201 106.144 69.0601 106.08 69.0921 106.016C69.1401 105.952 69.1881 105.88 69.2361 105.8C69.4761 105.4 69.7961 105 70.1961 104.6C70.5961 104.2 71.0281 103.84 71.4921 103.52C71.9721 103.184 72.4441 102.92 72.9081 102.728C73.3721 102.52 73.7801 102.416 74.1321 102.416C74.3721 102.416 74.5961 102.44 74.8041 102.488C75.0281 102.536 75.2441 102.648 75.4521 102.824C75.5801 102.936 75.6921 103.08 75.7881 103.256C75.9001 103.416 75.9561 103.592 75.9561 103.784C75.9561 103.864 75.9321 103.952 75.8841 104.048C75.8521 104.672 75.8201 105.248 75.7881 105.776C75.7561 106.24 75.7321 106.696 75.7161 107.144C75.7161 107.576 75.7161 107.904 75.7161 108.128C75.7161 108.624 75.7321 109.072 75.7641 109.472C75.8121 109.872 75.8601 110.16 75.9081 110.336C75.9081 110.464 75.9001 110.576 75.8841 110.672C75.8841 110.768 75.8601 110.856 75.8121 110.936C75.7801 111 75.7401 111.064 75.6921 111.128C75.6441 111.192 75.5801 111.248 75.5001 111.296C75.4361 111.328 75.3801 111.344 75.3321 111.344C75.2681 111.344 75.2121 111.336 75.1641 111.32C75.1161 111.304 75.0601 111.296 74.9961 111.296C74.8841 111.312 74.8281 111.336 74.8281 111.368C74.4761 111.368 74.2681 111.264 74.2041 111.056C74.1401 110.848 74.0681 110.584 73.9881 110.264ZM74.3961 104.936C74.3321 104.936 74.2761 104.912 74.2281 104.864C74.1641 104.832 74.1161 104.8 74.0841 104.768C74.0681 104.72 74.0361 104.68 73.9881 104.648C73.7641 104.648 73.4361 104.8 73.0041 105.104C72.5881 105.392 72.1641 105.744 71.7321 106.16C71.3001 106.56 70.9241 106.976 70.6041 107.408C70.2841 107.84 70.1241 108.2 70.1241 108.488C70.1241 108.68 70.2121 108.776 70.3881 108.776C70.4841 108.776 70.6281 108.744 70.8201 108.68C71.0281 108.6 71.2681 108.472 71.5401 108.296C71.7481 108.168 71.9801 108.016 72.2361 107.84C72.5081 107.664 72.7721 107.472 73.0281 107.264C73.3001 107.04 73.5481 106.808 73.7721 106.568C73.9961 106.312 74.1721 106.04 74.3001 105.752C74.3321 105.544 74.3561 105.4 74.3721 105.32C74.3881 105.224 74.3961 105.096 74.3961 104.936ZM86.0213 110.696C85.6853 110.696 85.4053 110.608 85.1813 110.432C84.9573 110.272 84.7733 110.072 84.6293 109.832C84.5013 109.592 84.4053 109.344 84.3413 109.088C84.2773 108.816 84.2373 108.584 84.2213 108.392C84.1893 108.344 84.1573 108.32 84.1253 108.32C84.0613 108.32 83.9813 108.376 83.8853 108.488C83.7893 108.616 83.6773 108.776 83.5493 108.968C83.4213 109.144 83.2453 109.368 83.0213 109.64C82.7173 110.008 82.3493 110.328 81.9173 110.6C81.4853 110.888 81.0853 111.032 80.7173 111.032C80.2533 111.032 79.8533 110.816 79.5173 110.384C79.1813 109.952 79.0133 109.352 79.0133 108.584C79.0133 108.2 79.0373 107.832 79.0853 107.48C79.1333 107.112 79.1893 106.768 79.2533 106.448C79.3173 106.128 79.3573 105.792 79.3733 105.44C79.3893 105.088 79.4053 104.704 79.4213 104.288C79.4213 104.16 79.4213 104.04 79.4213 103.928C79.4373 103.816 79.4453 103.72 79.4453 103.64C79.4453 103.608 79.4373 103.584 79.4213 103.568C79.4053 103.552 79.3893 103.528 79.3733 103.496C79.3573 103.464 79.3493 103.424 79.3493 103.376C79.3493 103.328 79.3413 103.272 79.3253 103.208C79.3253 103.16 79.3253 103.12 79.3253 103.088C79.3413 103.04 79.3493 102.992 79.3493 102.944C79.3813 102.72 79.4773 102.536 79.6373 102.392C79.7973 102.232 79.9733 102.152 80.1653 102.152C80.3893 102.152 80.5973 102.224 80.7893 102.368C80.9973 102.512 81.1653 102.696 81.2933 102.92C81.4053 103.096 81.4773 103.28 81.5093 103.472C81.5573 103.648 81.5813 103.824 81.5813 104C81.5813 104.16 81.5733 104.28 81.5573 104.36V104.624C81.5573 104.752 81.5493 104.896 81.5333 105.056C81.5333 105.216 81.5253 105.384 81.5093 105.56C81.4933 105.72 81.4773 105.88 81.4613 106.04C81.4453 106.184 81.4293 106.296 81.4133 106.376C81.3813 106.504 81.3413 106.664 81.2933 106.856C81.2613 107.048 81.2213 107.24 81.1733 107.432C81.1413 107.608 81.1093 107.768 81.0773 107.912C81.0453 108.056 81.0293 108.152 81.0293 108.2C81.0293 108.328 81.0533 108.416 81.1013 108.464C81.1653 108.512 81.2373 108.544 81.3173 108.56C81.4613 108.56 81.6773 108.456 81.9653 108.248C82.2693 108.024 82.5733 107.736 82.8773 107.384C83.1973 107.032 83.4853 106.632 83.7413 106.184C84.0133 105.72 84.2053 105.256 84.3173 104.792C84.4453 104.28 84.5733 103.936 84.7013 103.76C84.8293 103.568 84.9573 103.472 85.0853 103.472C85.4053 103.472 85.7093 103.608 85.9973 103.88C86.3013 104.152 86.4533 104.552 86.4533 105.08C86.4533 105.352 86.4213 105.632 86.3573 105.92C86.3093 106.208 86.2693 106.456 86.2373 106.664C86.2053 106.84 86.1813 107.024 86.1653 107.216C86.1493 107.408 86.1413 107.616 86.1413 107.84C86.1413 107.968 86.1413 108.104 86.1413 108.248C86.1573 108.392 86.1893 108.496 86.2373 108.56C86.2693 108.56 86.3333 108.544 86.4293 108.512C86.5733 108.448 86.7493 108.416 86.9573 108.416C87.0693 108.416 87.2133 108.472 87.3893 108.584L87.5093 108.704C87.5413 108.736 87.5733 108.784 87.6053 108.848V109.232C87.5893 109.392 87.5493 109.56 87.4853 109.736C87.4213 109.896 87.3253 110.048 87.1973 110.192C87.0853 110.336 86.9253 110.456 86.7173 110.552C86.5253 110.648 86.2933 110.696 86.0213 110.696ZM83.7893 100.088C83.2773 100.088 82.8213 100.056 82.4213 99.992C82.0373 99.912 81.6373 99.744 81.2213 99.488C80.9013 99.296 80.6533 99.08 80.4773 98.84C80.3173 98.584 80.1813 98.304 80.0693 98C80.0373 97.904 80.0213 97.8 80.0213 97.688C80.0213 97.464 80.0933 97.28 80.2373 97.136C80.3173 97.056 80.4133 97 80.5253 96.968C80.6373 96.936 80.7493 96.904 80.8613 96.872C80.9253 96.856 80.9813 96.832 81.0293 96.8C81.0933 96.768 81.1653 96.752 81.2453 96.752C81.3253 96.752 81.4053 96.8 81.4853 96.896C81.5813 97.008 81.6533 97.168 81.7013 97.376C81.7653 97.568 81.8853 97.752 82.0613 97.928C82.2853 98.152 82.5093 98.296 82.7333 98.36C82.9573 98.408 83.2453 98.432 83.5973 98.432C84.0293 98.432 84.3733 98.384 84.6293 98.288C84.8853 98.192 85.1173 97.952 85.3253 97.568C85.5173 97.184 85.8453 96.992 86.3093 96.992C86.3893 96.992 86.4853 97.024 86.5973 97.088C86.7253 97.136 86.8293 97.176 86.9093 97.208C87.1013 97.288 87.1973 97.504 87.1973 97.856C87.1973 98.08 87.1573 98.28 87.0773 98.456C86.9973 98.616 86.8933 98.784 86.7653 98.96C86.4293 99.392 85.9733 99.688 85.3973 99.848C84.8373 100.008 84.3013 100.088 83.7893 100.088ZM98.8409 120.608C98.7289 120.384 98.6489 120.152 98.6009 119.912C98.5689 119.672 98.5529 119.352 98.5529 118.952C98.5529 118.536 98.5769 118.08 98.6249 117.584C98.6729 117.088 98.7209 116.504 98.7689 115.832C98.7849 115.56 98.8089 115.216 98.8409 114.8C98.8889 114.384 98.9529 113.928 99.0329 113.432C98.9369 113.432 98.8409 113.392 98.7449 113.312C98.6649 113.248 98.6009 113.176 98.5529 113.096C98.4409 112.872 98.3849 112.672 98.3849 112.496C98.3849 112.32 98.4009 112.168 98.4329 112.04C98.4649 111.912 98.5209 111.768 98.6009 111.608C98.6009 111.496 98.6329 111.368 98.6969 111.224C98.7609 111.096 98.8409 110.96 98.9369 110.816L99.5369 110L99.7529 108.728C99.8809 108.024 100.049 107.216 100.257 106.304C100.481 105.392 100.753 104.44 101.073 103.448C101.185 103.112 101.329 102.76 101.505 102.392C101.681 102.008 101.881 101.656 102.105 101.336C102.329 101.016 102.569 100.752 102.825 100.544C103.097 100.336 103.377 100.232 103.665 100.232C104.001 100.232 104.297 100.32 104.553 100.496C104.809 100.672 105.025 100.904 105.201 101.192C105.393 101.464 105.537 101.768 105.633 102.104C105.729 102.44 105.777 102.76 105.777 103.064C105.777 103.544 105.705 104.024 105.561 104.504C105.433 104.984 105.265 105.448 105.057 105.896C104.849 106.328 104.625 106.736 104.385 107.12C104.145 107.488 103.921 107.816 103.713 108.104L101.121 111.512C101.105 111.56 101.097 111.624 101.097 111.704C101.049 112.04 101.001 112.4 100.953 112.784C100.921 113.184 100.881 113.56 100.833 113.912C100.801 114.264 100.769 114.568 100.737 114.824C100.721 115.096 100.713 115.28 100.713 115.376C100.633 116.272 100.577 117.016 100.545 117.608C100.529 118.216 100.521 118.696 100.521 119.048C100.521 119.16 100.505 119.288 100.473 119.432C100.441 119.592 100.401 119.744 100.353 119.888C100.305 120.032 100.249 120.168 100.185 120.296C100.137 120.44 100.089 120.552 100.041 120.632C99.9289 120.808 99.8249 120.92 99.7289 120.968C99.6329 121.032 99.5609 121.064 99.5129 121.064C99.3689 121.064 99.2489 121.032 99.1529 120.968C99.0729 120.904 98.9689 120.784 98.8409 120.608ZM101.937 107.408C102.193 107.072 102.441 106.712 102.681 106.328C102.921 105.944 103.129 105.56 103.305 105.176C103.497 104.792 103.641 104.424 103.737 104.072C103.849 103.704 103.905 103.384 103.905 103.112C103.905 102.824 103.809 102.68 103.617 102.68C103.505 102.68 103.393 102.776 103.281 102.968C103.185 103.144 103.081 103.384 102.969 103.688C102.873 103.96 102.777 104.256 102.681 104.576C102.585 104.88 102.489 105.184 102.393 105.488C102.313 105.776 102.241 106.056 102.177 106.328C102.113 106.584 102.065 106.792 102.033 106.952L101.937 107.408ZM112.824 110.264C112.808 110.136 112.8 109.976 112.8 109.784C112.8 109.576 112.8 109.392 112.8 109.232C112.8 109.088 112.776 109 112.728 108.968C112.696 108.92 112.664 108.896 112.632 108.896C112.568 108.896 112.512 108.92 112.464 108.968C112.416 109.016 112.36 109.072 112.296 109.136C112.152 109.28 111.944 109.448 111.672 109.64C111.416 109.832 111.136 110.008 110.832 110.168C110.528 110.344 110.208 110.488 109.872 110.6C109.536 110.712 109.224 110.768 108.936 110.768C108.648 110.768 108.392 110.704 108.168 110.576C107.96 110.448 107.776 110.272 107.616 110.048C107.472 109.84 107.36 109.6 107.28 109.328C107.216 109.056 107.184 108.768 107.184 108.464C107.184 108.192 107.208 107.92 107.256 107.648C107.304 107.472 107.36 107.28 107.424 107.072C107.504 106.848 107.608 106.608 107.736 106.352C107.752 106.32 107.776 106.272 107.808 106.208C107.856 106.144 107.896 106.08 107.928 106.016C107.976 105.952 108.024 105.88 108.072 105.8C108.312 105.4 108.632 105 109.032 104.6C109.432 104.2 109.864 103.84 110.328 103.52C110.808 103.184 111.28 102.92 111.744 102.728C112.208 102.52 112.616 102.416 112.968 102.416C113.208 102.416 113.432 102.44 113.64 102.488C113.864 102.536 114.08 102.648 114.288 102.824C114.416 102.936 114.528 103.08 114.624 103.256C114.736 103.416 114.792 103.592 114.792 103.784C114.792 103.864 114.768 103.952 114.72 104.048C114.688 104.672 114.656 105.248 114.624 105.776C114.592 106.24 114.568 106.696 114.552 107.144C114.552 107.576 114.552 107.904 114.552 108.128C114.552 108.624 114.568 109.072 114.6 109.472C114.648 109.872 114.696 110.16 114.744 110.336C114.744 110.464 114.736 110.576 114.72 110.672C114.72 110.768 114.696 110.856 114.648 110.936C114.616 111 114.576 111.064 114.528 111.128C114.48 111.192 114.416 111.248 114.336 111.296C114.272 111.328 114.216 111.344 114.168 111.344C114.104 111.344 114.048 111.336 114 111.32C113.952 111.304 113.896 111.296 113.832 111.296C113.72 111.312 113.664 111.336 113.664 111.368C113.312 111.368 113.104 111.264 113.04 111.056C112.976 110.848 112.904 110.584 112.824 110.264ZM113.232 104.936C113.168 104.936 113.112 104.912 113.064 104.864C113 104.832 112.952 104.8 112.92 104.768C112.904 104.72 112.872 104.68 112.824 104.648C112.6 104.648 112.272 104.8 111.84 105.104C111.424 105.392 111 105.744 110.568 106.16C110.136 106.56 109.76 106.976 109.44 107.408C109.12 107.84 108.96 108.2 108.96 108.488C108.96 108.68 109.048 108.776 109.224 108.776C109.32 108.776 109.464 108.744 109.656 108.68C109.864 108.6 110.104 108.472 110.376 108.296C110.584 108.168 110.816 108.016 111.072 107.84C111.344 107.664 111.608 107.472 111.864 107.264C112.136 107.04 112.384 106.808 112.608 106.568C112.832 106.312 113.008 106.04 113.136 105.752C113.168 105.544 113.192 105.4 113.208 105.32C113.224 105.224 113.232 105.096 113.232 104.936ZM121.21 118.328C120.89 118.328 120.586 118.264 120.298 118.136C120.01 118.008 119.738 117.84 119.482 117.632C119.226 117.424 118.978 117.192 118.738 116.936C118.514 116.68 118.306 116.424 118.114 116.168C117.97 115.944 117.826 115.72 117.682 115.496C117.538 115.288 117.402 115.08 117.274 114.872C117.242 114.76 117.21 114.672 117.178 114.608C117.146 114.56 117.13 114.496 117.13 114.416C117.114 114.4 117.106 114.352 117.106 114.272C117.106 114.224 117.114 114.184 117.13 114.152C117.146 114.12 117.154 114.088 117.154 114.056C117.154 114.04 117.146 114.016 117.13 113.984C117.13 113.968 117.13 113.944 117.13 113.912C117.13 113.896 117.146 113.856 117.178 113.792C117.21 113.744 117.274 113.704 117.37 113.672C117.482 113.64 117.57 113.624 117.634 113.624L117.754 113.648C117.786 113.648 117.81 113.64 117.826 113.624C117.842 113.624 117.858 113.624 117.874 113.624C117.954 113.592 118.058 113.576 118.186 113.576C118.458 113.576 118.77 113.752 119.122 114.104C119.298 114.28 119.442 114.48 119.554 114.704C119.666 114.944 119.786 115.168 119.914 115.376C120.042 115.6 120.194 115.784 120.37 115.928C120.546 116.088 120.786 116.168 121.09 116.168C121.394 116.168 121.658 116.048 121.882 115.808C122.106 115.568 122.298 115.264 122.458 114.896C122.634 114.528 122.778 114.128 122.89 113.696C123.018 113.264 123.122 112.856 123.202 112.472C123.282 112.12 123.362 111.68 123.442 111.152C123.538 110.624 123.626 110.088 123.706 109.544C123.802 108.984 123.874 108.456 123.922 107.96C123.986 107.464 124.026 107.056 124.042 106.736C123.978 106.608 123.906 106.544 123.826 106.544C123.746 106.544 123.642 106.584 123.514 106.664C123.402 106.728 123.186 106.888 122.866 107.144C122.722 107.272 122.53 107.408 122.29 107.552C122.05 107.696 121.786 107.84 121.498 107.984C121.226 108.112 120.946 108.224 120.658 108.32C120.386 108.4 120.138 108.44 119.914 108.44C119.562 108.44 119.266 108.368 119.026 108.224C118.786 108.064 118.586 107.872 118.426 107.648C118.282 107.408 118.178 107.144 118.114 106.856C118.05 106.568 118.018 106.28 118.018 105.992C118.018 105.256 118.218 104.528 118.618 103.808C118.826 103.408 119.13 103.024 119.53 102.656C119.93 102.288 120.402 102.104 120.946 102.104C121.522 102.104 122.05 102.248 122.53 102.536C123.074 102.92 123.394 103.456 123.49 104.144C123.522 104.224 123.53 104.296 123.514 104.36C123.514 104.408 123.53 104.448 123.562 104.48L123.85 104.288C123.93 104.208 124.058 104.128 124.234 104.048C124.426 103.968 124.626 103.928 124.834 103.928C124.93 103.928 125.09 103.992 125.314 104.12C125.554 104.232 125.714 104.368 125.794 104.528C125.826 104.608 125.866 104.72 125.914 104.864C125.962 105.008 125.986 105.144 125.986 105.272C126.002 105.352 126.01 105.416 126.01 105.464C126.026 105.512 126.034 105.552 126.034 105.584V105.704C126.002 105.912 125.954 106.432 125.89 107.264C125.842 108.08 125.73 109.056 125.554 110.192C125.442 110.992 125.314 111.72 125.17 112.376C125.042 113.048 124.914 113.608 124.786 114.056C124.658 114.488 124.49 114.952 124.282 115.448C124.09 115.944 123.842 116.408 123.538 116.84C123.25 117.272 122.914 117.624 122.53 117.896C122.146 118.184 121.706 118.328 121.21 118.328ZM120.202 106.232C120.57 106.232 120.93 106.128 121.282 105.92C121.65 105.712 121.946 105.496 122.17 105.272V105.224C122.17 105.208 122.17 105.192 122.17 105.176C122.186 105.16 122.194 105.136 122.194 105.104C122.194 104.944 122.13 104.776 122.002 104.6C121.954 104.536 121.882 104.504 121.786 104.504C121.226 104.504 120.794 104.672 120.49 105.008C120.186 105.344 120.01 105.696 119.962 106.064C119.962 106.176 120.042 106.232 120.202 106.232ZM136.602 109.76C136.57 109.84 136.522 109.92 136.458 110C136.394 110.096 136.314 110.184 136.218 110.264C136.09 110.36 135.97 110.44 135.858 110.504C135.762 110.584 135.642 110.624 135.498 110.624C135.386 110.624 135.274 110.6 135.162 110.552C135.002 110.504 134.89 110.392 134.826 110.216C134.762 110.056 134.73 109.864 134.73 109.64C134.73 109.56 134.73 109.48 134.73 109.4C134.746 109.32 134.762 109.232 134.778 109.136C134.81 108.944 134.85 108.72 134.898 108.464C134.946 108.192 134.994 107.944 135.042 107.72C135.106 107.416 135.162 107.176 135.21 107C135.258 106.824 135.282 106.648 135.282 106.472C135.282 106.408 135.266 106.376 135.234 106.376C135.17 106.376 135.098 106.432 135.018 106.544C134.954 106.656 134.842 106.816 134.682 107.024C134.442 107.344 134.186 107.648 133.914 107.936C133.642 108.224 133.298 108.552 132.882 108.92C132.498 109.256 132.09 109.568 131.658 109.856C131.226 110.128 130.754 110.264 130.242 110.264C129.762 110.264 129.386 110.08 129.114 109.712C128.858 109.328 128.73 108.896 128.73 108.416C128.73 108.256 128.738 108.072 128.754 107.864C128.786 107.656 128.81 107.44 128.826 107.216C128.858 106.992 128.89 106.784 128.922 106.592C128.954 106.384 128.97 106.216 128.97 106.088C129.002 105.88 129.05 105.608 129.114 105.272C129.178 104.936 129.21 104.656 129.21 104.432L129.33 103.616C129.362 103.456 129.378 103.312 129.378 103.184C129.394 103.04 129.418 102.912 129.45 102.8C129.466 102.736 129.474 102.68 129.474 102.632C129.474 102.568 129.474 102.512 129.474 102.464C129.474 102.336 129.506 102.264 129.57 102.248C129.666 102.168 129.794 102.104 129.954 102.056C130.066 102.008 130.17 101.992 130.266 102.008C130.362 102.008 130.426 101.992 130.458 101.96C130.634 101.96 130.802 102.072 130.962 102.296C131.122 102.52 131.218 102.72 131.25 102.896C131.266 102.944 131.274 103.016 131.274 103.112C131.274 103.192 131.274 103.288 131.274 103.4C131.274 103.672 131.258 103.936 131.226 104.192C131.194 104.448 131.154 104.72 131.106 105.008C131.074 105.136 131.034 105.296 130.986 105.488C130.954 105.68 130.914 105.872 130.866 106.064C130.834 106.256 130.802 106.432 130.77 106.592C130.754 106.736 130.746 106.84 130.746 106.904C130.746 107 130.762 107.088 130.794 107.168C130.842 107.232 130.93 107.264 131.058 107.264C131.202 107.264 131.418 107.16 131.706 106.952C131.994 106.744 132.298 106.496 132.618 106.208C132.954 105.904 133.274 105.592 133.578 105.272C133.898 104.936 134.154 104.64 134.346 104.384C134.65 103.984 134.898 103.656 135.09 103.4C135.298 103.144 135.482 102.944 135.642 102.8C135.802 102.64 136.042 102.56 136.362 102.56C136.522 102.56 136.658 102.624 136.77 102.752C136.898 102.88 137.002 103.008 137.082 103.136C137.21 103.344 137.274 103.576 137.274 103.832C137.274 104.072 137.29 104.32 137.322 104.576C137.322 104.64 137.306 104.704 137.274 104.768C137.242 104.832 137.226 104.896 137.226 104.96C137.21 105.136 137.194 105.344 137.178 105.584C137.162 105.824 137.146 106.088 137.13 106.376C137.05 107.24 136.97 107.928 136.89 108.44C136.826 108.936 136.738 109.344 136.626 109.664L136.602 109.76ZM142.304 110.48C141.84 110.48 141.44 110.4 141.104 110.24C140.784 110.08 140.52 109.872 140.312 109.616C140.104 109.344 139.944 109.056 139.832 108.752C139.736 108.432 139.688 108.112 139.688 107.792C139.688 107.296 139.784 106.84 139.976 106.424C140.168 105.992 140.4 105.592 140.672 105.224C140.768 105.096 140.88 104.952 141.008 104.792C141.152 104.616 141.296 104.456 141.44 104.312C141.6 104.152 141.752 104.008 141.896 103.88C142.04 103.752 142.168 103.664 142.28 103.616C142.504 103.504 142.664 103.4 142.76 103.304C142.872 103.192 143.024 103.136 143.216 103.136C143.6 103.136 143.944 103.232 144.248 103.424C144.552 103.6 144.808 103.84 145.016 104.144C145.224 104.448 145.376 104.792 145.472 105.176C145.584 105.56 145.64 105.952 145.64 106.352C145.64 107.616 145.36 108.624 144.8 109.376C144.24 110.112 143.408 110.48 142.304 110.48ZM142.88 105.2C142.816 105.2 142.752 105.208 142.688 105.224C142.624 105.224 142.568 105.248 142.52 105.296C142.392 105.424 142.288 105.544 142.208 105.656C142.128 105.752 142.024 105.912 141.896 106.136C141.816 106.28 141.744 106.472 141.68 106.712C141.632 106.936 141.608 107.184 141.608 107.456C141.608 107.728 141.68 107.952 141.824 108.128C141.968 108.288 142.2 108.368 142.52 108.368C142.712 108.368 142.904 108.32 143.096 108.224C143.288 108.112 143.456 107.968 143.6 107.792C143.744 107.616 143.864 107.408 143.96 107.168C144.056 106.928 144.104 106.672 144.104 106.4C144.104 106.096 144.008 105.824 143.816 105.584C143.624 105.328 143.384 105.2 143.096 105.2H142.88ZM164.139 110.696C163.803 110.696 163.523 110.608 163.299 110.432C163.075 110.272 162.891 110.072 162.747 109.832C162.619 109.592 162.523 109.344 162.459 109.088C162.395 108.816 162.355 108.584 162.339 108.392C162.307 108.344 162.275 108.32 162.243 108.32C162.179 108.32 162.099 108.376 162.003 108.488C161.907 108.616 161.795 108.776 161.667 108.968C161.539 109.144 161.363 109.368 161.139 109.64C160.835 110.008 160.467 110.328 160.035 110.6C159.603 110.888 159.203 111.032 158.835 111.032C158.371 111.032 157.971 110.816 157.635 110.384C157.299 109.952 157.131 109.352 157.131 108.584C157.131 108.2 157.155 107.832 157.203 107.48C157.251 107.112 157.307 106.768 157.371 106.448C157.435 106.128 157.475 105.792 157.491 105.44C157.507 105.088 157.523 104.704 157.539 104.288C157.539 104.16 157.539 104.04 157.539 103.928C157.555 103.816 157.563 103.72 157.563 103.64C157.563 103.608 157.555 103.584 157.539 103.568C157.523 103.552 157.507 103.528 157.491 103.496C157.475 103.464 157.467 103.424 157.467 103.376C157.467 103.328 157.459 103.272 157.443 103.208C157.443 103.16 157.443 103.12 157.443 103.088C157.459 103.04 157.467 102.992 157.467 102.944C157.499 102.72 157.595 102.536 157.755 102.392C157.915 102.232 158.091 102.152 158.283 102.152C158.507 102.152 158.715 102.224 158.907 102.368C159.115 102.512 159.283 102.696 159.411 102.92C159.523 103.096 159.595 103.28 159.627 103.472C159.675 103.648 159.699 103.824 159.699 104C159.699 104.16 159.691 104.28 159.675 104.36V104.624C159.675 104.752 159.667 104.896 159.651 105.056C159.651 105.216 159.643 105.384 159.627 105.56C159.611 105.72 159.595 105.88 159.579 106.04C159.563 106.184 159.547 106.296 159.531 106.376C159.499 106.504 159.459 106.664 159.411 106.856C159.379 107.048 159.339 107.24 159.291 107.432C159.259 107.608 159.227 107.768 159.195 107.912C159.163 108.056 159.147 108.152 159.147 108.2C159.147 108.328 159.171 108.416 159.219 108.464C159.283 108.512 159.355 108.544 159.435 108.56C159.579 108.56 159.795 108.456 160.083 108.248C160.387 108.024 160.691 107.736 160.995 107.384C161.315 107.032 161.603 106.632 161.859 106.184C162.131 105.72 162.323 105.256 162.435 104.792C162.563 104.28 162.691 103.936 162.819 103.76C162.947 103.568 163.075 103.472 163.203 103.472C163.523 103.472 163.827 103.608 164.115 103.88C164.419 104.152 164.571 104.552 164.571 105.08C164.571 105.352 164.539 105.632 164.475 105.92C164.427 106.208 164.387 106.456 164.355 106.664C164.323 106.84 164.299 107.024 164.283 107.216C164.267 107.408 164.259 107.616 164.259 107.84C164.259 107.968 164.259 108.104 164.259 108.248C164.275 108.392 164.307 108.496 164.355 108.56C164.387 108.56 164.451 108.544 164.547 108.512C164.691 108.448 164.867 108.416 165.075 108.416C165.187 108.416 165.331 108.472 165.507 108.584L165.627 108.704C165.659 108.736 165.691 108.784 165.723 108.848V109.232C165.707 109.392 165.667 109.56 165.603 109.736C165.539 109.896 165.443 110.048 165.315 110.192C165.203 110.336 165.043 110.456 164.835 110.552C164.643 110.648 164.411 110.696 164.139 110.696ZM176.958 120.608C176.846 120.384 176.766 120.152 176.718 119.912C176.686 119.672 176.67 119.352 176.67 118.952C176.67 118.536 176.694 118.08 176.742 117.584C176.79 117.088 176.838 116.504 176.886 115.832C176.902 115.56 176.926 115.216 176.958 114.8C177.006 114.384 177.07 113.928 177.15 113.432C177.054 113.432 176.958 113.392 176.862 113.312C176.782 113.248 176.718 113.176 176.67 113.096C176.558 112.872 176.502 112.672 176.502 112.496C176.502 112.32 176.518 112.168 176.55 112.04C176.582 111.912 176.638 111.768 176.718 111.608C176.718 111.496 176.75 111.368 176.814 111.224C176.878 111.096 176.958 110.96 177.054 110.816L177.654 110L177.87 108.728C177.998 108.024 178.166 107.216 178.374 106.304C178.598 105.392 178.87 104.44 179.19 103.448C179.302 103.112 179.446 102.76 179.622 102.392C179.798 102.008 179.998 101.656 180.222 101.336C180.446 101.016 180.686 100.752 180.942 100.544C181.214 100.336 181.494 100.232 181.782 100.232C182.118 100.232 182.414 100.32 182.67 100.496C182.926 100.672 183.142 100.904 183.318 101.192C183.51 101.464 183.654 101.768 183.75 102.104C183.846 102.44 183.894 102.76 183.894 103.064C183.894 103.544 183.822 104.024 183.678 104.504C183.55 104.984 183.382 105.448 183.174 105.896C182.966 106.328 182.742 106.736 182.502 107.12C182.262 107.488 182.038 107.816 181.83 108.104L179.238 111.512C179.222 111.56 179.214 111.624 179.214 111.704C179.166 112.04 179.118 112.4 179.07 112.784C179.038 113.184 178.998 113.56 178.95 113.912C178.918 114.264 178.886 114.568 178.854 114.824C178.838 115.096 178.83 115.28 178.83 115.376C178.75 116.272 178.694 117.016 178.662 117.608C178.646 118.216 178.638 118.696 178.638 119.048C178.638 119.16 178.622 119.288 178.59 119.432C178.558 119.592 178.518 119.744 178.47 119.888C178.422 120.032 178.366 120.168 178.302 120.296C178.254 120.44 178.206 120.552 178.158 120.632C178.046 120.808 177.942 120.92 177.846 120.968C177.75 121.032 177.678 121.064 177.63 121.064C177.486 121.064 177.366 121.032 177.27 120.968C177.19 120.904 177.086 120.784 176.958 120.608ZM180.054 107.408C180.31 107.072 180.558 106.712 180.798 106.328C181.038 105.944 181.246 105.56 181.422 105.176C181.614 104.792 181.758 104.424 181.854 104.072C181.966 103.704 182.022 103.384 182.022 103.112C182.022 102.824 181.926 102.68 181.734 102.68C181.622 102.68 181.51 102.776 181.398 102.968C181.302 103.144 181.198 103.384 181.086 103.688C180.99 103.96 180.894 104.256 180.798 104.576C180.702 104.88 180.606 105.184 180.51 105.488C180.43 105.776 180.358 106.056 180.294 106.328C180.23 106.584 180.182 106.792 180.15 106.952L180.054 107.408ZM193.907 109.76C193.875 109.84 193.827 109.92 193.763 110C193.699 110.096 193.619 110.184 193.523 110.264C193.395 110.36 193.275 110.44 193.163 110.504C193.067 110.584 192.947 110.624 192.803 110.624C192.691 110.624 192.579 110.6 192.467 110.552C192.307 110.504 192.195 110.392 192.131 110.216C192.067 110.056 192.035 109.864 192.035 109.64C192.035 109.56 192.035 109.48 192.035 109.4C192.051 109.32 192.067 109.232 192.083 109.136C192.115 108.944 192.155 108.72 192.203 108.464C192.251 108.192 192.299 107.944 192.347 107.72C192.411 107.416 192.467 107.176 192.515 107C192.563 106.824 192.587 106.648 192.587 106.472C192.587 106.408 192.571 106.376 192.539 106.376C192.475 106.376 192.403 106.432 192.323 106.544C192.259 106.656 192.147 106.816 191.987 107.024C191.747 107.344 191.491 107.648 191.219 107.936C190.947 108.224 190.603 108.552 190.187 108.92C189.803 109.256 189.395 109.568 188.963 109.856C188.531 110.128 188.059 110.264 187.547 110.264C187.067 110.264 186.691 110.08 186.419 109.712C186.163 109.328 186.035 108.896 186.035 108.416C186.035 108.256 186.043 108.072 186.059 107.864C186.091 107.656 186.115 107.44 186.131 107.216C186.163 106.992 186.195 106.784 186.227 106.592C186.259 106.384 186.275 106.216 186.275 106.088C186.307 105.88 186.355 105.608 186.419 105.272C186.483 104.936 186.515 104.656 186.515 104.432L186.635 103.616C186.667 103.456 186.683 103.312 186.683 103.184C186.699 103.04 186.723 102.912 186.755 102.8C186.771 102.736 186.779 102.68 186.779 102.632C186.779 102.568 186.779 102.512 186.779 102.464C186.779 102.336 186.811 102.264 186.875 102.248C186.971 102.168 187.099 102.104 187.259 102.056C187.371 102.008 187.475 101.992 187.571 102.008C187.667 102.008 187.731 101.992 187.763 101.96C187.939 101.96 188.107 102.072 188.267 102.296C188.427 102.52 188.523 102.72 188.555 102.896C188.571 102.944 188.579 103.016 188.579 103.112C188.579 103.192 188.579 103.288 188.579 103.4C188.579 103.672 188.563 103.936 188.531 104.192C188.499 104.448 188.459 104.72 188.411 105.008C188.379 105.136 188.339 105.296 188.291 105.488C188.259 105.68 188.219 105.872 188.171 106.064C188.139 106.256 188.107 106.432 188.075 106.592C188.059 106.736 188.051 106.84 188.051 106.904C188.051 107 188.067 107.088 188.099 107.168C188.147 107.232 188.235 107.264 188.363 107.264C188.507 107.264 188.723 107.16 189.011 106.952C189.299 106.744 189.603 106.496 189.923 106.208C190.259 105.904 190.579 105.592 190.883 105.272C191.203 104.936 191.459 104.64 191.651 104.384C191.955 103.984 192.203 103.656 192.395 103.4C192.603 103.144 192.787 102.944 192.947 102.8C193.107 102.64 193.347 102.56 193.667 102.56C193.827 102.56 193.963 102.624 194.075 102.752C194.203 102.88 194.307 103.008 194.387 103.136C194.515 103.344 194.579 103.576 194.579 103.832C194.579 104.072 194.595 104.32 194.627 104.576C194.627 104.64 194.611 104.704 194.579 104.768C194.547 104.832 194.531 104.896 194.531 104.96C194.515 105.136 194.499 105.344 194.483 105.584C194.467 105.824 194.451 106.088 194.435 106.376C194.355 107.24 194.275 107.928 194.195 108.44C194.131 108.936 194.043 109.344 193.931 109.664L193.907 109.76ZM204.528 107.096C204.624 107.128 204.704 107.208 204.768 107.336C204.88 107.56 204.936 107.824 204.936 108.128C204.936 108.256 204.896 108.384 204.816 108.512C204.752 108.64 204.68 108.744 204.6 108.824C204.44 108.984 204.296 109.136 204.168 109.28C204.04 109.408 203.888 109.536 203.712 109.664C203.536 109.792 203.304 109.936 203.016 110.096C202.744 110.272 202.456 110.424 202.152 110.552C201.944 110.648 201.76 110.72 201.6 110.768C201.456 110.832 201.304 110.88 201.144 110.912C201 110.944 200.848 110.96 200.688 110.96C200.528 110.976 200.336 110.984 200.112 110.984C199.824 110.984 199.52 110.928 199.2 110.816C198.896 110.72 198.68 110.632 198.552 110.552C198.024 110.232 197.648 109.808 197.424 109.28C197.2 108.736 197.088 108.072 197.088 107.288C197.088 106.808 197.144 106.344 197.256 105.896C197.368 105.432 197.512 105.008 197.688 104.624C197.88 104.224 198.088 103.864 198.312 103.544C198.552 103.224 198.792 102.952 199.032 102.728C199.16 102.6 199.328 102.456 199.536 102.296C199.76 102.136 199.984 101.992 200.208 101.864C200.448 101.736 200.704 101.624 200.976 101.528C201.248 101.416 201.584 101.36 201.984 101.36C202.384 101.36 202.76 101.512 203.112 101.816C203.48 102.104 203.664 102.456 203.664 102.872C203.664 102.968 203.656 103.056 203.64 103.136C203.624 103.2 203.6 103.264 203.568 103.328C203.536 103.424 203.48 103.528 203.4 103.64C203.336 103.736 203.264 103.808 203.184 103.856C203.056 103.952 202.848 104 202.56 104C202.384 104 202.248 103.992 202.152 103.976C202.056 103.944 201.92 103.928 201.744 103.928C201.488 103.928 201.2 104.04 200.88 104.264C200.576 104.472 200.288 104.752 200.016 105.104C199.744 105.456 199.512 105.848 199.32 106.28C199.144 106.696 199.056 107.12 199.056 107.552C199.056 107.952 199.128 108.28 199.272 108.536C199.432 108.792 199.72 108.92 200.136 108.92C200.504 108.92 200.848 108.856 201.168 108.728C201.504 108.584 201.776 108.456 201.984 108.344C202.144 108.264 202.336 108.152 202.56 108.008C202.8 107.848 203.008 107.712 203.184 107.6C203.344 107.504 203.472 107.408 203.568 107.312C203.664 107.216 203.76 107.144 203.856 107.096C203.936 107.064 204.016 107.04 204.096 107.024C204.176 107.008 204.232 107 204.264 107C204.36 107 204.448 107.032 204.528 107.096ZM213.349 112.496C213.205 113.216 213.005 113.904 212.749 114.56C212.509 115.216 212.181 115.88 211.765 116.552C211.701 116.648 211.621 116.752 211.525 116.864C211.429 116.976 211.341 117.08 211.261 117.176C211.213 117.224 211.165 117.264 211.117 117.296C211.085 117.328 211.037 117.384 210.973 117.464C210.845 117.624 210.717 117.808 210.589 118.016C210.461 118.224 210.333 118.392 210.205 118.52C209.629 119.112 208.981 119.576 208.261 119.912C207.557 120.264 206.765 120.44 205.885 120.44C205.437 120.44 205.101 120.352 204.877 120.176C204.797 120.112 204.749 120.072 204.733 120.056C204.717 120.04 204.701 119.968 204.685 119.84C204.653 119.824 204.645 119.776 204.661 119.696C204.661 119.616 204.637 119.56 204.589 119.528C204.605 119.512 204.613 119.488 204.613 119.456C204.613 119.424 204.597 119.392 204.565 119.36C204.549 119.344 204.541 119.328 204.541 119.312C204.573 119.28 204.589 119.248 204.589 119.216C204.589 119.2 204.589 119.184 204.589 119.168C204.573 119.168 204.565 119.16 204.565 119.144C204.581 119.112 204.597 119.072 204.613 119.024C204.613 118.992 204.653 118.952 204.733 118.904C204.733 118.84 204.765 118.8 204.829 118.784C204.877 118.768 204.901 118.712 204.901 118.616C204.981 118.552 205.069 118.496 205.165 118.448C205.261 118.4 205.341 118.376 205.405 118.376C205.565 118.376 205.685 118.384 205.765 118.4C205.845 118.416 205.909 118.424 205.957 118.424C206.021 118.424 206.085 118.424 206.149 118.424C206.757 118.424 207.309 118.28 207.805 117.992C208.317 117.704 208.773 117.344 209.173 116.912C209.541 116.512 209.861 116.088 210.133 115.64C210.405 115.192 210.629 114.768 210.805 114.368C210.837 114.288 210.877 114.208 210.925 114.128C210.973 114.064 211.013 113.992 211.045 113.912C211.093 113.72 211.157 113.496 211.237 113.24C211.333 112.984 211.421 112.736 211.501 112.496L211.741 111.656C211.741 111.64 211.741 111.608 211.741 111.56C211.741 111.512 211.757 111.432 211.789 111.32C211.917 110.808 212.013 110.328 212.077 109.88C212.157 109.416 212.237 109.016 212.317 108.68C212.397 108.312 212.445 108.072 212.461 107.96C212.493 107.832 212.509 107.744 212.509 107.696C212.509 107.632 212.485 107.6 212.437 107.6C212.373 107.6 212.317 107.64 212.269 107.72C212.221 107.8 212.085 108 211.861 108.32C211.733 108.496 211.565 108.712 211.357 108.968C211.165 109.224 210.933 109.472 210.661 109.712C210.405 109.952 210.117 110.16 209.797 110.336C209.493 110.512 209.181 110.6 208.861 110.6C208.253 110.6 207.821 110.392 207.565 109.976C207.309 109.544 207.181 109.064 207.181 108.536C207.181 108.024 207.197 107.584 207.229 107.216C207.277 106.848 207.317 106.552 207.349 106.328C207.381 106.2 207.389 106.056 207.373 105.896C207.373 105.736 207.389 105.584 207.421 105.44C207.421 105.36 207.413 105.28 207.397 105.2C207.397 105.12 207.397 105.04 207.397 104.96C207.397 104.816 207.389 104.688 207.373 104.576C207.373 104.464 207.365 104.368 207.349 104.288C207.333 104.208 207.325 104.136 207.325 104.072C207.325 103.992 207.325 103.912 207.325 103.832C207.357 103.672 207.389 103.552 207.421 103.472C207.469 103.392 207.509 103.312 207.541 103.232C207.573 103.152 207.621 103.08 207.685 103.016C207.685 102.952 207.725 102.92 207.805 102.92C207.869 102.92 207.949 102.904 208.045 102.872C208.125 102.856 208.237 102.848 208.381 102.848L208.645 102.968C208.757 103.032 208.861 103.112 208.957 103.208C209.069 103.304 209.149 103.432 209.197 103.592C209.293 103.976 209.341 104.256 209.341 104.432C209.325 104.592 209.285 104.792 209.221 105.032C209.173 105.256 209.149 105.456 209.149 105.632C209.133 105.744 209.117 105.888 209.101 106.064C209.085 106.24 209.061 106.424 209.029 106.616C209.013 106.808 208.997 107 208.981 107.192C208.965 107.368 208.957 107.52 208.957 107.648C208.957 107.984 209.045 108.152 209.221 108.152C209.381 108.152 209.573 108.08 209.797 107.936C210.021 107.792 210.245 107.608 210.469 107.384C210.693 107.16 210.917 106.904 211.141 106.616C211.365 106.312 211.557 106.008 211.717 105.704C211.893 105.384 212.061 105.104 212.221 104.864C212.397 104.608 212.629 104.48 212.917 104.48C213.029 104.48 213.157 104.504 213.301 104.552C213.461 104.584 213.605 104.664 213.733 104.792C213.957 105 214.109 105.208 214.189 105.416C214.269 105.624 214.309 105.92 214.309 106.304C214.309 106.416 214.293 106.624 214.261 106.928C214.245 107.216 214.213 107.56 214.165 107.96C214.117 108.36 214.053 108.808 213.973 109.304C213.893 109.784 213.805 110.272 213.709 110.768L213.349 112.496ZM223.928 110.696C223.592 110.696 223.312 110.608 223.088 110.432C222.864 110.272 222.68 110.072 222.536 109.832C222.408 109.592 222.312 109.344 222.248 109.088C222.184 108.816 222.144 108.584 222.128 108.392C222.096 108.344 222.064 108.32 222.032 108.32C221.968 108.32 221.888 108.376 221.792 108.488C221.696 108.616 221.584 108.776 221.456 108.968C221.328 109.144 221.152 109.368 220.928 109.64C220.624 110.008 220.256 110.328 219.824 110.6C219.392 110.888 218.992 111.032 218.624 111.032C218.16 111.032 217.76 110.816 217.424 110.384C217.088 109.952 216.92 109.352 216.92 108.584C216.92 108.2 216.944 107.832 216.992 107.48C217.04 107.112 217.096 106.768 217.16 106.448C217.224 106.128 217.264 105.792 217.28 105.44C217.296 105.088 217.312 104.704 217.328 104.288C217.328 104.16 217.328 104.04 217.328 103.928C217.344 103.816 217.352 103.72 217.352 103.64C217.352 103.608 217.344 103.584 217.328 103.568C217.312 103.552 217.296 103.528 217.28 103.496C217.264 103.464 217.256 103.424 217.256 103.376C217.256 103.328 217.248 103.272 217.232 103.208C217.232 103.16 217.232 103.12 217.232 103.088C217.248 103.04 217.256 102.992 217.256 102.944C217.288 102.72 217.384 102.536 217.544 102.392C217.704 102.232 217.88 102.152 218.072 102.152C218.296 102.152 218.504 102.224 218.696 102.368C218.904 102.512 219.072 102.696 219.2 102.92C219.312 103.096 219.384 103.28 219.416 103.472C219.464 103.648 219.488 103.824 219.488 104C219.488 104.16 219.48 104.28 219.464 104.36V104.624C219.464 104.752 219.456 104.896 219.44 105.056C219.44 105.216 219.432 105.384 219.416 105.56C219.4 105.72 219.384 105.88 219.368 106.04C219.352 106.184 219.336 106.296 219.32 106.376C219.288 106.504 219.248 106.664 219.2 106.856C219.168 107.048 219.128 107.24 219.08 107.432C219.048 107.608 219.016 107.768 218.984 107.912C218.952 108.056 218.936 108.152 218.936 108.2C218.936 108.328 218.96 108.416 219.008 108.464C219.072 108.512 219.144 108.544 219.224 108.56C219.368 108.56 219.584 108.456 219.872 108.248C220.176 108.024 220.48 107.736 220.784 107.384C221.104 107.032 221.392 106.632 221.648 106.184C221.92 105.72 222.112 105.256 222.224 104.792C222.352 104.28 222.48 103.936 222.608 103.76C222.736 103.568 222.864 103.472 222.992 103.472C223.312 103.472 223.616 103.608 223.904 103.88C224.208 104.152 224.36 104.552 224.36 105.08C224.36 105.352 224.328 105.632 224.264 105.92C224.216 106.208 224.176 106.456 224.144 106.664C224.112 106.84 224.088 107.024 224.072 107.216C224.056 107.408 224.048 107.616 224.048 107.84C224.048 107.968 224.048 108.104 224.048 108.248C224.064 108.392 224.096 108.496 224.144 108.56C224.176 108.56 224.24 108.544 224.336 108.512C224.48 108.448 224.656 108.416 224.864 108.416C224.976 108.416 225.12 108.472 225.296 108.584L225.416 108.704C225.448 108.736 225.48 108.784 225.512 108.848V109.232C225.496 109.392 225.456 109.56 225.392 109.736C225.328 109.896 225.232 110.048 225.104 110.192C224.992 110.336 224.832 110.456 224.624 110.552C224.432 110.648 224.2 110.696 223.928 110.696ZM221.696 100.088C221.184 100.088 220.728 100.056 220.328 99.992C219.944 99.912 219.544 99.744 219.128 99.488C218.808 99.296 218.56 99.08 218.384 98.84C218.224 98.584 218.088 98.304 217.976 98C217.944 97.904 217.928 97.8 217.928 97.688C217.928 97.464 218 97.28 218.144 97.136C218.224 97.056 218.32 97 218.432 96.968C218.544 96.936 218.656 96.904 218.768 96.872C218.832 96.856 218.888 96.832 218.936 96.8C219 96.768 219.072 96.752 219.152 96.752C219.232 96.752 219.312 96.8 219.392 96.896C219.488 97.008 219.56 97.168 219.608 97.376C219.672 97.568 219.792 97.752 219.968 97.928C220.192 98.152 220.416 98.296 220.64 98.36C220.864 98.408 221.152 98.432 221.504 98.432C221.936 98.432 222.28 98.384 222.536 98.288C222.792 98.192 223.024 97.952 223.232 97.568C223.424 97.184 223.752 96.992 224.216 96.992C224.296 96.992 224.392 97.024 224.504 97.088C224.632 97.136 224.736 97.176 224.816 97.208C225.008 97.288 225.104 97.504 225.104 97.856C225.104 98.08 225.064 98.28 224.984 98.456C224.904 98.616 224.8 98.784 224.672 98.96C224.336 99.392 223.88 99.688 223.304 99.848C222.744 100.008 222.208 100.088 221.696 100.088Z" fill="#074F9F"/>
</svg>
