<svg width="1927" height="3476" viewBox="0 0 1927 3476" fill="none" xmlns="http://www.w3.org/2000/svg">
<g opacity="0.5">
<path opacity="0.5" d="M318.315 101.432C324.289 103.784 330.262 101.432 332.254 94.3764L350.175 47.6096C358.14 28.8847 375.962 21.829 391.892 28.8848L417.679 42.9058C423.653 45.2577 429.627 42.9057 431.618 35.85C433.609 28.7943 431.618 21.8291 425.644 19.4772L399.857 5.45615C374.07 -8.56488 342.21 5.45602 330.362 35.85L312.441 82.6169C310.35 89.7631 312.341 96.8189 318.315 101.432Z" fill="#0981F3"/>
</g>
<path opacity="0.5" d="M407.723 57.0164L419.67 64.0717C423.653 66.4236 429.627 64.0718 431.618 59.3681L443.566 26.6233C445.557 21.9196 443.566 14.9546 439.583 12.6027L427.635 5.54716C423.653 3.19532 417.679 5.54711 415.688 10.2508L403.74 42.9958C401.749 47.609 403.74 54.6646 407.723 57.0164Z" fill="#00CBFF"/>
<path opacity="0.5" d="M346.094 127.21L352.067 94.4656C352.067 89.762 350.076 85.0584 346.094 82.7971L318.315 68.7767C306.368 61.7212 294.52 64.073 284.563 73.4802L262.659 94.5561L346.094 127.21Z" fill="#FFB000"/>
<path opacity="0.4" d="M286.554 71.0374C306.368 78.0931 336.237 94.4658 350.076 103.783L346.093 127.211L262.659 94.4658L286.554 71.0374Z" fill="#FFB000"/>
<path opacity="0.5" d="M356.049 223.096L366.006 143.494C367.997 134.177 362.023 124.769 356.049 120.066L296.411 87.3201C266.642 70.9473 230.898 75.651 205.012 98.989L139.499 157.515L356.049 223.096Z" fill="#FFB000"/>
<path opacity="0.4" d="M175.242 129.562C208.994 131.914 244.737 143.583 278.589 157.695C278.589 127.301 302.385 124.949 302.385 124.949L324.289 143.674L314.332 174.068C332.254 183.385 348.084 192.792 360.032 199.848L356.049 225.629L141.49 162.489L175.242 129.562Z" fill="#FFB000"/>
<path opacity="0.5" d="M75.9782 190.351L68.0131 124.86L1 73.39V147.5L34.1615 209.076L75.9782 190.351Z" fill="#FFB000"/>
<path opacity="0.4" d="M75.9781 190.351L34.261 211.428L1.0001 151.628L1 146C1 144.5 1 142.5 1.0001 141.971C24.1782 134.277 53.1555 134.407 68.013 136.53L75.9781 190.351Z" fill="#FFB000"/>
<path opacity="0.8" d="M1.00013 324C1.00084 312.5 1.00073 312 1.00073 281.5L1 269.38L12.4558 267.51L26.3947 318.981L1 336.92L1.00013 324Z" fill="#FFB000"/>
<path opacity="0.5" d="M226.915 543.677C226.915 543.677 133.525 581.126 58.0556 503.876C54.073 499.172 56.0643 492.207 60.0469 492.207C85.8338 487.503 135.516 471.13 107.738 438.385L226.915 543.677Z" fill="#FFB000"/>
<path opacity="0.8" d="M109.729 438.385L228.907 543.677C228.907 543.677 216.959 548.381 197.146 550.733C157.42 536.712 113.712 508.58 79.96 487.503C103.756 480.538 131.534 464.165 109.729 438.385Z" fill="#FFB000"/>
<path opacity="0.5" d="M322.297 592.885C322.297 592.885 100.572 533.811 0.969727 337.5C0.969727 333 2.45311 324.039 1.00062 321C1.00062 293 1.00041 251 1.00055 231.5C1.00055 222.5 1.00025 207.5 1.00025 200.518C16.9339 172.208 36.1885 163.363 62.0384 157.694C256.685 110.928 441.475 270.043 441.475 270.043C506.987 328.569 528.891 415.136 499.122 494.648C467.262 578.773 397.766 606.906 322.297 592.885Z" fill="#FFB000"/>
<path opacity="0.5" d="M151.446 443.088C151.446 445.44 151.446 447.792 153.438 447.792C155.429 447.792 157.42 447.792 157.42 445.44C157.42 443.088 157.42 440.736 155.429 440.736C153.438 440.736 151.446 440.736 151.446 443.088Z" fill="#FF9D00"/>
<path opacity="0.5" d="M153.438 478.186C153.438 480.537 153.438 482.889 155.429 482.889C157.42 482.889 159.411 482.889 159.411 480.537C159.411 478.186 159.411 475.834 157.42 475.834C157.42 475.834 155.429 478.186 153.438 478.186Z" fill="#FF9D00"/>
<path opacity="0.5" d="M153.438 405.64C153.438 407.991 153.438 410.343 155.429 410.343C157.42 410.343 159.411 410.343 159.411 407.992C159.411 405.64 159.411 403.288 157.42 403.288C155.429 400.936 153.438 403.288 153.438 405.64Z" fill="#FF9D00"/>
<path opacity="0.5" d="M163.394 368.189C163.394 370.541 163.394 372.893 165.385 372.893C167.376 372.893 169.367 372.893 169.367 370.541C169.367 368.189 169.367 365.837 167.376 365.837C165.285 365.837 163.394 365.837 163.394 368.189Z" fill="#FF9D00"/>
<path opacity="0.5" d="M169.269 333.092C169.269 335.444 169.269 337.795 171.26 337.795C173.251 337.795 175.242 337.795 175.242 335.444C175.242 333.092 175.242 330.741 173.251 330.741C173.251 330.741 171.26 330.741 169.269 333.092Z" fill="#FF9D00"/>
<path opacity="0.5" d="M115.703 288.677C101.764 347.203 99.773 431.419 109.729 473.573C73.986 440.827 38.2428 401.026 10.365 351.907C4.3912 305.141 28.2864 237.207 28.2864 237.207L115.703 288.677Z" fill="#FFCE00"/>
<path opacity="0.5" d="M296.41 382.3C264.649 440.826 266.641 529.746 286.454 581.216C258.676 569.547 218.95 553.174 175.242 525.042C147.463 408.081 193.163 328.478 193.163 328.478L296.41 382.3Z" fill="#FFCE00"/>
<path opacity="0.5" d="M183.207 513.284C183.207 515.636 183.207 517.988 185.198 517.988C187.19 517.988 189.181 517.988 189.181 515.636C189.181 513.285 189.181 510.932 187.19 510.932C185.198 510.932 183.207 510.932 183.207 513.284Z" fill="#FF9D00"/>
<path opacity="0.5" d="M177.233 468.869C177.233 471.221 177.233 473.573 179.225 473.573C181.216 473.573 183.207 473.573 183.207 471.221C183.207 468.869 183.207 466.517 181.216 466.517L177.233 468.869Z" fill="#FF9D00"/>
<path opacity="0.5" d="M175.242 429.068C175.242 431.42 175.242 433.772 177.233 433.772C179.225 433.772 181.216 433.772 181.216 431.42C181.216 429.068 181.216 426.716 179.225 426.716C177.233 426.716 175.242 426.716 175.242 429.068Z" fill="#FF9D00"/>
<path opacity="0.8" d="M175.242 305.051C187.189 272.306 220.941 258.285 246.728 272.306C274.506 286.327 286.454 326.128 272.515 358.873C260.567 391.618 226.815 405.639 201.028 391.618C173.25 377.597 161.402 337.796 175.242 305.051ZM193.163 314.368C185.198 335.445 193.163 358.782 209.093 365.838C225.023 375.155 244.836 365.838 252.802 344.762C260.767 323.685 252.802 300.257 236.871 293.292C220.941 286.327 201.128 295.644 193.163 314.368Z" fill="#FFB000"/>
<path opacity="0.5" d="M177.233 389.265C177.233 391.617 177.233 393.969 179.225 393.969C181.216 393.969 183.207 393.969 183.207 391.617C183.207 389.265 183.207 386.913 181.216 386.913C181.216 386.913 179.225 386.913 177.233 389.265Z" fill="#FF9D00"/>
<path opacity="0.5" d="M191.173 356.52C191.173 358.872 191.173 361.224 193.164 361.224C195.155 361.224 197.147 361.224 197.147 358.872C197.147 356.52 197.147 354.168 195.155 354.168C195.155 354.168 193.164 354.168 191.173 356.52Z" fill="#FF9D00"/>
<path opacity="0.5" d="M197.147 258.284L83.8438 197.406C83.8438 197.406 89.8176 176.33 103.756 150.64C151.447 145.936 197.147 150.64 238.864 162.309C218.951 185.737 201.129 232.504 197.147 258.284Z" fill="#FFCE00"/>
<path opacity="0.5" d="M187.19 305.051C177.233 330.831 187.19 361.224 208.994 372.893C230.798 384.562 256.685 372.893 266.641 347.113C276.598 321.424 266.641 290.94 244.737 279.271C222.933 267.602 197.146 279.271 187.19 305.051Z" fill="url(#paint0_linear)"/>
<path opacity="0.5" d="M242.845 279.269C264.65 290.938 274.606 321.422 264.65 347.113C258.676 363.485 244.737 375.154 228.906 377.506C238.863 375.154 248.72 365.837 252.702 354.078C260.667 333.001 252.702 309.663 234.781 297.903C216.859 288.586 197.046 297.903 187.09 318.98C183.107 330.649 183.107 344.761 187.09 356.43C179.125 342.409 175.142 323.684 183.107 304.959C197.146 279.269 222.933 267.6 242.845 279.269Z" fill="url(#paint1_linear)"/>
<path opacity="0.5" d="M177.234 300.347C189.181 267.601 220.942 253.58 248.72 269.953C276.498 283.974 288.446 321.424 274.507 354.169C262.559 386.915 230.799 400.935 203.021 384.563C177.234 370.542 165.386 333.093 177.234 300.347ZM195.155 309.754C187.19 328.479 195.155 351.907 211.085 361.225C227.015 370.632 246.828 361.225 254.794 342.5C262.759 323.775 254.794 300.347 238.863 291.03C222.933 281.622 203.12 291.03 195.155 309.754Z" fill="#2F306B"/>
<path opacity="0.5" d="M360.032 199.759L302.385 169.366C292.428 164.662 288.446 150.641 292.428 138.972C296.411 127.303 308.359 122.599 318.215 127.303L365.906 153.083L360.032 199.759Z" fill="url(#paint2_linear)"/>
<g opacity="0.5">
<path opacity="0.5" d="M238.864 276.919C236.873 279.271 238.864 281.623 240.855 283.975C242.846 286.328 244.838 283.975 246.829 281.623C248.82 279.271 246.829 276.919 244.838 274.567C242.846 272.305 240.855 274.657 238.864 276.919Z" fill="#28244B"/>
<path opacity="0.5" d="M264.65 305.05C262.659 305.05 260.668 309.754 262.659 312.106C262.659 314.457 266.641 316.809 268.632 314.457C270.624 314.457 272.615 309.754 270.624 307.402C270.624 305.05 266.641 302.698 264.65 305.05Z" fill="#28244B"/>
<path opacity="0.5" d="M266.641 342.499C264.65 340.148 262.659 342.5 260.668 344.851C258.676 347.203 260.668 349.555 262.659 351.906C264.65 354.258 266.641 351.906 268.633 349.555C270.624 347.112 268.633 344.851 266.641 342.499Z" fill="#28244B"/>
<path opacity="0.5" d="M244.838 372.894C244.838 370.542 240.855 368.19 238.864 370.542C236.873 370.542 234.881 375.246 236.873 377.598C236.873 379.95 240.855 382.302 242.846 379.95C244.838 377.598 246.829 375.246 244.838 372.894Z" fill="#28244B"/>
<path opacity="0.5" d="M210.986 375.245C212.977 372.893 210.986 370.542 208.995 368.19C207.004 365.838 205.012 368.19 203.021 370.542C201.03 372.893 203.021 375.245 205.012 377.597C208.995 379.949 210.986 377.597 210.986 375.245Z" fill="#28244B"/>
<path opacity="0.5" d="M187.19 349.464C189.181 349.464 191.173 344.761 189.181 342.409C189.181 340.058 185.199 337.706 183.208 340.058C181.216 340.058 179.225 344.761 181.216 347.112C181.216 349.464 185.199 349.464 187.19 349.464Z" fill="#28244B"/>
<path opacity="0.5" d="M185.199 309.754C187.19 312.106 189.181 309.754 191.172 307.402C193.164 305.051 191.172 302.699 189.181 300.347C187.19 297.995 185.199 300.347 183.207 302.699C181.216 305.051 181.216 309.754 185.199 309.754Z" fill="#28244B"/>
<path opacity="0.5" d="M207.102 281.622C207.102 283.974 211.085 286.327 213.076 283.975C215.067 283.975 217.058 279.27 215.067 276.917C215.067 274.565 211.085 272.212 209.093 274.565C207.102 274.655 205.111 276.917 207.102 281.622Z" fill="#28244B"/>
</g>
<path opacity="0.5" d="M264.65 557.698C264.65 560.05 264.65 562.401 266.642 562.401C268.633 562.401 270.624 562.401 270.624 560.05C270.624 557.698 270.624 555.346 268.633 555.346C266.642 553.085 264.65 555.437 264.65 557.698Z" fill="#FF9D00"/>
<path opacity="0.5" d="M258.677 513.284C258.677 515.636 258.677 517.988 260.668 517.988C262.659 517.988 264.651 517.988 264.651 515.636C264.651 513.285 264.651 510.932 262.659 510.932C260.668 510.932 258.677 510.932 258.677 513.284Z" fill="#FF9D00"/>
<path opacity="0.5" d="M258.677 473.483C258.677 475.835 258.677 478.186 260.668 478.186C262.659 478.186 264.651 478.186 264.651 475.835C264.651 473.483 264.651 471.131 262.659 471.131C260.668 471.131 258.677 471.131 258.677 473.483Z" fill="#FF9D00"/>
<path opacity="0.5" d="M260.668 433.771C260.668 436.123 260.668 438.475 262.659 438.475C264.65 438.475 266.642 438.475 266.642 436.123C266.642 433.771 266.642 431.419 264.65 431.419C264.65 431.419 260.668 431.419 260.668 433.771Z" fill="#FF9D00"/>
<path opacity="0.5" d="M270.624 398.674C270.624 401.026 270.624 403.377 272.615 403.377C274.606 403.377 276.598 403.377 276.598 401.026C276.598 398.674 276.598 396.323 274.606 396.323C272.615 396.323 270.624 396.323 270.624 398.674Z" fill="#FF9D00"/>
<path opacity="0.5" d="M280.58 499.263C280.58 501.615 280.58 503.967 282.571 503.967C284.563 503.967 286.554 503.967 286.554 501.615C286.554 499.263 286.554 496.911 284.563 496.911C284.563 494.558 282.571 496.911 280.58 499.263Z" fill="#FF9D00"/>
<path opacity="0.5" d="M284.563 534.361C284.563 536.713 284.563 539.065 286.555 539.065C288.546 539.065 290.537 539.065 290.537 536.713C290.537 534.36 290.537 532.008 288.546 532.008C286.555 529.656 284.563 532.009 284.563 534.361Z" fill="#FF9D00"/>
<path opacity="0.5" d="M282.571 454.758C282.571 457.11 282.571 459.461 284.563 459.461C286.554 459.461 288.545 459.461 288.545 457.11C288.545 454.758 288.545 452.406 286.554 452.406C286.554 452.406 284.563 454.758 282.571 454.758Z" fill="#FF9D00"/>
<path opacity="0.5" d="M292.429 422.012C292.429 424.364 292.429 426.716 294.42 426.716C296.411 426.716 298.403 426.716 298.403 424.364C298.403 422.012 298.403 419.66 296.411 419.66C294.42 419.66 292.429 419.66 292.429 422.012Z" fill="#FF9D00"/>
<path opacity="0.5" d="M304.377 389.265C304.377 391.617 304.377 393.969 306.368 393.969C308.359 393.969 310.351 393.969 310.351 391.617C310.351 389.265 310.351 386.913 308.359 386.913C306.368 386.913 304.377 386.913 304.377 389.265Z" fill="#FF9D00"/>
<path opacity="0.5" d="M113.713 407.991C113.713 410.343 113.713 412.694 115.704 412.694C117.695 412.694 119.687 412.694 119.687 410.343C119.687 407.991 119.687 405.64 117.695 405.64C117.695 405.64 115.704 407.991 113.713 407.991Z" fill="#FF9D00"/>
<path opacity="0.5" d="M111.721 368.189C111.721 370.541 111.721 372.893 113.712 372.893C115.703 372.893 117.695 372.893 117.695 370.541C117.695 368.189 117.695 365.837 115.703 365.837C115.703 365.837 113.712 365.837 111.721 368.189Z" fill="#FF9D00"/>
<path opacity="0.5" d="M117.695 328.479C117.695 330.831 117.695 333.182 119.687 333.182C121.678 333.182 123.669 333.182 123.669 330.831C123.669 328.48 123.669 326.128 121.678 326.128C121.578 326.128 119.687 326.128 117.695 328.479Z" fill="#FF9D00"/>
<path opacity="0.5" d="M121.577 293.382C121.577 295.733 121.577 298.085 123.568 298.085C125.56 298.085 127.551 298.085 127.551 295.733C127.551 293.382 127.551 291.03 125.56 291.03C123.568 288.678 121.577 291.03 121.577 293.382Z" fill="#FF9D00"/>
<path opacity="0.5" d="M6.38184 279.27C6.38184 281.622 6.38184 283.974 8.3731 283.974C10.3644 283.974 12.3556 283.974 12.3556 281.622C12.3556 279.27 12.3556 276.918 10.3644 276.918C8.3731 276.918 6.38184 276.918 6.38184 279.27Z" fill="#FF9D00"/>
<path opacity="0.5" d="M12.3564 244.172C12.3564 246.524 12.3564 248.876 14.3477 248.876C16.339 248.876 18.3303 248.876 18.3303 246.524C18.3303 244.172 18.3303 241.82 16.339 241.82C16.339 241.82 14.3477 244.172 12.3564 244.172Z" fill="#FF9D00"/>
<path opacity="0.5" d="M91.8086 258.284C91.8086 260.636 91.8086 262.988 93.7999 262.988C95.7911 262.988 97.7824 262.988 97.7824 260.636C97.7824 258.284 97.7824 255.932 95.7911 255.932C95.7911 255.932 91.8086 255.932 91.8086 258.284Z" fill="#FF9D00"/>
<path opacity="0.5" d="M54.0732 239.559C54.0732 241.912 54.0732 244.264 56.0645 244.264C58.0558 244.264 60.047 244.264 60.047 241.912C60.047 239.559 60.047 237.207 58.0558 237.207C58.0558 234.855 56.0645 237.207 54.0732 239.559Z" fill="#FF9D00"/>
<path opacity="0.5" d="M282.571 347.113C282.571 349.465 282.571 351.817 284.563 351.817C286.554 351.817 288.545 351.817 288.545 349.465C288.545 347.113 288.545 344.761 286.554 344.761C284.563 344.851 282.571 347.113 282.571 347.113Z" fill="#FF9D00"/>
<path opacity="0.5" d="M85.835 412.695C85.835 415.047 85.835 417.399 87.8262 417.399C89.8175 417.399 91.8088 417.399 91.8088 415.047C91.8088 412.695 91.8088 410.343 89.8175 410.343C87.8262 410.343 85.835 410.343 85.835 412.695Z" fill="#FF9D00"/>
<path opacity="0.5" d="M85.835 372.894C85.835 375.246 85.835 377.598 87.8262 377.598C89.8175 377.598 91.8088 377.598 91.8088 375.246C91.8088 372.894 91.8088 370.542 89.8175 370.542C87.8262 370.542 85.835 370.542 85.835 372.894Z" fill="#FF9D00"/>
<path opacity="0.5" d="M89.8174 335.444C89.8174 337.797 89.8174 340.149 91.8087 340.149C93.7999 340.149 95.7912 340.149 95.7912 337.797C95.7912 335.444 95.7912 333.092 93.7999 333.092C91.8087 330.74 89.8174 333.092 89.8174 335.444Z" fill="#FF9D00"/>
<path opacity="0.5" d="M95.791 297.995C95.791 300.347 95.791 302.699 97.7823 302.699C99.7735 302.699 101.765 302.699 101.765 300.347C101.765 297.995 101.765 295.643 99.7735 295.643C99.7735 295.643 95.791 295.643 95.791 297.995Z" fill="#FF9D00"/>
<path opacity="0.5" d="M183.207 230.152C183.207 232.504 183.207 234.856 185.198 234.856C187.19 234.856 189.181 234.856 189.181 232.504C189.181 230.152 189.181 227.8 187.19 227.8C187.19 227.8 185.198 227.8 183.207 230.152Z" fill="#FF9D00"/>
<path opacity="0.5" d="M153.438 213.778C153.438 216.13 153.438 218.482 155.429 218.482C157.42 218.482 159.411 218.482 159.411 216.13C159.411 213.778 159.411 211.427 157.42 211.427C155.429 211.427 153.438 211.426 153.438 213.778Z" fill="#FF9D00"/>
<path opacity="0.5" d="M121.577 197.405C121.577 199.757 121.577 202.109 123.568 202.109C125.56 202.109 127.551 202.109 127.551 199.757C127.551 197.405 127.551 195.053 125.56 195.053C125.56 195.053 123.568 195.053 121.577 197.405Z" fill="#FF9D00"/>
<path opacity="0.5" d="M93.7998 181.033C93.7998 183.384 93.7998 185.736 95.7911 185.736C97.7823 185.736 99.7736 185.736 99.7736 183.384C99.7736 181.033 99.7736 178.682 97.7823 178.682C97.7823 178.682 95.7911 178.682 93.7998 181.033Z" fill="#FF9D00"/>
<path opacity="0.5" d="M157.42 251.228C157.42 253.58 157.42 255.932 159.411 255.932C161.402 255.932 163.394 255.932 163.394 253.58C163.394 251.228 163.394 248.876 161.402 248.876C159.411 248.876 157.42 248.876 157.42 251.228Z" fill="#FF9D00"/>
<path opacity="0.5" d="M125.56 234.855C125.56 237.207 125.56 239.559 127.551 239.559C129.542 239.559 131.533 239.559 131.533 237.207C131.533 234.855 131.533 232.503 129.542 232.503C129.542 232.503 127.551 232.503 125.56 234.855Z" fill="#FF9D00"/>
<path opacity="0.5" d="M95.791 218.482C95.791 220.834 95.791 223.186 97.7823 223.186C99.7735 223.186 101.765 223.185 101.765 220.833C101.765 218.481 101.765 216.129 99.7735 216.129C97.7823 216.129 95.791 216.129 95.791 218.482Z" fill="#FF9D00"/>
<path opacity="0.5" d="M199.138 192.702C199.138 195.054 199.138 197.406 201.129 197.406C203.12 197.406 205.111 197.406 205.111 195.054C205.111 192.702 205.111 190.35 203.12 190.35C201.129 190.35 199.138 190.35 199.138 192.702Z" fill="#FF9D00"/>
<path opacity="0.5" d="M214.968 220.834C214.968 223.187 214.968 225.539 216.959 225.539C218.95 225.539 220.942 225.539 220.942 223.187C220.942 220.834 220.942 218.482 218.95 218.482C216.959 218.482 214.968 220.834 214.968 220.834Z" fill="#FF9D00"/>
<path opacity="0.5" d="M226.915 197.406C226.915 199.758 226.915 202.109 228.906 202.109C230.898 202.109 232.889 202.109 232.889 199.758C232.889 197.406 232.889 195.055 230.898 195.055C228.906 192.703 226.915 195.055 226.915 197.406Z" fill="#FF9D00"/>
<path opacity="0.5" d="M62.0391 279.27C62.0391 281.622 62.0391 283.974 64.0303 283.974C66.0216 283.974 68.0129 283.974 68.0129 281.622C68.0129 279.27 68.0129 276.918 66.0216 276.918C66.0216 276.918 64.0303 276.918 62.0391 279.27Z" fill="#FF9D00"/>
<path opacity="0.5" d="M16.3389 335.444C16.3389 337.796 16.3389 340.148 18.3301 340.148C20.3214 340.148 22.3127 340.148 22.3127 337.796C22.3127 335.444 22.3127 333.092 20.3214 333.092C20.3214 333.092 18.3301 333.092 16.3389 335.444Z" fill="#FF9D00"/>
<path opacity="0.5" d="M24.3037 297.995C24.3037 300.347 24.3037 302.699 26.295 302.699C28.2863 302.699 30.2775 302.699 30.2775 300.347C30.2775 297.995 30.2775 295.643 28.2863 295.643C26.295 295.643 24.3037 295.643 24.3037 297.995Z" fill="#FF9D00"/>
<path opacity="0.5" d="M32.2686 262.896C32.2686 265.248 32.2686 267.6 34.2598 267.6C36.2511 267.6 38.2424 267.6 38.2424 265.248C38.2424 262.896 38.2424 260.544 36.2511 260.544C36.1515 260.544 32.2686 260.544 32.2686 262.896Z" fill="#FF9D00"/>
<path opacity="0.4" d="M1.00025 237C1.00025 234.648 1.00025 229 1.00025 226.627C85.3177 386.653 225.848 470.313 336.137 524.953C346.093 524.953 354.058 520.249 344.102 475.835C326.18 377.598 411.606 246.525 411.606 246.525C431.518 260.546 443.366 269.954 443.366 269.954C508.879 328.48 530.783 415.047 501.013 494.559C483.192 539.064 455.314 569.458 419.571 583.479C415.588 585.831 411.606 585.831 407.623 588.183C403.641 590.535 399.658 590.535 395.675 590.535C393.684 590.535 393.684 590.535 391.693 590.535C389.702 590.535 389.702 590.535 387.71 590.535C367.798 595.238 345.993 592.886 322.198 590.535C322.198 590.535 100.665 531.513 1.00025 335.406C1.00025 332 1.00025 329 1.00022 325.5C1.00007 302 1 295 1.00022 250.5C1.00025 247 1.00025 239.352 1.00025 237Z" fill="#FFB000"/>
<path opacity="0.5" d="M501.114 494.558C491.157 522.6 475.327 543.677 457.405 560.049L381.936 506.227C360.032 489.854 348.184 459.461 352.167 428.977C360.132 382.21 377.954 312.015 411.805 248.785C431.718 262.806 443.566 272.214 443.566 272.214C508.979 328.388 530.883 415.046 501.114 494.558Z" fill="#2F306B"/>
<path opacity="0.5" d="M501.113 494.557C493.148 515.634 483.291 532.007 471.344 546.028L389.901 487.502C371.979 475.833 364.114 452.404 367.997 428.976C375.962 386.823 391.892 316.628 425.644 253.489C437.591 262.896 443.565 267.509 443.565 267.509C508.978 328.478 530.882 415.045 501.113 494.557Z" fill="url(#paint3_linear)"/>
<g opacity="0.4">
<path opacity="0.4" d="M493.148 410.344C497.13 410.344 499.122 407.992 499.122 405.64C497.13 372.894 485.183 347.114 467.361 326.037C465.37 323.685 463.378 323.685 461.387 326.037C459.396 328.389 459.396 330.741 461.387 333.093C479.308 351.818 489.165 377.598 491.156 407.992C489.165 407.992 491.156 410.344 493.148 410.344Z" fill="white"/>
</g>
<g opacity="0.4">
<path opacity="0.4" d="M481.201 492.206C483.192 492.206 485.183 492.206 487.175 489.854C487.175 489.854 497.131 461.813 499.122 436.033C499.122 433.681 497.131 431.329 495.14 431.329C493.148 431.329 491.157 433.681 491.157 436.033C489.166 461.722 479.21 487.502 479.21 487.502C477.218 487.593 479.21 489.854 481.201 492.206Z" fill="white"/>
</g>
<path opacity="0.5" d="M216.96 529.656C212.977 538.973 216.96 548.38 222.933 550.732C230.898 555.435 238.863 550.732 240.855 543.677C244.837 534.269 240.855 524.953 234.881 522.601C228.907 517.988 220.942 520.34 216.96 529.656Z" fill="#2F306B"/>
<g opacity="0.5">
<path opacity="0.5" d="M280.581 665.343C284.563 667.695 288.546 665.343 290.537 662.991C292.528 658.287 292.528 653.583 288.546 648.97L252.802 616.224C240.855 604.555 232.89 585.83 234.881 567.105L236.872 536.712C236.872 532.008 234.881 527.395 228.907 527.395C224.925 527.395 220.942 529.746 220.942 536.712L218.951 567.105C216.959 592.886 226.916 616.224 242.846 632.597L280.581 665.343Z" fill="#0981F3"/>
</g>
<g opacity="0.12">
<path opacity="0.8" d="M304.377 646.617L1926.5 1449.5L1918 3475.13L276.599 686.328L304.377 646.617Z" fill="url(#paint4_linear)"/>
<path opacity="0.5" d="M262.66 677.101L268.634 688.77C270.625 693.474 276.599 693.474 278.59 691.122L310.351 653.673C314.333 648.969 312.342 644.265 310.351 642.004L302.386 634.948C296.412 630.244 288.447 630.244 282.573 637.3L266.642 656.025C258.677 660.729 258.677 670.046 262.66 677.101Z" fill="#00CBFF"/>
</g>
<defs>
<linearGradient id="paint0_linear" x1="190.838" y1="396.137" x2="244.438" y2="270.058" gradientUnits="userSpaceOnUse">
<stop stop-color="#4F00BC"/>
<stop offset="0.5951" stop-color="#387ED3"/>
<stop offset="1" stop-color="#29D4E2"/>
</linearGradient>
<linearGradient id="paint1_linear" x1="191.413" y1="389.51" x2="242.357" y2="269.678" gradientUnits="userSpaceOnUse">
<stop stop-color="#4F00BC"/>
<stop offset="0.5951" stop-color="#387ED3"/>
<stop offset="1" stop-color="#29D4E2"/>
</linearGradient>
<linearGradient id="paint2_linear" x1="267.9" y1="140.612" x2="459.299" y2="214.956" gradientUnits="userSpaceOnUse">
<stop stop-color="#4F00BC"/>
<stop offset="1" stop-color="#29D4E2"/>
</linearGradient>
<linearGradient id="paint3_linear" x1="323.527" y1="365.868" x2="683.991" y2="484.319" gradientUnits="userSpaceOnUse">
<stop stop-color="#4F00BC"/>
<stop offset="1" stop-color="#29D4E2"/>
</linearGradient>
<linearGradient id="paint4_linear" x1="-693.449" y1="490.735" x2="582.74" y2="1654.04" gradientUnits="userSpaceOnUse">
<stop stop-color="white"/>
<stop offset="1" stop-color="white"/>
</linearGradient>
</defs>
</svg>
